<?xml version="1.0" encoding="utf-8"?>
<!-- Generator: Adobe Illustrator 14.0.0, SVG Export Plug-In . SVG Version: 6.00 Build 43363)  -->
<!DOCTYPE svg PUBLIC "-//W3C//DTD SVG 1.1//EN" "http://www.w3.org/Graphics/SVG/1.1/DTD/svg11.dtd">
<svg version="1.1" id="レイヤー_2" xmlns="http://www.w3.org/2000/svg" xmlns:xlink="http://www.w3.org/1999/xlink" x="0px"
	 y="0px" width="326.215px" height="213.832px" viewBox="0 7.304 326.215 213.832" enable-background="new 0 7.304 326.215 213.832"
	 xml:space="preserve">
<g>
	<path fill="#083E00" d="M16.324,36.608c-0.294,0-0.946-0.03-1.958-0.088c-1.012-0.06-2.171-0.11-3.476-0.154
		C9.584,36.322,8.345,36.3,7.172,36.3c-0.587,0-1.078,0.015-1.474,0.044c-0.396,0.029-0.822,0.066-1.276,0.11
		c-0.455,0.044-1.078,0.066-1.87,0.066c-0.381,0-0.689-0.044-0.924-0.132c-0.235-0.088-0.352-0.234-0.352-0.44
		c0-0.234,0.117-0.388,0.352-0.462c0.234-0.073,0.601-0.154,1.1-0.242c1.114-0.205,1.884-0.542,2.31-1.012
		C5.463,33.763,5.676,33,5.676,31.944v-19.8c0-1.056-0.213-1.804-0.638-2.244c-0.426-0.44-1.196-0.763-2.31-0.968
		c-0.499-0.088-0.866-0.183-1.1-0.286C1.393,8.543,1.276,8.375,1.276,8.14c0-0.205,0.117-0.352,0.352-0.44
		C1.862,7.612,2.17,7.568,2.552,7.568c0.763,0,1.371,0.007,1.826,0.022C4.833,7.605,5.28,7.619,5.72,7.634
		c0.44,0.015,1.012,0.022,1.716,0.022c0.469,0,1.063-0.014,1.782-0.044c0.719-0.029,1.467-0.073,2.244-0.132
		c0.777-0.059,1.481-0.103,2.112-0.132c0.63-0.029,1.092-0.044,1.386-0.044c2.992,0,5.544,0.36,7.656,1.078
		c2.112,0.719,3.828,1.716,5.148,2.992c1.32,1.276,2.295,2.757,2.926,4.444c0.63,1.687,0.946,3.498,0.946,5.434
		c0,2.112-0.396,4.092-1.188,5.94c-0.792,1.848-1.892,3.483-3.3,4.906c-1.408,1.423-3.036,2.53-4.884,3.322
		C20.416,36.212,18.436,36.608,16.324,36.608z M15.796,35.068c2.288,0,4.312-0.557,6.072-1.672c1.76-1.115,3.131-2.655,4.114-4.62
		c0.982-1.965,1.474-4.224,1.474-6.776c0-2.112-0.352-3.997-1.056-5.654c-0.704-1.657-1.643-3.05-2.816-4.18
		c-1.173-1.129-2.494-1.995-3.96-2.596c-1.467-0.601-2.948-0.902-4.444-0.902c-1.262,0-2.34,0.037-3.234,0.11
		C11.051,8.852,10.369,9.079,9.9,9.46c-0.469,0.381-0.704,1.012-0.704,1.892v19.624c0,1.174,0.323,2.054,0.968,2.64
		c0.645,0.587,1.474,0.976,2.486,1.166C13.662,34.973,14.71,35.068,15.796,35.068z"/>
	<path fill="#083E00" d="M46.948,36.96c-1.614,0-3.021-0.396-4.224-1.188c-1.203-0.792-2.142-1.914-2.816-3.366
		c-0.675-1.452-1.012-3.131-1.012-5.038c0-1.701,0.389-3.249,1.166-4.642c0.777-1.393,1.811-2.515,3.102-3.366
		c1.291-0.851,2.699-1.276,4.224-1.276c1.173,0,2.214,0.235,3.124,0.704c0.909,0.47,1.621,1.122,2.134,1.958
		c0.513,0.836,0.77,1.797,0.77,2.882c0,0.91-0.44,1.364-1.32,1.364h-9.284c-0.411,0-0.697,0.11-0.858,0.33
		c-0.162,0.22-0.242,0.653-0.242,1.298c0,1.408,0.308,2.692,0.924,3.85c0.616,1.159,1.437,2.083,2.464,2.772
		c1.026,0.689,2.156,1.034,3.388,1.034c0.88,0,1.679-0.168,2.398-0.506c0.718-0.337,1.356-0.829,1.914-1.474
		c0.117-0.146,0.205-0.242,0.264-0.286c0.059-0.044,0.132-0.066,0.22-0.066c0.234,0,0.352,0.147,0.352,0.44
		c0,0.558-0.264,1.173-0.792,1.848c-0.44,0.558-0.968,1.042-1.584,1.452c-0.616,0.411-1.291,0.726-2.024,0.946
		C48.502,36.85,47.74,36.96,46.948,36.96z M42.9,23.628h4.004c0.704,0,1.305-0.015,1.804-0.044c0.499-0.029,0.982-0.088,1.452-0.176
		c0.146-0.029,0.242-0.125,0.286-0.286c0.044-0.161,0.066-0.388,0.066-0.682c0-0.851-0.374-1.577-1.122-2.178
		c-0.748-0.601-1.636-0.902-2.662-0.902c-0.675,0-1.35,0.198-2.024,0.594c-0.675,0.396-1.232,0.888-1.672,1.474
		c-0.44,0.587-0.66,1.174-0.66,1.76C42.372,23.481,42.548,23.628,42.9,23.628z"/>
	<path fill="#083E00" d="M65.472,36.916c-0.91,0-1.76-0.14-2.552-0.418c-0.792-0.279-1.467-0.667-2.024-1.166
		c-0.147-0.323-0.257-0.865-0.33-1.628c-0.074-0.762-0.125-1.393-0.154-1.892c0-0.264,0.19-0.396,0.572-0.396
		c0.117,0,0.227,0.022,0.33,0.066c0.102,0.044,0.168,0.125,0.198,0.242c0.381,1.438,0.99,2.464,1.826,3.08
		c0.836,0.616,1.679,0.924,2.53,0.924c0.851,0,1.577-0.286,2.178-0.858c0.601-0.572,0.902-1.283,0.902-2.134
		c0-0.792-0.264-1.474-0.792-2.046c-0.528-0.572-1.452-1.269-2.772-2.09c-0.998-0.616-1.804-1.202-2.42-1.76
		c-0.616-0.557-1.063-1.129-1.342-1.716c-0.279-0.586-0.418-1.247-0.418-1.98c0-0.938,0.22-1.789,0.66-2.552
		c0.44-0.762,1.1-1.371,1.98-1.826c0.88-0.454,1.98-0.682,3.3-0.682c0.88,0,1.613,0.088,2.2,0.264
		c0.586,0.176,1.026,0.367,1.32,0.572c0.234,0.323,0.433,0.829,0.594,1.518c0.161,0.689,0.242,1.342,0.242,1.958
		c0,0.206-0.147,0.308-0.44,0.308c-0.176,0-0.345-0.036-0.506-0.11c-0.162-0.073-0.271-0.168-0.33-0.286
		c-0.381-0.968-0.858-1.708-1.43-2.222c-0.572-0.513-1.284-0.77-2.134-0.77c-0.733,0-1.386,0.22-1.958,0.66
		c-0.572,0.44-0.858,1.086-0.858,1.936c0,0.675,0.212,1.276,0.638,1.804c0.425,0.528,1.224,1.129,2.398,1.804
		c1.701,0.968,2.97,1.87,3.806,2.706c0.836,0.836,1.254,1.944,1.254,3.322c0,1.584-0.602,2.875-1.804,3.872
		C68.933,36.417,67.378,36.916,65.472,36.916z"/>
	<path fill="#083E00" d="M79.508,48.84c-0.147,0-0.337-0.022-0.572-0.066c-0.235-0.044-0.352-0.154-0.352-0.33
		c0-0.235,0.11-0.404,0.33-0.506c0.22-0.104,0.447-0.198,0.682-0.286c0.44-0.147,0.865-0.315,1.276-0.506
		c0.411-0.191,0.616-0.58,0.616-1.166V23.672c0-0.234-0.066-0.586-0.198-1.056c-0.132-0.469-0.345-0.924-0.638-1.364
		c-0.293-0.44-0.689-0.704-1.188-0.792c-0.117-0.029-0.206-0.103-0.264-0.22c-0.059-0.117-0.088-0.234-0.088-0.352
		c0-0.146,0.029-0.264,0.088-0.352c0.058-0.088,0.132-0.146,0.22-0.176c1.115-0.264,2.068-0.55,2.86-0.858
		c0.792-0.308,1.54-0.608,2.244-0.902c0.029,0,0.044-0.007,0.044-0.022c0-0.014,0.015-0.022,0.044-0.022
		c0.059,0,0.117,0.044,0.176,0.132c0.059,0.088,0.088,0.176,0.088,0.264c0,0.264-0.037,0.682-0.11,1.254
		c-0.074,0.572-0.11,1.034-0.11,1.386c0,0.235,0.014,0.367,0.044,0.396c0.293-0.293,0.828-0.667,1.606-1.122
		c0.777-0.455,1.665-0.865,2.662-1.232c0.997-0.366,1.95-0.55,2.86-0.55c1.525,0,2.823,0.403,3.894,1.21
		c1.07,0.807,1.892,1.848,2.464,3.124c0.572,1.276,0.858,2.604,0.858,3.982c0,1.32-0.25,2.604-0.748,3.85
		c-0.499,1.247-1.203,2.369-2.112,3.366c-0.91,0.998-1.966,1.797-3.168,2.398c-1.203,0.601-2.494,0.902-3.872,0.902
		c-0.411,0-0.902-0.066-1.474-0.198c-0.572-0.132-1.129-0.301-1.672-0.506c-0.543-0.205-0.961-0.44-1.254-0.704
		c-0.03,0-0.059,0.169-0.088,0.506c-0.03,0.337-0.052,0.689-0.066,1.056c-0.015,0.366-0.022,0.594-0.022,0.682v8.228
		c0,0.381,0.154,0.682,0.462,0.902c0.308,0.22,0.66,0.381,1.056,0.484c0.396,0.103,0.741,0.198,1.034,0.286
		c0.234,0.088,0.462,0.183,0.682,0.286c0.22,0.102,0.33,0.271,0.33,0.506c0,0.176-0.117,0.286-0.352,0.33
		c-0.235,0.044-0.44,0.066-0.616,0.066c-0.851,0-1.562-0.037-2.134-0.11c-0.572-0.074-1.24-0.11-2.002-0.11
		c-0.499,0-0.902,0.015-1.21,0.044c-0.308,0.029-0.624,0.066-0.946,0.11C80.549,48.818,80.095,48.84,79.508,48.84z M89.804,35.552
		c0.44,0,0.975-0.132,1.606-0.396c0.63-0.264,1.261-0.689,1.892-1.276c0.63-0.586,1.158-1.378,1.584-2.376
		c0.425-0.997,0.638-2.229,0.638-3.696c0-1.701-0.22-3.064-0.66-4.092c-0.44-1.026-0.983-1.804-1.628-2.332
		c-0.646-0.528-1.305-0.88-1.98-1.056c-0.675-0.176-1.247-0.264-1.716-0.264c-0.704,0-1.43,0.147-2.178,0.44
		c-0.748,0.293-1.379,0.624-1.892,0.99c-0.514,0.367-0.77,0.653-0.77,0.858c0,0.646-0.008,1.298-0.022,1.958
		c-0.015,0.66-0.03,1.298-0.044,1.914c-0.015,0.616-0.03,1.166-0.044,1.65c-0.015,0.484-0.022,0.858-0.022,1.122
		c0,1.174,0.271,2.259,0.814,3.256c0.542,0.998,1.217,1.797,2.024,2.398C88.212,35.251,89.012,35.552,89.804,35.552z"/>
	<path fill="#083E00" d="M114.356,36.96c-1.614,0-3.021-0.396-4.224-1.188c-1.203-0.792-2.142-1.914-2.816-3.366
		c-0.675-1.452-1.012-3.131-1.012-5.038c0-1.701,0.389-3.249,1.166-4.642c0.777-1.393,1.811-2.515,3.102-3.366
		c1.291-0.851,2.699-1.276,4.224-1.276c1.173,0,2.214,0.235,3.124,0.704c0.909,0.47,1.621,1.122,2.134,1.958
		c0.513,0.836,0.77,1.797,0.77,2.882c0,0.91-0.44,1.364-1.32,1.364h-9.284c-0.411,0-0.697,0.11-0.858,0.33
		c-0.162,0.22-0.242,0.653-0.242,1.298c0,1.408,0.308,2.692,0.924,3.85c0.616,1.159,1.437,2.083,2.464,2.772
		c1.026,0.689,2.156,1.034,3.388,1.034c0.88,0,1.679-0.168,2.398-0.506c0.718-0.337,1.356-0.829,1.914-1.474
		c0.117-0.146,0.205-0.242,0.264-0.286c0.059-0.044,0.132-0.066,0.22-0.066c0.234,0,0.352,0.147,0.352,0.44
		c0,0.558-0.264,1.173-0.792,1.848c-0.44,0.558-0.968,1.042-1.584,1.452c-0.616,0.411-1.291,0.726-2.024,0.946
		C115.91,36.85,115.148,36.96,114.356,36.96z M110.308,23.628h4.004c0.704,0,1.305-0.015,1.804-0.044
		c0.499-0.029,0.982-0.088,1.452-0.176c0.146-0.029,0.242-0.125,0.286-0.286c0.044-0.161,0.066-0.388,0.066-0.682
		c0-0.851-0.374-1.577-1.122-2.178c-0.748-0.601-1.636-0.902-2.662-0.902c-0.675,0-1.35,0.198-2.024,0.594
		c-0.675,0.396-1.232,0.888-1.672,1.474c-0.44,0.587-0.66,1.174-0.66,1.76C109.78,23.481,109.956,23.628,110.308,23.628z"/>
	<path fill="#083E00" d="M128.7,36.432c-0.293,0-0.513-0.037-0.66-0.11c-0.147-0.073-0.22-0.198-0.22-0.374
		c0-0.234,0.088-0.388,0.264-0.462c0.176-0.073,0.425-0.154,0.748-0.242c0.557-0.146,0.975-0.359,1.254-0.638
		c0.278-0.279,0.418-0.623,0.418-1.034v-9.46c0-0.792-0.118-1.481-0.352-2.068c-0.235-0.586-0.719-0.953-1.452-1.1
		c-0.117-0.029-0.22-0.103-0.308-0.22c-0.088-0.117-0.132-0.234-0.132-0.352c0-0.292,0.132-0.469,0.396-0.528
		c0.763-0.234,1.562-0.579,2.398-1.034c0.836-0.454,1.489-0.828,1.958-1.122c0.176-0.117,0.314-0.198,0.418-0.242
		c0.103-0.044,0.184-0.066,0.242-0.066c0.146,0,0.221,0.103,0.221,0.308c0,0.088-0.008,0.308-0.022,0.66s-0.03,0.763-0.044,1.232
		c-0.016,0.47-0.037,0.939-0.066,1.408c0,0.059,0.029,0.088,0.088,0.088c0.469-0.586,0.99-1.1,1.563-1.54s1.158-0.792,1.76-1.056
		c0.602-0.264,1.181-0.396,1.738-0.396c0.615,0,1.121,0.132,1.518,0.396c0.396,0.264,0.594,0.602,0.594,1.012
		c0,0.293-0.08,0.616-0.242,0.968c-0.161,0.352-0.373,0.66-0.637,0.924c-0.265,0.264-0.544,0.396-0.837,0.396
		c-0.176,0-0.366-0.037-0.571-0.11c-0.206-0.073-0.426-0.168-0.66-0.286c-0.235-0.088-0.47-0.176-0.704-0.264
		c-0.235-0.088-0.47-0.132-0.704-0.132c-0.704,0-1.387,0.25-2.046,0.748c-0.66,0.499-0.99,1.481-0.99,2.948v8.888
		c0,0.381,0.205,0.697,0.616,0.946c0.41,0.25,0.982,0.492,1.716,0.726c0.322,0.088,0.571,0.176,0.748,0.264
		c0.176,0.088,0.265,0.235,0.265,0.44c0,0.323-0.295,0.484-0.881,0.484c-0.88,0-1.547-0.037-2.002-0.11s-1.063-0.11-1.826-0.11
		c-0.5,0-0.902,0.015-1.21,0.044c-0.308,0.029-0.631,0.066-0.968,0.11C129.749,36.41,129.287,36.432,128.7,36.432z"/>
	<path fill="#083E00" d="M150.788,36.916c-0.528,0-1.064-0.206-1.606-0.616c-0.543-0.411-0.997-0.909-1.364-1.496
		c-0.367-0.586-0.55-1.144-0.55-1.672c0-0.938,0.249-1.672,0.748-2.2c0.498-0.528,1.29-1.012,2.376-1.452l4.488-1.848
		c0.586-0.234,0.931-0.44,1.034-0.616c0.102-0.176,0.168-0.557,0.197-1.144l0.088-2.816c0.029-0.762-0.184-1.422-0.638-1.98
		c-0.455-0.557-1.107-0.836-1.958-0.836c-0.439,0-0.88,0.074-1.32,0.22c-0.439,0.147-0.807,0.337-1.1,0.572
		c-0.176,0.118-0.294,0.293-0.352,0.528c-0.06,0.235-0.089,0.484-0.089,0.748c0,0.118,0.008,0.25,0.022,0.396
		c0.015,0.147,0.022,0.279,0.022,0.396c0,0.147-0.184,0.345-0.551,0.594c-0.367,0.25-0.777,0.47-1.231,0.66
		c-0.455,0.191-0.829,0.286-1.122,0.286c-0.147,0-0.264-0.036-0.353-0.11c-0.088-0.073-0.132-0.168-0.132-0.286
		c0-0.469,0.154-0.975,0.462-1.518c0.309-0.542,0.741-1.048,1.298-1.518c0.675-0.616,1.408-1.159,2.2-1.628
		c0.792-0.469,1.569-0.836,2.332-1.1c0.763-0.264,1.438-0.396,2.024-0.396c1.056,0,1.929,0.374,2.618,1.122
		c0.688,0.748,1.019,1.68,0.989,2.794l-0.22,10.56c-0.029,0.616,0.11,1.115,0.418,1.496c0.309,0.382,0.696,0.572,1.166,0.572
		c0.733,0,1.276-0.161,1.628-0.484c0.146-0.146,0.265-0.22,0.353-0.22c0.146,0,0.264,0.044,0.352,0.132
		c0.088,0.088,0.132,0.206,0.132,0.352c0,0.323-0.161,0.646-0.483,0.968c-0.47,0.469-0.976,0.843-1.519,1.122
		c-0.543,0.278-1.049,0.418-1.518,0.418c-1.35,0-2.42-0.763-3.212-2.288h-0.132c-0.969,0.792-1.893,1.372-2.772,1.738
		C152.636,36.732,151.727,36.916,150.788,36.916z M152.855,34.804c0.587,0,1.085-0.095,1.496-0.286c0.41-0.19,0.777-0.447,1.1-0.77
		c0.146-0.146,0.271-0.345,0.374-0.594c0.103-0.249,0.169-0.652,0.198-1.21l0.088-2.156c0.029-0.322,0.015-0.557-0.044-0.704
		c-0.059-0.146-0.176-0.22-0.352-0.22c-0.06,0-0.162,0.015-0.309,0.044c-0.146,0.03-0.337,0.088-0.571,0.176
		c-1.556,0.558-2.634,1.137-3.234,1.738c-0.602,0.602-0.902,1.151-0.902,1.65c0,0.763,0.228,1.342,0.683,1.738
		C151.836,34.606,152.328,34.804,152.855,34.804z"/>
	<path fill="#083E00" d="M175.911,36.916c-1.438,0-2.56-0.44-3.366-1.32c-0.808-0.88-1.21-2.185-1.21-3.916V21.472
		c0-0.234-0.088-0.403-0.265-0.506c-0.176-0.103-0.558-0.154-1.144-0.154h-0.264c-0.147,0-0.271-0.095-0.374-0.286
		c-0.104-0.19-0.154-0.389-0.154-0.594c0-0.058,0.044-0.146,0.132-0.264s0.146-0.19,0.176-0.22c0.587-0.41,1.122-0.821,1.606-1.232
		c0.484-0.411,0.924-0.814,1.32-1.21c0.396-0.396,0.726-0.755,0.989-1.078c0.146-0.146,0.271-0.271,0.374-0.374
		c0.103-0.103,0.228-0.154,0.374-0.154s0.286,0.029,0.418,0.088c0.132,0.059,0.184,0.191,0.154,0.396l-0.22,1.98
		c-0.03,0.323,0.044,0.543,0.22,0.66c0.176,0.118,0.454,0.176,0.836,0.176h5.016c0.117,0,0.221,0.096,0.309,0.286
		c0.088,0.191,0.132,0.418,0.132,0.682c0,0.264-0.044,0.521-0.132,0.77c-0.088,0.25-0.191,0.374-0.309,0.374h-4.355
		c-0.733,0-1.21,0.059-1.43,0.176c-0.221,0.118-0.33,0.47-0.33,1.056v8.668c0,1.173,0.249,2.098,0.748,2.772
		c0.498,0.675,1.217,1.012,2.155,1.012c0.851,0,1.511-0.066,1.98-0.198c0.469-0.132,0.895-0.33,1.276-0.594
		c0.058-0.058,0.116-0.088,0.176-0.088c0.116,0,0.197,0.066,0.242,0.198c0.044,0.132,0.065,0.271,0.065,0.418
		c0,0.147-0.242,0.44-0.726,0.88c-0.484,0.44-1.115,0.851-1.893,1.232S176.819,36.916,175.911,36.916z"/>
	<path fill="#083E00" d="M195.183,36.96c-1.613,0-3.021-0.396-4.224-1.188c-1.203-0.792-2.142-1.914-2.816-3.366
		s-1.012-3.131-1.012-5.038c0-1.701,0.388-3.249,1.166-4.642c0.776-1.393,1.811-2.515,3.102-3.366
		c1.291-0.851,2.698-1.276,4.224-1.276c1.174,0,2.215,0.235,3.124,0.704c0.909,0.47,1.621,1.122,2.135,1.958
		c0.513,0.836,0.77,1.797,0.77,2.882c0,0.91-0.439,1.364-1.32,1.364h-9.283c-0.411,0-0.697,0.11-0.858,0.33
		s-0.242,0.653-0.242,1.298c0,1.408,0.309,2.692,0.924,3.85c0.616,1.159,1.438,2.083,2.465,2.772
		c1.026,0.689,2.155,1.034,3.388,1.034c0.88,0,1.679-0.168,2.397-0.506c0.719-0.337,1.356-0.829,1.914-1.474
		c0.117-0.146,0.205-0.242,0.265-0.286c0.059-0.044,0.132-0.066,0.22-0.066c0.234,0,0.352,0.147,0.352,0.44
		c0,0.558-0.264,1.173-0.792,1.848c-0.439,0.558-0.968,1.042-1.584,1.452c-0.615,0.411-1.291,0.726-2.023,0.946
		C196.737,36.85,195.975,36.96,195.183,36.96z M191.135,23.628h4.004c0.704,0,1.305-0.015,1.804-0.044s0.982-0.088,1.452-0.176
		c0.146-0.029,0.242-0.125,0.286-0.286c0.044-0.161,0.065-0.388,0.065-0.682c0-0.851-0.374-1.577-1.121-2.178
		c-0.748-0.601-1.636-0.902-2.662-0.902c-0.676,0-1.35,0.198-2.024,0.594s-1.231,0.888-1.672,1.474
		c-0.44,0.587-0.66,1.174-0.66,1.76C190.606,23.481,190.782,23.628,191.135,23.628z"/>
	<path fill="#083E00" d="M14.74,129.004c-0.06,0-0.147-0.133-0.264-0.396c-0.118-0.264-0.235-0.543-0.352-0.836L4.62,103.924
		c-0.352-0.763-0.778-1.386-1.276-1.87c-0.5-0.484-1.13-0.828-1.892-1.034c-0.47-0.146-0.829-0.293-1.078-0.44
		C0.125,100.434,0,100.257,0,100.052c0-0.176,0.117-0.3,0.352-0.374c0.234-0.073,0.542-0.11,0.924-0.11
		c0.674,0,1.313,0.022,1.914,0.066C3.791,99.678,4.458,99.7,5.192,99.7c0.821,0,1.599-0.014,2.332-0.044
		c0.733-0.029,1.32-0.044,1.76-0.044c0.381,0,0.688,0.037,0.924,0.11c0.234,0.074,0.352,0.198,0.352,0.374
		c0,0.206-0.118,0.367-0.352,0.484c-0.235,0.118-0.602,0.25-1.1,0.396c-0.352,0.088-0.587,0.272-0.704,0.55
		c-0.117,0.279-0.176,0.58-0.176,0.902c0,0.47,0.117,1.1,0.352,1.892c0.674,1.702,1.291,3.256,1.848,4.664
		c0.557,1.408,1.106,2.765,1.65,4.07c0.542,1.306,1.114,2.64,1.716,4.004c0.601,1.364,1.269,2.882,2.002,4.554
		c0.146,0.323,0.271,0.47,0.374,0.44c0.103-0.029,0.198-0.161,0.286-0.396l3.432-8.492c0.088-0.234,0.154-0.432,0.198-0.594
		c0.044-0.161,0.066-0.3,0.066-0.418c0-0.176-0.029-0.359-0.088-0.55c-0.059-0.19-0.147-0.432-0.264-0.726l-2.508-6.248
		c-0.381-0.938-0.983-1.723-1.804-2.354c-0.821-0.63-1.613-1.048-2.376-1.254c-0.469-0.146-0.829-0.293-1.078-0.44
		c-0.25-0.146-0.374-0.322-0.374-0.528c0-0.176,0.117-0.3,0.352-0.374c0.234-0.073,0.542-0.11,0.924-0.11
		c0.469,0,0.917,0.015,1.342,0.044c0.425,0.03,0.865,0.052,1.32,0.066c0.454,0.015,0.946,0.022,1.474,0.022
		c0.675,0,1.298-0.014,1.87-0.044c0.572-0.029,1.078-0.044,1.518-0.044c0.381,0,0.689,0.037,0.924,0.11
		c0.235,0.074,0.352,0.198,0.352,0.374c0,0.235-0.147,0.426-0.44,0.572c-0.293,0.147-0.594,0.308-0.902,0.484
		c-0.308,0.176-0.462,0.44-0.462,0.792c0,0.059,0.007,0.118,0.022,0.176c0.014,0.059,0.036,0.118,0.066,0.176
		c0.059,0.118,0.168,0.403,0.33,0.858c0.161,0.455,0.352,0.961,0.572,1.518c0.22,0.558,0.433,1.078,0.638,1.562
		c0.205,0.484,0.352,0.829,0.44,1.034c0.146,0.352,0.271,0.536,0.374,0.55c0.103,0.015,0.242-0.168,0.418-0.55
		c0.234-0.528,0.477-1.128,0.726-1.804c0.249-0.674,0.469-1.313,0.66-1.914c0.19-0.601,0.314-1.019,0.374-1.254
		c0.029-0.088,0.044-0.19,0.044-0.308c0-0.352-0.132-0.616-0.396-0.792c-0.264-0.176-0.536-0.344-0.814-0.506
		c-0.279-0.161-0.418-0.359-0.418-0.594c0-0.176,0.117-0.3,0.352-0.374c0.234-0.073,0.542-0.11,0.924-0.11
		c0.645,0,1.085,0.015,1.32,0.044c0.234,0.03,0.557,0.044,0.968,0.044c0.498,0,0.924-0.022,1.276-0.066s0.792-0.066,1.32-0.066
		c0.381,0,0.689,0.037,0.924,0.11c0.235,0.074,0.352,0.198,0.352,0.374c0,0.206-0.117,0.374-0.352,0.506
		c-0.235,0.132-0.602,0.257-1.1,0.374c-0.939,0.206-1.577,0.455-1.914,0.748c-0.338,0.293-0.697,0.748-1.078,1.364
		c-0.147,0.264-0.359,0.704-0.638,1.32c-0.279,0.616-0.572,1.291-0.88,2.024c-0.308,0.734-0.58,1.423-0.814,2.068
		c-0.088,0.206-0.169,0.5-0.242,0.88c-0.074,0.381-0.082,0.646-0.022,0.792l4.532,11.66c0.059,0.147,0.132,0.191,0.22,0.132
		c0.088-0.059,0.176-0.19,0.264-0.396c0.733-1.936,1.562-4.415,2.486-7.436c0.924-3.021,1.884-6.219,2.882-9.592
		c0.088-0.264,0.154-0.535,0.198-0.814c0.044-0.278,0.066-0.535,0.066-0.77c0-0.44-0.096-0.836-0.286-1.188
		c-0.191-0.352-0.536-0.586-1.034-0.704c-0.293-0.088-0.609-0.205-0.946-0.352c-0.338-0.146-0.506-0.323-0.506-0.528
		c0-0.176,0.117-0.3,0.352-0.374c0.235-0.073,0.542-0.11,0.924-0.11c0.586,0,1.122,0.008,1.606,0.022
		c0.484,0.015,1.004,0.022,1.562,0.022c0.733,0,1.437-0.022,2.112-0.066c0.674-0.044,1.291-0.066,1.848-0.066
		c0.381,0,0.689,0.037,0.924,0.11c0.234,0.074,0.352,0.198,0.352,0.374c0,0.206-0.118,0.374-0.352,0.506
		c-0.235,0.132-0.602,0.257-1.1,0.374c-0.704,0.147-1.298,0.448-1.782,0.902c-0.484,0.455-0.866,0.954-1.144,1.496
		c-0.279,0.543-0.506,1.034-0.682,1.474l-7.788,23.012c-0.029,0.118-0.117,0.315-0.264,0.594c-0.147,0.278-0.293,0.418-0.44,0.418
		c-0.118,0-0.25-0.088-0.396-0.264c-0.147-0.177-0.264-0.366-0.352-0.572c-0.763-1.76-1.423-3.336-1.98-4.73
		c-0.558-1.393-1.093-2.794-1.606-4.202c-0.514-1.408-1.122-2.962-1.826-4.664c-0.088-0.205-0.162-0.286-0.22-0.242
		c-0.059,0.044-0.147,0.213-0.264,0.506c-0.704,1.672-1.313,3.154-1.826,4.444c-0.514,1.291-1.02,2.604-1.518,3.938
		c-0.499,1.335-1.056,2.867-1.672,4.597c-0.118,0.295-0.264,0.595-0.44,0.902C15.092,128.85,14.916,129.004,14.74,129.004z"/>
	<path fill="#083E00" d="M50.6,128.917c-1.643,0-3.124-0.383-4.444-1.145c-1.32-0.763-2.369-1.811-3.146-3.146
		c-0.778-1.334-1.166-2.853-1.166-4.554c0-1.232,0.242-2.435,0.726-3.608c0.484-1.173,1.166-2.244,2.046-3.212
		c0.88-0.968,1.906-1.738,3.08-2.31c1.173-0.572,2.435-0.858,3.784-0.858c1.701,0,3.234,0.411,4.598,1.232
		c1.364,0.821,2.449,1.899,3.256,3.234c0.807,1.335,1.21,2.794,1.21,4.378c0,1.702-0.374,3.315-1.122,4.84
		c-0.748,1.526-1.856,2.765-3.322,3.718C54.633,128.438,52.8,128.917,50.6,128.917z M51.524,127.596
		c0.997,0,1.892-0.191,2.684-0.572s1.408-0.997,1.848-1.848c0.352-0.675,0.586-1.497,0.704-2.464
		c0.117-0.968,0.176-1.877,0.176-2.728c0-1.408-0.257-2.765-0.77-4.07c-0.513-1.305-1.232-2.376-2.156-3.212
		s-2.017-1.254-3.278-1.254c-0.792,0-1.504,0.125-2.134,0.374c-0.631,0.25-1.21,0.711-1.738,1.386
		c-0.587,0.733-0.968,1.628-1.144,2.684c-0.176,1.056-0.264,2.112-0.264,3.168c0,1.438,0.264,2.81,0.792,4.114
		c0.528,1.306,1.247,2.37,2.156,3.19C49.309,127.186,50.35,127.596,51.524,127.596z"/>
	<path fill="#083E00" d="M68.639,128.432c-0.293,0-0.513-0.037-0.66-0.11c-0.147-0.073-0.22-0.198-0.22-0.374
		c0-0.234,0.088-0.389,0.264-0.462c0.176-0.073,0.425-0.153,0.748-0.242c0.557-0.146,0.975-0.358,1.254-0.638
		c0.278-0.279,0.418-0.623,0.418-1.034v-9.46c0-0.792-0.118-1.481-0.352-2.068c-0.235-0.586-0.719-0.953-1.452-1.1
		c-0.117-0.029-0.22-0.103-0.308-0.22c-0.088-0.117-0.132-0.234-0.132-0.352c0-0.292,0.132-0.469,0.396-0.528
		c0.763-0.234,1.562-0.579,2.398-1.034c0.836-0.454,1.489-0.828,1.958-1.122c0.176-0.117,0.315-0.198,0.418-0.242
		c0.102-0.044,0.183-0.066,0.242-0.066c0.146,0,0.22,0.103,0.22,0.308c0,0.088-0.008,0.308-0.022,0.66
		c-0.015,0.352-0.03,0.763-0.044,1.232c-0.015,0.47-0.037,0.939-0.066,1.408c0,0.059,0.029,0.088,0.088,0.088
		c0.469-0.586,0.99-1.1,1.562-1.54c0.572-0.44,1.158-0.792,1.76-1.056c0.601-0.264,1.181-0.396,1.738-0.396
		c0.616,0,1.122,0.132,1.518,0.396c0.396,0.264,0.594,0.602,0.594,1.012c0,0.293-0.081,0.616-0.242,0.968
		c-0.162,0.352-0.374,0.66-0.638,0.924c-0.264,0.264-0.543,0.396-0.836,0.396c-0.176,0-0.367-0.037-0.572-0.11
		c-0.206-0.073-0.426-0.168-0.66-0.286c-0.235-0.088-0.469-0.176-0.704-0.264c-0.235-0.088-0.47-0.132-0.704-0.132
		c-0.704,0-1.386,0.25-2.046,0.748c-0.66,0.499-0.99,1.481-0.99,2.948v8.888c0,0.382,0.205,0.697,0.616,0.946
		c0.41,0.25,0.982,0.491,1.716,0.726c0.322,0.089,0.572,0.177,0.748,0.265c0.176,0.088,0.264,0.234,0.264,0.439
		c0,0.323-0.294,0.484-0.88,0.484c-0.88,0-1.547-0.037-2.002-0.11c-0.455-0.073-1.063-0.11-1.826-0.11
		c-0.5,0-0.902,0.016-1.21,0.045c-0.308,0.029-0.631,0.065-0.968,0.109C69.688,128.41,69.226,128.432,68.639,128.432z"/>
	<path fill="#083E00" d="M87.428,128.432c-0.675,0-1.012-0.161-1.012-0.484c0-0.234,0.11-0.389,0.33-0.462s0.447-0.153,0.682-0.242
		c0.44-0.146,0.865-0.337,1.276-0.571c0.411-0.234,0.616-0.646,0.616-1.232v-22.044c0-1.027-0.147-1.774-0.44-2.244
		c-0.293-0.469-0.807-0.792-1.54-0.968c-0.264-0.058-0.396-0.249-0.396-0.572c0-0.293,0.117-0.469,0.352-0.528
		c0.763-0.176,1.423-0.359,1.98-0.55c0.557-0.19,1.063-0.381,1.518-0.572c0.455-0.19,0.902-0.374,1.342-0.55
		c0.176-0.088,0.308-0.132,0.396-0.132c0.088,0,0.154,0.03,0.198,0.088c0.044,0.059,0.066,0.162,0.066,0.308
		c0,0.293-0.066,0.88-0.198,1.76c-0.132,0.88-0.198,2.259-0.198,4.136v14.432c0,0.264,0.073,0.396,0.22,0.396
		c0.176,0,0.403-0.073,0.682-0.22c0.278-0.146,0.579-0.366,0.902-0.66c1.203-1.027,2.207-1.958,3.014-2.794
		c0.806-0.836,1.356-1.415,1.65-1.738c0.146-0.176,0.249-0.315,0.308-0.418c0.058-0.103,0.088-0.183,0.088-0.242
		c0-0.146-0.125-0.278-0.374-0.396c-0.25-0.117-0.506-0.205-0.77-0.264c-0.352-0.088-0.528-0.234-0.528-0.44
		c0-0.146,0.088-0.271,0.264-0.374c0.176-0.103,0.411-0.154,0.704-0.154h2.156c0.469,0,0.96-0.044,1.474-0.132
		s0.997-0.176,1.452-0.264c0.455-0.088,0.814-0.132,1.078-0.132c0.41,0,0.616,0.147,0.616,0.44c0,0.176-0.103,0.33-0.308,0.462
		c-0.206,0.132-0.47,0.242-0.792,0.33c-0.557,0.147-1.078,0.352-1.562,0.616c-0.484,0.264-0.932,0.513-1.342,0.748
		c-0.176,0.118-0.58,0.434-1.21,0.946c-0.631,0.514-1.35,1.107-2.156,1.782c-0.807,0.675-1.562,1.32-2.266,1.936
		c-0.176,0.176-0.264,0.323-0.264,0.44c0,0.03,0.015,0.074,0.044,0.132c0.029,0.059,0.059,0.118,0.088,0.176
		c0.763,0.939,1.584,1.892,2.464,2.86c0.88,0.968,1.694,1.819,2.442,2.552c0.748,0.733,1.269,1.247,1.562,1.54
		c0.499,0.471,1.063,0.889,1.694,1.254c0.63,0.367,1.166,0.624,1.606,0.771c0.323,0.118,0.623,0.22,0.902,0.308
		c0.278,0.088,0.418,0.25,0.418,0.484c0,0.323-0.294,0.484-0.88,0.484c-1.144,0-2.427-0.022-3.85-0.066
		c-1.423-0.044-2.882-0.066-4.378-0.066c-0.528,0-0.792-0.131-0.792-0.396c0-0.176,0.073-0.322,0.22-0.44
		c0.146-0.116,0.322-0.205,0.528-0.264c0.323-0.117,0.601-0.248,0.836-0.396c0.235-0.146,0.352-0.352,0.352-0.615
		c0-0.088-0.029-0.184-0.088-0.286c-0.059-0.103-0.132-0.212-0.22-0.33l-5.324-6.028c-0.176-0.205-0.323-0.308-0.44-0.308
		c-0.147,0-0.22,0.103-0.22,0.308c-0.029,0.411-0.044,0.858-0.044,1.342s0,0.976,0,1.474c0,0.499,0,1.012,0,1.54
		c0,0.528,0.015,1.042,0.044,1.54c0,0.587,0.146,0.998,0.44,1.232c0.293,0.234,0.66,0.425,1.1,0.571
		c0.234,0.089,0.462,0.169,0.682,0.242s0.33,0.228,0.33,0.462c0,0.205-0.14,0.338-0.418,0.396c-0.279,0.059-0.477,0.088-0.594,0.088
		c-0.558,0-0.968-0.022-1.232-0.066s-0.506-0.08-0.726-0.109c-0.22-0.029-0.594-0.045-1.122-0.045c-0.499,0-0.895,0.016-1.188,0.045
		c-0.293,0.029-0.594,0.065-0.902,0.109S88.014,128.432,87.428,128.432z"/>
	<path fill="#083E00" d="M125.333,128.366c-0.22-0.103-0.33-0.227-0.33-0.374c0-0.264,0.139-0.446,0.418-0.55
		c0.278-0.103,0.462-0.168,0.55-0.198c1.144-0.234,2.024-0.579,2.64-1.034c0.616-0.454,0.924-1.166,0.924-2.134V103.66
		c0-0.704-0.074-1.224-0.22-1.562c-0.147-0.337-0.411-0.586-0.792-0.748c-0.381-0.161-0.939-0.3-1.672-0.418
		c-0.968-0.176-1.452-0.469-1.452-0.88c0-0.176,0.117-0.3,0.352-0.374c0.234-0.073,0.542-0.11,0.924-0.11
		c0.792,0,1.43,0.015,1.914,0.044c0.484,0.03,0.946,0.052,1.386,0.066c0.44,0.015,0.982,0.022,1.628,0.022
		c0.733,0,1.364-0.007,1.892-0.022c0.528-0.014,1.07-0.036,1.628-0.066c0.557-0.029,1.232-0.044,2.023-0.044
		c0.381,0,0.689,0.037,0.924,0.11c0.234,0.074,0.353,0.198,0.353,0.374c0,0.206-0.118,0.382-0.353,0.528
		c-0.234,0.147-0.602,0.264-1.1,0.352c-1.086,0.206-2.01,0.448-2.771,0.726c-0.764,0.279-1.145,0.844-1.145,1.694v20.724
		c0,0.909,0.205,1.584,0.616,2.024c0.411,0.439,1.335,0.66,2.772,0.66h5.455c0.793,0,1.488-0.125,2.09-0.375
		c0.602-0.248,1.049-0.506,1.343-0.77c0.587-0.498,1.019-0.946,1.298-1.342c0.278-0.396,0.608-0.99,0.99-1.782
		c0.059-0.176,0.183-0.44,0.374-0.792c0.19-0.352,0.389-0.528,0.594-0.528c0.176,0,0.308,0.088,0.396,0.264
		c0.088,0.176,0.132,0.352,0.132,0.528c0,0.029-0.008,0.066-0.022,0.11s-0.021,0.081-0.021,0.11
		c-0.206,0.763-0.39,1.452-0.551,2.068c-0.161,0.616-0.293,1.204-0.396,1.76c-0.104,0.557-0.184,1.144-0.242,1.76
		c-0.029,0.205-0.081,0.381-0.154,0.527s-0.228,0.221-0.462,0.221c-1.467,0-2.875-0.016-4.224-0.045
		c-1.35-0.029-2.647-0.051-3.895-0.065c-1.246-0.015-2.441-0.037-3.586-0.065c-1.144-0.029-2.273-0.045-3.388-0.045
		c-0.733,0-1.562,0.016-2.486,0.045c-0.924,0.028-2.076,0.088-3.454,0.176C125.854,128.52,125.553,128.468,125.333,128.366z"/>
	<path fill="#083E00" d="M163.283,128.959c-1.613,0-3.021-0.396-4.224-1.188c-1.203-0.792-2.142-1.914-2.816-3.366
		s-1.012-3.131-1.012-5.038c0-1.701,0.388-3.249,1.166-4.642c0.776-1.393,1.811-2.515,3.102-3.366
		c1.291-0.851,2.698-1.276,4.224-1.276c1.174,0,2.215,0.235,3.124,0.704c0.909,0.47,1.621,1.122,2.135,1.958
		c0.513,0.836,0.77,1.797,0.77,2.882c0,0.91-0.439,1.364-1.32,1.364h-9.283c-0.411,0-0.697,0.11-0.858,0.33
		s-0.242,0.653-0.242,1.298c0,1.408,0.309,2.692,0.924,3.85c0.616,1.159,1.438,2.083,2.465,2.772
		c1.026,0.689,2.155,1.034,3.388,1.034c0.88,0,1.679-0.168,2.397-0.506c0.719-0.337,1.356-0.828,1.914-1.474
		c0.117-0.146,0.205-0.242,0.265-0.286c0.059-0.044,0.132-0.066,0.22-0.066c0.234,0,0.352,0.147,0.352,0.44
		c0,0.558-0.264,1.173-0.792,1.848c-0.439,0.558-0.968,1.042-1.584,1.452c-0.615,0.41-1.291,0.726-2.023,0.945
		C164.838,128.85,164.075,128.959,163.283,128.959z M159.235,115.628h4.004c0.704,0,1.305-0.015,1.804-0.044
		s0.982-0.088,1.452-0.176c0.146-0.029,0.242-0.125,0.286-0.286c0.044-0.161,0.065-0.388,0.065-0.682
		c0-0.851-0.374-1.577-1.121-2.178c-0.748-0.601-1.636-0.902-2.662-0.902c-0.676,0-1.35,0.198-2.024,0.594s-1.231,0.888-1.672,1.474
		c-0.44,0.587-0.66,1.174-0.66,1.76C158.707,115.481,158.883,115.628,159.235,115.628z"/>
	<path fill="#083E00" d="M190.739,129.135c-0.06,0-0.154-0.059-0.286-0.176s-0.198-0.205-0.198-0.264
		c0-0.293,0.037-0.711,0.11-1.254s0.11-1.004,0.11-1.387v-0.264c-0.44,0.676-1.145,1.364-2.112,2.068s-2.186,1.057-3.652,1.057
		c-1.672,0-3.117-0.441-4.334-1.32c-1.217-0.881-2.155-2.01-2.815-3.388s-0.99-2.801-0.99-4.268c0-1.701,0.396-3.3,1.188-4.796
		c0.792-1.496,1.929-2.713,3.41-3.652c1.481-0.938,3.249-1.408,5.303-1.408c0.586,0,1.18,0.051,1.781,0.154
		c0.602,0.103,1.063,0.213,1.387,0.33c0.264,0.088,0.454,0.132,0.571,0.132c0.205,0,0.309-0.352,0.309-1.056v-6.248
		c0-1.203-0.191-2.009-0.572-2.42c-0.382-0.41-0.924-0.674-1.628-0.792c-0.264-0.058-0.396-0.249-0.396-0.572
		c0-0.264,0.117-0.44,0.353-0.528c1.29-0.323,2.303-0.631,3.036-0.924c0.732-0.293,1.305-0.528,1.716-0.704
		c0.117-0.058,0.227-0.095,0.33-0.11c0.103-0.014,0.183-0.022,0.242-0.022c0.176,0,0.278,0.088,0.308,0.264
		c0,0.176-0.022,0.477-0.066,0.902c-0.044,0.426-0.095,1.049-0.153,1.87c-0.06,0.821-0.088,1.892-0.088,3.212v19.888
		c0,0.998,0.072,1.724,0.22,2.177c0.146,0.455,0.381,0.683,0.704,0.683c0.146,0,0.402-0.015,0.77-0.044s0.74-0.059,1.122-0.088
		c0.528-0.029,0.792,0.104,0.792,0.396c0,0.205-0.065,0.389-0.198,0.549c-0.132,0.162-0.271,0.242-0.418,0.242
		c-0.821,0.117-1.628,0.286-2.42,0.506c-0.792,0.221-1.701,0.551-2.728,0.99c-0.235,0.117-0.39,0.19-0.462,0.221
		C190.907,129.121,190.827,129.135,190.739,129.135z M186.295,126.627c0.763,0,1.511-0.197,2.244-0.594s1.379-0.916,1.937-1.562
		l0.044-7.92c0-0.792-0.228-1.569-0.683-2.332c-0.455-0.762-1.085-1.386-1.892-1.87c-0.808-0.484-1.753-0.726-2.838-0.726
		c-0.676,0-1.438,0.206-2.288,0.616c-0.852,0.411-1.584,1.137-2.2,2.178c-0.616,1.042-0.924,2.545-0.924,4.51
		c0,1.672,0.249,3.014,0.748,4.026c0.498,1.012,1.106,1.782,1.826,2.311c0.718,0.527,1.452,0.887,2.2,1.078
		C185.217,126.533,185.826,126.627,186.295,126.627z"/>
	<path fill="#083E00" d="M223.211,128.917c-1.438,0-2.56-0.441-3.366-1.32c-0.808-0.881-1.21-2.186-1.21-3.917v-10.208
		c0-0.234-0.088-0.403-0.265-0.506c-0.176-0.103-0.558-0.154-1.144-0.154h-0.264c-0.147,0-0.271-0.095-0.374-0.286
		c-0.104-0.19-0.154-0.389-0.154-0.594c0-0.058,0.044-0.146,0.132-0.264s0.146-0.19,0.176-0.22c0.587-0.41,1.122-0.821,1.606-1.232
		c0.484-0.411,0.924-0.814,1.32-1.21c0.396-0.396,0.726-0.755,0.989-1.078c0.146-0.146,0.271-0.271,0.374-0.374
		c0.103-0.103,0.228-0.154,0.374-0.154s0.286,0.029,0.418,0.088c0.132,0.059,0.184,0.191,0.154,0.396l-0.22,1.98
		c-0.03,0.323,0.044,0.543,0.22,0.66c0.176,0.118,0.454,0.176,0.836,0.176h5.016c0.117,0,0.221,0.096,0.309,0.286
		c0.088,0.191,0.132,0.418,0.132,0.682c0,0.264-0.044,0.521-0.132,0.77c-0.088,0.25-0.191,0.374-0.309,0.374h-4.355
		c-0.733,0-1.21,0.059-1.43,0.176c-0.221,0.118-0.33,0.47-0.33,1.056v8.668c0,1.173,0.249,2.097,0.748,2.772
		c0.498,0.675,1.217,1.012,2.155,1.012c0.851,0,1.511-0.065,1.98-0.198c0.469-0.131,0.895-0.33,1.276-0.594
		c0.058-0.059,0.116-0.088,0.176-0.088c0.116,0,0.197,0.066,0.242,0.198c0.044,0.132,0.065,0.271,0.065,0.418
		c0,0.147-0.242,0.44-0.726,0.88c-0.484,0.439-1.115,0.852-1.893,1.232S224.119,128.917,223.211,128.917z"/>
	<path fill="#083E00" d="M243.405,128.917c-1.643,0-3.124-0.383-4.444-1.145c-1.319-0.763-2.369-1.811-3.146-3.146
		c-0.777-1.334-1.166-2.853-1.166-4.554c0-1.232,0.242-2.435,0.726-3.608c0.484-1.173,1.166-2.244,2.046-3.212
		c0.881-0.968,1.907-1.738,3.08-2.31c1.173-0.572,2.435-0.858,3.784-0.858c1.701,0,3.234,0.411,4.599,1.232
		c1.363,0.821,2.448,1.899,3.256,3.234c0.807,1.335,1.21,2.794,1.21,4.378c0,1.702-0.374,3.315-1.122,4.84
		c-0.748,1.526-1.855,2.765-3.322,3.718C247.438,128.438,245.605,128.917,243.405,128.917z M244.329,127.596
		c0.997,0,1.893-0.191,2.685-0.572s1.407-0.997,1.848-1.848c0.352-0.675,0.587-1.497,0.704-2.464
		c0.117-0.968,0.176-1.877,0.176-2.728c0-1.408-0.257-2.765-0.77-4.07c-0.514-1.305-1.232-2.376-2.156-3.212
		s-2.018-1.254-3.278-1.254c-0.792,0-1.503,0.125-2.134,0.374c-0.631,0.25-1.21,0.711-1.738,1.386
		c-0.587,0.733-0.968,1.628-1.144,2.684c-0.176,1.056-0.264,2.112-0.264,3.168c0,1.438,0.264,2.81,0.792,4.114
		c0.527,1.306,1.246,2.37,2.155,3.19C242.114,127.186,243.156,127.596,244.329,127.596z"/>
	<path fill="#083E00" d="M8.976,221.004c-1.232,0-2.369-0.184-3.41-0.551c-1.042-0.366-1.973-0.887-2.794-1.563
		c-0.118-0.116-0.228-0.248-0.33-0.396c-0.103-0.146-0.184-0.308-0.242-0.483c-0.147-0.587-0.242-1.35-0.286-2.289
		c-0.044-0.938-0.096-1.715-0.154-2.332c0-0.204,0.088-0.358,0.264-0.461c0.176-0.104,0.381-0.154,0.616-0.154
		c0.146,0,0.293,0.037,0.44,0.109c0.146,0.074,0.234,0.199,0.264,0.375c0.586,2.259,1.458,3.871,2.618,4.84
		c1.159,0.968,2.369,1.451,3.63,1.451c1.027,0,1.936-0.219,2.728-0.66c0.792-0.439,1.415-1.063,1.87-1.869
		c0.455-0.807,0.682-1.752,0.682-2.838c0-1.203-0.198-2.178-0.594-2.926s-0.961-1.4-1.694-1.959
		c-0.733-0.557-1.628-1.158-2.684-1.804c-1.144-0.733-2.273-1.474-3.388-2.222c-1.115-0.748-2.04-1.613-2.772-2.596
		c-0.734-0.982-1.1-2.178-1.1-3.586c0-1.496,0.337-2.846,1.012-4.049c0.675-1.202,1.694-2.162,3.058-2.882
		c1.364-0.718,3.072-1.077,5.126-1.077c1.056,0,1.973,0.109,2.75,0.329c0.777,0.22,1.4,0.434,1.87,0.638
		c0.234,0.088,0.433,0.236,0.594,0.44c0.161,0.206,0.271,0.426,0.33,0.66c0.176,0.616,0.367,1.319,0.572,2.112
		c0.205,0.791,0.308,1.539,0.308,2.244c0,0.322-0.22,0.483-0.66,0.483c-0.264,0-0.521-0.058-0.77-0.176
		c-0.25-0.117-0.404-0.265-0.462-0.44c-0.616-1.555-1.335-2.742-2.156-3.563c-0.821-0.821-1.863-1.232-3.124-1.232
		c-0.88,0-1.702,0.161-2.464,0.484c-0.763,0.323-1.386,0.851-1.87,1.584s-0.726,1.716-0.726,2.948c0,0.879,0.286,1.68,0.858,2.397
		c0.572,0.72,1.327,1.401,2.266,2.046c0.938,0.646,1.951,1.306,3.036,1.98c1.026,0.615,2.031,1.291,3.014,2.023
		c0.982,0.734,1.789,1.606,2.42,2.618c0.63,1.013,0.946,2.252,0.946,3.718c0,1.731-0.396,3.25-1.188,4.555s-1.907,2.31-3.344,3.014
		C12.599,220.652,10.912,221.004,8.976,221.004z"/>
	<path fill="#083E00" d="M34.232,220.959c-1.614,0-3.021-0.396-4.224-1.188c-1.203-0.792-2.142-1.914-2.816-3.366
		c-0.675-1.452-1.012-3.131-1.012-5.038c0-1.701,0.389-3.248,1.166-4.643c0.777-1.393,1.811-2.514,3.102-3.365
		c1.291-0.851,2.699-1.275,4.224-1.275c1.173,0,2.214,0.234,3.124,0.703c0.909,0.47,1.621,1.122,2.134,1.958
		c0.513,0.837,0.77,1.798,0.77,2.882c0,0.91-0.44,1.364-1.32,1.364h-9.284c-0.411,0-0.697,0.11-0.858,0.33
		c-0.162,0.22-0.242,0.653-0.242,1.298c0,1.408,0.308,2.691,0.924,3.85c0.616,1.16,1.437,2.084,2.464,2.772
		c1.026,0.689,2.156,1.034,3.388,1.034c0.88,0,1.679-0.168,2.398-0.506c0.718-0.337,1.356-0.828,1.914-1.475
		c0.117-0.146,0.205-0.242,0.264-0.285c0.059-0.045,0.132-0.066,0.22-0.066c0.234,0,0.352,0.146,0.352,0.439
		c0,0.559-0.264,1.174-0.792,1.849c-0.44,0.558-0.968,1.042-1.584,1.452c-0.616,0.41-1.291,0.726-2.024,0.945
		C35.786,220.85,35.024,220.959,34.232,220.959z M30.184,207.627h4.004c0.704,0,1.305-0.014,1.804-0.043
		c0.499-0.029,0.982-0.089,1.452-0.177c0.146-0.028,0.242-0.124,0.286-0.286c0.044-0.16,0.066-0.389,0.066-0.682
		c0-0.851-0.374-1.576-1.122-2.178s-1.636-0.902-2.662-0.902c-0.675,0-1.35,0.197-2.024,0.594c-0.675,0.396-1.232,0.888-1.672,1.475
		s-0.66,1.174-0.66,1.76C29.656,207.481,29.832,207.627,30.184,207.627z"/>
	<path fill="#083E00" d="M48.136,220.432c-0.147,0-0.33-0.022-0.55-0.066s-0.33-0.154-0.33-0.33c0-0.234,0.11-0.402,0.33-0.506
		c0.22-0.103,0.447-0.197,0.682-0.286c0.44-0.146,0.865-0.315,1.276-0.506c0.411-0.19,0.616-0.579,0.616-1.166v-22.176
		c0-0.851-0.154-1.562-0.462-2.134c-0.308-0.572-0.829-0.932-1.562-1.078c-0.235-0.059-0.352-0.249-0.352-0.572
		c0-0.293,0.103-0.469,0.308-0.527c0.763-0.177,1.422-0.359,1.98-0.551c0.557-0.19,1.078-0.389,1.562-0.594
		c0.484-0.205,0.96-0.396,1.43-0.572c0.117-0.059,0.205-0.088,0.264-0.088c0.058,0,0.11,0.037,0.154,0.109
		c0.044,0.074,0.066,0.141,0.066,0.199c0,0.264-0.051,0.828-0.154,1.693c-0.103,0.865-0.154,2.295-0.154,4.29v22
		c0,0.587,0.205,0.976,0.616,1.166c0.411,0.19,0.836,0.359,1.276,0.506c0.234,0.089,0.462,0.184,0.682,0.286
		c0.22,0.104,0.33,0.271,0.33,0.506c0,0.176-0.11,0.286-0.33,0.33c-0.22,0.044-0.404,0.066-0.55,0.066
		c-0.558,0-1.005-0.022-1.342-0.066c-0.337-0.044-0.66-0.08-0.968-0.109c-0.308-0.029-0.726-0.045-1.254-0.045
		c-0.499,0-0.909,0.016-1.232,0.045s-0.646,0.065-0.968,0.109C49.177,220.41,48.722,220.432,48.136,220.432z"/>
	<path fill="#083E00" d="M63.316,220.432c-0.293,0-0.514-0.037-0.66-0.11c-0.147-0.073-0.22-0.198-0.22-0.374
		c0-0.234,0.095-0.396,0.286-0.484c0.19-0.088,0.433-0.16,0.726-0.22c0.675-0.146,1.159-0.358,1.452-0.638
		c0.293-0.279,0.44-0.711,0.44-1.299V204.9c-0.293,0-0.631-0.007-1.012-0.022c-0.382-0.014-0.807-0.036-1.276-0.065
		c-0.088-0.029-0.213-0.132-0.374-0.308c-0.162-0.177-0.242-0.338-0.242-0.484c0-0.059,0.044-0.11,0.132-0.154
		s0.146-0.08,0.176-0.109c0.528-0.265,0.983-0.499,1.364-0.705c0.381-0.204,0.792-0.41,1.232-0.615c0-2.553,0.315-4.679,0.946-6.381
		c0.631-1.7,1.445-3.05,2.442-4.047c0.997-0.998,2.053-1.709,3.168-2.135c1.114-0.425,2.156-0.638,3.124-0.638
		c1.642,0,2.86,0.249,3.652,0.748s1.188,1.13,1.188,1.892c0,0.588-0.147,1.027-0.44,1.32c-0.293,0.293-0.646,0.439-1.056,0.439
		c-0.264,0-0.506-0.102-0.726-0.308c-0.22-0.204-0.477-0.44-0.77-0.704c-0.381-0.381-0.851-0.74-1.408-1.078
		c-0.558-0.336-1.32-0.506-2.288-0.506c-1.379,0-2.516,0.602-3.41,1.805c-0.895,1.203-1.342,3.051-1.342,5.543v3.873
		c0,0.176,0.051,0.293,0.154,0.352c0.103,0.059,0.212,0.088,0.33,0.088h5.5c0.146,0,0.278,0.044,0.396,0.133
		c0.117,0.088,0.176,0.205,0.176,0.352c0,0.205-0.022,0.426-0.066,0.66c-0.044,0.234-0.11,0.439-0.198,0.615
		c-0.088,0.235-0.22,0.353-0.396,0.353h-5.06c-0.352,0-0.58,0.052-0.682,0.153c-0.103,0.104-0.154,0.242-0.154,0.418v11.924
		c0,0.588,0.19,1.02,0.572,1.299c0.381,0.279,1.159,0.491,2.332,0.638c0.675,0.089,1.012,0.323,1.012,0.704
		c0,0.176-0.074,0.301-0.22,0.374c-0.147,0.073-0.367,0.11-0.66,0.11c-0.88,0-1.658-0.037-2.332-0.11
		c-0.675-0.073-1.394-0.11-2.156-0.11c-0.499,0-0.91,0.016-1.232,0.045c-0.323,0.029-0.66,0.065-1.012,0.109
		C64.372,220.41,63.902,220.432,63.316,220.432z"/>
	<path fill="#083E00" d="M81.312,212.82c-0.176,0-0.264-0.088-0.264-0.265c0-0.498,0.066-1.012,0.198-1.539
		c0.132-0.528,0.3-0.807,0.506-0.836c1.408-0.205,2.816-0.403,4.224-0.594c1.408-0.191,2.816-0.359,4.224-0.507
		c0.088,0,0.168,0.022,0.242,0.066c0.073,0.044,0.11,0.11,0.11,0.198c0,0.557-0.066,1.078-0.198,1.562s-0.374,0.755-0.726,0.813
		c-1.32,0.206-2.662,0.404-4.026,0.595C84.237,212.504,82.808,212.673,81.312,212.82z"/>
	<path fill="#083E00" d="M114.135,220.959c-2.054,0-4.034-0.352-5.94-1.056s-3.608-1.708-5.104-3.015
		c-1.496-1.305-2.677-2.874-3.542-4.707s-1.298-3.865-1.298-6.094c0-2.142,0.455-4.121,1.364-5.94
		c0.909-1.818,2.156-3.402,3.74-4.752c1.584-1.349,3.395-2.397,5.434-3.146c2.039-0.748,4.187-1.123,6.446-1.123
		c1.144,0,2.112,0.045,2.904,0.133s1.562,0.213,2.31,0.373c0.748,0.162,1.62,0.375,2.618,0.639c0.44,0.117,0.755,0.293,0.946,0.527
		c0.19,0.236,0.3,0.559,0.33,0.969c0.058,0.675,0.132,1.4,0.22,2.178s0.146,1.738,0.176,2.882c0.029,0.206-0.066,0.374-0.286,0.507
		c-0.22,0.131-0.455,0.168-0.704,0.109c-0.25-0.059-0.418-0.249-0.506-0.572c-0.293-1.114-0.631-2.074-1.012-2.882
		c-0.381-0.806-0.954-1.474-1.716-2.002c-0.734-0.499-1.621-0.872-2.662-1.122c-1.042-0.249-2.164-0.374-3.366-0.374
		c-1.701,0-3.278,0.345-4.73,1.034c-1.452,0.689-2.699,1.628-3.74,2.816c-1.042,1.188-1.855,2.529-2.442,4.025
		c-0.587,1.496-0.88,3.051-0.88,4.664c0,1.789,0.286,3.55,0.858,5.28c0.572,1.731,1.393,3.293,2.464,4.687
		c1.07,1.393,2.346,2.508,3.828,3.344c1.48,0.836,3.131,1.254,4.95,1.254c2.112,0,3.857-0.484,5.236-1.452
		c1.378-0.968,2.552-2.317,3.52-4.048c0.205-0.381,0.506-0.572,0.902-0.572s0.594,0.234,0.594,0.704
		c0,0.235-0.059,0.608-0.176,1.122c-0.118,0.514-0.271,1.056-0.462,1.628c-0.191,0.571-0.374,1.077-0.55,1.518
		c-0.206,0.411-0.374,0.675-0.506,0.792s-0.433,0.25-0.902,0.396c-1.085,0.439-2.384,0.762-3.894,0.968
		C117.045,220.856,115.571,220.959,114.135,220.959z"/>
	<path fill="#083E00" d="M142.162,220.917c-1.643,0-3.124-0.383-4.443-1.145c-1.32-0.763-2.369-1.811-3.146-3.146
		c-0.777-1.334-1.166-2.852-1.166-4.554c0-1.231,0.242-2.435,0.727-3.608c0.483-1.172,1.166-2.244,2.045-3.211
		c0.881-0.969,1.906-1.738,3.08-2.311s2.436-0.857,3.784-0.857c1.701,0,3.234,0.41,4.599,1.231c1.363,0.821,2.448,1.899,3.256,3.233
		c0.807,1.336,1.21,2.795,1.21,4.379c0,1.701-0.374,3.314-1.122,4.84s-1.855,2.765-3.322,3.718
		C146.195,220.438,144.362,220.917,142.162,220.917z M143.086,219.596c0.997,0,1.893-0.191,2.684-0.572
		c0.793-0.381,1.408-0.997,1.849-1.848c0.352-0.675,0.587-1.496,0.704-2.465c0.117-0.968,0.176-1.877,0.176-2.728
		c0-1.408-0.257-2.765-0.77-4.07c-0.514-1.305-1.232-2.376-2.156-3.212s-2.018-1.254-3.277-1.254c-0.793,0-1.504,0.125-2.135,0.374
		s-1.21,0.712-1.738,1.386c-0.587,0.734-0.968,1.629-1.144,2.684c-0.177,1.057-0.265,2.113-0.265,3.168
		c0,1.438,0.265,2.811,0.793,4.115c0.527,1.305,1.246,2.369,2.156,3.189C140.871,219.186,141.912,219.596,143.086,219.596z"/>
	<path fill="#083E00" d="M159.981,220.432c-0.264,0-0.477-0.037-0.638-0.11s-0.242-0.198-0.242-0.374
		c0-0.234,0.088-0.389,0.265-0.462c0.176-0.073,0.425-0.153,0.748-0.242c0.439-0.116,0.864-0.278,1.275-0.483
		s0.616-0.602,0.616-1.188v-9.46c0-0.792-0.081-1.467-0.242-2.023c-0.161-0.558-0.623-0.939-1.386-1.145
		c-0.117-0.059-0.22-0.125-0.308-0.198c-0.089-0.073-0.133-0.198-0.133-0.374c0-0.322,0.133-0.498,0.396-0.527
		c1.026-0.265,1.862-0.587,2.508-0.969c0.645-0.381,1.276-0.807,1.893-1.275c0.088-0.059,0.168-0.11,0.241-0.154
		s0.154-0.066,0.242-0.066c0.059,0,0.11,0.029,0.154,0.088c0.044,0.06,0.065,0.133,0.065,0.221c0,0.205-0.037,0.623-0.109,1.254
		c-0.074,0.631-0.11,1.151-0.11,1.563c0,0.117,0.007,0.227,0.022,0.33c0.014,0.103,0.036,0.168,0.065,0.197
		c1.026-0.968,2.119-1.701,3.278-2.199c1.158-0.499,2.427-0.748,3.806-0.748c1.438,0,2.625,0.586,3.564,1.76
		c0.938,1.174,1.408,2.625,1.408,4.355v9.372c0,0.587,0.204,0.976,0.615,1.166s0.836,0.359,1.276,0.506
		c0.234,0.089,0.462,0.184,0.682,0.286c0.221,0.104,0.33,0.271,0.33,0.506c0,0.176-0.103,0.286-0.308,0.33
		c-0.206,0.044-0.396,0.066-0.572,0.066c-0.587,0-1.041-0.022-1.364-0.066c-0.322-0.044-0.631-0.08-0.924-0.109
		s-0.704-0.045-1.231-0.045c-0.499,0-0.91,0.016-1.232,0.045c-0.323,0.029-0.653,0.065-0.99,0.109s-0.799,0.066-1.386,0.066
		c-0.147,0-0.33-0.022-0.55-0.066s-0.33-0.154-0.33-0.33c0-0.234,0.11-0.402,0.33-0.506c0.22-0.103,0.446-0.197,0.682-0.286
		c0.44-0.146,0.865-0.315,1.276-0.506c0.41-0.19,0.616-0.579,0.616-1.166v-9.239c0-1.291-0.36-2.295-1.078-3.015
		c-0.72-0.718-1.68-1.093-2.882-1.122c-1.057,0-1.98,0.169-2.772,0.506c-0.792,0.338-1.496,0.756-2.112,1.254
		c-0.117,0.117-0.205,0.271-0.264,0.463c-0.059,0.19-0.088,0.373-0.088,0.549v10.604c0,0.587,0.205,0.983,0.616,1.188
		c0.41,0.205,0.836,0.367,1.275,0.483c0.675,0.177,1.013,0.411,1.013,0.704c0,0.176-0.074,0.301-0.221,0.374s-0.367,0.11-0.659,0.11
		c-0.588,0-1.05-0.022-1.387-0.066s-0.653-0.08-0.945-0.109c-0.294-0.029-0.704-0.045-1.232-0.045c-0.499,0-0.902,0.016-1.21,0.045
		s-0.631,0.065-0.968,0.109C161.03,220.41,160.568,220.432,159.981,220.432z"/>
	<path fill="#083E00" d="M187.614,220.432c-0.146,0-0.329-0.022-0.55-0.066c-0.22-0.044-0.33-0.154-0.33-0.33
		c0-0.234,0.11-0.402,0.33-0.506c0.221-0.103,0.447-0.197,0.683-0.286c0.439-0.146,0.864-0.345,1.275-0.594s0.616-0.696,0.616-1.343
		V204.9c-0.294,0-0.631,0-1.012,0c-0.382,0-0.808-0.028-1.276-0.088c-0.117-0.029-0.228-0.117-0.33-0.265
		c-0.103-0.146-0.153-0.322-0.153-0.527s0.16-0.352,0.483-0.44c0.528-0.146,0.946-0.3,1.254-0.462
		c0.309-0.16,0.652-0.33,1.034-0.506c0-2.641,0.366-4.824,1.1-6.557c0.733-1.73,1.665-3.094,2.794-4.092
		c1.129-0.996,2.295-1.701,3.498-2.111s2.288-0.616,3.257-0.616c0.88,0,1.76,0.088,2.64,0.265c0.88,0.176,1.613,0.469,2.2,0.879
		c0.586,0.412,0.88,0.983,0.88,1.717c0,0.821-0.228,1.408-0.682,1.76c-0.456,0.352-0.962,0.527-1.519,0.527
		c-0.382,0-0.689-0.139-0.924-0.418c-0.235-0.277-0.499-0.594-0.792-0.945c-0.353-0.469-0.808-0.924-1.364-1.364
		c-0.558-0.44-1.35-0.66-2.376-0.66c-0.939,0-1.841,0.286-2.706,0.858s-1.569,1.474-2.112,2.705
		c-0.543,1.232-0.813,2.846-0.813,4.841v2.42c0,0.353,0.11,0.571,0.33,0.66c0.22,0.088,0.477,0.161,0.77,0.22
		c0.821,0.088,1.68,0.162,2.574,0.221s1.753,0.088,2.574,0.088c0.792,0,1.48-0.029,2.068-0.088c0.586-0.059,0.982-0.133,1.188-0.221
		c0.41-0.234,0.807-0.477,1.188-0.727c0.381-0.248,0.762-0.49,1.144-0.725c0.117-0.059,0.234-0.074,0.352-0.045
		s0.177,0.104,0.177,0.221c-0.03,0.498-0.096,1.275-0.198,2.332c-0.104,1.056-0.154,2.537-0.154,4.443v9.107
		c0,0.646,0.205,1.094,0.616,1.343c0.41,0.249,0.836,0.447,1.276,0.594c0.234,0.089,0.462,0.184,0.682,0.286
		c0.22,0.104,0.33,0.271,0.33,0.506c0,0.176-0.11,0.286-0.33,0.33s-0.403,0.066-0.55,0.066c-0.587,0-1.049-0.022-1.386-0.066
		c-0.338-0.044-0.653-0.08-0.946-0.109c-0.294-0.029-0.704-0.045-1.232-0.045c-0.499,0-0.901,0.016-1.21,0.045
		c-0.308,0.029-0.631,0.065-0.968,0.109c-0.338,0.044-0.8,0.066-1.386,0.066c-0.147,0-0.33-0.022-0.55-0.066
		c-0.221-0.044-0.33-0.154-0.33-0.33c0-0.234,0.109-0.402,0.33-0.506c0.22-0.103,0.446-0.197,0.682-0.286
		c0.439-0.146,0.865-0.345,1.276-0.594c0.41-0.249,0.615-0.696,0.615-1.343v-9.283c0-0.82-0.161-1.525-0.483-2.112
		c-0.323-0.587-0.866-0.952-1.628-1.1c-0.06-0.029-0.315-0.044-0.771-0.044s-0.99,0-1.605,0c-0.44,0-0.896,0-1.364,0
		c-0.47,0-0.91,0.015-1.32,0.044c-0.851,0.029-1.356,0.117-1.518,0.264c-0.162,0.147-0.242,0.353-0.242,0.616v11.615
		c0,0.646,0.205,1.094,0.616,1.343c0.41,0.249,0.836,0.447,1.275,0.594c0.234,0.089,0.462,0.184,0.683,0.286
		c0.22,0.104,0.33,0.271,0.33,0.506c0,0.176-0.11,0.286-0.33,0.33c-0.221,0.044-0.404,0.066-0.55,0.066
		c-0.588,0-1.05-0.022-1.387-0.066s-0.653-0.08-0.945-0.109c-0.294-0.029-0.704-0.045-1.232-0.045c-0.499,0-0.902,0.016-1.21,0.045
		s-0.631,0.065-0.968,0.109C188.663,220.41,188.201,220.432,187.614,220.432z"/>
	<path fill="#083E00" d="M228.578,221.135c-0.06,0-0.154-0.059-0.286-0.176s-0.198-0.205-0.198-0.264
		c0-0.293,0.037-0.711,0.11-1.254s0.11-1.004,0.11-1.387v-0.264c-0.44,0.676-1.145,1.364-2.112,2.068s-2.186,1.057-3.652,1.057
		c-1.672,0-3.117-0.441-4.334-1.32c-1.217-0.881-2.155-2.01-2.815-3.389c-0.66-1.378-0.99-2.801-0.99-4.268
		c0-1.701,0.396-3.301,1.188-4.796c0.792-1.496,1.929-2.713,3.41-3.652c1.481-0.938,3.249-1.407,5.303-1.407
		c0.586,0,1.18,0.051,1.781,0.153s1.063,0.214,1.387,0.33c0.264,0.088,0.454,0.132,0.571,0.132c0.205,0,0.309-0.352,0.309-1.056
		v-6.248c0-1.202-0.191-2.009-0.572-2.421c-0.382-0.41-0.924-0.674-1.628-0.791c-0.264-0.059-0.396-0.249-0.396-0.572
		c0-0.264,0.117-0.439,0.353-0.527c1.29-0.323,2.303-0.631,3.036-0.925c0.732-0.293,1.305-0.528,1.716-0.704
		c0.117-0.059,0.227-0.095,0.33-0.109c0.103-0.015,0.183-0.022,0.242-0.022c0.176,0,0.278,0.088,0.308,0.265
		c0,0.176-0.022,0.477-0.066,0.901c-0.044,0.426-0.095,1.05-0.153,1.87c-0.06,0.821-0.088,1.893-0.088,3.212v19.888
		c0,0.998,0.072,1.725,0.22,2.178c0.146,0.455,0.381,0.683,0.704,0.683c0.146,0,0.402-0.015,0.77-0.044s0.74-0.059,1.122-0.088
		c0.528-0.029,0.792,0.104,0.792,0.396c0,0.205-0.065,0.389-0.198,0.549c-0.132,0.162-0.271,0.242-0.418,0.242
		c-0.821,0.117-1.628,0.286-2.42,0.506c-0.792,0.221-1.701,0.551-2.728,0.99c-0.235,0.117-0.39,0.19-0.462,0.221
		C228.746,221.121,228.666,221.135,228.578,221.135z M224.134,218.627c0.763,0,1.511-0.197,2.244-0.594s1.379-0.916,1.937-1.563
		l0.044-7.92c0-0.791-0.228-1.568-0.683-2.332c-0.455-0.762-1.085-1.385-1.892-1.869c-0.808-0.484-1.753-0.727-2.838-0.727
		c-0.676,0-1.438,0.206-2.288,0.616c-0.852,0.411-1.584,1.138-2.2,2.179s-0.924,2.545-0.924,4.51c0,1.672,0.249,3.014,0.748,4.025
		c0.498,1.012,1.106,1.782,1.826,2.311c0.718,0.527,1.452,0.887,2.2,1.078C223.056,218.533,223.665,218.627,224.134,218.627z"/>
	<path fill="#083E00" d="M248.906,220.959c-1.613,0-3.021-0.396-4.224-1.188c-1.203-0.792-2.142-1.914-2.816-3.366
		s-1.012-3.131-1.012-5.038c0-1.701,0.388-3.248,1.166-4.643c0.776-1.393,1.811-2.514,3.102-3.365
		c1.291-0.851,2.698-1.275,4.224-1.275c1.174,0,2.215,0.234,3.124,0.703c0.909,0.47,1.621,1.122,2.135,1.958
		c0.513,0.837,0.77,1.798,0.77,2.882c0,0.91-0.439,1.364-1.32,1.364h-9.283c-0.411,0-0.697,0.11-0.858,0.33
		s-0.242,0.653-0.242,1.298c0,1.408,0.309,2.691,0.924,3.85c0.616,1.16,1.438,2.084,2.465,2.772
		c1.026,0.689,2.155,1.034,3.388,1.034c0.88,0,1.679-0.168,2.397-0.506c0.719-0.337,1.356-0.828,1.914-1.475
		c0.117-0.146,0.205-0.242,0.265-0.285c0.059-0.045,0.132-0.066,0.22-0.066c0.234,0,0.352,0.146,0.352,0.439
		c0,0.559-0.264,1.174-0.792,1.849c-0.439,0.558-0.968,1.042-1.584,1.452c-0.615,0.41-1.291,0.726-2.023,0.945
		C250.461,220.85,249.698,220.959,248.906,220.959z M244.858,207.627h4.004c0.704,0,1.305-0.014,1.804-0.043
		s0.982-0.089,1.452-0.177c0.146-0.028,0.242-0.124,0.286-0.286c0.044-0.16,0.065-0.389,0.065-0.682
		c0-0.851-0.374-1.576-1.121-2.178c-0.748-0.602-1.636-0.902-2.662-0.902c-0.676,0-1.35,0.197-2.024,0.594s-1.231,0.888-1.672,1.475
		s-0.66,1.174-0.66,1.76C244.33,207.481,244.506,207.627,244.858,207.627z"/>
	<path fill="#083E00" d="M263.03,220.432c-0.264,0-0.477-0.037-0.638-0.11s-0.242-0.198-0.242-0.374
		c0-0.234,0.088-0.389,0.265-0.462c0.176-0.073,0.425-0.153,0.748-0.242c0.439-0.116,0.864-0.278,1.275-0.483
		s0.616-0.602,0.616-1.188v-9.46c0-0.792-0.081-1.467-0.242-2.023c-0.161-0.558-0.623-0.939-1.386-1.145
		c-0.117-0.059-0.22-0.125-0.308-0.198c-0.089-0.073-0.133-0.198-0.133-0.374c0-0.322,0.133-0.498,0.396-0.527
		c1.026-0.265,1.862-0.587,2.508-0.969c0.645-0.381,1.276-0.807,1.893-1.275c0.088-0.059,0.168-0.11,0.241-0.154
		s0.154-0.066,0.242-0.066c0.059,0,0.11,0.029,0.154,0.088c0.044,0.06,0.065,0.133,0.065,0.221c0,0.205-0.037,0.623-0.109,1.254
		c-0.074,0.631-0.11,1.151-0.11,1.563c0,0.117,0.007,0.227,0.022,0.33c0.014,0.103,0.036,0.168,0.065,0.197
		c1.026-0.968,2.119-1.701,3.278-2.199c1.158-0.499,2.427-0.748,3.806-0.748c1.438,0,2.625,0.586,3.564,1.76
		c0.938,1.174,1.408,2.625,1.408,4.355v9.372c0,0.587,0.204,0.976,0.615,1.166s0.836,0.359,1.276,0.506
		c0.234,0.089,0.462,0.184,0.682,0.286c0.221,0.104,0.33,0.271,0.33,0.506c0,0.176-0.103,0.286-0.308,0.33
		c-0.206,0.044-0.396,0.066-0.572,0.066c-0.587,0-1.041-0.022-1.364-0.066c-0.322-0.044-0.631-0.08-0.924-0.109
		s-0.704-0.045-1.231-0.045c-0.499,0-0.91,0.016-1.232,0.045c-0.323,0.029-0.653,0.065-0.99,0.109s-0.799,0.066-1.386,0.066
		c-0.147,0-0.33-0.022-0.55-0.066s-0.33-0.154-0.33-0.33c0-0.234,0.11-0.402,0.33-0.506c0.22-0.103,0.446-0.197,0.682-0.286
		c0.44-0.146,0.865-0.315,1.276-0.506c0.41-0.19,0.616-0.579,0.616-1.166v-9.239c0-1.291-0.36-2.295-1.078-3.015
		c-0.72-0.718-1.68-1.093-2.882-1.122c-1.057,0-1.98,0.169-2.772,0.506c-0.792,0.338-1.496,0.756-2.112,1.254
		c-0.117,0.117-0.205,0.271-0.264,0.463c-0.059,0.19-0.088,0.373-0.088,0.549v10.604c0,0.587,0.205,0.983,0.616,1.188
		c0.41,0.205,0.836,0.367,1.275,0.483c0.675,0.177,1.013,0.411,1.013,0.704c0,0.176-0.074,0.301-0.221,0.374s-0.367,0.11-0.659,0.11
		c-0.588,0-1.05-0.022-1.387-0.066s-0.653-0.08-0.945-0.109c-0.294-0.029-0.704-0.045-1.232-0.045c-0.499,0-0.902,0.016-1.21,0.045
		s-0.631,0.065-0.968,0.109C264.079,220.41,263.617,220.432,263.03,220.432z"/>
	<path fill="#083E00" d="M298.099,220.959c-1.467,0-2.794-0.373-3.982-1.121c-1.188-0.748-2.127-1.775-2.815-3.08
		c-0.689-1.305-1.034-2.766-1.034-4.379c0-1.906,0.418-3.637,1.254-5.191s1.958-2.794,3.366-3.719
		c1.408-0.924,2.962-1.385,4.664-1.385c1.906,0,3.578,0.513,5.016,1.539c0.353,0.264,0.528,0.543,0.528,0.836
		c0,0.235-0.104,0.5-0.309,0.793s-0.455,0.535-0.748,0.726s-0.571,0.286-0.836,0.286c-0.146,0-0.293-0.051-0.439-0.154
		c-0.147-0.103-0.309-0.213-0.484-0.33c-0.646-0.498-1.363-0.968-2.155-1.408c-0.793-0.439-1.452-0.66-1.98-0.66
		c-1.438,0-2.604,0.668-3.498,2.002c-0.896,1.336-1.342,3.088-1.342,5.258c0,1.38,0.3,2.626,0.901,3.74
		c0.602,1.115,1.408,1.996,2.421,2.641c1.012,0.646,2.134,0.968,3.365,0.968c0.851,0,1.584-0.139,2.2-0.418
		c0.616-0.278,1.276-0.771,1.98-1.474c0.058-0.059,0.132-0.11,0.22-0.154s0.161-0.066,0.22-0.066c0.322,0,0.484,0.206,0.484,0.616
		c0,0.177-0.052,0.374-0.154,0.595c-0.103,0.219-0.271,0.477-0.506,0.77c-0.47,0.587-1.027,1.093-1.672,1.518
		c-0.646,0.426-1.357,0.74-2.134,0.946C299.851,220.856,299.008,220.959,298.099,220.959z"/>
	<path fill="#083E00" d="M319.527,220.959c-1.613,0-3.021-0.396-4.224-1.188c-1.203-0.792-2.142-1.914-2.816-3.366
		s-1.012-3.131-1.012-5.038c0-1.701,0.388-3.248,1.166-4.643c0.776-1.393,1.811-2.514,3.102-3.365
		c1.291-0.851,2.698-1.275,4.224-1.275c1.174,0,2.215,0.234,3.124,0.703c0.909,0.47,1.621,1.122,2.135,1.958
		c0.513,0.837,0.77,1.798,0.77,2.882c0,0.91-0.439,1.364-1.32,1.364h-9.283c-0.411,0-0.697,0.11-0.858,0.33
		s-0.242,0.653-0.242,1.298c0,1.408,0.309,2.691,0.924,3.85c0.616,1.16,1.438,2.084,2.465,2.772
		c1.026,0.689,2.155,1.034,3.388,1.034c0.88,0,1.679-0.168,2.397-0.506c0.719-0.337,1.356-0.828,1.914-1.475
		c0.117-0.146,0.205-0.242,0.265-0.285c0.059-0.045,0.132-0.066,0.22-0.066c0.234,0,0.352,0.146,0.352,0.439
		c0,0.559-0.264,1.174-0.792,1.849c-0.439,0.558-0.968,1.042-1.584,1.452c-0.615,0.41-1.291,0.726-2.023,0.945
		C321.082,220.85,320.319,220.959,319.527,220.959z M315.479,207.627h4.004c0.704,0,1.305-0.014,1.804-0.043
		s0.982-0.089,1.452-0.177c0.146-0.028,0.242-0.124,0.286-0.286c0.044-0.16,0.065-0.389,0.065-0.682
		c0-0.851-0.374-1.576-1.121-2.178c-0.748-0.602-1.636-0.902-2.662-0.902c-0.676,0-1.35,0.197-2.024,0.594s-1.231,0.888-1.672,1.475
		s-0.66,1.174-0.66,1.76C314.951,207.481,315.127,207.627,315.479,207.627z"/>
</g>
</svg>
