<?xml version="1.0" encoding="utf-8"?>
<!-- Generator: Adobe Illustrator 14.0.0, SVG Export Plug-In . SVG Version: 6.00 Build 43363)  -->
<!DOCTYPE svg PUBLIC "-//W3C//DTD SVG 1.1//EN" "http://www.w3.org/Graphics/SVG/1.1/DTD/svg11.dtd">
<svg version="1.1" id="レイヤー_2" xmlns="http://www.w3.org/2000/svg" xmlns:xlink="http://www.w3.org/1999/xlink" x="0px"
	 y="0px" width="303.403px" height="335.76px" viewBox="26.484 5.76 303.403 335.76"
	 enable-background="new 26.484 5.76 303.403 335.76" xml:space="preserve">
<g>
	<path fill="#083E00" d="M114.275,39.84c-0.416,0-0.752-0.057-1.008-0.168c-0.256-0.111-0.384-0.264-0.384-0.456
		c0-0.224,0.136-0.424,0.408-0.6c0.271-0.176,0.664-0.344,1.176-0.504c0.832-0.256,1.6-0.64,2.304-1.152
		c0.704-0.511,1.312-1.359,1.824-2.544c0.896-2.047,1.72-3.967,2.472-5.76c0.751-1.792,1.464-3.552,2.136-5.28
		c0.672-1.728,1.368-3.528,2.088-5.4s1.48-3.912,2.28-6.12c0.16-0.448,0.304-0.896,0.432-1.344c0.127-0.448,0.208-0.928,0.24-1.44
		c0.288-0.096,0.576-0.192,0.864-0.288c0.288-0.096,0.576-0.24,0.864-0.432c0.288-0.192,0.487-0.48,0.6-0.864
		c0.112-0.384,0.216-0.64,0.312-0.768c0.032-0.032,0.072-0.048,0.12-0.048s0.088,0.033,0.12,0.096
		c0.063,0.128,0.12,0.288,0.168,0.48s0.104,0.384,0.168,0.576c0.768,2.432,1.567,4.913,2.4,7.44c0.832,2.528,1.64,4.968,2.424,7.32
		c0.784,2.352,1.503,4.464,2.16,6.336c0.656,1.872,1.176,3.384,1.56,4.536c0.448,1.28,0.928,2.24,1.44,2.88
		c0.512,0.641,1.048,1.088,1.608,1.344c0.56,0.256,1.16,0.448,1.8,0.576c0.543,0.096,0.943,0.249,1.2,0.456
		c0.256,0.208,0.384,0.425,0.384,0.648c0,0.192-0.128,0.32-0.384,0.384c-0.257,0.063-0.593,0.096-1.008,0.096
		c-0.448,0-1.056-0.024-1.824-0.072c-0.768-0.048-1.584-0.096-2.448-0.144s-1.664-0.072-2.4-0.072c-0.608,0-1.232,0-1.872,0
		c-0.641,0-1.232,0.008-1.776,0.024c-0.544,0.017-1.008,0.024-1.392,0.024c-0.417,0-0.752-0.048-1.008-0.144
		c-0.257-0.096-0.384-0.24-0.384-0.432c0-0.223,0.16-0.416,0.48-0.576c0.319-0.16,0.688-0.271,1.104-0.336
		c1.056-0.16,1.808-0.432,2.256-0.816c0.448-0.384,0.672-0.832,0.672-1.344c0-0.48-0.104-1.176-0.312-2.088
		c-0.208-0.912-0.456-1.888-0.744-2.928c-0.288-1.04-0.56-1.959-0.816-2.76c-0.064-0.256-0.185-0.408-0.36-0.456
		c-0.176-0.048-0.488-0.072-0.936-0.072h-9.072c-0.128,0-0.264,0.057-0.408,0.168c-0.144,0.113-0.281,0.344-0.408,0.696
		c-0.096,0.32-0.256,0.824-0.48,1.512c-0.224,0.688-0.449,1.416-0.672,2.184c-0.225,0.768-0.417,1.457-0.576,2.064
		c-0.161,0.608-0.24,0.992-0.24,1.152c0,0.704,0.271,1.288,0.816,1.752c0.543,0.464,1.2,0.792,1.968,0.984
		c1.056,0.288,1.584,0.608,1.584,0.96c0,0.192-0.128,0.329-0.384,0.408c-0.257,0.079-0.593,0.12-1.008,0.12
		c-0.416,0-1.024-0.016-1.824-0.048c-0.8-0.032-1.648-0.048-2.544-0.048c-1.056,0-2.081,0.048-3.072,0.144
		C115.971,39.791,115.075,39.84,114.275,39.84z M125.507,26.063h7.44c0.448,0,0.672-0.08,0.672-0.24
		c0-0.064-0.008-0.136-0.024-0.216c-0.017-0.079-0.041-0.168-0.072-0.264l-3.744-11.712c-0.192-0.576-0.336-0.864-0.432-0.864
		c-0.064,0-0.192,0.272-0.384,0.816l-4.368,11.76c-0.065,0.192-0.096,0.32-0.096,0.384c0,0.161,0.088,0.256,0.264,0.288
		C124.939,26.048,125.187,26.063,125.507,26.063z"/>
	<path fill="#083E00" d="M148.115,53.28c-0.16,0-0.368-0.024-0.624-0.072c-0.257-0.048-0.384-0.168-0.384-0.36
		c0-0.256,0.12-0.44,0.36-0.552c0.239-0.112,0.487-0.216,0.743-0.312c0.48-0.16,0.944-0.344,1.393-0.552
		c0.447-0.208,0.672-0.632,0.672-1.272V25.823c0-0.256-0.072-0.64-0.216-1.152c-0.145-0.511-0.377-1.008-0.696-1.488
		c-0.32-0.48-0.752-0.768-1.296-0.864c-0.128-0.032-0.225-0.112-0.288-0.24c-0.064-0.127-0.096-0.256-0.096-0.384
		c0-0.16,0.031-0.288,0.096-0.384c0.063-0.096,0.144-0.16,0.24-0.192c1.216-0.288,2.256-0.6,3.12-0.936
		c0.863-0.336,1.68-0.664,2.447-0.984c0.032,0,0.049-0.008,0.049-0.024s0.016-0.024,0.048-0.024c0.063,0,0.127,0.048,0.191,0.144
		c0.064,0.096,0.097,0.192,0.097,0.288c0,0.288-0.041,0.744-0.12,1.368c-0.08,0.624-0.12,1.128-0.12,1.512
		c0,0.257,0.016,0.401,0.048,0.432c0.319-0.319,0.903-0.728,1.752-1.224c0.848-0.496,1.815-0.943,2.904-1.344
		c1.087-0.4,2.128-0.6,3.12-0.6c1.663,0,3.079,0.44,4.248,1.32c1.167,0.88,2.063,2.016,2.688,3.408s0.937,2.84,0.937,4.344
		c0,1.44-0.272,2.84-0.816,4.2c-0.545,1.361-1.313,2.584-2.304,3.672c-0.992,1.088-2.145,1.961-3.456,2.616
		c-1.313,0.655-2.721,0.984-4.225,0.984c-0.448,0-0.983-0.072-1.607-0.216s-1.232-0.329-1.824-0.552
		c-0.593-0.223-1.049-0.48-1.368-0.768c-0.032,0-0.064,0.184-0.096,0.552c-0.032,0.368-0.057,0.751-0.072,1.152
		c-0.017,0.4-0.023,0.648-0.023,0.744v8.976c0,0.416,0.168,0.744,0.504,0.984c0.336,0.24,0.72,0.416,1.151,0.528
		c0.433,0.112,0.808,0.216,1.128,0.312c0.256,0.096,0.504,0.2,0.744,0.312c0.24,0.112,0.36,0.296,0.36,0.552
		c0,0.192-0.128,0.312-0.384,0.36c-0.257,0.048-0.48,0.072-0.672,0.072c-0.929,0-1.704-0.041-2.328-0.12
		c-0.624-0.08-1.353-0.12-2.185-0.12c-0.544,0-0.983,0.016-1.319,0.048c-0.337,0.032-0.681,0.072-1.032,0.12
		C149.251,53.255,148.755,53.28,148.115,53.28z M159.348,38.783c0.479,0,1.063-0.144,1.752-0.432
		c0.688-0.288,1.375-0.751,2.063-1.392c0.688-0.64,1.264-1.503,1.729-2.592c0.463-1.087,0.695-2.432,0.695-4.032
		c0-1.855-0.239-3.343-0.72-4.464c-0.479-1.12-1.072-1.968-1.775-2.544c-0.705-0.576-1.425-0.96-2.16-1.152
		c-0.737-0.192-1.36-0.288-1.872-0.288c-0.769,0-1.561,0.161-2.376,0.48c-0.816,0.32-1.505,0.68-2.064,1.08
		c-0.561,0.4-0.84,0.712-0.84,0.936c0,0.704-0.008,1.416-0.024,2.136c-0.016,0.72-0.032,1.416-0.048,2.088
		c-0.017,0.672-0.032,1.272-0.048,1.8c-0.017,0.528-0.023,0.936-0.023,1.224c0,1.28,0.295,2.464,0.888,3.552
		c0.592,1.088,1.327,1.96,2.208,2.616C157.611,38.456,158.483,38.783,159.348,38.783z"/>
	<path fill="#083E00" d="M173.027,53.28c-0.16,0-0.368-0.024-0.624-0.072c-0.257-0.048-0.384-0.168-0.384-0.36
		c0-0.256,0.12-0.44,0.36-0.552c0.239-0.112,0.487-0.216,0.743-0.312c0.48-0.16,0.944-0.344,1.393-0.552
		c0.447-0.208,0.672-0.632,0.672-1.272V25.823c0-0.256-0.072-0.64-0.216-1.152c-0.145-0.511-0.377-1.008-0.696-1.488
		c-0.32-0.48-0.752-0.768-1.296-0.864c-0.128-0.032-0.225-0.112-0.288-0.24c-0.064-0.127-0.096-0.256-0.096-0.384
		c0-0.16,0.031-0.288,0.096-0.384c0.063-0.096,0.144-0.16,0.24-0.192c1.216-0.288,2.256-0.6,3.12-0.936
		c0.863-0.336,1.68-0.664,2.447-0.984c0.032,0,0.049-0.008,0.049-0.024s0.016-0.024,0.048-0.024c0.063,0,0.127,0.048,0.191,0.144
		c0.064,0.096,0.097,0.192,0.097,0.288c0,0.288-0.041,0.744-0.12,1.368c-0.08,0.624-0.12,1.128-0.12,1.512
		c0,0.257,0.016,0.401,0.048,0.432c0.319-0.319,0.903-0.728,1.752-1.224c0.848-0.496,1.815-0.943,2.904-1.344
		c1.087-0.4,2.128-0.6,3.12-0.6c1.663,0,3.079,0.44,4.248,1.32c1.167,0.88,2.063,2.016,2.688,3.408s0.937,2.84,0.937,4.344
		c0,1.44-0.272,2.84-0.816,4.2c-0.545,1.361-1.313,2.584-2.304,3.672c-0.992,1.088-2.145,1.961-3.456,2.616
		c-1.313,0.655-2.721,0.984-4.225,0.984c-0.448,0-0.983-0.072-1.607-0.216s-1.232-0.329-1.824-0.552
		c-0.593-0.223-1.049-0.48-1.368-0.768c-0.032,0-0.064,0.184-0.096,0.552c-0.032,0.368-0.057,0.751-0.072,1.152
		c-0.017,0.4-0.023,0.648-0.023,0.744v8.976c0,0.416,0.168,0.744,0.504,0.984c0.336,0.24,0.72,0.416,1.151,0.528
		c0.433,0.112,0.808,0.216,1.128,0.312c0.256,0.096,0.504,0.2,0.744,0.312c0.24,0.112,0.36,0.296,0.36,0.552
		c0,0.192-0.128,0.312-0.384,0.36c-0.257,0.048-0.48,0.072-0.672,0.072c-0.929,0-1.704-0.041-2.328-0.12
		c-0.624-0.08-1.353-0.12-2.185-0.12c-0.544,0-0.983,0.016-1.319,0.048c-0.337,0.032-0.681,0.072-1.032,0.12
		C174.163,53.255,173.667,53.28,173.027,53.28z M184.26,38.783c0.479,0,1.063-0.144,1.752-0.432
		c0.688-0.288,1.375-0.751,2.063-1.392c0.688-0.64,1.264-1.503,1.729-2.592c0.463-1.087,0.695-2.432,0.695-4.032
		c0-1.855-0.239-3.343-0.72-4.464c-0.479-1.12-1.072-1.968-1.775-2.544c-0.705-0.576-1.425-0.96-2.16-1.152
		c-0.737-0.192-1.36-0.288-1.872-0.288c-0.769,0-1.561,0.161-2.376,0.48c-0.816,0.32-1.505,0.68-2.064,1.08
		c-0.561,0.4-0.84,0.712-0.84,0.936c0,0.704-0.008,1.416-0.024,2.136c-0.016,0.72-0.032,1.416-0.048,2.088
		c-0.017,0.672-0.032,1.272-0.048,1.8c-0.017,0.528-0.023,0.936-0.023,1.224c0,1.28,0.295,2.464,0.888,3.552
		c0.592,1.088,1.327,1.96,2.208,2.616C182.523,38.456,183.396,38.783,184.26,38.783z"/>
	<path fill="#083E00" d="M200.677,40.271c-0.576,0-1.16-0.224-1.752-0.672c-0.593-0.448-1.089-0.992-1.488-1.632
		c-0.4-0.64-0.6-1.248-0.6-1.824c0-1.024,0.271-1.824,0.815-2.4s1.408-1.104,2.592-1.584l4.896-2.016
		c0.64-0.256,1.016-0.48,1.128-0.672c0.111-0.192,0.184-0.607,0.216-1.248l0.096-3.072c0.032-0.832-0.2-1.551-0.695-2.16
		c-0.497-0.607-1.208-0.912-2.136-0.912c-0.48,0-0.961,0.08-1.44,0.24c-0.48,0.16-0.881,0.368-1.2,0.624
		c-0.191,0.128-0.32,0.32-0.384,0.576c-0.064,0.256-0.096,0.528-0.096,0.816c0,0.128,0.007,0.272,0.023,0.432
		c0.016,0.161,0.024,0.305,0.024,0.432c0,0.161-0.2,0.376-0.601,0.648c-0.4,0.272-0.848,0.512-1.344,0.72
		c-0.496,0.208-0.904,0.312-1.224,0.312c-0.161,0-0.288-0.04-0.384-0.12c-0.097-0.08-0.145-0.184-0.145-0.312
		c0-0.512,0.168-1.063,0.504-1.656c0.336-0.592,0.808-1.144,1.416-1.656c0.736-0.672,1.536-1.264,2.4-1.776
		c0.863-0.511,1.711-0.912,2.544-1.2c0.832-0.288,1.567-0.432,2.208-0.432c1.151,0,2.104,0.408,2.855,1.224s1.112,1.832,1.08,3.048
		l-0.239,11.52c-0.033,0.672,0.119,1.217,0.455,1.632c0.337,0.417,0.76,0.624,1.272,0.624c0.8,0,1.392-0.175,1.776-0.528
		c0.159-0.16,0.288-0.24,0.384-0.24c0.159,0,0.288,0.048,0.384,0.144c0.096,0.096,0.144,0.225,0.144,0.384
		c0,0.353-0.176,0.704-0.527,1.056c-0.513,0.512-1.064,0.92-1.656,1.224c-0.593,0.304-1.145,0.456-1.656,0.456
		c-1.472,0-2.64-0.832-3.504-2.496h-0.144c-1.057,0.864-2.064,1.497-3.024,1.896C202.692,40.071,201.7,40.271,200.677,40.271z
		 M202.933,37.968c0.64,0,1.184-0.104,1.632-0.312c0.448-0.208,0.848-0.488,1.2-0.84c0.159-0.16,0.295-0.375,0.408-0.648
		c0.111-0.271,0.184-0.711,0.216-1.32l0.096-2.352c0.031-0.352,0.016-0.607-0.048-0.768c-0.064-0.16-0.192-0.24-0.384-0.24
		c-0.064,0-0.177,0.016-0.336,0.048c-0.161,0.032-0.368,0.096-0.624,0.192c-1.696,0.608-2.873,1.241-3.528,1.896
		c-0.656,0.656-0.984,1.256-0.984,1.8c0,0.833,0.248,1.464,0.744,1.896C201.82,37.751,202.356,37.968,202.933,37.968z"/>
	<path fill="#083E00" d="M216.563,39.743c-0.319,0-0.56-0.041-0.72-0.12s-0.24-0.216-0.24-0.408c0-0.256,0.097-0.424,0.288-0.504
		c0.192-0.079,0.464-0.168,0.816-0.264c0.607-0.16,1.063-0.392,1.368-0.696c0.304-0.304,0.456-0.679,0.456-1.128v-10.32
		c0-0.864-0.129-1.616-0.385-2.256s-0.784-1.04-1.584-1.2c-0.128-0.032-0.239-0.112-0.336-0.24
		c-0.096-0.127-0.144-0.255-0.144-0.384c0-0.319,0.144-0.512,0.432-0.576c0.832-0.255,1.704-0.631,2.616-1.128
		c0.912-0.496,1.624-0.904,2.136-1.224c0.192-0.127,0.344-0.216,0.456-0.264c0.112-0.048,0.2-0.072,0.265-0.072
		c0.159,0,0.239,0.113,0.239,0.336c0,0.096-0.008,0.336-0.023,0.72c-0.017,0.384-0.032,0.833-0.048,1.344
		c-0.017,0.513-0.041,1.025-0.072,1.536c0,0.064,0.031,0.096,0.096,0.096c0.512-0.64,1.08-1.2,1.704-1.68s1.264-0.864,1.92-1.152
		c0.655-0.288,1.288-0.432,1.896-0.432c0.672,0,1.224,0.144,1.655,0.432c0.433,0.288,0.648,0.656,0.648,1.104
		c0,0.32-0.089,0.672-0.264,1.056c-0.177,0.384-0.408,0.72-0.696,1.008s-0.593,0.432-0.912,0.432c-0.192,0-0.4-0.04-0.624-0.12
		c-0.225-0.08-0.464-0.184-0.72-0.312c-0.257-0.096-0.513-0.192-0.769-0.288c-0.256-0.096-0.512-0.144-0.768-0.144
		c-0.768,0-1.512,0.272-2.232,0.816c-0.72,0.545-1.08,1.616-1.08,3.216v9.696c0,0.417,0.224,0.761,0.673,1.032
		c0.447,0.272,1.071,0.536,1.872,0.792c0.352,0.096,0.624,0.192,0.815,0.288c0.192,0.096,0.288,0.256,0.288,0.48
		c0,0.352-0.32,0.528-0.96,0.528c-0.96,0-1.688-0.041-2.184-0.12c-0.497-0.08-1.161-0.12-1.992-0.12
		c-0.545,0-0.984,0.017-1.32,0.048c-0.336,0.032-0.688,0.072-1.056,0.12C217.707,39.719,217.203,39.743,216.563,39.743z"/>
	<path fill="#083E00" d="M240.468,40.32c-1.76,0-3.296-0.432-4.607-1.296c-1.313-0.864-2.337-2.088-3.072-3.672
		c-0.736-1.584-1.104-3.416-1.104-5.496c0-1.855,0.423-3.543,1.271-5.064c0.848-1.52,1.976-2.743,3.384-3.672
		c1.408-0.928,2.944-1.392,4.608-1.392c1.279,0,2.416,0.256,3.408,0.768c0.991,0.512,1.768,1.224,2.328,2.136
		c0.559,0.912,0.84,1.96,0.84,3.144c0,0.993-0.48,1.488-1.44,1.488h-10.128c-0.448,0-0.761,0.12-0.936,0.36
		c-0.177,0.24-0.265,0.712-0.265,1.416c0,1.536,0.336,2.937,1.008,4.2c0.673,1.264,1.568,2.272,2.688,3.024
		c1.12,0.752,2.352,1.128,3.696,1.128c0.96,0,1.831-0.184,2.615-0.552c0.784-0.368,1.48-0.904,2.089-1.608
		c0.127-0.16,0.223-0.264,0.288-0.312c0.063-0.048,0.144-0.072,0.239-0.072c0.256,0,0.384,0.161,0.384,0.48
		c0,0.608-0.287,1.28-0.863,2.016c-0.48,0.608-1.057,1.136-1.729,1.584c-0.672,0.448-1.408,0.792-2.208,1.032
		C242.164,40.199,241.332,40.32,240.468,40.32z M236.052,25.775h4.368c0.769,0,1.424-0.016,1.968-0.048
		c0.544-0.031,1.072-0.096,1.584-0.192c0.16-0.032,0.265-0.136,0.313-0.312c0.048-0.175,0.072-0.424,0.072-0.744
		c0-0.928-0.408-1.72-1.225-2.376c-0.815-0.655-1.784-0.984-2.903-0.984c-0.737,0-1.473,0.216-2.208,0.648
		c-0.737,0.432-1.345,0.968-1.824,1.608c-0.48,0.641-0.72,1.28-0.72,1.92C235.477,25.615,235.668,25.775,236.052,25.775z"/>
	<path fill="#083E00" d="M251.075,39.743c-0.288,0-0.521-0.041-0.696-0.12s-0.264-0.216-0.264-0.408
		c0-0.256,0.096-0.424,0.288-0.504c0.191-0.079,0.463-0.168,0.815-0.264c0.48-0.127,0.943-0.304,1.393-0.528
		c0.447-0.223,0.672-0.655,0.672-1.296v-10.32c0-0.864-0.089-1.6-0.265-2.208c-0.176-0.607-0.68-1.024-1.512-1.248
		c-0.128-0.064-0.24-0.136-0.336-0.216c-0.096-0.08-0.144-0.216-0.144-0.408c0-0.352,0.144-0.544,0.432-0.576
		c1.12-0.288,2.031-0.64,2.736-1.056c0.703-0.416,1.392-0.88,2.063-1.392c0.096-0.064,0.184-0.12,0.264-0.168
		c0.08-0.048,0.168-0.072,0.265-0.072c0.063,0,0.12,0.032,0.168,0.096c0.048,0.064,0.072,0.144,0.072,0.24
		c0,0.225-0.041,0.681-0.12,1.368c-0.081,0.688-0.12,1.256-0.12,1.704c0,0.128,0.007,0.248,0.023,0.36
		c0.016,0.113,0.04,0.185,0.072,0.216c1.12-1.056,2.312-1.856,3.576-2.4c1.264-0.543,2.647-0.816,4.152-0.816
		c1.567,0,2.863,0.641,3.888,1.92c1.023,1.28,1.536,2.864,1.536,4.752v10.224c0,0.641,0.224,1.064,0.672,1.272
		c0.447,0.208,0.912,0.393,1.392,0.552c0.256,0.096,0.504,0.2,0.744,0.312c0.24,0.112,0.36,0.296,0.36,0.552
		c0,0.192-0.112,0.312-0.336,0.36c-0.225,0.048-0.433,0.072-0.624,0.072c-0.641,0-1.137-0.024-1.488-0.072
		c-0.353-0.048-0.688-0.087-1.008-0.12c-0.32-0.032-0.769-0.048-1.344-0.048c-0.545,0-0.993,0.017-1.345,0.048
		c-0.353,0.032-0.712,0.072-1.08,0.12c-0.368,0.048-0.872,0.072-1.512,0.072c-0.16,0-0.36-0.024-0.6-0.072
		c-0.24-0.048-0.36-0.168-0.36-0.36c0-0.256,0.12-0.439,0.36-0.552c0.239-0.112,0.487-0.216,0.744-0.312
		c0.479-0.16,0.943-0.344,1.392-0.552c0.447-0.208,0.672-0.631,0.672-1.272v-10.08c0-1.408-0.393-2.503-1.176-3.288
		c-0.784-0.784-1.832-1.191-3.145-1.224c-1.151,0-2.159,0.185-3.023,0.552c-0.864,0.368-1.632,0.824-2.304,1.368
		c-0.129,0.128-0.225,0.296-0.288,0.504c-0.064,0.208-0.097,0.408-0.097,0.6v11.568c0,0.641,0.224,1.073,0.672,1.296
		c0.448,0.225,0.912,0.401,1.393,0.528c0.735,0.192,1.104,0.448,1.104,0.768c0,0.192-0.08,0.328-0.239,0.408
		c-0.161,0.08-0.401,0.12-0.721,0.12c-0.641,0-1.145-0.024-1.512-0.072c-0.368-0.048-0.713-0.087-1.032-0.12
		c-0.32-0.032-0.768-0.048-1.344-0.048c-0.545,0-0.984,0.017-1.32,0.048c-0.336,0.032-0.688,0.072-1.056,0.12
		C252.219,39.719,251.715,39.743,251.075,39.743z"/>
	<path fill="#083E00" d="M283.379,40.271c-1.568,0-2.793-0.48-3.672-1.44c-0.881-0.96-1.32-2.383-1.32-4.272V23.424
		c0-0.256-0.096-0.44-0.288-0.552c-0.192-0.112-0.608-0.168-1.248-0.168h-0.288c-0.16,0-0.296-0.104-0.408-0.312
		c-0.112-0.208-0.168-0.424-0.168-0.648c0-0.064,0.048-0.16,0.145-0.288c0.096-0.127,0.159-0.208,0.191-0.24
		c0.64-0.448,1.225-0.896,1.752-1.344c0.528-0.448,1.009-0.888,1.44-1.32c0.432-0.432,0.792-0.824,1.08-1.176
		c0.159-0.16,0.296-0.295,0.408-0.408c0.111-0.112,0.247-0.168,0.407-0.168s0.313,0.032,0.456,0.096
		c0.145,0.064,0.2,0.208,0.168,0.432l-0.239,2.16c-0.032,0.353,0.048,0.592,0.239,0.72c0.192,0.128,0.496,0.192,0.912,0.192h5.473
		c0.127,0,0.239,0.104,0.336,0.312c0.096,0.208,0.144,0.456,0.144,0.744s-0.048,0.568-0.144,0.84
		c-0.097,0.272-0.209,0.408-0.336,0.408h-4.752c-0.801,0-1.32,0.064-1.561,0.192c-0.24,0.128-0.359,0.512-0.359,1.152v9.456
		c0,1.28,0.271,2.289,0.815,3.024c0.544,0.736,1.328,1.104,2.353,1.104c0.928,0,1.647-0.072,2.159-0.216s0.977-0.36,1.393-0.648
		c0.063-0.063,0.127-0.096,0.191-0.096c0.128,0,0.217,0.072,0.265,0.216s0.072,0.296,0.072,0.456c0,0.16-0.265,0.48-0.792,0.96
		c-0.528,0.48-1.217,0.928-2.064,1.344C285.29,40.063,284.37,40.271,283.379,40.271z"/>
	<path fill="#083E00" d="M291.251,39.743c-0.16,0-0.36-0.024-0.6-0.072c-0.24-0.048-0.36-0.168-0.36-0.36
		c0-0.256,0.12-0.439,0.36-0.552c0.239-0.112,0.487-0.216,0.743-0.312c0.48-0.16,0.944-0.344,1.393-0.552
		c0.447-0.208,0.672-0.631,0.672-1.272V12.431c0-0.928-0.168-1.704-0.504-2.328s-0.904-1.016-1.704-1.176
		c-0.257-0.064-0.384-0.271-0.384-0.624c0-0.32,0.111-0.512,0.336-0.576c0.831-0.192,1.552-0.392,2.16-0.6
		c0.607-0.208,1.176-0.423,1.704-0.648c0.527-0.223,1.047-0.432,1.56-0.624c0.128-0.063,0.224-0.096,0.288-0.096
		c0.063,0,0.12,0.041,0.168,0.12c0.048,0.081,0.072,0.152,0.072,0.216c0,0.288-0.057,0.904-0.168,1.848
		c-0.113,0.944-0.168,2.504-0.168,4.68v24c0,0.641,0.223,1.064,0.672,1.272c0.447,0.208,0.912,0.393,1.392,0.552
		c0.256,0.096,0.504,0.2,0.744,0.312c0.24,0.112,0.36,0.296,0.36,0.552c0,0.192-0.12,0.312-0.36,0.36
		c-0.24,0.048-0.44,0.072-0.6,0.072c-0.608,0-1.097-0.024-1.465-0.072c-0.368-0.048-0.72-0.087-1.056-0.12
		c-0.336-0.032-0.792-0.048-1.368-0.048c-0.544,0-0.992,0.017-1.344,0.048c-0.353,0.032-0.704,0.072-1.056,0.12
		C292.387,39.719,291.891,39.743,291.251,39.743z"/>
	<path fill="#083E00" d="M303.971,53.28c-0.608,0-1.169-0.152-1.681-0.456c-0.512-0.305-0.768-0.809-0.768-1.512
		c0-0.576,0.136-1.08,0.408-1.512c0.271-0.432,0.663-0.648,1.176-0.648c0.352,0,0.696,0.048,1.032,0.144
		c0.336,0.096,0.631,0.144,0.888,0.144c0.192,0,0.36-0.041,0.504-0.12c0.145-0.081,0.28-0.216,0.408-0.408
		c0.352-0.576,0.76-1.296,1.224-2.16c0.464-0.864,0.943-1.84,1.44-2.928c0.496-1.088,0.968-2.24,1.416-3.456
		c0.096-0.288,0.144-0.656,0.144-1.104c0-0.256-0.017-0.504-0.048-0.744c-0.032-0.24-0.08-0.456-0.144-0.648l-5.568-14.064
		c-0.225-0.576-0.521-1.08-0.888-1.512c-0.368-0.432-0.792-0.711-1.272-0.84c-0.256-0.096-0.504-0.208-0.744-0.336
		c-0.239-0.127-0.359-0.304-0.359-0.528c0-0.192,0.12-0.312,0.359-0.36c0.24-0.048,0.439-0.072,0.601-0.072
		c0.64,0,1.111,0.017,1.416,0.048c0.304,0.032,0.592,0.072,0.864,0.12c0.271,0.048,0.679,0.072,1.224,0.072
		c0.576,0,1.008-0.024,1.296-0.072s0.592-0.088,0.912-0.12c0.319-0.031,0.8-0.048,1.439-0.048c0.192,0,0.4,0.041,0.624,0.12
		c0.224,0.08,0.336,0.216,0.336,0.408c0,0.224-0.168,0.44-0.504,0.648c-0.336,0.208-0.632,0.344-0.888,0.408
		c-0.32,0.096-0.561,0.264-0.72,0.504c-0.161,0.24-0.24,0.584-0.24,1.032c0,0.192,0.048,0.424,0.144,0.696
		c0.097,0.272,0.176,0.488,0.24,0.648l3.889,9.6c0.063,0.192,0.159,0.288,0.287,0.288c0.097,0,0.176-0.096,0.24-0.288l3.313-8.784
		c0.096-0.223,0.184-0.52,0.264-0.888c0.079-0.368,0.12-0.664,0.12-0.888c0-0.607-0.089-1.032-0.264-1.272
		c-0.177-0.24-0.408-0.424-0.696-0.552c-0.257-0.128-0.552-0.296-0.888-0.504c-0.336-0.208-0.505-0.424-0.505-0.648
		c0-0.192,0.12-0.328,0.36-0.408c0.24-0.08,0.439-0.12,0.601-0.12c0.447,0,0.903,0.041,1.367,0.12c0.464,0.08,1.145,0.12,2.04,0.12
		c0.607,0,1.048-0.024,1.32-0.072c0.271-0.048,0.504-0.088,0.696-0.12c0.191-0.031,0.463-0.048,0.815-0.048
		c0.16,0,0.36,0.024,0.601,0.072c0.239,0.048,0.359,0.168,0.359,0.36c0,0.224-0.12,0.4-0.359,0.528
		c-0.24,0.128-0.488,0.24-0.744,0.336c-0.48,0.128-0.992,0.504-1.536,1.128c-0.545,0.624-0.977,1.32-1.296,2.088l-6.528,15.552
		c-0.032,0.096-0.2,0.512-0.504,1.248c-0.305,0.736-0.68,1.647-1.128,2.736c-0.448,1.087-0.936,2.256-1.464,3.504
		s-1.032,2.448-1.512,3.6c-0.288,0.64-0.705,1.128-1.248,1.464C305.298,53.112,304.674,53.28,303.971,53.28z"/>
	<path fill="#083E00" d="M320.386,46.656c-0.576,0-0.864-0.176-0.864-0.528c0-0.128,0.056-0.248,0.168-0.36
		c0.112-0.112,0.28-0.185,0.504-0.216c0.704-0.161,1.408-0.432,2.112-0.816c0.703-0.384,1.296-0.936,1.775-1.656
		c0.48-0.72,0.721-1.64,0.721-2.76c0-0.384-0.177-0.824-0.528-1.32c-0.353-0.496-0.8-0.76-1.344-0.792
		c-0.704-0.063-1.257-0.288-1.656-0.672c-0.4-0.384-0.6-0.832-0.6-1.344c0-0.64,0.264-1.167,0.792-1.584
		c0.527-0.416,1.144-0.624,1.848-0.624c1.152,0,2.104,0.44,2.856,1.32c0.751,0.88,1.128,1.992,1.128,3.336
		c0,1.216-0.24,2.312-0.721,3.288c-0.479,0.976-1.088,1.815-1.823,2.52c-0.737,0.703-1.497,1.248-2.28,1.632
		C321.689,46.463,320.993,46.656,320.386,46.656z"/>
	<path fill="#083E00" d="M93.972,111.743c-0.256,0-0.48-0.032-0.672-0.096c-0.192-0.063-0.288-0.208-0.288-0.432
		c0-0.224,0.104-0.384,0.312-0.48c0.208-0.096,0.472-0.192,0.792-0.288c0.448-0.16,0.904-0.344,1.368-0.552
		c0.463-0.208,0.696-0.631,0.696-1.272v-10.32c0-0.864-0.096-1.624-0.288-2.28c-0.192-0.655-0.705-1.047-1.536-1.176
		c-0.128-0.032-0.232-0.096-0.312-0.192c-0.081-0.096-0.12-0.24-0.12-0.432c0-0.319,0.127-0.512,0.384-0.576
		c0.864-0.223,1.551-0.456,2.064-0.696c0.511-0.24,0.967-0.512,1.368-0.816c0.4-0.304,0.888-0.632,1.464-0.984
		c0.063-0.031,0.127-0.072,0.192-0.12c0.063-0.048,0.144-0.072,0.24-0.072c0.192,0,0.288,0.113,0.288,0.336
		c0,0.225-0.041,0.681-0.12,1.368c-0.08,0.688-0.12,1.256-0.12,1.704c0,0.32,0.031,0.512,0.096,0.576h0.096
		c0.736-0.704,1.704-1.416,2.904-2.136c1.2-0.72,2.728-1.08,4.584-1.08c1.152,0,2.112,0.249,2.88,0.744
		c0.768,0.497,1.408,1.352,1.92,2.568h0.144c1.023-0.928,2.191-1.711,3.504-2.352c1.312-0.64,2.751-0.96,4.32-0.96
		c1.056,0,1.936,0.32,2.64,0.96c0.704,0.641,1.24,1.472,1.608,2.496c0.368,1.024,0.552,2.096,0.552,3.216v10.224
		c0,0.641,0.224,1.064,0.672,1.272c0.448,0.208,0.912,0.393,1.392,0.552c0.319,0.096,0.583,0.192,0.792,0.288
		c0.208,0.096,0.312,0.256,0.312,0.48c0,0.192-0.072,0.328-0.216,0.408s-0.392,0.12-0.744,0.12c-0.64,0-1.136-0.024-1.488-0.072
		c-0.353-0.048-0.68-0.087-0.984-0.12c-0.305-0.032-0.744-0.048-1.32-0.048c-0.544,0-0.992,0.017-1.344,0.048
		c-0.353,0.032-0.72,0.072-1.104,0.12c-0.384,0.048-0.896,0.072-1.536,0.072c-0.288,0-0.521-0.041-0.696-0.12
		c-0.176-0.08-0.264-0.216-0.264-0.408c0-0.256,0.104-0.432,0.312-0.528c0.208-0.096,0.472-0.175,0.792-0.24
		c0.512-0.127,0.984-0.304,1.416-0.528c0.432-0.223,0.648-0.655,0.648-1.296v-10.08c0-0.768-0.176-1.495-0.528-2.184
		c-0.353-0.688-0.816-1.255-1.392-1.704c-0.576-0.448-1.216-0.672-1.92-0.672c-0.8,0-1.544,0.096-2.232,0.288
		c-0.688,0.192-1.336,0.528-1.944,1.008c-0.896,0.704-1.344,1.856-1.344,3.456v9.888c0,0.641,0.24,1.073,0.72,1.296
		c0.48,0.225,0.96,0.401,1.44,0.528c0.319,0.064,0.583,0.152,0.792,0.264c0.208,0.113,0.312,0.281,0.312,0.504
		c0,0.192-0.081,0.328-0.24,0.408c-0.161,0.08-0.4,0.12-0.72,0.12c-0.64,0-1.144-0.024-1.512-0.072
		c-0.368-0.048-0.72-0.087-1.056-0.12c-0.336-0.032-0.792-0.048-1.368-0.048c-0.545,0-0.993,0.017-1.344,0.048
		c-0.353,0.032-0.72,0.072-1.104,0.12c-0.384,0.048-0.896,0.072-1.536,0.072c-0.256,0-0.48-0.041-0.672-0.12
		s-0.288-0.216-0.288-0.408c0-0.256,0.12-0.424,0.36-0.504c0.24-0.079,0.487-0.168,0.744-0.264c0.48-0.16,0.952-0.344,1.416-0.552
		c0.463-0.208,0.696-0.631,0.696-1.272v-10.08c0-0.768-0.176-1.495-0.528-2.184c-0.353-0.688-0.816-1.255-1.392-1.704
		c-0.576-0.448-1.216-0.672-1.92-0.672c-0.8,0-1.544,0.096-2.232,0.288c-0.688,0.192-1.336,0.528-1.944,1.008
		c-0.864,0.64-1.296,1.792-1.296,3.456v9.888c0,0.641,0.223,1.064,0.672,1.272c0.448,0.208,0.912,0.393,1.392,0.552
		c0.255,0.096,0.504,0.185,0.744,0.264c0.24,0.081,0.36,0.249,0.36,0.504c0,0.192-0.089,0.328-0.264,0.408
		c-0.176,0.08-0.408,0.12-0.696,0.12c-0.641,0-1.145-0.024-1.512-0.072c-0.368-0.048-0.712-0.087-1.032-0.12
		c-0.32-0.032-0.768-0.048-1.344-0.048c-0.544,0-0.984,0.017-1.32,0.048c-0.336,0.032-0.688,0.072-1.056,0.12
		C95.116,111.719,94.612,111.743,93.972,111.743z"/>
	<path fill="#083E00" d="M130.356,125.28c-0.608,0-1.168-0.152-1.68-0.456c-0.512-0.305-0.768-0.809-0.768-1.512
		c0-0.576,0.136-1.08,0.408-1.512c0.271-0.432,0.664-0.648,1.176-0.648c0.352,0,0.696,0.048,1.032,0.144
		c0.336,0.096,0.631,0.144,0.888,0.144c0.192,0,0.36-0.041,0.504-0.12c0.144-0.081,0.28-0.216,0.408-0.408
		c0.352-0.576,0.76-1.296,1.224-2.16c0.463-0.864,0.943-1.84,1.44-2.928c0.496-1.088,0.967-2.24,1.416-3.456
		c0.096-0.288,0.144-0.656,0.144-1.104c0-0.256-0.017-0.504-0.048-0.744c-0.032-0.24-0.08-0.456-0.144-0.648l-5.568-14.064
		c-0.224-0.576-0.521-1.08-0.888-1.512c-0.369-0.432-0.792-0.711-1.272-0.84c-0.257-0.096-0.504-0.208-0.744-0.336
		c-0.24-0.127-0.36-0.304-0.36-0.528c0-0.192,0.12-0.312,0.36-0.36c0.24-0.048,0.439-0.072,0.6-0.072
		c0.64,0,1.111,0.017,1.416,0.048c0.304,0.032,0.591,0.072,0.864,0.12c0.271,0.048,0.68,0.072,1.224,0.072
		c0.576,0,1.008-0.024,1.296-0.072s0.592-0.088,0.912-0.12c0.319-0.031,0.799-0.048,1.44-0.048c0.192,0,0.4,0.041,0.624,0.12
		c0.224,0.08,0.336,0.216,0.336,0.408c0,0.224-0.168,0.44-0.504,0.648c-0.336,0.208-0.632,0.344-0.888,0.408
		c-0.32,0.096-0.56,0.264-0.72,0.504c-0.161,0.24-0.24,0.584-0.24,1.032c0,0.192,0.048,0.424,0.144,0.696
		c0.096,0.272,0.175,0.488,0.24,0.648l3.888,9.6c0.064,0.192,0.16,0.288,0.288,0.288c0.096,0,0.175-0.096,0.24-0.288l3.312-8.784
		c0.096-0.223,0.184-0.52,0.264-0.888c0.08-0.368,0.12-0.664,0.12-0.888c0-0.607-0.088-1.032-0.264-1.272
		c-0.176-0.24-0.408-0.424-0.696-0.552c-0.257-0.128-0.552-0.296-0.888-0.504c-0.336-0.208-0.504-0.424-0.504-0.648
		c0-0.192,0.12-0.328,0.36-0.408c0.24-0.08,0.439-0.12,0.6-0.12c0.448,0,0.904,0.041,1.368,0.12c0.463,0.08,1.144,0.12,2.04,0.12
		c0.607,0,1.047-0.024,1.32-0.072c0.271-0.048,0.504-0.088,0.696-0.12c0.191-0.031,0.463-0.048,0.815-0.048
		c0.16,0,0.36,0.024,0.601,0.072c0.239,0.048,0.359,0.168,0.359,0.36c0,0.224-0.12,0.4-0.359,0.528
		c-0.24,0.128-0.488,0.24-0.744,0.336c-0.48,0.128-0.992,0.504-1.536,1.128c-0.544,0.624-0.977,1.32-1.296,2.088l-6.528,15.552
		c-0.032,0.096-0.2,0.512-0.504,1.248c-0.304,0.736-0.68,1.647-1.128,2.736c-0.448,1.087-0.936,2.256-1.464,3.504
		c-0.528,1.248-1.032,2.448-1.512,3.6c-0.288,0.64-0.704,1.128-1.248,1.464C131.684,125.112,131.06,125.28,130.356,125.28z"/>
	<path fill="#083E00" d="M159.779,111.743c-0.16,0-0.36-0.024-0.6-0.072c-0.24-0.048-0.36-0.168-0.36-0.36
		c0-0.256,0.12-0.439,0.36-0.552c0.239-0.112,0.487-0.216,0.743-0.312c0.48-0.16,0.944-0.344,1.393-0.552
		c0.447-0.208,0.672-0.631,0.672-1.272V84.431c0-0.928-0.168-1.704-0.504-2.328s-0.904-1.016-1.704-1.176
		c-0.257-0.064-0.384-0.271-0.384-0.624c0-0.32,0.111-0.512,0.336-0.576c0.831-0.192,1.552-0.392,2.16-0.6
		c0.607-0.208,1.176-0.423,1.704-0.648c0.527-0.223,1.047-0.432,1.56-0.624c0.128-0.063,0.224-0.096,0.288-0.096
		c0.063,0,0.12,0.041,0.168,0.12c0.048,0.081,0.072,0.152,0.072,0.216c0,0.288-0.057,0.904-0.168,1.848
		c-0.113,0.944-0.168,2.504-0.168,4.68v24c0,0.641,0.223,1.064,0.672,1.272c0.447,0.208,0.912,0.393,1.392,0.552
		c0.256,0.096,0.504,0.2,0.744,0.312c0.24,0.112,0.36,0.296,0.36,0.552c0,0.192-0.12,0.312-0.36,0.36
		c-0.24,0.048-0.44,0.072-0.6,0.072c-0.608,0-1.097-0.024-1.465-0.072c-0.368-0.048-0.72-0.087-1.056-0.12
		c-0.336-0.032-0.792-0.048-1.368-0.048c-0.544,0-0.992,0.017-1.344,0.048c-0.353,0.032-0.704,0.072-1.056,0.12
		C160.915,111.719,160.419,111.743,159.779,111.743z"/>
	<path fill="#083E00" d="M171.539,111.743c-0.288,0-0.521-0.041-0.696-0.12s-0.264-0.216-0.264-0.408
		c0-0.256,0.12-0.432,0.359-0.528c0.24-0.096,0.487-0.175,0.744-0.24c0.672-0.16,1.184-0.36,1.536-0.6
		c0.352-0.24,0.528-0.648,0.528-1.224V98.207c0-0.864-0.152-1.632-0.456-2.304c-0.305-0.672-0.872-1.072-1.704-1.2
		c-0.161-0.032-0.28-0.096-0.36-0.192c-0.08-0.096-0.12-0.24-0.12-0.432c0-0.352,0.145-0.544,0.433-0.576
		c1.279-0.288,2.335-0.679,3.168-1.176c0.831-0.496,1.455-0.904,1.872-1.224c0.288-0.224,0.511-0.336,0.672-0.336
		c0.191,0,0.288,0.08,0.288,0.24c0,0.256-0.041,0.76-0.12,1.512c-0.08,0.752-0.152,1.584-0.216,2.496
		c-0.064,0.912-0.097,1.736-0.097,2.472v11.136c0,0.544,0.184,0.944,0.553,1.2c0.367,0.256,0.871,0.464,1.512,0.624
		c0.256,0.064,0.504,0.144,0.744,0.24c0.239,0.096,0.359,0.272,0.359,0.528c0,0.352-0.32,0.528-0.96,0.528
		c-0.608,0-1.097-0.024-1.464-0.072c-0.368-0.048-0.72-0.087-1.056-0.12c-0.336-0.032-0.792-0.048-1.368-0.048
		c-0.545,0-0.992,0.017-1.344,0.048c-0.353,0.032-0.704,0.072-1.057,0.12C172.674,111.719,172.179,111.743,171.539,111.743z
		 M175.379,86.831c-0.672,0-1.24-0.231-1.704-0.696c-0.464-0.464-0.696-1.032-0.696-1.704c0-0.704,0.232-1.288,0.696-1.752
		c0.464-0.463,1.032-0.696,1.704-0.696c0.703,0,1.288,0.233,1.752,0.696c0.464,0.464,0.696,1.048,0.696,1.752
		c0,0.672-0.232,1.24-0.696,1.704C176.667,86.6,176.082,86.831,175.379,86.831z"/>
	<path fill="#083E00" d="M183.299,111.743c-0.32,0-0.561-0.041-0.721-0.12s-0.239-0.216-0.239-0.408
		c0-0.256,0.104-0.432,0.312-0.528c0.208-0.096,0.472-0.175,0.792-0.24c0.736-0.16,1.264-0.392,1.584-0.696
		c0.319-0.304,0.48-0.775,0.48-1.416V94.8c-0.32,0-0.688-0.008-1.104-0.024c-0.416-0.016-0.88-0.04-1.392-0.072
		c-0.097-0.032-0.232-0.144-0.408-0.336s-0.264-0.368-0.264-0.528c0-0.064,0.048-0.12,0.144-0.168
		c0.096-0.048,0.16-0.087,0.192-0.12c0.576-0.288,1.071-0.544,1.487-0.768c0.416-0.224,0.864-0.448,1.345-0.672
		c0-2.784,0.343-5.104,1.031-6.96c0.688-1.855,1.576-3.328,2.664-4.416s2.24-1.864,3.456-2.328c1.216-0.463,2.353-0.696,3.408-0.696
		c1.792,0,3.12,0.272,3.984,0.816c0.863,0.544,1.296,1.232,1.296,2.064c0,0.64-0.161,1.12-0.48,1.44
		c-0.32,0.32-0.704,0.48-1.151,0.48c-0.288,0-0.553-0.112-0.792-0.336c-0.24-0.224-0.521-0.48-0.84-0.768
		c-0.417-0.416-0.929-0.808-1.536-1.176c-0.608-0.367-1.44-0.552-2.496-0.552c-1.505,0-2.744,0.656-3.721,1.968
		c-0.976,1.313-1.464,3.329-1.464,6.048v4.224c0,0.192,0.056,0.32,0.168,0.384c0.112,0.064,0.232,0.096,0.36,0.096h6
		c0.16,0,0.304,0.048,0.432,0.144c0.128,0.096,0.192,0.225,0.192,0.384c0,0.224-0.024,0.464-0.072,0.72
		c-0.048,0.257-0.12,0.48-0.216,0.672c-0.096,0.256-0.24,0.384-0.432,0.384h-5.521c-0.384,0-0.632,0.056-0.744,0.168
		c-0.112,0.112-0.168,0.264-0.168,0.456v13.008c0,0.641,0.208,1.112,0.624,1.416c0.416,0.305,1.264,0.537,2.544,0.696
		c0.736,0.096,1.104,0.353,1.104,0.768c0,0.192-0.08,0.328-0.24,0.408s-0.4,0.12-0.72,0.12c-0.96,0-1.809-0.041-2.544-0.12
		c-0.736-0.08-1.521-0.12-2.353-0.12c-0.544,0-0.992,0.017-1.344,0.048c-0.353,0.032-0.72,0.072-1.104,0.12
		C184.45,111.719,183.938,111.743,183.299,111.743z"/>
	<path fill="#083E00" d="M205.475,112.32c-1.76,0-3.296-0.432-4.607-1.296c-1.313-0.864-2.337-2.088-3.072-3.672
		c-0.736-1.584-1.104-3.416-1.104-5.496c0-1.855,0.423-3.543,1.271-5.064c0.848-1.52,1.976-2.743,3.384-3.672
		c1.408-0.928,2.944-1.392,4.608-1.392c1.279,0,2.416,0.256,3.408,0.768c0.991,0.512,1.768,1.224,2.328,2.136
		c0.559,0.912,0.84,1.96,0.84,3.144c0,0.993-0.48,1.488-1.44,1.488h-10.128c-0.448,0-0.761,0.12-0.936,0.36
		c-0.177,0.24-0.265,0.712-0.265,1.416c0,1.536,0.336,2.937,1.008,4.2c0.673,1.264,1.568,2.272,2.688,3.024
		c1.12,0.752,2.352,1.128,3.696,1.128c0.96,0,1.831-0.184,2.615-0.552c0.784-0.368,1.48-0.904,2.089-1.608
		c0.127-0.16,0.223-0.264,0.288-0.312c0.063-0.048,0.144-0.072,0.239-0.072c0.256,0,0.384,0.161,0.384,0.48
		c0,0.608-0.287,1.28-0.863,2.016c-0.48,0.608-1.057,1.136-1.729,1.584c-0.672,0.448-1.408,0.792-2.208,1.032
		C207.171,112.199,206.339,112.32,205.475,112.32z M201.059,97.775h4.368c0.769,0,1.424-0.016,1.968-0.048
		c0.544-0.031,1.072-0.096,1.584-0.192c0.16-0.032,0.265-0.136,0.313-0.312c0.048-0.175,0.072-0.424,0.072-0.744
		c0-0.928-0.408-1.72-1.225-2.376c-0.815-0.655-1.784-0.984-2.903-0.984c-0.737,0-1.473,0.216-2.208,0.648
		c-0.737,0.432-1.345,0.968-1.824,1.608c-0.48,0.641-0.72,1.28-0.72,1.92C200.483,97.615,200.675,97.775,201.059,97.775z"/>
	<path fill="#083E00" d="M229.187,112.271c-0.576,0-1.16-0.224-1.752-0.672c-0.593-0.448-1.089-0.992-1.488-1.632
		c-0.4-0.64-0.6-1.248-0.6-1.824c0-1.024,0.271-1.824,0.815-2.4s1.408-1.104,2.592-1.584l4.896-2.016
		c0.64-0.256,1.016-0.48,1.128-0.672c0.111-0.192,0.184-0.607,0.216-1.248l0.096-3.072c0.032-0.832-0.2-1.551-0.695-2.16
		c-0.497-0.607-1.208-0.912-2.136-0.912c-0.48,0-0.961,0.08-1.44,0.24c-0.48,0.16-0.881,0.368-1.2,0.624
		c-0.191,0.128-0.32,0.32-0.384,0.576c-0.064,0.256-0.096,0.528-0.096,0.816c0,0.128,0.007,0.272,0.023,0.432
		c0.016,0.161,0.024,0.305,0.024,0.432c0,0.161-0.2,0.376-0.601,0.648c-0.4,0.272-0.848,0.512-1.344,0.72
		c-0.496,0.208-0.904,0.312-1.224,0.312c-0.161,0-0.288-0.04-0.384-0.12c-0.097-0.08-0.145-0.184-0.145-0.312
		c0-0.512,0.168-1.063,0.504-1.656c0.336-0.592,0.808-1.144,1.416-1.656c0.736-0.672,1.536-1.264,2.4-1.776
		c0.863-0.511,1.711-0.912,2.544-1.2c0.832-0.288,1.567-0.432,2.208-0.432c1.151,0,2.104,0.408,2.855,1.224s1.112,1.832,1.08,3.048
		l-0.239,11.52c-0.033,0.672,0.119,1.217,0.455,1.632c0.337,0.417,0.76,0.624,1.272,0.624c0.8,0,1.392-0.175,1.776-0.528
		c0.159-0.16,0.288-0.24,0.384-0.24c0.159,0,0.288,0.048,0.384,0.144c0.096,0.096,0.144,0.225,0.144,0.384
		c0,0.353-0.176,0.704-0.527,1.056c-0.513,0.512-1.064,0.92-1.656,1.224c-0.593,0.304-1.145,0.456-1.656,0.456
		c-1.472,0-2.64-0.832-3.504-2.496h-0.144c-1.057,0.864-2.064,1.497-3.024,1.896C231.202,112.071,230.21,112.271,229.187,112.271z
		 M231.442,109.968c0.64,0,1.184-0.104,1.632-0.312c0.448-0.208,0.848-0.488,1.2-0.84c0.159-0.16,0.295-0.375,0.408-0.648
		c0.111-0.271,0.184-0.711,0.216-1.32l0.096-2.352c0.031-0.352,0.016-0.607-0.048-0.768c-0.064-0.16-0.192-0.24-0.384-0.24
		c-0.064,0-0.177,0.016-0.336,0.048c-0.161,0.032-0.368,0.096-0.624,0.192c-1.696,0.608-2.873,1.241-3.528,1.896
		c-0.656,0.656-0.984,1.256-0.984,1.8c0,0.833,0.248,1.464,0.744,1.896C230.33,109.751,230.866,109.968,231.442,109.968z"/>
	<path fill="#083E00" d="M244.594,111.743c-0.641,0-0.96-0.176-0.96-0.528c0-0.288,0.367-0.544,1.104-0.768
		c0.48-0.16,0.937-0.368,1.368-0.624c0.433-0.256,0.664-0.704,0.696-1.344V84.431c0-0.864-0.145-1.624-0.432-2.28
		c-0.288-0.655-0.849-1.047-1.681-1.176c-0.288-0.064-0.432-0.288-0.432-0.672c0-0.288,0.127-0.48,0.384-0.576
		c0.448-0.16,0.984-0.336,1.608-0.528s1.271-0.408,1.943-0.648c0.672-0.24,1.264-0.472,1.776-0.696
		c0.128-0.063,0.224-0.096,0.288-0.096c0.096,0,0.176,0.032,0.24,0.096c0.063,0.064,0.096,0.144,0.096,0.24
		c0,0.192-0.041,0.464-0.12,0.816c-0.08,0.353-0.152,0.96-0.216,1.824c-0.064,0.864-0.096,2.16-0.096,3.888v8.352
		c0,0.512,0.023,0.88,0.071,1.104c0.048,0.224,0.136,0.449,0.265,0.672c0.511-0.384,1.144-0.808,1.896-1.272
		c0.752-0.463,1.592-0.872,2.521-1.224c0.928-0.352,1.888-0.528,2.88-0.528c1.567,0,2.871,0.617,3.912,1.848
		c1.039,1.232,1.56,2.792,1.56,4.68v10.08c0,0.641,0.208,1.112,0.624,1.416c0.416,0.305,0.864,0.537,1.344,0.696
		c0.352,0.096,0.624,0.2,0.816,0.312c0.191,0.112,0.288,0.264,0.288,0.456c0,0.352-0.32,0.528-0.96,0.528
		c-0.641,0-1.128-0.024-1.464-0.072c-0.336-0.048-0.656-0.087-0.96-0.12c-0.305-0.032-0.744-0.048-1.32-0.048
		c-0.545,0-0.977,0.017-1.296,0.048c-0.32,0.032-0.648,0.072-0.984,0.12c-0.336,0.048-0.824,0.072-1.464,0.072
		c-0.641,0-0.96-0.176-0.96-0.528c0-0.224,0.096-0.376,0.288-0.456c0.192-0.08,0.464-0.184,0.815-0.312
		c0.48-0.16,0.912-0.392,1.297-0.696c0.384-0.304,0.575-0.775,0.575-1.416v-9.792c0-0.799-0.232-1.528-0.695-2.184
		c-0.465-0.655-1.032-1.176-1.704-1.56c-0.672-0.384-1.36-0.576-2.064-0.576c-0.608,0-1.313,0.088-2.111,0.264
		c-0.801,0.176-1.425,0.44-1.872,0.792c-0.513,0.416-0.856,0.848-1.032,1.296c-0.177,0.448-0.264,1.168-0.264,2.16v9.744
		c0.031,0.641,0.231,1.088,0.6,1.344c0.367,0.256,0.792,0.464,1.271,0.624c0.353,0.096,0.616,0.2,0.792,0.312
		c0.176,0.112,0.265,0.264,0.265,0.456c0,0.352-0.32,0.528-0.96,0.528c-0.641,0-1.121-0.024-1.44-0.072
		c-0.32-0.048-0.624-0.087-0.912-0.12c-0.288-0.032-0.72-0.048-1.296-0.048c-0.544,0-0.983,0.017-1.319,0.048
		c-0.337,0.032-0.688,0.072-1.057,0.12C245.737,111.719,245.233,111.743,244.594,111.743z"/>
	<path fill="#083E00" d="M277.665,112.32c-1.76,0-3.296-0.432-4.607-1.296c-1.313-0.864-2.337-2.088-3.072-3.672
		c-0.736-1.584-1.104-3.416-1.104-5.496c0-1.855,0.423-3.543,1.271-5.064c0.848-1.52,1.976-2.743,3.384-3.672
		c1.408-0.928,2.944-1.392,4.608-1.392c1.279,0,2.416,0.256,3.408,0.768c0.991,0.512,1.768,1.224,2.328,2.136
		c0.559,0.912,0.84,1.96,0.84,3.144c0,0.993-0.48,1.488-1.44,1.488h-10.128c-0.448,0-0.761,0.12-0.936,0.36
		c-0.177,0.24-0.265,0.712-0.265,1.416c0,1.536,0.336,2.937,1.008,4.2c0.673,1.264,1.568,2.272,2.688,3.024
		c1.12,0.752,2.352,1.128,3.696,1.128c0.96,0,1.831-0.184,2.615-0.552c0.784-0.368,1.48-0.904,2.089-1.608
		c0.127-0.16,0.223-0.264,0.288-0.312c0.063-0.048,0.144-0.072,0.239-0.072c0.256,0,0.384,0.161,0.384,0.48
		c0,0.608-0.287,1.28-0.863,2.016c-0.48,0.608-1.057,1.136-1.729,1.584c-0.672,0.448-1.408,0.792-2.208,1.032
		C279.361,112.199,278.529,112.32,277.665,112.32z M273.249,97.775h4.368c0.769,0,1.424-0.016,1.968-0.048
		c0.544-0.031,1.072-0.096,1.584-0.192c0.16-0.032,0.265-0.136,0.313-0.312c0.048-0.175,0.072-0.424,0.072-0.744
		c0-0.928-0.408-1.72-1.225-2.376c-0.815-0.655-1.784-0.984-2.903-0.984c-0.737,0-1.473,0.216-2.208,0.648
		c-0.737,0.432-1.345,0.968-1.824,1.608c-0.48,0.641-0.72,1.28-0.72,1.92C272.674,97.615,272.865,97.775,273.249,97.775z"/>
	<path fill="#083E00" d="M291.777,112.271c-0.576,0-1.16-0.224-1.752-0.672c-0.593-0.448-1.089-0.992-1.488-1.632
		c-0.4-0.64-0.6-1.248-0.6-1.824c0-1.024,0.271-1.824,0.815-2.4s1.408-1.104,2.592-1.584l4.896-2.016
		c0.64-0.256,1.016-0.48,1.128-0.672c0.111-0.192,0.184-0.607,0.216-1.248l0.096-3.072c0.032-0.832-0.2-1.551-0.695-2.16
		c-0.497-0.607-1.208-0.912-2.136-0.912c-0.48,0-0.961,0.08-1.44,0.24c-0.48,0.16-0.881,0.368-1.2,0.624
		c-0.191,0.128-0.32,0.32-0.384,0.576c-0.064,0.256-0.096,0.528-0.096,0.816c0,0.128,0.007,0.272,0.023,0.432
		c0.016,0.161,0.024,0.305,0.024,0.432c0,0.161-0.2,0.376-0.601,0.648c-0.4,0.272-0.848,0.512-1.344,0.72
		c-0.496,0.208-0.904,0.312-1.224,0.312c-0.161,0-0.288-0.04-0.384-0.12c-0.097-0.08-0.145-0.184-0.145-0.312
		c0-0.512,0.168-1.063,0.504-1.656c0.336-0.592,0.808-1.144,1.416-1.656c0.736-0.672,1.536-1.264,2.4-1.776
		c0.863-0.511,1.711-0.912,2.544-1.2c0.832-0.288,1.567-0.432,2.208-0.432c1.151,0,2.104,0.408,2.855,1.224s1.112,1.832,1.08,3.048
		l-0.239,11.52c-0.033,0.672,0.119,1.217,0.455,1.632c0.337,0.417,0.76,0.624,1.272,0.624c0.8,0,1.392-0.175,1.776-0.528
		c0.159-0.16,0.288-0.24,0.384-0.24c0.159,0,0.288,0.048,0.384,0.144c0.096,0.096,0.144,0.225,0.144,0.384
		c0,0.353-0.176,0.704-0.527,1.056c-0.513,0.512-1.064,0.92-1.656,1.224c-0.593,0.304-1.145,0.456-1.656,0.456
		c-1.472,0-2.64-0.832-3.504-2.496h-0.144c-1.057,0.864-2.064,1.497-3.024,1.896C293.793,112.071,292.801,112.271,291.777,112.271z
		 M294.033,109.968c0.64,0,1.184-0.104,1.632-0.312c0.448-0.208,0.848-0.488,1.2-0.84c0.159-0.16,0.295-0.375,0.408-0.648
		c0.111-0.271,0.184-0.711,0.216-1.32l0.096-2.352c0.031-0.352,0.016-0.607-0.048-0.768c-0.064-0.16-0.192-0.24-0.384-0.24
		c-0.064,0-0.177,0.016-0.336,0.048c-0.161,0.032-0.368,0.096-0.624,0.192c-1.696,0.608-2.873,1.241-3.528,1.896
		c-0.656,0.656-0.984,1.256-0.984,1.8c0,0.833,0.248,1.464,0.744,1.896C292.921,109.751,293.457,109.968,294.033,109.968z"/>
	<path fill="#083E00" d="M322.448,112.511c-0.064,0-0.168-0.064-0.312-0.192c-0.145-0.128-0.216-0.225-0.216-0.288
		c0-0.32,0.039-0.775,0.119-1.368c0.08-0.592,0.12-1.096,0.12-1.512v-0.288c-0.479,0.736-1.248,1.488-2.304,2.256
		s-2.384,1.152-3.984,1.152c-1.823,0-3.4-0.48-4.728-1.44c-1.328-0.96-2.352-2.191-3.072-3.696c-0.72-1.504-1.08-3.056-1.08-4.656
		c0-1.855,0.433-3.6,1.296-5.232c0.864-1.632,2.104-2.959,3.721-3.984c1.615-1.024,3.544-1.536,5.784-1.536
		c0.64,0,1.287,0.056,1.943,0.168c0.655,0.113,1.16,0.232,1.512,0.36c0.288,0.096,0.496,0.144,0.624,0.144
		c0.224,0,0.337-0.384,0.337-1.152v-6.816c0-1.312-0.209-2.191-0.624-2.64c-0.417-0.448-1.009-0.736-1.776-0.864
		c-0.288-0.064-0.432-0.271-0.432-0.624c0-0.288,0.127-0.48,0.384-0.576c1.407-0.352,2.512-0.688,3.312-1.008
		c0.8-0.32,1.424-0.576,1.872-0.768c0.128-0.064,0.248-0.104,0.36-0.12c0.111-0.016,0.199-0.024,0.264-0.024
		c0.192,0,0.304,0.096,0.336,0.288c0,0.192-0.023,0.521-0.072,0.984c-0.048,0.464-0.104,1.145-0.168,2.04
		c-0.064,0.896-0.096,2.064-0.096,3.504v21.696c0,1.088,0.08,1.88,0.24,2.376c0.159,0.496,0.415,0.744,0.768,0.744
		c0.16,0,0.439-0.016,0.84-0.048c0.4-0.031,0.809-0.064,1.225-0.096c0.576-0.031,0.864,0.113,0.864,0.432
		c0,0.224-0.072,0.425-0.217,0.6c-0.144,0.176-0.296,0.264-0.456,0.264c-0.896,0.128-1.775,0.312-2.64,0.552
		c-0.864,0.24-1.856,0.6-2.976,1.08c-0.257,0.127-0.425,0.208-0.504,0.24C322.632,112.495,322.545,112.511,322.448,112.511z
		 M317.601,109.775c0.832,0,1.647-0.216,2.448-0.648c0.799-0.432,1.504-1,2.111-1.704l0.049-8.64c0-0.864-0.249-1.711-0.744-2.544
		c-0.497-0.832-1.185-1.512-2.064-2.04c-0.881-0.528-1.912-0.792-3.096-0.792c-0.736,0-1.568,0.224-2.496,0.672
		c-0.929,0.449-1.729,1.241-2.4,2.376c-0.672,1.136-1.008,2.776-1.008,4.92c0,1.824,0.271,3.288,0.816,4.392
		c0.543,1.104,1.207,1.944,1.992,2.52c0.783,0.576,1.584,0.968,2.399,1.176C316.425,109.672,317.088,109.775,317.601,109.775z"/>
	<path fill="#083E00" d="M64.211,183.743c-0.256,0-0.48-0.032-0.672-0.096s-0.288-0.208-0.288-0.432s0.104-0.384,0.312-0.48
		c0.208-0.096,0.472-0.191,0.792-0.288c0.448-0.159,0.904-0.343,1.368-0.552c0.463-0.208,0.696-0.632,0.696-1.271v-10.32
		c0-0.864-0.096-1.624-0.288-2.28c-0.192-0.655-0.705-1.047-1.536-1.176c-0.128-0.032-0.232-0.096-0.312-0.192
		c-0.081-0.096-0.12-0.24-0.12-0.432c0-0.319,0.127-0.512,0.384-0.576c0.864-0.223,1.551-0.456,2.064-0.696
		c0.511-0.24,0.967-0.512,1.368-0.816c0.4-0.304,0.888-0.632,1.464-0.984c0.063-0.031,0.127-0.072,0.192-0.12
		c0.063-0.048,0.144-0.072,0.24-0.072c0.192,0,0.288,0.113,0.288,0.336c0,0.225-0.041,0.681-0.12,1.368
		c-0.08,0.688-0.12,1.256-0.12,1.704c0,0.32,0.031,0.512,0.096,0.576h0.096c0.736-0.704,1.704-1.416,2.904-2.136
		c1.2-0.72,2.728-1.08,4.584-1.08c1.152,0,2.112,0.249,2.88,0.744c0.768,0.497,1.408,1.352,1.92,2.568h0.144
		c1.023-0.928,2.191-1.711,3.504-2.352c1.312-0.64,2.751-0.96,4.32-0.96c1.056,0,1.936,0.32,2.64,0.96
		c0.704,0.641,1.24,1.472,1.608,2.496c0.368,1.024,0.552,2.096,0.552,3.216v10.225c0,0.64,0.224,1.063,0.672,1.271
		c0.448,0.209,0.912,0.393,1.392,0.552c0.319,0.097,0.583,0.192,0.792,0.288c0.208,0.097,0.312,0.257,0.312,0.48
		c0,0.191-0.072,0.328-0.216,0.408c-0.144,0.079-0.392,0.119-0.744,0.119c-0.64,0-1.136-0.023-1.488-0.071
		c-0.353-0.048-0.68-0.088-0.984-0.12c-0.305-0.031-0.744-0.048-1.32-0.048c-0.544,0-0.992,0.017-1.344,0.048
		c-0.353,0.032-0.72,0.072-1.104,0.12c-0.384,0.048-0.896,0.071-1.536,0.071c-0.288,0-0.521-0.04-0.696-0.119
		c-0.176-0.08-0.264-0.217-0.264-0.408c0-0.256,0.104-0.433,0.312-0.528c0.208-0.096,0.472-0.176,0.792-0.24
		c0.512-0.127,0.984-0.304,1.416-0.527s0.648-0.656,0.648-1.296v-10.081c0-0.768-0.176-1.495-0.528-2.184
		c-0.353-0.688-0.816-1.255-1.392-1.704c-0.576-0.448-1.216-0.672-1.92-0.672c-0.8,0-1.544,0.096-2.232,0.288
		c-0.688,0.192-1.336,0.528-1.944,1.008c-0.896,0.704-1.344,1.856-1.344,3.456v9.888c0,0.64,0.24,1.072,0.72,1.296
		s0.96,0.4,1.44,0.527c0.319,0.064,0.583,0.152,0.792,0.265c0.208,0.112,0.312,0.28,0.312,0.504c0,0.191-0.081,0.328-0.24,0.408
		c-0.161,0.079-0.4,0.119-0.72,0.119c-0.64,0-1.144-0.023-1.512-0.071c-0.368-0.048-0.72-0.088-1.056-0.12
		c-0.336-0.031-0.792-0.048-1.368-0.048c-0.545,0-0.993,0.017-1.344,0.048c-0.353,0.032-0.72,0.072-1.104,0.12
		s-0.896,0.071-1.536,0.071c-0.256,0-0.48-0.04-0.672-0.119c-0.192-0.08-0.288-0.217-0.288-0.408c0-0.256,0.12-0.424,0.36-0.504
		c0.24-0.08,0.487-0.168,0.744-0.265c0.48-0.159,0.952-0.343,1.416-0.552c0.463-0.208,0.696-0.632,0.696-1.271v-10.081
		c0-0.768-0.176-1.495-0.528-2.184c-0.353-0.688-0.816-1.255-1.392-1.704c-0.576-0.448-1.216-0.672-1.92-0.672
		c-0.8,0-1.544,0.096-2.232,0.288c-0.688,0.192-1.336,0.528-1.944,1.008c-0.864,0.64-1.296,1.792-1.296,3.456v9.888
		c0,0.64,0.223,1.063,0.672,1.271c0.448,0.209,0.912,0.393,1.392,0.552c0.255,0.097,0.504,0.185,0.744,0.265
		c0.24,0.08,0.36,0.248,0.36,0.504c0,0.191-0.089,0.328-0.264,0.408c-0.176,0.079-0.408,0.119-0.696,0.119
		c-0.641,0-1.145-0.023-1.512-0.071c-0.368-0.048-0.712-0.088-1.032-0.12c-0.32-0.031-0.768-0.048-1.344-0.048
		c-0.544,0-0.984,0.017-1.32,0.048c-0.336,0.032-0.688,0.072-1.056,0.12C65.355,183.719,64.851,183.743,64.211,183.743z"/>
	<path fill="#083E00" d="M101.555,183.743c-0.288,0-0.521-0.04-0.696-0.119c-0.176-0.08-0.264-0.217-0.264-0.408
		c0-0.256,0.12-0.433,0.36-0.528c0.24-0.096,0.487-0.176,0.744-0.24c0.672-0.159,1.184-0.359,1.536-0.6
		c0.352-0.24,0.528-0.648,0.528-1.224v-10.417c0-0.864-0.152-1.632-0.456-2.304c-0.304-0.672-0.872-1.072-1.704-1.2
		c-0.161-0.032-0.281-0.096-0.36-0.192c-0.08-0.096-0.12-0.24-0.12-0.432c0-0.352,0.144-0.544,0.432-0.576
		c1.28-0.288,2.335-0.679,3.168-1.176c0.832-0.496,1.456-0.904,1.872-1.224c0.288-0.224,0.512-0.336,0.672-0.336
		c0.192,0,0.288,0.08,0.288,0.24c0,0.256-0.041,0.76-0.12,1.512c-0.081,0.752-0.152,1.584-0.216,2.496
		c-0.064,0.912-0.096,1.736-0.096,2.472v11.136c0,0.544,0.184,0.943,0.552,1.199c0.368,0.257,0.872,0.465,1.512,0.624
		c0.255,0.064,0.504,0.145,0.744,0.24c0.24,0.096,0.36,0.272,0.36,0.528c0,0.353-0.32,0.527-0.96,0.527
		c-0.608,0-1.097-0.023-1.464-0.071c-0.368-0.048-0.72-0.088-1.056-0.12c-0.336-0.031-0.792-0.048-1.368-0.048
		c-0.544,0-0.992,0.017-1.344,0.048c-0.352,0.032-0.704,0.072-1.056,0.12C102.691,183.719,102.195,183.743,101.555,183.743z
		 M105.396,158.831c-0.672,0-1.241-0.231-1.704-0.696c-0.464-0.464-0.696-1.032-0.696-1.704c0-0.704,0.232-1.288,0.696-1.752
		c0.463-0.463,1.032-0.696,1.704-0.696c0.703,0,1.288,0.233,1.752,0.696c0.463,0.464,0.696,1.048,0.696,1.752
		c0,0.672-0.232,1.24-0.696,1.704C106.683,158.6,106.099,158.831,105.396,158.831z"/>
	<path fill="#083E00" d="M120.563,197.519c-2.72,0-4.872-0.521-6.456-1.56c-1.584-1.041-2.376-2.44-2.376-4.2
		c0-0.833,0.127-1.536,0.384-2.112c0.256-0.576,0.655-1.072,1.2-1.488c0.448-0.384,1.048-0.872,1.8-1.464
		c0.751-0.592,1.528-1.208,2.328-1.848l2.016,0.096c-1.536,0.992-2.608,1.936-3.216,2.832c-0.608,0.896-0.912,1.984-0.912,3.265
		c0,1.279,0.568,2.359,1.704,3.239c1.135,0.88,2.536,1.32,4.2,1.32c1.888,0,3.408-0.432,4.56-1.296c0.8-0.608,1.424-1.4,1.872-2.376
		c0.448-0.977,0.672-2.009,0.672-3.096c0-0.705-0.249-1.289-0.744-1.752c-0.497-0.465-1.272-0.841-2.328-1.129
		c-1.056-0.287-2.432-0.479-4.128-0.575c-3.008-0.225-5.096-0.624-6.264-1.2c-1.168-0.576-1.752-1.472-1.752-2.688
		c0-0.319,0.088-0.615,0.264-0.888c0.175-0.271,0.456-0.567,0.84-0.888c0.736-0.576,1.28-1,1.632-1.272
		c0.352-0.271,0.616-0.504,0.792-0.696c0.175-0.192,0.343-0.432,0.504-0.72l1.632,0.816c-0.704,0.256-1.296,0.6-1.776,1.032
		s-0.72,0.825-0.72,1.176c0,0.448,0.24,0.84,0.72,1.176s1.184,0.6,2.112,0.792c0.928,0.192,2.064,0.336,3.408,0.432
		c2.944,0.161,5.136,0.641,6.576,1.44c1.44,0.8,2.16,1.936,2.16,3.408c0,1.248-0.312,2.472-0.936,3.672s-1.448,2.296-2.472,3.288
		c-1.024,0.991-2.168,1.783-3.432,2.376C123.163,197.223,121.875,197.519,120.563,197.519z M120.851,178.511
		c-1.313,0-2.561-0.336-3.744-1.008c-1.184-0.672-2.152-1.56-2.904-2.664c-0.752-1.104-1.128-2.312-1.128-3.624
		c0-1.504,0.392-2.824,1.176-3.96c0.784-1.135,1.816-2.023,3.096-2.664c1.279-0.64,2.64-0.96,4.08-0.96
		c0.928,0,1.735,0.12,2.424,0.36c0.688,0.24,1.368,0.456,2.04,0.648c0.768,0.224,1.375,0.36,1.824,0.408
		c0.448,0.048,0.912,0.072,1.392,0.072c0.384,0,0.864-0.024,1.44-0.072c0.576-0.048,0.976-0.072,1.2-0.072
		c0.416,0,0.624,0.24,0.624,0.72c0,0.288-0.161,0.592-0.48,0.912c-0.161,0.161-0.288,0.24-0.384,0.24h-1.296
		c-0.864,0-1.344,0.128-1.44,0.384c-0.032,0.128-0.072,0.312-0.12,0.552c-0.048,0.24-0.089,0.504-0.12,0.792
		c-0.032,0.288-0.048,0.576-0.048,0.864c0,1.632-0.352,3.137-1.056,4.512c-0.705,1.376-1.632,2.48-2.784,3.312
		C123.491,178.096,122.227,178.511,120.851,178.511z M121.139,176.831c1.216,0,2.224-0.616,3.024-1.848
		c0.799-1.231,1.2-2.76,1.2-4.584c0-0.928-0.216-1.8-0.648-2.616c-0.432-0.816-0.993-1.472-1.68-1.968
		c-0.688-0.496-1.433-0.744-2.232-0.744c-0.737,0-1.433,0.264-2.088,0.792c-0.656,0.528-1.185,1.208-1.584,2.04
		c-0.401,0.833-0.6,1.744-0.6,2.736c0,1.121,0.208,2.152,0.624,3.096c0.416,0.944,0.976,1.696,1.68,2.256
		C119.539,176.552,120.307,176.831,121.139,176.831z"/>
	<path fill="#083E00" d="M133.955,183.743c-0.641,0-0.96-0.175-0.96-0.527c0-0.288,0.367-0.544,1.104-0.769
		c0.48-0.159,0.936-0.367,1.368-0.624c0.432-0.256,0.664-0.703,0.696-1.344v-24.048c0-0.864-0.144-1.624-0.432-2.28
		c-0.288-0.655-0.848-1.047-1.68-1.176c-0.288-0.064-0.432-0.288-0.432-0.672c0-0.288,0.127-0.48,0.384-0.576
		c0.448-0.16,0.984-0.336,1.608-0.528s1.272-0.408,1.944-0.648c0.672-0.24,1.264-0.472,1.776-0.696
		c0.127-0.063,0.224-0.096,0.288-0.096c0.096,0,0.175,0.032,0.24,0.096c0.064,0.064,0.096,0.144,0.096,0.24
		c0,0.192-0.041,0.464-0.12,0.816c-0.08,0.353-0.152,0.96-0.216,1.824c-0.064,0.864-0.096,2.16-0.096,3.888v8.352
		c0,0.512,0.024,0.88,0.072,1.104c0.048,0.224,0.136,0.449,0.264,0.672c0.512-0.384,1.144-0.808,1.896-1.272
		c0.751-0.463,1.592-0.872,2.52-1.224c0.928-0.352,1.888-0.528,2.88-0.528c1.567,0,2.871,0.617,3.912,1.848
		c1.039,1.232,1.56,2.792,1.56,4.68v10.081c0,0.641,0.208,1.112,0.624,1.416s0.864,0.536,1.344,0.695
		c0.352,0.097,0.624,0.2,0.816,0.313c0.191,0.112,0.288,0.264,0.288,0.456c0,0.353-0.32,0.527-0.96,0.527
		c-0.641,0-1.128-0.023-1.464-0.071s-0.656-0.088-0.96-0.12c-0.305-0.031-0.744-0.048-1.32-0.048c-0.545,0-0.977,0.017-1.296,0.048
		c-0.32,0.032-0.648,0.072-0.984,0.12s-0.824,0.071-1.464,0.071c-0.641,0-0.96-0.175-0.96-0.527c0-0.224,0.096-0.376,0.288-0.456
		s0.464-0.184,0.815-0.313c0.48-0.159,0.912-0.392,1.297-0.695c0.384-0.304,0.575-0.775,0.575-1.416v-9.792
		c0-0.799-0.232-1.528-0.695-2.184c-0.465-0.655-1.032-1.176-1.704-1.56c-0.672-0.384-1.361-0.576-2.064-0.576
		c-0.608,0-1.313,0.088-2.112,0.264c-0.8,0.176-1.424,0.44-1.872,0.792c-0.512,0.416-0.856,0.848-1.032,1.296
		c-0.176,0.448-0.264,1.168-0.264,2.16v9.744c0.032,0.641,0.232,1.088,0.6,1.344c0.368,0.257,0.792,0.465,1.272,0.624
		c0.352,0.097,0.616,0.2,0.792,0.313c0.175,0.112,0.264,0.264,0.264,0.456c0,0.353-0.32,0.527-0.96,0.527
		c-0.641,0-1.121-0.023-1.44-0.071s-0.624-0.088-0.912-0.12c-0.288-0.031-0.72-0.048-1.296-0.048c-0.544,0-0.984,0.017-1.32,0.048
		c-0.336,0.032-0.688,0.072-1.056,0.12C135.099,183.719,134.595,183.743,133.955,183.743z"/>
	<path fill="#083E00" d="M165.875,184.271c-1.568,0-2.793-0.479-3.672-1.439c-0.881-0.96-1.32-2.384-1.32-4.272v-11.136
		c0-0.256-0.096-0.44-0.288-0.552c-0.192-0.112-0.608-0.168-1.248-0.168h-0.288c-0.16,0-0.296-0.104-0.408-0.312
		c-0.112-0.208-0.168-0.424-0.168-0.648c0-0.064,0.048-0.16,0.145-0.288c0.096-0.127,0.159-0.208,0.191-0.24
		c0.64-0.448,1.225-0.896,1.752-1.344c0.528-0.448,1.009-0.888,1.44-1.32c0.432-0.432,0.792-0.824,1.08-1.176
		c0.159-0.16,0.296-0.295,0.408-0.408c0.111-0.112,0.247-0.168,0.407-0.168s0.313,0.032,0.456,0.096
		c0.145,0.064,0.2,0.208,0.168,0.432l-0.239,2.16c-0.032,0.353,0.048,0.592,0.239,0.72c0.192,0.128,0.496,0.192,0.912,0.192h5.473
		c0.127,0,0.239,0.104,0.336,0.312c0.096,0.208,0.144,0.456,0.144,0.744s-0.048,0.568-0.144,0.84
		c-0.097,0.272-0.209,0.408-0.336,0.408h-4.752c-0.801,0-1.32,0.064-1.561,0.192c-0.24,0.128-0.359,0.512-0.359,1.152v9.456
		c0,1.28,0.271,2.289,0.815,3.024c0.544,0.736,1.328,1.104,2.353,1.104c0.928,0,1.647-0.072,2.159-0.216
		c0.512-0.145,0.977-0.36,1.393-0.648c0.063-0.063,0.127-0.096,0.191-0.096c0.128,0,0.217,0.071,0.265,0.216
		c0.048,0.144,0.072,0.296,0.072,0.456s-0.265,0.479-0.792,0.96c-0.528,0.479-1.217,0.929-2.064,1.344
		C167.786,184.063,166.866,184.271,165.875,184.271z"/>
	<path fill="#083E00" d="M193.906,184.271c-0.704,0-1.408-0.064-2.111-0.191c-0.704-0.129-1.377-0.272-2.017-0.433
		c-0.704-0.191-1.319-0.367-1.848-0.528c-0.528-0.159-0.872-0.239-1.032-0.239c-0.191,0-0.376,0.064-0.552,0.191
		c-0.177,0.129-0.345,0.272-0.504,0.433c-0.161,0.159-0.305,0.239-0.433,0.239s-0.271-0.056-0.432-0.168
		c-0.16-0.111-0.24-0.247-0.24-0.407c0-0.288,0.056-0.784,0.168-1.488c0.112-0.703,0.168-1.359,0.168-1.968v-23.28
		c0-0.832-0.208-1.552-0.624-2.16c-0.416-0.607-0.943-1.056-1.584-1.344c-0.128-0.064-0.264-0.152-0.407-0.264
		c-0.145-0.112-0.217-0.264-0.217-0.456c0-0.16,0.064-0.271,0.192-0.336c0.128-0.064,0.256-0.112,0.384-0.144
		c0.416-0.096,0.984-0.271,1.704-0.528c0.72-0.256,1.399-0.512,2.04-0.768c0.64-0.256,1.072-0.432,1.296-0.528
		c0.192-0.096,0.336-0.144,0.433-0.144c0.063,0,0.127,0.032,0.191,0.096c0.063,0.064,0.096,0.144,0.096,0.24
		c0,0.128-0.023,0.665-0.071,1.608c-0.048,0.944-0.072,2.088-0.072,3.432v9.84c0,0.608,0.031,1.016,0.096,1.224
		c0.064,0.208,0.176,0.329,0.336,0.36c0.992-0.832,2.144-1.512,3.456-2.04c1.313-0.528,2.496-0.792,3.553-0.792
		c1.632,0,3.096,0.417,4.392,1.248c1.296,0.833,2.328,1.96,3.096,3.384c0.769,1.424,1.152,3.033,1.152,4.824
		c0,2.177-0.448,4.104-1.344,5.784c-0.896,1.68-2.137,2.984-3.721,3.912S196.019,184.271,193.906,184.271z M195.011,182.783
		c1.216,0,2.264-0.375,3.144-1.128c0.88-0.751,1.561-1.775,2.04-3.072c0.48-1.296,0.721-2.743,0.721-4.344
		c0-1.248-0.233-2.528-0.696-3.84c-0.465-1.312-1.185-2.416-2.16-3.312c-0.977-0.896-2.232-1.344-3.768-1.344
		c-1.28,0-2.4,0.208-3.36,0.624c-0.96,0.416-1.793,0.944-2.496,1.584v9.312c0,1.121,0.313,2.096,0.937,2.928
		c0.623,0.833,1.439,1.473,2.447,1.92C192.826,182.56,193.89,182.783,195.011,182.783z"/>
	<path fill="#083E00" d="M216.418,184.319c-1.76,0-3.296-0.432-4.607-1.296c-1.313-0.864-2.337-2.088-3.072-3.672
		c-0.736-1.584-1.104-3.416-1.104-5.496c0-1.855,0.423-3.543,1.271-5.064c0.848-1.52,1.976-2.743,3.384-3.672
		c1.408-0.928,2.944-1.392,4.608-1.392c1.279,0,2.416,0.256,3.408,0.768c0.991,0.512,1.768,1.224,2.328,2.136
		c0.559,0.912,0.84,1.96,0.84,3.144c0,0.993-0.48,1.488-1.44,1.488h-10.128c-0.448,0-0.761,0.12-0.936,0.36
		c-0.177,0.24-0.265,0.712-0.265,1.416c0,1.536,0.336,2.937,1.008,4.2c0.673,1.264,1.568,2.272,2.688,3.024s2.352,1.128,3.696,1.128
		c0.96,0,1.831-0.184,2.615-0.552s1.48-0.904,2.089-1.608c0.127-0.16,0.223-0.264,0.288-0.312c0.063-0.048,0.144-0.072,0.239-0.072
		c0.256,0,0.384,0.161,0.384,0.479c0,0.608-0.287,1.28-0.863,2.017c-0.48,0.608-1.057,1.136-1.729,1.584s-1.408,0.792-2.208,1.032
		C218.114,184.199,217.282,184.319,216.418,184.319z M212.002,169.775h4.368c0.769,0,1.424-0.016,1.968-0.048
		c0.544-0.031,1.072-0.096,1.584-0.192c0.16-0.032,0.265-0.136,0.313-0.312c0.048-0.175,0.072-0.424,0.072-0.744
		c0-0.928-0.408-1.72-1.225-2.376c-0.815-0.655-1.784-0.984-2.903-0.984c-0.737,0-1.473,0.216-2.208,0.648
		c-0.737,0.432-1.345,0.968-1.824,1.608c-0.48,0.641-0.72,1.28-0.72,1.92C211.427,169.615,211.618,169.775,212.002,169.775z"/>
	<path fill="#083E00" d="M241.426,184.271c-0.992,0-1.92-0.152-2.784-0.456s-1.601-0.728-2.208-1.271
		c-0.16-0.353-0.28-0.943-0.36-1.776c-0.08-0.832-0.136-1.52-0.168-2.064c0-0.288,0.208-0.432,0.624-0.432
		c0.128,0,0.248,0.024,0.36,0.072c0.111,0.048,0.184,0.136,0.216,0.264c0.416,1.568,1.08,2.688,1.992,3.36s1.831,1.008,2.76,1.008
		c0.928,0,1.72-0.312,2.376-0.936s0.984-1.4,0.984-2.328c0-0.864-0.288-1.608-0.864-2.232s-1.584-1.384-3.023-2.28
		c-1.089-0.672-1.969-1.312-2.641-1.92s-1.16-1.231-1.464-1.872c-0.305-0.64-0.456-1.36-0.456-2.16c0-1.024,0.24-1.952,0.72-2.784
		c0.48-0.832,1.2-1.495,2.16-1.992c0.96-0.496,2.16-0.744,3.601-0.744c0.96,0,1.759,0.096,2.399,0.288
		c0.64,0.192,1.12,0.4,1.44,0.624c0.256,0.353,0.472,0.904,0.647,1.656c0.176,0.752,0.265,1.464,0.265,2.136
		c0,0.224-0.161,0.336-0.48,0.336c-0.191,0-0.376-0.04-0.552-0.12c-0.177-0.08-0.296-0.184-0.36-0.312
		c-0.416-1.056-0.936-1.864-1.56-2.424c-0.624-0.56-1.4-0.84-2.328-0.84c-0.8,0-1.512,0.24-2.136,0.72s-0.937,1.185-0.937,2.112
		c0,0.736,0.232,1.392,0.696,1.968s1.336,1.232,2.616,1.968c1.855,1.056,3.24,2.04,4.151,2.952c0.912,0.912,1.368,2.12,1.368,3.624
		c0,1.728-0.656,3.136-1.968,4.224C245.201,183.727,243.506,184.271,241.426,184.271z"/>
	<path fill="#083E00" d="M251.89,183.743c-0.641,0-0.96-0.175-0.96-0.527c0-0.288,0.367-0.544,1.104-0.769
		c0.48-0.159,0.937-0.367,1.368-0.624c0.433-0.256,0.664-0.703,0.696-1.344v-24.048c0-0.864-0.145-1.624-0.432-2.28
		c-0.288-0.655-0.849-1.047-1.681-1.176c-0.288-0.064-0.432-0.288-0.432-0.672c0-0.288,0.127-0.48,0.384-0.576
		c0.448-0.16,0.984-0.336,1.608-0.528s1.271-0.408,1.943-0.648c0.672-0.24,1.264-0.472,1.776-0.696
		c0.128-0.063,0.224-0.096,0.288-0.096c0.096,0,0.176,0.032,0.24,0.096c0.063,0.064,0.096,0.144,0.096,0.24
		c0,0.192-0.041,0.464-0.12,0.816c-0.08,0.353-0.152,0.96-0.216,1.824c-0.064,0.864-0.096,2.16-0.096,3.888v8.352
		c0,0.512,0.023,0.88,0.071,1.104c0.048,0.224,0.136,0.449,0.265,0.672c0.511-0.384,1.144-0.808,1.896-1.272
		c0.752-0.463,1.592-0.872,2.521-1.224c0.928-0.352,1.888-0.528,2.88-0.528c1.567,0,2.871,0.617,3.912,1.848
		c1.039,1.232,1.56,2.792,1.56,4.68v10.081c0,0.641,0.208,1.112,0.624,1.416s0.864,0.536,1.344,0.695
		c0.352,0.097,0.624,0.2,0.816,0.313c0.191,0.112,0.288,0.264,0.288,0.456c0,0.353-0.32,0.527-0.96,0.527
		c-0.641,0-1.128-0.023-1.464-0.071s-0.656-0.088-0.96-0.12c-0.305-0.031-0.744-0.048-1.32-0.048c-0.545,0-0.977,0.017-1.296,0.048
		c-0.32,0.032-0.648,0.072-0.984,0.12s-0.824,0.071-1.464,0.071c-0.641,0-0.96-0.175-0.96-0.527c0-0.224,0.096-0.376,0.288-0.456
		s0.464-0.184,0.815-0.313c0.48-0.159,0.912-0.392,1.297-0.695c0.384-0.304,0.575-0.775,0.575-1.416v-9.792
		c0-0.799-0.232-1.528-0.695-2.184c-0.465-0.655-1.032-1.176-1.704-1.56c-0.672-0.384-1.36-0.576-2.064-0.576
		c-0.608,0-1.313,0.088-2.111,0.264c-0.801,0.176-1.425,0.44-1.872,0.792c-0.513,0.416-0.856,0.848-1.032,1.296
		c-0.177,0.448-0.264,1.168-0.264,2.16v9.744c0.031,0.641,0.231,1.088,0.6,1.344c0.367,0.257,0.792,0.465,1.271,0.624
		c0.353,0.097,0.616,0.2,0.792,0.313s0.265,0.264,0.265,0.456c0,0.353-0.32,0.527-0.96,0.527c-0.641,0-1.121-0.023-1.44-0.071
		c-0.32-0.048-0.624-0.088-0.912-0.12c-0.288-0.031-0.72-0.048-1.296-0.048c-0.544,0-0.983,0.017-1.319,0.048
		c-0.337,0.032-0.688,0.072-1.057,0.12S252.529,183.743,251.89,183.743z"/>
	<path fill="#083E00" d="M285.97,184.271c-1.793,0-3.408-0.416-4.849-1.248c-1.439-0.832-2.584-1.976-3.432-3.432
		c-0.849-1.456-1.272-3.112-1.272-4.968c0-1.344,0.265-2.656,0.792-3.936c0.528-1.279,1.272-2.448,2.232-3.504s2.08-1.896,3.36-2.52
		c1.279-0.624,2.655-0.936,4.128-0.936c1.855,0,3.527,0.449,5.016,1.344c1.488,0.896,2.672,2.072,3.552,3.528
		c0.88,1.457,1.32,3.048,1.32,4.776c0,1.856-0.408,3.617-1.224,5.28c-0.816,1.665-2.024,3.016-3.624,4.056
		C290.369,183.751,288.369,184.271,285.97,184.271z M286.978,182.832c1.087,0,2.063-0.208,2.928-0.624s1.536-1.088,2.016-2.017
		c0.385-0.735,0.641-1.632,0.769-2.688c0.127-1.056,0.191-2.047,0.191-2.976c0-1.536-0.28-3.016-0.84-4.44
		c-0.56-1.423-1.344-2.592-2.352-3.504s-2.2-1.368-3.576-1.368c-0.864,0-1.641,0.136-2.328,0.408
		c-0.688,0.272-1.32,0.776-1.896,1.512c-0.641,0.8-1.057,1.776-1.248,2.928c-0.192,1.152-0.288,2.304-0.288,3.456
		c0,1.568,0.288,3.064,0.864,4.488c0.575,1.424,1.359,2.584,2.352,3.479C284.561,182.384,285.697,182.832,286.978,182.832z"/>
	<path fill="#083E00" d="M300.849,183.743c-0.319,0-0.56-0.04-0.72-0.119c-0.16-0.08-0.24-0.217-0.24-0.408
		c0-0.256,0.097-0.424,0.288-0.504c0.192-0.08,0.464-0.168,0.816-0.265c0.607-0.159,1.063-0.392,1.368-0.695
		c0.304-0.304,0.456-0.68,0.456-1.128v-10.32c0-0.864-0.129-1.616-0.385-2.256s-0.784-1.04-1.584-1.2
		c-0.128-0.032-0.239-0.112-0.336-0.24c-0.096-0.127-0.144-0.255-0.144-0.384c0-0.319,0.144-0.512,0.432-0.576
		c0.832-0.255,1.704-0.631,2.616-1.128c0.912-0.496,1.624-0.904,2.136-1.224c0.192-0.127,0.344-0.216,0.456-0.264
		c0.112-0.048,0.2-0.072,0.265-0.072c0.159,0,0.239,0.113,0.239,0.336c0,0.096-0.008,0.336-0.023,0.72
		c-0.017,0.384-0.032,0.833-0.048,1.344c-0.017,0.513-0.041,1.025-0.072,1.536c0,0.064,0.031,0.096,0.096,0.096
		c0.512-0.64,1.08-1.2,1.704-1.68s1.264-0.864,1.92-1.152c0.655-0.288,1.288-0.432,1.896-0.432c0.672,0,1.224,0.144,1.655,0.432
		c0.433,0.288,0.648,0.656,0.648,1.104c0,0.32-0.089,0.672-0.264,1.056c-0.177,0.384-0.408,0.72-0.696,1.008
		s-0.593,0.432-0.912,0.432c-0.192,0-0.4-0.04-0.624-0.12c-0.225-0.08-0.464-0.184-0.72-0.312c-0.257-0.096-0.513-0.192-0.769-0.288
		c-0.256-0.096-0.512-0.144-0.768-0.144c-0.768,0-1.512,0.272-2.232,0.816c-0.72,0.545-1.08,1.616-1.08,3.216v9.696
		c0,0.416,0.224,0.76,0.673,1.031c0.447,0.272,1.071,0.536,1.872,0.792c0.352,0.097,0.624,0.192,0.815,0.288
		c0.192,0.097,0.288,0.257,0.288,0.48c0,0.353-0.32,0.527-0.96,0.527c-0.96,0-1.688-0.04-2.184-0.119
		c-0.497-0.08-1.161-0.12-1.992-0.12c-0.545,0-0.984,0.017-1.32,0.048c-0.336,0.032-0.688,0.072-1.056,0.12
		C301.993,183.719,301.489,183.743,300.849,183.743z"/>
	<path fill="#083E00" d="M323.602,184.271c-1.568,0-2.793-0.479-3.672-1.439c-0.881-0.96-1.32-2.384-1.32-4.272v-11.136
		c0-0.256-0.096-0.44-0.288-0.552c-0.192-0.112-0.608-0.168-1.248-0.168h-0.288c-0.16,0-0.296-0.104-0.408-0.312
		c-0.112-0.208-0.168-0.424-0.168-0.648c0-0.064,0.048-0.16,0.145-0.288c0.096-0.127,0.159-0.208,0.191-0.24
		c0.64-0.448,1.225-0.896,1.752-1.344c0.528-0.448,1.009-0.888,1.44-1.32c0.432-0.432,0.792-0.824,1.08-1.176
		c0.159-0.16,0.296-0.295,0.408-0.408c0.111-0.112,0.247-0.168,0.407-0.168s0.313,0.032,0.456,0.096
		c0.145,0.064,0.2,0.208,0.168,0.432l-0.239,2.16c-0.032,0.353,0.048,0.592,0.239,0.72c0.192,0.128,0.496,0.192,0.912,0.192h5.473
		c0.127,0,0.239,0.104,0.336,0.312c0.096,0.208,0.144,0.456,0.144,0.744s-0.048,0.568-0.144,0.84
		c-0.097,0.272-0.209,0.408-0.336,0.408h-4.752c-0.801,0-1.32,0.064-1.561,0.192c-0.24,0.128-0.359,0.512-0.359,1.152v9.456
		c0,1.28,0.271,2.289,0.815,3.024c0.544,0.736,1.328,1.104,2.353,1.104c0.928,0,1.647-0.072,2.159-0.216
		c0.512-0.145,0.977-0.36,1.393-0.648c0.063-0.063,0.127-0.096,0.191-0.096c0.128,0,0.217,0.071,0.265,0.216
		c0.048,0.144,0.072,0.296,0.072,0.456s-0.265,0.479-0.792,0.96c-0.528,0.479-1.217,0.929-2.064,1.344
		C325.513,184.063,324.593,184.271,323.602,184.271z"/>
	<path fill="#083E00" d="M27.876,255.84c-0.417,0-0.752-0.041-1.008-0.12c-0.256-0.08-0.384-0.216-0.384-0.408
		c0-0.384,0.528-0.672,1.584-0.864c1.216-0.224,2.144-0.592,2.784-1.104s0.96-1.328,0.96-2.448v-21.696
		c0-1.119-0.233-1.92-0.696-2.399c-0.464-0.48-1.304-0.832-2.52-1.057c-1.056-0.191-1.584-0.511-1.584-0.96
		c0-0.191,0.127-0.327,0.384-0.407c0.255-0.08,0.591-0.12,1.008-0.12c0.864,0,1.576,0.017,2.136,0.048
		c0.56,0.032,1.096,0.056,1.608,0.072c0.511,0.017,1.135,0.023,1.872,0.023c0.703,0,1.279-0.007,1.728-0.023
		c0.448-0.017,0.928-0.04,1.44-0.072c0.511-0.031,1.2-0.048,2.064-0.048c0.416,0,0.751,0.04,1.008,0.12
		c0.256,0.08,0.384,0.216,0.384,0.407c0,0.225-0.128,0.417-0.384,0.576c-0.256,0.161-0.656,0.288-1.2,0.384
		c-1.184,0.225-2.048,0.576-2.592,1.057c-0.544,0.479-0.816,1.28-0.816,2.399v21.696c0,1.12,0.336,1.937,1.008,2.448
		s1.6,0.88,2.784,1.104c0.543,0.097,0.943,0.209,1.2,0.336c0.256,0.129,0.384,0.305,0.384,0.528c0,0.192-0.128,0.328-0.384,0.408
		c-0.256,0.079-0.592,0.12-1.008,0.12c-0.864,0-1.577-0.024-2.136-0.072c-0.561-0.048-1.097-0.089-1.608-0.12
		c-0.512-0.032-1.136-0.048-1.872-0.048c-0.8,0-1.497,0.016-2.088,0.048c-0.592,0.031-1.2,0.072-1.824,0.12
		S28.74,255.84,27.876,255.84z"/>
	<path fill="#083E00" d="M62.34,256.703c-0.064,0-0.128-0.032-0.192-0.096c-0.064-0.064-0.112-0.144-0.144-0.24l-6.672-16.56
		c-0.224-0.64-0.576-1.159-1.056-1.56s-0.96-0.664-1.44-0.792c-0.257-0.097-0.504-0.208-0.744-0.337
		c-0.24-0.127-0.36-0.304-0.36-0.527c0-0.192,0.12-0.313,0.36-0.36c0.24-0.048,0.439-0.072,0.6-0.072
		c0.416,0,0.808,0.017,1.176,0.049c0.368,0.032,0.744,0.071,1.128,0.119c0.384,0.049,0.784,0.072,1.2,0.072
		c0.448,0,0.896-0.023,1.344-0.072c0.448-0.048,0.888-0.087,1.32-0.119c0.432-0.032,0.871-0.049,1.32-0.049
		c0.127,0,0.319,0.024,0.576,0.072c0.255,0.048,0.384,0.168,0.384,0.36c0,0.224-0.12,0.4-0.36,0.527
		c-0.24,0.129-0.488,0.24-0.744,0.337c-0.32,0.096-0.568,0.328-0.744,0.695c-0.176,0.368-0.264,0.776-0.264,1.225
		c0,0.416,0.08,0.832,0.24,1.248l3.744,9.647c0.031,0.128,0.112,0.192,0.24,0.192s0.208-0.064,0.24-0.192l3.264-7.775
		c0.16-0.416,0.264-0.816,0.312-1.2c0.048-0.385,0.072-0.752,0.072-1.104c0-0.703-0.272-1.279-0.816-1.728
		c-0.544-0.448-1.088-0.784-1.632-1.008c-0.257-0.097-0.504-0.208-0.744-0.337c-0.24-0.127-0.36-0.304-0.36-0.527
		c0-0.192,0.111-0.313,0.336-0.36c0.223-0.048,0.432-0.072,0.624-0.072c0.448,0,0.936,0.041,1.464,0.12
		c0.528,0.08,1.24,0.12,2.136,0.12c0.896,0,1.664-0.04,2.304-0.12c0.64-0.079,1.216-0.12,1.728-0.12c0.16,0,0.36,0.024,0.6,0.072
		c0.24,0.048,0.36,0.168,0.36,0.36c0,0.224-0.12,0.4-0.36,0.527c-0.24,0.129-0.488,0.24-0.744,0.337
		c-0.353,0.128-0.712,0.304-1.08,0.527c-0.368,0.225-0.552,0.624-0.552,1.2c0,0.192,0.024,0.408,0.072,0.648
		c0.048,0.239,0.136,0.504,0.264,0.792l3.6,9.264c0.16,0.353,0.288,0.528,0.384,0.528c0.127,0,0.256-0.16,0.384-0.48l3.648-8.496
		c0.127-0.256,0.216-0.576,0.264-0.96c0.048-0.384,0.072-0.688,0.072-0.912c0-0.576-0.192-1.039-0.576-1.392
		c-0.384-0.352-0.752-0.592-1.104-0.72c-0.256-0.097-0.504-0.208-0.744-0.337c-0.24-0.127-0.36-0.304-0.36-0.527
		c0-0.192,0.12-0.313,0.36-0.36c0.24-0.048,0.44-0.072,0.6-0.072c0.704,0,1.264,0.041,1.68,0.12c0.416,0.08,1.056,0.12,1.92,0.12
		c0.607,0,1.04-0.023,1.296-0.072c0.256-0.048,0.48-0.087,0.672-0.119c0.192-0.032,0.463-0.049,0.816-0.049
		c0.192,0,0.399,0.024,0.624,0.072c0.223,0.048,0.336,0.168,0.336,0.36c0,0.224-0.12,0.4-0.36,0.527
		c-0.24,0.129-0.488,0.24-0.744,0.337c-0.48,0.128-0.944,0.504-1.392,1.128c-0.449,0.624-0.833,1.304-1.152,2.04l-6.576,15.743
		c-0.096,0.224-0.24,0.336-0.432,0.336c-0.128,0-0.256-0.112-0.384-0.336l-4.992-12.384c-0.096-0.256-0.192-0.399-0.288-0.432
		c-0.096,0-0.208,0.16-0.336,0.479l-5.232,12.336C62.628,256.591,62.5,256.703,62.34,256.703z"/>
	<path fill="#083E00" d="M89.269,256.271c-0.576,0-1.161-0.225-1.752-0.672c-0.592-0.447-1.088-0.991-1.488-1.632
		c-0.4-0.64-0.6-1.248-0.6-1.824c0-1.023,0.271-1.824,0.816-2.4c0.544-0.575,1.408-1.104,2.592-1.584l4.896-2.016
		c0.64-0.256,1.016-0.479,1.128-0.672c0.112-0.192,0.184-0.607,0.216-1.248l0.096-3.072c0.031-0.831-0.2-1.552-0.696-2.16
		c-0.497-0.607-1.208-0.911-2.136-0.911c-0.48,0-0.96,0.08-1.44,0.239c-0.48,0.161-0.88,0.368-1.2,0.624
		c-0.192,0.129-0.32,0.32-0.384,0.576c-0.064,0.257-0.096,0.528-0.096,0.816c0,0.128,0.008,0.271,0.024,0.432
		s0.024,0.305,0.024,0.432c0,0.161-0.201,0.377-0.6,0.648c-0.4,0.272-0.848,0.512-1.344,0.72c-0.497,0.209-0.904,0.313-1.224,0.313
		c-0.161,0-0.288-0.04-0.384-0.12s-0.144-0.184-0.144-0.313c0-0.511,0.168-1.063,0.504-1.655s0.808-1.145,1.416-1.656
		c0.736-0.672,1.536-1.264,2.4-1.776c0.864-0.512,1.711-0.912,2.544-1.2c0.832-0.287,1.567-0.432,2.208-0.432
		c1.152,0,2.104,0.408,2.856,1.224c0.751,0.816,1.111,1.833,1.08,3.049l-0.24,11.52c-0.032,0.672,0.12,1.217,0.456,1.632
		c0.336,0.416,0.76,0.624,1.272,0.624c0.799,0,1.392-0.175,1.776-0.527c0.16-0.16,0.288-0.24,0.384-0.24
		c0.16,0,0.288,0.048,0.384,0.144c0.096,0.097,0.144,0.225,0.144,0.384c0,0.353-0.176,0.705-0.528,1.057
		c-0.512,0.512-1.064,0.92-1.656,1.224c-0.592,0.304-1.145,0.456-1.656,0.456c-1.472,0-2.64-0.832-3.504-2.496h-0.144
		c-1.056,0.864-2.064,1.496-3.024,1.896C91.284,256.071,90.292,256.271,89.269,256.271z M91.524,253.968
		c0.64,0,1.184-0.104,1.632-0.313c0.448-0.207,0.848-0.487,1.2-0.84c0.16-0.159,0.295-0.376,0.408-0.647
		c0.112-0.271,0.184-0.712,0.216-1.32l0.096-2.352c0.032-0.353,0.016-0.608-0.048-0.769c-0.064-0.16-0.192-0.24-0.384-0.24
		c-0.064,0-0.176,0.017-0.336,0.048c-0.16,0.032-0.368,0.097-0.624,0.192c-1.697,0.608-2.873,1.24-3.528,1.896
		c-0.656,0.656-0.984,1.256-0.984,1.8c0,0.832,0.248,1.464,0.744,1.896C90.412,253.752,90.948,253.968,91.524,253.968z"/>
	<path fill="#083E00" d="M104.916,255.743c-0.288,0-0.521-0.04-0.696-0.119c-0.176-0.08-0.264-0.217-0.264-0.408
		c0-0.256,0.096-0.424,0.288-0.504s0.463-0.168,0.816-0.265c0.48-0.127,0.944-0.304,1.392-0.527
		c0.448-0.224,0.672-0.656,0.672-1.296v-10.32c0-0.864-0.088-1.6-0.264-2.208c-0.176-0.607-0.68-1.023-1.512-1.248
		c-0.128-0.063-0.24-0.136-0.336-0.216s-0.144-0.216-0.144-0.408c0-0.352,0.144-0.544,0.432-0.576
		c1.12-0.288,2.032-0.64,2.736-1.056c0.704-0.416,1.392-0.88,2.064-1.393c0.096-0.063,0.184-0.119,0.264-0.168
		c0.08-0.048,0.168-0.071,0.264-0.071c0.063,0,0.12,0.032,0.168,0.096c0.048,0.064,0.072,0.144,0.072,0.24
		c0,0.224-0.041,0.68-0.12,1.368c-0.08,0.688-0.12,1.256-0.12,1.703c0,0.129,0.007,0.249,0.024,0.36
		c0.016,0.112,0.04,0.185,0.072,0.216c1.12-1.056,2.312-1.855,3.576-2.399c1.264-0.544,2.647-0.816,4.152-0.816
		c1.567,0,2.864,0.641,3.888,1.92c1.023,1.28,1.536,2.864,1.536,4.752v10.225c0,0.64,0.224,1.063,0.672,1.271
		c0.448,0.209,0.912,0.393,1.392,0.552c0.255,0.097,0.504,0.2,0.744,0.313c0.24,0.112,0.36,0.296,0.36,0.552
		c0,0.192-0.113,0.313-0.336,0.36c-0.224,0.048-0.432,0.071-0.624,0.071c-0.64,0-1.136-0.023-1.488-0.071
		c-0.353-0.048-0.688-0.088-1.008-0.12c-0.32-0.031-0.768-0.048-1.344-0.048c-0.544,0-0.992,0.017-1.344,0.048
		c-0.353,0.032-0.713,0.072-1.08,0.12c-0.368,0.048-0.873,0.071-1.512,0.071c-0.161,0-0.36-0.023-0.6-0.071
		c-0.24-0.048-0.36-0.168-0.36-0.36c0-0.256,0.12-0.439,0.36-0.552c0.24-0.112,0.488-0.216,0.744-0.313
		c0.48-0.159,0.943-0.343,1.392-0.552c0.448-0.208,0.672-0.632,0.672-1.271v-10.08c0-1.408-0.392-2.504-1.176-3.288
		c-0.785-0.784-1.833-1.192-3.144-1.225c-1.152,0-2.16,0.185-3.024,0.553c-0.864,0.368-1.632,0.824-2.304,1.367
		c-0.128,0.129-0.224,0.297-0.288,0.505c-0.064,0.208-0.096,0.407-0.096,0.6v11.568c0,0.64,0.223,1.072,0.672,1.296
		c0.448,0.224,0.912,0.4,1.392,0.527c0.736,0.192,1.104,0.449,1.104,0.769c0,0.191-0.081,0.328-0.24,0.408
		c-0.161,0.079-0.4,0.119-0.72,0.119c-0.641,0-1.145-0.023-1.512-0.071c-0.368-0.048-0.712-0.088-1.032-0.12
		c-0.32-0.031-0.768-0.048-1.344-0.048c-0.544,0-0.984,0.017-1.32,0.048c-0.336,0.032-0.688,0.072-1.056,0.12
		C106.06,255.719,105.556,255.743,104.916,255.743z"/>
	<path fill="#083E00" d="M137.219,256.271c-1.568,0-2.792-0.479-3.672-1.439c-0.88-0.96-1.32-2.384-1.32-4.272v-11.136
		c0-0.256-0.096-0.439-0.288-0.552s-0.608-0.169-1.248-0.169h-0.288c-0.16,0-0.296-0.103-0.408-0.312
		c-0.113-0.208-0.168-0.424-0.168-0.648c0-0.063,0.048-0.159,0.144-0.287c0.096-0.128,0.16-0.208,0.192-0.24
		c0.64-0.448,1.224-0.896,1.752-1.344s1.008-0.889,1.44-1.32c0.432-0.433,0.792-0.823,1.08-1.176c0.16-0.16,0.295-0.296,0.408-0.408
		c0.112-0.112,0.248-0.168,0.408-0.168c0.16,0,0.312,0.032,0.456,0.096c0.144,0.064,0.199,0.209,0.168,0.432l-0.24,2.16
		c-0.032,0.353,0.048,0.593,0.24,0.721s0.496,0.191,0.912,0.191h5.472c0.127,0,0.24,0.104,0.336,0.313
		c0.096,0.208,0.144,0.456,0.144,0.744c0,0.287-0.048,0.568-0.144,0.84c-0.096,0.271-0.209,0.407-0.336,0.407h-4.752
		c-0.8,0-1.32,0.065-1.56,0.192c-0.24,0.128-0.36,0.513-0.36,1.152v9.456c0,1.28,0.271,2.288,0.816,3.023
		c0.544,0.736,1.328,1.104,2.352,1.104c0.928,0,1.648-0.072,2.16-0.216c0.511-0.145,0.976-0.36,1.392-0.648
		c0.063-0.063,0.127-0.096,0.192-0.096c0.127,0,0.216,0.071,0.264,0.216c0.048,0.144,0.072,0.296,0.072,0.456
		s-0.264,0.479-0.792,0.96c-0.528,0.479-1.216,0.929-2.064,1.344C139.131,256.063,138.211,256.271,137.219,256.271z"/>
	<path fill="#083E00" d="M161.892,256.271c-1.568,0-2.793-0.479-3.672-1.439c-0.881-0.96-1.32-2.384-1.32-4.272v-11.136
		c0-0.256-0.096-0.439-0.288-0.552s-0.608-0.169-1.248-0.169h-0.288c-0.16,0-0.296-0.103-0.408-0.312
		c-0.112-0.208-0.168-0.424-0.168-0.648c0-0.063,0.048-0.159,0.145-0.287c0.096-0.128,0.159-0.208,0.191-0.24
		c0.64-0.448,1.225-0.896,1.752-1.344c0.528-0.448,1.009-0.889,1.44-1.32c0.432-0.433,0.792-0.823,1.08-1.176
		c0.159-0.16,0.296-0.296,0.408-0.408c0.111-0.112,0.247-0.168,0.407-0.168s0.313,0.032,0.456,0.096
		c0.145,0.064,0.2,0.209,0.168,0.432l-0.239,2.16c-0.032,0.353,0.048,0.593,0.239,0.721c0.192,0.128,0.496,0.191,0.912,0.191h5.473
		c0.127,0,0.239,0.104,0.336,0.313c0.096,0.208,0.144,0.456,0.144,0.744c0,0.287-0.048,0.568-0.144,0.84
		c-0.097,0.271-0.209,0.407-0.336,0.407h-4.752c-0.801,0-1.32,0.065-1.561,0.192c-0.24,0.128-0.359,0.513-0.359,1.152v9.456
		c0,1.28,0.271,2.288,0.815,3.023c0.544,0.736,1.328,1.104,2.353,1.104c0.928,0,1.647-0.072,2.159-0.216
		c0.512-0.145,0.977-0.36,1.393-0.648c0.063-0.063,0.127-0.096,0.191-0.096c0.128,0,0.217,0.071,0.265,0.216
		c0.048,0.144,0.072,0.296,0.072,0.456s-0.265,0.479-0.792,0.96c-0.528,0.479-1.217,0.929-2.064,1.344
		C163.803,256.063,162.883,256.271,161.892,256.271z"/>
	<path fill="#083E00" d="M179.124,256.271c-1.793,0-3.408-0.416-4.849-1.248c-1.439-0.832-2.584-1.976-3.432-3.432
		c-0.849-1.456-1.272-3.112-1.272-4.968c0-1.345,0.265-2.656,0.792-3.937c0.528-1.279,1.272-2.448,2.232-3.504s2.08-1.896,3.36-2.52
		c1.279-0.624,2.655-0.937,4.128-0.937c1.855,0,3.527,0.448,5.016,1.344c1.488,0.896,2.672,2.072,3.552,3.528s1.32,3.048,1.32,4.776
		c0,1.855-0.408,3.616-1.224,5.279c-0.816,1.665-2.024,3.017-3.624,4.057C183.523,255.751,181.523,256.271,179.124,256.271z
		 M180.132,254.832c1.087,0,2.063-0.208,2.928-0.624s1.536-1.088,2.016-2.017c0.385-0.735,0.641-1.632,0.769-2.688
		c0.127-1.057,0.191-2.048,0.191-2.977c0-1.536-0.28-3.016-0.84-4.439s-1.344-2.592-2.352-3.504s-2.2-1.368-3.576-1.368
		c-0.864,0-1.641,0.137-2.328,0.408c-0.688,0.271-1.32,0.775-1.896,1.512c-0.641,0.8-1.057,1.775-1.248,2.928
		c-0.192,1.152-0.288,2.304-0.288,3.456c0,1.568,0.288,3.064,0.864,4.488c0.575,1.424,1.359,2.584,2.352,3.479
		C177.715,254.384,178.852,254.832,180.132,254.832z"/>
	<path fill="#083E00" d="M211.475,256.319c-1.601,0-3.048-0.408-4.344-1.224c-1.296-0.816-2.32-1.936-3.072-3.36
		c-0.752-1.423-1.128-3.016-1.128-4.775c0-2.08,0.456-3.968,1.368-5.664s2.136-3.048,3.672-4.057
		c1.536-1.008,3.232-1.512,5.088-1.512c2.08,0,3.904,0.561,5.473,1.68c0.384,0.288,0.576,0.593,0.576,0.912
		c0,0.257-0.113,0.545-0.337,0.864c-0.224,0.32-0.496,0.584-0.815,0.792c-0.32,0.209-0.624,0.313-0.912,0.313
		c-0.16,0-0.32-0.056-0.48-0.169c-0.16-0.111-0.336-0.231-0.527-0.359c-0.704-0.544-1.488-1.057-2.353-1.536
		c-0.863-0.48-1.584-0.72-2.159-0.72c-1.568,0-2.841,0.728-3.816,2.184c-0.977,1.457-1.464,3.368-1.464,5.736
		c0,1.504,0.327,2.864,0.983,4.08s1.536,2.176,2.641,2.88c1.104,0.704,2.328,1.056,3.672,1.056c0.928,0,1.728-0.151,2.4-0.456
		c0.672-0.304,1.392-0.84,2.159-1.607c0.064-0.064,0.145-0.12,0.24-0.168c0.096-0.049,0.176-0.072,0.24-0.072
		c0.352,0,0.528,0.224,0.528,0.672c0,0.192-0.057,0.408-0.168,0.648c-0.113,0.239-0.297,0.521-0.553,0.84
		c-0.512,0.641-1.12,1.192-1.824,1.655c-0.704,0.465-1.48,0.809-2.327,1.032C213.387,256.207,212.467,256.319,211.475,256.319z"/>
	<path fill="#083E00" d="M222.659,255.743c-0.641,0-0.96-0.175-0.96-0.527c0-0.288,0.367-0.544,1.104-0.769
		c0.48-0.159,0.937-0.367,1.368-0.624c0.433-0.256,0.664-0.703,0.696-1.344v-24.048c0-0.864-0.145-1.624-0.432-2.28
		c-0.288-0.655-0.849-1.048-1.681-1.176c-0.288-0.063-0.432-0.288-0.432-0.672c0-0.288,0.127-0.48,0.384-0.576
		c0.448-0.16,0.984-0.336,1.608-0.528c0.624-0.191,1.271-0.407,1.943-0.647s1.264-0.472,1.776-0.696
		c0.128-0.063,0.224-0.096,0.288-0.096c0.096,0,0.176,0.032,0.24,0.096c0.063,0.064,0.096,0.145,0.096,0.24
		c0,0.192-0.041,0.464-0.12,0.815c-0.08,0.353-0.152,0.961-0.216,1.824c-0.064,0.864-0.096,2.16-0.096,3.889v8.352
		c0,0.513,0.023,0.881,0.071,1.104s0.136,0.448,0.265,0.672c0.511-0.385,1.144-0.808,1.896-1.272
		c0.752-0.464,1.592-0.871,2.521-1.224c0.928-0.352,1.888-0.528,2.88-0.528c1.567,0,2.871,0.616,3.912,1.848
		c1.039,1.232,1.56,2.793,1.56,4.681v10.08c0,0.641,0.208,1.112,0.624,1.416s0.864,0.536,1.344,0.695
		c0.352,0.097,0.624,0.2,0.816,0.313c0.191,0.112,0.288,0.264,0.288,0.456c0,0.353-0.32,0.527-0.96,0.527
		c-0.641,0-1.128-0.023-1.464-0.071s-0.656-0.088-0.96-0.12c-0.305-0.031-0.744-0.048-1.32-0.048c-0.545,0-0.977,0.017-1.296,0.048
		c-0.32,0.032-0.648,0.072-0.984,0.12s-0.824,0.071-1.464,0.071c-0.641,0-0.96-0.175-0.96-0.527c0-0.224,0.096-0.376,0.288-0.456
		s0.464-0.184,0.815-0.313c0.48-0.159,0.912-0.392,1.297-0.695c0.384-0.304,0.575-0.775,0.575-1.416v-9.792
		c0-0.8-0.232-1.528-0.695-2.185c-0.465-0.655-1.032-1.176-1.704-1.56s-1.36-0.576-2.064-0.576c-0.608,0-1.313,0.089-2.111,0.264
		c-0.801,0.177-1.425,0.44-1.872,0.792c-0.513,0.417-0.856,0.849-1.032,1.296c-0.177,0.449-0.264,1.169-0.264,2.16v9.744
		c0.031,0.641,0.231,1.088,0.6,1.344c0.367,0.257,0.792,0.465,1.271,0.624c0.353,0.097,0.616,0.2,0.792,0.313
		s0.265,0.264,0.265,0.456c0,0.353-0.32,0.527-0.96,0.527c-0.641,0-1.121-0.023-1.44-0.071c-0.32-0.048-0.624-0.088-0.912-0.12
		c-0.288-0.031-0.72-0.048-1.296-0.048c-0.544,0-0.983,0.017-1.319,0.048c-0.337,0.032-0.688,0.072-1.057,0.12
		S223.299,255.743,222.659,255.743z"/>
	<path fill="#083E00" d="M251.123,256.271c-0.576,0-1.16-0.225-1.752-0.672c-0.593-0.447-1.089-0.991-1.488-1.632
		c-0.4-0.64-0.6-1.248-0.6-1.824c0-1.023,0.271-1.824,0.815-2.4c0.544-0.575,1.408-1.104,2.592-1.584l4.896-2.016
		c0.64-0.256,1.016-0.479,1.128-0.672c0.111-0.192,0.184-0.607,0.216-1.248l0.096-3.072c0.032-0.831-0.2-1.552-0.695-2.16
		c-0.497-0.607-1.208-0.911-2.136-0.911c-0.48,0-0.961,0.08-1.44,0.239c-0.48,0.161-0.881,0.368-1.2,0.624
		c-0.191,0.129-0.32,0.32-0.384,0.576c-0.064,0.257-0.096,0.528-0.096,0.816c0,0.128,0.007,0.271,0.023,0.432
		c0.016,0.16,0.024,0.305,0.024,0.432c0,0.161-0.2,0.377-0.601,0.648c-0.4,0.272-0.848,0.512-1.344,0.72
		c-0.496,0.209-0.904,0.313-1.224,0.313c-0.161,0-0.288-0.04-0.384-0.12c-0.097-0.08-0.145-0.184-0.145-0.313
		c0-0.511,0.168-1.063,0.504-1.655s0.808-1.145,1.416-1.656c0.736-0.672,1.536-1.264,2.4-1.776c0.863-0.512,1.711-0.912,2.544-1.2
		c0.832-0.287,1.567-0.432,2.208-0.432c1.151,0,2.104,0.408,2.855,1.224c0.752,0.816,1.112,1.833,1.08,3.049l-0.239,11.52
		c-0.033,0.672,0.119,1.217,0.455,1.632c0.337,0.416,0.76,0.624,1.272,0.624c0.8,0,1.392-0.175,1.776-0.527
		c0.159-0.16,0.288-0.24,0.384-0.24c0.159,0,0.288,0.048,0.384,0.144c0.096,0.097,0.144,0.225,0.144,0.384
		c0,0.353-0.176,0.705-0.527,1.057c-0.513,0.512-1.064,0.92-1.656,1.224c-0.593,0.304-1.145,0.456-1.656,0.456
		c-1.472,0-2.64-0.832-3.504-2.496h-0.144c-1.057,0.864-2.064,1.496-3.024,1.896C253.139,256.071,252.146,256.271,251.123,256.271z
		 M253.379,253.968c0.64,0,1.184-0.104,1.632-0.313c0.448-0.207,0.848-0.487,1.2-0.84c0.159-0.159,0.295-0.376,0.408-0.647
		c0.111-0.271,0.184-0.712,0.216-1.32l0.096-2.352c0.031-0.353,0.016-0.608-0.048-0.769c-0.064-0.16-0.192-0.24-0.384-0.24
		c-0.064,0-0.177,0.017-0.336,0.048c-0.161,0.032-0.368,0.097-0.624,0.192c-1.696,0.608-2.873,1.24-3.528,1.896
		c-0.656,0.656-0.984,1.256-0.984,1.8c0,0.832,0.248,1.464,0.744,1.896C252.267,253.752,252.803,253.968,253.379,253.968z"/>
	<path fill="#083E00" d="M266.771,255.743c-0.288,0-0.521-0.04-0.696-0.119c-0.176-0.08-0.264-0.217-0.264-0.408
		c0-0.256,0.096-0.424,0.288-0.504c0.191-0.08,0.463-0.168,0.815-0.265c0.48-0.127,0.943-0.304,1.393-0.527
		c0.447-0.224,0.672-0.656,0.672-1.296v-10.32c0-0.864-0.089-1.6-0.265-2.208c-0.176-0.607-0.68-1.023-1.512-1.248
		c-0.128-0.063-0.24-0.136-0.336-0.216s-0.144-0.216-0.144-0.408c0-0.352,0.144-0.544,0.432-0.576
		c1.12-0.288,2.031-0.64,2.736-1.056c0.703-0.416,1.392-0.88,2.063-1.393c0.096-0.063,0.184-0.119,0.264-0.168
		c0.08-0.048,0.168-0.071,0.265-0.071c0.063,0,0.12,0.032,0.168,0.096c0.048,0.064,0.072,0.144,0.072,0.24
		c0,0.224-0.041,0.68-0.12,1.368c-0.081,0.688-0.12,1.256-0.12,1.703c0,0.129,0.007,0.249,0.023,0.36
		c0.016,0.112,0.04,0.185,0.072,0.216c1.12-1.056,2.312-1.855,3.576-2.399c1.264-0.544,2.647-0.816,4.152-0.816
		c1.567,0,2.863,0.641,3.888,1.92c1.023,1.28,1.536,2.864,1.536,4.752v10.225c0,0.64,0.224,1.063,0.672,1.271
		c0.447,0.209,0.912,0.393,1.392,0.552c0.256,0.097,0.504,0.2,0.744,0.313s0.36,0.296,0.36,0.552c0,0.192-0.112,0.313-0.336,0.36
		c-0.225,0.048-0.433,0.071-0.624,0.071c-0.641,0-1.137-0.023-1.488-0.071c-0.353-0.048-0.688-0.088-1.008-0.12
		c-0.32-0.031-0.769-0.048-1.344-0.048c-0.545,0-0.993,0.017-1.345,0.048c-0.353,0.032-0.712,0.072-1.08,0.12
		s-0.872,0.071-1.512,0.071c-0.16,0-0.36-0.023-0.6-0.071c-0.24-0.048-0.36-0.168-0.36-0.36c0-0.256,0.12-0.439,0.36-0.552
		c0.239-0.112,0.487-0.216,0.744-0.313c0.479-0.159,0.943-0.343,1.392-0.552c0.447-0.208,0.672-0.632,0.672-1.271v-10.08
		c0-1.408-0.393-2.504-1.176-3.288c-0.784-0.784-1.832-1.192-3.145-1.225c-1.151,0-2.159,0.185-3.023,0.553
		s-1.632,0.824-2.304,1.367c-0.129,0.129-0.225,0.297-0.288,0.505c-0.064,0.208-0.097,0.407-0.097,0.6v11.568
		c0,0.64,0.224,1.072,0.672,1.296s0.912,0.4,1.393,0.527c0.735,0.192,1.104,0.449,1.104,0.769c0,0.191-0.08,0.328-0.239,0.408
		c-0.161,0.079-0.401,0.119-0.721,0.119c-0.641,0-1.145-0.023-1.512-0.071c-0.368-0.048-0.713-0.088-1.032-0.12
		c-0.32-0.031-0.768-0.048-1.344-0.048c-0.545,0-0.984,0.017-1.32,0.048c-0.336,0.032-0.688,0.072-1.056,0.12
		C267.914,255.719,267.41,255.743,266.771,255.743z"/>
	<path fill="#083E00" d="M299.362,269.519c-2.721,0-4.872-0.521-6.456-1.56c-1.584-1.041-2.376-2.44-2.376-4.2
		c0-0.833,0.127-1.536,0.384-2.112c0.256-0.576,0.655-1.072,1.2-1.488c0.447-0.384,1.048-0.872,1.8-1.464
		c0.751-0.592,1.527-1.208,2.328-1.848l2.016,0.096c-1.536,0.992-2.608,1.936-3.216,2.832c-0.608,0.896-0.912,1.984-0.912,3.265
		c0,1.279,0.567,2.359,1.704,3.239c1.136,0.88,2.536,1.32,4.2,1.32c1.888,0,3.408-0.432,4.56-1.296c0.8-0.608,1.424-1.4,1.872-2.376
		c0.448-0.977,0.672-2.009,0.672-3.096c0-0.705-0.248-1.289-0.744-1.752c-0.496-0.465-1.271-0.841-2.327-1.129
		c-1.057-0.287-2.433-0.479-4.129-0.575c-3.008-0.225-5.096-0.624-6.264-1.2s-1.752-1.472-1.752-2.688
		c0-0.319,0.088-0.615,0.264-0.888c0.176-0.271,0.456-0.567,0.841-0.888c0.735-0.576,1.279-1,1.632-1.272
		c0.352-0.271,0.615-0.504,0.792-0.696c0.175-0.191,0.343-0.432,0.504-0.72l1.632,0.816c-0.704,0.256-1.296,0.6-1.776,1.032
		c-0.479,0.432-0.72,0.824-0.72,1.176c0,0.448,0.24,0.84,0.72,1.176c0.48,0.336,1.184,0.6,2.112,0.792
		c0.928,0.192,2.064,0.336,3.408,0.432c2.943,0.161,5.136,0.641,6.576,1.44c1.439,0.8,2.16,1.936,2.16,3.408
		c0,1.248-0.313,2.472-0.937,3.672s-1.448,2.296-2.472,3.288c-1.024,0.991-2.169,1.783-3.433,2.376
		C301.962,269.223,300.674,269.519,299.362,269.519z M299.65,250.511c-1.313,0-2.561-0.336-3.744-1.008
		c-1.185-0.672-2.152-1.561-2.904-2.664c-0.752-1.104-1.128-2.312-1.128-3.624c0-1.504,0.392-2.824,1.176-3.96
		s1.815-2.023,3.096-2.664c1.28-0.64,2.641-0.96,4.08-0.96c0.928,0,1.736,0.12,2.425,0.359c0.688,0.24,1.367,0.456,2.04,0.648
		c0.768,0.225,1.375,0.36,1.823,0.408s0.912,0.071,1.393,0.071c0.384,0,0.863-0.023,1.439-0.071s0.976-0.072,1.2-0.072
		c0.416,0,0.624,0.24,0.624,0.72c0,0.288-0.16,0.593-0.479,0.912c-0.161,0.161-0.288,0.24-0.385,0.24h-1.296
		c-0.864,0-1.344,0.128-1.439,0.384c-0.032,0.128-0.072,0.313-0.12,0.552c-0.048,0.24-0.089,0.505-0.12,0.792
		c-0.032,0.288-0.048,0.576-0.048,0.864c0,1.632-0.353,3.137-1.057,4.512c-0.704,1.377-1.632,2.48-2.783,3.313
		C302.29,250.095,301.025,250.511,299.65,250.511z M299.938,248.832c1.216,0,2.225-0.616,3.024-1.849c0.8-1.231,1.2-2.76,1.2-4.584
		c0-0.928-0.216-1.8-0.648-2.616c-0.432-0.815-0.992-1.471-1.68-1.968c-0.688-0.495-1.433-0.744-2.232-0.744
		c-0.736,0-1.432,0.265-2.088,0.792c-0.656,0.528-1.184,1.209-1.584,2.04c-0.4,0.833-0.6,1.745-0.6,2.736
		c0,1.12,0.208,2.152,0.624,3.096c0.415,0.944,0.976,1.696,1.68,2.256C298.338,248.552,299.105,248.832,299.938,248.832z"/>
	<path fill="#083E00" d="M321.105,256.319c-1.76,0-3.296-0.432-4.607-1.296c-1.313-0.864-2.337-2.088-3.072-3.672
		c-0.736-1.584-1.104-3.415-1.104-5.496c0-1.855,0.423-3.544,1.271-5.063c0.848-1.52,1.976-2.744,3.384-3.673
		c1.408-0.928,2.944-1.392,4.608-1.392c1.279,0,2.416,0.257,3.408,0.769c0.991,0.512,1.768,1.224,2.328,2.136
		c0.559,0.912,0.84,1.96,0.84,3.144c0,0.992-0.48,1.488-1.44,1.488h-10.128c-0.448,0-0.761,0.12-0.936,0.36
		c-0.177,0.239-0.265,0.712-0.265,1.416c0,1.535,0.336,2.936,1.008,4.199c0.673,1.265,1.568,2.272,2.688,3.024
		s2.352,1.128,3.696,1.128c0.96,0,1.831-0.184,2.615-0.552s1.48-0.904,2.089-1.608c0.127-0.159,0.223-0.264,0.288-0.312
		c0.063-0.048,0.144-0.072,0.239-0.072c0.256,0,0.384,0.16,0.384,0.479c0,0.608-0.287,1.28-0.863,2.017
		c-0.48,0.608-1.057,1.136-1.729,1.584s-1.408,0.792-2.208,1.032C322.802,256.199,321.97,256.319,321.105,256.319z M316.689,241.775
		h4.368c0.769,0,1.424-0.016,1.968-0.048c0.544-0.031,1.072-0.096,1.584-0.192c0.16-0.031,0.265-0.136,0.313-0.312
		s0.072-0.424,0.072-0.744c0-0.928-0.408-1.72-1.225-2.376c-0.815-0.655-1.784-0.984-2.903-0.984c-0.737,0-1.473,0.217-2.208,0.648
		c-0.737,0.432-1.345,0.969-1.824,1.608c-0.48,0.64-0.72,1.28-0.72,1.92C316.114,241.616,316.306,241.775,316.689,241.775z"/>
	<path fill="#083E00" d="M143.411,328.271c-0.992,0-1.92-0.152-2.784-0.456c-0.864-0.304-1.601-0.728-2.208-1.271
		c-0.161-0.353-0.28-0.943-0.36-1.776c-0.08-0.832-0.137-1.52-0.168-2.064c0-0.287,0.208-0.432,0.624-0.432
		c0.127,0,0.248,0.024,0.36,0.072c0.112,0.048,0.184,0.137,0.216,0.264c0.416,1.568,1.08,2.688,1.992,3.36s1.832,1.008,2.76,1.008
		c0.928,0,1.72-0.312,2.376-0.936c0.655-0.624,0.983-1.4,0.983-2.328c0-0.864-0.288-1.608-0.863-2.232
		c-0.576-0.624-1.584-1.384-3.024-2.28c-1.088-0.672-1.968-1.312-2.64-1.92c-0.672-0.607-1.16-1.231-1.464-1.872
		c-0.304-0.64-0.456-1.359-0.456-2.159c0-1.024,0.24-1.952,0.72-2.784s1.2-1.496,2.16-1.992c0.96-0.496,2.16-0.744,3.6-0.744
		c0.96,0,1.76,0.096,2.4,0.288c0.64,0.192,1.119,0.4,1.439,0.624c0.256,0.353,0.472,0.904,0.648,1.656
		c0.176,0.752,0.264,1.464,0.264,2.136c0,0.225-0.16,0.336-0.479,0.336c-0.192,0-0.377-0.04-0.553-0.12
		c-0.176-0.079-0.296-0.184-0.359-0.312c-0.416-1.057-0.937-1.864-1.561-2.425c-0.624-0.559-1.399-0.84-2.328-0.84
		c-0.8,0-1.512,0.24-2.136,0.721c-0.624,0.479-0.936,1.184-0.936,2.111c0,0.736,0.231,1.393,0.696,1.969
		c0.463,0.575,1.336,1.231,2.616,1.968c1.855,1.056,3.24,2.04,4.152,2.952c0.912,0.911,1.368,2.12,1.368,3.624
		c0,1.728-0.656,3.136-1.969,4.224S145.49,328.271,143.411,328.271z"/>
	<path fill="#083E00" d="M163.234,328.271c-1.793,0-3.408-0.416-4.849-1.248c-1.439-0.832-2.584-1.976-3.432-3.432
		c-0.849-1.456-1.272-3.112-1.272-4.968c0-1.345,0.265-2.656,0.792-3.937c0.528-1.279,1.272-2.448,2.232-3.504s2.08-1.896,3.36-2.52
		c1.279-0.624,2.655-0.937,4.128-0.937c1.855,0,3.527,0.448,5.016,1.344c1.488,0.896,2.672,2.072,3.552,3.528s1.32,3.048,1.32,4.776
		c0,1.855-0.408,3.616-1.224,5.279c-0.816,1.665-2.024,3.017-3.624,4.057C167.634,327.751,165.634,328.271,163.234,328.271z
		 M164.242,326.832c1.087,0,2.063-0.208,2.928-0.624s1.536-1.088,2.016-2.017c0.385-0.735,0.641-1.632,0.769-2.688
		c0.127-1.057,0.191-2.048,0.191-2.977c0-1.536-0.28-3.016-0.84-4.439s-1.344-2.592-2.352-3.504s-2.2-1.368-3.576-1.368
		c-0.864,0-1.641,0.137-2.328,0.408c-0.688,0.271-1.32,0.775-1.896,1.512c-0.641,0.8-1.057,1.775-1.248,2.928
		c-0.192,1.152-0.288,2.304-0.288,3.456c0,1.568,0.288,3.064,0.864,4.488c0.575,1.424,1.359,2.584,2.352,3.479
		C161.825,326.384,162.962,326.832,164.242,326.832z"/>
	<path fill="#083E00" d="M177.874,327.743c-0.257,0-0.48-0.032-0.672-0.096c-0.192-0.063-0.288-0.208-0.288-0.432
		s0.104-0.384,0.312-0.48c0.208-0.096,0.472-0.191,0.792-0.288c0.448-0.159,0.904-0.343,1.368-0.552
		c0.464-0.208,0.696-0.632,0.696-1.271v-10.32c0-0.864-0.097-1.624-0.288-2.28c-0.192-0.655-0.704-1.048-1.536-1.176
		c-0.128-0.031-0.232-0.096-0.313-0.192c-0.08-0.096-0.119-0.239-0.119-0.432c0-0.319,0.127-0.512,0.384-0.576
		c0.863-0.224,1.552-0.456,2.063-0.696c0.512-0.239,0.968-0.511,1.368-0.815c0.399-0.304,0.888-0.632,1.464-0.984
		c0.064-0.031,0.128-0.071,0.192-0.12c0.063-0.048,0.144-0.071,0.24-0.071c0.191,0,0.288,0.112,0.288,0.336s-0.041,0.68-0.12,1.368
		c-0.081,0.688-0.12,1.256-0.12,1.703c0,0.32,0.031,0.513,0.096,0.576h0.096c0.736-0.703,1.704-1.416,2.904-2.136
		s2.728-1.08,4.584-1.08c1.152,0,2.112,0.248,2.88,0.744c0.769,0.496,1.408,1.353,1.92,2.568h0.145
		c1.023-0.928,2.191-1.712,3.504-2.353c1.312-0.64,2.752-0.96,4.32-0.96c1.056,0,1.936,0.32,2.64,0.96
		c0.703,0.641,1.239,1.473,1.607,2.496c0.368,1.024,0.553,2.097,0.553,3.216v10.225c0,0.64,0.224,1.063,0.672,1.271
		c0.447,0.209,0.912,0.393,1.392,0.552c0.319,0.097,0.584,0.192,0.792,0.288c0.208,0.097,0.313,0.257,0.313,0.48
		c0,0.191-0.072,0.328-0.216,0.408c-0.145,0.079-0.393,0.119-0.744,0.119c-0.641,0-1.137-0.023-1.488-0.071
		c-0.353-0.048-0.681-0.088-0.984-0.12c-0.304-0.031-0.743-0.048-1.319-0.048c-0.545,0-0.992,0.017-1.345,0.048
		c-0.353,0.032-0.72,0.072-1.104,0.12s-0.896,0.071-1.536,0.071c-0.288,0-0.521-0.04-0.696-0.119
		c-0.176-0.08-0.264-0.217-0.264-0.408c0-0.256,0.104-0.433,0.313-0.528c0.207-0.096,0.472-0.176,0.792-0.24
		c0.511-0.127,0.983-0.304,1.416-0.527c0.432-0.224,0.647-0.656,0.647-1.296v-10.08c0-0.769-0.176-1.496-0.528-2.185
		c-0.353-0.688-0.815-1.255-1.392-1.704c-0.576-0.447-1.217-0.672-1.92-0.672c-0.801,0-1.544,0.097-2.232,0.288
		c-0.688,0.192-1.336,0.528-1.943,1.008c-0.896,0.704-1.345,1.856-1.345,3.456v9.889c0,0.64,0.24,1.072,0.721,1.296
		c0.479,0.224,0.96,0.4,1.439,0.527c0.319,0.064,0.584,0.152,0.792,0.265s0.313,0.28,0.313,0.504c0,0.191-0.08,0.328-0.24,0.408
		c-0.16,0.079-0.4,0.119-0.72,0.119c-0.641,0-1.145-0.023-1.513-0.071s-0.72-0.088-1.056-0.12c-0.336-0.031-0.792-0.048-1.368-0.048
		c-0.544,0-0.992,0.017-1.344,0.048c-0.353,0.032-0.72,0.072-1.104,0.12c-0.385,0.048-0.896,0.071-1.536,0.071
		c-0.257,0-0.48-0.04-0.672-0.119c-0.192-0.08-0.288-0.217-0.288-0.408c0-0.256,0.12-0.424,0.359-0.504
		c0.24-0.08,0.487-0.168,0.744-0.265c0.48-0.159,0.952-0.343,1.416-0.552c0.464-0.208,0.696-0.632,0.696-1.271v-10.08
		c0-0.769-0.177-1.496-0.528-2.185c-0.353-0.688-0.815-1.255-1.392-1.704c-0.576-0.447-1.217-0.672-1.92-0.672
		c-0.801,0-1.545,0.097-2.232,0.288c-0.688,0.192-1.336,0.528-1.944,1.008c-0.863,0.641-1.296,1.793-1.296,3.456v9.889
		c0,0.64,0.224,1.063,0.672,1.271c0.448,0.209,0.912,0.393,1.393,0.552c0.256,0.097,0.504,0.185,0.744,0.265
		c0.239,0.08,0.359,0.248,0.359,0.504c0,0.191-0.088,0.328-0.264,0.408c-0.176,0.079-0.408,0.119-0.696,0.119
		c-0.641,0-1.145-0.023-1.512-0.071c-0.368-0.048-0.713-0.088-1.032-0.12c-0.32-0.031-0.768-0.048-1.344-0.048
		c-0.545,0-0.984,0.017-1.32,0.048c-0.336,0.032-0.688,0.072-1.056,0.12C179.018,327.719,178.514,327.743,177.874,327.743z"/>
	<path fill="#083E00" d="M223.329,328.319c-1.76,0-3.296-0.432-4.607-1.296c-1.313-0.864-2.337-2.088-3.072-3.672
		c-0.736-1.584-1.104-3.415-1.104-5.496c0-1.855,0.423-3.544,1.271-5.063c0.848-1.52,1.976-2.744,3.384-3.673
		c1.408-0.928,2.944-1.392,4.608-1.392c1.279,0,2.416,0.257,3.408,0.769c0.991,0.512,1.768,1.224,2.328,2.136
		c0.559,0.912,0.84,1.96,0.84,3.144c0,0.992-0.48,1.488-1.44,1.488h-10.128c-0.448,0-0.761,0.12-0.936,0.36
		c-0.177,0.239-0.265,0.712-0.265,1.416c0,1.535,0.336,2.936,1.008,4.199c0.673,1.265,1.568,2.272,2.688,3.024
		s2.352,1.128,3.696,1.128c0.96,0,1.831-0.184,2.615-0.552s1.48-0.904,2.089-1.608c0.127-0.159,0.223-0.264,0.288-0.312
		c0.063-0.048,0.144-0.072,0.239-0.072c0.256,0,0.384,0.16,0.384,0.479c0,0.608-0.287,1.28-0.863,2.017
		c-0.48,0.608-1.057,1.136-1.729,1.584s-1.408,0.792-2.208,1.032C225.025,328.199,224.193,328.319,223.329,328.319z
		 M218.913,313.775h4.368c0.769,0,1.424-0.016,1.968-0.048c0.544-0.031,1.072-0.096,1.584-0.192c0.16-0.031,0.265-0.136,0.313-0.312
		s0.072-0.424,0.072-0.744c0-0.928-0.408-1.72-1.225-2.376c-0.815-0.655-1.784-0.984-2.903-0.984c-0.737,0-1.473,0.217-2.208,0.648
		c-0.737,0.432-1.345,0.969-1.824,1.608c-0.48,0.64-0.72,1.28-0.72,1.92C218.338,313.616,218.529,313.775,218.913,313.775z"/>
	<path fill="#083E00" d="M240.897,328.271c-1.568,0-2.793-0.479-3.672-1.439c-0.881-0.96-1.32-2.384-1.32-4.272v-11.136
		c0-0.256-0.096-0.439-0.288-0.552s-0.608-0.169-1.248-0.169h-0.288c-0.16,0-0.296-0.103-0.408-0.312
		c-0.112-0.208-0.168-0.424-0.168-0.648c0-0.063,0.048-0.159,0.145-0.287c0.096-0.128,0.159-0.208,0.191-0.24
		c0.64-0.448,1.225-0.896,1.752-1.344c0.528-0.448,1.009-0.889,1.44-1.32c0.432-0.433,0.792-0.823,1.08-1.176
		c0.159-0.16,0.296-0.296,0.408-0.408c0.111-0.112,0.247-0.168,0.407-0.168s0.313,0.032,0.456,0.096
		c0.145,0.064,0.2,0.209,0.168,0.432l-0.239,2.16c-0.032,0.353,0.048,0.593,0.239,0.721c0.192,0.128,0.496,0.191,0.912,0.191h5.473
		c0.127,0,0.239,0.104,0.336,0.313c0.096,0.208,0.144,0.456,0.144,0.744c0,0.287-0.048,0.568-0.144,0.84
		c-0.097,0.271-0.209,0.407-0.336,0.407h-4.752c-0.801,0-1.32,0.065-1.561,0.192c-0.24,0.128-0.359,0.513-0.359,1.152v9.456
		c0,1.28,0.271,2.288,0.815,3.023c0.544,0.736,1.328,1.104,2.353,1.104c0.928,0,1.647-0.072,2.159-0.216
		c0.512-0.145,0.977-0.36,1.393-0.648c0.063-0.063,0.127-0.096,0.191-0.096c0.128,0,0.217,0.071,0.265,0.216
		c0.048,0.144,0.072,0.296,0.072,0.456s-0.265,0.479-0.792,0.96c-0.528,0.479-1.217,0.929-2.064,1.344
		C242.809,328.063,241.889,328.271,240.897,328.271z"/>
	<path fill="#083E00" d="M248.769,327.743c-0.641,0-0.96-0.175-0.96-0.527c0-0.288,0.367-0.544,1.104-0.769
		c0.48-0.159,0.937-0.367,1.368-0.624c0.433-0.256,0.664-0.703,0.696-1.344v-24.048c0-0.864-0.145-1.624-0.432-2.28
		c-0.288-0.655-0.849-1.048-1.681-1.176c-0.288-0.063-0.432-0.288-0.432-0.672c0-0.288,0.127-0.48,0.384-0.576
		c0.448-0.16,0.984-0.336,1.608-0.528c0.624-0.191,1.271-0.407,1.943-0.647s1.264-0.472,1.776-0.696
		c0.128-0.063,0.224-0.096,0.288-0.096c0.096,0,0.176,0.032,0.24,0.096c0.063,0.064,0.096,0.145,0.096,0.24
		c0,0.192-0.041,0.464-0.12,0.815c-0.08,0.353-0.152,0.961-0.216,1.824c-0.064,0.864-0.096,2.16-0.096,3.889v8.352
		c0,0.513,0.023,0.881,0.071,1.104s0.136,0.448,0.265,0.672c0.511-0.385,1.144-0.808,1.896-1.272
		c0.752-0.464,1.592-0.871,2.521-1.224c0.928-0.352,1.888-0.528,2.88-0.528c1.567,0,2.871,0.616,3.912,1.848
		c1.039,1.232,1.56,2.793,1.56,4.681v10.08c0,0.641,0.208,1.112,0.624,1.416s0.864,0.536,1.344,0.695
		c0.352,0.097,0.624,0.2,0.816,0.313c0.191,0.112,0.288,0.264,0.288,0.456c0,0.353-0.32,0.527-0.96,0.527
		c-0.641,0-1.128-0.023-1.464-0.071s-0.656-0.088-0.96-0.12c-0.305-0.031-0.744-0.048-1.32-0.048c-0.545,0-0.977,0.017-1.296,0.048
		c-0.32,0.032-0.648,0.072-0.984,0.12s-0.824,0.071-1.464,0.071c-0.641,0-0.96-0.175-0.96-0.527c0-0.224,0.096-0.376,0.288-0.456
		s0.464-0.184,0.815-0.313c0.48-0.159,0.912-0.392,1.297-0.695c0.384-0.304,0.575-0.775,0.575-1.416v-9.792
		c0-0.8-0.232-1.528-0.695-2.185c-0.465-0.655-1.032-1.176-1.704-1.56s-1.36-0.576-2.064-0.576c-0.608,0-1.313,0.089-2.111,0.264
		c-0.801,0.177-1.425,0.44-1.872,0.792c-0.513,0.417-0.856,0.849-1.032,1.296c-0.177,0.449-0.264,1.169-0.264,2.16v9.744
		c0.031,0.641,0.231,1.088,0.6,1.344c0.367,0.257,0.792,0.465,1.271,0.624c0.353,0.097,0.616,0.2,0.792,0.313
		s0.265,0.264,0.265,0.456c0,0.353-0.32,0.527-0.96,0.527c-0.641,0-1.121-0.023-1.44-0.071c-0.32-0.048-0.624-0.088-0.912-0.12
		c-0.288-0.031-0.72-0.048-1.296-0.048c-0.544,0-0.983,0.017-1.319,0.048c-0.337,0.032-0.688,0.072-1.057,0.12
		S249.408,327.743,248.769,327.743z"/>
	<path fill="#083E00" d="M273.729,327.743c-0.288,0-0.521-0.04-0.696-0.119c-0.176-0.08-0.264-0.217-0.264-0.408
		c0-0.256,0.12-0.433,0.359-0.528c0.24-0.096,0.487-0.176,0.744-0.24c0.672-0.159,1.184-0.359,1.536-0.6
		c0.352-0.24,0.528-0.648,0.528-1.224v-10.416c0-0.864-0.152-1.633-0.456-2.305c-0.305-0.672-0.872-1.071-1.704-1.2
		c-0.161-0.031-0.28-0.096-0.36-0.191s-0.12-0.24-0.12-0.432c0-0.353,0.145-0.544,0.433-0.576c1.279-0.288,2.335-0.68,3.168-1.177
		c0.831-0.495,1.455-0.903,1.872-1.224c0.288-0.224,0.511-0.336,0.672-0.336c0.191,0,0.288,0.08,0.288,0.24
		c0,0.256-0.041,0.761-0.12,1.512c-0.08,0.752-0.152,1.584-0.216,2.496c-0.064,0.912-0.097,1.736-0.097,2.472v11.137
		c0,0.544,0.184,0.943,0.553,1.199c0.367,0.257,0.871,0.465,1.512,0.624c0.256,0.064,0.504,0.145,0.744,0.24
		c0.239,0.096,0.359,0.272,0.359,0.528c0,0.353-0.32,0.527-0.96,0.527c-0.608,0-1.097-0.023-1.464-0.071
		c-0.368-0.048-0.72-0.088-1.056-0.12c-0.336-0.031-0.792-0.048-1.368-0.048c-0.545,0-0.992,0.017-1.344,0.048
		c-0.353,0.032-0.704,0.072-1.057,0.12S274.368,327.743,273.729,327.743z M277.568,302.832c-0.672,0-1.24-0.232-1.704-0.696
		s-0.696-1.032-0.696-1.704c0-0.703,0.232-1.288,0.696-1.752s1.032-0.696,1.704-0.696c0.703,0,1.288,0.232,1.752,0.696
		s0.696,1.049,0.696,1.752c0,0.672-0.232,1.24-0.696,1.704S278.271,302.832,277.568,302.832z"/>
	<path fill="#083E00" d="M285.488,327.743c-0.288,0-0.521-0.04-0.696-0.119c-0.176-0.08-0.264-0.217-0.264-0.408
		c0-0.256,0.096-0.424,0.288-0.504c0.191-0.08,0.463-0.168,0.815-0.265c0.48-0.127,0.943-0.304,1.393-0.527
		c0.447-0.224,0.672-0.656,0.672-1.296v-10.32c0-0.864-0.089-1.6-0.265-2.208c-0.176-0.607-0.68-1.023-1.512-1.248
		c-0.128-0.063-0.24-0.136-0.336-0.216s-0.144-0.216-0.144-0.408c0-0.352,0.144-0.544,0.432-0.576
		c1.12-0.288,2.031-0.64,2.736-1.056c0.703-0.416,1.392-0.88,2.063-1.393c0.096-0.063,0.184-0.119,0.264-0.168
		c0.08-0.048,0.168-0.071,0.265-0.071c0.063,0,0.12,0.032,0.168,0.096c0.048,0.064,0.072,0.144,0.072,0.24
		c0,0.224-0.041,0.68-0.12,1.368c-0.081,0.688-0.12,1.256-0.12,1.703c0,0.129,0.007,0.249,0.023,0.36
		c0.016,0.112,0.04,0.185,0.072,0.216c1.12-1.056,2.312-1.855,3.576-2.399c1.264-0.544,2.647-0.816,4.152-0.816
		c1.567,0,2.863,0.641,3.888,1.92c1.023,1.28,1.536,2.864,1.536,4.752v10.225c0,0.64,0.224,1.063,0.672,1.271
		c0.447,0.209,0.912,0.393,1.392,0.552c0.256,0.097,0.504,0.2,0.744,0.313s0.36,0.296,0.36,0.552c0,0.192-0.112,0.313-0.336,0.36
		c-0.225,0.048-0.433,0.071-0.624,0.071c-0.641,0-1.137-0.023-1.488-0.071c-0.353-0.048-0.688-0.088-1.008-0.12
		c-0.32-0.031-0.769-0.048-1.344-0.048c-0.545,0-0.993,0.017-1.345,0.048c-0.353,0.032-0.712,0.072-1.08,0.12
		s-0.872,0.071-1.512,0.071c-0.16,0-0.36-0.023-0.6-0.071c-0.24-0.048-0.36-0.168-0.36-0.36c0-0.256,0.12-0.439,0.36-0.552
		c0.239-0.112,0.487-0.216,0.744-0.313c0.479-0.159,0.943-0.343,1.392-0.552c0.447-0.208,0.672-0.632,0.672-1.271v-10.08
		c0-1.408-0.393-2.504-1.176-3.288c-0.784-0.784-1.832-1.192-3.145-1.225c-1.151,0-2.159,0.185-3.023,0.553
		s-1.632,0.824-2.304,1.367c-0.129,0.129-0.225,0.297-0.288,0.505c-0.064,0.208-0.097,0.407-0.097,0.6v11.568
		c0,0.64,0.224,1.072,0.672,1.296s0.912,0.4,1.393,0.527c0.735,0.192,1.104,0.449,1.104,0.769c0,0.191-0.08,0.328-0.239,0.408
		c-0.161,0.079-0.401,0.119-0.721,0.119c-0.641,0-1.145-0.023-1.512-0.071c-0.368-0.048-0.713-0.088-1.032-0.12
		c-0.32-0.031-0.768-0.048-1.344-0.048c-0.545,0-0.984,0.017-1.32,0.048c-0.336,0.032-0.688,0.072-1.056,0.12
		C286.632,327.719,286.128,327.743,285.488,327.743z"/>
	<path fill="#083E00" d="M318.08,341.519c-2.721,0-4.872-0.521-6.456-1.56c-1.584-1.041-2.376-2.44-2.376-4.2
		c0-0.833,0.127-1.536,0.384-2.112c0.256-0.576,0.655-1.072,1.2-1.488c0.447-0.384,1.048-0.872,1.8-1.464
		c0.751-0.592,1.527-1.208,2.328-1.848l2.016,0.096c-1.536,0.992-2.608,1.936-3.216,2.832c-0.608,0.896-0.912,1.984-0.912,3.265
		c0,1.279,0.567,2.359,1.704,3.239c1.136,0.88,2.536,1.32,4.2,1.32c1.888,0,3.408-0.432,4.56-1.296c0.8-0.608,1.424-1.4,1.872-2.376
		c0.448-0.977,0.672-2.009,0.672-3.096c0-0.705-0.248-1.289-0.744-1.752c-0.496-0.465-1.271-0.841-2.327-1.129
		c-1.057-0.287-2.433-0.479-4.129-0.575c-3.008-0.225-5.096-0.624-6.264-1.2s-1.752-1.472-1.752-2.688
		c0-0.319,0.088-0.615,0.264-0.888c0.176-0.271,0.456-0.567,0.841-0.888c0.735-0.576,1.279-1,1.632-1.272
		c0.352-0.271,0.615-0.504,0.792-0.696c0.175-0.191,0.343-0.432,0.504-0.72l1.632,0.816c-0.704,0.256-1.296,0.6-1.776,1.032
		c-0.479,0.432-0.72,0.824-0.72,1.176c0,0.448,0.24,0.84,0.72,1.176c0.48,0.336,1.184,0.6,2.112,0.792
		c0.928,0.192,2.064,0.336,3.408,0.432c2.943,0.161,5.136,0.641,6.576,1.44c1.439,0.8,2.16,1.936,2.16,3.408
		c0,1.248-0.313,2.472-0.937,3.672s-1.448,2.296-2.472,3.288c-1.024,0.991-2.169,1.783-3.433,2.376
		C320.68,341.223,319.392,341.519,318.08,341.519z M318.368,322.511c-1.313,0-2.561-0.336-3.744-1.008
		c-1.185-0.672-2.152-1.561-2.904-2.664c-0.752-1.104-1.128-2.312-1.128-3.624c0-1.504,0.392-2.824,1.176-3.96
		s1.815-2.023,3.096-2.664c1.28-0.64,2.641-0.96,4.08-0.96c0.928,0,1.736,0.12,2.425,0.359c0.688,0.24,1.367,0.456,2.04,0.648
		c0.768,0.225,1.375,0.36,1.823,0.408s0.912,0.071,1.393,0.071c0.384,0,0.863-0.023,1.439-0.071s0.976-0.072,1.2-0.072
		c0.416,0,0.624,0.24,0.624,0.72c0,0.288-0.16,0.593-0.479,0.912c-0.161,0.161-0.288,0.24-0.385,0.24h-1.296
		c-0.864,0-1.344,0.128-1.439,0.384c-0.032,0.128-0.072,0.313-0.12,0.552c-0.048,0.24-0.089,0.505-0.12,0.792
		c-0.032,0.288-0.048,0.576-0.048,0.864c0,1.632-0.353,3.137-1.057,4.512c-0.704,1.377-1.632,2.48-2.783,3.313
		C321.008,322.095,319.743,322.511,318.368,322.511z M318.655,320.832c1.216,0,2.225-0.616,3.024-1.849
		c0.8-1.231,1.2-2.76,1.2-4.584c0-0.928-0.216-1.8-0.648-2.616c-0.432-0.815-0.992-1.471-1.68-1.968
		c-0.688-0.495-1.433-0.744-2.232-0.744c-0.736,0-1.432,0.265-2.088,0.792c-0.656,0.528-1.184,1.209-1.584,2.04
		c-0.4,0.833-0.6,1.745-0.6,2.736c0,1.12,0.208,2.152,0.624,3.096c0.415,0.944,0.976,1.696,1.68,2.256
		C317.056,320.552,317.823,320.832,318.655,320.832z"/>
</g>
</svg>
