<?xml version="1.0" encoding="utf-8"?>
<!-- Generator: Adobe Illustrator 14.0.0, SVG Export Plug-In . SVG Version: 6.00 Build 43363)  -->
<!DOCTYPE svg PUBLIC "-//W3C//DTD SVG 1.1//EN" "http://www.w3.org/Graphics/SVG/1.1/DTD/svg11.dtd">
<svg version="1.1" id="レイヤー_3" xmlns="http://www.w3.org/2000/svg" xmlns:xlink="http://www.w3.org/1999/xlink" x="0px"
	 y="0px" width="277.293px" height="263.76px" viewBox="11.228 5.76 277.293 263.76"
	 enable-background="new 11.228 5.76 277.293 263.76" xml:space="preserve">
<g>
	<path fill="#083E00" d="M81.741,40.368c-0.064,0-0.161-0.144-0.288-0.432c-0.128-0.288-0.256-0.592-0.384-0.912L70.701,13.008
		c-0.384-0.832-0.848-1.512-1.392-2.04c-0.544-0.528-1.232-0.904-2.064-1.128c-0.512-0.16-0.904-0.32-1.176-0.48
		c-0.272-0.16-0.408-0.352-0.408-0.576c0-0.192,0.127-0.328,0.384-0.408c0.256-0.08,0.592-0.12,1.008-0.12
		c0.736,0,1.432,0.024,2.088,0.072C69.797,8.376,70.525,8.4,71.325,8.4c0.896,0,1.744-0.016,2.544-0.048
		c0.799-0.031,1.44-0.048,1.92-0.048c0.416,0,0.751,0.041,1.008,0.12c0.255,0.08,0.384,0.216,0.384,0.408
		c0,0.224-0.128,0.4-0.384,0.528c-0.257,0.128-0.656,0.272-1.2,0.432c-0.384,0.096-0.641,0.296-0.768,0.6
		c-0.128,0.305-0.192,0.632-0.192,0.984c0,0.512,0.127,1.2,0.384,2.064c0.736,1.856,1.408,3.552,2.016,5.088
		c0.607,1.536,1.208,3.016,1.8,4.44c0.592,1.424,1.216,2.88,1.872,4.368c0.656,1.488,1.384,3.144,2.184,4.968
		c0.16,0.353,0.295,0.512,0.408,0.48c0.112-0.032,0.216-0.176,0.312-0.432l3.744-9.264c0.096-0.255,0.168-0.472,0.216-0.648
		c0.048-0.175,0.072-0.328,0.072-0.456c0-0.192-0.032-0.391-0.096-0.6c-0.064-0.208-0.161-0.472-0.288-0.792l-2.736-6.816
		c-0.416-1.023-1.072-1.879-1.968-2.568c-0.896-0.688-1.76-1.144-2.592-1.368c-0.512-0.16-0.905-0.32-1.176-0.48
		c-0.272-0.16-0.408-0.352-0.408-0.576c0-0.192,0.127-0.328,0.384-0.408c0.256-0.08,0.592-0.12,1.008-0.12
		c0.512,0,1,0.017,1.464,0.048c0.463,0.032,0.943,0.056,1.44,0.072C83.173,8.392,83.709,8.4,84.285,8.4
		c0.736,0,1.416-0.016,2.04-0.048c0.624-0.031,1.176-0.048,1.656-0.048c0.416,0,0.751,0.041,1.008,0.12
		c0.256,0.08,0.384,0.216,0.384,0.408c0,0.256-0.161,0.464-0.48,0.624c-0.32,0.161-0.648,0.336-0.984,0.528
		c-0.336,0.192-0.504,0.48-0.504,0.864c0,0.064,0.007,0.128,0.024,0.192c0.016,0.064,0.04,0.128,0.072,0.192
		c0.064,0.128,0.184,0.44,0.36,0.936c0.175,0.497,0.384,1.049,0.624,1.656c0.24,0.608,0.472,1.176,0.696,1.704
		c0.224,0.528,0.384,0.904,0.48,1.128c0.16,0.384,0.295,0.584,0.408,0.6c0.111,0.017,0.264-0.184,0.456-0.6
		c0.256-0.576,0.52-1.231,0.792-1.968c0.272-0.736,0.512-1.432,0.72-2.088c0.208-0.655,0.344-1.111,0.408-1.368
		c0.031-0.096,0.048-0.208,0.048-0.336c0-0.384-0.144-0.672-0.432-0.864s-0.584-0.376-0.888-0.552
		c-0.305-0.175-0.456-0.392-0.456-0.648c0-0.192,0.127-0.328,0.384-0.408c0.256-0.08,0.592-0.12,1.008-0.12
		c0.703,0,1.183,0.017,1.44,0.048C93.805,8.384,94.157,8.4,94.605,8.4c0.544,0,1.008-0.024,1.392-0.072
		c0.384-0.048,0.864-0.072,1.44-0.072c0.416,0,0.751,0.041,1.008,0.12c0.255,0.081,0.384,0.216,0.384,0.408
		c0,0.224-0.128,0.408-0.384,0.552c-0.257,0.144-0.656,0.281-1.2,0.408c-1.024,0.224-1.721,0.497-2.088,0.816
		c-0.368,0.32-0.761,0.816-1.176,1.488c-0.16,0.288-0.392,0.768-0.696,1.44c-0.305,0.672-0.624,1.408-0.96,2.208
		c-0.336,0.8-0.632,1.552-0.888,2.256c-0.096,0.224-0.185,0.544-0.264,0.96c-0.081,0.416-0.089,0.704-0.024,0.864l4.944,12.72
		c0.063,0.161,0.144,0.208,0.24,0.144c0.096-0.064,0.192-0.208,0.288-0.432c0.799-2.112,1.704-4.815,2.712-8.112
		c1.008-3.295,2.056-6.784,3.144-10.464c0.096-0.288,0.168-0.583,0.216-0.888c0.048-0.304,0.072-0.583,0.072-0.84
		c0-0.48-0.104-0.912-0.312-1.296c-0.208-0.384-0.584-0.64-1.128-0.768c-0.32-0.096-0.665-0.224-1.032-0.384
		c-0.368-0.16-0.552-0.352-0.552-0.576c0-0.192,0.127-0.328,0.384-0.408c0.256-0.08,0.592-0.12,1.008-0.12
		c0.64,0,1.224,0.008,1.752,0.024c0.528,0.017,1.096,0.024,1.704,0.024c0.799,0,1.567-0.024,2.304-0.072
		c0.736-0.048,1.408-0.072,2.016-0.072c0.416,0,0.751,0.041,1.008,0.12c0.256,0.081,0.384,0.216,0.384,0.408
		c0,0.224-0.128,0.408-0.384,0.552c-0.256,0.144-0.656,0.281-1.2,0.408c-0.768,0.161-1.416,0.488-1.944,0.984
		c-0.528,0.497-0.944,1.041-1.248,1.632c-0.304,0.593-0.552,1.128-0.744,1.608l-8.496,25.104c-0.032,0.128-0.128,0.344-0.288,0.648
		c-0.161,0.304-0.32,0.456-0.48,0.456c-0.128,0-0.272-0.096-0.432-0.288s-0.288-0.4-0.384-0.624c-0.833-1.92-1.553-3.64-2.16-5.16
		c-0.608-1.52-1.192-3.048-1.752-4.584c-0.56-1.536-1.224-3.231-1.992-5.088c-0.096-0.224-0.176-0.312-0.24-0.264
		c-0.064,0.048-0.161,0.232-0.288,0.552c-0.768,1.824-1.433,3.44-1.992,4.848c-0.561,1.409-1.112,2.84-1.656,4.296
		c-0.544,1.457-1.152,3.128-1.824,5.016c-0.128,0.32-0.288,0.648-0.48,0.984C82.125,40.2,81.933,40.368,81.741,40.368z"/>
	<path fill="#083E00" d="M111.501,39.744c-0.641,0-0.96-0.176-0.96-0.528c0-0.288,0.367-0.544,1.104-0.768
		c0.48-0.16,0.936-0.368,1.368-0.624c0.432-0.256,0.664-0.704,0.696-1.344V12.432c0-0.864-0.144-1.624-0.432-2.28
		c-0.288-0.655-0.848-1.047-1.68-1.176c-0.288-0.064-0.432-0.288-0.432-0.672c0-0.288,0.127-0.48,0.384-0.576
		c0.448-0.16,0.984-0.336,1.608-0.528s1.272-0.408,1.944-0.648c0.672-0.24,1.264-0.472,1.776-0.696
		c0.127-0.063,0.224-0.096,0.288-0.096c0.096,0,0.175,0.032,0.24,0.096c0.064,0.064,0.096,0.144,0.096,0.24
		c0,0.192-0.041,0.464-0.12,0.816c-0.08,0.353-0.152,0.96-0.216,1.824c-0.064,0.864-0.096,2.16-0.096,3.888v8.352
		c0,0.512,0.024,0.88,0.072,1.104c0.048,0.224,0.136,0.449,0.264,0.672c0.512-0.384,1.144-0.808,1.896-1.272
		c0.751-0.463,1.592-0.872,2.52-1.224c0.928-0.352,1.888-0.528,2.88-0.528c1.568,0,2.872,0.617,3.912,1.848
		c1.04,1.232,1.56,2.792,1.56,4.68v10.08c0,0.641,0.208,1.112,0.624,1.416c0.416,0.305,0.864,0.537,1.344,0.696
		c0.352,0.096,0.624,0.2,0.816,0.312c0.192,0.112,0.288,0.264,0.288,0.456c0,0.352-0.32,0.528-0.96,0.528s-1.128-0.024-1.464-0.072
		c-0.336-0.048-0.656-0.087-0.96-0.12c-0.304-0.032-0.744-0.048-1.32-0.048c-0.544,0-0.977,0.017-1.296,0.048
		c-0.32,0.032-0.648,0.072-0.984,0.12c-0.336,0.048-0.824,0.072-1.464,0.072c-0.641,0-0.96-0.176-0.96-0.528
		c0-0.224,0.096-0.376,0.288-0.456c0.192-0.08,0.463-0.184,0.816-0.312c0.48-0.16,0.912-0.392,1.296-0.696
		c0.384-0.304,0.576-0.775,0.576-1.416v-9.792c0-0.799-0.232-1.528-0.696-2.184c-0.464-0.655-1.032-1.176-1.704-1.56
		c-0.672-0.384-1.361-0.576-2.064-0.576c-0.608,0-1.313,0.088-2.112,0.264c-0.8,0.176-1.424,0.44-1.872,0.792
		c-0.512,0.416-0.856,0.848-1.032,1.296c-0.176,0.448-0.264,1.168-0.264,2.16v9.744c0.032,0.641,0.232,1.088,0.6,1.344
		c0.368,0.256,0.792,0.464,1.272,0.624c0.352,0.096,0.616,0.2,0.792,0.312c0.175,0.112,0.264,0.264,0.264,0.456
		c0,0.352-0.32,0.528-0.96,0.528c-0.641,0-1.121-0.024-1.44-0.072c-0.32-0.048-0.624-0.087-0.912-0.12
		c-0.288-0.032-0.72-0.048-1.296-0.048c-0.544,0-0.984,0.017-1.32,0.048c-0.336,0.032-0.688,0.072-1.056,0.12
		C112.644,39.72,112.14,39.744,111.501,39.744z"/>
	<path fill="#083E00" d="M136.46,39.744c-0.288,0-0.521-0.041-0.696-0.12c-0.176-0.08-0.264-0.216-0.264-0.408
		c0-0.256,0.12-0.432,0.36-0.528c0.24-0.096,0.487-0.175,0.744-0.24c0.672-0.16,1.184-0.36,1.536-0.6
		c0.352-0.24,0.528-0.648,0.528-1.224V26.208c0-0.864-0.152-1.632-0.456-2.304c-0.304-0.672-0.872-1.072-1.704-1.2
		c-0.161-0.032-0.281-0.096-0.36-0.192c-0.08-0.096-0.12-0.24-0.12-0.432c0-0.352,0.144-0.544,0.432-0.576
		c1.28-0.288,2.335-0.679,3.168-1.176c0.832-0.496,1.456-0.904,1.872-1.224c0.288-0.224,0.512-0.336,0.672-0.336
		c0.192,0,0.288,0.08,0.288,0.24c0,0.256-0.041,0.76-0.12,1.512c-0.081,0.752-0.152,1.584-0.216,2.496
		c-0.064,0.912-0.096,1.736-0.096,2.472v11.136c0,0.544,0.184,0.944,0.552,1.2c0.368,0.256,0.872,0.464,1.512,0.624
		c0.255,0.064,0.504,0.144,0.743,0.24c0.24,0.096,0.361,0.272,0.361,0.528c0,0.352-0.32,0.528-0.96,0.528
		c-0.608,0-1.097-0.024-1.464-0.072c-0.368-0.048-0.72-0.087-1.056-0.12c-0.336-0.032-0.792-0.048-1.368-0.048
		c-0.544,0-0.992,0.017-1.344,0.048c-0.352,0.032-0.704,0.072-1.056,0.12C137.596,39.72,137.1,39.744,136.46,39.744z
		 M140.301,14.832c-0.672,0-1.241-0.231-1.704-0.696c-0.464-0.464-0.696-1.032-0.696-1.704c0-0.704,0.232-1.288,0.696-1.752
		c0.463-0.463,1.032-0.696,1.704-0.696c0.703,0,1.288,0.233,1.752,0.696c0.463,0.464,0.696,1.048,0.696,1.752
		c0,0.672-0.232,1.24-0.696,1.704C141.588,14.6,141.004,14.832,140.301,14.832z"/>
	<path fill="#083E00" d="M147.98,39.744c-0.16,0-0.359-0.024-0.6-0.072c-0.24-0.048-0.36-0.168-0.36-0.36
		c0-0.256,0.12-0.439,0.36-0.552c0.24-0.112,0.486-0.216,0.744-0.312c0.479-0.16,0.943-0.344,1.392-0.552
		c0.448-0.208,0.672-0.631,0.672-1.272V12.432c0-0.928-0.168-1.704-0.504-2.328s-0.905-1.016-1.704-1.176
		c-0.256-0.064-0.385-0.271-0.385-0.624c0-0.32,0.112-0.512,0.337-0.576c0.831-0.192,1.552-0.392,2.159-0.6
		c0.607-0.208,1.177-0.423,1.705-0.648c0.527-0.223,1.047-0.432,1.56-0.624c0.128-0.063,0.224-0.096,0.288-0.096
		c0.063,0,0.119,0.041,0.168,0.12c0.048,0.081,0.072,0.152,0.072,0.216c0,0.288-0.057,0.904-0.168,1.848
		c-0.113,0.944-0.168,2.504-0.168,4.68v24c0,0.641,0.223,1.064,0.672,1.272c0.447,0.208,0.912,0.393,1.392,0.552
		c0.256,0.096,0.504,0.2,0.744,0.312c0.239,0.112,0.36,0.296,0.36,0.552c0,0.192-0.121,0.312-0.36,0.36
		c-0.24,0.048-0.44,0.072-0.601,0.072c-0.607,0-1.096-0.024-1.463-0.072c-0.369-0.048-0.721-0.087-1.057-0.12
		c-0.336-0.032-0.792-0.048-1.368-0.048c-0.544,0-0.992,0.017-1.344,0.048c-0.353,0.032-0.704,0.072-1.056,0.12
		C149.115,39.72,148.62,39.744,147.98,39.744z"/>
	<path fill="#083E00" d="M167.851,40.32c-1.76,0-3.296-0.432-4.607-1.296c-1.313-0.864-2.336-2.088-3.072-3.672
		s-1.104-3.416-1.104-5.496c0-1.855,0.424-3.543,1.271-5.064c0.848-1.52,1.976-2.743,3.385-3.672
		c1.407-0.928,2.943-1.392,4.607-1.392c1.279,0,2.416,0.256,3.408,0.768c0.991,0.512,1.768,1.224,2.328,2.136
		c0.559,0.912,0.84,1.96,0.84,3.144c0,0.993-0.48,1.488-1.44,1.488H163.34c-0.448,0-0.76,0.12-0.936,0.36
		c-0.177,0.24-0.264,0.712-0.264,1.416c0,1.536,0.336,2.937,1.008,4.2c0.672,1.264,1.566,2.272,2.688,3.024
		c1.12,0.752,2.352,1.128,3.696,1.128c0.96,0,1.831-0.184,2.615-0.552c0.784-0.368,1.48-0.904,2.089-1.608
		c0.127-0.16,0.223-0.264,0.288-0.312c0.063-0.048,0.144-0.072,0.239-0.072c0.256,0,0.384,0.161,0.384,0.48
		c0,0.608-0.287,1.28-0.863,2.016c-0.48,0.608-1.057,1.136-1.729,1.584c-0.672,0.448-1.408,0.792-2.208,1.032
		C169.548,40.2,168.716,40.32,167.851,40.32z M163.435,25.776h4.368c0.769,0,1.424-0.016,1.968-0.048
		c0.544-0.031,1.072-0.096,1.584-0.192c0.16-0.032,0.265-0.136,0.313-0.312c0.048-0.175,0.072-0.424,0.072-0.744
		c0-0.928-0.408-1.72-1.225-2.376c-0.815-0.655-1.784-0.984-2.903-0.984c-0.737,0-1.473,0.216-2.208,0.648
		c-0.736,0.432-1.344,0.968-1.824,1.608c-0.48,0.641-0.721,1.28-0.721,1.92C162.859,25.616,163.052,25.776,163.435,25.776z"/>
	<path fill="#083E00" d="M187.819,39.744c-0.16,0-0.36-0.024-0.6-0.072c-0.24-0.048-0.36-0.168-0.36-0.36
		c0-0.256,0.12-0.439,0.36-0.552c0.239-0.112,0.487-0.216,0.743-0.312c0.48-0.16,0.944-0.344,1.393-0.552
		c0.447-0.208,0.672-0.631,0.672-1.272V12.432c0-0.928-0.168-1.704-0.504-2.328s-0.904-1.016-1.704-1.176
		c-0.257-0.064-0.384-0.271-0.384-0.624c0-0.32,0.111-0.512,0.336-0.576c0.831-0.192,1.552-0.392,2.16-0.6
		c0.607-0.208,1.176-0.423,1.704-0.648c0.527-0.223,1.047-0.432,1.56-0.624c0.128-0.063,0.224-0.096,0.288-0.096
		c0.063,0,0.12,0.041,0.168,0.12c0.048,0.081,0.072,0.152,0.072,0.216c0,0.288-0.057,0.904-0.168,1.848
		c-0.113,0.944-0.168,2.504-0.168,4.68v24c0,0.641,0.223,1.064,0.672,1.272c0.447,0.208,0.912,0.393,1.392,0.552
		c0.256,0.096,0.504,0.2,0.744,0.312c0.24,0.112,0.36,0.296,0.36,0.552c0,0.192-0.12,0.312-0.36,0.36
		c-0.24,0.048-0.44,0.072-0.6,0.072c-0.608,0-1.097-0.024-1.465-0.072c-0.368-0.048-0.72-0.087-1.056-0.12
		c-0.336-0.032-0.792-0.048-1.368-0.048c-0.544,0-0.992,0.017-1.344,0.048c-0.353,0.032-0.704,0.072-1.056,0.12
		C188.955,39.72,188.459,39.744,187.819,39.744z"/>
	<path fill="#083E00" d="M199.579,39.744c-0.288,0-0.521-0.041-0.696-0.12s-0.264-0.216-0.264-0.408c0-0.256,0.12-0.432,0.359-0.528
		c0.24-0.096,0.487-0.175,0.744-0.24c0.672-0.16,1.184-0.36,1.536-0.6c0.352-0.24,0.528-0.648,0.528-1.224V26.208
		c0-0.864-0.152-1.632-0.456-2.304c-0.305-0.672-0.872-1.072-1.704-1.2c-0.161-0.032-0.28-0.096-0.36-0.192
		c-0.08-0.096-0.12-0.24-0.12-0.432c0-0.352,0.145-0.544,0.433-0.576c1.279-0.288,2.335-0.679,3.168-1.176
		c0.831-0.496,1.455-0.904,1.872-1.224c0.288-0.224,0.511-0.336,0.672-0.336c0.191,0,0.288,0.08,0.288,0.24
		c0,0.256-0.041,0.76-0.12,1.512c-0.08,0.752-0.152,1.584-0.216,2.496c-0.064,0.912-0.097,1.736-0.097,2.472v11.136
		c0,0.544,0.184,0.944,0.553,1.2c0.367,0.256,0.871,0.464,1.512,0.624c0.256,0.064,0.504,0.144,0.744,0.24
		c0.239,0.096,0.359,0.272,0.359,0.528c0,0.352-0.32,0.528-0.96,0.528c-0.608,0-1.097-0.024-1.464-0.072
		c-0.368-0.048-0.72-0.087-1.056-0.12c-0.336-0.032-0.792-0.048-1.368-0.048c-0.545,0-0.992,0.017-1.344,0.048
		c-0.353,0.032-0.704,0.072-1.057,0.12C200.714,39.72,200.219,39.744,199.579,39.744z M203.419,14.832
		c-0.672,0-1.24-0.231-1.704-0.696c-0.464-0.464-0.696-1.032-0.696-1.704c0-0.704,0.232-1.288,0.696-1.752
		c0.464-0.463,1.032-0.696,1.704-0.696c0.703,0,1.288,0.233,1.752,0.696c0.464,0.464,0.696,1.048,0.696,1.752
		c0,0.672-0.232,1.24-0.696,1.704C204.707,14.6,204.122,14.832,203.419,14.832z"/>
	<path fill="#083E00" d="M219.499,40.608c-0.129,0-0.288-0.248-0.48-0.744c-0.192-0.496-0.32-0.856-0.384-1.08
		c-0.225-0.544-0.433-1.112-0.624-1.704c-0.192-0.592-0.384-1.144-0.576-1.656c-0.704-1.984-1.464-3.928-2.28-5.832
		c-0.815-1.904-1.607-3.832-2.376-5.784c-0.224-0.576-0.568-1.096-1.032-1.56c-0.464-0.463-0.936-0.76-1.416-0.888
		c-0.256-0.096-0.464-0.192-0.623-0.288c-0.161-0.096-0.24-0.256-0.24-0.48c0-0.192,0.12-0.312,0.359-0.36
		c0.24-0.048,0.439-0.072,0.601-0.072c0.64,0,1.104,0.017,1.392,0.048c0.288,0.032,0.576,0.072,0.864,0.12s0.703,0.072,1.248,0.072
		c0.576,0,1.008-0.024,1.296-0.072s0.592-0.088,0.912-0.12c0.319-0.031,0.783-0.048,1.392-0.048c0.16,0,0.36,0.024,0.601,0.072
		c0.239,0.048,0.359,0.168,0.359,0.36c0,0.224-0.112,0.4-0.336,0.528c-0.224,0.128-0.479,0.24-0.768,0.336
		c-0.32,0.128-0.561,0.376-0.72,0.744c-0.161,0.368-0.24,0.776-0.24,1.224c0,0.224,0.016,0.448,0.048,0.672
		c0.031,0.224,0.079,0.432,0.144,0.624l3.792,10.08c0.032,0.032,0.056,0.048,0.072,0.048c0.016,0,0.04-0.016,0.072-0.048l3.647-9.36
		c0.128-0.319,0.224-0.664,0.288-1.032c0.064-0.368,0.097-0.68,0.097-0.936c0-0.64-0.097-1.096-0.288-1.368
		c-0.192-0.271-0.513-0.487-0.96-0.648c-0.417-0.16-0.704-0.288-0.864-0.384c-0.16-0.096-0.24-0.256-0.24-0.48
		c0-0.192,0.104-0.312,0.313-0.36c0.207-0.048,0.424-0.072,0.647-0.072c0.352,0,0.816,0.041,1.393,0.12
		c0.575,0.08,1.279,0.12,2.111,0.12s1.399-0.04,1.704-0.12c0.304-0.08,0.68-0.12,1.128-0.12c0.256,0,0.48,0.024,0.672,0.072
		c0.192,0.048,0.288,0.168,0.288,0.36c0,0.353-0.368,0.64-1.104,0.864c-0.48,0.128-1.008,0.497-1.584,1.104
		c-0.576,0.608-1.04,1.313-1.393,2.112l-3.743,9.024c-0.064,0.128-0.192,0.44-0.385,0.936c-0.191,0.496-0.4,1.04-0.624,1.632
		c-0.224,0.592-0.496,1.32-0.815,2.184c-0.257,0.608-0.465,1.08-0.624,1.416c-0.161,0.336-0.305,0.583-0.433,0.744H219.499z"/>
	<path fill="#083E00" d="M232.362,39.744c-0.288,0-0.521-0.041-0.696-0.12s-0.264-0.216-0.264-0.408c0-0.256,0.12-0.432,0.359-0.528
		c0.24-0.096,0.487-0.175,0.744-0.24c0.672-0.16,1.184-0.36,1.536-0.6c0.352-0.24,0.528-0.648,0.528-1.224V26.208
		c0-0.864-0.152-1.632-0.456-2.304c-0.305-0.672-0.872-1.072-1.704-1.2c-0.161-0.032-0.28-0.096-0.36-0.192
		c-0.08-0.096-0.12-0.24-0.12-0.432c0-0.352,0.145-0.544,0.433-0.576c1.279-0.288,2.335-0.679,3.168-1.176
		c0.831-0.496,1.455-0.904,1.872-1.224c0.288-0.224,0.511-0.336,0.672-0.336c0.191,0,0.288,0.08,0.288,0.24
		c0,0.256-0.041,0.76-0.12,1.512c-0.08,0.752-0.152,1.584-0.216,2.496c-0.064,0.912-0.097,1.736-0.097,2.472v11.136
		c0,0.544,0.184,0.944,0.553,1.2c0.367,0.256,0.871,0.464,1.512,0.624c0.256,0.064,0.504,0.144,0.744,0.24
		c0.239,0.096,0.359,0.272,0.359,0.528c0,0.352-0.32,0.528-0.96,0.528c-0.608,0-1.097-0.024-1.464-0.072
		c-0.368-0.048-0.72-0.087-1.056-0.12c-0.336-0.032-0.792-0.048-1.368-0.048c-0.545,0-0.992,0.017-1.344,0.048
		c-0.353,0.032-0.704,0.072-1.057,0.12C233.497,39.72,233.002,39.744,232.362,39.744z M236.202,14.832
		c-0.672,0-1.24-0.231-1.704-0.696c-0.464-0.464-0.696-1.032-0.696-1.704c0-0.704,0.232-1.288,0.696-1.752
		c0.464-0.463,1.032-0.696,1.704-0.696c0.703,0,1.288,0.233,1.752,0.696c0.464,0.464,0.696,1.048,0.696,1.752
		c0,0.672-0.232,1.24-0.696,1.704C237.49,14.6,236.905,14.832,236.202,14.832z"/>
	<path fill="#083E00" d="M244.122,39.744c-0.288,0-0.521-0.041-0.696-0.12s-0.264-0.216-0.264-0.408
		c0-0.256,0.096-0.424,0.288-0.504c0.191-0.079,0.463-0.168,0.815-0.264c0.48-0.127,0.943-0.304,1.393-0.528
		c0.447-0.223,0.672-0.655,0.672-1.296v-10.32c0-0.864-0.089-1.6-0.265-2.208c-0.176-0.607-0.68-1.024-1.512-1.248
		c-0.128-0.064-0.24-0.136-0.336-0.216c-0.096-0.08-0.144-0.216-0.144-0.408c0-0.352,0.144-0.544,0.432-0.576
		c1.12-0.288,2.031-0.64,2.736-1.056c0.703-0.416,1.392-0.88,2.063-1.392c0.096-0.064,0.184-0.12,0.264-0.168
		c0.08-0.048,0.168-0.072,0.265-0.072c0.063,0,0.12,0.032,0.168,0.096c0.048,0.064,0.072,0.144,0.072,0.24
		c0,0.225-0.041,0.681-0.12,1.368c-0.081,0.688-0.12,1.256-0.12,1.704c0,0.128,0.007,0.248,0.023,0.36
		c0.016,0.113,0.04,0.185,0.072,0.216c1.12-1.056,2.312-1.856,3.576-2.4c1.264-0.543,2.647-0.816,4.152-0.816
		c1.567,0,2.863,0.641,3.888,1.92c1.023,1.28,1.536,2.864,1.536,4.752v10.224c0,0.641,0.224,1.064,0.672,1.272
		c0.447,0.208,0.912,0.393,1.392,0.552c0.256,0.096,0.504,0.2,0.744,0.312c0.24,0.112,0.36,0.296,0.36,0.552
		c0,0.192-0.112,0.312-0.336,0.36c-0.225,0.048-0.433,0.072-0.624,0.072c-0.641,0-1.137-0.024-1.488-0.072
		c-0.353-0.048-0.688-0.087-1.008-0.12c-0.32-0.032-0.769-0.048-1.344-0.048c-0.545,0-0.993,0.017-1.345,0.048
		c-0.353,0.032-0.712,0.072-1.08,0.12c-0.368,0.048-0.872,0.072-1.512,0.072c-0.16,0-0.36-0.024-0.6-0.072
		c-0.24-0.048-0.36-0.168-0.36-0.36c0-0.256,0.12-0.439,0.36-0.552c0.239-0.112,0.487-0.216,0.744-0.312
		c0.479-0.16,0.943-0.344,1.392-0.552c0.447-0.208,0.672-0.631,0.672-1.272v-10.08c0-1.408-0.393-2.503-1.176-3.288
		c-0.784-0.784-1.832-1.191-3.145-1.224c-1.151,0-2.159,0.185-3.023,0.552c-0.864,0.368-1.632,0.824-2.304,1.368
		c-0.129,0.128-0.225,0.296-0.288,0.504c-0.064,0.208-0.097,0.408-0.097,0.6v11.568c0,0.641,0.224,1.073,0.672,1.296
		c0.448,0.225,0.912,0.401,1.393,0.528c0.735,0.192,1.104,0.448,1.104,0.768c0,0.192-0.08,0.328-0.239,0.408
		c-0.161,0.08-0.401,0.12-0.721,0.12c-0.641,0-1.145-0.024-1.512-0.072c-0.368-0.048-0.713-0.087-1.032-0.12
		c-0.32-0.032-0.768-0.048-1.344-0.048c-0.545,0-0.984,0.017-1.32,0.048c-0.336,0.032-0.688,0.072-1.056,0.12
		C245.265,39.72,244.761,39.744,244.122,39.744z"/>
	<path fill="#083E00" d="M276.714,53.52c-2.721,0-4.872-0.521-6.456-1.56c-1.584-1.04-2.376-2.44-2.376-4.2
		c0-0.833,0.127-1.536,0.384-2.112c0.256-0.576,0.655-1.072,1.2-1.488c0.447-0.384,1.048-0.872,1.8-1.464
		c0.751-0.593,1.527-1.208,2.328-1.848l2.016,0.096c-1.536,0.991-2.608,1.936-3.216,2.832c-0.608,0.896-0.912,1.984-0.912,3.264
		c0,1.28,0.567,2.359,1.704,3.24c1.136,0.879,2.536,1.32,4.2,1.32c1.888,0,3.408-0.432,4.56-1.296c0.8-0.608,1.424-1.4,1.872-2.376
		c0.448-0.977,0.672-2.009,0.672-3.096c0-0.704-0.248-1.289-0.744-1.752c-0.496-0.464-1.271-0.84-2.327-1.128
		c-1.057-0.288-2.433-0.48-4.129-0.576c-3.008-0.224-5.096-0.624-6.264-1.2c-1.168-0.576-1.752-1.472-1.752-2.688
		c0-0.32,0.088-0.616,0.264-0.888c0.176-0.271,0.456-0.568,0.841-0.888c0.735-0.576,1.279-1,1.632-1.272
		c0.352-0.271,0.615-0.504,0.792-0.696c0.175-0.192,0.343-0.432,0.504-0.72l1.632,0.816c-0.704,0.256-1.296,0.6-1.776,1.032
		c-0.479,0.432-0.72,0.824-0.72,1.176c0,0.448,0.24,0.84,0.72,1.176c0.48,0.336,1.184,0.6,2.112,0.792
		c0.928,0.192,2.064,0.336,3.408,0.432c2.943,0.16,5.136,0.64,6.576,1.44c1.439,0.799,2.16,1.936,2.16,3.408
		c0,1.248-0.313,2.472-0.937,3.672c-0.624,1.2-1.448,2.295-2.472,3.288c-1.024,0.992-2.169,1.784-3.433,2.376
		C279.313,53.223,278.025,53.52,276.714,53.52z M277.002,34.512c-1.313,0-2.561-0.336-3.744-1.008
		c-1.185-0.672-2.152-1.56-2.904-2.664s-1.128-2.312-1.128-3.624c0-1.504,0.392-2.824,1.176-3.96
		c0.784-1.135,1.815-2.023,3.096-2.664s2.641-0.96,4.08-0.96c0.928,0,1.736,0.12,2.425,0.36c0.688,0.24,1.367,0.456,2.04,0.648
		c0.768,0.224,1.375,0.36,1.823,0.408c0.448,0.048,0.912,0.072,1.393,0.072c0.384,0,0.863-0.024,1.439-0.072
		c0.576-0.048,0.976-0.072,1.2-0.072c0.416,0,0.624,0.24,0.624,0.72c0,0.288-0.16,0.592-0.479,0.912
		c-0.161,0.161-0.288,0.24-0.385,0.24h-1.296c-0.864,0-1.344,0.128-1.439,0.384c-0.032,0.128-0.072,0.312-0.12,0.552
		c-0.048,0.24-0.089,0.504-0.12,0.792c-0.032,0.288-0.048,0.576-0.048,0.864c0,1.632-0.353,3.137-1.057,4.512
		c-0.704,1.376-1.632,2.48-2.783,3.312C279.641,34.096,278.377,34.512,277.002,34.512z M277.289,32.832
		c1.216,0,2.225-0.616,3.024-1.848c0.8-1.231,1.2-2.76,1.2-4.584c0-0.928-0.216-1.8-0.648-2.616
		c-0.432-0.816-0.992-1.472-1.68-1.968c-0.688-0.496-1.433-0.744-2.232-0.744c-0.736,0-1.432,0.264-2.088,0.792
		c-0.656,0.528-1.184,1.208-1.584,2.04c-0.4,0.833-0.6,1.744-0.6,2.736c0,1.121,0.208,2.152,0.624,3.096
		c0.415,0.944,0.976,1.696,1.68,2.256C275.689,32.552,276.457,32.832,277.289,32.832z"/>
	<path fill="#083E00" d="M113.804,112.704c-0.064,0-0.128-0.032-0.192-0.096c-0.064-0.064-0.112-0.144-0.144-0.24l-6.672-16.56
		c-0.224-0.64-0.576-1.16-1.056-1.56c-0.48-0.4-0.96-0.664-1.44-0.792c-0.257-0.096-0.504-0.208-0.744-0.336
		c-0.24-0.127-0.36-0.304-0.36-0.528c0-0.192,0.12-0.312,0.36-0.36c0.24-0.048,0.439-0.072,0.6-0.072
		c0.416,0,0.808,0.017,1.176,0.048c0.368,0.032,0.744,0.072,1.128,0.12c0.384,0.048,0.784,0.072,1.2,0.072
		c0.448,0,0.896-0.024,1.344-0.072c0.448-0.048,0.888-0.088,1.32-0.12c0.432-0.031,0.871-0.048,1.32-0.048
		c0.127,0,0.319,0.024,0.576,0.072c0.255,0.048,0.384,0.168,0.384,0.36c0,0.224-0.12,0.4-0.36,0.528
		c-0.24,0.128-0.488,0.24-0.744,0.336c-0.32,0.096-0.568,0.329-0.744,0.696c-0.176,0.369-0.264,0.776-0.264,1.224
		c0,0.417,0.08,0.833,0.24,1.248l3.744,9.648c0.031,0.128,0.112,0.192,0.24,0.192s0.208-0.063,0.24-0.192l3.264-7.776
		c0.16-0.416,0.264-0.816,0.312-1.2c0.048-0.384,0.072-0.751,0.072-1.104c0-0.703-0.272-1.279-0.816-1.728
		c-0.544-0.448-1.088-0.784-1.632-1.008c-0.257-0.096-0.504-0.208-0.744-0.336c-0.24-0.127-0.36-0.304-0.36-0.528
		c0-0.192,0.111-0.312,0.336-0.36c0.223-0.048,0.432-0.072,0.624-0.072c0.448,0,0.936,0.041,1.464,0.12
		c0.528,0.08,1.24,0.12,2.136,0.12c0.896,0,1.664-0.04,2.304-0.12c0.64-0.08,1.216-0.12,1.728-0.12c0.16,0,0.36,0.024,0.6,0.072
		c0.24,0.048,0.36,0.168,0.36,0.36c0,0.224-0.12,0.4-0.36,0.528c-0.24,0.128-0.488,0.24-0.744,0.336
		c-0.353,0.128-0.712,0.305-1.08,0.528c-0.368,0.225-0.552,0.624-0.552,1.2c0,0.192,0.024,0.408,0.072,0.648
		c0.048,0.24,0.136,0.504,0.264,0.792l3.6,9.264c0.16,0.353,0.288,0.528,0.384,0.528c0.127,0,0.256-0.16,0.384-0.48l3.648-8.496
		c0.127-0.255,0.216-0.576,0.264-0.96c0.048-0.384,0.072-0.688,0.072-0.912c0-0.576-0.192-1.039-0.576-1.392
		c-0.384-0.352-0.752-0.592-1.104-0.72c-0.256-0.096-0.504-0.208-0.744-0.336c-0.24-0.127-0.36-0.304-0.36-0.528
		c0-0.192,0.12-0.312,0.36-0.36c0.24-0.048,0.44-0.072,0.6-0.072c0.704,0,1.264,0.041,1.68,0.12c0.416,0.08,1.056,0.12,1.92,0.12
		c0.607,0,1.04-0.024,1.296-0.072c0.256-0.048,0.48-0.088,0.672-0.12c0.192-0.031,0.463-0.048,0.816-0.048
		c0.192,0,0.399,0.024,0.624,0.072c0.223,0.048,0.336,0.168,0.336,0.36c0,0.224-0.12,0.4-0.36,0.528
		c-0.24,0.128-0.488,0.24-0.744,0.336c-0.48,0.128-0.944,0.504-1.392,1.128c-0.449,0.624-0.833,1.304-1.152,2.04l-6.576,15.744
		c-0.096,0.224-0.24,0.336-0.432,0.336c-0.128,0-0.256-0.112-0.384-0.336l-4.992-12.384c-0.096-0.255-0.192-0.399-0.288-0.432
		c-0.096,0-0.208,0.16-0.336,0.48l-5.232,12.336C114.092,112.592,113.964,112.704,113.804,112.704z"/>
	<path fill="#083E00" d="M137.948,111.744c-0.288,0-0.521-0.041-0.696-0.12c-0.176-0.08-0.264-0.216-0.264-0.408
		c0-0.256,0.12-0.432,0.36-0.528c0.24-0.096,0.487-0.175,0.744-0.24c0.672-0.16,1.184-0.36,1.536-0.6
		c0.352-0.24,0.528-0.648,0.528-1.224V98.208c0-0.864-0.152-1.632-0.456-2.304c-0.304-0.672-0.872-1.072-1.704-1.2
		c-0.161-0.032-0.281-0.096-0.36-0.192c-0.08-0.096-0.12-0.24-0.12-0.432c0-0.352,0.144-0.544,0.432-0.576
		c1.28-0.288,2.335-0.679,3.168-1.176c0.832-0.496,1.456-0.904,1.872-1.224c0.288-0.224,0.512-0.336,0.672-0.336
		c0.192,0,0.288,0.08,0.288,0.24c0,0.256-0.041,0.76-0.12,1.512c-0.081,0.752-0.152,1.584-0.216,2.496
		c-0.064,0.912-0.096,1.736-0.096,2.472v11.136c0,0.544,0.184,0.944,0.552,1.2c0.368,0.256,0.872,0.464,1.512,0.624
		c0.256,0.064,0.504,0.144,0.744,0.24c0.24,0.096,0.359,0.272,0.359,0.528c0,0.352-0.32,0.528-0.959,0.528
		c-0.609,0-1.098-0.024-1.465-0.072c-0.368-0.048-0.72-0.087-1.056-0.12c-0.336-0.032-0.792-0.048-1.368-0.048
		c-0.544,0-0.992,0.017-1.344,0.048c-0.352,0.032-0.704,0.072-1.056,0.12C139.083,111.72,138.588,111.744,137.948,111.744z
		 M141.788,86.832c-0.672,0-1.241-0.231-1.704-0.696c-0.464-0.464-0.696-1.032-0.696-1.704c0-0.704,0.232-1.288,0.696-1.752
		c0.463-0.463,1.032-0.696,1.704-0.696c0.703,0,1.288,0.233,1.752,0.696c0.463,0.464,0.696,1.048,0.696,1.752
		c0,0.672-0.232,1.24-0.696,1.704C143.075,86.6,142.491,86.832,141.788,86.832z"/>
	<path fill="#083E00" d="M156.668,112.272c-1.568,0-2.793-0.48-3.672-1.44c-0.881-0.96-1.32-2.383-1.32-4.272V95.424
		c0-0.256-0.096-0.44-0.288-0.552c-0.192-0.112-0.608-0.168-1.248-0.168h-0.288c-0.16,0-0.296-0.104-0.408-0.312
		c-0.112-0.208-0.168-0.424-0.168-0.648c0-0.064,0.049-0.16,0.145-0.288c0.096-0.127,0.16-0.208,0.191-0.24
		c0.641-0.448,1.225-0.896,1.752-1.344c0.528-0.448,1.008-0.888,1.44-1.32c0.433-0.432,0.792-0.824,1.08-1.176
		c0.159-0.16,0.296-0.295,0.407-0.408c0.112-0.112,0.248-0.168,0.408-0.168s0.313,0.032,0.457,0.096
		c0.144,0.064,0.199,0.208,0.168,0.432l-0.24,2.16c-0.033,0.353,0.048,0.592,0.24,0.72c0.191,0.128,0.495,0.192,0.912,0.192h5.471
		c0.128,0,0.24,0.104,0.337,0.312c0.096,0.208,0.144,0.456,0.144,0.744s-0.048,0.568-0.144,0.84
		c-0.097,0.272-0.209,0.408-0.337,0.408h-4.752c-0.8,0-1.319,0.064-1.56,0.192c-0.239,0.128-0.36,0.512-0.36,1.152v9.456
		c0,1.28,0.271,2.289,0.816,3.024c0.544,0.736,1.328,1.104,2.352,1.104c0.928,0,1.648-0.072,2.16-0.216s0.977-0.36,1.393-0.648
		c0.063-0.063,0.127-0.096,0.191-0.096c0.128,0,0.217,0.072,0.265,0.216s0.071,0.296,0.071,0.456c0,0.16-0.264,0.48-0.791,0.96
		c-0.528,0.48-1.217,0.928-2.064,1.344S157.659,112.272,156.668,112.272z"/>
	<path fill="#083E00" d="M164.539,111.744c-0.641,0-0.959-0.176-0.959-0.528c0-0.288,0.367-0.544,1.104-0.768
		c0.48-0.16,0.936-0.368,1.368-0.624c0.432-0.256,0.663-0.704,0.695-1.344V84.432c0-0.864-0.144-1.624-0.432-2.28
		c-0.288-0.655-0.849-1.047-1.681-1.176c-0.287-0.064-0.432-0.288-0.432-0.672c0-0.288,0.128-0.48,0.385-0.576
		c0.447-0.16,0.983-0.336,1.607-0.528s1.272-0.408,1.944-0.648c0.672-0.24,1.264-0.472,1.775-0.696
		c0.128-0.063,0.224-0.096,0.288-0.096c0.097,0,0.176,0.032,0.24,0.096c0.063,0.064,0.096,0.144,0.096,0.24
		c0,0.192-0.04,0.464-0.119,0.816c-0.081,0.353-0.152,0.96-0.217,1.824c-0.064,0.864-0.096,2.16-0.096,3.888v8.352
		c0,0.512,0.024,0.88,0.072,1.104c0.048,0.224,0.136,0.449,0.264,0.672c0.512-0.384,1.144-0.808,1.896-1.272
		c0.751-0.463,1.591-0.872,2.52-1.224c0.928-0.352,1.888-0.528,2.88-0.528c1.567,0,2.872,0.617,3.912,1.848
		c1.04,1.232,1.561,2.792,1.561,4.68v10.08c0,0.641,0.207,1.112,0.624,1.416c0.415,0.305,0.863,0.537,1.344,0.696
		c0.352,0.096,0.624,0.2,0.815,0.312c0.192,0.112,0.288,0.264,0.288,0.456c0,0.352-0.32,0.528-0.96,0.528
		c-0.641,0-1.128-0.024-1.464-0.072c-0.336-0.048-0.656-0.087-0.96-0.12c-0.305-0.032-0.744-0.048-1.32-0.048
		c-0.544,0-0.977,0.017-1.296,0.048c-0.32,0.032-0.647,0.072-0.983,0.12c-0.336,0.048-0.824,0.072-1.464,0.072
		c-0.641,0-0.961-0.176-0.961-0.528c0-0.224,0.097-0.376,0.288-0.456c0.192-0.08,0.464-0.184,0.816-0.312
		c0.48-0.16,0.912-0.392,1.296-0.696c0.384-0.304,0.576-0.775,0.576-1.416v-9.792c0-0.799-0.232-1.528-0.696-2.184
		c-0.464-0.655-1.032-1.176-1.704-1.56c-0.672-0.384-1.36-0.576-2.063-0.576c-0.608,0-1.313,0.088-2.112,0.264
		c-0.8,0.176-1.424,0.44-1.872,0.792c-0.512,0.416-0.856,0.848-1.032,1.296c-0.176,0.448-0.264,1.168-0.264,2.16v9.744
		c0.031,0.641,0.231,1.088,0.6,1.344c0.368,0.256,0.792,0.464,1.272,0.624c0.352,0.096,0.616,0.2,0.792,0.312
		c0.176,0.112,0.264,0.264,0.264,0.456c0,0.352-0.32,0.528-0.96,0.528c-0.641,0-1.12-0.024-1.439-0.072
		c-0.32-0.048-0.624-0.087-0.912-0.12c-0.288-0.032-0.72-0.048-1.296-0.048c-0.545,0-0.984,0.017-1.32,0.048
		c-0.336,0.032-0.688,0.072-1.056,0.12C165.683,111.72,165.179,111.744,164.539,111.744z"/>
	<path fill="#083E00" d="M198.907,125.28c-0.16,0-0.368-0.024-0.624-0.072c-0.257-0.048-0.384-0.168-0.384-0.36
		c0-0.256,0.12-0.44,0.36-0.552c0.239-0.112,0.487-0.216,0.743-0.312c0.48-0.16,0.944-0.344,1.393-0.552
		c0.447-0.208,0.672-0.632,0.672-1.272V97.824c0-0.256-0.072-0.64-0.216-1.152c-0.145-0.511-0.377-1.008-0.696-1.488
		c-0.32-0.48-0.752-0.768-1.296-0.864c-0.128-0.032-0.225-0.112-0.288-0.24c-0.064-0.127-0.096-0.256-0.096-0.384
		c0-0.16,0.031-0.288,0.096-0.384c0.063-0.096,0.144-0.16,0.24-0.192c1.216-0.288,2.256-0.6,3.12-0.936
		c0.863-0.336,1.68-0.664,2.447-0.984c0.032,0,0.049-0.008,0.049-0.024s0.016-0.024,0.048-0.024c0.063,0,0.127,0.048,0.191,0.144
		c0.064,0.096,0.097,0.192,0.097,0.288c0,0.288-0.041,0.744-0.12,1.368c-0.08,0.624-0.12,1.128-0.12,1.512
		c0,0.257,0.016,0.401,0.048,0.432c0.319-0.319,0.903-0.728,1.752-1.224c0.848-0.496,1.815-0.943,2.904-1.344
		c1.087-0.4,2.128-0.6,3.12-0.6c1.663,0,3.079,0.44,4.248,1.32c1.167,0.88,2.063,2.016,2.688,3.408s0.937,2.84,0.937,4.344
		c0,1.44-0.272,2.84-0.816,4.2c-0.545,1.361-1.313,2.584-2.304,3.672c-0.992,1.088-2.145,1.961-3.456,2.616
		c-1.313,0.655-2.721,0.984-4.225,0.984c-0.448,0-0.983-0.072-1.607-0.216s-1.232-0.329-1.824-0.552
		c-0.593-0.223-1.049-0.48-1.368-0.768c-0.032,0-0.064,0.184-0.096,0.552c-0.032,0.368-0.057,0.751-0.072,1.152
		c-0.017,0.4-0.023,0.648-0.023,0.744v8.976c0,0.416,0.168,0.744,0.504,0.984c0.336,0.24,0.72,0.416,1.151,0.528
		c0.433,0.112,0.808,0.216,1.128,0.312c0.256,0.096,0.504,0.2,0.744,0.312c0.24,0.112,0.36,0.296,0.36,0.552
		c0,0.192-0.128,0.312-0.384,0.36c-0.257,0.048-0.48,0.072-0.672,0.072c-0.929,0-1.704-0.041-2.328-0.12
		c-0.624-0.08-1.353-0.12-2.185-0.12c-0.544,0-0.983,0.016-1.319,0.048c-0.337,0.032-0.681,0.072-1.032,0.12
		C200.043,125.256,199.547,125.28,198.907,125.28z M210.139,110.784c0.479,0,1.063-0.144,1.752-0.432
		c0.688-0.288,1.375-0.751,2.063-1.392c0.688-0.64,1.264-1.503,1.729-2.592c0.463-1.087,0.695-2.432,0.695-4.032
		c0-1.855-0.239-3.343-0.72-4.464c-0.479-1.12-1.072-1.968-1.775-2.544c-0.705-0.576-1.425-0.96-2.16-1.152
		c-0.737-0.192-1.36-0.288-1.872-0.288c-0.769,0-1.561,0.161-2.376,0.48c-0.816,0.32-1.505,0.68-2.064,1.08
		c-0.561,0.4-0.84,0.712-0.84,0.936c0,0.704-0.008,1.416-0.024,2.136c-0.016,0.72-0.032,1.416-0.048,2.088
		c-0.017,0.672-0.032,1.272-0.048,1.8c-0.017,0.528-0.023,0.936-0.023,1.224c0,1.28,0.295,2.464,0.888,3.552
		c0.592,1.088,1.327,1.96,2.208,2.616C208.403,110.456,209.275,110.784,210.139,110.784z"/>
	<path fill="#083E00" d="M226.555,112.272c-0.576,0-1.16-0.224-1.752-0.672c-0.593-0.448-1.089-0.992-1.488-1.632
		c-0.4-0.64-0.6-1.248-0.6-1.824c0-1.024,0.271-1.824,0.815-2.4s1.408-1.104,2.592-1.584l4.896-2.016
		c0.64-0.256,1.016-0.48,1.128-0.672c0.111-0.192,0.184-0.607,0.216-1.248l0.096-3.072c0.032-0.832-0.2-1.551-0.695-2.16
		c-0.497-0.607-1.208-0.912-2.136-0.912c-0.48,0-0.961,0.08-1.44,0.24c-0.48,0.16-0.881,0.368-1.2,0.624
		c-0.191,0.128-0.32,0.32-0.384,0.576c-0.064,0.256-0.096,0.528-0.096,0.816c0,0.128,0.007,0.272,0.023,0.432
		c0.016,0.161,0.024,0.305,0.024,0.432c0,0.161-0.2,0.376-0.601,0.648c-0.4,0.272-0.848,0.512-1.344,0.72
		c-0.496,0.208-0.904,0.312-1.224,0.312c-0.161,0-0.288-0.04-0.384-0.12c-0.097-0.08-0.145-0.184-0.145-0.312
		c0-0.512,0.168-1.063,0.504-1.656c0.336-0.592,0.808-1.144,1.416-1.656c0.736-0.672,1.536-1.264,2.4-1.776
		c0.863-0.511,1.711-0.912,2.544-1.2c0.832-0.288,1.567-0.432,2.208-0.432c1.151,0,2.104,0.408,2.855,1.224s1.112,1.832,1.08,3.048
		l-0.239,11.52c-0.033,0.672,0.119,1.217,0.455,1.632c0.337,0.417,0.76,0.624,1.272,0.624c0.8,0,1.392-0.175,1.776-0.528
		c0.159-0.16,0.288-0.24,0.384-0.24c0.159,0,0.288,0.048,0.384,0.144c0.096,0.096,0.144,0.225,0.144,0.384
		c0,0.353-0.176,0.704-0.527,1.056c-0.513,0.512-1.064,0.92-1.656,1.224c-0.593,0.304-1.145,0.456-1.656,0.456
		c-1.472,0-2.64-0.832-3.504-2.496h-0.144c-1.057,0.864-2.064,1.497-3.024,1.896C228.571,112.072,227.579,112.272,226.555,112.272z
		 M228.811,109.968c0.64,0,1.184-0.104,1.632-0.312c0.448-0.208,0.848-0.488,1.2-0.84c0.159-0.16,0.295-0.375,0.408-0.648
		c0.111-0.271,0.184-0.711,0.216-1.32l0.096-2.352c0.031-0.352,0.016-0.607-0.048-0.768c-0.064-0.16-0.192-0.24-0.384-0.24
		c-0.064,0-0.177,0.016-0.336,0.048c-0.161,0.032-0.368,0.096-0.624,0.192c-1.696,0.608-2.873,1.241-3.528,1.896
		c-0.656,0.656-0.984,1.256-0.984,1.8c0,0.833,0.248,1.464,0.744,1.896C227.699,109.752,228.235,109.968,228.811,109.968z"/>
	<path fill="#083E00" d="M242.204,111.744c-0.288,0-0.521-0.041-0.696-0.12s-0.264-0.216-0.264-0.408
		c0-0.256,0.12-0.432,0.359-0.528c0.24-0.096,0.487-0.175,0.744-0.24c0.672-0.16,1.184-0.36,1.536-0.6
		c0.352-0.24,0.528-0.648,0.528-1.224V98.208c0-0.864-0.152-1.632-0.456-2.304c-0.305-0.672-0.872-1.072-1.704-1.2
		c-0.161-0.032-0.28-0.096-0.36-0.192c-0.08-0.096-0.12-0.24-0.12-0.432c0-0.352,0.145-0.544,0.433-0.576
		c1.279-0.288,2.335-0.679,3.168-1.176c0.831-0.496,1.455-0.904,1.872-1.224c0.288-0.224,0.511-0.336,0.672-0.336
		c0.191,0,0.288,0.08,0.288,0.24c0,0.256-0.041,0.76-0.12,1.512c-0.08,0.752-0.152,1.584-0.216,2.496
		c-0.064,0.912-0.097,1.736-0.097,2.472v11.136c0,0.544,0.184,0.944,0.553,1.2c0.367,0.256,0.871,0.464,1.512,0.624
		c0.256,0.064,0.504,0.144,0.744,0.24c0.239,0.096,0.359,0.272,0.359,0.528c0,0.352-0.32,0.528-0.96,0.528
		c-0.608,0-1.097-0.024-1.464-0.072c-0.368-0.048-0.72-0.087-1.056-0.12c-0.336-0.032-0.792-0.048-1.368-0.048
		c-0.545,0-0.992,0.017-1.344,0.048c-0.353,0.032-0.704,0.072-1.057,0.12C243.339,111.72,242.844,111.744,242.204,111.744z
		 M246.044,86.832c-0.672,0-1.24-0.231-1.704-0.696c-0.464-0.464-0.696-1.032-0.696-1.704c0-0.704,0.232-1.288,0.696-1.752
		c0.464-0.463,1.032-0.696,1.704-0.696c0.703,0,1.288,0.233,1.752,0.696c0.464,0.464,0.696,1.048,0.696,1.752
		c0,0.672-0.232,1.24-0.696,1.704C247.332,86.6,246.747,86.832,246.044,86.832z"/>
	<path fill="#083E00" d="M253.964,111.744c-0.288,0-0.521-0.041-0.696-0.12s-0.264-0.216-0.264-0.408
		c0-0.256,0.096-0.424,0.288-0.504c0.191-0.079,0.463-0.168,0.815-0.264c0.48-0.127,0.943-0.304,1.393-0.528
		c0.447-0.223,0.672-0.655,0.672-1.296v-10.32c0-0.864-0.089-1.6-0.265-2.208c-0.176-0.607-0.68-1.024-1.512-1.248
		c-0.128-0.064-0.24-0.136-0.336-0.216c-0.096-0.08-0.144-0.216-0.144-0.408c0-0.352,0.144-0.544,0.432-0.576
		c1.12-0.288,2.031-0.64,2.736-1.056c0.703-0.416,1.392-0.88,2.063-1.392c0.096-0.064,0.184-0.12,0.264-0.168
		c0.08-0.048,0.168-0.072,0.265-0.072c0.063,0,0.12,0.032,0.168,0.096c0.048,0.064,0.072,0.144,0.072,0.24
		c0,0.225-0.041,0.681-0.12,1.368c-0.081,0.688-0.12,1.256-0.12,1.704c0,0.128,0.007,0.248,0.023,0.36
		c0.016,0.113,0.04,0.185,0.072,0.216c1.12-1.056,2.312-1.856,3.576-2.4c1.264-0.543,2.647-0.816,4.152-0.816
		c1.567,0,2.863,0.641,3.888,1.92c1.023,1.28,1.536,2.864,1.536,4.752v10.224c0,0.641,0.224,1.064,0.672,1.272
		c0.447,0.208,0.912,0.393,1.392,0.552c0.256,0.096,0.504,0.2,0.744,0.312c0.24,0.112,0.36,0.296,0.36,0.552
		c0,0.192-0.112,0.312-0.336,0.36c-0.225,0.048-0.433,0.072-0.624,0.072c-0.641,0-1.137-0.024-1.488-0.072
		c-0.353-0.048-0.688-0.087-1.008-0.12c-0.32-0.032-0.769-0.048-1.344-0.048c-0.545,0-0.993,0.017-1.345,0.048
		c-0.353,0.032-0.712,0.072-1.08,0.12c-0.368,0.048-0.872,0.072-1.512,0.072c-0.16,0-0.36-0.024-0.6-0.072
		c-0.24-0.048-0.36-0.168-0.36-0.36c0-0.256,0.12-0.439,0.36-0.552c0.239-0.112,0.487-0.216,0.744-0.312
		c0.479-0.16,0.943-0.344,1.392-0.552c0.447-0.208,0.672-0.631,0.672-1.272v-10.08c0-1.408-0.393-2.503-1.176-3.288
		c-0.784-0.784-1.832-1.191-3.145-1.224c-1.151,0-2.159,0.185-3.023,0.552c-0.864,0.368-1.632,0.824-2.304,1.368
		c-0.129,0.128-0.225,0.296-0.288,0.504c-0.064,0.208-0.097,0.408-0.097,0.6v11.568c0,0.641,0.224,1.073,0.672,1.296
		c0.448,0.225,0.912,0.401,1.393,0.528c0.735,0.192,1.104,0.448,1.104,0.768c0,0.192-0.08,0.328-0.239,0.408
		c-0.161,0.08-0.401,0.12-0.721,0.12c-0.641,0-1.145-0.024-1.512-0.072c-0.368-0.048-0.713-0.087-1.032-0.12
		c-0.32-0.032-0.768-0.048-1.344-0.048c-0.545,0-0.984,0.017-1.32,0.048c-0.336,0.032-0.688,0.072-1.056,0.12
		C255.107,111.72,254.603,111.744,253.964,111.744z"/>
	<path fill="#083E00" d="M279.019,118.656c-0.576,0-0.864-0.176-0.864-0.528c0-0.128,0.056-0.248,0.168-0.36
		c0.112-0.112,0.28-0.185,0.504-0.216c0.704-0.161,1.408-0.432,2.112-0.816c0.703-0.384,1.296-0.936,1.775-1.656
		c0.48-0.72,0.721-1.64,0.721-2.76c0-0.384-0.177-0.824-0.528-1.32c-0.353-0.496-0.8-0.76-1.344-0.792
		c-0.704-0.063-1.257-0.288-1.656-0.672c-0.4-0.384-0.6-0.832-0.6-1.344c0-0.64,0.264-1.167,0.792-1.584
		c0.527-0.416,1.144-0.624,1.848-0.624c1.152,0,2.104,0.44,2.856,1.32c0.751,0.88,1.128,1.992,1.128,3.336
		c0,1.216-0.24,2.312-0.721,3.288c-0.479,0.976-1.088,1.815-1.823,2.52c-0.737,0.703-1.497,1.248-2.28,1.632
		C280.323,118.464,279.627,118.656,279.019,118.656z"/>
	<path fill="#083E00" d="M115.1,183.84c-0.417,0-0.752-0.041-1.008-0.12c-0.256-0.081-0.384-0.216-0.384-0.408
		c0-0.384,0.528-0.672,1.584-0.864c1.216-0.223,2.144-0.592,2.784-1.104s0.96-1.328,0.96-2.448V157.2c0-1.12-0.233-1.92-0.696-2.4
		c-0.464-0.48-1.304-0.832-2.52-1.056c-1.056-0.192-1.584-0.512-1.584-0.96c0-0.192,0.127-0.328,0.384-0.408
		c0.255-0.08,0.591-0.12,1.008-0.12c0.864,0,1.576,0.017,2.136,0.048c0.56,0.032,1.096,0.056,1.608,0.072
		c0.511,0.017,1.135,0.024,1.872,0.024c0.703,0,1.279-0.007,1.728-0.024c0.448-0.016,0.928-0.04,1.44-0.072
		c0.511-0.032,1.2-0.048,2.064-0.048c0.416,0,0.751,0.041,1.008,0.12c0.256,0.081,0.384,0.216,0.384,0.408
		c0,0.224-0.128,0.416-0.384,0.576c-0.256,0.161-0.656,0.288-1.2,0.384c-1.184,0.224-2.048,0.576-2.592,1.056
		c-0.544,0.48-0.816,1.28-0.816,2.4v21.696c0,1.12,0.336,1.937,1.008,2.448s1.6,0.881,2.784,1.104
		c0.543,0.096,0.943,0.209,1.2,0.336c0.256,0.129,0.384,0.305,0.384,0.528c0,0.192-0.128,0.327-0.384,0.408
		c-0.256,0.079-0.592,0.12-1.008,0.12c-0.864,0-1.577-0.024-2.136-0.072c-0.561-0.048-1.097-0.088-1.608-0.12
		c-0.512-0.032-1.136-0.048-1.872-0.048c-0.8,0-1.497,0.016-2.088,0.048c-0.592,0.032-1.2,0.072-1.824,0.12
		S115.964,183.84,115.1,183.84z"/>
	<path fill="#083E00" d="M147.787,184.272c-1.567,0-2.791-0.48-3.671-1.439c-0.88-0.961-1.32-2.384-1.32-4.272v-11.136
		c0-0.256-0.096-0.44-0.288-0.552c-0.192-0.112-0.608-0.168-1.248-0.168h-0.288c-0.16,0-0.296-0.104-0.408-0.312
		c-0.113-0.208-0.168-0.424-0.168-0.648c0-0.064,0.048-0.16,0.144-0.288c0.096-0.127,0.16-0.208,0.192-0.24
		c0.64-0.448,1.224-0.896,1.752-1.344c0.528-0.448,1.008-0.888,1.44-1.32c0.432-0.432,0.792-0.824,1.08-1.176
		c0.16-0.16,0.295-0.295,0.408-0.408c0.111-0.112,0.247-0.168,0.408-0.168c0.159,0,0.312,0.032,0.455,0.096
		c0.145,0.064,0.199,0.208,0.168,0.432l-0.24,2.16c-0.031,0.353,0.049,0.592,0.24,0.72c0.192,0.128,0.496,0.192,0.912,0.192h5.473
		c0.127,0,0.24,0.104,0.336,0.312c0.096,0.208,0.144,0.456,0.144,0.744s-0.048,0.568-0.144,0.84
		c-0.096,0.272-0.209,0.408-0.336,0.408h-4.752c-0.801,0-1.32,0.064-1.561,0.192c-0.24,0.128-0.359,0.512-0.359,1.152v9.456
		c0,1.28,0.271,2.289,0.815,3.024c0.544,0.736,1.327,1.104,2.353,1.104c0.928,0,1.647-0.072,2.16-0.216
		c0.511-0.145,0.975-0.36,1.392-0.648c0.063-0.063,0.128-0.096,0.192-0.096c0.127,0,0.215,0.072,0.264,0.216
		c0.048,0.144,0.072,0.296,0.072,0.456s-0.265,0.48-0.793,0.96c-0.527,0.479-1.216,0.929-2.063,1.344
		C149.699,184.063,148.779,184.272,147.787,184.272z"/>
	<path fill="#083E00" d="M155.66,183.744c-0.641,0-0.961-0.176-0.961-0.528c0-0.288,0.367-0.544,1.104-0.769
		c0.479-0.159,0.937-0.367,1.368-0.623s0.664-0.704,0.695-1.345v-24.048c0-0.864-0.144-1.624-0.432-2.28
		c-0.288-0.655-0.848-1.047-1.68-1.176c-0.288-0.064-0.432-0.288-0.432-0.672c0-0.288,0.127-0.48,0.383-0.576
		c0.448-0.16,0.984-0.336,1.608-0.528s1.272-0.408,1.944-0.648c0.672-0.24,1.264-0.472,1.775-0.696
		c0.128-0.063,0.225-0.096,0.289-0.096c0.096,0,0.175,0.032,0.239,0.096c0.063,0.064,0.097,0.144,0.097,0.24
		c0,0.192-0.041,0.464-0.121,0.816c-0.08,0.353-0.152,0.96-0.215,1.824c-0.064,0.864-0.097,2.16-0.097,3.888v8.352
		c0,0.512,0.024,0.88,0.072,1.104c0.048,0.224,0.136,0.449,0.264,0.672c0.512-0.384,1.144-0.808,1.896-1.272
		c0.752-0.463,1.592-0.872,2.521-1.224c0.928-0.352,1.888-0.528,2.88-0.528c1.567,0,2.872,0.617,3.912,1.848
		c1.04,1.232,1.561,2.792,1.561,4.68v10.081c0,0.641,0.207,1.111,0.624,1.416c0.415,0.305,0.863,0.536,1.344,0.695
		c0.352,0.096,0.624,0.201,0.815,0.313c0.192,0.112,0.288,0.264,0.288,0.456c0,0.353-0.32,0.528-0.96,0.528
		c-0.641,0-1.128-0.024-1.464-0.072c-0.336-0.049-0.656-0.088-0.96-0.12c-0.305-0.032-0.744-0.048-1.32-0.048
		c-0.544,0-0.977,0.016-1.296,0.048c-0.32,0.032-0.647,0.071-0.983,0.12c-0.336,0.048-0.824,0.072-1.464,0.072
		c-0.641,0-0.961-0.176-0.961-0.528c0-0.224,0.097-0.376,0.288-0.456c0.192-0.08,0.464-0.184,0.816-0.313
		c0.48-0.159,0.912-0.391,1.296-0.695s0.576-0.775,0.576-1.416v-9.792c0-0.799-0.232-1.528-0.696-2.184
		c-0.464-0.655-1.032-1.176-1.704-1.56c-0.672-0.384-1.36-0.576-2.063-0.576c-0.608,0-1.313,0.088-2.112,0.264
		c-0.8,0.176-1.425,0.44-1.872,0.792c-0.512,0.416-0.856,0.848-1.031,1.296c-0.177,0.448-0.265,1.168-0.265,2.16v9.744
		c0.032,0.641,0.231,1.089,0.601,1.345c0.367,0.256,0.791,0.464,1.271,0.623c0.352,0.096,0.615,0.201,0.792,0.313
		c0.175,0.112,0.265,0.264,0.265,0.456c0,0.353-0.32,0.528-0.961,0.528s-1.12-0.024-1.439-0.072c-0.32-0.049-0.624-0.088-0.912-0.12
		s-0.721-0.048-1.297-0.048c-0.544,0-0.983,0.016-1.319,0.048s-0.688,0.071-1.056,0.12
		C156.802,183.72,156.299,183.744,155.66,183.744z"/>
	<path fill="#083E00" d="M189.74,184.272c-1.793,0-3.408-0.416-4.849-1.248c-1.439-0.832-2.584-1.975-3.432-3.432
		c-0.849-1.456-1.272-3.112-1.272-4.968c0-1.344,0.265-2.656,0.792-3.936c0.528-1.279,1.272-2.448,2.232-3.504s2.08-1.896,3.36-2.52
		c1.279-0.624,2.655-0.936,4.128-0.936c1.855,0,3.527,0.449,5.016,1.344c1.488,0.896,2.672,2.072,3.552,3.528
		c0.88,1.457,1.32,3.048,1.32,4.776c0,1.856-0.408,3.617-1.224,5.28c-0.816,1.665-2.024,3.016-3.624,4.055
		C194.139,183.751,192.139,184.272,189.74,184.272z M190.748,182.832c1.087,0,2.063-0.208,2.928-0.625
		c0.864-0.415,1.536-1.087,2.016-2.016c0.385-0.735,0.641-1.632,0.769-2.688c0.127-1.056,0.191-2.047,0.191-2.976
		c0-1.536-0.28-3.016-0.84-4.44c-0.56-1.423-1.344-2.592-2.352-3.504s-2.2-1.368-3.576-1.368c-0.864,0-1.641,0.136-2.328,0.408
		c-0.688,0.272-1.32,0.776-1.896,1.512c-0.641,0.8-1.057,1.776-1.248,2.928c-0.192,1.152-0.288,2.304-0.288,3.456
		c0,1.568,0.288,3.064,0.864,4.488c0.575,1.424,1.359,2.584,2.352,3.48C188.331,182.384,189.468,182.832,190.748,182.832z"/>
	<path fill="#083E00" d="M219.836,184.512c-0.225,0-0.336-0.129-0.336-0.385c0-0.32,0.039-0.791,0.119-1.416
		c0.08-0.623,0.12-1.143,0.12-1.56c0-0.063,0-0.12,0-0.168s0-0.087,0-0.12c-1.248,1.217-2.504,2.088-3.768,2.616
		c-1.265,0.528-2.648,0.792-4.152,0.792c-1.024,0-1.952-0.216-2.784-0.648c-0.832-0.432-1.487-1.071-1.968-1.92
		c-0.479-0.848-0.72-1.896-0.72-3.144v-9.744c0-0.703-0.16-1.264-0.48-1.68c-0.32-0.416-0.848-0.768-1.584-1.056
		c-0.16-0.064-0.304-0.144-0.432-0.24c-0.128-0.096-0.192-0.272-0.192-0.528c0-0.288,0.072-0.48,0.217-0.576
		c0.144-0.096,0.312-0.16,0.504-0.192c1.087-0.063,1.927-0.151,2.52-0.264c0.592-0.112,1.336-0.28,2.232-0.504
		c0.096-0.031,0.168-0.048,0.216-0.048s0.104,0,0.168,0c0.352,0,0.512,0.224,0.479,0.672c-0.096,0.737-0.168,1.353-0.216,1.848
		c-0.048,0.497-0.071,1.112-0.071,1.848v9.36c0,0.768,0.191,1.48,0.575,2.136c0.385,0.656,0.889,1.192,1.513,1.607
		c0.624,0.416,1.271,0.625,1.943,0.625c0.832,0,1.561-0.049,2.185-0.145s1.239-0.367,1.848-0.816c0.352-0.256,0.8-0.672,1.344-1.248
		c0.544-0.576,0.816-1.359,0.816-2.352v-8.784c0-0.672-0.2-1.176-0.6-1.512c-0.401-0.336-0.857-0.568-1.368-0.696
		c-0.513-0.127-0.929-0.192-1.248-0.192c-0.288,0-0.528-0.056-0.721-0.168c-0.191-0.112-0.287-0.328-0.287-0.648
		c0-0.288,0.104-0.48,0.312-0.576c0.208-0.096,0.439-0.144,0.696-0.144c0.991-0.031,1.815-0.072,2.472-0.12
		c0.655-0.048,1.248-0.128,1.776-0.24c0.527-0.112,1.08-0.248,1.655-0.408c0.064-0.031,0.145-0.055,0.24-0.072
		c0.097-0.016,0.176-0.024,0.24-0.024c0.415,0,0.624,0.176,0.624,0.528c0,0.032-0.009,0.088-0.024,0.168
		c-0.017,0.081-0.04,0.168-0.071,0.264c-0.032,0.096-0.072,0.368-0.12,0.816c-0.048,0.449-0.097,0.912-0.145,1.392
		s-0.071,0.848-0.071,1.104v11.088c0,0.865,0.087,1.48,0.264,1.848c0.176,0.368,0.376,0.552,0.6,0.552
		c0.256,0,0.632-0.023,1.128-0.072c0.496-0.047,0.856-0.072,1.08-0.072c0.16,0,0.319,0.033,0.48,0.097
		c0.159,0.064,0.24,0.24,0.24,0.528c0,0.256-0.064,0.424-0.192,0.504s-0.288,0.137-0.48,0.168c-1.247,0.16-2.32,0.4-3.216,0.72
		s-1.696,0.624-2.399,0.912c-0.097,0.031-0.24,0.088-0.433,0.168C220.172,184.471,219.995,184.512,219.836,184.512z"/>
	<path fill="#083E00" d="M236.924,197.52c-2.721,0-4.872-0.521-6.456-1.561c-1.584-1.039-2.376-2.439-2.376-4.199
		c0-0.832,0.127-1.536,0.384-2.112c0.256-0.575,0.655-1.072,1.2-1.487c0.447-0.385,1.048-0.873,1.8-1.465
		c0.751-0.592,1.527-1.208,2.328-1.848l2.016,0.096c-1.536,0.992-2.608,1.936-3.216,2.832c-0.608,0.896-0.912,1.984-0.912,3.264
		c0,1.28,0.567,2.359,1.704,3.24c1.136,0.88,2.536,1.32,4.2,1.32c1.888,0,3.408-0.432,4.56-1.296c0.8-0.608,1.424-1.4,1.872-2.376
		c0.448-0.977,0.672-2.009,0.672-3.096c0-0.705-0.248-1.289-0.744-1.752c-0.496-0.465-1.271-0.84-2.327-1.129
		c-1.057-0.287-2.433-0.479-4.129-0.576c-3.008-0.224-5.096-0.623-6.264-1.199s-1.752-1.472-1.752-2.688
		c0-0.32,0.088-0.616,0.264-0.889c0.176-0.271,0.456-0.568,0.841-0.889c0.735-0.575,1.279-0.999,1.632-1.271
		c0.352-0.271,0.615-0.504,0.792-0.696c0.175-0.192,0.343-0.432,0.504-0.72l1.632,0.816c-0.704,0.256-1.296,0.6-1.776,1.032
		c-0.479,0.432-0.72,0.824-0.72,1.176c0,0.448,0.24,0.84,0.72,1.176c0.48,0.336,1.184,0.601,2.112,0.792
		c0.928,0.191,2.064,0.336,3.408,0.432c2.943,0.16,5.136,0.641,6.576,1.44c1.439,0.8,2.16,1.936,2.16,3.407
		c0,1.248-0.313,2.473-0.937,3.673s-1.448,2.296-2.472,3.288c-1.024,0.991-2.169,1.783-3.433,2.376
		C239.523,197.223,238.235,197.52,236.924,197.52z M237.212,178.512c-1.313,0-2.561-0.336-3.744-1.008
		c-1.185-0.672-2.152-1.56-2.904-2.664s-1.128-2.312-1.128-3.624c0-1.504,0.392-2.824,1.176-3.96
		c0.784-1.135,1.815-2.023,3.096-2.664s2.641-0.96,4.08-0.96c0.928,0,1.736,0.12,2.425,0.36c0.688,0.24,1.367,0.456,2.04,0.648
		c0.768,0.224,1.375,0.36,1.823,0.408c0.448,0.048,0.912,0.072,1.393,0.072c0.384,0,0.863-0.024,1.439-0.072
		c0.576-0.048,0.976-0.072,1.2-0.072c0.416,0,0.624,0.24,0.624,0.72c0,0.288-0.16,0.592-0.479,0.912
		c-0.161,0.161-0.288,0.24-0.385,0.24h-1.296c-0.864,0-1.344,0.128-1.439,0.384c-0.032,0.128-0.072,0.312-0.12,0.552
		c-0.048,0.24-0.089,0.504-0.12,0.792c-0.032,0.288-0.048,0.576-0.048,0.864c0,1.632-0.353,3.137-1.057,4.512
		c-0.704,1.376-1.632,2.48-2.783,3.312C239.851,178.096,238.587,178.512,237.212,178.512z M237.499,176.832
		c1.216,0,2.225-0.616,3.024-1.848c0.8-1.231,1.2-2.76,1.2-4.584c0-0.928-0.216-1.8-0.648-2.616
		c-0.432-0.816-0.992-1.472-1.68-1.968c-0.688-0.496-1.433-0.744-2.232-0.744c-0.736,0-1.432,0.264-2.088,0.792
		c-0.656,0.528-1.184,1.208-1.584,2.04c-0.4,0.833-0.6,1.744-0.6,2.736c0,1.121,0.208,2.152,0.624,3.096
		c0.415,0.944,0.976,1.696,1.68,2.256C235.899,176.552,236.667,176.832,237.499,176.832z"/>
	<path fill="#083E00" d="M250.315,183.744c-0.641,0-0.96-0.176-0.96-0.528c0-0.288,0.367-0.544,1.104-0.769
		c0.48-0.159,0.937-0.367,1.368-0.623c0.433-0.256,0.664-0.704,0.696-1.345v-24.048c0-0.864-0.145-1.624-0.432-2.28
		c-0.288-0.655-0.849-1.047-1.681-1.176c-0.288-0.064-0.432-0.288-0.432-0.672c0-0.288,0.127-0.48,0.384-0.576
		c0.448-0.16,0.984-0.336,1.608-0.528s1.271-0.408,1.943-0.648c0.672-0.24,1.264-0.472,1.776-0.696
		c0.128-0.063,0.224-0.096,0.288-0.096c0.096,0,0.176,0.032,0.24,0.096c0.063,0.064,0.096,0.144,0.096,0.24
		c0,0.192-0.041,0.464-0.12,0.816c-0.08,0.353-0.152,0.96-0.216,1.824c-0.064,0.864-0.096,2.16-0.096,3.888v8.352
		c0,0.512,0.023,0.88,0.071,1.104c0.048,0.224,0.136,0.449,0.265,0.672c0.511-0.384,1.144-0.808,1.896-1.272
		c0.752-0.463,1.592-0.872,2.521-1.224c0.928-0.352,1.888-0.528,2.88-0.528c1.567,0,2.871,0.617,3.912,1.848
		c1.039,1.232,1.56,2.792,1.56,4.68v10.081c0,0.641,0.208,1.111,0.624,1.416s0.864,0.536,1.344,0.695
		c0.352,0.096,0.624,0.201,0.816,0.313c0.191,0.112,0.288,0.264,0.288,0.456c0,0.353-0.32,0.528-0.96,0.528
		c-0.641,0-1.128-0.024-1.464-0.072c-0.336-0.049-0.656-0.088-0.96-0.12c-0.305-0.032-0.744-0.048-1.32-0.048
		c-0.545,0-0.977,0.016-1.296,0.048c-0.32,0.032-0.648,0.071-0.984,0.12c-0.336,0.048-0.824,0.072-1.464,0.072
		c-0.641,0-0.96-0.176-0.96-0.528c0-0.224,0.096-0.376,0.288-0.456s0.464-0.184,0.815-0.313c0.48-0.159,0.912-0.391,1.297-0.695
		c0.384-0.305,0.575-0.775,0.575-1.416v-9.792c0-0.799-0.232-1.528-0.695-2.184c-0.465-0.655-1.032-1.176-1.704-1.56
		c-0.672-0.384-1.36-0.576-2.064-0.576c-0.608,0-1.313,0.088-2.111,0.264c-0.801,0.176-1.425,0.44-1.872,0.792
		c-0.513,0.416-0.856,0.848-1.032,1.296c-0.177,0.448-0.264,1.168-0.264,2.16v9.744c0.031,0.641,0.231,1.089,0.6,1.345
		c0.367,0.256,0.792,0.464,1.271,0.623c0.353,0.096,0.616,0.201,0.792,0.313c0.176,0.112,0.265,0.264,0.265,0.456
		c0,0.353-0.32,0.528-0.96,0.528c-0.641,0-1.121-0.024-1.44-0.072c-0.32-0.049-0.624-0.088-0.912-0.12s-0.72-0.048-1.296-0.048
		c-0.544,0-0.983,0.016-1.319,0.048c-0.337,0.032-0.688,0.071-1.057,0.12C251.459,183.72,250.955,183.744,250.315,183.744z"/>
	<path fill="#083E00" d="M282.235,184.272c-1.568,0-2.793-0.48-3.672-1.439c-0.881-0.961-1.32-2.384-1.32-4.272v-11.136
		c0-0.256-0.096-0.44-0.288-0.552c-0.192-0.112-0.608-0.168-1.248-0.168h-0.288c-0.16,0-0.296-0.104-0.408-0.312
		c-0.112-0.208-0.168-0.424-0.168-0.648c0-0.064,0.048-0.16,0.145-0.288c0.096-0.127,0.159-0.208,0.191-0.24
		c0.64-0.448,1.225-0.896,1.752-1.344c0.528-0.448,1.009-0.888,1.44-1.32c0.432-0.432,0.792-0.824,1.08-1.176
		c0.159-0.16,0.296-0.295,0.408-0.408c0.111-0.112,0.247-0.168,0.407-0.168s0.313,0.032,0.456,0.096
		c0.145,0.064,0.2,0.208,0.168,0.432l-0.239,2.16c-0.032,0.353,0.048,0.592,0.239,0.72c0.192,0.128,0.496,0.192,0.912,0.192h5.473
		c0.127,0,0.239,0.104,0.336,0.312c0.096,0.208,0.144,0.456,0.144,0.744s-0.048,0.568-0.144,0.84
		c-0.097,0.272-0.209,0.408-0.336,0.408h-4.752c-0.801,0-1.32,0.064-1.561,0.192c-0.24,0.128-0.359,0.512-0.359,1.152v9.456
		c0,1.28,0.271,2.289,0.815,3.024c0.544,0.736,1.328,1.104,2.353,1.104c0.928,0,1.647-0.072,2.159-0.216
		c0.512-0.145,0.977-0.36,1.393-0.648c0.063-0.063,0.127-0.096,0.191-0.096c0.128,0,0.217,0.072,0.265,0.216
		s0.072,0.296,0.072,0.456s-0.265,0.48-0.792,0.96c-0.528,0.479-1.217,0.929-2.064,1.344
		C284.146,184.063,283.226,184.272,282.235,184.272z"/>
	<path fill="#083E00" d="M12.62,255.84c-0.417,0-0.752-0.041-1.008-0.12c-0.256-0.081-0.384-0.216-0.384-0.408
		c0-0.384,0.528-0.672,1.584-0.864c1.216-0.223,2.144-0.592,2.784-1.104s0.96-1.328,0.96-2.448v-21.696
		c0-1.119-0.233-1.92-0.696-2.399c-0.464-0.479-1.304-0.832-2.52-1.056c-1.056-0.192-1.584-0.512-1.584-0.961
		c0-0.191,0.127-0.327,0.384-0.408c0.255-0.079,0.591-0.119,1.008-0.119c0.864,0,1.576,0.016,2.136,0.048
		c0.56,0.032,1.096,0.056,1.608,0.071c0.511,0.018,1.135,0.024,1.872,0.024c0.703,0,1.279-0.007,1.728-0.024
		c0.448-0.016,0.928-0.039,1.44-0.071c0.511-0.032,1.2-0.048,2.064-0.048c0.416,0,0.751,0.04,1.008,0.119
		c0.256,0.081,0.384,0.217,0.384,0.408c0,0.225-0.128,0.416-0.384,0.576c-0.256,0.16-0.656,0.288-1.2,0.385
		c-1.184,0.224-2.048,0.576-2.592,1.056c-0.544,0.479-0.816,1.28-0.816,2.399v21.696c0,1.12,0.336,1.937,1.008,2.448
		s1.6,0.881,2.784,1.104c0.543,0.096,0.943,0.209,1.2,0.336c0.256,0.129,0.384,0.305,0.384,0.528c0,0.192-0.128,0.327-0.384,0.408
		c-0.256,0.079-0.592,0.12-1.008,0.12c-0.864,0-1.577-0.024-2.136-0.072c-0.561-0.048-1.097-0.088-1.608-0.12
		c-0.512-0.032-1.136-0.048-1.872-0.048c-0.8,0-1.497,0.016-2.088,0.048c-0.592,0.032-1.2,0.072-1.824,0.12
		S13.484,255.84,12.62,255.84z"/>
	<path fill="#083E00" d="M30.092,234.287c-0.128,0-0.216-0.127-0.264-0.383c-0.048-0.256-0.072-0.496-0.072-0.721
		c0.031-0.512,0.048-0.992,0.048-1.439c0-0.448,0-0.881,0-1.297c0-0.576-0.017-1.224-0.048-1.943
		c-0.032-0.721-0.081-1.608-0.144-2.664c0-0.352,0.104-0.68,0.312-0.984c0.208-0.304,0.408-0.535,0.6-0.695
		c0.384-0.32,0.728-0.568,1.032-0.744c0.304-0.176,0.648-0.265,1.032-0.265c0.255,0,0.432,0.152,0.528,0.456
		c0.096,0.305,0.144,0.664,0.144,1.08c0,0.832-0.137,1.793-0.408,2.88c-0.272,1.089-0.584,2.136-0.936,3.144
		c-0.352,1.009-0.656,1.801-0.912,2.377c-0.128,0.287-0.281,0.561-0.456,0.816C30.372,234.16,30.219,234.287,30.092,234.287z"/>
	<path fill="#083E00" d="M53.372,256.512c-0.065,0-0.168-0.064-0.312-0.191c-0.144-0.129-0.216-0.225-0.216-0.289
		c0-0.32,0.04-0.775,0.12-1.367c0.08-0.592,0.12-1.096,0.12-1.513v-0.288c-0.48,0.736-1.248,1.488-2.304,2.256
		c-1.056,0.769-2.384,1.152-3.984,1.152c-1.824,0-3.4-0.48-4.728-1.439c-1.328-0.961-2.352-2.191-3.072-3.696
		c-0.72-1.504-1.08-3.056-1.08-4.656c0-1.855,0.432-3.601,1.296-5.231c0.864-1.633,2.104-2.96,3.72-3.984
		c1.616-1.023,3.544-1.536,5.784-1.536c0.64,0,1.288,0.056,1.944,0.168c0.656,0.112,1.16,0.232,1.512,0.36
		c0.288,0.096,0.496,0.144,0.624,0.144c0.224,0,0.336-0.384,0.336-1.151v-6.816c0-1.313-0.208-2.191-0.624-2.641
		c-0.416-0.447-1.008-0.735-1.776-0.863c-0.288-0.064-0.432-0.271-0.432-0.624c0-0.288,0.127-0.479,0.384-0.576
		c1.408-0.352,2.512-0.688,3.312-1.008c0.8-0.319,1.424-0.576,1.872-0.769c0.127-0.063,0.248-0.104,0.36-0.119
		c0.111-0.016,0.199-0.024,0.264-0.024c0.192,0,0.304,0.097,0.336,0.288c0,0.191-0.024,0.521-0.072,0.984s-0.104,1.145-0.168,2.039
		c-0.064,0.896-0.096,2.064-0.096,3.504v21.697c0,1.088,0.08,1.879,0.24,2.375c0.16,0.496,0.416,0.744,0.768,0.744
		c0.16,0,0.439-0.016,0.84-0.048c0.4-0.031,0.808-0.063,1.224-0.097c0.576-0.031,0.864,0.113,0.864,0.433
		c0,0.224-0.072,0.425-0.216,0.601s-0.296,0.264-0.456,0.264c-0.896,0.128-1.776,0.313-2.64,0.552
		c-0.864,0.24-1.856,0.601-2.976,1.08c-0.256,0.128-0.424,0.208-0.504,0.239C53.556,256.495,53.468,256.512,53.372,256.512z
		 M48.524,253.776c0.832,0,1.647-0.216,2.448-0.648c0.8-0.432,1.504-0.999,2.112-1.703l0.048-8.641c0-0.863-0.248-1.711-0.744-2.543
		c-0.497-0.832-1.184-1.513-2.064-2.041c-0.88-0.527-1.913-0.791-3.096-0.791c-0.737,0-1.568,0.224-2.496,0.672
		c-0.929,0.448-1.728,1.24-2.4,2.375c-0.672,1.137-1.008,2.777-1.008,4.92c0,1.824,0.271,3.289,0.816,4.393
		c0.544,1.104,1.208,1.943,1.992,2.52c0.784,0.576,1.584,0.969,2.4,1.176C47.348,253.672,48.012,253.776,48.524,253.776z"/>
	<path fill="#083E00" d="M79.196,256.272c-1.568,0-2.792-0.48-3.672-1.439c-0.88-0.961-1.32-2.384-1.32-4.272v-11.136
		c0-0.256-0.096-0.439-0.288-0.553c-0.192-0.111-0.608-0.168-1.248-0.168H72.38c-0.16,0-0.296-0.104-0.408-0.312
		c-0.113-0.208-0.168-0.424-0.168-0.647c0-0.064,0.048-0.16,0.144-0.289c0.096-0.127,0.16-0.207,0.192-0.239
		c0.64-0.448,1.224-0.896,1.752-1.345c0.528-0.447,1.008-0.888,1.44-1.319c0.432-0.433,0.792-0.823,1.08-1.177
		c0.16-0.159,0.295-0.295,0.408-0.407c0.112-0.112,0.248-0.168,0.408-0.168c0.16,0,0.312,0.032,0.456,0.096
		c0.144,0.064,0.199,0.208,0.168,0.433l-0.24,2.16c-0.032,0.352,0.048,0.592,0.24,0.719c0.192,0.129,0.496,0.192,0.912,0.192h5.472
		c0.127,0,0.24,0.104,0.336,0.312c0.096,0.209,0.144,0.457,0.144,0.744c0,0.289-0.048,0.568-0.144,0.84
		c-0.096,0.273-0.209,0.408-0.336,0.408h-4.752c-0.8,0-1.32,0.064-1.56,0.192c-0.24,0.128-0.36,0.513-0.36,1.152v9.456
		c0,1.279,0.271,2.288,0.816,3.023c0.544,0.736,1.328,1.104,2.352,1.104c0.928,0,1.648-0.072,2.16-0.216
		c0.511-0.145,0.976-0.36,1.392-0.648c0.063-0.063,0.127-0.096,0.192-0.096c0.127,0,0.216,0.072,0.264,0.216
		c0.048,0.144,0.072,0.296,0.072,0.456s-0.264,0.48-0.792,0.96s-1.216,0.929-2.064,1.344
		C81.108,256.063,80.187,256.272,79.196,256.272z"/>
	<path fill="#083E00" d="M87.548,255.744c-0.32,0-0.56-0.041-0.72-0.121c-0.16-0.079-0.24-0.215-0.24-0.407
		c0-0.256,0.096-0.424,0.288-0.505c0.192-0.078,0.463-0.168,0.816-0.264c0.607-0.159,1.063-0.391,1.368-0.695
		s0.456-0.68,0.456-1.129v-10.319c0-0.864-0.128-1.616-0.384-2.256c-0.256-0.64-0.785-1.04-1.584-1.2
		c-0.128-0.031-0.24-0.111-0.336-0.24c-0.096-0.127-0.144-0.256-0.144-0.384c0-0.319,0.144-0.512,0.432-0.576
		c0.832-0.255,1.704-0.632,2.616-1.128s1.624-0.904,2.136-1.225c0.192-0.127,0.343-0.215,0.456-0.264
		c0.111-0.048,0.199-0.072,0.264-0.072c0.16,0,0.24,0.113,0.24,0.336c0,0.097-0.008,0.337-0.024,0.721
		c-0.017,0.384-0.032,0.832-0.048,1.344c-0.016,0.513-0.041,1.025-0.072,1.536c0,0.064,0.031,0.097,0.096,0.097
		c0.512-0.641,1.08-1.201,1.704-1.681s1.264-0.864,1.92-1.151c0.656-0.289,1.288-0.433,1.896-0.433c0.672,0,1.224,0.144,1.656,0.433
		c0.432,0.287,0.648,0.656,0.648,1.104c0,0.32-0.088,0.672-0.264,1.057c-0.176,0.383-0.408,0.719-0.696,1.008
		c-0.288,0.287-0.593,0.432-0.912,0.432c-0.192,0-0.4-0.04-0.624-0.12c-0.224-0.079-0.464-0.184-0.72-0.312
		c-0.257-0.097-0.512-0.192-0.768-0.289c-0.257-0.096-0.512-0.144-0.768-0.144c-0.768,0-1.512,0.272-2.232,0.815
		c-0.72,0.545-1.08,1.617-1.08,3.217v9.695c0,0.417,0.224,0.762,0.672,1.033c0.448,0.271,1.072,0.535,1.872,0.791
		c0.352,0.096,0.624,0.192,0.816,0.289c0.192,0.096,0.288,0.256,0.288,0.479c0,0.353-0.32,0.528-0.96,0.528
		c-0.96,0-1.688-0.041-2.184-0.121c-0.497-0.079-1.16-0.119-1.992-0.119c-0.545,0-0.984,0.016-1.32,0.048s-0.688,0.071-1.056,0.12
		C88.691,255.72,88.187,255.744,87.548,255.744z"/>
	<path fill="#083E00" d="M104.299,269.28c-0.608,0-1.168-0.152-1.68-0.455c-0.512-0.305-0.768-0.809-0.768-1.513
		c0-0.575,0.136-1.08,0.408-1.512c0.271-0.433,0.664-0.648,1.176-0.648c0.352,0,0.696,0.048,1.032,0.144
		c0.336,0.097,0.631,0.145,0.888,0.145c0.192,0,0.36-0.041,0.504-0.119c0.144-0.081,0.28-0.217,0.408-0.408
		c0.352-0.576,0.76-1.297,1.224-2.16c0.463-0.864,0.943-1.841,1.44-2.928c0.496-1.089,0.967-2.24,1.416-3.457
		c0.096-0.287,0.144-0.656,0.144-1.104c0-0.256-0.017-0.504-0.048-0.744c-0.032-0.24-0.08-0.456-0.144-0.648l-5.568-14.063
		c-0.224-0.576-0.521-1.08-0.888-1.513c-0.369-0.432-0.792-0.711-1.272-0.84c-0.257-0.096-0.504-0.207-0.744-0.336
		c-0.24-0.127-0.36-0.303-0.36-0.527c0-0.192,0.12-0.313,0.36-0.36c0.24-0.048,0.439-0.071,0.6-0.071
		c0.64,0,1.111,0.016,1.416,0.047c0.304,0.033,0.591,0.072,0.864,0.121c0.271,0.047,0.68,0.071,1.224,0.071
		c0.576,0,1.008-0.024,1.296-0.071c0.288-0.049,0.592-0.088,0.912-0.121c0.319-0.031,0.799-0.047,1.44-0.047
		c0.192,0,0.4,0.04,0.624,0.119c0.224,0.08,0.336,0.217,0.336,0.408c0,0.225-0.168,0.44-0.504,0.648s-0.632,0.344-0.888,0.408
		c-0.32,0.096-0.56,0.264-0.72,0.504c-0.161,0.24-0.24,0.584-0.24,1.031c0,0.192,0.048,0.425,0.144,0.696
		c0.096,0.272,0.175,0.488,0.24,0.647l3.888,9.601c0.064,0.192,0.16,0.288,0.288,0.288c0.096,0,0.175-0.096,0.24-0.288l3.312-8.784
		c0.096-0.223,0.184-0.52,0.264-0.888c0.08-0.368,0.12-0.664,0.12-0.888c0-0.607-0.088-1.032-0.264-1.272
		c-0.176-0.24-0.408-0.424-0.696-0.552c-0.257-0.128-0.552-0.296-0.888-0.504s-0.504-0.424-0.504-0.648
		c0-0.191,0.12-0.328,0.36-0.408c0.24-0.079,0.439-0.119,0.6-0.119c0.448,0,0.904,0.04,1.368,0.119c0.463,0.08,1.144,0.12,2.04,0.12
		c0.607,0,1.047-0.024,1.32-0.071c0.271-0.049,0.504-0.088,0.696-0.121c0.192-0.031,0.464-0.047,0.816-0.047
		c0.16,0,0.36,0.023,0.6,0.071c0.24,0.048,0.36,0.168,0.36,0.36c0,0.225-0.12,0.4-0.36,0.527c-0.24,0.129-0.488,0.24-0.744,0.336
		c-0.48,0.129-0.992,0.504-1.536,1.129c-0.544,0.623-0.977,1.32-1.296,2.088l-6.528,15.552c-0.032,0.097-0.2,0.512-0.504,1.248
		c-0.304,0.735-0.68,1.647-1.128,2.735c-0.448,1.088-0.936,2.256-1.464,3.504c-0.528,1.248-1.032,2.449-1.512,3.601
		c-0.288,0.64-0.704,1.128-1.248,1.464C105.627,269.112,105.003,269.28,104.299,269.28z"/>
	<path fill="#083E00" d="M131.898,269.375c-0.16,0-0.367-0.04-0.624-0.119c-0.255-0.08-0.384-0.201-0.384-0.36
		c0-0.192,0.08-0.368,0.24-0.528c0.161-0.16,0.257-0.256,0.288-0.287c0.576-0.161,1.136-0.465,1.68-0.912
		c0.544-0.449,1.04-1.152,1.488-2.112c0.352-0.736,0.632-1.656,0.84-2.761c0.208-1.104,0.36-2.264,0.456-3.479
		c0.096-1.216,0.16-2.399,0.192-3.552c0.031-1.152,0.048-2.144,0.048-2.977v-10.08c0-0.863-0.161-1.623-0.48-2.279
		c-0.32-0.656-0.896-1.063-1.728-1.225c-0.128-0.031-0.224-0.111-0.288-0.24c-0.064-0.127-0.096-0.255-0.096-0.383
		c0-0.32,0.112-0.512,0.336-0.576c1.216-0.288,2.239-0.688,3.072-1.2c0.832-0.512,1.472-0.912,1.92-1.2
		c0.16-0.096,0.296-0.176,0.408-0.24c0.112-0.063,0.184-0.096,0.216-0.096c0.224,0,0.336,0.08,0.336,0.24
		c-0.096,0.992-0.176,2.2-0.24,3.624c-0.064,1.424-0.096,2.681-0.096,3.768v8.832c0,0.992-0.024,2.153-0.072,3.479
		c-0.048,1.328-0.168,2.705-0.36,4.129c-0.192,1.424-0.528,2.775-1.008,4.056c-0.384,1.087-0.944,2.128-1.68,3.12
		c-0.737,0.992-1.505,1.8-2.304,2.424C133.258,269.064,132.538,269.375,131.898,269.375z M137.418,230.832
		c-0.672,0-1.24-0.232-1.704-0.696s-0.696-1.032-0.696-1.704c0-0.703,0.232-1.287,0.696-1.752c0.464-0.463,1.032-0.696,1.704-0.696
		c0.704,0,1.288,0.233,1.752,0.696c0.464,0.465,0.696,1.049,0.696,1.752c0,0.672-0.232,1.24-0.696,1.704
		S138.122,230.832,137.418,230.832z"/>
	<path fill="#083E00" d="M160.265,256.512c-0.224,0-0.336-0.129-0.336-0.385c0-0.32,0.041-0.791,0.121-1.416
		c0.079-0.623,0.119-1.143,0.119-1.56c0-0.063,0-0.12,0-0.168s0-0.087,0-0.12c-1.248,1.217-2.504,2.088-3.768,2.616
		c-1.265,0.528-2.648,0.792-4.152,0.792c-1.024,0-1.952-0.216-2.783-0.648c-0.833-0.432-1.488-1.071-1.969-1.92
		c-0.48-0.848-0.72-1.896-0.72-3.144v-9.744c0-0.703-0.161-1.264-0.479-1.68c-0.32-0.415-0.849-0.769-1.584-1.056
		c-0.161-0.064-0.305-0.145-0.433-0.24c-0.128-0.096-0.192-0.271-0.192-0.528c0-0.288,0.072-0.479,0.216-0.575
		c0.144-0.097,0.312-0.16,0.504-0.193c1.088-0.063,1.928-0.15,2.52-0.264c0.592-0.111,1.336-0.279,2.232-0.504
		c0.096-0.031,0.168-0.048,0.216-0.048s0.104,0,0.168,0c0.352,0,0.511,0.224,0.479,0.672c-0.096,0.737-0.168,1.353-0.215,1.849
		c-0.049,0.496-0.072,1.111-0.072,1.848v9.359c0,0.769,0.191,1.48,0.576,2.137c0.383,0.656,0.887,1.192,1.512,1.607
		c0.623,0.416,1.271,0.625,1.943,0.625c0.832,0,1.561-0.049,2.184-0.145c0.625-0.096,1.24-0.367,1.849-0.816
		c0.353-0.256,0.8-0.672,1.345-1.248c0.543-0.576,0.815-1.359,0.815-2.352v-8.784c0-0.672-0.2-1.176-0.601-1.512
		s-0.855-0.567-1.367-0.696c-0.513-0.127-0.929-0.191-1.248-0.191c-0.288,0-0.528-0.057-0.721-0.168
		c-0.191-0.112-0.287-0.328-0.287-0.648c0-0.288,0.104-0.48,0.312-0.576s0.439-0.145,0.696-0.145
		c0.991-0.031,1.815-0.071,2.472-0.119c0.655-0.049,1.248-0.128,1.776-0.24c0.527-0.111,1.08-0.248,1.656-0.408
		c0.063-0.031,0.144-0.055,0.239-0.072c0.097-0.016,0.176-0.023,0.24-0.023c0.415,0,0.624,0.176,0.624,0.527
		c0,0.033-0.008,0.089-0.023,0.168c-0.018,0.081-0.041,0.168-0.072,0.265c-0.033,0.097-0.072,0.368-0.12,0.815
		c-0.048,0.449-0.097,0.912-0.144,1.393c-0.049,0.48-0.072,0.848-0.072,1.104v11.088c0,0.865,0.088,1.48,0.264,1.849
		s0.375,0.552,0.6,0.552c0.256,0,0.632-0.023,1.129-0.072c0.495-0.047,0.855-0.072,1.079-0.072c0.16,0,0.319,0.033,0.48,0.097
		c0.159,0.064,0.24,0.24,0.24,0.528c0,0.256-0.064,0.424-0.192,0.504s-0.288,0.137-0.48,0.168c-1.248,0.16-2.32,0.4-3.215,0.72
		c-0.896,0.319-1.697,0.624-2.4,0.912c-0.096,0.031-0.24,0.088-0.432,0.168C160.601,256.471,160.426,256.512,160.265,256.512z"/>
	<path fill="#083E00" d="M170.106,255.744c-0.257,0-0.48-0.033-0.672-0.097c-0.192-0.063-0.288-0.208-0.288-0.432
		s0.104-0.384,0.312-0.479c0.208-0.097,0.472-0.193,0.792-0.289c0.448-0.159,0.904-0.344,1.368-0.552s0.696-0.632,0.696-1.272
		v-10.319c0-0.864-0.097-1.624-0.288-2.28c-0.192-0.655-0.704-1.047-1.536-1.176c-0.128-0.031-0.232-0.096-0.313-0.191
		c-0.08-0.097-0.119-0.24-0.119-0.433c0-0.319,0.127-0.512,0.384-0.576c0.863-0.224,1.552-0.456,2.063-0.696
		s0.968-0.512,1.368-0.815c0.399-0.304,0.888-0.632,1.464-0.984c0.064-0.031,0.128-0.071,0.192-0.12
		c0.063-0.048,0.144-0.072,0.24-0.072c0.191,0,0.288,0.113,0.288,0.336c0,0.225-0.041,0.682-0.12,1.369
		c-0.081,0.688-0.12,1.256-0.12,1.703c0,0.32,0.031,0.513,0.096,0.576h0.096c0.736-0.703,1.704-1.416,2.904-2.136
		s2.728-1.08,4.584-1.08c1.152,0,2.112,0.249,2.88,0.744c0.769,0.497,1.408,1.353,1.92,2.567h0.145
		c1.023-0.928,2.191-1.711,3.504-2.352c1.312-0.64,2.752-0.96,4.32-0.96c1.056,0,1.936,0.32,2.64,0.96
		c0.703,0.641,1.239,1.473,1.607,2.496c0.368,1.024,0.553,2.096,0.553,3.216v10.224c0,0.641,0.224,1.064,0.672,1.272
		c0.447,0.208,0.912,0.393,1.392,0.552c0.319,0.096,0.584,0.192,0.792,0.289c0.208,0.096,0.313,0.256,0.313,0.479
		c0,0.192-0.072,0.328-0.216,0.407c-0.145,0.08-0.393,0.121-0.744,0.121c-0.641,0-1.137-0.024-1.488-0.072
		c-0.353-0.049-0.681-0.088-0.984-0.12s-0.743-0.048-1.319-0.048c-0.545,0-0.992,0.016-1.345,0.048s-0.72,0.071-1.104,0.12
		c-0.384,0.048-0.896,0.072-1.536,0.072c-0.288,0-0.521-0.041-0.696-0.121c-0.176-0.079-0.264-0.215-0.264-0.407
		c0-0.256,0.104-0.433,0.313-0.528c0.207-0.096,0.472-0.176,0.792-0.24c0.511-0.127,0.983-0.303,1.416-0.527
		c0.432-0.224,0.647-0.656,0.647-1.297v-10.08c0-0.768-0.176-1.494-0.528-2.184c-0.353-0.688-0.815-1.256-1.392-1.703
		c-0.576-0.448-1.217-0.673-1.92-0.673c-0.801,0-1.544,0.097-2.232,0.288s-1.336,0.528-1.943,1.008
		c-0.896,0.705-1.345,1.856-1.345,3.457v9.887c0,0.641,0.24,1.073,0.721,1.297c0.479,0.225,0.96,0.4,1.439,0.527
		c0.319,0.064,0.584,0.152,0.792,0.264c0.208,0.113,0.313,0.281,0.313,0.505c0,0.192-0.08,0.328-0.24,0.407
		c-0.16,0.08-0.4,0.121-0.72,0.121c-0.641,0-1.145-0.024-1.513-0.072c-0.368-0.049-0.72-0.088-1.056-0.12s-0.792-0.048-1.368-0.048
		c-0.544,0-0.992,0.016-1.344,0.048c-0.353,0.032-0.72,0.071-1.104,0.12c-0.385,0.048-0.896,0.072-1.536,0.072
		c-0.257,0-0.48-0.041-0.672-0.121c-0.192-0.079-0.288-0.215-0.288-0.407c0-0.256,0.12-0.424,0.359-0.505
		c0.24-0.078,0.487-0.168,0.744-0.264c0.48-0.159,0.952-0.344,1.416-0.552s0.696-0.632,0.696-1.272v-10.08
		c0-0.768-0.177-1.494-0.528-2.184c-0.353-0.688-0.815-1.256-1.392-1.703c-0.576-0.448-1.217-0.673-1.92-0.673
		c-0.801,0-1.545,0.097-2.232,0.288c-0.688,0.191-1.336,0.528-1.944,1.008c-0.863,0.641-1.296,1.793-1.296,3.457v9.887
		c0,0.641,0.224,1.064,0.672,1.272s0.912,0.393,1.393,0.552c0.256,0.096,0.504,0.186,0.744,0.264
		c0.239,0.081,0.359,0.249,0.359,0.505c0,0.192-0.088,0.328-0.264,0.407c-0.176,0.08-0.408,0.121-0.696,0.121
		c-0.641,0-1.145-0.024-1.512-0.072c-0.368-0.049-0.713-0.088-1.032-0.12c-0.32-0.032-0.768-0.048-1.344-0.048
		c-0.545,0-0.984,0.016-1.32,0.048s-0.688,0.071-1.056,0.12C171.25,255.72,170.746,255.744,170.106,255.744z"/>
	<path fill="#083E00" d="M207.258,269.28c-0.16,0-0.368-0.023-0.624-0.072c-0.257-0.047-0.384-0.168-0.384-0.359
		c0-0.256,0.12-0.44,0.36-0.553c0.239-0.111,0.487-0.215,0.743-0.312c0.48-0.16,0.944-0.345,1.393-0.552
		c0.447-0.209,0.672-0.633,0.672-1.271v-24.336c0-0.256-0.072-0.641-0.216-1.152c-0.145-0.512-0.377-1.008-0.696-1.488
		c-0.32-0.48-0.752-0.768-1.296-0.863c-0.128-0.032-0.225-0.112-0.288-0.24c-0.064-0.128-0.096-0.256-0.096-0.385
		c0-0.16,0.031-0.287,0.096-0.384c0.063-0.096,0.144-0.159,0.24-0.192c1.216-0.287,2.256-0.6,3.12-0.936
		c0.863-0.336,1.68-0.664,2.447-0.984c0.032,0,0.049-0.008,0.049-0.023s0.016-0.024,0.048-0.024c0.063,0,0.127,0.048,0.191,0.144
		c0.064,0.097,0.097,0.193,0.097,0.289c0,0.287-0.041,0.744-0.12,1.367c-0.08,0.625-0.12,1.129-0.12,1.512
		c0,0.258,0.016,0.401,0.048,0.433c0.319-0.319,0.903-0.728,1.752-1.224c0.848-0.496,1.815-0.943,2.904-1.344
		c1.087-0.4,2.128-0.601,3.12-0.601c1.663,0,3.079,0.44,4.248,1.32c1.167,0.88,2.063,2.016,2.688,3.407
		c0.624,1.393,0.937,2.841,0.937,4.345c0,1.44-0.272,2.84-0.816,4.2c-0.545,1.36-1.313,2.584-2.304,3.672
		c-0.992,1.088-2.145,1.961-3.456,2.615c-1.313,0.656-2.721,0.984-4.225,0.984c-0.448,0-0.983-0.072-1.607-0.216
		s-1.232-0.329-1.824-0.552c-0.593-0.224-1.049-0.48-1.368-0.768c-0.032,0-0.064,0.184-0.096,0.551
		c-0.032,0.368-0.057,0.752-0.072,1.152c-0.017,0.4-0.023,0.648-0.023,0.744v8.977c0,0.415,0.168,0.744,0.504,0.983
		c0.336,0.24,0.72,0.415,1.151,0.528c0.433,0.111,0.808,0.216,1.128,0.312c0.256,0.097,0.504,0.2,0.744,0.312
		c0.24,0.112,0.36,0.297,0.36,0.553c0,0.191-0.128,0.313-0.384,0.359c-0.257,0.049-0.48,0.072-0.672,0.072
		c-0.929,0-1.704-0.04-2.328-0.119c-0.624-0.08-1.353-0.121-2.185-0.121c-0.544,0-0.983,0.016-1.319,0.049
		c-0.337,0.031-0.681,0.072-1.032,0.119C208.393,269.256,207.897,269.28,207.258,269.28z M218.49,254.783
		c0.479,0,1.063-0.144,1.752-0.432c0.688-0.288,1.375-0.752,2.063-1.393c0.688-0.639,1.264-1.503,1.729-2.592
		c0.463-1.087,0.695-2.432,0.695-4.031c0-1.855-0.239-3.344-0.72-4.465c-0.479-1.119-1.072-1.967-1.775-2.543
		c-0.705-0.576-1.425-0.961-2.16-1.152c-0.737-0.192-1.36-0.288-1.872-0.288c-0.769,0-1.561,0.161-2.376,0.479
		c-0.816,0.32-1.505,0.681-2.064,1.08c-0.561,0.4-0.84,0.713-0.84,0.937c0,0.704-0.008,1.416-0.024,2.136
		c-0.016,0.721-0.032,1.416-0.048,2.088c-0.017,0.672-0.032,1.271-0.048,1.801c-0.017,0.527-0.023,0.936-0.023,1.224
		c0,1.28,0.295,2.464,0.888,3.552c0.592,1.088,1.327,1.961,2.208,2.616C216.754,254.456,217.626,254.783,218.49,254.783z"/>
	<path fill="#083E00" d="M232.362,255.744c-0.288,0-0.521-0.041-0.696-0.121c-0.176-0.079-0.264-0.215-0.264-0.407
		c0-0.256,0.12-0.433,0.359-0.528c0.24-0.096,0.487-0.176,0.744-0.24c0.672-0.159,1.184-0.359,1.536-0.6
		c0.352-0.24,0.528-0.648,0.528-1.225v-10.416c0-0.863-0.152-1.631-0.456-2.303c-0.305-0.673-0.872-1.072-1.704-1.201
		c-0.161-0.031-0.28-0.096-0.36-0.191s-0.12-0.24-0.12-0.432c0-0.352,0.145-0.545,0.433-0.576c1.279-0.288,2.335-0.68,3.168-1.176
		c0.831-0.496,1.455-0.904,1.872-1.225c0.288-0.224,0.511-0.336,0.672-0.336c0.191,0,0.288,0.08,0.288,0.24
		c0,0.256-0.041,0.76-0.12,1.512c-0.08,0.752-0.152,1.584-0.216,2.496c-0.064,0.912-0.097,1.736-0.097,2.473v11.135
		c0,0.545,0.184,0.945,0.553,1.201c0.367,0.256,0.871,0.464,1.512,0.623c0.256,0.064,0.504,0.145,0.744,0.24
		c0.239,0.096,0.359,0.272,0.359,0.528c0,0.353-0.32,0.528-0.96,0.528c-0.608,0-1.097-0.024-1.464-0.072
		c-0.368-0.049-0.72-0.088-1.056-0.12s-0.792-0.048-1.368-0.048c-0.545,0-0.992,0.016-1.344,0.048
		c-0.353,0.032-0.704,0.071-1.057,0.12C233.497,255.72,233.002,255.744,232.362,255.744z M236.202,230.832
		c-0.672,0-1.24-0.232-1.704-0.696s-0.696-1.032-0.696-1.704c0-0.703,0.232-1.287,0.696-1.752c0.464-0.463,1.032-0.696,1.704-0.696
		c0.703,0,1.288,0.233,1.752,0.696c0.464,0.465,0.696,1.049,0.696,1.752c0,0.672-0.232,1.24-0.696,1.704
		S236.905,230.832,236.202,230.832z"/>
	<path fill="#083E00" d="M244.122,255.744c-0.288,0-0.521-0.041-0.696-0.121c-0.176-0.079-0.264-0.215-0.264-0.407
		c0-0.256,0.096-0.424,0.288-0.505c0.191-0.078,0.463-0.168,0.815-0.264c0.48-0.127,0.943-0.303,1.393-0.527
		c0.447-0.224,0.672-0.656,0.672-1.297v-10.319c0-0.864-0.089-1.6-0.265-2.208c-0.176-0.607-0.68-1.023-1.512-1.248
		c-0.128-0.064-0.24-0.136-0.336-0.216c-0.096-0.079-0.144-0.216-0.144-0.408c0-0.352,0.144-0.544,0.432-0.576
		c1.12-0.288,2.031-0.64,2.736-1.056c0.703-0.416,1.392-0.88,2.063-1.393c0.096-0.063,0.184-0.119,0.264-0.168
		c0.08-0.048,0.168-0.072,0.265-0.072c0.063,0,0.12,0.033,0.168,0.097c0.048,0.064,0.072,0.144,0.072,0.239
		c0,0.225-0.041,0.682-0.12,1.369c-0.081,0.688-0.12,1.256-0.12,1.703c0,0.129,0.007,0.248,0.023,0.36
		c0.016,0.112,0.04,0.185,0.072,0.216c1.12-1.056,2.312-1.855,3.576-2.4c1.264-0.543,2.647-0.815,4.152-0.815
		c1.567,0,2.863,0.641,3.888,1.92c1.023,1.28,1.536,2.864,1.536,4.752v10.224c0,0.641,0.224,1.064,0.672,1.272
		c0.447,0.208,0.912,0.393,1.392,0.552c0.256,0.096,0.504,0.201,0.744,0.313c0.24,0.112,0.36,0.296,0.36,0.552
		c0,0.192-0.112,0.312-0.336,0.36c-0.225,0.048-0.433,0.072-0.624,0.072c-0.641,0-1.137-0.024-1.488-0.072
		c-0.353-0.049-0.688-0.088-1.008-0.12c-0.32-0.032-0.769-0.048-1.344-0.048c-0.545,0-0.993,0.016-1.345,0.048
		c-0.353,0.032-0.712,0.071-1.08,0.12c-0.368,0.048-0.872,0.072-1.512,0.072c-0.16,0-0.36-0.024-0.6-0.072
		c-0.24-0.049-0.36-0.168-0.36-0.36c0-0.256,0.12-0.439,0.36-0.552c0.239-0.111,0.487-0.217,0.744-0.313
		c0.479-0.159,0.943-0.344,1.392-0.552c0.447-0.208,0.672-0.632,0.672-1.272v-10.08c0-1.407-0.393-2.503-1.176-3.287
		c-0.784-0.784-1.832-1.191-3.145-1.225c-1.151,0-2.159,0.186-3.023,0.553s-1.632,0.824-2.304,1.367
		c-0.129,0.129-0.225,0.297-0.288,0.504c-0.064,0.209-0.097,0.408-0.097,0.601v11.567c0,0.641,0.224,1.073,0.672,1.297
		c0.448,0.225,0.912,0.4,1.393,0.527c0.735,0.192,1.104,0.449,1.104,0.769c0,0.192-0.08,0.328-0.239,0.407
		c-0.161,0.08-0.401,0.121-0.721,0.121c-0.641,0-1.145-0.024-1.512-0.072c-0.368-0.049-0.713-0.088-1.032-0.12
		c-0.32-0.032-0.768-0.048-1.344-0.048c-0.545,0-0.984,0.016-1.32,0.048s-0.688,0.071-1.056,0.12
		C245.265,255.72,244.761,255.744,244.122,255.744z"/>
	<path fill="#083E00" d="M276.714,269.52c-2.721,0-4.872-0.521-6.456-1.561c-1.584-1.039-2.376-2.439-2.376-4.199
		c0-0.832,0.127-1.536,0.384-2.112c0.256-0.575,0.655-1.072,1.2-1.487c0.447-0.385,1.048-0.873,1.8-1.465
		c0.751-0.592,1.527-1.208,2.328-1.848l2.016,0.096c-1.536,0.992-2.608,1.936-3.216,2.832c-0.608,0.896-0.912,1.984-0.912,3.264
		c0,1.28,0.567,2.359,1.704,3.24c1.136,0.88,2.536,1.32,4.2,1.32c1.888,0,3.408-0.432,4.56-1.296c0.8-0.608,1.424-1.4,1.872-2.376
		c0.448-0.977,0.672-2.009,0.672-3.096c0-0.705-0.248-1.289-0.744-1.752c-0.496-0.465-1.271-0.84-2.327-1.129
		c-1.057-0.287-2.433-0.479-4.129-0.576c-3.008-0.224-5.096-0.623-6.264-1.199s-1.752-1.472-1.752-2.688
		c0-0.32,0.088-0.616,0.264-0.889c0.176-0.271,0.456-0.568,0.841-0.889c0.735-0.575,1.279-0.999,1.632-1.271
		c0.352-0.271,0.615-0.504,0.792-0.695c0.175-0.192,0.343-0.433,0.504-0.721l1.632,0.816c-0.704,0.256-1.296,0.6-1.776,1.031
		c-0.479,0.433-0.72,0.824-0.72,1.177c0,0.448,0.24,0.84,0.72,1.176c0.48,0.336,1.184,0.601,2.112,0.792
		c0.928,0.191,2.064,0.336,3.408,0.432c2.943,0.16,5.136,0.641,6.576,1.44c1.439,0.8,2.16,1.936,2.16,3.407
		c0,1.248-0.313,2.473-0.937,3.673s-1.448,2.296-2.472,3.288c-1.024,0.991-2.169,1.783-3.433,2.376
		C279.313,269.223,278.025,269.52,276.714,269.52z M277.002,250.512c-1.313,0-2.561-0.336-3.744-1.008
		c-1.185-0.672-2.152-1.561-2.904-2.664s-1.128-2.312-1.128-3.624c0-1.504,0.392-2.823,1.176-3.96
		c0.784-1.136,1.815-2.023,3.096-2.664s2.641-0.96,4.08-0.96c0.928,0,1.736,0.12,2.425,0.36c0.688,0.239,1.367,0.455,2.04,0.647
		c0.768,0.224,1.375,0.36,1.823,0.408s0.912,0.071,1.393,0.071c0.384,0,0.863-0.023,1.439-0.071s0.976-0.072,1.2-0.072
		c0.416,0,0.624,0.24,0.624,0.72c0,0.288-0.16,0.593-0.479,0.912c-0.161,0.16-0.288,0.24-0.385,0.24h-1.296
		c-0.864,0-1.344,0.129-1.439,0.384c-0.032,0.128-0.072,0.312-0.12,0.552s-0.089,0.504-0.12,0.793
		c-0.032,0.287-0.048,0.575-0.048,0.863c0,1.633-0.353,3.137-1.057,4.512c-0.704,1.377-1.632,2.48-2.783,3.313
		C279.641,250.096,278.377,250.512,277.002,250.512z M277.289,248.832c1.216,0,2.225-0.616,3.024-1.849
		c0.8-1.231,1.2-2.76,1.2-4.584c0-0.928-0.216-1.8-0.648-2.616c-0.432-0.815-0.992-1.471-1.68-1.968
		c-0.688-0.495-1.433-0.743-2.232-0.743c-0.736,0-1.432,0.264-2.088,0.791c-0.656,0.528-1.184,1.209-1.584,2.041
		s-0.6,1.744-0.6,2.735c0,1.12,0.208,2.152,0.624,3.097c0.415,0.943,0.976,1.695,1.68,2.256
		C275.689,248.552,276.457,248.832,277.289,248.832z"/>
</g>
</svg>
