<?xml version="1.0" encoding="utf-8"?>
<!-- Generator: Adobe Illustrator 14.0.0, SVG Export Plug-In . SVG Version: 6.00 Build 43363)  -->
<!DOCTYPE svg PUBLIC "-//W3C//DTD SVG 1.1//EN" "http://www.w3.org/Graphics/SVG/1.1/DTD/svg11.dtd">
<svg version="1.1" id="レイヤー_2" xmlns="http://www.w3.org/2000/svg" xmlns:xlink="http://www.w3.org/1999/xlink" x="0px"
	 y="0px" width="373.772px" height="263.76px" viewBox="347.903 -241.432 373.772 263.76"
	 enable-background="new 347.903 -241.432 373.772 263.76" xml:space="preserve">
<g>
	<path fill="#083E00" d="M349.438-207.352c-0.416,0-0.752-0.041-1.008-0.12c-0.256-0.081-0.384-0.216-0.384-0.408
		c0-0.384,0.528-0.672,1.584-0.864c1.216-0.224,2.144-0.592,2.784-1.104c0.64-0.512,0.96-1.328,0.96-2.448v-21.696
		c0-1.12-0.233-1.92-0.696-2.4c-0.465-0.48-1.305-0.832-2.52-1.056c-1.057-0.192-1.584-0.512-1.584-0.96
		c0-0.192,0.127-0.328,0.384-0.408c0.255-0.08,0.591-0.12,1.008-0.12c0.864,0,1.575,0.017,2.136,0.048
		c0.56,0.032,1.096,0.056,1.608,0.072c0.511,0.017,1.136,0.024,1.872,0.024c0.703,0,1.279-0.007,1.728-0.024
		c0.448-0.016,0.928-0.04,1.44-0.072c0.512-0.032,1.199-0.048,2.064-0.048c0.415,0,0.751,0.041,1.008,0.12
		c0.256,0.081,0.383,0.216,0.383,0.408c0,0.224-0.127,0.416-0.383,0.576c-0.257,0.161-0.656,0.288-1.201,0.384
		c-1.184,0.224-2.047,0.576-2.592,1.056c-0.544,0.48-0.815,1.28-0.815,2.4v21.696c0,1.121,0.336,1.937,1.008,2.448
		c0.672,0.512,1.601,0.88,2.784,1.104c0.543,0.096,0.943,0.208,1.199,0.336c0.256,0.128,0.385,0.304,0.385,0.528
		c0,0.192-0.129,0.328-0.385,0.408c-0.256,0.08-0.592,0.12-1.008,0.12c-0.863,0-1.576-0.024-2.135-0.072
		c-0.561-0.048-1.098-0.088-1.609-0.12c-0.512-0.032-1.136-0.048-1.871-0.048c-0.801,0-1.496,0.016-2.088,0.048
		c-0.593,0.032-1.2,0.072-1.824,0.12S350.302-207.352,349.438-207.352z"/>
	<path fill="#083E00" d="M383.278-206.872c-1.6,0-3.048-0.408-4.344-1.224s-2.32-1.936-3.072-3.36s-1.127-3.016-1.127-4.776
		c0-2.08,0.455-3.967,1.367-5.664c0.912-1.695,2.137-3.048,3.672-4.056c1.536-1.008,3.232-1.512,5.088-1.512
		c2.08,0,3.904,0.561,5.473,1.68c0.384,0.288,0.576,0.592,0.576,0.912c0,0.256-0.113,0.544-0.336,0.864
		c-0.225,0.32-0.497,0.584-0.816,0.792c-0.32,0.208-0.624,0.312-0.912,0.312c-0.16,0-0.32-0.056-0.48-0.168
		c-0.16-0.112-0.336-0.232-0.527-0.36c-0.705-0.544-1.488-1.056-2.352-1.536c-0.865-0.48-1.584-0.72-2.16-0.72
		c-1.568,0-2.841,0.729-3.816,2.184c-0.977,1.457-1.464,3.368-1.464,5.736c0,1.504,0.327,2.864,0.983,4.08
		c0.656,1.217,1.537,2.177,2.641,2.88c1.104,0.704,2.328,1.056,3.672,1.056c0.928,0,1.729-0.151,2.4-0.456
		c0.672-0.304,1.392-0.84,2.16-1.608c0.063-0.063,0.144-0.12,0.239-0.168c0.097-0.048,0.176-0.072,0.24-0.072
		c0.352,0,0.528,0.224,0.528,0.672c0,0.192-0.057,0.408-0.168,0.648c-0.113,0.24-0.297,0.521-0.553,0.84
		c-0.512,0.641-1.12,1.193-1.824,1.656c-0.703,0.464-1.48,0.808-2.328,1.032C385.19-206.985,384.27-206.872,383.278-206.872z"/>
	<path fill="#083E00" d="M397.487-206.92c-0.576,0-1.16-0.224-1.752-0.672c-0.593-0.448-1.088-0.992-1.488-1.632
		s-0.6-1.248-0.6-1.824c0-1.024,0.271-1.824,0.815-2.4s1.407-1.104,2.593-1.584l4.896-2.016c0.64-0.256,1.016-0.48,1.128-0.672
		c0.111-0.192,0.184-0.607,0.216-1.248l0.097-3.072c0.031-0.832-0.201-1.551-0.696-2.16c-0.497-0.607-1.208-0.912-2.136-0.912
		c-0.48,0-0.961,0.08-1.44,0.24s-0.88,0.368-1.2,0.624c-0.191,0.128-0.32,0.32-0.384,0.576c-0.064,0.256-0.097,0.528-0.097,0.816
		c0,0.128,0.008,0.272,0.024,0.432c0.017,0.161,0.024,0.305,0.024,0.432c0,0.161-0.201,0.376-0.6,0.648
		c-0.4,0.272-0.849,0.512-1.345,0.72c-0.497,0.208-0.904,0.312-1.224,0.312c-0.16,0-0.288-0.04-0.385-0.12
		c-0.096-0.08-0.144-0.184-0.144-0.312c0-0.512,0.168-1.063,0.504-1.656c0.336-0.592,0.808-1.144,1.416-1.656
		c0.735-0.672,1.536-1.264,2.4-1.776c0.864-0.511,1.712-0.912,2.544-1.2s1.567-0.432,2.208-0.432c1.151,0,2.104,0.408,2.856,1.224
		c0.751,0.816,1.111,1.832,1.08,3.048l-0.24,11.52c-0.033,0.672,0.119,1.217,0.455,1.632c0.336,0.417,0.76,0.624,1.272,0.624
		c0.8,0,1.392-0.175,1.776-0.528c0.159-0.16,0.287-0.24,0.384-0.24c0.159,0,0.288,0.048,0.384,0.144
		c0.096,0.096,0.145,0.225,0.145,0.384c0,0.353-0.177,0.704-0.528,1.056c-0.513,0.512-1.064,0.92-1.656,1.224
		c-0.593,0.304-1.145,0.456-1.655,0.456c-1.473,0-2.641-0.832-3.505-2.496h-0.144c-1.057,0.864-2.064,1.497-3.024,1.896
		C399.503-207.121,398.51-206.92,397.487-206.92z M399.743-209.224c0.64,0,1.184-0.104,1.632-0.312
		c0.448-0.208,0.848-0.488,1.2-0.84c0.16-0.16,0.295-0.375,0.408-0.648c0.111-0.271,0.184-0.711,0.216-1.32l0.096-2.352
		c0.032-0.352,0.017-0.607-0.048-0.768c-0.064-0.16-0.191-0.24-0.384-0.24c-0.064,0-0.177,0.016-0.337,0.048
		c-0.16,0.032-0.367,0.096-0.623,0.192c-1.697,0.608-2.873,1.241-3.528,1.896c-0.656,0.656-0.983,1.256-0.983,1.8
		c0,0.833,0.247,1.464,0.744,1.896C398.631-209.44,399.167-209.224,399.743-209.224z"/>
	<path fill="#083E00" d="M413.134-207.448c-0.287,0-0.52-0.041-0.695-0.12s-0.264-0.216-0.264-0.408
		c0-0.256,0.096-0.424,0.287-0.504c0.192-0.079,0.464-0.168,0.816-0.264c0.48-0.127,0.943-0.304,1.393-0.528
		c0.447-0.223,0.672-0.655,0.672-1.296v-10.32c0-0.864-0.089-1.6-0.264-2.208c-0.177-0.607-0.681-1.024-1.513-1.248
		c-0.128-0.064-0.239-0.136-0.336-0.216c-0.097-0.08-0.144-0.216-0.144-0.408c0-0.352,0.144-0.544,0.432-0.576
		c1.119-0.288,2.031-0.64,2.736-1.056c0.703-0.416,1.392-0.88,2.063-1.392c0.097-0.064,0.185-0.12,0.265-0.168
		c0.079-0.048,0.168-0.072,0.264-0.072c0.063,0,0.119,0.032,0.168,0.096c0.048,0.064,0.072,0.144,0.072,0.24
		c0,0.225-0.041,0.681-0.121,1.368c-0.08,0.688-0.119,1.256-0.119,1.704c0,0.128,0.008,0.248,0.023,0.36
		c0.016,0.113,0.04,0.185,0.072,0.216c1.119-1.056,2.312-1.856,3.576-2.4c1.264-0.543,2.647-0.816,4.152-0.816
		c1.566,0,2.863,0.641,3.888,1.92c1.023,1.28,1.536,2.864,1.536,4.752v10.224c0,0.641,0.223,1.064,0.672,1.272
		c0.447,0.208,0.912,0.393,1.393,0.552c0.255,0.096,0.504,0.2,0.743,0.312c0.24,0.112,0.36,0.296,0.36,0.552
		c0,0.192-0.113,0.312-0.336,0.36c-0.225,0.048-0.432,0.072-0.625,0.072c-0.64,0-1.136-0.024-1.487-0.072
		c-0.353-0.048-0.688-0.087-1.008-0.12c-0.32-0.032-0.769-0.048-1.345-0.048c-0.544,0-0.992,0.017-1.344,0.048
		c-0.352,0.032-0.713,0.072-1.08,0.12c-0.367,0.048-0.872,0.072-1.512,0.072c-0.16,0-0.359-0.024-0.6-0.072
		c-0.24-0.048-0.36-0.168-0.36-0.36c0-0.256,0.12-0.439,0.36-0.552c0.24-0.112,0.487-0.216,0.744-0.312
		c0.479-0.16,0.943-0.344,1.392-0.552c0.448-0.208,0.672-0.631,0.672-1.272v-10.08c0-1.408-0.392-2.503-1.176-3.288
		c-0.784-0.784-1.833-1.191-3.144-1.224c-1.152,0-2.16,0.185-3.024,0.552c-0.864,0.368-1.632,0.824-2.304,1.368
		c-0.129,0.128-0.225,0.296-0.289,0.504c-0.064,0.208-0.096,0.408-0.096,0.6v11.568c0,0.641,0.224,1.073,0.672,1.296
		c0.448,0.225,0.912,0.401,1.393,0.528c0.736,0.192,1.104,0.448,1.104,0.768c0,0.192-0.08,0.328-0.24,0.408s-0.4,0.12-0.719,0.12
		c-0.641,0-1.145-0.024-1.513-0.072c-0.368-0.048-0.712-0.087-1.032-0.12c-0.32-0.032-0.768-0.048-1.344-0.048
		c-0.545,0-0.984,0.017-1.32,0.048c-0.336,0.032-0.688,0.072-1.056,0.12C414.278-207.472,413.774-207.448,413.134-207.448z"/>
	<path fill="#083E00" d="M439.822-228.904c-0.128,0-0.216-0.127-0.265-0.384c-0.047-0.256-0.071-0.496-0.071-0.72
		c0.031-0.512,0.048-0.992,0.048-1.44c0-0.448,0-0.88,0-1.296c0-0.576-0.017-1.224-0.048-1.944c-0.032-0.72-0.081-1.608-0.144-2.664
		c0-0.352,0.104-0.68,0.312-0.984c0.208-0.304,0.407-0.535,0.601-0.696c0.383-0.319,0.727-0.568,1.031-0.744
		c0.304-0.175,0.648-0.264,1.032-0.264c0.255,0,0.432,0.152,0.528,0.456c0.096,0.305,0.144,0.665,0.144,1.08
		c0,0.833-0.137,1.792-0.408,2.88c-0.272,1.088-0.584,2.136-0.937,3.144c-0.352,1.008-0.656,1.8-0.911,2.376
		c-0.128,0.288-0.28,0.561-0.456,0.816C440.102-229.032,439.95-228.904,439.822-228.904z"/>
	<path fill="#083E00" d="M455.038-206.92c-1.568,0-2.793-0.48-3.672-1.44c-0.881-0.96-1.32-2.383-1.32-4.272v-11.136
		c0-0.256-0.096-0.44-0.288-0.552c-0.192-0.112-0.608-0.168-1.248-0.168h-0.288c-0.16,0-0.296-0.104-0.408-0.312
		c-0.112-0.208-0.168-0.424-0.168-0.648c0-0.064,0.049-0.16,0.145-0.288c0.096-0.127,0.16-0.208,0.191-0.24
		c0.641-0.448,1.225-0.896,1.752-1.344c0.528-0.448,1.008-0.888,1.44-1.32c0.433-0.432,0.792-0.824,1.08-1.176
		c0.159-0.16,0.296-0.295,0.407-0.408c0.112-0.112,0.248-0.168,0.408-0.168s0.313,0.032,0.457,0.096
		c0.144,0.064,0.199,0.208,0.168,0.432l-0.24,2.16c-0.033,0.353,0.048,0.592,0.24,0.72c0.191,0.128,0.495,0.192,0.912,0.192h5.471
		c0.128,0,0.24,0.104,0.337,0.312c0.096,0.208,0.144,0.456,0.144,0.744s-0.048,0.568-0.144,0.84
		c-0.097,0.272-0.209,0.408-0.337,0.408h-4.752c-0.8,0-1.319,0.064-1.56,0.192c-0.239,0.128-0.36,0.512-0.36,1.152v9.456
		c0,1.28,0.271,2.289,0.816,3.024c0.544,0.736,1.328,1.104,2.352,1.104c0.928,0,1.648-0.072,2.16-0.216s0.977-0.36,1.393-0.648
		c0.063-0.063,0.127-0.096,0.191-0.096c0.128,0,0.217,0.072,0.265,0.216s0.071,0.296,0.071,0.456c0,0.16-0.264,0.48-0.791,0.96
		c-0.528,0.48-1.217,0.928-2.064,1.344S456.029-206.92,455.038-206.92z"/>
	<path fill="#083E00" d="M487.774-206.68c-0.065,0-0.169-0.064-0.313-0.192c-0.145-0.128-0.217-0.225-0.217-0.288
		c0-0.32,0.041-0.775,0.121-1.368c0.079-0.592,0.119-1.096,0.119-1.512v-0.288c-0.479,0.736-1.248,1.488-2.304,2.256
		s-2.384,1.152-3.983,1.152c-1.824,0-3.4-0.48-4.729-1.44s-2.352-2.191-3.072-3.696c-0.72-1.504-1.08-3.056-1.08-4.656
		c0-1.855,0.432-3.6,1.297-5.232c0.863-1.632,2.104-2.959,3.719-3.984c1.616-1.024,3.545-1.536,5.785-1.536
		c0.639,0,1.287,0.056,1.943,0.168c0.656,0.113,1.16,0.232,1.512,0.36c0.289,0.096,0.496,0.144,0.625,0.144
		c0.223,0,0.336-0.384,0.336-1.152v-6.816c0-1.312-0.209-2.191-0.625-2.64c-0.416-0.448-1.008-0.736-1.775-0.864
		c-0.288-0.064-0.432-0.271-0.432-0.624c0-0.288,0.127-0.48,0.384-0.576c1.407-0.352,2.512-0.688,3.312-1.008
		c0.8-0.32,1.424-0.576,1.872-0.768c0.128-0.064,0.247-0.104,0.36-0.12c0.111-0.016,0.199-0.024,0.264-0.024
		c0.192,0,0.304,0.096,0.336,0.288c0,0.192-0.023,0.521-0.072,0.984c-0.047,0.464-0.104,1.145-0.168,2.04
		c-0.064,0.896-0.096,2.064-0.096,3.504v21.696c0,1.088,0.08,1.88,0.24,2.376s0.416,0.744,0.768,0.744
		c0.16,0,0.439-0.016,0.84-0.048c0.4-0.031,0.809-0.064,1.225-0.096c0.576-0.031,0.863,0.113,0.863,0.432
		c0,0.224-0.071,0.425-0.215,0.6c-0.145,0.176-0.297,0.264-0.457,0.264c-0.896,0.128-1.775,0.312-2.64,0.552
		c-0.864,0.24-1.856,0.6-2.976,1.08c-0.257,0.127-0.425,0.208-0.504,0.24C487.958-206.697,487.87-206.68,487.774-206.68z
		 M482.926-209.417c0.831,0,1.647-0.216,2.448-0.648c0.799-0.432,1.504-1,2.111-1.704l0.049-8.64c0-0.864-0.248-1.711-0.744-2.544
		c-0.497-0.832-1.185-1.512-2.064-2.04c-0.881-0.528-1.912-0.792-3.096-0.792c-0.736,0-1.568,0.224-2.496,0.672
		c-0.929,0.449-1.729,1.241-2.4,2.376c-0.672,1.136-1.008,2.776-1.008,4.92c0,1.824,0.271,3.288,0.816,4.392
		c0.543,1.104,1.207,1.944,1.992,2.52c0.783,0.576,1.584,0.968,2.399,1.176C481.749-209.52,482.413-209.417,482.926-209.417z"/>
	<path fill="#083E00" d="M506.157-206.92c-1.792,0-3.407-0.416-4.848-1.248c-1.439-0.832-2.584-1.975-3.432-3.432
		c-0.849-1.456-1.271-3.112-1.271-4.968c0-1.344,0.264-2.656,0.791-3.936c0.528-1.279,1.272-2.448,2.232-3.504
		s2.08-1.896,3.359-2.52s2.656-0.936,4.129-0.936c1.855,0,3.527,0.449,5.016,1.344c1.488,0.896,2.672,2.072,3.552,3.528
		c0.88,1.457,1.32,3.048,1.32,4.776c0,1.856-0.408,3.617-1.224,5.28c-0.816,1.664-2.025,3.016-3.625,4.056
		S508.557-206.92,506.157-206.92z M507.166-208.36c1.087,0,2.063-0.208,2.928-0.624c0.864-0.416,1.536-1.087,2.017-2.016
		c0.383-0.735,0.639-1.632,0.768-2.688c0.127-1.056,0.191-2.047,0.191-2.976c0-1.536-0.28-3.016-0.84-4.44
		c-0.561-1.423-1.344-2.592-2.352-3.504s-2.201-1.368-3.576-1.368c-0.863,0-1.641,0.136-2.328,0.408
		c-0.688,0.272-1.32,0.776-1.896,1.512c-0.64,0.8-1.055,1.776-1.248,2.928c-0.191,1.152-0.287,2.304-0.287,3.456
		c0,1.568,0.287,3.064,0.863,4.488s1.36,2.584,2.353,3.48C504.749-208.808,505.885-208.36,507.166-208.36z"/>
	<path fill="#083E00" d="M535.197-206.92c-0.992,0-1.92-0.152-2.784-0.456s-1.601-0.728-2.208-1.272
		c-0.16-0.352-0.28-0.943-0.36-1.776c-0.08-0.832-0.136-1.52-0.168-2.064c0-0.288,0.208-0.432,0.624-0.432
		c0.128,0,0.248,0.024,0.36,0.072c0.111,0.048,0.184,0.136,0.216,0.264c0.416,1.568,1.08,2.688,1.992,3.36
		c0.912,0.672,1.831,1.008,2.76,1.008c0.928,0,1.72-0.312,2.376-0.936s0.984-1.399,0.984-2.328c0-0.864-0.288-1.608-0.864-2.232
		s-1.584-1.384-3.023-2.28c-1.089-0.672-1.969-1.312-2.641-1.92s-1.16-1.231-1.464-1.872c-0.305-0.64-0.456-1.36-0.456-2.16
		c0-1.024,0.24-1.952,0.72-2.784c0.48-0.832,1.2-1.495,2.16-1.992c0.96-0.496,2.16-0.744,3.601-0.744
		c0.96,0,1.759,0.096,2.399,0.288c0.64,0.192,1.12,0.4,1.44,0.624c0.256,0.353,0.472,0.904,0.647,1.656
		c0.176,0.752,0.265,1.464,0.265,2.136c0,0.224-0.161,0.336-0.48,0.336c-0.191,0-0.376-0.04-0.552-0.12
		c-0.177-0.08-0.296-0.184-0.36-0.312c-0.416-1.056-0.936-1.864-1.56-2.424c-0.624-0.56-1.4-0.84-2.328-0.84
		c-0.8,0-1.512,0.24-2.136,0.72s-0.937,1.185-0.937,2.112c0,0.736,0.232,1.392,0.696,1.968s1.336,1.232,2.616,1.968
		c1.855,1.056,3.24,2.04,4.151,2.952c0.912,0.912,1.368,2.12,1.368,3.624c0,1.728-0.656,3.137-1.968,4.224
		C538.972-207.465,537.277-206.92,535.197-206.92z"/>
	<path fill="#083E00" d="M555.021-206.92c-1.793,0-3.408-0.416-4.849-1.248c-1.439-0.832-2.584-1.975-3.432-3.432
		c-0.849-1.456-1.272-3.112-1.272-4.968c0-1.344,0.265-2.656,0.792-3.936c0.528-1.279,1.272-2.448,2.232-3.504s2.08-1.896,3.36-2.52
		c1.279-0.624,2.655-0.936,4.128-0.936c1.855,0,3.527,0.449,5.016,1.344c1.488,0.896,2.672,2.072,3.552,3.528
		c0.88,1.457,1.32,3.048,1.32,4.776c0,1.856-0.408,3.617-1.224,5.28c-0.816,1.664-2.024,3.016-3.624,4.056
		C559.421-207.441,557.421-206.92,555.021-206.92z M556.029-208.36c1.087,0,2.063-0.208,2.928-0.624
		c0.864-0.416,1.536-1.087,2.016-2.016c0.385-0.735,0.641-1.632,0.769-2.688c0.127-1.056,0.191-2.047,0.191-2.976
		c0-1.536-0.28-3.016-0.84-4.44c-0.56-1.423-1.344-2.592-2.352-3.504s-2.2-1.368-3.576-1.368c-0.864,0-1.641,0.136-2.328,0.408
		c-0.688,0.272-1.32,0.776-1.896,1.512c-0.641,0.8-1.057,1.776-1.248,2.928c-0.192,1.152-0.288,2.304-0.288,3.456
		c0,1.568,0.288,3.064,0.864,4.488c0.575,1.424,1.359,2.584,2.352,3.48C553.612-208.808,554.749-208.36,556.029-208.36z"/>
	<path fill="#083E00" d="M569.661-207.448c-0.257,0-0.48-0.032-0.672-0.096c-0.192-0.063-0.288-0.208-0.288-0.432
		c0-0.224,0.104-0.384,0.312-0.48c0.208-0.096,0.472-0.192,0.792-0.288c0.448-0.16,0.904-0.344,1.368-0.552
		c0.464-0.208,0.696-0.631,0.696-1.272v-10.32c0-0.864-0.097-1.624-0.288-2.28c-0.192-0.655-0.704-1.047-1.536-1.176
		c-0.128-0.032-0.232-0.096-0.313-0.192c-0.08-0.096-0.119-0.24-0.119-0.432c0-0.319,0.127-0.512,0.384-0.576
		c0.863-0.223,1.552-0.456,2.063-0.696c0.512-0.24,0.968-0.512,1.368-0.816c0.399-0.304,0.888-0.632,1.464-0.984
		c0.064-0.031,0.128-0.072,0.192-0.12c0.063-0.048,0.144-0.072,0.24-0.072c0.191,0,0.288,0.113,0.288,0.336
		c0,0.225-0.041,0.681-0.12,1.368c-0.081,0.688-0.12,1.256-0.12,1.704c0,0.32,0.031,0.512,0.096,0.576h0.096
		c0.736-0.704,1.704-1.416,2.904-2.136s2.728-1.08,4.584-1.08c1.152,0,2.112,0.249,2.88,0.744c0.769,0.497,1.408,1.352,1.92,2.568
		h0.145c1.023-0.928,2.191-1.711,3.504-2.352c1.312-0.64,2.752-0.96,4.32-0.96c1.056,0,1.936,0.32,2.64,0.96
		c0.703,0.641,1.239,1.472,1.607,2.496c0.368,1.024,0.553,2.096,0.553,3.216v10.224c0,0.641,0.224,1.064,0.672,1.272
		c0.447,0.208,0.912,0.393,1.392,0.552c0.319,0.096,0.584,0.192,0.792,0.288c0.208,0.096,0.313,0.256,0.313,0.48
		c0,0.192-0.072,0.328-0.216,0.408c-0.145,0.08-0.393,0.12-0.744,0.12c-0.641,0-1.137-0.024-1.488-0.072
		c-0.353-0.048-0.681-0.087-0.984-0.12c-0.304-0.032-0.743-0.048-1.319-0.048c-0.545,0-0.992,0.017-1.345,0.048
		c-0.353,0.032-0.72,0.072-1.104,0.12c-0.384,0.048-0.896,0.072-1.536,0.072c-0.288,0-0.521-0.041-0.696-0.12
		s-0.264-0.216-0.264-0.408c0-0.256,0.104-0.432,0.313-0.528c0.207-0.096,0.472-0.175,0.792-0.24
		c0.511-0.127,0.983-0.304,1.416-0.528c0.432-0.223,0.647-0.655,0.647-1.296v-10.08c0-0.768-0.176-1.495-0.528-2.184
		c-0.353-0.688-0.815-1.255-1.392-1.704c-0.576-0.448-1.217-0.672-1.92-0.672c-0.801,0-1.544,0.096-2.232,0.288
		s-1.336,0.528-1.943,1.008c-0.896,0.704-1.345,1.856-1.345,3.456v9.888c0,0.641,0.24,1.073,0.721,1.296
		c0.479,0.225,0.96,0.401,1.439,0.528c0.319,0.064,0.584,0.152,0.792,0.264c0.208,0.113,0.313,0.281,0.313,0.504
		c0,0.192-0.08,0.328-0.24,0.408s-0.4,0.12-0.72,0.12c-0.641,0-1.145-0.024-1.513-0.072c-0.368-0.048-0.72-0.087-1.056-0.12
		c-0.336-0.032-0.792-0.048-1.368-0.048c-0.544,0-0.992,0.017-1.344,0.048c-0.353,0.032-0.72,0.072-1.104,0.12
		c-0.385,0.048-0.896,0.072-1.536,0.072c-0.257,0-0.48-0.041-0.672-0.12c-0.192-0.08-0.288-0.216-0.288-0.408
		c0-0.256,0.12-0.424,0.359-0.504c0.24-0.079,0.487-0.168,0.744-0.264c0.48-0.16,0.952-0.344,1.416-0.552
		c0.464-0.208,0.696-0.631,0.696-1.272v-10.08c0-0.768-0.177-1.495-0.528-2.184c-0.353-0.688-0.815-1.255-1.392-1.704
		c-0.576-0.448-1.217-0.672-1.92-0.672c-0.801,0-1.545,0.096-2.232,0.288c-0.688,0.192-1.336,0.528-1.944,1.008
		c-0.863,0.64-1.296,1.792-1.296,3.456v9.888c0,0.641,0.224,1.064,0.672,1.272c0.448,0.208,0.912,0.393,1.393,0.552
		c0.256,0.096,0.504,0.185,0.744,0.264c0.239,0.081,0.359,0.249,0.359,0.504c0,0.192-0.088,0.328-0.264,0.408
		s-0.408,0.12-0.696,0.12c-0.641,0-1.145-0.024-1.512-0.072c-0.368-0.048-0.713-0.087-1.032-0.12
		c-0.32-0.032-0.768-0.048-1.344-0.048c-0.545,0-0.984,0.017-1.32,0.048c-0.336,0.032-0.688,0.072-1.056,0.12
		C570.804-207.472,570.301-207.448,569.661-207.448z"/>
	<path fill="#083E00" d="M615.116-206.872c-1.76,0-3.296-0.432-4.607-1.296c-1.313-0.864-2.337-2.088-3.072-3.672
		c-0.736-1.584-1.104-3.416-1.104-5.496c0-1.855,0.423-3.543,1.271-5.064c0.848-1.52,1.976-2.743,3.384-3.672
		c1.408-0.928,2.944-1.392,4.608-1.392c1.279,0,2.416,0.256,3.408,0.768c0.991,0.512,1.768,1.224,2.328,2.136
		c0.559,0.912,0.84,1.96,0.84,3.144c0,0.993-0.48,1.488-1.44,1.488h-10.128c-0.448,0-0.761,0.12-0.936,0.36
		c-0.177,0.24-0.265,0.712-0.265,1.416c0,1.536,0.336,2.937,1.008,4.2c0.673,1.264,1.568,2.272,2.688,3.024
		c1.12,0.752,2.352,1.128,3.696,1.128c0.96,0,1.831-0.184,2.615-0.552c0.784-0.368,1.48-0.904,2.089-1.608
		c0.127-0.16,0.223-0.264,0.288-0.312c0.063-0.048,0.144-0.072,0.239-0.072c0.256,0,0.384,0.161,0.384,0.48
		c0,0.608-0.287,1.28-0.863,2.016c-0.48,0.608-1.057,1.136-1.729,1.584c-0.672,0.448-1.408,0.792-2.208,1.032
		C616.812-206.992,615.98-206.872,615.116-206.872z M610.7-221.417h4.368c0.769,0,1.424-0.016,1.968-0.048
		c0.544-0.031,1.072-0.096,1.584-0.192c0.16-0.032,0.265-0.136,0.313-0.312c0.048-0.175,0.072-0.424,0.072-0.744
		c0-0.928-0.408-1.72-1.225-2.376c-0.815-0.655-1.784-0.984-2.903-0.984c-0.737,0-1.473,0.216-2.208,0.648
		c-0.737,0.432-1.345,0.968-1.824,1.608c-0.48,0.641-0.72,1.28-0.72,1.92C610.125-221.576,610.316-221.417,610.7-221.417z"/>
	<path fill="#083E00" d="M632.684-206.92c-1.568,0-2.793-0.48-3.672-1.44c-0.881-0.96-1.32-2.383-1.32-4.272v-11.136
		c0-0.256-0.096-0.44-0.288-0.552c-0.192-0.112-0.608-0.168-1.248-0.168h-0.288c-0.16,0-0.296-0.104-0.408-0.312
		c-0.112-0.208-0.168-0.424-0.168-0.648c0-0.064,0.048-0.16,0.145-0.288c0.096-0.127,0.159-0.208,0.191-0.24
		c0.64-0.448,1.225-0.896,1.752-1.344c0.528-0.448,1.009-0.888,1.44-1.32c0.432-0.432,0.792-0.824,1.08-1.176
		c0.159-0.16,0.296-0.295,0.408-0.408c0.111-0.112,0.247-0.168,0.407-0.168s0.313,0.032,0.456,0.096
		c0.145,0.064,0.2,0.208,0.168,0.432l-0.239,2.16c-0.032,0.353,0.048,0.592,0.239,0.72c0.192,0.128,0.496,0.192,0.912,0.192h5.473
		c0.127,0,0.239,0.104,0.336,0.312c0.096,0.208,0.144,0.456,0.144,0.744s-0.048,0.568-0.144,0.84
		c-0.097,0.272-0.209,0.408-0.336,0.408h-4.752c-0.801,0-1.32,0.064-1.561,0.192c-0.24,0.128-0.359,0.512-0.359,1.152v9.456
		c0,1.28,0.271,2.289,0.815,3.024c0.544,0.736,1.328,1.104,2.353,1.104c0.928,0,1.647-0.072,2.159-0.216s0.977-0.36,1.393-0.648
		c0.063-0.063,0.127-0.096,0.191-0.096c0.128,0,0.217,0.072,0.265,0.216s0.072,0.296,0.072,0.456c0,0.16-0.265,0.48-0.792,0.96
		c-0.528,0.48-1.217,0.928-2.064,1.344C634.595-207.129,633.676-206.92,632.684-206.92z"/>
	<path fill="#083E00" d="M640.556-207.448c-0.641,0-0.96-0.176-0.96-0.528c0-0.288,0.367-0.544,1.104-0.768
		c0.48-0.16,0.937-0.368,1.368-0.624c0.433-0.256,0.664-0.704,0.696-1.344v-24.048c0-0.864-0.145-1.624-0.432-2.28
		c-0.288-0.655-0.849-1.047-1.681-1.176c-0.288-0.064-0.432-0.288-0.432-0.672c0-0.288,0.127-0.48,0.384-0.576
		c0.448-0.16,0.984-0.336,1.608-0.528s1.271-0.408,1.943-0.648c0.672-0.24,1.264-0.472,1.776-0.696
		c0.128-0.063,0.224-0.096,0.288-0.096c0.096,0,0.176,0.032,0.24,0.096c0.063,0.064,0.096,0.144,0.096,0.24
		c0,0.192-0.041,0.464-0.12,0.816c-0.08,0.353-0.152,0.96-0.216,1.824c-0.064,0.864-0.096,2.16-0.096,3.888v8.352
		c0,0.512,0.023,0.88,0.071,1.104c0.048,0.224,0.136,0.449,0.265,0.672c0.511-0.384,1.144-0.808,1.896-1.272
		c0.752-0.463,1.592-0.872,2.521-1.224c0.928-0.352,1.888-0.528,2.88-0.528c1.567,0,2.871,0.617,3.912,1.848
		c1.039,1.232,1.56,2.792,1.56,4.68v10.08c0,0.641,0.208,1.112,0.624,1.416c0.416,0.305,0.864,0.537,1.344,0.696
		c0.352,0.096,0.624,0.2,0.816,0.312c0.191,0.112,0.288,0.264,0.288,0.456c0,0.352-0.32,0.528-0.96,0.528
		c-0.641,0-1.128-0.024-1.464-0.072c-0.336-0.048-0.656-0.087-0.96-0.12c-0.305-0.032-0.744-0.048-1.32-0.048
		c-0.545,0-0.977,0.017-1.296,0.048c-0.32,0.032-0.648,0.072-0.984,0.12c-0.336,0.048-0.824,0.072-1.464,0.072
		c-0.641,0-0.96-0.176-0.96-0.528c0-0.224,0.096-0.376,0.288-0.456c0.192-0.08,0.464-0.184,0.815-0.312
		c0.48-0.16,0.912-0.392,1.297-0.696c0.384-0.304,0.575-0.775,0.575-1.416v-9.792c0-0.799-0.232-1.528-0.695-2.184
		c-0.465-0.655-1.032-1.176-1.704-1.56c-0.672-0.384-1.36-0.576-2.064-0.576c-0.608,0-1.313,0.088-2.111,0.264
		c-0.801,0.176-1.425,0.44-1.872,0.792c-0.513,0.416-0.856,0.848-1.032,1.296c-0.177,0.448-0.264,1.168-0.264,2.16v9.744
		c0.031,0.641,0.231,1.088,0.6,1.344c0.367,0.256,0.792,0.464,1.271,0.624c0.353,0.096,0.616,0.2,0.792,0.312
		c0.176,0.112,0.265,0.264,0.265,0.456c0,0.352-0.32,0.528-0.96,0.528c-0.641,0-1.121-0.024-1.44-0.072
		c-0.32-0.048-0.624-0.087-0.912-0.12c-0.288-0.032-0.72-0.048-1.296-0.048c-0.544,0-0.983,0.017-1.319,0.048
		c-0.337,0.032-0.688,0.072-1.057,0.12C641.7-207.472,641.196-207.448,640.556-207.448z"/>
	<path fill="#083E00" d="M665.516-207.448c-0.288,0-0.521-0.041-0.696-0.12s-0.264-0.216-0.264-0.408
		c0-0.256,0.12-0.432,0.359-0.528c0.24-0.096,0.487-0.175,0.744-0.24c0.672-0.16,1.184-0.36,1.536-0.6
		c0.352-0.24,0.528-0.648,0.528-1.224v-10.416c0-0.864-0.152-1.632-0.456-2.304c-0.305-0.672-0.872-1.072-1.704-1.2
		c-0.161-0.032-0.28-0.096-0.36-0.192c-0.08-0.096-0.12-0.24-0.12-0.432c0-0.352,0.145-0.544,0.433-0.576
		c1.279-0.288,2.335-0.679,3.168-1.176c0.831-0.496,1.455-0.904,1.872-1.224c0.288-0.224,0.511-0.336,0.672-0.336
		c0.191,0,0.288,0.08,0.288,0.24c0,0.256-0.041,0.76-0.12,1.512c-0.08,0.752-0.152,1.584-0.216,2.496
		c-0.064,0.912-0.097,1.736-0.097,2.472v11.136c0,0.544,0.184,0.944,0.553,1.2c0.367,0.256,0.871,0.464,1.512,0.624
		c0.256,0.064,0.504,0.144,0.744,0.24c0.239,0.096,0.359,0.272,0.359,0.528c0,0.352-0.32,0.528-0.96,0.528
		c-0.608,0-1.097-0.024-1.464-0.072c-0.368-0.048-0.72-0.087-1.056-0.12c-0.336-0.032-0.792-0.048-1.368-0.048
		c-0.545,0-0.992,0.017-1.344,0.048c-0.353,0.032-0.704,0.072-1.057,0.12C666.651-207.472,666.156-207.448,665.516-207.448z
		 M669.356-232.36c-0.672,0-1.24-0.231-1.704-0.696c-0.464-0.464-0.696-1.032-0.696-1.704c0-0.704,0.232-1.288,0.696-1.752
		c0.464-0.463,1.032-0.696,1.704-0.696c0.703,0,1.288,0.233,1.752,0.696c0.464,0.464,0.696,1.048,0.696,1.752
		c0,0.672-0.232,1.24-0.696,1.704C670.644-232.592,670.059-232.36,669.356-232.36z"/>
	<path fill="#083E00" d="M677.276-207.448c-0.288,0-0.521-0.041-0.696-0.12s-0.264-0.216-0.264-0.408
		c0-0.256,0.096-0.424,0.288-0.504c0.191-0.079,0.463-0.168,0.815-0.264c0.48-0.127,0.943-0.304,1.393-0.528
		c0.447-0.223,0.672-0.655,0.672-1.296v-10.32c0-0.864-0.089-1.6-0.265-2.208c-0.176-0.607-0.68-1.024-1.512-1.248
		c-0.128-0.064-0.24-0.136-0.336-0.216c-0.096-0.08-0.144-0.216-0.144-0.408c0-0.352,0.144-0.544,0.432-0.576
		c1.12-0.288,2.031-0.64,2.736-1.056c0.703-0.416,1.392-0.88,2.063-1.392c0.096-0.064,0.184-0.12,0.264-0.168
		c0.08-0.048,0.168-0.072,0.265-0.072c0.063,0,0.12,0.032,0.168,0.096c0.048,0.064,0.072,0.144,0.072,0.24
		c0,0.225-0.041,0.681-0.12,1.368c-0.081,0.688-0.12,1.256-0.12,1.704c0,0.128,0.007,0.248,0.023,0.36
		c0.016,0.113,0.04,0.185,0.072,0.216c1.12-1.056,2.312-1.856,3.576-2.4c1.264-0.543,2.647-0.816,4.152-0.816
		c1.567,0,2.863,0.641,3.888,1.92c1.023,1.28,1.536,2.864,1.536,4.752v10.224c0,0.641,0.224,1.064,0.672,1.272
		c0.447,0.208,0.912,0.393,1.392,0.552c0.256,0.096,0.504,0.2,0.744,0.312c0.24,0.112,0.36,0.296,0.36,0.552
		c0,0.192-0.112,0.312-0.336,0.36c-0.225,0.048-0.433,0.072-0.624,0.072c-0.641,0-1.137-0.024-1.488-0.072
		c-0.353-0.048-0.688-0.087-1.008-0.12c-0.32-0.032-0.769-0.048-1.344-0.048c-0.545,0-0.993,0.017-1.345,0.048
		c-0.353,0.032-0.712,0.072-1.08,0.12c-0.368,0.048-0.872,0.072-1.512,0.072c-0.16,0-0.36-0.024-0.6-0.072
		c-0.24-0.048-0.36-0.168-0.36-0.36c0-0.256,0.12-0.439,0.36-0.552c0.239-0.112,0.487-0.216,0.744-0.312
		c0.479-0.16,0.943-0.344,1.392-0.552c0.447-0.208,0.672-0.631,0.672-1.272v-10.08c0-1.408-0.393-2.503-1.176-3.288
		c-0.784-0.784-1.832-1.191-3.145-1.224c-1.151,0-2.159,0.185-3.023,0.552c-0.864,0.368-1.632,0.824-2.304,1.368
		c-0.129,0.128-0.225,0.296-0.288,0.504c-0.064,0.208-0.097,0.408-0.097,0.6v11.568c0,0.641,0.224,1.073,0.672,1.296
		c0.448,0.225,0.912,0.401,1.393,0.528c0.735,0.192,1.104,0.448,1.104,0.768c0,0.192-0.08,0.328-0.239,0.408
		c-0.161,0.08-0.401,0.12-0.721,0.12c-0.641,0-1.145-0.024-1.512-0.072c-0.368-0.048-0.713-0.087-1.032-0.12
		c-0.32-0.032-0.768-0.048-1.344-0.048c-0.545,0-0.984,0.017-1.32,0.048c-0.336,0.032-0.688,0.072-1.056,0.12
		C678.42-207.472,677.916-207.448,677.276-207.448z"/>
	<path fill="#083E00" d="M709.868-193.672c-2.721,0-4.872-0.521-6.456-1.56c-1.584-1.04-2.376-2.44-2.376-4.2
		c0-0.833,0.127-1.536,0.384-2.112c0.256-0.576,0.655-1.072,1.2-1.488c0.447-0.384,1.048-0.872,1.8-1.464
		c0.751-0.593,1.527-1.208,2.328-1.848l2.016,0.096c-1.536,0.991-2.608,1.936-3.216,2.832c-0.608,0.896-0.912,1.984-0.912,3.264
		c0,1.28,0.567,2.359,1.704,3.24c1.136,0.879,2.536,1.32,4.2,1.32c1.888,0,3.408-0.432,4.56-1.296c0.8-0.608,1.424-1.4,1.872-2.376
		c0.448-0.977,0.672-2.009,0.672-3.096c0-0.704-0.248-1.289-0.744-1.752c-0.496-0.464-1.271-0.84-2.327-1.128
		c-1.057-0.288-2.433-0.48-4.129-0.576c-3.008-0.224-5.096-0.624-6.264-1.2c-1.168-0.576-1.752-1.472-1.752-2.688
		c0-0.32,0.088-0.616,0.264-0.888c0.176-0.271,0.456-0.568,0.841-0.888c0.735-0.576,1.279-1,1.632-1.272
		c0.352-0.271,0.615-0.504,0.792-0.696c0.175-0.192,0.343-0.432,0.504-0.72l1.632,0.816c-0.704,0.256-1.296,0.6-1.776,1.032
		c-0.479,0.432-0.72,0.824-0.72,1.176c0,0.448,0.24,0.84,0.72,1.176c0.48,0.336,1.184,0.6,2.112,0.792
		c0.928,0.192,2.064,0.336,3.408,0.432c2.943,0.16,5.136,0.64,6.576,1.44c1.439,0.799,2.16,1.936,2.16,3.408
		c0,1.248-0.313,2.472-0.937,3.672c-0.624,1.2-1.448,2.295-2.472,3.288c-1.024,0.992-2.169,1.784-3.433,2.376
		C712.468-193.969,711.179-193.672,709.868-193.672z M710.156-212.68c-1.313,0-2.561-0.336-3.744-1.008
		c-1.185-0.672-2.152-1.56-2.904-2.664s-1.128-2.312-1.128-3.624c0-1.504,0.392-2.824,1.176-3.96
		c0.784-1.135,1.815-2.023,3.096-2.664s2.641-0.96,4.08-0.96c0.928,0,1.736,0.12,2.425,0.36c0.688,0.24,1.367,0.456,2.04,0.648
		c0.768,0.224,1.375,0.36,1.823,0.408c0.448,0.048,0.912,0.072,1.393,0.072c0.384,0,0.863-0.024,1.439-0.072
		c0.576-0.048,0.976-0.072,1.2-0.072c0.416,0,0.624,0.24,0.624,0.72c0,0.288-0.16,0.592-0.479,0.912
		c-0.161,0.161-0.288,0.24-0.385,0.24h-1.296c-0.864,0-1.344,0.128-1.439,0.384c-0.032,0.128-0.072,0.312-0.12,0.552
		c-0.048,0.24-0.089,0.504-0.12,0.792c-0.032,0.288-0.048,0.576-0.048,0.864c0,1.632-0.353,3.137-1.057,4.512
		c-0.704,1.376-1.632,2.48-2.783,3.312C712.796-213.096,711.531-212.68,710.156-212.68z M710.443-214.36
		c1.216,0,2.225-0.616,3.024-1.848c0.8-1.231,1.2-2.76,1.2-4.584c0-0.928-0.216-1.8-0.648-2.616
		c-0.432-0.816-0.992-1.472-1.68-1.968c-0.688-0.496-1.433-0.744-2.232-0.744c-0.736,0-1.432,0.264-2.088,0.792
		c-0.656,0.528-1.184,1.208-1.584,2.04c-0.4,0.833-0.6,1.744-0.6,2.736c0,1.121,0.208,2.152,0.624,3.096
		c0.415,0.944,0.976,1.696,1.68,2.256C708.844-214.64,709.611-214.36,710.443-214.36z"/>
	<path fill="#083E00" d="M349.487-135.448c-0.32,0-0.561-0.041-0.721-0.12s-0.24-0.216-0.24-0.408c0-0.256,0.096-0.424,0.289-0.504
		c0.191-0.079,0.463-0.168,0.815-0.264c0.607-0.16,1.063-0.392,1.368-0.696c0.304-0.304,0.455-0.679,0.455-1.128v-10.32
		c0-0.864-0.127-1.616-0.383-2.256c-0.257-0.64-0.785-1.04-1.584-1.2c-0.129-0.032-0.24-0.112-0.336-0.24
		c-0.097-0.127-0.145-0.255-0.145-0.384c0-0.319,0.145-0.512,0.432-0.576c0.832-0.255,1.704-0.631,2.616-1.128
		c0.912-0.496,1.624-0.904,2.136-1.224c0.192-0.127,0.344-0.216,0.457-0.264c0.111-0.048,0.199-0.072,0.264-0.072
		c0.159,0,0.24,0.113,0.24,0.336c0,0.096-0.009,0.336-0.024,0.72c-0.017,0.384-0.032,0.833-0.048,1.344
		c-0.017,0.513-0.041,1.025-0.072,1.536c0,0.064,0.031,0.096,0.096,0.096c0.512-0.64,1.08-1.2,1.704-1.68s1.264-0.864,1.92-1.152
		c0.655-0.288,1.288-0.432,1.896-0.432c0.673,0,1.225,0.144,1.656,0.432c0.433,0.288,0.648,0.656,0.648,1.104
		c0,0.32-0.088,0.672-0.264,1.056c-0.177,0.384-0.408,0.72-0.696,1.008s-0.593,0.432-0.912,0.432c-0.192,0-0.4-0.04-0.624-0.12
		c-0.225-0.08-0.465-0.184-0.72-0.312c-0.257-0.096-0.513-0.192-0.769-0.288c-0.256-0.096-0.512-0.144-0.768-0.144
		c-0.768,0-1.512,0.272-2.232,0.816c-0.72,0.545-1.08,1.616-1.08,3.216v9.696c0,0.417,0.225,0.761,0.672,1.032
		c0.448,0.272,1.072,0.536,1.873,0.792c0.352,0.096,0.623,0.192,0.815,0.288c0.192,0.096,0.288,0.256,0.288,0.48
		c0,0.352-0.32,0.528-0.96,0.528c-0.96,0-1.688-0.041-2.185-0.12s-1.16-0.12-1.991-0.12c-0.545,0-0.984,0.017-1.32,0.048
		c-0.336,0.032-0.688,0.072-1.056,0.12C350.63-135.472,350.126-135.448,349.487-135.448z"/>
	<path fill="#083E00" d="M365.278-135.448c-0.287,0-0.52-0.041-0.695-0.12s-0.264-0.216-0.264-0.408
		c0-0.256,0.119-0.432,0.359-0.528c0.24-0.096,0.488-0.175,0.744-0.24c0.672-0.16,1.184-0.36,1.536-0.6
		c0.352-0.24,0.528-0.648,0.528-1.224v-10.416c0-0.864-0.152-1.632-0.457-2.304c-0.304-0.672-0.871-1.072-1.703-1.2
		c-0.16-0.032-0.281-0.096-0.36-0.192c-0.08-0.096-0.12-0.24-0.12-0.432c0-0.352,0.145-0.544,0.432-0.576
		c1.28-0.288,2.336-0.679,3.168-1.176c0.832-0.496,1.457-0.904,1.873-1.224c0.287-0.224,0.512-0.336,0.672-0.336
		c0.191,0,0.287,0.08,0.287,0.24c0,0.256-0.04,0.76-0.119,1.512c-0.08,0.752-0.152,1.584-0.217,2.496s-0.096,1.736-0.096,2.472
		v11.136c0,0.544,0.184,0.944,0.553,1.2c0.367,0.256,0.871,0.464,1.512,0.624c0.256,0.064,0.504,0.144,0.744,0.24
		c0.24,0.096,0.359,0.272,0.359,0.528c0,0.352-0.32,0.528-0.959,0.528c-0.609,0-1.098-0.024-1.465-0.072
		c-0.368-0.048-0.72-0.087-1.056-0.12c-0.336-0.032-0.792-0.048-1.368-0.048c-0.545,0-0.992,0.017-1.344,0.048
		c-0.353,0.032-0.705,0.072-1.057,0.12C366.415-135.472,365.919-135.448,365.278-135.448z M369.119-160.36
		c-0.673,0-1.241-0.231-1.704-0.696c-0.465-0.464-0.696-1.032-0.696-1.704c0-0.704,0.231-1.288,0.696-1.752
		c0.463-0.463,1.031-0.696,1.704-0.696c0.703,0,1.288,0.233,1.752,0.696c0.464,0.464,0.696,1.048,0.696,1.752
		c0,0.672-0.232,1.24-0.696,1.704C370.407-160.592,369.822-160.36,369.119-160.36z"/>
	<path fill="#083E00" d="M381.839-134.92c-0.992,0-1.92-0.152-2.784-0.456s-1.601-0.728-2.208-1.272
		c-0.16-0.352-0.28-0.943-0.359-1.776c-0.08-0.832-0.137-1.52-0.168-2.064c0-0.288,0.207-0.432,0.623-0.432
		c0.128,0,0.248,0.024,0.36,0.072c0.112,0.048,0.184,0.136,0.216,0.264c0.416,1.568,1.08,2.688,1.992,3.36
		c0.912,0.672,1.832,1.008,2.76,1.008s1.721-0.312,2.377-0.936c0.654-0.624,0.983-1.399,0.983-2.328
		c0-0.864-0.288-1.608-0.864-2.232s-1.584-1.384-3.023-2.28c-1.089-0.672-1.969-1.312-2.641-1.92s-1.16-1.231-1.464-1.872
		c-0.304-0.64-0.456-1.36-0.456-2.16c0-1.024,0.24-1.952,0.721-2.784c0.479-0.832,1.199-1.495,2.16-1.992
		c0.959-0.496,2.159-0.744,3.6-0.744c0.959,0,1.76,0.096,2.4,0.288c0.639,0.192,1.119,0.4,1.439,0.624
		c0.256,0.353,0.472,0.904,0.648,1.656c0.175,0.752,0.264,1.464,0.264,2.136c0,0.224-0.16,0.336-0.48,0.336
		c-0.191,0-0.377-0.04-0.552-0.12c-0.177-0.08-0.296-0.184-0.36-0.312c-0.416-1.056-0.936-1.864-1.56-2.424
		c-0.624-0.56-1.4-0.84-2.328-0.84c-0.8,0-1.513,0.24-2.136,0.72c-0.624,0.48-0.936,1.185-0.936,2.112
		c0,0.736,0.23,1.392,0.695,1.968c0.463,0.576,1.336,1.232,2.616,1.968c1.855,1.056,3.239,2.04,4.151,2.952s1.368,2.12,1.368,3.624
		c0,1.728-0.656,3.137-1.968,4.224C385.614-135.465,383.919-134.92,381.839-134.92z"/>
	<path fill="#083E00" d="M392.446-135.448c-0.736,0-1.104-0.176-1.104-0.528c0-0.256,0.12-0.424,0.359-0.504
		c0.24-0.079,0.488-0.168,0.744-0.264c0.48-0.16,0.943-0.368,1.393-0.624c0.447-0.256,0.672-0.704,0.672-1.344v-24.048
		c0-1.12-0.16-1.936-0.48-2.448c-0.32-0.511-0.88-0.864-1.68-1.056c-0.288-0.064-0.432-0.271-0.432-0.624
		c0-0.32,0.127-0.512,0.384-0.576c0.831-0.192,1.552-0.392,2.16-0.6c0.607-0.208,1.159-0.416,1.655-0.624
		c0.496-0.208,0.984-0.408,1.465-0.6c0.191-0.096,0.336-0.144,0.432-0.144s0.168,0.032,0.216,0.096
		c0.048,0.064,0.072,0.176,0.072,0.336c0,0.32-0.072,0.96-0.216,1.92c-0.145,0.96-0.217,2.464-0.217,4.512v15.744
		c0,0.288,0.08,0.432,0.24,0.432c0.192,0,0.439-0.08,0.744-0.24c0.304-0.16,0.632-0.4,0.984-0.72
		c1.312-1.12,2.407-2.136,3.287-3.048c0.881-0.912,1.48-1.543,1.801-1.896c0.16-0.192,0.271-0.343,0.336-0.456
		c0.063-0.112,0.096-0.199,0.096-0.264c0-0.16-0.137-0.304-0.408-0.432c-0.271-0.127-0.552-0.224-0.84-0.288
		c-0.384-0.096-0.576-0.256-0.576-0.48c0-0.16,0.097-0.295,0.289-0.408c0.191-0.111,0.447-0.168,0.768-0.168h2.352
		c0.512,0,1.048-0.048,1.608-0.144c0.56-0.096,1.087-0.192,1.584-0.288c0.495-0.096,0.888-0.144,1.176-0.144
		c0.448,0,0.672,0.16,0.672,0.48c0,0.192-0.112,0.36-0.336,0.504s-0.513,0.264-0.864,0.36c-0.607,0.161-1.176,0.384-1.703,0.672
		c-0.528,0.288-1.017,0.56-1.465,0.816c-0.191,0.128-0.632,0.472-1.32,1.032c-0.688,0.561-1.472,1.208-2.352,1.944
		c-0.881,0.736-1.703,1.44-2.472,2.112c-0.192,0.192-0.288,0.353-0.288,0.48c0,0.032,0.016,0.08,0.048,0.144
		c0.032,0.064,0.063,0.128,0.097,0.192c0.831,1.024,1.728,2.064,2.688,3.12s1.848,1.984,2.664,2.784
		c0.816,0.8,1.384,1.361,1.704,1.68c0.544,0.512,1.159,0.968,1.848,1.368c0.688,0.4,1.272,0.68,1.752,0.84
		c0.353,0.128,0.68,0.24,0.984,0.336c0.304,0.096,0.456,0.272,0.456,0.528c0,0.352-0.32,0.528-0.96,0.528
		c-1.248,0-2.648-0.024-4.2-0.072c-1.553-0.048-3.145-0.072-4.775-0.072c-0.576,0-0.865-0.144-0.865-0.432
		c0-0.192,0.08-0.352,0.24-0.48c0.16-0.127,0.352-0.224,0.576-0.288c0.352-0.127,0.656-0.271,0.912-0.432s0.385-0.384,0.385-0.672
		c0-0.096-0.033-0.199-0.097-0.312c-0.064-0.111-0.144-0.231-0.24-0.36l-5.808-6.576c-0.192-0.224-0.353-0.336-0.48-0.336
		c-0.16,0-0.24,0.113-0.24,0.336c-0.031,0.448-0.047,0.936-0.047,1.464c0,0.528,0,1.064,0,1.608c0,0.544,0,1.104,0,1.68
		c0,0.576,0.016,1.136,0.047,1.68c0,0.641,0.16,1.088,0.48,1.344c0.319,0.256,0.721,0.464,1.2,0.624
		c0.256,0.096,0.504,0.185,0.743,0.264c0.24,0.081,0.361,0.249,0.361,0.504c0,0.224-0.152,0.368-0.457,0.432
		c-0.305,0.064-0.52,0.096-0.647,0.096c-0.608,0-1.056-0.024-1.345-0.072c-0.287-0.048-0.551-0.087-0.791-0.12
		c-0.24-0.032-0.648-0.048-1.225-0.048c-0.545,0-0.977,0.017-1.296,0.048c-0.32,0.032-0.647,0.072-0.983,0.12
		C393.575-135.472,393.087-135.448,392.446-135.448z"/>
	<path fill="#083E00" d="M416.014-121.912c-0.608,0-1.169-0.152-1.68-0.456c-0.513-0.305-0.769-0.809-0.769-1.512
		c0-0.576,0.136-1.08,0.408-1.512c0.271-0.432,0.663-0.648,1.176-0.648c0.352,0,0.696,0.048,1.032,0.144
		c0.336,0.096,0.631,0.144,0.888,0.144c0.192,0,0.36-0.041,0.504-0.12c0.144-0.081,0.28-0.216,0.408-0.408
		c0.352-0.576,0.76-1.296,1.224-2.16c0.464-0.864,0.943-1.84,1.44-2.928c0.495-1.088,0.968-2.24,1.416-3.456
		c0.096-0.288,0.144-0.656,0.144-1.104c0-0.256-0.016-0.504-0.048-0.744c-0.032-0.24-0.08-0.456-0.144-0.648l-5.568-14.064
		c-0.225-0.576-0.521-1.08-0.888-1.512c-0.368-0.432-0.792-0.711-1.272-0.84c-0.256-0.096-0.504-0.208-0.744-0.336
		c-0.24-0.127-0.359-0.304-0.359-0.528c0-0.192,0.119-0.312,0.359-0.36c0.24-0.048,0.439-0.072,0.601-0.072
		c0.64,0,1.111,0.017,1.416,0.048c0.304,0.032,0.591,0.072,0.864,0.12c0.271,0.048,0.68,0.072,1.224,0.072
		c0.575,0,1.008-0.024,1.296-0.072s0.592-0.088,0.912-0.12c0.319-0.031,0.799-0.048,1.439-0.048c0.192,0,0.4,0.041,0.625,0.12
		c0.223,0.08,0.336,0.216,0.336,0.408c0,0.224-0.168,0.44-0.504,0.648c-0.336,0.208-0.633,0.344-0.889,0.408
		c-0.32,0.096-0.561,0.264-0.72,0.504c-0.161,0.24-0.24,0.584-0.24,1.032c0,0.192,0.048,0.424,0.144,0.696
		c0.097,0.272,0.176,0.488,0.24,0.648l3.889,9.6c0.063,0.192,0.159,0.288,0.287,0.288c0.097,0,0.176-0.096,0.24-0.288l3.313-8.784
		c0.096-0.223,0.184-0.52,0.264-0.888c0.08-0.368,0.12-0.664,0.12-0.888c0-0.607-0.089-1.032-0.265-1.272s-0.407-0.424-0.695-0.552
		c-0.257-0.128-0.553-0.296-0.889-0.504c-0.336-0.208-0.504-0.424-0.504-0.648c0-0.192,0.121-0.328,0.36-0.408
		c0.24-0.08,0.439-0.12,0.601-0.12c0.447,0,0.903,0.041,1.367,0.12c0.464,0.08,1.145,0.12,2.041,0.12
		c0.607,0,1.047-0.024,1.319-0.072c0.271-0.048,0.504-0.088,0.696-0.12c0.191-0.031,0.463-0.048,0.816-0.048
		c0.159,0,0.359,0.024,0.6,0.072c0.24,0.048,0.359,0.168,0.359,0.36c0,0.224-0.119,0.4-0.359,0.528
		c-0.24,0.128-0.488,0.24-0.744,0.336c-0.48,0.128-0.992,0.504-1.536,1.128s-0.977,1.32-1.296,2.088l-6.528,15.552
		c-0.032,0.096-0.2,0.512-0.504,1.248c-0.304,0.736-0.681,1.647-1.128,2.736c-0.448,1.087-0.936,2.256-1.464,3.504
		s-1.032,2.448-1.513,3.6c-0.287,0.64-0.703,1.128-1.248,1.464C417.342-122.08,416.718-121.912,416.014-121.912z"/>
	<path fill="#083E00" d="M445.437-135.448c-0.161,0-0.36-0.024-0.601-0.072c-0.239-0.048-0.359-0.168-0.359-0.36
		c0-0.256,0.12-0.439,0.359-0.552c0.24-0.112,0.488-0.216,0.744-0.312c0.48-0.16,0.943-0.344,1.393-0.552
		c0.447-0.208,0.672-0.631,0.672-1.272v-24.192c0-0.928-0.168-1.704-0.504-2.328s-0.904-1.016-1.704-1.176
		c-0.257-0.064-0.384-0.271-0.384-0.624c0-0.32,0.111-0.512,0.336-0.576c0.832-0.192,1.552-0.392,2.16-0.6
		c0.607-0.208,1.176-0.423,1.703-0.648c0.528-0.223,1.049-0.432,1.561-0.624c0.127-0.063,0.224-0.096,0.288-0.096
		c0.063,0,0.12,0.041,0.168,0.12c0.048,0.081,0.071,0.152,0.071,0.216c0,0.288-0.056,0.904-0.168,1.848
		c-0.111,0.944-0.168,2.504-0.168,4.68v24c0,0.641,0.225,1.064,0.672,1.272c0.448,0.208,0.912,0.393,1.393,0.552
		c0.256,0.096,0.504,0.2,0.744,0.312c0.24,0.112,0.359,0.296,0.359,0.552c0,0.192-0.119,0.312-0.359,0.36
		c-0.24,0.048-0.44,0.072-0.6,0.072c-0.609,0-1.098-0.024-1.465-0.072c-0.367-0.048-0.72-0.087-1.056-0.12
		c-0.336-0.032-0.792-0.048-1.368-0.048c-0.545,0-0.992,0.017-1.344,0.048c-0.353,0.032-0.704,0.072-1.057,0.12
		C446.573-135.472,446.077-135.448,445.437-135.448z"/>
	<path fill="#083E00" d="M457.196-135.448c-0.287,0-0.52-0.041-0.695-0.12s-0.264-0.216-0.264-0.408
		c0-0.256,0.119-0.432,0.359-0.528c0.24-0.096,0.488-0.175,0.744-0.24c0.672-0.16,1.184-0.36,1.536-0.6
		c0.352-0.24,0.528-0.648,0.528-1.224v-10.416c0-0.864-0.152-1.632-0.457-2.304c-0.304-0.672-0.871-1.072-1.703-1.2
		c-0.16-0.032-0.281-0.096-0.36-0.192c-0.08-0.096-0.12-0.24-0.12-0.432c0-0.352,0.145-0.544,0.432-0.576
		c1.28-0.288,2.336-0.679,3.168-1.176c0.832-0.496,1.457-0.904,1.873-1.224c0.287-0.224,0.512-0.336,0.672-0.336
		c0.191,0,0.287,0.08,0.287,0.24c0,0.256-0.04,0.76-0.119,1.512c-0.08,0.752-0.152,1.584-0.217,2.496s-0.096,1.736-0.096,2.472
		v11.136c0,0.544,0.184,0.944,0.553,1.2c0.367,0.256,0.871,0.464,1.512,0.624c0.256,0.064,0.504,0.144,0.744,0.24
		c0.24,0.096,0.359,0.272,0.359,0.528c0,0.352-0.32,0.528-0.959,0.528c-0.609,0-1.098-0.024-1.465-0.072
		c-0.368-0.048-0.72-0.087-1.056-0.12c-0.336-0.032-0.792-0.048-1.368-0.048c-0.545,0-0.992,0.017-1.344,0.048
		c-0.353,0.032-0.705,0.072-1.057,0.12C458.333-135.472,457.837-135.448,457.196-135.448z M461.037-160.36
		c-0.673,0-1.241-0.231-1.704-0.696c-0.465-0.464-0.696-1.032-0.696-1.704c0-0.704,0.231-1.288,0.696-1.752
		c0.463-0.463,1.031-0.696,1.704-0.696c0.703,0,1.288,0.233,1.752,0.696c0.464,0.464,0.696,1.048,0.696,1.752
		c0,0.672-0.232,1.24-0.696,1.704C462.325-160.592,461.74-160.36,461.037-160.36z"/>
	<path fill="#083E00" d="M468.86-135.448c-0.736,0-1.104-0.176-1.104-0.528c0-0.256,0.12-0.424,0.359-0.504
		c0.24-0.079,0.488-0.168,0.744-0.264c0.48-0.16,0.943-0.368,1.393-0.624c0.447-0.256,0.672-0.704,0.672-1.344v-24.048
		c0-1.12-0.16-1.936-0.48-2.448c-0.32-0.511-0.88-0.864-1.68-1.056c-0.288-0.064-0.432-0.271-0.432-0.624
		c0-0.32,0.127-0.512,0.384-0.576c0.831-0.192,1.552-0.392,2.16-0.6c0.607-0.208,1.159-0.416,1.655-0.624
		c0.496-0.208,0.984-0.408,1.465-0.6c0.191-0.096,0.336-0.144,0.432-0.144s0.168,0.032,0.216,0.096
		c0.048,0.064,0.072,0.176,0.072,0.336c0,0.32-0.072,0.96-0.216,1.92c-0.145,0.96-0.217,2.464-0.217,4.512v15.744
		c0,0.288,0.08,0.432,0.24,0.432c0.192,0,0.439-0.08,0.744-0.24c0.304-0.16,0.632-0.4,0.984-0.72
		c1.312-1.12,2.407-2.136,3.287-3.048c0.881-0.912,1.48-1.543,1.801-1.896c0.16-0.192,0.271-0.343,0.336-0.456
		c0.063-0.112,0.096-0.199,0.096-0.264c0-0.16-0.137-0.304-0.408-0.432c-0.271-0.127-0.552-0.224-0.84-0.288
		c-0.384-0.096-0.576-0.256-0.576-0.48c0-0.16,0.097-0.295,0.289-0.408c0.191-0.111,0.447-0.168,0.768-0.168h2.352
		c0.512,0,1.048-0.048,1.608-0.144c0.56-0.096,1.087-0.192,1.584-0.288c0.495-0.096,0.888-0.144,1.176-0.144
		c0.448,0,0.672,0.16,0.672,0.48c0,0.192-0.112,0.36-0.336,0.504s-0.513,0.264-0.864,0.36c-0.607,0.161-1.176,0.384-1.703,0.672
		c-0.528,0.288-1.017,0.56-1.465,0.816c-0.191,0.128-0.632,0.472-1.32,1.032c-0.688,0.561-1.472,1.208-2.352,1.944
		c-0.881,0.736-1.703,1.44-2.472,2.112c-0.192,0.192-0.288,0.353-0.288,0.48c0,0.032,0.016,0.08,0.048,0.144
		c0.032,0.064,0.063,0.128,0.097,0.192c0.831,1.024,1.728,2.064,2.688,3.12s1.848,1.984,2.664,2.784
		c0.816,0.8,1.384,1.361,1.704,1.68c0.544,0.512,1.159,0.968,1.848,1.368c0.688,0.4,1.272,0.68,1.752,0.84
		c0.353,0.128,0.68,0.24,0.984,0.336c0.304,0.096,0.456,0.272,0.456,0.528c0,0.352-0.32,0.528-0.96,0.528
		c-1.248,0-2.648-0.024-4.2-0.072c-1.553-0.048-3.145-0.072-4.775-0.072c-0.576,0-0.865-0.144-0.865-0.432
		c0-0.192,0.08-0.352,0.24-0.48c0.16-0.127,0.352-0.224,0.576-0.288c0.352-0.127,0.656-0.271,0.912-0.432s0.385-0.384,0.385-0.672
		c0-0.096-0.033-0.199-0.097-0.312c-0.064-0.111-0.144-0.231-0.24-0.36l-5.808-6.576c-0.192-0.224-0.353-0.336-0.48-0.336
		c-0.16,0-0.24,0.113-0.24,0.336c-0.031,0.448-0.047,0.936-0.047,1.464c0,0.528,0,1.064,0,1.608c0,0.544,0,1.104,0,1.68
		c0,0.576,0.016,1.136,0.047,1.68c0,0.641,0.16,1.088,0.48,1.344c0.319,0.256,0.721,0.464,1.2,0.624
		c0.256,0.096,0.504,0.185,0.743,0.264c0.24,0.081,0.361,0.249,0.361,0.504c0,0.224-0.152,0.368-0.457,0.432
		c-0.305,0.064-0.52,0.096-0.647,0.096c-0.608,0-1.056-0.024-1.345-0.072c-0.287-0.048-0.551-0.087-0.791-0.12
		c-0.24-0.032-0.648-0.048-1.225-0.048c-0.545,0-0.977,0.017-1.296,0.048c-0.32,0.032-0.647,0.072-0.983,0.12
		C469.989-135.472,469.501-135.448,468.86-135.448z"/>
	<path fill="#083E00" d="M499.581-134.872c-1.761,0-3.297-0.432-4.608-1.296c-1.313-0.864-2.337-2.088-3.072-3.672
		c-0.736-1.584-1.104-3.416-1.104-5.496c0-1.855,0.424-3.543,1.272-5.064c0.848-1.52,1.976-2.743,3.384-3.672
		c1.408-0.928,2.943-1.392,4.608-1.392c1.279,0,2.415,0.256,3.407,0.768c0.992,0.512,1.769,1.224,2.328,2.136
		c0.561,0.912,0.84,1.96,0.84,3.144c0,0.993-0.479,1.488-1.439,1.488h-10.128c-0.448,0-0.761,0.12-0.937,0.36
		c-0.176,0.24-0.264,0.712-0.264,1.416c0,1.536,0.336,2.937,1.008,4.2c0.672,1.264,1.568,2.272,2.688,3.024
		c1.12,0.752,2.353,1.128,3.696,1.128c0.959,0,1.831-0.184,2.615-0.552c0.784-0.368,1.48-0.904,2.088-1.608
		c0.128-0.16,0.225-0.264,0.289-0.312c0.063-0.048,0.144-0.072,0.24-0.072c0.255,0,0.383,0.161,0.383,0.48
		c0,0.608-0.287,1.28-0.863,2.016c-0.48,0.608-1.057,1.136-1.729,1.584c-0.672,0.448-1.408,0.792-2.207,1.032
		C501.276-134.992,500.444-134.872,499.581-134.872z M495.165-149.417h4.367c0.768,0,1.424-0.016,1.969-0.048
		c0.543-0.031,1.071-0.096,1.584-0.192c0.159-0.032,0.264-0.136,0.312-0.312c0.048-0.175,0.071-0.424,0.071-0.744
		c0-0.928-0.407-1.72-1.223-2.376c-0.816-0.655-1.785-0.984-2.904-0.984c-0.736,0-1.473,0.216-2.209,0.648s-1.344,0.968-1.823,1.608
		c-0.479,0.641-0.72,1.28-0.72,1.92C494.589-149.576,494.78-149.417,495.165-149.417z"/>
	<path fill="#083E00" d="M524.588-134.92c-0.992,0-1.92-0.152-2.784-0.456c-0.863-0.304-1.601-0.728-2.208-1.272
		c-0.161-0.352-0.28-0.943-0.36-1.776c-0.08-0.832-0.137-1.52-0.168-2.064c0-0.288,0.208-0.432,0.625-0.432
		c0.127,0,0.247,0.024,0.359,0.072c0.111,0.048,0.184,0.136,0.216,0.264c0.415,1.568,1.08,2.688,1.992,3.36
		c0.912,0.672,1.831,1.008,2.761,1.008c0.928,0,1.719-0.312,2.375-0.936s0.984-1.399,0.984-2.328c0-0.864-0.288-1.608-0.864-2.232
		c-0.575-0.624-1.584-1.384-3.024-2.28c-1.088-0.672-1.967-1.312-2.64-1.92c-0.672-0.608-1.16-1.231-1.464-1.872
		c-0.305-0.64-0.456-1.36-0.456-2.16c0-1.024,0.24-1.952,0.72-2.784c0.48-0.832,1.2-1.495,2.16-1.992
		c0.961-0.496,2.16-0.744,3.6-0.744c0.961,0,1.76,0.096,2.4,0.288c0.64,0.192,1.12,0.4,1.44,0.624
		c0.256,0.353,0.472,0.904,0.647,1.656c0.176,0.752,0.265,1.464,0.265,2.136c0,0.224-0.161,0.336-0.48,0.336
		c-0.191,0-0.376-0.04-0.552-0.12c-0.177-0.08-0.296-0.184-0.36-0.312c-0.416-1.056-0.936-1.864-1.56-2.424
		c-0.624-0.56-1.4-0.84-2.328-0.84c-0.801,0-1.512,0.24-2.137,0.72c-0.623,0.48-0.936,1.185-0.936,2.112
		c0,0.736,0.232,1.392,0.696,1.968s1.336,1.232,2.616,1.968c1.855,1.056,3.24,2.04,4.151,2.952c0.912,0.912,1.368,2.12,1.368,3.624
		c0,1.728-0.656,3.137-1.968,4.224C528.363-135.465,526.667-134.92,524.588-134.92z"/>
	<path fill="#083E00" d="M542.252-134.92c-1.568,0-2.793-0.48-3.672-1.44c-0.881-0.96-1.32-2.383-1.32-4.272v-11.136
		c0-0.256-0.096-0.44-0.288-0.552c-0.192-0.112-0.608-0.168-1.248-0.168h-0.288c-0.16,0-0.296-0.104-0.408-0.312
		c-0.112-0.208-0.168-0.424-0.168-0.648c0-0.064,0.048-0.16,0.145-0.288c0.096-0.127,0.159-0.208,0.191-0.24
		c0.64-0.448,1.225-0.896,1.752-1.344c0.528-0.448,1.009-0.888,1.44-1.32c0.432-0.432,0.792-0.824,1.08-1.176
		c0.159-0.16,0.296-0.295,0.408-0.408c0.111-0.112,0.247-0.168,0.407-0.168s0.313,0.032,0.456,0.096
		c0.145,0.064,0.2,0.208,0.168,0.432l-0.239,2.16c-0.032,0.353,0.048,0.592,0.239,0.72c0.192,0.128,0.496,0.192,0.912,0.192h5.473
		c0.127,0,0.239,0.104,0.336,0.312c0.096,0.208,0.144,0.456,0.144,0.744s-0.048,0.568-0.144,0.84
		c-0.097,0.272-0.209,0.408-0.336,0.408h-4.752c-0.801,0-1.32,0.064-1.561,0.192c-0.24,0.128-0.359,0.512-0.359,1.152v9.456
		c0,1.28,0.271,2.289,0.815,3.024c0.544,0.736,1.328,1.104,2.353,1.104c0.928,0,1.647-0.072,2.159-0.216s0.977-0.36,1.393-0.648
		c0.063-0.063,0.127-0.096,0.191-0.096c0.128,0,0.217,0.072,0.265,0.216s0.072,0.296,0.072,0.456c0,0.16-0.265,0.48-0.792,0.96
		c-0.528,0.48-1.217,0.928-2.064,1.344C544.163-135.129,543.243-134.92,542.252-134.92z"/>
	<path fill="#083E00" d="M553.868-134.92c-0.576,0-1.16-0.224-1.752-0.672c-0.593-0.448-1.089-0.992-1.488-1.632
		c-0.4-0.64-0.6-1.248-0.6-1.824c0-1.024,0.271-1.824,0.815-2.4s1.408-1.104,2.592-1.584l4.896-2.016
		c0.64-0.256,1.016-0.48,1.128-0.672c0.111-0.192,0.184-0.607,0.216-1.248l0.096-3.072c0.032-0.832-0.2-1.551-0.695-2.16
		c-0.497-0.607-1.208-0.912-2.136-0.912c-0.48,0-0.961,0.08-1.44,0.24c-0.48,0.16-0.881,0.368-1.2,0.624
		c-0.191,0.128-0.32,0.32-0.384,0.576c-0.064,0.256-0.096,0.528-0.096,0.816c0,0.128,0.007,0.272,0.023,0.432
		c0.016,0.161,0.024,0.305,0.024,0.432c0,0.161-0.2,0.376-0.601,0.648c-0.4,0.272-0.848,0.512-1.344,0.72
		c-0.496,0.208-0.904,0.312-1.224,0.312c-0.161,0-0.288-0.04-0.384-0.12c-0.097-0.08-0.145-0.184-0.145-0.312
		c0-0.512,0.168-1.063,0.504-1.656c0.336-0.592,0.808-1.144,1.416-1.656c0.736-0.672,1.536-1.264,2.4-1.776
		c0.863-0.511,1.711-0.912,2.544-1.2c0.832-0.288,1.567-0.432,2.208-0.432c1.151,0,2.104,0.408,2.855,1.224s1.112,1.832,1.08,3.048
		l-0.239,11.52c-0.033,0.672,0.119,1.217,0.455,1.632c0.337,0.417,0.76,0.624,1.272,0.624c0.8,0,1.392-0.175,1.776-0.528
		c0.159-0.16,0.288-0.24,0.384-0.24c0.159,0,0.288,0.048,0.384,0.144c0.096,0.096,0.144,0.225,0.144,0.384
		c0,0.353-0.176,0.704-0.527,1.056c-0.513,0.512-1.064,0.92-1.656,1.224c-0.593,0.304-1.145,0.456-1.656,0.456
		c-1.472,0-2.64-0.832-3.504-2.496h-0.144c-1.057,0.864-2.064,1.497-3.024,1.896C555.884-135.121,554.891-134.92,553.868-134.92z
		 M556.124-137.224c0.64,0,1.184-0.104,1.632-0.312c0.448-0.208,0.848-0.488,1.2-0.84c0.159-0.16,0.295-0.375,0.408-0.648
		c0.111-0.271,0.184-0.711,0.216-1.32l0.096-2.352c0.031-0.352,0.016-0.607-0.048-0.768c-0.064-0.16-0.192-0.24-0.384-0.24
		c-0.064,0-0.177,0.016-0.336,0.048c-0.161,0.032-0.368,0.096-0.624,0.192c-1.696,0.608-2.873,1.241-3.528,1.896
		c-0.656,0.656-0.984,1.256-0.984,1.8c0,0.833,0.248,1.464,0.744,1.896C555.011-137.44,555.548-137.224,556.124-137.224z"/>
	<path fill="#083E00" d="M569.755-135.448c-0.319,0-0.56-0.041-0.72-0.12s-0.24-0.216-0.24-0.408c0-0.256,0.097-0.424,0.288-0.504
		c0.192-0.079,0.464-0.168,0.816-0.264c0.607-0.16,1.063-0.392,1.368-0.696c0.304-0.304,0.456-0.679,0.456-1.128v-10.32
		c0-0.864-0.129-1.616-0.385-2.256s-0.784-1.04-1.584-1.2c-0.128-0.032-0.239-0.112-0.336-0.24
		c-0.096-0.127-0.144-0.255-0.144-0.384c0-0.319,0.144-0.512,0.432-0.576c0.832-0.255,1.704-0.631,2.616-1.128
		c0.912-0.496,1.624-0.904,2.136-1.224c0.192-0.127,0.344-0.216,0.456-0.264c0.112-0.048,0.2-0.072,0.265-0.072
		c0.159,0,0.239,0.113,0.239,0.336c0,0.096-0.008,0.336-0.023,0.72c-0.017,0.384-0.032,0.833-0.048,1.344
		c-0.017,0.513-0.041,1.025-0.072,1.536c0,0.064,0.031,0.096,0.096,0.096c0.512-0.64,1.08-1.2,1.704-1.68s1.264-0.864,1.92-1.152
		c0.655-0.288,1.288-0.432,1.896-0.432c0.672,0,1.224,0.144,1.655,0.432c0.433,0.288,0.648,0.656,0.648,1.104
		c0,0.32-0.089,0.672-0.264,1.056c-0.177,0.384-0.408,0.72-0.696,1.008s-0.593,0.432-0.912,0.432c-0.192,0-0.4-0.04-0.624-0.12
		c-0.225-0.08-0.464-0.184-0.72-0.312c-0.257-0.096-0.513-0.192-0.769-0.288c-0.256-0.096-0.512-0.144-0.768-0.144
		c-0.768,0-1.512,0.272-2.232,0.816c-0.72,0.545-1.08,1.616-1.08,3.216v9.696c0,0.417,0.224,0.761,0.673,1.032
		c0.447,0.272,1.071,0.536,1.872,0.792c0.352,0.096,0.624,0.192,0.815,0.288c0.192,0.096,0.288,0.256,0.288,0.48
		c0,0.352-0.32,0.528-0.96,0.528c-0.96,0-1.688-0.041-2.184-0.12c-0.497-0.08-1.161-0.12-1.992-0.12
		c-0.545,0-0.984,0.017-1.32,0.048c-0.336,0.032-0.688,0.072-1.056,0.12C570.899-135.472,570.395-135.448,569.755-135.448z"/>
	<path fill="#083E00" d="M592.508-134.92c-1.568,0-2.793-0.48-3.672-1.44c-0.881-0.96-1.32-2.383-1.32-4.272v-11.136
		c0-0.256-0.096-0.44-0.288-0.552c-0.192-0.112-0.608-0.168-1.248-0.168h-0.288c-0.16,0-0.296-0.104-0.408-0.312
		c-0.112-0.208-0.168-0.424-0.168-0.648c0-0.064,0.048-0.16,0.145-0.288c0.096-0.127,0.159-0.208,0.191-0.24
		c0.64-0.448,1.225-0.896,1.752-1.344c0.528-0.448,1.009-0.888,1.44-1.32c0.432-0.432,0.792-0.824,1.08-1.176
		c0.159-0.16,0.296-0.295,0.408-0.408c0.111-0.112,0.247-0.168,0.407-0.168s0.313,0.032,0.456,0.096
		c0.145,0.064,0.2,0.208,0.168,0.432l-0.239,2.16c-0.032,0.353,0.048,0.592,0.239,0.72c0.192,0.128,0.496,0.192,0.912,0.192h5.473
		c0.127,0,0.239,0.104,0.336,0.312c0.096,0.208,0.144,0.456,0.144,0.744s-0.048,0.568-0.144,0.84
		c-0.097,0.272-0.209,0.408-0.336,0.408h-4.752c-0.801,0-1.32,0.064-1.561,0.192c-0.24,0.128-0.359,0.512-0.359,1.152v9.456
		c0,1.28,0.271,2.289,0.815,3.024c0.544,0.736,1.328,1.104,2.353,1.104c0.928,0,1.647-0.072,2.159-0.216s0.977-0.36,1.393-0.648
		c0.063-0.063,0.127-0.096,0.191-0.096c0.128,0,0.217,0.072,0.265,0.216s0.072,0.296,0.072,0.456c0,0.16-0.265,0.48-0.792,0.96
		c-0.528,0.48-1.217,0.928-2.064,1.344C594.419-135.129,593.499-134.92,592.508-134.92z"/>
	<path fill="#083E00" d="M600.62-135.448c-0.288,0-0.521-0.041-0.696-0.12s-0.264-0.216-0.264-0.408c0-0.256,0.12-0.432,0.359-0.528
		c0.24-0.096,0.487-0.175,0.744-0.24c0.672-0.16,1.184-0.36,1.536-0.6c0.352-0.24,0.528-0.648,0.528-1.224v-10.416
		c0-0.864-0.152-1.632-0.456-2.304c-0.305-0.672-0.872-1.072-1.704-1.2c-0.161-0.032-0.28-0.096-0.36-0.192
		c-0.08-0.096-0.12-0.24-0.12-0.432c0-0.352,0.145-0.544,0.433-0.576c1.279-0.288,2.335-0.679,3.168-1.176
		c0.831-0.496,1.455-0.904,1.872-1.224c0.288-0.224,0.511-0.336,0.672-0.336c0.191,0,0.288,0.08,0.288,0.24
		c0,0.256-0.041,0.76-0.12,1.512c-0.08,0.752-0.152,1.584-0.216,2.496c-0.064,0.912-0.097,1.736-0.097,2.472v11.136
		c0,0.544,0.184,0.944,0.553,1.2c0.367,0.256,0.871,0.464,1.512,0.624c0.256,0.064,0.504,0.144,0.744,0.24
		c0.239,0.096,0.359,0.272,0.359,0.528c0,0.352-0.32,0.528-0.96,0.528c-0.608,0-1.097-0.024-1.464-0.072
		c-0.368-0.048-0.72-0.087-1.056-0.12c-0.336-0.032-0.792-0.048-1.368-0.048c-0.545,0-0.992,0.017-1.344,0.048
		c-0.353,0.032-0.704,0.072-1.057,0.12C601.755-135.472,601.26-135.448,600.62-135.448z M604.46-160.36
		c-0.672,0-1.24-0.231-1.704-0.696c-0.464-0.464-0.696-1.032-0.696-1.704c0-0.704,0.232-1.288,0.696-1.752
		c0.464-0.463,1.032-0.696,1.704-0.696c0.703,0,1.288,0.233,1.752,0.696c0.464,0.464,0.696,1.048,0.696,1.752
		c0,0.672-0.232,1.24-0.696,1.704C605.748-160.592,605.163-160.36,604.46-160.36z"/>
	<path fill="#083E00" d="M612.38-135.448c-0.288,0-0.521-0.041-0.696-0.12s-0.264-0.216-0.264-0.408
		c0-0.256,0.096-0.424,0.288-0.504c0.191-0.079,0.463-0.168,0.815-0.264c0.48-0.127,0.943-0.304,1.393-0.528
		c0.447-0.223,0.672-0.655,0.672-1.296v-10.32c0-0.864-0.089-1.6-0.265-2.208c-0.176-0.607-0.68-1.024-1.512-1.248
		c-0.128-0.064-0.24-0.136-0.336-0.216c-0.096-0.08-0.144-0.216-0.144-0.408c0-0.352,0.144-0.544,0.432-0.576
		c1.12-0.288,2.031-0.64,2.736-1.056c0.703-0.416,1.392-0.88,2.063-1.392c0.096-0.064,0.184-0.12,0.264-0.168
		c0.08-0.048,0.168-0.072,0.265-0.072c0.063,0,0.12,0.032,0.168,0.096c0.048,0.064,0.072,0.144,0.072,0.24
		c0,0.225-0.041,0.681-0.12,1.368c-0.081,0.688-0.12,1.256-0.12,1.704c0,0.128,0.007,0.248,0.023,0.36
		c0.016,0.113,0.04,0.185,0.072,0.216c1.12-1.056,2.312-1.856,3.576-2.4c1.264-0.543,2.647-0.816,4.152-0.816
		c1.567,0,2.863,0.641,3.888,1.92c1.023,1.28,1.536,2.864,1.536,4.752v10.224c0,0.641,0.224,1.064,0.672,1.272
		c0.447,0.208,0.912,0.393,1.392,0.552c0.256,0.096,0.504,0.2,0.744,0.312c0.24,0.112,0.36,0.296,0.36,0.552
		c0,0.192-0.112,0.312-0.336,0.36c-0.225,0.048-0.433,0.072-0.624,0.072c-0.641,0-1.137-0.024-1.488-0.072
		c-0.353-0.048-0.688-0.087-1.008-0.12c-0.32-0.032-0.769-0.048-1.344-0.048c-0.545,0-0.993,0.017-1.345,0.048
		c-0.353,0.032-0.712,0.072-1.08,0.12c-0.368,0.048-0.872,0.072-1.512,0.072c-0.16,0-0.36-0.024-0.6-0.072
		c-0.24-0.048-0.36-0.168-0.36-0.36c0-0.256,0.12-0.439,0.36-0.552c0.239-0.112,0.487-0.216,0.744-0.312
		c0.479-0.16,0.943-0.344,1.392-0.552c0.447-0.208,0.672-0.631,0.672-1.272v-10.08c0-1.408-0.393-2.503-1.176-3.288
		c-0.784-0.784-1.832-1.191-3.145-1.224c-1.151,0-2.159,0.185-3.023,0.552c-0.864,0.368-1.632,0.824-2.304,1.368
		c-0.129,0.128-0.225,0.296-0.288,0.504c-0.064,0.208-0.097,0.408-0.097,0.6v11.568c0,0.641,0.224,1.073,0.672,1.296
		c0.448,0.225,0.912,0.401,1.393,0.528c0.735,0.192,1.104,0.448,1.104,0.768c0,0.192-0.08,0.328-0.239,0.408
		c-0.161,0.08-0.401,0.12-0.721,0.12c-0.641,0-1.145-0.024-1.512-0.072c-0.368-0.048-0.713-0.087-1.032-0.12
		c-0.32-0.032-0.768-0.048-1.344-0.048c-0.545,0-0.984,0.017-1.32,0.048c-0.336,0.032-0.688,0.072-1.056,0.12
		C613.523-135.472,613.019-135.448,612.38-135.448z"/>
	<path fill="#083E00" d="M644.971-121.672c-2.721,0-4.872-0.521-6.456-1.56c-1.584-1.04-2.376-2.44-2.376-4.2
		c0-0.833,0.127-1.536,0.384-2.112c0.256-0.576,0.655-1.072,1.2-1.488c0.447-0.384,1.048-0.872,1.8-1.464
		c0.751-0.593,1.527-1.208,2.328-1.848l2.016,0.096c-1.536,0.991-2.608,1.936-3.216,2.832c-0.608,0.896-0.912,1.984-0.912,3.264
		c0,1.28,0.567,2.359,1.704,3.24c1.136,0.879,2.536,1.32,4.2,1.32c1.888,0,3.408-0.432,4.56-1.296c0.8-0.608,1.424-1.4,1.872-2.376
		c0.448-0.977,0.672-2.009,0.672-3.096c0-0.704-0.248-1.289-0.744-1.752c-0.496-0.464-1.271-0.84-2.327-1.128
		c-1.057-0.288-2.433-0.48-4.129-0.576c-3.008-0.224-5.096-0.624-6.264-1.2c-1.168-0.576-1.752-1.472-1.752-2.688
		c0-0.32,0.088-0.616,0.264-0.888c0.176-0.271,0.456-0.568,0.841-0.888c0.735-0.576,1.279-1,1.632-1.272
		c0.352-0.271,0.615-0.504,0.792-0.696c0.175-0.192,0.343-0.432,0.504-0.72l1.632,0.816c-0.704,0.256-1.296,0.6-1.776,1.032
		c-0.479,0.432-0.72,0.824-0.72,1.176c0,0.448,0.24,0.84,0.72,1.176c0.48,0.336,1.184,0.6,2.112,0.792
		c0.928,0.192,2.064,0.336,3.408,0.432c2.943,0.16,5.136,0.64,6.576,1.44c1.439,0.799,2.16,1.936,2.16,3.408
		c0,1.248-0.313,2.472-0.937,3.672c-0.624,1.2-1.448,2.295-2.472,3.288c-1.024,0.992-2.169,1.784-3.433,2.376
		C647.571-121.969,646.283-121.672,644.971-121.672z M645.26-140.68c-1.313,0-2.561-0.336-3.744-1.008
		c-1.185-0.672-2.152-1.56-2.904-2.664s-1.128-2.312-1.128-3.624c0-1.504,0.392-2.824,1.176-3.96
		c0.784-1.135,1.815-2.023,3.096-2.664s2.641-0.96,4.08-0.96c0.928,0,1.736,0.12,2.425,0.36c0.688,0.24,1.367,0.456,2.04,0.648
		c0.768,0.224,1.375,0.36,1.823,0.408c0.448,0.048,0.912,0.072,1.393,0.072c0.384,0,0.863-0.024,1.439-0.072
		c0.576-0.048,0.976-0.072,1.2-0.072c0.416,0,0.624,0.24,0.624,0.72c0,0.288-0.16,0.592-0.479,0.912
		c-0.161,0.161-0.288,0.24-0.385,0.24h-1.296c-0.864,0-1.344,0.128-1.439,0.384c-0.032,0.128-0.072,0.312-0.12,0.552
		c-0.048,0.24-0.089,0.504-0.12,0.792c-0.032,0.288-0.048,0.576-0.048,0.864c0,1.632-0.353,3.137-1.057,4.512
		c-0.704,1.376-1.632,2.48-2.783,3.312C647.899-141.096,646.635-140.68,645.26-140.68z M645.547-142.36
		c1.216,0,2.225-0.616,3.024-1.848c0.8-1.231,1.2-2.76,1.2-4.584c0-0.928-0.216-1.8-0.648-2.616
		c-0.432-0.816-0.992-1.472-1.68-1.968c-0.688-0.496-1.433-0.744-2.232-0.744c-0.736,0-1.432,0.264-2.088,0.792
		c-0.656,0.528-1.184,1.208-1.584,2.04c-0.4,0.833-0.6,1.744-0.6,2.736c0,1.121,0.208,2.152,0.624,3.096
		c0.415,0.944,0.976,1.696,1.68,2.256C643.947-142.64,644.715-142.36,645.547-142.36z"/>
	<path fill="#083E00" d="M671.707-134.92c-0.576,0-1.16-0.224-1.752-0.672c-0.593-0.448-1.089-0.992-1.488-1.632
		c-0.4-0.64-0.6-1.248-0.6-1.824c0-1.024,0.271-1.824,0.815-2.4s1.408-1.104,2.592-1.584l4.896-2.016
		c0.64-0.256,1.016-0.48,1.128-0.672c0.111-0.192,0.184-0.607,0.216-1.248l0.096-3.072c0.032-0.832-0.2-1.551-0.695-2.16
		c-0.497-0.607-1.208-0.912-2.136-0.912c-0.48,0-0.961,0.08-1.44,0.24c-0.48,0.16-0.881,0.368-1.2,0.624
		c-0.191,0.128-0.32,0.32-0.384,0.576c-0.064,0.256-0.096,0.528-0.096,0.816c0,0.128,0.007,0.272,0.023,0.432
		c0.016,0.161,0.024,0.305,0.024,0.432c0,0.161-0.2,0.376-0.601,0.648c-0.4,0.272-0.848,0.512-1.344,0.72
		c-0.496,0.208-0.904,0.312-1.224,0.312c-0.161,0-0.288-0.04-0.384-0.12c-0.097-0.08-0.145-0.184-0.145-0.312
		c0-0.512,0.168-1.063,0.504-1.656c0.336-0.592,0.808-1.144,1.416-1.656c0.736-0.672,1.536-1.264,2.4-1.776
		c0.863-0.511,1.711-0.912,2.544-1.2c0.832-0.288,1.567-0.432,2.208-0.432c1.151,0,2.104,0.408,2.855,1.224s1.112,1.832,1.08,3.048
		l-0.239,11.52c-0.033,0.672,0.119,1.217,0.455,1.632c0.337,0.417,0.76,0.624,1.272,0.624c0.8,0,1.392-0.175,1.776-0.528
		c0.159-0.16,0.288-0.24,0.384-0.24c0.159,0,0.288,0.048,0.384,0.144c0.096,0.096,0.144,0.225,0.144,0.384
		c0,0.353-0.176,0.704-0.527,1.056c-0.513,0.512-1.064,0.92-1.656,1.224c-0.593,0.304-1.145,0.456-1.656,0.456
		c-1.472,0-2.64-0.832-3.504-2.496h-0.144c-1.057,0.864-2.064,1.497-3.024,1.896C673.722-135.121,672.73-134.92,671.707-134.92z
		 M673.963-137.224c0.64,0,1.184-0.104,1.632-0.312c0.448-0.208,0.848-0.488,1.2-0.84c0.159-0.16,0.295-0.375,0.408-0.648
		c0.111-0.271,0.184-0.711,0.216-1.32l0.096-2.352c0.031-0.352,0.016-0.607-0.048-0.768c-0.064-0.16-0.192-0.24-0.384-0.24
		c-0.064,0-0.177,0.016-0.336,0.048c-0.161,0.032-0.368,0.096-0.624,0.192c-1.696,0.608-2.873,1.241-3.528,1.896
		c-0.656,0.656-0.984,1.256-0.984,1.8c0,0.833,0.248,1.464,0.744,1.896C672.85-137.44,673.386-137.224,673.963-137.224z"/>
	<path fill="#083E00" d="M359.567-62.92c-0.705,0-1.409-0.064-2.113-0.192c-0.703-0.128-1.375-0.272-2.016-0.432
		c-0.704-0.192-1.32-0.367-1.848-0.528c-0.527-0.16-0.872-0.24-1.032-0.24c-0.192,0-0.376,0.065-0.552,0.192
		c-0.176,0.128-0.344,0.272-0.504,0.432c-0.16,0.16-0.305,0.24-0.432,0.24c-0.129,0-0.273-0.056-0.433-0.168
		c-0.161-0.112-0.239-0.248-0.239-0.408c0-0.288,0.055-0.784,0.168-1.488c0.111-0.704,0.168-1.36,0.168-1.968v-23.28
		c0-0.832-0.209-1.552-0.625-2.16c-0.416-0.607-0.943-1.056-1.584-1.344c-0.128-0.064-0.264-0.152-0.408-0.264
		c-0.144-0.112-0.215-0.264-0.215-0.456c0-0.16,0.063-0.271,0.191-0.336c0.127-0.064,0.256-0.112,0.385-0.144
		c0.414-0.096,0.983-0.271,1.703-0.528c0.721-0.256,1.399-0.512,2.04-0.768c0.64-0.256,1.071-0.432,1.296-0.528
		c0.192-0.096,0.336-0.144,0.432-0.144c0.064,0,0.128,0.032,0.192,0.096c0.063,0.064,0.097,0.144,0.097,0.24
		c0,0.128-0.024,0.665-0.072,1.608c-0.049,0.944-0.072,2.088-0.072,3.432v9.84c0,0.608,0.031,1.016,0.096,1.224
		c0.064,0.208,0.176,0.329,0.336,0.36c0.992-0.832,2.145-1.512,3.457-2.04c1.311-0.528,2.496-0.792,3.551-0.792
		c1.633,0,3.097,0.417,4.393,1.248c1.296,0.833,2.328,1.96,3.096,3.384c0.768,1.424,1.152,3.033,1.152,4.824
		c0,2.177-0.449,4.104-1.344,5.784c-0.896,1.68-2.137,2.984-3.721,3.912S361.678-62.92,359.567-62.92z M360.671-64.408
		c1.216,0,2.264-0.376,3.145-1.128c0.879-0.751,1.56-1.776,2.039-3.072c0.48-1.296,0.721-2.743,0.721-4.344
		c0-1.248-0.232-2.528-0.696-3.84c-0.464-1.312-1.185-2.416-2.16-3.312c-0.977-0.896-2.231-1.344-3.769-1.344
		c-1.279,0-2.399,0.208-3.359,0.624c-0.96,0.416-1.793,0.944-2.496,1.584v9.312c0,1.121,0.313,2.096,0.936,2.928
		c0.625,0.833,1.44,1.473,2.449,1.92C358.487-64.632,359.55-64.408,360.671-64.408z"/>
	<path fill="#083E00" d="M389.423-62.68c-0.225,0-0.336-0.128-0.336-0.384c0-0.32,0.039-0.792,0.119-1.416s0.121-1.144,0.121-1.56
		c0-0.063,0-0.12,0-0.168c0-0.048,0-0.087,0-0.12c-1.248,1.216-2.505,2.088-3.769,2.616c-1.265,0.528-2.648,0.792-4.152,0.792
		c-1.024,0-1.952-0.216-2.784-0.648s-1.488-1.072-1.968-1.92c-0.479-0.848-0.72-1.896-0.72-3.144v-9.744
		c0-0.703-0.16-1.264-0.48-1.68c-0.32-0.416-0.848-0.768-1.584-1.056c-0.16-0.064-0.305-0.144-0.432-0.24
		c-0.129-0.096-0.191-0.272-0.191-0.528c0-0.288,0.071-0.48,0.215-0.576c0.145-0.096,0.313-0.16,0.504-0.192
		c1.088-0.063,1.928-0.151,2.521-0.264c0.592-0.112,1.336-0.28,2.231-0.504c0.097-0.031,0.169-0.048,0.217-0.048s0.104,0,0.168,0
		c0.352,0,0.512,0.224,0.48,0.672c-0.097,0.737-0.168,1.353-0.217,1.848c-0.048,0.497-0.072,1.112-0.072,1.848v9.36
		c0,0.768,0.192,1.48,0.576,2.136c0.385,0.656,0.889,1.192,1.512,1.608c0.625,0.416,1.272,0.624,1.945,0.624
		c0.831,0,1.56-0.048,2.184-0.144c0.623-0.096,1.239-0.368,1.848-0.816c0.352-0.256,0.8-0.672,1.344-1.248
		c0.544-0.576,0.816-1.36,0.816-2.352v-8.784c0-0.672-0.2-1.176-0.6-1.512c-0.4-0.336-0.857-0.568-1.369-0.696
		c-0.512-0.127-0.928-0.192-1.247-0.192c-0.288,0-0.528-0.056-0.72-0.168c-0.192-0.112-0.289-0.328-0.289-0.648
		c0-0.288,0.104-0.48,0.313-0.576c0.208-0.096,0.439-0.144,0.696-0.144c0.991-0.031,1.815-0.072,2.472-0.12
		c0.656-0.048,1.248-0.128,1.775-0.24c0.529-0.112,1.08-0.248,1.656-0.408c0.064-0.031,0.145-0.055,0.24-0.072
		c0.096-0.016,0.176-0.024,0.24-0.024c0.416,0,0.624,0.176,0.624,0.528c0,0.032-0.009,0.088-0.024,0.168
		c-0.016,0.081-0.04,0.168-0.072,0.264c-0.031,0.096-0.071,0.368-0.119,0.816c-0.049,0.449-0.096,0.912-0.145,1.392
		c-0.048,0.48-0.072,0.848-0.072,1.104v11.088c0,0.864,0.088,1.48,0.265,1.848c0.175,0.368,0.376,0.552,0.601,0.552
		c0.255,0,0.631-0.024,1.127-0.072s0.855-0.072,1.08-0.072c0.16,0,0.32,0.032,0.48,0.096c0.16,0.064,0.24,0.24,0.24,0.528
		c0,0.257-0.064,0.425-0.192,0.504c-0.128,0.08-0.288,0.136-0.479,0.168c-1.248,0.16-2.32,0.4-3.217,0.72
		c-0.896,0.32-1.696,0.624-2.4,0.912c-0.096,0.031-0.239,0.088-0.432,0.168C389.759-62.721,389.582-62.68,389.423-62.68z"/>
	<path fill="#083E00" d="M404.062-62.92c-0.992,0-1.92-0.152-2.784-0.456c-0.863-0.304-1.601-0.728-2.208-1.272
		c-0.161-0.352-0.28-0.943-0.36-1.776c-0.08-0.832-0.137-1.52-0.168-2.064c0-0.288,0.208-0.432,0.625-0.432
		c0.127,0,0.247,0.024,0.359,0.072c0.111,0.048,0.184,0.136,0.216,0.264c0.415,1.568,1.08,2.688,1.992,3.36
		c0.912,0.672,1.831,1.008,2.761,1.008c0.928,0,1.719-0.312,2.375-0.936s0.984-1.399,0.984-2.328c0-0.864-0.288-1.608-0.864-2.232
		c-0.575-0.624-1.584-1.384-3.024-2.28c-1.088-0.672-1.967-1.312-2.64-1.92c-0.672-0.608-1.16-1.231-1.464-1.872
		c-0.305-0.64-0.456-1.36-0.456-2.16c0-1.024,0.24-1.952,0.72-2.784c0.48-0.832,1.2-1.495,2.16-1.992
		c0.961-0.496,2.16-0.744,3.6-0.744c0.961,0,1.76,0.096,2.4,0.288s1.12,0.4,1.44,0.624c0.255,0.353,0.472,0.904,0.647,1.656
		c0.176,0.752,0.264,1.464,0.264,2.136c0,0.224-0.16,0.336-0.479,0.336c-0.192,0-0.376-0.04-0.552-0.12
		c-0.176-0.08-0.297-0.184-0.359-0.312c-0.417-1.056-0.937-1.864-1.561-2.424c-0.624-0.56-1.4-0.84-2.328-0.84
		c-0.801,0-1.512,0.24-2.137,0.72c-0.623,0.48-0.936,1.185-0.936,2.112c0,0.736,0.232,1.392,0.696,1.968s1.336,1.232,2.616,1.968
		c1.855,1.056,3.24,2.04,4.152,2.952s1.367,2.12,1.367,3.624c0,1.728-0.656,3.137-1.968,4.224
		C407.838-63.465,406.141-62.92,404.062-62.92z"/>
	<path fill="#083E00" d="M414.766-63.448c-0.288,0-0.521-0.041-0.696-0.12c-0.177-0.08-0.265-0.216-0.265-0.408
		c0-0.256,0.121-0.432,0.361-0.528c0.239-0.096,0.486-0.175,0.743-0.24c0.673-0.16,1.184-0.36,1.536-0.6
		c0.352-0.24,0.527-0.648,0.527-1.224v-10.416c0-0.864-0.151-1.632-0.455-2.304c-0.305-0.672-0.873-1.072-1.704-1.2
		c-0.161-0.032-0.28-0.096-0.36-0.192c-0.08-0.096-0.119-0.24-0.119-0.432c0-0.352,0.144-0.544,0.432-0.576
		c1.279-0.288,2.335-0.679,3.168-1.176c0.832-0.496,1.455-0.904,1.871-1.224c0.289-0.224,0.512-0.336,0.673-0.336
		c0.192,0,0.288,0.08,0.288,0.24c0,0.256-0.041,0.76-0.12,1.512c-0.081,0.752-0.152,1.584-0.216,2.496
		c-0.064,0.912-0.096,1.736-0.096,2.472v11.136c0,0.544,0.184,0.944,0.551,1.2c0.368,0.256,0.872,0.464,1.513,0.624
		c0.255,0.064,0.504,0.144,0.743,0.24c0.24,0.096,0.361,0.272,0.361,0.528c0,0.352-0.32,0.528-0.961,0.528
		c-0.607,0-1.096-0.024-1.464-0.072c-0.368-0.048-0.72-0.087-1.056-0.12c-0.336-0.032-0.792-0.048-1.368-0.048
		c-0.544,0-0.992,0.017-1.345,0.048c-0.352,0.032-0.703,0.072-1.055,0.12C415.901-63.472,415.406-63.448,414.766-63.448z
		 M418.606-88.36c-0.672,0-1.24-0.231-1.704-0.696c-0.464-0.464-0.696-1.032-0.696-1.704c0-0.704,0.232-1.288,0.696-1.752
		c0.464-0.463,1.032-0.696,1.704-0.696c0.703,0,1.287,0.233,1.752,0.696c0.463,0.464,0.695,1.048,0.695,1.752
		c0,0.672-0.232,1.24-0.695,1.704C419.893-88.592,419.309-88.36,418.606-88.36z"/>
	<path fill="#083E00" d="M426.526-63.448c-0.288,0-0.521-0.041-0.696-0.12c-0.177-0.08-0.265-0.216-0.265-0.408
		c0-0.256,0.097-0.424,0.289-0.504c0.191-0.079,0.463-0.168,0.815-0.264c0.479-0.127,0.944-0.304,1.392-0.528
		c0.448-0.223,0.672-0.655,0.672-1.296v-10.32c0-0.864-0.088-1.6-0.264-2.208c-0.176-0.607-0.68-1.024-1.512-1.248
		c-0.129-0.064-0.24-0.136-0.336-0.216c-0.096-0.08-0.145-0.216-0.145-0.408c0-0.352,0.145-0.544,0.433-0.576
		c1.12-0.288,2.032-0.64,2.735-1.056c0.704-0.416,1.393-0.88,2.064-1.392c0.096-0.064,0.184-0.12,0.264-0.168
		c0.08-0.048,0.168-0.072,0.265-0.072c0.063,0,0.12,0.032,0.168,0.096c0.048,0.064,0.071,0.144,0.071,0.24
		c0,0.225-0.04,0.681-0.119,1.368c-0.08,0.688-0.12,1.256-0.12,1.704c0,0.128,0.007,0.248,0.024,0.36
		c0.016,0.113,0.039,0.185,0.071,0.216c1.12-1.056,2.312-1.856,3.576-2.4c1.264-0.543,2.647-0.816,4.151-0.816
		c1.568,0,2.864,0.641,3.889,1.92c1.023,1.28,1.535,2.864,1.535,4.752v10.224c0,0.641,0.225,1.064,0.673,1.272
		c0.448,0.208,0.911,0.393,1.392,0.552c0.256,0.096,0.504,0.2,0.744,0.312c0.24,0.112,0.36,0.296,0.36,0.552
		c0,0.192-0.112,0.312-0.337,0.36c-0.224,0.048-0.432,0.072-0.623,0.072c-0.641,0-1.137-0.024-1.488-0.072
		c-0.353-0.048-0.688-0.087-1.008-0.12c-0.32-0.032-0.768-0.048-1.344-0.048c-0.545,0-0.992,0.017-1.344,0.048
		c-0.354,0.032-0.713,0.072-1.08,0.12c-0.369,0.048-0.873,0.072-1.513,0.072c-0.161,0-0.36-0.024-0.601-0.072
		c-0.239-0.048-0.359-0.168-0.359-0.36c0-0.256,0.12-0.439,0.359-0.552c0.24-0.112,0.488-0.216,0.744-0.312
		c0.48-0.16,0.943-0.344,1.393-0.552c0.447-0.208,0.672-0.631,0.672-1.272v-10.08c0-1.408-0.393-2.503-1.176-3.288
		c-0.785-0.784-1.832-1.191-3.145-1.224c-1.151,0-2.16,0.185-3.023,0.552c-0.864,0.368-1.633,0.824-2.305,1.368
		c-0.128,0.128-0.224,0.296-0.287,0.504c-0.064,0.208-0.096,0.408-0.096,0.6v11.568c0,0.641,0.223,1.073,0.672,1.296
		c0.447,0.225,0.912,0.401,1.392,0.528c0.735,0.192,1.104,0.448,1.104,0.768c0,0.192-0.081,0.328-0.24,0.408
		c-0.161,0.08-0.4,0.12-0.721,0.12c-0.641,0-1.145-0.024-1.512-0.072c-0.368-0.048-0.713-0.087-1.031-0.12
		c-0.32-0.032-0.769-0.048-1.345-0.048c-0.544,0-0.983,0.017-1.319,0.048c-0.336,0.032-0.689,0.072-1.057,0.12
		C427.67-63.472,427.166-63.448,426.526-63.448z"/>
	<path fill="#083E00" d="M459.981-62.872c-1.76,0-3.296-0.432-4.607-1.296c-1.313-0.864-2.336-2.088-3.072-3.672
		s-1.104-3.416-1.104-5.496c0-1.855,0.424-3.543,1.271-5.064c0.848-1.52,1.976-2.743,3.385-3.672
		c1.407-0.928,2.943-1.392,4.607-1.392c1.279,0,2.416,0.256,3.408,0.768c0.991,0.512,1.768,1.224,2.328,2.136
		c0.559,0.912,0.84,1.96,0.84,3.144c0,0.993-0.48,1.488-1.44,1.488h-10.128c-0.448,0-0.76,0.12-0.936,0.36
		c-0.177,0.24-0.264,0.712-0.264,1.416c0,1.536,0.336,2.937,1.008,4.2c0.672,1.264,1.566,2.272,2.688,3.024
		c1.119,0.752,2.352,1.128,3.695,1.128c0.961,0,1.832-0.184,2.617-0.552c0.783-0.368,1.479-0.904,2.088-1.608
		c0.127-0.16,0.223-0.264,0.287-0.312c0.064-0.048,0.145-0.072,0.24-0.072c0.256,0,0.385,0.161,0.385,0.48
		c0,0.608-0.289,1.28-0.865,2.016c-0.479,0.608-1.055,1.136-1.727,1.584c-0.673,0.448-1.409,0.792-2.209,1.032
		C461.677-62.992,460.845-62.872,459.981-62.872z M455.565-77.417h4.368c0.769,0,1.424-0.016,1.968-0.048
		c0.545-0.031,1.072-0.096,1.584-0.192c0.16-0.032,0.265-0.136,0.313-0.312c0.048-0.175,0.072-0.424,0.072-0.744
		c0-0.928-0.408-1.72-1.225-2.376c-0.816-0.655-1.784-0.984-2.904-0.984c-0.736,0-1.472,0.216-2.207,0.648
		c-0.736,0.432-1.344,0.968-1.824,1.608c-0.48,0.641-0.721,1.28-0.721,1.92C454.989-77.576,455.181-77.417,455.565-77.417z"/>
	<path fill="#083E00" d="M475.389-62.92c-0.992,0-1.92-0.152-2.784-0.456s-1.601-0.728-2.208-1.272
		c-0.16-0.352-0.28-0.943-0.359-1.776c-0.08-0.832-0.137-1.52-0.168-2.064c0-0.288,0.207-0.432,0.623-0.432
		c0.128,0,0.248,0.024,0.36,0.072c0.112,0.048,0.184,0.136,0.216,0.264c0.416,1.568,1.08,2.688,1.992,3.36
		c0.912,0.672,1.832,1.008,2.76,1.008s1.721-0.312,2.377-0.936c0.654-0.624,0.983-1.399,0.983-2.328
		c0-0.864-0.288-1.608-0.864-2.232s-1.584-1.384-3.023-2.28c-1.089-0.672-1.969-1.312-2.641-1.92s-1.16-1.231-1.464-1.872
		c-0.304-0.64-0.456-1.36-0.456-2.16c0-1.024,0.24-1.952,0.721-2.784c0.479-0.832,1.199-1.495,2.16-1.992
		c0.959-0.496,2.159-0.744,3.6-0.744c0.959,0,1.76,0.096,2.4,0.288c0.639,0.192,1.119,0.4,1.439,0.624
		c0.256,0.353,0.472,0.904,0.648,1.656c0.175,0.752,0.264,1.464,0.264,2.136c0,0.224-0.16,0.336-0.48,0.336
		c-0.191,0-0.377-0.04-0.552-0.12c-0.177-0.08-0.296-0.184-0.36-0.312c-0.416-1.056-0.936-1.864-1.56-2.424
		c-0.624-0.56-1.4-0.84-2.328-0.84c-0.8,0-1.513,0.24-2.136,0.72c-0.624,0.48-0.936,1.185-0.936,2.112
		c0,0.736,0.23,1.392,0.695,1.968c0.463,0.576,1.336,1.232,2.616,1.968c1.855,1.056,3.239,2.04,4.151,2.952s1.368,2.12,1.368,3.624
		c0,1.728-0.656,3.137-1.968,4.224C479.165-63.465,477.469-62.92,475.389-62.92z"/>
	<path fill="#083E00" d="M490.893-62.92c-0.992,0-1.92-0.152-2.784-0.456s-1.601-0.728-2.208-1.272
		c-0.16-0.352-0.28-0.943-0.359-1.776c-0.08-0.832-0.137-1.52-0.168-2.064c0-0.288,0.207-0.432,0.623-0.432
		c0.128,0,0.248,0.024,0.36,0.072c0.112,0.048,0.184,0.136,0.216,0.264c0.416,1.568,1.08,2.688,1.992,3.36
		c0.912,0.672,1.832,1.008,2.76,1.008s1.721-0.312,2.377-0.936c0.654-0.624,0.983-1.399,0.983-2.328
		c0-0.864-0.288-1.608-0.864-2.232s-1.584-1.384-3.023-2.28c-1.089-0.672-1.969-1.312-2.641-1.92s-1.16-1.231-1.464-1.872
		c-0.304-0.64-0.456-1.36-0.456-2.16c0-1.024,0.24-1.952,0.721-2.784c0.479-0.832,1.199-1.495,2.16-1.992
		c0.959-0.496,2.159-0.744,3.6-0.744c0.959,0,1.76,0.096,2.4,0.288c0.639,0.192,1.119,0.4,1.439,0.624
		c0.256,0.353,0.472,0.904,0.648,1.656c0.175,0.752,0.264,1.464,0.264,2.136c0,0.224-0.16,0.336-0.48,0.336
		c-0.191,0-0.377-0.04-0.552-0.12c-0.177-0.08-0.296-0.184-0.36-0.312c-0.416-1.056-0.936-1.864-1.56-2.424
		c-0.624-0.56-1.4-0.84-2.328-0.84c-0.8,0-1.513,0.24-2.136,0.72c-0.624,0.48-0.936,1.185-0.936,2.112
		c0,0.736,0.23,1.392,0.695,1.968c0.463,0.576,1.336,1.232,2.616,1.968c1.855,1.056,3.239,2.04,4.151,2.952s1.368,2.12,1.368,3.624
		c0,1.728-0.656,3.137-1.968,4.224C494.669-63.465,492.973-62.92,490.893-62.92z"/>
	<path fill="#083E00" d="M518.157-62.92c-1.568,0-2.793-0.48-3.672-1.44c-0.881-0.96-1.32-2.383-1.32-4.272v-11.136
		c0-0.256-0.096-0.44-0.288-0.552c-0.192-0.112-0.608-0.168-1.248-0.168h-0.288c-0.16,0-0.296-0.104-0.408-0.312
		c-0.112-0.208-0.168-0.424-0.168-0.648c0-0.064,0.049-0.16,0.145-0.288c0.096-0.127,0.16-0.208,0.191-0.24
		c0.641-0.448,1.225-0.896,1.752-1.344c0.528-0.448,1.008-0.888,1.44-1.32c0.433-0.432,0.792-0.824,1.08-1.176
		c0.159-0.16,0.296-0.295,0.407-0.408c0.112-0.112,0.248-0.168,0.408-0.168s0.313,0.032,0.457,0.096
		c0.144,0.064,0.199,0.208,0.168,0.432l-0.24,2.16c-0.033,0.353,0.048,0.592,0.24,0.72c0.191,0.128,0.495,0.192,0.912,0.192h5.471
		c0.128,0,0.24,0.104,0.337,0.312c0.096,0.208,0.144,0.456,0.144,0.744s-0.048,0.568-0.144,0.84
		c-0.097,0.272-0.209,0.408-0.337,0.408h-4.752c-0.8,0-1.319,0.064-1.56,0.192c-0.239,0.128-0.36,0.512-0.36,1.152v9.456
		c0,1.28,0.271,2.289,0.816,3.024c0.544,0.736,1.328,1.104,2.352,1.104c0.928,0,1.648-0.072,2.16-0.216s0.977-0.36,1.393-0.648
		c0.063-0.063,0.127-0.096,0.191-0.096c0.128,0,0.217,0.072,0.265,0.216s0.071,0.296,0.071,0.456c0,0.16-0.264,0.48-0.791,0.96
		c-0.528,0.48-1.217,0.928-2.064,1.344S519.148-62.92,518.157-62.92z"/>
	<path fill="#083E00" d="M526.028-63.448c-0.641,0-0.959-0.176-0.959-0.528c0-0.288,0.367-0.544,1.104-0.768
		c0.48-0.16,0.936-0.368,1.367-0.624c0.433-0.256,0.664-0.704,0.697-1.344V-90.76c0-0.864-0.145-1.624-0.433-2.28
		c-0.288-0.655-0.849-1.047-1.681-1.176c-0.287-0.064-0.432-0.288-0.432-0.672c0-0.288,0.128-0.48,0.385-0.576
		c0.447-0.16,0.983-0.336,1.607-0.528s1.271-0.408,1.944-0.648c0.672-0.24,1.264-0.472,1.775-0.696
		c0.128-0.063,0.224-0.096,0.288-0.096c0.097,0,0.176,0.032,0.24,0.096c0.063,0.064,0.096,0.144,0.096,0.24
		c0,0.192-0.04,0.464-0.119,0.816c-0.081,0.353-0.152,0.96-0.217,1.824c-0.064,0.864-0.096,2.16-0.096,3.888v8.352
		c0,0.512,0.024,0.88,0.072,1.104c0.048,0.224,0.136,0.449,0.264,0.672c0.512-0.384,1.144-0.808,1.896-1.272
		c0.751-0.463,1.591-0.872,2.52-1.224c0.928-0.352,1.888-0.528,2.88-0.528c1.567,0,2.872,0.617,3.912,1.848
		c1.04,1.232,1.561,2.792,1.561,4.68v10.08c0,0.641,0.207,1.112,0.624,1.416c0.415,0.305,0.863,0.537,1.344,0.696
		c0.352,0.096,0.624,0.2,0.815,0.312c0.192,0.112,0.288,0.264,0.288,0.456c0,0.352-0.32,0.528-0.96,0.528
		c-0.641,0-1.128-0.024-1.464-0.072c-0.336-0.048-0.656-0.087-0.96-0.12c-0.305-0.032-0.744-0.048-1.32-0.048
		c-0.544,0-0.977,0.017-1.296,0.048c-0.32,0.032-0.647,0.072-0.983,0.12c-0.336,0.048-0.824,0.072-1.464,0.072
		c-0.641,0-0.961-0.176-0.961-0.528c0-0.224,0.097-0.376,0.288-0.456c0.192-0.08,0.464-0.184,0.816-0.312
		c0.48-0.16,0.912-0.392,1.296-0.696c0.384-0.304,0.576-0.775,0.576-1.416v-9.792c0-0.799-0.232-1.528-0.696-2.184
		c-0.464-0.655-1.032-1.176-1.704-1.56c-0.672-0.384-1.36-0.576-2.063-0.576c-0.608,0-1.313,0.088-2.112,0.264
		c-0.8,0.176-1.424,0.44-1.872,0.792c-0.512,0.416-0.856,0.848-1.032,1.296c-0.176,0.448-0.264,1.168-0.264,2.16v9.744
		c0.031,0.641,0.231,1.088,0.6,1.344c0.368,0.256,0.792,0.464,1.272,0.624c0.352,0.096,0.616,0.2,0.792,0.312
		c0.176,0.112,0.264,0.264,0.264,0.456c0,0.352-0.32,0.528-0.96,0.528c-0.641,0-1.12-0.024-1.439-0.072
		c-0.32-0.048-0.624-0.087-0.912-0.12c-0.288-0.032-0.72-0.048-1.296-0.048c-0.545,0-0.984,0.017-1.32,0.048
		c-0.336,0.032-0.688,0.072-1.057,0.12C527.173-63.472,526.669-63.448,526.028-63.448z"/>
	<path fill="#083E00" d="M551.228-63.448c-0.319,0-0.56-0.041-0.72-0.12s-0.24-0.216-0.24-0.408c0-0.256,0.097-0.424,0.288-0.504
		c0.192-0.079,0.464-0.168,0.816-0.264c0.607-0.16,1.063-0.392,1.368-0.696c0.304-0.304,0.456-0.679,0.456-1.128v-10.32
		c0-0.864-0.129-1.616-0.385-2.256s-0.784-1.04-1.584-1.2c-0.128-0.032-0.239-0.112-0.336-0.24
		c-0.096-0.127-0.144-0.255-0.144-0.384c0-0.319,0.144-0.512,0.432-0.576c0.832-0.255,1.704-0.631,2.616-1.128
		c0.912-0.496,1.624-0.904,2.136-1.224c0.192-0.127,0.344-0.216,0.456-0.264c0.112-0.048,0.2-0.072,0.265-0.072
		c0.159,0,0.239,0.113,0.239,0.336c0,0.096-0.008,0.336-0.023,0.72c-0.017,0.384-0.032,0.833-0.048,1.344
		c-0.017,0.513-0.041,1.025-0.072,1.536c0,0.064,0.031,0.096,0.096,0.096c0.512-0.64,1.08-1.2,1.704-1.68s1.264-0.864,1.92-1.152
		c0.655-0.288,1.288-0.432,1.896-0.432c0.672,0,1.224,0.144,1.655,0.432c0.433,0.288,0.648,0.656,0.648,1.104
		c0,0.32-0.089,0.672-0.264,1.056c-0.177,0.384-0.408,0.72-0.696,1.008s-0.593,0.432-0.912,0.432c-0.192,0-0.4-0.04-0.624-0.12
		c-0.225-0.08-0.464-0.184-0.72-0.312c-0.257-0.096-0.513-0.192-0.769-0.288c-0.256-0.096-0.512-0.144-0.768-0.144
		c-0.768,0-1.512,0.272-2.232,0.816c-0.72,0.545-1.08,1.616-1.08,3.216v9.696c0,0.417,0.224,0.761,0.673,1.032
		c0.447,0.272,1.071,0.536,1.872,0.792c0.352,0.096,0.624,0.192,0.815,0.288c0.192,0.096,0.288,0.256,0.288,0.48
		c0,0.352-0.32,0.528-0.96,0.528c-0.96,0-1.688-0.041-2.184-0.12c-0.497-0.08-1.161-0.12-1.992-0.12
		c-0.545,0-0.984,0.017-1.32,0.048c-0.336,0.032-0.688,0.072-1.056,0.12C552.373-63.472,551.869-63.448,551.228-63.448z"/>
	<path fill="#083E00" d="M576.141-62.92c-1.793,0-3.408-0.416-4.849-1.248c-1.439-0.832-2.584-1.975-3.432-3.432
		c-0.849-1.456-1.272-3.112-1.272-4.968c0-1.344,0.265-2.656,0.792-3.936c0.528-1.279,1.272-2.448,2.232-3.504s2.08-1.896,3.36-2.52
		c1.279-0.624,2.655-0.936,4.128-0.936c1.855,0,3.527,0.449,5.016,1.344c1.488,0.896,2.672,2.072,3.552,3.528
		c0.88,1.457,1.32,3.048,1.32,4.776c0,1.856-0.408,3.617-1.224,5.28c-0.816,1.664-2.024,3.016-3.624,4.056
		C580.541-63.441,578.541-62.92,576.141-62.92z M577.149-64.36c1.087,0,2.063-0.208,2.928-0.624
		c0.864-0.416,1.536-1.087,2.016-2.016c0.385-0.735,0.641-1.632,0.769-2.688c0.127-1.056,0.191-2.047,0.191-2.976
		c0-1.536-0.28-3.016-0.84-4.44c-0.56-1.423-1.344-2.592-2.352-3.504s-2.2-1.368-3.576-1.368c-0.864,0-1.641,0.136-2.328,0.408
		c-0.688,0.272-1.32,0.776-1.896,1.512c-0.641,0.8-1.057,1.776-1.248,2.928c-0.192,1.152-0.288,2.304-0.288,3.456
		c0,1.568,0.288,3.064,0.864,4.488c0.575,1.424,1.359,2.584,2.352,3.48C574.732-64.808,575.869-64.36,577.149-64.36z"/>
	<path fill="#083E00" d="M606.237-62.68c-0.225,0-0.336-0.128-0.336-0.384c0-0.32,0.039-0.792,0.119-1.416s0.12-1.144,0.12-1.56
		c0-0.063,0-0.12,0-0.168c0-0.048,0-0.087,0-0.12c-1.248,1.216-2.504,2.088-3.768,2.616c-1.265,0.528-2.648,0.792-4.152,0.792
		c-1.024,0-1.952-0.216-2.784-0.648s-1.487-1.072-1.968-1.92c-0.479-0.848-0.72-1.896-0.72-3.144v-9.744
		c0-0.703-0.16-1.264-0.48-1.68c-0.32-0.416-0.848-0.768-1.584-1.056c-0.16-0.064-0.304-0.144-0.432-0.24
		c-0.128-0.096-0.192-0.272-0.192-0.528c0-0.288,0.072-0.48,0.217-0.576c0.144-0.096,0.312-0.16,0.504-0.192
		c1.087-0.063,1.927-0.151,2.52-0.264c0.592-0.112,1.336-0.28,2.232-0.504c0.096-0.031,0.168-0.048,0.216-0.048s0.104,0,0.168,0
		c0.352,0,0.512,0.224,0.479,0.672c-0.096,0.737-0.168,1.353-0.216,1.848c-0.048,0.497-0.071,1.112-0.071,1.848v9.36
		c0,0.768,0.191,1.48,0.575,2.136c0.385,0.656,0.889,1.192,1.513,1.608c0.624,0.416,1.271,0.624,1.943,0.624
		c0.832,0,1.561-0.048,2.185-0.144c0.624-0.096,1.239-0.368,1.848-0.816c0.352-0.256,0.8-0.672,1.344-1.248
		c0.544-0.576,0.816-1.36,0.816-2.352v-8.784c0-0.672-0.2-1.176-0.6-1.512c-0.401-0.336-0.857-0.568-1.368-0.696
		c-0.513-0.127-0.929-0.192-1.248-0.192c-0.288,0-0.528-0.056-0.721-0.168c-0.191-0.112-0.287-0.328-0.287-0.648
		c0-0.288,0.104-0.48,0.312-0.576c0.208-0.096,0.439-0.144,0.696-0.144c0.991-0.031,1.815-0.072,2.472-0.12
		c0.655-0.048,1.248-0.128,1.776-0.24c0.527-0.112,1.08-0.248,1.655-0.408c0.064-0.031,0.145-0.055,0.24-0.072
		c0.097-0.016,0.176-0.024,0.24-0.024c0.415,0,0.624,0.176,0.624,0.528c0,0.032-0.009,0.088-0.024,0.168
		c-0.017,0.081-0.04,0.168-0.071,0.264c-0.032,0.096-0.072,0.368-0.12,0.816c-0.048,0.449-0.097,0.912-0.145,1.392
		s-0.071,0.848-0.071,1.104v11.088c0,0.864,0.087,1.48,0.264,1.848c0.176,0.368,0.376,0.552,0.6,0.552
		c0.256,0,0.632-0.024,1.128-0.072s0.856-0.072,1.08-0.072c0.16,0,0.319,0.032,0.48,0.096c0.159,0.064,0.24,0.24,0.24,0.528
		c0,0.257-0.064,0.425-0.192,0.504c-0.128,0.08-0.288,0.136-0.48,0.168c-1.247,0.16-2.32,0.4-3.216,0.72
		c-0.896,0.32-1.696,0.624-2.399,0.912c-0.097,0.031-0.24,0.088-0.433,0.168C606.573-62.721,606.396-62.68,606.237-62.68z"/>
	<path fill="#083E00" d="M623.325-49.672c-2.721,0-4.872-0.521-6.456-1.56c-1.584-1.04-2.376-2.44-2.376-4.2
		c0-0.833,0.127-1.536,0.384-2.112c0.256-0.576,0.655-1.072,1.2-1.488c0.447-0.384,1.048-0.872,1.8-1.464
		c0.751-0.593,1.527-1.208,2.328-1.848l2.016,0.096c-1.536,0.991-2.608,1.936-3.216,2.832c-0.608,0.896-0.912,1.984-0.912,3.264
		c0,1.28,0.567,2.359,1.704,3.24c1.136,0.879,2.536,1.32,4.2,1.32c1.888,0,3.408-0.432,4.56-1.296c0.8-0.608,1.424-1.4,1.872-2.376
		c0.448-0.977,0.672-2.009,0.672-3.096c0-0.704-0.248-1.289-0.744-1.752c-0.496-0.464-1.271-0.84-2.327-1.128
		c-1.057-0.288-2.433-0.48-4.129-0.576c-3.008-0.224-5.096-0.624-6.264-1.2c-1.168-0.576-1.752-1.472-1.752-2.688
		c0-0.32,0.088-0.616,0.264-0.888c0.176-0.271,0.456-0.568,0.841-0.888c0.735-0.576,1.279-1,1.632-1.272
		c0.352-0.271,0.615-0.504,0.792-0.696c0.175-0.192,0.343-0.432,0.504-0.72l1.632,0.816c-0.704,0.256-1.296,0.6-1.776,1.032
		c-0.479,0.432-0.72,0.824-0.72,1.176c0,0.448,0.24,0.84,0.72,1.176c0.48,0.336,1.184,0.6,2.112,0.792
		c0.928,0.192,2.064,0.336,3.408,0.432c2.943,0.16,5.136,0.64,6.576,1.44c1.439,0.799,2.16,1.936,2.16,3.408
		c0,1.248-0.313,2.472-0.937,3.672c-0.624,1.2-1.448,2.295-2.472,3.288c-1.024,0.992-2.169,1.784-3.433,2.376
		C625.925-49.969,624.636-49.672,623.325-49.672z M623.613-68.68c-1.313,0-2.561-0.336-3.744-1.008
		c-1.185-0.672-2.152-1.56-2.904-2.664s-1.128-2.312-1.128-3.624c0-1.504,0.392-2.824,1.176-3.96
		c0.784-1.135,1.815-2.023,3.096-2.664s2.641-0.96,4.08-0.96c0.928,0,1.736,0.12,2.425,0.36c0.688,0.24,1.367,0.456,2.04,0.648
		c0.768,0.224,1.375,0.36,1.823,0.408c0.448,0.048,0.912,0.072,1.393,0.072c0.384,0,0.863-0.024,1.439-0.072
		c0.576-0.048,0.976-0.072,1.2-0.072c0.416,0,0.624,0.24,0.624,0.72c0,0.288-0.16,0.592-0.479,0.912
		c-0.161,0.161-0.288,0.24-0.385,0.24h-1.296c-0.864,0-1.344,0.128-1.439,0.384c-0.032,0.128-0.072,0.312-0.12,0.552
		c-0.048,0.24-0.089,0.504-0.12,0.792c-0.032,0.288-0.048,0.576-0.048,0.864c0,1.632-0.353,3.137-1.057,4.512
		c-0.704,1.376-1.632,2.48-2.783,3.312C626.253-69.096,624.988-68.68,623.613-68.68z M623.9-70.36c1.216,0,2.225-0.616,3.024-1.848
		c0.8-1.231,1.2-2.76,1.2-4.584c0-0.928-0.216-1.8-0.648-2.616c-0.432-0.816-0.992-1.472-1.68-1.968
		c-0.688-0.496-1.433-0.744-2.232-0.744c-0.736,0-1.432,0.264-2.088,0.792c-0.656,0.528-1.184,1.208-1.584,2.04
		c-0.4,0.833-0.6,1.744-0.6,2.736c0,1.121,0.208,2.152,0.624,3.096c0.415,0.944,0.976,1.696,1.68,2.256
		C622.301-70.64,623.068-70.36,623.9-70.36z"/>
	<path fill="#083E00" d="M636.717-63.448c-0.641,0-0.96-0.176-0.96-0.528c0-0.288,0.367-0.544,1.104-0.768
		c0.48-0.16,0.937-0.368,1.368-0.624c0.433-0.256,0.664-0.704,0.696-1.344V-90.76c0-0.864-0.145-1.624-0.432-2.28
		c-0.288-0.655-0.849-1.047-1.681-1.176c-0.288-0.064-0.432-0.288-0.432-0.672c0-0.288,0.127-0.48,0.384-0.576
		c0.448-0.16,0.984-0.336,1.608-0.528s1.271-0.408,1.943-0.648c0.672-0.24,1.264-0.472,1.776-0.696
		c0.128-0.063,0.224-0.096,0.288-0.096c0.096,0,0.176,0.032,0.24,0.096c0.063,0.064,0.096,0.144,0.096,0.24
		c0,0.192-0.041,0.464-0.12,0.816c-0.08,0.353-0.152,0.96-0.216,1.824c-0.064,0.864-0.096,2.16-0.096,3.888v8.352
		c0,0.512,0.023,0.88,0.071,1.104c0.048,0.224,0.136,0.449,0.265,0.672c0.511-0.384,1.144-0.808,1.896-1.272
		c0.752-0.463,1.592-0.872,2.521-1.224c0.928-0.352,1.888-0.528,2.88-0.528c1.567,0,2.871,0.617,3.912,1.848
		c1.039,1.232,1.56,2.792,1.56,4.68v10.08c0,0.641,0.208,1.112,0.624,1.416c0.416,0.305,0.864,0.537,1.344,0.696
		c0.352,0.096,0.624,0.2,0.816,0.312c0.191,0.112,0.288,0.264,0.288,0.456c0,0.352-0.32,0.528-0.96,0.528
		c-0.641,0-1.128-0.024-1.464-0.072c-0.336-0.048-0.656-0.087-0.96-0.12c-0.305-0.032-0.744-0.048-1.32-0.048
		c-0.545,0-0.977,0.017-1.296,0.048c-0.32,0.032-0.648,0.072-0.984,0.12c-0.336,0.048-0.824,0.072-1.464,0.072
		c-0.641,0-0.96-0.176-0.96-0.528c0-0.224,0.096-0.376,0.288-0.456c0.192-0.08,0.464-0.184,0.815-0.312
		c0.48-0.16,0.912-0.392,1.297-0.696c0.384-0.304,0.575-0.775,0.575-1.416v-9.792c0-0.799-0.232-1.528-0.695-2.184
		c-0.465-0.655-1.032-1.176-1.704-1.56c-0.672-0.384-1.36-0.576-2.064-0.576c-0.608,0-1.313,0.088-2.111,0.264
		c-0.801,0.176-1.425,0.44-1.872,0.792c-0.513,0.416-0.856,0.848-1.032,1.296c-0.177,0.448-0.264,1.168-0.264,2.16v9.744
		c0.031,0.641,0.231,1.088,0.6,1.344c0.367,0.256,0.792,0.464,1.271,0.624c0.353,0.096,0.616,0.2,0.792,0.312
		c0.176,0.112,0.265,0.264,0.265,0.456c0,0.352-0.32,0.528-0.96,0.528c-0.641,0-1.121-0.024-1.44-0.072
		c-0.32-0.048-0.624-0.087-0.912-0.12c-0.288-0.032-0.72-0.048-1.296-0.048c-0.544,0-0.983,0.017-1.319,0.048
		c-0.337,0.032-0.688,0.072-1.057,0.12C637.86-63.472,637.356-63.448,636.717-63.448z"/>
	<path fill="#083E00" d="M357.358,9.128c-1.6,0-3.048-0.408-4.344-1.224s-2.32-1.936-3.072-3.36s-1.127-3.016-1.127-4.776
		c0-2.08,0.455-3.967,1.367-5.664c0.912-1.695,2.137-3.048,3.672-4.056c1.536-1.008,3.232-1.512,5.088-1.512
		c2.08,0,3.904,0.561,5.473,1.68c0.384,0.288,0.576,0.592,0.576,0.912c0,0.256-0.113,0.544-0.336,0.864
		c-0.225,0.32-0.497,0.584-0.816,0.792c-0.32,0.208-0.624,0.312-0.912,0.312c-0.16,0-0.32-0.056-0.48-0.168
		c-0.16-0.112-0.336-0.232-0.527-0.36c-0.705-0.544-1.488-1.056-2.352-1.536c-0.865-0.48-1.584-0.72-2.16-0.72
		c-1.568,0-2.841,0.729-3.816,2.184c-0.977,1.457-1.464,3.368-1.464,5.736c0,1.504,0.327,2.864,0.983,4.08
		c0.656,1.217,1.537,2.177,2.641,2.88c1.104,0.704,2.328,1.056,3.672,1.056c0.928,0,1.729-0.151,2.4-0.456
		c0.672-0.304,1.392-0.84,2.16-1.608c0.063-0.063,0.144-0.12,0.239-0.168c0.097-0.048,0.176-0.072,0.24-0.072
		c0.352,0,0.528,0.224,0.528,0.672c0,0.192-0.057,0.408-0.168,0.648c-0.113,0.24-0.297,0.521-0.553,0.84
		c-0.512,0.641-1.12,1.193-1.824,1.656c-0.703,0.464-1.48,0.808-2.328,1.032C359.27,9.015,358.35,9.128,357.358,9.128z"/>
	<path fill="#083E00" d="M376.943,9.08c-1.792,0-3.407-0.416-4.849-1.248C370.655,7,369.51,5.856,368.663,4.4
		c-0.848-1.456-1.271-3.112-1.271-4.968c0-1.344,0.264-2.656,0.792-3.936c0.528-1.279,1.272-2.448,2.231-3.504
		c0.961-1.056,2.08-1.896,3.36-2.52c1.279-0.624,2.655-0.936,4.128-0.936c1.855,0,3.528,0.449,5.016,1.344
		c1.488,0.896,2.672,2.072,3.553,3.528c0.879,1.457,1.32,3.048,1.32,4.776c0,1.856-0.408,3.617-1.225,5.28
		c-0.816,1.664-2.024,3.016-3.624,4.056C381.343,8.559,379.343,9.08,376.943,9.08z M377.952,7.64c1.087,0,2.063-0.208,2.928-0.624
		c0.863-0.416,1.535-1.087,2.016-2.016c0.384-0.735,0.64-1.632,0.768-2.688c0.128-1.056,0.192-2.047,0.192-2.976
		c0-1.536-0.28-3.016-0.84-4.44c-0.561-1.423-1.345-2.592-2.353-3.504s-2.2-1.368-3.576-1.368c-0.863,0-1.64,0.136-2.328,0.408
		c-0.688,0.272-1.319,0.776-1.896,1.512c-0.64,0.8-1.056,1.776-1.248,2.928c-0.192,1.152-0.288,2.304-0.288,3.456
		c0,1.568,0.288,3.064,0.864,4.488s1.36,2.584,2.353,3.48C375.535,7.192,376.671,7.64,377.952,7.64z"/>
	<path fill="#083E00" d="M394.128,9.08c-0.576,0-1.16-0.224-1.752-0.672c-0.593-0.448-1.088-0.992-1.488-1.632s-0.6-1.248-0.6-1.824
		c0-1.024,0.271-1.824,0.815-2.4s1.407-1.104,2.593-1.584l4.896-2.016c0.64-0.256,1.016-0.48,1.128-0.672
		c0.111-0.192,0.184-0.607,0.216-1.248l0.097-3.072c0.031-0.832-0.201-1.551-0.696-2.16c-0.497-0.607-1.208-0.912-2.136-0.912
		c-0.48,0-0.961,0.08-1.44,0.24s-0.88,0.368-1.2,0.624c-0.191,0.128-0.32,0.32-0.384,0.576c-0.064,0.256-0.097,0.528-0.097,0.816
		c0,0.128,0.008,0.272,0.024,0.432c0.017,0.161,0.024,0.305,0.024,0.432c0,0.161-0.201,0.376-0.6,0.648
		c-0.4,0.272-0.849,0.512-1.345,0.72c-0.497,0.208-0.904,0.312-1.224,0.312c-0.16,0-0.288-0.04-0.385-0.12
		c-0.096-0.08-0.144-0.184-0.144-0.312c0-0.512,0.168-1.063,0.504-1.656c0.336-0.592,0.808-1.144,1.416-1.656
		c0.735-0.672,1.536-1.264,2.4-1.776c0.864-0.511,1.712-0.912,2.544-1.2s1.567-0.432,2.208-0.432c1.151,0,2.104,0.408,2.856,1.224
		c0.751,0.816,1.111,1.832,1.08,3.048l-0.24,11.52c-0.033,0.672,0.119,1.217,0.455,1.632c0.336,0.417,0.76,0.624,1.272,0.624
		c0.8,0,1.392-0.175,1.776-0.528c0.159-0.16,0.287-0.24,0.384-0.24c0.159,0,0.288,0.048,0.384,0.144
		c0.096,0.096,0.145,0.225,0.145,0.384c0,0.353-0.177,0.704-0.528,1.056c-0.513,0.512-1.064,0.92-1.656,1.224
		c-0.593,0.304-1.145,0.456-1.655,0.456c-1.473,0-2.641-0.832-3.505-2.496h-0.144c-1.057,0.864-2.064,1.497-3.024,1.896
		C396.143,8.879,395.151,9.08,394.128,9.08z M396.384,6.776c0.64,0,1.184-0.104,1.632-0.312c0.448-0.208,0.848-0.488,1.2-0.84
		c0.16-0.16,0.295-0.375,0.408-0.648c0.111-0.271,0.184-0.711,0.216-1.32l0.096-2.352c0.032-0.352,0.017-0.607-0.048-0.768
		c-0.064-0.16-0.191-0.24-0.384-0.24c-0.064,0-0.177,0.016-0.337,0.048c-0.16,0.032-0.367,0.096-0.623,0.192
		c-1.697,0.608-2.873,1.241-3.528,1.896c-0.656,0.656-0.983,1.256-0.983,1.8c0,0.833,0.247,1.464,0.744,1.896
		C395.271,6.56,395.807,6.776,396.384,6.776z"/>
	<path fill="#083E00" d="M417.887,9.128c-1.602,0-3.049-0.408-4.345-1.224s-2.32-1.936-3.071-3.36
		c-0.753-1.424-1.129-3.016-1.129-4.776c0-2.08,0.457-3.967,1.368-5.664c0.912-1.695,2.136-3.048,3.673-4.056
		c1.535-1.008,3.23-1.512,5.088-1.512c2.079,0,3.903,0.561,5.471,1.68c0.385,0.288,0.576,0.592,0.576,0.912
		c0,0.256-0.111,0.544-0.336,0.864c-0.224,0.32-0.496,0.584-0.815,0.792c-0.32,0.208-0.624,0.312-0.912,0.312
		c-0.161,0-0.32-0.056-0.479-0.168c-0.161-0.112-0.336-0.232-0.528-0.36c-0.704-0.544-1.488-1.056-2.353-1.536
		c-0.863-0.48-1.584-0.72-2.16-0.72c-1.568,0-2.84,0.729-3.815,2.184c-0.977,1.457-1.464,3.368-1.464,5.736
		c0,1.504,0.328,2.864,0.984,4.08c0.654,1.217,1.535,2.177,2.64,2.88c1.104,0.704,2.327,1.056,3.672,1.056
		c0.928,0,1.728-0.151,2.399-0.456c0.672-0.304,1.393-0.84,2.16-1.608c0.064-0.063,0.145-0.12,0.24-0.168s0.176-0.072,0.24-0.072
		c0.352,0,0.527,0.224,0.527,0.672c0,0.192-0.056,0.408-0.168,0.648c-0.111,0.24-0.296,0.521-0.551,0.84
		c-0.514,0.641-1.121,1.193-1.824,1.656c-0.705,0.464-1.48,0.808-2.328,1.032C419.799,9.015,418.878,9.128,417.887,9.128z"/>
	<path fill="#083E00" d="M429.071,8.552c-0.641,0-0.96-0.176-0.96-0.528c0-0.288,0.367-0.544,1.104-0.768
		c0.479-0.16,0.936-0.368,1.367-0.624c0.432-0.256,0.664-0.704,0.696-1.344V-18.76c0-0.864-0.144-1.624-0.433-2.28
		c-0.287-0.655-0.848-1.047-1.68-1.176c-0.287-0.064-0.432-0.288-0.432-0.672c0-0.288,0.127-0.48,0.384-0.576
		c0.448-0.16,0.983-0.336,1.608-0.528c0.623-0.192,1.271-0.408,1.943-0.648c0.672-0.24,1.264-0.472,1.776-0.696
		c0.128-0.063,0.224-0.096,0.288-0.096c0.096,0,0.176,0.032,0.24,0.096c0.063,0.064,0.096,0.144,0.096,0.24
		c0,0.192-0.041,0.464-0.12,0.816c-0.08,0.353-0.152,0.96-0.216,1.824c-0.064,0.864-0.096,2.16-0.096,3.888v8.352
		c0,0.512,0.023,0.88,0.072,1.104c0.047,0.224,0.135,0.449,0.264,0.672c0.512-0.384,1.144-0.808,1.896-1.272
		c0.751-0.463,1.592-0.872,2.521-1.224c0.928-0.352,1.887-0.528,2.879-0.528c1.568,0,2.873,0.617,3.912,1.848
		c1.04,1.232,1.561,2.792,1.561,4.68v10.08c0,0.641,0.208,1.112,0.624,1.416c0.415,0.305,0.864,0.537,1.345,0.696
		c0.352,0.096,0.623,0.2,0.815,0.312c0.192,0.112,0.288,0.264,0.288,0.456c0,0.352-0.32,0.528-0.961,0.528
		c-0.64,0-1.127-0.024-1.463-0.072c-0.336-0.048-0.656-0.087-0.961-0.12c-0.304-0.032-0.744-0.048-1.319-0.048
		c-0.544,0-0.977,0.017-1.296,0.048c-0.32,0.032-0.648,0.072-0.984,0.12c-0.336,0.048-0.824,0.072-1.464,0.072
		c-0.641,0-0.96-0.176-0.96-0.528c0-0.224,0.096-0.376,0.288-0.456c0.192-0.08,0.464-0.184,0.815-0.312
		c0.48-0.16,0.912-0.392,1.297-0.696c0.384-0.304,0.576-0.775,0.576-1.416v-9.792c0-0.799-0.232-1.528-0.697-2.184
		c-0.463-0.655-1.031-1.176-1.703-1.56c-0.672-0.384-1.361-0.576-2.064-0.576c-0.607,0-1.313,0.088-2.111,0.264
		c-0.801,0.176-1.425,0.44-1.873,0.792c-0.512,0.416-0.855,0.848-1.031,1.296c-0.176,0.448-0.264,1.168-0.264,2.16v9.744
		c0.031,0.641,0.231,1.088,0.6,1.344c0.367,0.256,0.792,0.464,1.271,0.624c0.352,0.096,0.616,0.2,0.793,0.312
		c0.175,0.112,0.264,0.264,0.264,0.456c0,0.352-0.32,0.528-0.96,0.528c-0.641,0-1.12-0.024-1.44-0.072
		c-0.32-0.048-0.623-0.087-0.912-0.12c-0.287-0.032-0.72-0.048-1.296-0.048c-0.544,0-0.983,0.017-1.319,0.048
		c-0.336,0.032-0.689,0.072-1.057,0.12C430.215,8.528,429.711,8.552,429.071,8.552z"/>
	<path fill="#083E00" d="M454.03,8.552c-0.287,0-0.52-0.041-0.695-0.12s-0.264-0.216-0.264-0.408c0-0.256,0.119-0.432,0.359-0.528
		c0.24-0.096,0.488-0.175,0.744-0.24c0.672-0.16,1.184-0.36,1.536-0.6c0.352-0.24,0.528-0.648,0.528-1.224V-4.984
		c0-0.864-0.152-1.632-0.457-2.304c-0.304-0.672-0.871-1.072-1.703-1.2c-0.16-0.032-0.281-0.096-0.36-0.192
		c-0.08-0.096-0.12-0.24-0.12-0.432c0-0.352,0.145-0.544,0.432-0.576c1.28-0.288,2.336-0.679,3.168-1.176
		c0.832-0.496,1.457-0.904,1.873-1.224c0.287-0.224,0.512-0.336,0.672-0.336c0.191,0,0.287,0.08,0.287,0.24
		c0,0.256-0.04,0.76-0.119,1.512c-0.08,0.752-0.152,1.584-0.217,2.496s-0.096,1.736-0.096,2.472V5.432
		c0,0.544,0.184,0.944,0.553,1.2c0.367,0.256,0.871,0.464,1.512,0.624c0.256,0.064,0.504,0.144,0.744,0.24
		c0.24,0.096,0.359,0.272,0.359,0.528c0,0.352-0.32,0.528-0.959,0.528c-0.609,0-1.098-0.024-1.465-0.072
		c-0.368-0.048-0.72-0.087-1.056-0.12c-0.336-0.032-0.792-0.048-1.368-0.048c-0.545,0-0.992,0.017-1.344,0.048
		c-0.353,0.032-0.705,0.072-1.057,0.12C455.167,8.528,454.671,8.552,454.03,8.552z M457.871-16.36c-0.673,0-1.241-0.231-1.704-0.696
		c-0.465-0.464-0.696-1.032-0.696-1.704c0-0.704,0.231-1.288,0.696-1.752c0.463-0.463,1.031-0.696,1.704-0.696
		c0.703,0,1.288,0.233,1.752,0.696c0.464,0.464,0.696,1.048,0.696,1.752c0,0.672-0.232,1.24-0.696,1.704
		C459.159-16.592,458.574-16.36,457.871-16.36z"/>
	<path fill="#083E00" d="M465.79,8.552c-0.287,0-0.52-0.041-0.695-0.12s-0.264-0.216-0.264-0.408c0-0.256,0.096-0.424,0.287-0.504
		c0.192-0.079,0.464-0.168,0.816-0.264c0.48-0.127,0.943-0.304,1.393-0.528c0.447-0.223,0.672-0.655,0.672-1.296v-10.32
		c0-0.864-0.089-1.6-0.264-2.208c-0.177-0.607-0.681-1.024-1.513-1.248c-0.128-0.064-0.239-0.136-0.336-0.216
		c-0.097-0.08-0.144-0.216-0.144-0.408c0-0.352,0.144-0.544,0.432-0.576c1.119-0.288,2.031-0.64,2.736-1.056
		c0.703-0.416,1.392-0.88,2.063-1.392c0.097-0.064,0.185-0.12,0.265-0.168c0.079-0.048,0.168-0.072,0.264-0.072
		c0.063,0,0.119,0.032,0.168,0.096c0.048,0.064,0.072,0.144,0.072,0.24c0,0.225-0.041,0.681-0.121,1.368
		c-0.08,0.688-0.119,1.256-0.119,1.704c0,0.128,0.008,0.248,0.023,0.36c0.016,0.113,0.04,0.185,0.072,0.216
		c1.119-1.056,2.312-1.856,3.576-2.4c1.264-0.543,2.647-0.816,4.152-0.816c1.566,0,2.863,0.641,3.888,1.92
		c1.023,1.28,1.536,2.864,1.536,4.752V5.432c0,0.641,0.223,1.064,0.672,1.272c0.447,0.208,0.912,0.393,1.393,0.552
		c0.255,0.096,0.504,0.2,0.743,0.312c0.24,0.112,0.36,0.296,0.36,0.552c0,0.192-0.113,0.312-0.336,0.36
		c-0.225,0.048-0.432,0.072-0.625,0.072c-0.64,0-1.136-0.024-1.487-0.072c-0.353-0.048-0.688-0.087-1.008-0.12
		c-0.32-0.032-0.769-0.048-1.345-0.048c-0.544,0-0.992,0.017-1.344,0.048c-0.352,0.032-0.713,0.072-1.08,0.12
		c-0.367,0.048-0.872,0.072-1.512,0.072c-0.16,0-0.359-0.024-0.6-0.072c-0.24-0.048-0.36-0.168-0.36-0.36
		c0-0.256,0.12-0.439,0.36-0.552c0.24-0.112,0.487-0.216,0.744-0.312c0.479-0.16,0.943-0.344,1.392-0.552
		c0.448-0.208,0.672-0.631,0.672-1.272v-10.08c0-1.408-0.392-2.503-1.176-3.288c-0.784-0.784-1.833-1.191-3.144-1.224
		c-1.152,0-2.16,0.185-3.024,0.552c-0.864,0.368-1.632,0.824-2.304,1.368c-0.129,0.128-0.225,0.296-0.289,0.504
		c-0.064,0.208-0.096,0.408-0.096,0.6V5.432c0,0.641,0.224,1.073,0.672,1.296c0.448,0.225,0.912,0.401,1.393,0.528
		c0.736,0.192,1.104,0.448,1.104,0.768c0,0.192-0.08,0.328-0.24,0.408s-0.4,0.12-0.719,0.12c-0.641,0-1.145-0.024-1.513-0.072
		c-0.368-0.048-0.712-0.087-1.032-0.12c-0.32-0.032-0.768-0.048-1.344-0.048c-0.545,0-0.984,0.017-1.32,0.048
		c-0.336,0.032-0.688,0.072-1.056,0.12C466.934,8.528,466.43,8.552,465.79,8.552z"/>
	<path fill="#083E00" d="M498.382,22.328c-2.72,0-4.871-0.521-6.455-1.56c-1.584-1.04-2.377-2.44-2.377-4.2
		c0-0.833,0.128-1.536,0.385-2.112c0.256-0.576,0.655-1.072,1.199-1.488c0.448-0.384,1.049-0.872,1.801-1.464
		c0.752-0.593,1.527-1.208,2.328-1.848l2.016,0.096c-1.535,0.991-2.608,1.936-3.216,2.832c-0.608,0.896-0.912,1.984-0.912,3.264
		c0,1.28,0.567,2.359,1.704,3.24c1.135,0.879,2.535,1.32,4.2,1.32c1.888,0,3.407-0.432,4.56-1.296c0.8-0.608,1.424-1.4,1.872-2.376
		c0.448-0.977,0.673-2.009,0.673-3.096c0-0.704-0.249-1.289-0.744-1.752c-0.497-0.464-1.272-0.84-2.328-1.128
		c-1.057-0.288-2.433-0.48-4.129-0.576c-3.008-0.224-5.096-0.624-6.264-1.2c-1.168-0.576-1.752-1.472-1.752-2.688
		c0-0.32,0.088-0.616,0.264-0.888c0.176-0.271,0.457-0.568,0.84-0.888c0.736-0.576,1.28-1,1.633-1.272
		c0.352-0.271,0.615-0.504,0.792-0.696c0.175-0.192,0.343-0.432,0.504-0.72l1.632,0.816c-0.704,0.256-1.296,0.6-1.775,1.032
		c-0.48,0.432-0.721,0.824-0.721,1.176c0,0.448,0.24,0.84,0.721,1.176c0.479,0.336,1.184,0.6,2.111,0.792s2.064,0.336,3.408,0.432
		c2.943,0.16,5.136,0.64,6.576,1.44c1.439,0.799,2.16,1.936,2.16,3.408c0,1.248-0.313,2.472-0.937,3.672
		c-0.624,1.2-1.448,2.295-2.472,3.288c-1.025,0.992-2.168,1.784-3.432,2.376C500.981,22.031,499.694,22.328,498.382,22.328z
		 M498.671,3.32c-1.313,0-2.561-0.336-3.744-1.008c-1.185-0.672-2.152-1.56-2.904-2.664s-1.128-2.312-1.128-3.624
		c0-1.504,0.392-2.824,1.176-3.96c0.784-1.135,1.815-2.023,3.097-2.664c1.279-0.64,2.64-0.96,4.08-0.96
		c0.928,0,1.734,0.12,2.424,0.36c0.688,0.24,1.367,0.456,2.039,0.648c0.769,0.224,1.376,0.36,1.824,0.408
		c0.448,0.048,0.912,0.072,1.393,0.072c0.384,0,0.863-0.024,1.439-0.072c0.576-0.048,0.977-0.072,1.2-0.072
		c0.415,0,0.624,0.24,0.624,0.72c0,0.288-0.16,0.592-0.48,0.912c-0.16,0.161-0.287,0.24-0.383,0.24h-1.297
		c-0.863,0-1.344,0.128-1.439,0.384c-0.033,0.128-0.072,0.312-0.12,0.552c-0.048,0.24-0.089,0.504-0.12,0.792
		c-0.032,0.288-0.049,0.576-0.049,0.864c0,1.632-0.352,3.137-1.055,4.512c-0.705,1.376-1.633,2.48-2.785,3.312
		C501.31,2.904,500.046,3.32,498.671,3.32z M498.958,1.64c1.217,0,2.225-0.616,3.024-1.848c0.8-1.231,1.2-2.76,1.2-4.584
		c0-0.928-0.217-1.8-0.648-2.616s-0.992-1.472-1.68-1.968c-0.688-0.496-1.433-0.744-2.232-0.744c-0.736,0-1.432,0.264-2.088,0.792
		c-0.656,0.528-1.184,1.208-1.584,2.04c-0.4,0.833-0.6,1.744-0.6,2.736c0,1.121,0.207,2.152,0.624,3.096
		c0.415,0.944,0.976,1.696,1.68,2.256C497.358,1.36,498.126,1.64,498.958,1.64z"/>
	<path fill="#083E00" d="M515.423,9.08c-0.705,0-1.32-0.264-1.849-0.792c-0.528-0.528-0.792-1.144-0.792-1.848
		c0-0.736,0.264-1.36,0.792-1.872c0.528-0.512,1.144-0.768,1.849-0.768c0.735,0,1.359,0.256,1.871,0.768
		c0.512,0.512,0.769,1.136,0.769,1.872c0,0.704-0.257,1.32-0.769,1.848C516.782,8.816,516.158,9.08,515.423,9.08z"/>
</g>
</svg>
