<?xml version="1.0" encoding="utf-8"?>
<!-- Generator: Adobe Illustrator 14.0.0, SVG Export Plug-In . SVG Version: 6.00 Build 43363)  -->
<!DOCTYPE svg PUBLIC "-//W3C//DTD SVG 1.1//EN" "http://www.w3.org/Graphics/SVG/1.1/DTD/svg11.dtd">
<svg version="1.1" id="レイヤー_1" xmlns="http://www.w3.org/2000/svg" xmlns:xlink="http://www.w3.org/1999/xlink" x="0px"
	 y="0px" width="201.885px" height="191.472px" viewBox="-39.725 15.253 201.885 191.472"
	 enable-background="new -39.725 15.253 201.885 191.472" xml:space="preserve">
<g>
	<path fill="#FFFFFF" d="M-37.758,49.285c-0.416,0-0.752-0.041-1.008-0.12c-0.257-0.081-0.384-0.216-0.384-0.408
		c0-0.384,0.528-0.672,1.584-0.864c1.216-0.224,2.104-0.592,2.664-1.104c0.56-0.512,0.84-1.36,0.84-2.544V23.989
		c0-1.44-0.185-2.544-0.552-3.312c-0.368-0.768-1.16-1.264-2.376-1.488c-0.544-0.096-0.944-0.224-1.2-0.384
		c-0.256-0.16-0.384-0.352-0.384-0.576c0-0.192,0.127-0.328,0.384-0.408c0.256-0.08,0.592-0.12,1.008-0.12c0.864,0,1.512,0,1.944,0
		s0.84,0.008,1.224,0.024c0.384,0.016,0.896,0.024,1.536,0.024c0.64,0,1.288-0.024,1.944-0.072c0.655-0.048,1.272-0.096,1.848-0.144
		c0.576-0.048,1.087-0.072,1.536-0.072c3.648,0,6.583,0.752,8.808,2.256c2.224,1.504,3.336,3.6,3.336,6.288
		c0,1.952-0.384,3.752-1.152,5.4c-0.768,1.648-1.944,2.969-3.528,3.96c-1.584,0.992-3.608,1.488-6.072,1.488
		c-0.704,0-1.24-0.104-1.608-0.312c-0.368-0.208-0.552-0.408-0.552-0.6c0-0.127,0.088-0.271,0.264-0.432
		c0.176-0.16,0.344-0.24,0.504-0.24c0.16,0,0.408,0.017,0.744,0.048c0.336,0.032,0.824,0.048,1.464,0.048
		c1.92,0,3.368-0.799,4.344-2.4c0.976-1.6,1.464-3.808,1.464-6.624c0-2.56-0.752-4.456-2.256-5.688
		c-1.504-1.231-3.425-1.848-5.76-1.848c-0.896,0-1.632,0.152-2.208,0.456c-0.576,0.305-0.864,0.824-0.864,1.56v22.896
		c0,1.152,0.24,2.081,0.72,2.784c0.48,0.704,1.312,1.168,2.496,1.392c0.544,0.096,0.943,0.208,1.2,0.336
		c0.256,0.128,0.384,0.304,0.384,0.528c0,0.192-0.128,0.328-0.384,0.408c-0.257,0.08-0.593,0.12-1.008,0.12
		c-0.864,0-1.528-0.033-1.992-0.096c-0.464-0.064-0.88-0.12-1.248-0.168c-0.368-0.048-0.856-0.072-1.464-0.072
		c-0.8,0-1.512,0.024-2.136,0.072s-1.248,0.104-1.872,0.168C-36.15,49.252-36.893,49.285-37.758,49.285z"/>
	<path fill="#FFFFFF" d="M-9.054,49.189c-0.32,0-0.56-0.041-0.72-0.12s-0.24-0.216-0.24-0.408c0-0.256,0.096-0.424,0.288-0.504
		c0.192-0.079,0.463-0.168,0.816-0.264c0.607-0.16,1.063-0.392,1.368-0.696c0.304-0.304,0.456-0.679,0.456-1.128v-10.32
		c0-0.864-0.128-1.616-0.384-2.256c-0.256-0.64-0.785-1.04-1.584-1.2c-0.128-0.032-0.24-0.112-0.336-0.24
		c-0.096-0.127-0.144-0.255-0.144-0.384c0-0.319,0.144-0.512,0.432-0.576c0.832-0.255,1.704-0.631,2.616-1.128
		c0.912-0.496,1.624-0.904,2.136-1.224c0.192-0.127,0.343-0.216,0.456-0.264c0.111-0.048,0.199-0.072,0.264-0.072
		c0.16,0,0.24,0.113,0.24,0.336c0,0.096-0.008,0.336-0.024,0.72c-0.017,0.384-0.032,0.833-0.048,1.344
		c-0.016,0.513-0.041,1.025-0.072,1.536c0,0.064,0.031,0.096,0.096,0.096c0.512-0.64,1.08-1.2,1.704-1.68s1.264-0.864,1.92-1.152
		c0.656-0.288,1.288-0.432,1.896-0.432c0.672,0,1.224,0.144,1.656,0.432s0.648,0.656,0.648,1.104c0,0.32-0.088,0.672-0.264,1.056
		c-0.176,0.384-0.408,0.72-0.696,1.008s-0.593,0.432-0.912,0.432c-0.192,0-0.4-0.04-0.624-0.12c-0.224-0.08-0.464-0.184-0.72-0.312
		c-0.257-0.096-0.512-0.192-0.768-0.288c-0.257-0.096-0.512-0.144-0.768-0.144c-0.768,0-1.512,0.272-2.232,0.816
		c-0.72,0.545-1.08,1.616-1.08,3.216v9.696c0,0.417,0.224,0.761,0.672,1.032c0.448,0.272,1.072,0.536,1.872,0.792
		c0.352,0.096,0.624,0.192,0.816,0.288c0.192,0.096,0.288,0.256,0.288,0.48c0,0.352-0.32,0.528-0.96,0.528
		c-0.96,0-1.688-0.041-2.184-0.12c-0.497-0.08-1.16-0.12-1.992-0.12c-0.545,0-0.984,0.017-1.32,0.048
		c-0.336,0.032-0.688,0.072-1.056,0.12C-7.911,49.165-8.415,49.189-9.054,49.189z"/>
	<path fill="#FFFFFF" d="M18.258,49.717c-1.792,0-3.408-0.416-4.848-1.248c-1.44-0.832-2.584-1.975-3.432-3.432
		c-0.849-1.456-1.272-3.112-1.272-4.968c0-1.344,0.264-2.656,0.792-3.936c0.528-1.279,1.272-2.448,2.232-3.504s2.08-1.896,3.36-2.52
		c1.279-0.624,2.656-0.936,4.128-0.936c1.855,0,3.528,0.449,5.016,1.344c1.488,0.896,2.671,2.072,3.552,3.528
		c0.88,1.457,1.32,3.048,1.32,4.776c0,1.856-0.408,3.617-1.224,5.28c-0.816,1.664-2.024,3.016-3.624,4.056
		C22.657,49.196,20.657,49.717,18.258,49.717z M19.266,48.277c1.087,0,2.064-0.208,2.928-0.624c0.864-0.416,1.536-1.087,2.016-2.016
		c0.384-0.735,0.64-1.632,0.768-2.688c0.127-1.056,0.192-2.047,0.192-2.976c0-1.536-0.281-3.016-0.84-4.44
		c-0.561-1.423-1.344-2.592-2.352-3.504c-1.008-0.912-2.201-1.368-3.576-1.368c-0.864,0-1.64,0.136-2.328,0.408
		c-0.688,0.272-1.32,0.776-1.896,1.512c-0.64,0.8-1.056,1.776-1.248,2.928c-0.192,1.152-0.288,2.304-0.288,3.456
		c0,1.568,0.288,3.064,0.864,4.488s1.36,2.584,2.352,3.48C16.849,47.829,17.986,48.277,19.266,48.277z"/>
	<path fill="#FFFFFF" d="M42.738,50.052c-0.128,0-0.288-0.248-0.48-0.744c-0.192-0.496-0.32-0.856-0.384-1.08
		c-0.225-0.544-0.432-1.112-0.624-1.704c-0.192-0.592-0.384-1.144-0.576-1.656c-0.704-1.984-1.464-3.928-2.28-5.832
		c-0.816-1.904-1.608-3.832-2.376-5.784c-0.224-0.576-0.568-1.096-1.032-1.56c-0.464-0.463-0.936-0.76-1.416-0.888
		c-0.256-0.096-0.464-0.192-0.624-0.288c-0.161-0.096-0.24-0.256-0.24-0.48c0-0.192,0.12-0.312,0.36-0.36
		c0.24-0.048,0.439-0.072,0.6-0.072c0.64,0,1.104,0.017,1.392,0.048c0.288,0.032,0.576,0.072,0.864,0.12s0.704,0.072,1.248,0.072
		c0.576,0,1.008-0.024,1.296-0.072s0.592-0.088,0.912-0.12c0.319-0.031,0.784-0.048,1.392-0.048c0.16,0,0.36,0.024,0.6,0.072
		c0.24,0.048,0.36,0.168,0.36,0.36c0,0.224-0.113,0.4-0.336,0.528c-0.225,0.128-0.48,0.24-0.768,0.336
		c-0.32,0.128-0.561,0.376-0.72,0.744c-0.161,0.368-0.24,0.776-0.24,1.224c0,0.224,0.016,0.448,0.048,0.672
		c0.031,0.224,0.08,0.432,0.144,0.624l3.792,10.08c0.031,0.032,0.055,0.048,0.072,0.048c0.016,0,0.04-0.016,0.072-0.048l3.648-9.36
		c0.127-0.319,0.224-0.664,0.288-1.032c0.063-0.368,0.096-0.68,0.096-0.936c0-0.64-0.096-1.096-0.288-1.368
		c-0.192-0.271-0.512-0.487-0.96-0.648c-0.416-0.16-0.704-0.288-0.864-0.384c-0.161-0.096-0.24-0.256-0.24-0.48
		c0-0.192,0.104-0.312,0.312-0.36c0.208-0.048,0.424-0.072,0.648-0.072c0.352,0,0.816,0.041,1.392,0.12
		c0.576,0.08,1.28,0.12,2.112,0.12c0.832,0,1.399-0.04,1.704-0.12c0.304-0.08,0.68-0.12,1.128-0.12c0.255,0,0.48,0.024,0.672,0.072
		c0.192,0.048,0.288,0.168,0.288,0.36c0,0.353-0.369,0.64-1.104,0.864c-0.48,0.128-1.008,0.497-1.584,1.104
		c-0.576,0.608-1.041,1.313-1.392,2.112l-3.744,9.024c-0.064,0.128-0.192,0.44-0.384,0.936c-0.192,0.496-0.401,1.04-0.624,1.632
		c-0.225,0.592-0.497,1.32-0.816,2.184c-0.257,0.608-0.464,1.08-0.624,1.416c-0.161,0.336-0.305,0.583-0.432,0.744H42.738z"/>
	<path fill="#FFFFFF" d="M58.001,49.189c-0.288,0-0.521-0.041-0.696-0.12c-0.176-0.08-0.264-0.216-0.264-0.408
		c0-0.256,0.12-0.432,0.36-0.528c0.24-0.096,0.487-0.175,0.744-0.24c0.672-0.16,1.184-0.36,1.536-0.6
		c0.352-0.24,0.528-0.648,0.528-1.224V35.653c0-0.864-0.152-1.632-0.456-2.304c-0.304-0.672-0.872-1.072-1.704-1.2
		c-0.161-0.032-0.281-0.096-0.36-0.192c-0.08-0.096-0.12-0.24-0.12-0.432c0-0.352,0.144-0.544,0.432-0.576
		c1.28-0.288,2.335-0.679,3.168-1.176c0.832-0.496,1.456-0.904,1.872-1.224c0.288-0.224,0.512-0.336,0.672-0.336
		c0.192,0,0.288,0.08,0.288,0.24c0,0.256-0.041,0.76-0.12,1.512c-0.081,0.752-0.152,1.584-0.216,2.496
		c-0.064,0.912-0.096,1.736-0.096,2.472v11.136c0,0.544,0.184,0.944,0.552,1.2c0.368,0.256,0.872,0.464,1.512,0.624
		c0.255,0.064,0.504,0.144,0.744,0.24c0.24,0.096,0.36,0.272,0.36,0.528c0,0.352-0.32,0.528-0.96,0.528
		c-0.608,0-1.097-0.024-1.464-0.072c-0.368-0.048-0.72-0.087-1.056-0.12c-0.336-0.032-0.792-0.048-1.368-0.048
		c-0.544,0-0.992,0.017-1.344,0.048c-0.352,0.032-0.704,0.072-1.056,0.12C59.137,49.165,58.641,49.189,58.001,49.189z
		 M61.842,24.277c-0.672,0-1.241-0.231-1.704-0.696c-0.464-0.464-0.696-1.032-0.696-1.704c0-0.704,0.232-1.288,0.696-1.752
		c0.463-0.463,1.032-0.696,1.704-0.696c0.703,0,1.288,0.233,1.752,0.696c0.463,0.464,0.696,1.048,0.696,1.752
		c0,0.672-0.232,1.24-0.696,1.704C63.129,24.045,62.545,24.277,61.842,24.277z"/>
	<path fill="#FFFFFF" d="M87.185,49.957c-0.065,0-0.168-0.064-0.312-0.192c-0.144-0.128-0.216-0.225-0.216-0.288
		c0-0.32,0.04-0.775,0.12-1.368c0.08-0.592,0.12-1.096,0.12-1.512v-0.288c-0.48,0.736-1.248,1.488-2.304,2.256
		s-2.384,1.152-3.984,1.152c-1.824,0-3.4-0.48-4.728-1.44c-1.328-0.96-2.352-2.191-3.072-3.696c-0.72-1.504-1.08-3.056-1.08-4.656
		c0-1.855,0.432-3.6,1.296-5.232c0.864-1.632,2.104-2.959,3.72-3.984c1.616-1.024,3.544-1.536,5.784-1.536
		c0.64,0,1.288,0.056,1.944,0.168c0.656,0.113,1.16,0.232,1.512,0.36c0.288,0.096,0.496,0.144,0.624,0.144
		c0.224,0,0.336-0.384,0.336-1.152v-6.816c0-1.312-0.208-2.191-0.624-2.64c-0.416-0.448-1.008-0.736-1.776-0.864
		c-0.288-0.064-0.432-0.271-0.432-0.624c0-0.288,0.127-0.48,0.384-0.576c1.408-0.352,2.512-0.688,3.312-1.008
		c0.8-0.32,1.424-0.576,1.872-0.768c0.127-0.064,0.248-0.104,0.36-0.12c0.111-0.016,0.199-0.024,0.264-0.024
		c0.192,0,0.304,0.096,0.336,0.288c0,0.192-0.024,0.521-0.072,0.984c-0.048,0.464-0.104,1.145-0.168,2.04
		c-0.064,0.896-0.096,2.064-0.096,3.504v21.696c0,1.088,0.08,1.88,0.24,2.376c0.16,0.496,0.416,0.744,0.768,0.744
		c0.16,0,0.439-0.016,0.84-0.048c0.4-0.031,0.808-0.064,1.224-0.096c0.576-0.031,0.864,0.113,0.864,0.432
		c0,0.224-0.072,0.425-0.216,0.6c-0.144,0.176-0.296,0.264-0.456,0.264c-0.896,0.128-1.776,0.312-2.64,0.552
		c-0.864,0.24-1.856,0.6-2.976,1.08c-0.256,0.127-0.424,0.208-0.504,0.24C87.369,49.94,87.281,49.957,87.185,49.957z M82.337,47.22
		c0.832,0,1.647-0.216,2.448-0.648c0.8-0.432,1.504-1,2.112-1.704l0.048-8.64c0-0.864-0.248-1.711-0.744-2.544
		c-0.497-0.832-1.184-1.512-2.064-2.04c-0.88-0.528-1.913-0.792-3.096-0.792c-0.737,0-1.568,0.224-2.496,0.672
		c-0.929,0.449-1.728,1.241-2.4,2.376c-0.672,1.136-1.008,2.776-1.008,4.92c0,1.824,0.271,3.288,0.816,4.392
		c0.544,1.104,1.208,1.944,1.992,2.52c0.784,0.576,1.584,0.968,2.4,1.176C81.161,47.117,81.825,47.22,82.337,47.22z"/>
	<path fill="#FFFFFF" d="M98.849,49.189c-0.288,0-0.521-0.041-0.696-0.12c-0.176-0.08-0.264-0.216-0.264-0.408
		c0-0.256,0.12-0.432,0.36-0.528c0.24-0.096,0.487-0.175,0.744-0.24c0.672-0.16,1.184-0.36,1.536-0.6
		c0.352-0.24,0.528-0.648,0.528-1.224V35.653c0-0.864-0.152-1.632-0.456-2.304c-0.304-0.672-0.872-1.072-1.704-1.2
		c-0.161-0.032-0.281-0.096-0.36-0.192c-0.08-0.096-0.12-0.24-0.12-0.432c0-0.352,0.144-0.544,0.432-0.576
		c1.28-0.288,2.335-0.679,3.168-1.176c0.832-0.496,1.456-0.904,1.872-1.224c0.288-0.224,0.512-0.336,0.672-0.336
		c0.192,0,0.288,0.08,0.288,0.24c0,0.256-0.041,0.76-0.12,1.512c-0.081,0.752-0.152,1.584-0.216,2.496
		c-0.064,0.912-0.096,1.736-0.096,2.472v11.136c0,0.544,0.184,0.944,0.552,1.2c0.367,0.256,0.871,0.464,1.512,0.624
		c0.256,0.064,0.504,0.144,0.744,0.24c0.24,0.096,0.36,0.272,0.36,0.528c0,0.352-0.32,0.528-0.96,0.528
		c-0.608,0-1.097-0.024-1.464-0.072c-0.368-0.048-0.72-0.087-1.056-0.12c-0.336-0.032-0.792-0.048-1.368-0.048
		c-0.544,0-0.992,0.017-1.344,0.048c-0.352,0.032-0.704,0.072-1.056,0.12C99.985,49.165,99.489,49.189,98.849,49.189z
		 M102.689,24.277c-0.672,0-1.241-0.231-1.704-0.696c-0.464-0.464-0.696-1.032-0.696-1.704c0-0.704,0.232-1.288,0.696-1.752
		c0.463-0.463,1.032-0.696,1.704-0.696c0.703,0,1.288,0.233,1.752,0.696c0.463,0.464,0.696,1.048,0.696,1.752
		c0,0.672-0.232,1.24-0.696,1.704C103.977,24.045,103.392,24.277,102.689,24.277z"/>
	<path fill="#FFFFFF" d="M113.009,49.189c-0.288,0-0.521-0.041-0.696-0.12s-0.264-0.216-0.264-0.408
		c0-0.256,0.096-0.424,0.288-0.504c0.191-0.079,0.463-0.168,0.815-0.264c0.48-0.127,0.943-0.304,1.393-0.528
		c0.447-0.223,0.672-0.655,0.672-1.296v-10.32c0-0.864-0.089-1.6-0.265-2.208c-0.176-0.607-0.68-1.024-1.512-1.248
		c-0.128-0.064-0.24-0.136-0.336-0.216c-0.096-0.08-0.144-0.216-0.144-0.408c0-0.352,0.144-0.544,0.432-0.576
		c1.12-0.288,2.031-0.64,2.736-1.056c0.703-0.416,1.392-0.88,2.063-1.392c0.096-0.064,0.184-0.12,0.264-0.168
		c0.08-0.048,0.168-0.072,0.265-0.072c0.063,0,0.12,0.032,0.168,0.096c0.048,0.064,0.072,0.144,0.072,0.24
		c0,0.225-0.041,0.681-0.12,1.368c-0.081,0.688-0.12,1.256-0.12,1.704c0,0.128,0.007,0.248,0.023,0.36
		c0.016,0.113,0.04,0.185,0.072,0.216c1.12-1.056,2.312-1.856,3.576-2.4c1.264-0.543,2.647-0.816,4.152-0.816
		c1.567,0,2.863,0.641,3.888,1.92c1.023,1.28,1.536,2.864,1.536,4.752v10.224c0,0.641,0.224,1.064,0.672,1.272
		c0.447,0.208,0.912,0.393,1.392,0.552c0.256,0.096,0.504,0.2,0.744,0.312c0.24,0.112,0.36,0.296,0.36,0.552
		c0,0.192-0.112,0.312-0.336,0.36c-0.225,0.048-0.433,0.072-0.624,0.072c-0.641,0-1.137-0.024-1.488-0.072
		c-0.353-0.048-0.688-0.087-1.008-0.12c-0.32-0.032-0.769-0.048-1.344-0.048c-0.545,0-0.993,0.017-1.345,0.048
		c-0.353,0.032-0.712,0.072-1.08,0.12c-0.368,0.048-0.872,0.072-1.512,0.072c-0.16,0-0.36-0.024-0.6-0.072
		c-0.24-0.048-0.36-0.168-0.36-0.36c0-0.256,0.12-0.439,0.36-0.552c0.239-0.112,0.487-0.216,0.744-0.312
		c0.479-0.16,0.943-0.344,1.392-0.552c0.447-0.208,0.672-0.631,0.672-1.272v-10.08c0-1.408-0.393-2.503-1.176-3.288
		c-0.784-0.784-1.832-1.191-3.145-1.224c-1.151,0-2.159,0.185-3.023,0.552c-0.864,0.368-1.632,0.824-2.304,1.368
		c-0.129,0.128-0.225,0.296-0.288,0.504c-0.064,0.208-0.097,0.408-0.097,0.6v11.568c0,0.641,0.224,1.073,0.672,1.296
		c0.448,0.225,0.912,0.401,1.393,0.528c0.735,0.192,1.104,0.448,1.104,0.768c0,0.192-0.08,0.328-0.239,0.408
		c-0.161,0.08-0.401,0.12-0.721,0.12c-0.641,0-1.145-0.024-1.512-0.072c-0.368-0.048-0.713-0.087-1.032-0.12
		c-0.32-0.032-0.768-0.048-1.344-0.048c-0.545,0-0.984,0.017-1.32,0.048c-0.336,0.032-0.688,0.072-1.056,0.12
		C114.153,49.165,113.649,49.189,113.009,49.189z"/>
	<path fill="#FFFFFF" d="M148.001,62.965c-2.721,0-4.872-0.521-6.456-1.56c-1.584-1.04-2.376-2.44-2.376-4.2
		c0-0.833,0.127-1.536,0.384-2.112c0.256-0.576,0.655-1.072,1.2-1.488c0.447-0.384,1.048-0.872,1.8-1.464
		c0.751-0.593,1.527-1.208,2.328-1.848l2.016,0.096c-1.536,0.991-2.608,1.936-3.216,2.832c-0.608,0.896-0.912,1.984-0.912,3.264
		c0,1.28,0.567,2.359,1.704,3.24c1.136,0.879,2.536,1.32,4.2,1.32c1.888,0,3.408-0.432,4.56-1.296c0.8-0.608,1.424-1.4,1.872-2.376
		c0.448-0.977,0.672-2.009,0.672-3.096c0-0.704-0.248-1.289-0.744-1.752c-0.496-0.464-1.271-0.84-2.327-1.128
		c-1.057-0.288-2.433-0.48-4.129-0.576c-3.008-0.224-5.096-0.624-6.264-1.2c-1.168-0.576-1.752-1.472-1.752-2.688
		c0-0.32,0.088-0.616,0.264-0.888c0.176-0.271,0.456-0.568,0.841-0.888c0.735-0.576,1.279-1,1.632-1.272
		c0.352-0.271,0.615-0.504,0.792-0.696c0.175-0.192,0.343-0.432,0.504-0.72l1.632,0.816c-0.704,0.256-1.296,0.6-1.776,1.032
		c-0.479,0.432-0.72,0.824-0.72,1.176c0,0.448,0.24,0.84,0.72,1.176c0.48,0.336,1.184,0.6,2.112,0.792
		c0.928,0.192,2.064,0.336,3.408,0.432c2.943,0.16,5.136,0.64,6.576,1.44c1.439,0.799,2.16,1.936,2.16,3.408
		c0,1.248-0.313,2.472-0.937,3.672c-0.624,1.2-1.448,2.295-2.472,3.288c-1.024,0.992-2.169,1.784-3.433,2.376
		C150.601,62.668,149.313,62.965,148.001,62.965z M148.289,43.957c-1.313,0-2.561-0.336-3.744-1.008
		c-1.185-0.672-2.152-1.56-2.904-2.664s-1.128-2.312-1.128-3.624c0-1.504,0.392-2.824,1.176-3.96
		c0.784-1.135,1.815-2.023,3.096-2.664s2.641-0.96,4.08-0.96c0.928,0,1.736,0.12,2.425,0.36c0.688,0.24,1.367,0.456,2.04,0.648
		c0.768,0.224,1.375,0.36,1.823,0.408c0.448,0.048,0.912,0.072,1.393,0.072c0.384,0,0.863-0.024,1.439-0.072
		c0.576-0.048,0.976-0.072,1.2-0.072c0.416,0,0.624,0.24,0.624,0.72c0,0.288-0.16,0.592-0.479,0.912
		c-0.161,0.161-0.288,0.24-0.385,0.24h-1.296c-0.864,0-1.344,0.128-1.439,0.384c-0.032,0.128-0.072,0.312-0.12,0.552
		c-0.048,0.24-0.089,0.504-0.12,0.792c-0.032,0.288-0.048,0.576-0.048,0.864c0,1.632-0.353,3.137-1.057,4.512
		c-0.704,1.376-1.632,2.48-2.783,3.312C150.929,43.541,149.664,43.957,148.289,43.957z M148.576,42.277
		c1.216,0,2.225-0.616,3.024-1.848c0.8-1.231,1.2-2.76,1.2-4.584c0-0.928-0.216-1.8-0.648-2.616
		c-0.432-0.816-0.992-1.472-1.68-1.968c-0.688-0.496-1.433-0.744-2.232-0.744c-0.736,0-1.432,0.264-2.088,0.792
		c-0.656,0.528-1.184,1.208-1.584,2.04c-0.4,0.833-0.6,1.744-0.6,2.736c0,1.121,0.208,2.152,0.624,3.096
		c0.415,0.944,0.976,1.696,1.68,2.256C146.977,41.997,147.744,42.277,148.576,42.277z"/>
	<path fill="#FFFFFF" d="M-8.238,121.861c-0.288,0-0.856-0.24-1.704-0.72c-0.848-0.48-1.656-1.248-2.424-2.304
		c-0.128-0.16-0.521-0.64-1.176-1.44c-0.656-0.799-1.488-1.8-2.496-3c-1.008-1.2-2.104-2.503-3.288-3.912
		c-1.184-1.408-2.369-2.815-3.552-4.224c-1.184-1.408-2.288-2.712-3.312-3.912c-1.024-1.2-1.88-2.208-2.568-3.024
		c-0.688-0.816-1.112-1.32-1.272-1.512c-0.224-0.288-0.416-0.488-0.576-0.6c-0.16-0.112-0.304-0.168-0.432-0.168
		c-0.161,0-0.272,0.12-0.336,0.36c-0.065,0.24-0.096,0.456-0.096,0.648c-0.032,1.568-0.064,3.376-0.096,5.424
		c-0.032,2.048-0.064,4.16-0.096,6.336c-0.032,2.176-0.048,4.256-0.048,6.24c0,0.864,0.216,1.665,0.648,2.4
		c0.432,0.736,1.24,1.216,2.424,1.44c0.543,0.096,0.943,0.208,1.2,0.336c0.256,0.128,0.384,0.304,0.384,0.528
		c0,0.192-0.128,0.328-0.384,0.408c-0.256,0.08-0.592,0.12-1.008,0.12c-0.864,0-1.512-0.024-1.944-0.072s-0.816-0.088-1.152-0.12
		c-0.336-0.032-0.808-0.048-1.416-0.048c-0.576,0-1.025,0.016-1.344,0.048c-0.32,0.032-0.688,0.072-1.104,0.12
		c-0.416,0.048-1.056,0.072-1.92,0.072c-0.417,0-0.752-0.041-1.008-0.12c-0.256-0.081-0.384-0.216-0.384-0.408
		c0-0.224,0.127-0.4,0.384-0.528c0.256-0.127,0.656-0.256,1.2-0.384c0.928-0.255,1.6-0.728,2.016-1.416
		c0.416-0.688,0.672-1.527,0.768-2.52c0.127-1.215,0.255-2.824,0.384-4.824c0.127-2,0.24-4.24,0.336-6.72
		c0.096-2.479,0.144-5.032,0.144-7.656c0-1.696-0.44-2.912-1.32-3.648c-0.88-0.736-2.024-1.328-3.432-1.776
		c-0.128-0.064-0.408-0.2-0.84-0.408c-0.432-0.208-0.648-0.456-0.648-0.744s0.144-0.472,0.432-0.552
		c0.288-0.08,0.512-0.12,0.672-0.12c0.928,0.032,1.68,0.056,2.256,0.072c0.576,0.017,1.087,0.041,1.536,0.072
		c0.448,0.032,0.943,0.056,1.488,0.072c0.544,0.017,1.248,0.024,2.112,0.024c0.288,0,0.512,0.081,0.672,0.24
		c0.16,0.161,0.319,0.353,0.48,0.576c0.127,0.192,0.552,0.728,1.272,1.608c0.72,0.88,1.615,1.984,2.688,3.312
		c1.072,1.328,2.248,2.768,3.528,4.32c1.28,1.553,2.56,3.104,3.84,4.656c1.28,1.552,2.464,2.992,3.552,4.32
		c1.087,1.328,1.992,2.424,2.712,3.288c0.72,0.864,1.144,1.376,1.272,1.536c0.127,0.128,0.312,0.32,0.552,0.576
		c0.24,0.257,0.456,0.384,0.648,0.384c0.288,0,0.448-0.336,0.48-1.008c0-0.448,0.007-1.303,0.024-2.568
		c0.016-1.264,0.032-2.8,0.048-4.608c0.016-1.808,0.024-3.768,0.024-5.88c0-2.112,0-4.272,0-6.48
		c-0.032-0.64-0.368-1.216-1.008-1.728c-0.641-0.512-1.232-0.816-1.776-0.912c-0.544-0.096-1.041-0.224-1.488-0.384
		c-0.448-0.16-0.672-0.352-0.672-0.576c0-0.192,0.224-0.328,0.672-0.408c0.448-0.08,0.88-0.12,1.296-0.12c0.319,0,0.631,0,0.936,0
		c0.304,0,0.607,0,0.912,0c0.304,0,0.6,0,0.888,0c0.768,0,1.375-0.007,1.824-0.024c0.447-0.016,0.936-0.04,1.464-0.072
		c0.528-0.032,1.272-0.048,2.232-0.048c0.416,0,0.751,0.041,1.008,0.12c0.256,0.081,0.384,0.216,0.384,0.408
		c0,0.448-0.528,0.768-1.584,0.96c-1.185,0.224-1.968,0.512-2.352,0.864c-0.384,0.353-0.608,0.929-0.672,1.728
		c0,0.161-0.008,0.785-0.024,1.872c-0.016,1.088-0.024,2.464-0.024,4.128c0,1.665-0.008,3.456-0.024,5.376
		c-0.017,1.92-0.024,3.833-0.024,5.736c0,1.904,0,3.608,0,5.112c0,0.768,0.024,1.464,0.072,2.088
		c0.048,0.624,0.088,1.152,0.12,1.584c0.032,0.432,0.048,0.761,0.048,0.984c0,0.511-0.104,0.84-0.312,0.984
		C-7.75,121.789-7.982,121.861-8.238,121.861z"/>
	<path fill="#FFFFFF" d="M11.346,121.717c-1.792,0-3.408-0.416-4.848-1.248c-1.44-0.832-2.584-1.975-3.432-3.432
		c-0.849-1.456-1.272-3.112-1.272-4.968c0-1.344,0.264-2.656,0.792-3.936c0.528-1.279,1.272-2.448,2.232-3.504s2.08-1.896,3.36-2.52
		c1.279-0.624,2.656-0.936,4.128-0.936c1.855,0,3.528,0.449,5.016,1.344c1.488,0.896,2.671,2.072,3.552,3.528
		c0.88,1.457,1.32,3.048,1.32,4.776c0,1.856-0.408,3.617-1.224,5.28c-0.816,1.664-2.024,3.016-3.624,4.056
		C15.745,121.196,13.746,121.717,11.346,121.717z M12.354,120.277c1.087,0,2.064-0.208,2.928-0.624
		c0.864-0.416,1.536-1.087,2.016-2.016c0.384-0.735,0.64-1.632,0.768-2.688c0.127-1.056,0.192-2.047,0.192-2.976
		c0-1.536-0.281-3.016-0.84-4.44c-0.561-1.423-1.344-2.592-2.352-3.504c-1.008-0.912-2.201-1.368-3.576-1.368
		c-0.864,0-1.64,0.136-2.328,0.408c-0.688,0.272-1.32,0.776-1.896,1.512c-0.64,0.8-1.056,1.776-1.248,2.928
		c-0.192,1.152-0.288,2.304-0.288,3.456c0,1.568,0.288,3.064,0.864,4.488s1.36,2.584,2.352,3.48
		C9.938,119.829,11.074,120.277,12.354,120.277z"/>
	<path fill="#FFFFFF" d="M53.538,121.621c-0.257,0-0.432-0.113-0.528-0.336c-0.128-0.352-0.288-0.824-0.48-1.416
		c-0.192-0.592-0.368-1.096-0.528-1.512l-8.784-23.568c-0.32-0.896-0.752-1.648-1.296-2.256c-0.544-0.607-1.232-1.023-2.064-1.248
		c-0.512-0.16-0.904-0.32-1.176-0.48c-0.272-0.16-0.408-0.352-0.408-0.576c0-0.192,0.127-0.328,0.384-0.408
		c0.256-0.08,0.592-0.12,1.008-0.12c0.511,0,1.08,0.017,1.704,0.048c0.624,0.032,1.288,0.056,1.992,0.072
		c0.704,0.017,1.424,0.024,2.16,0.024c0.64,0,1.272-0.007,1.896-0.024c0.624-0.016,1.2-0.031,1.728-0.048
		c0.528-0.016,0.952-0.024,1.272-0.024c0.416,0,0.751,0.041,1.008,0.12c0.256,0.08,0.384,0.216,0.384,0.408
		c0,0.224-0.128,0.425-0.384,0.6c-0.256,0.176-0.656,0.296-1.2,0.36c-0.896,0.096-1.641,0.296-2.232,0.6
		c-0.593,0.305-0.888,0.728-0.888,1.272c0,0.544,0.072,1.016,0.216,1.416c0.144,0.4,0.248,0.712,0.312,0.936l6.912,18.24
		c0.064,0.128,0.144,0.208,0.24,0.24c0.096,0.032,0.192-0.064,0.288-0.288l6.576-17.28c0.64-1.696,0.68-2.936,0.12-3.72
		c-0.561-0.784-1.353-1.24-2.376-1.368c-0.48-0.064-0.864-0.184-1.152-0.36c-0.288-0.175-0.432-0.375-0.432-0.6
		c0-0.192,0.127-0.328,0.384-0.408c0.256-0.08,0.592-0.12,1.008-0.12c0.415,0,0.879,0,1.392,0c0.512,0,1.048,0.008,1.608,0.024
		c0.559,0.017,1.144,0.024,1.752,0.024c0.928,0,1.92-0.024,2.976-0.072c1.056-0.048,1.888-0.072,2.496-0.072
		c0.416,0,0.751,0.041,1.008,0.12c0.255,0.081,0.384,0.216,0.384,0.408c0,0.224-0.128,0.408-0.384,0.552
		c-0.257,0.144-0.656,0.281-1.2,0.408c-1.184,0.256-2.176,0.8-2.976,1.632c-0.8,0.833-1.376,1.68-1.728,2.544l-9.024,21.888
		c-0.064,0.161-0.185,0.488-0.36,0.984c-0.176,0.497-0.36,1.032-0.552,1.608c-0.192,0.576-0.384,1.056-0.576,1.44
		c-0.032,0.096-0.096,0.175-0.192,0.24C53.73,121.589,53.634,121.621,53.538,121.621z"/>
	<path fill="#FFFFFF" d="M73.746,121.717c-0.576,0-1.161-0.224-1.752-0.672c-0.592-0.448-1.088-0.992-1.488-1.632
		c-0.4-0.64-0.6-1.248-0.6-1.824c0-1.024,0.271-1.824,0.816-2.4c0.544-0.576,1.408-1.104,2.592-1.584l4.896-2.016
		c0.64-0.256,1.016-0.48,1.128-0.672c0.112-0.192,0.184-0.607,0.216-1.248l0.096-3.072c0.031-0.832-0.2-1.551-0.696-2.16
		c-0.497-0.607-1.208-0.912-2.136-0.912c-0.48,0-0.96,0.08-1.44,0.24s-0.88,0.368-1.2,0.624c-0.192,0.128-0.32,0.32-0.384,0.576
		c-0.064,0.256-0.096,0.528-0.096,0.816c0,0.128,0.008,0.272,0.024,0.432c0.016,0.161,0.024,0.305,0.024,0.432
		c0,0.161-0.201,0.376-0.6,0.648c-0.4,0.272-0.848,0.512-1.344,0.72c-0.497,0.208-0.904,0.312-1.224,0.312
		c-0.161,0-0.288-0.04-0.384-0.12c-0.096-0.08-0.144-0.184-0.144-0.312c0-0.512,0.168-1.063,0.504-1.656
		c0.336-0.592,0.808-1.144,1.416-1.656c0.736-0.672,1.536-1.264,2.4-1.776c0.864-0.511,1.711-0.912,2.544-1.2
		c0.832-0.288,1.567-0.432,2.208-0.432c1.152,0,2.104,0.408,2.856,1.224c0.751,0.816,1.111,1.832,1.08,3.048l-0.24,11.52
		c-0.032,0.672,0.12,1.217,0.456,1.632c0.336,0.417,0.76,0.624,1.272,0.624c0.799,0,1.392-0.175,1.776-0.528
		c0.16-0.16,0.288-0.24,0.384-0.24c0.16,0,0.288,0.048,0.384,0.144c0.096,0.096,0.144,0.225,0.144,0.384
		c0,0.353-0.176,0.704-0.528,1.056c-0.512,0.512-1.064,0.92-1.656,1.224c-0.592,0.304-1.145,0.456-1.656,0.456
		c-1.472,0-2.64-0.832-3.504-2.496h-0.144c-1.056,0.864-2.064,1.497-3.024,1.896C75.761,121.516,74.769,121.717,73.746,121.717z
		 M76.002,119.413c0.64,0,1.184-0.104,1.632-0.312c0.448-0.208,0.848-0.488,1.2-0.84c0.16-0.16,0.295-0.375,0.408-0.648
		c0.112-0.271,0.184-0.711,0.216-1.32l0.096-2.352c0.032-0.352,0.016-0.607-0.048-0.768c-0.064-0.16-0.192-0.24-0.384-0.24
		c-0.064,0-0.176,0.016-0.336,0.048c-0.16,0.032-0.368,0.096-0.624,0.192c-1.697,0.608-2.873,1.241-3.528,1.896
		c-0.656,0.656-0.984,1.256-0.984,1.8c0,0.833,0.248,1.464,0.744,1.896C74.889,119.197,75.426,119.413,76.002,119.413z"/>
	<path fill="#FFFFFF" d="M91.553,121.189c-0.161,0-0.36-0.024-0.6-0.072c-0.24-0.048-0.36-0.168-0.36-0.36
		c0-0.256,0.12-0.439,0.36-0.552c0.24-0.112,0.487-0.216,0.744-0.312c0.48-0.16,0.943-0.344,1.392-0.552
		c0.448-0.208,0.672-0.631,0.672-1.272V93.877c0-0.928-0.168-1.704-0.504-2.328s-0.905-1.016-1.704-1.176
		c-0.256-0.064-0.384-0.271-0.384-0.624c0-0.32,0.112-0.512,0.336-0.576c0.832-0.192,1.552-0.392,2.16-0.6
		c0.607-0.208,1.176-0.423,1.704-0.648c0.528-0.223,1.048-0.432,1.56-0.624c0.127-0.063,0.224-0.096,0.288-0.096
		c0.063,0,0.12,0.041,0.168,0.12c0.048,0.081,0.072,0.152,0.072,0.216c0,0.288-0.056,0.904-0.168,1.848
		c-0.112,0.944-0.168,2.504-0.168,4.68v24c0,0.641,0.224,1.064,0.672,1.272c0.448,0.208,0.912,0.393,1.392,0.552
		c0.256,0.096,0.504,0.2,0.744,0.312c0.24,0.112,0.36,0.296,0.36,0.552c0,0.192-0.12,0.312-0.36,0.36
		c-0.24,0.048-0.44,0.072-0.6,0.072c-0.608,0-1.097-0.024-1.464-0.072c-0.368-0.048-0.72-0.087-1.056-0.12
		c-0.336-0.032-0.792-0.048-1.368-0.048c-0.544,0-0.992,0.017-1.344,0.048c-0.353,0.032-0.704,0.072-1.056,0.12
		C92.688,121.165,92.193,121.189,91.553,121.189z"/>
	<path fill="#FFFFFF" d="M121.168,121.957c-0.224,0-0.336-0.128-0.336-0.384c0-0.32,0.04-0.792,0.12-1.416
		c0.079-0.624,0.12-1.144,0.12-1.56c0-0.063,0-0.12,0-0.168c0-0.048,0-0.087,0-0.12c-1.248,1.216-2.505,2.088-3.769,2.616
		c-1.264,0.528-2.647,0.792-4.151,0.792c-1.024,0-1.952-0.216-2.784-0.648c-0.833-0.432-1.488-1.072-1.968-1.92
		c-0.48-0.848-0.721-1.896-0.721-3.144v-9.744c0-0.703-0.16-1.264-0.479-1.68c-0.32-0.416-0.849-0.768-1.584-1.056
		c-0.16-0.064-0.305-0.144-0.432-0.24c-0.128-0.096-0.192-0.272-0.192-0.528c0-0.288,0.072-0.48,0.216-0.576
		c0.145-0.096,0.313-0.16,0.504-0.192c1.088-0.063,1.928-0.151,2.521-0.264c0.592-0.112,1.335-0.28,2.231-0.504
		c0.097-0.031,0.168-0.048,0.216-0.048c0.049,0,0.104,0,0.168,0c0.353,0,0.512,0.224,0.48,0.672
		c-0.096,0.737-0.168,1.353-0.216,1.848c-0.048,0.497-0.072,1.112-0.072,1.848v9.36c0,0.768,0.192,1.48,0.576,2.136
		c0.384,0.656,0.888,1.192,1.512,1.608c0.624,0.416,1.272,0.624,1.944,0.624c0.832,0,1.56-0.048,2.184-0.144
		c0.624-0.096,1.24-0.368,1.849-0.816c0.352-0.256,0.799-0.672,1.344-1.248c0.544-0.576,0.815-1.36,0.815-2.352v-8.784
		c0-0.672-0.2-1.176-0.6-1.512c-0.4-0.336-0.856-0.568-1.368-0.696c-0.512-0.127-0.929-0.192-1.248-0.192
		c-0.288,0-0.527-0.056-0.72-0.168c-0.192-0.112-0.288-0.328-0.288-0.648c0-0.288,0.104-0.48,0.313-0.576
		c0.207-0.096,0.439-0.144,0.695-0.144c0.992-0.031,1.816-0.072,2.473-0.12c0.655-0.048,1.248-0.128,1.775-0.24
		c0.528-0.112,1.08-0.248,1.656-0.408c0.063-0.031,0.144-0.055,0.24-0.072c0.096-0.016,0.175-0.024,0.239-0.024
		c0.416,0,0.624,0.176,0.624,0.528c0,0.032-0.008,0.088-0.023,0.168c-0.017,0.081-0.041,0.168-0.072,0.264
		c-0.032,0.096-0.072,0.368-0.12,0.816c-0.048,0.449-0.096,0.912-0.144,1.392s-0.072,0.848-0.072,1.104v11.088
		c0,0.864,0.088,1.48,0.264,1.848c0.176,0.368,0.376,0.552,0.601,0.552c0.256,0,0.631-0.024,1.128-0.072
		c0.496-0.048,0.855-0.072,1.08-0.072c0.159,0,0.319,0.032,0.479,0.096c0.16,0.064,0.24,0.24,0.24,0.528
		c0,0.257-0.064,0.425-0.192,0.504c-0.128,0.08-0.287,0.136-0.479,0.168c-1.248,0.16-2.32,0.4-3.216,0.72
		c-0.896,0.32-1.696,0.624-2.4,0.912c-0.096,0.031-0.24,0.088-0.432,0.168C121.504,121.916,121.328,121.957,121.168,121.957z"/>
	<path fill="#FFFFFF" d="M141.52,121.765c-1.76,0-3.296-0.432-4.607-1.296c-1.313-0.864-2.337-2.088-3.072-3.672
		c-0.736-1.584-1.104-3.416-1.104-5.496c0-1.855,0.423-3.543,1.271-5.064c0.848-1.52,1.976-2.743,3.384-3.672
		c1.408-0.928,2.944-1.392,4.608-1.392c1.279,0,2.416,0.256,3.408,0.768c0.991,0.512,1.768,1.224,2.328,2.136
		c0.559,0.912,0.84,1.96,0.84,3.144c0,0.993-0.48,1.488-1.44,1.488h-10.128c-0.448,0-0.761,0.12-0.936,0.36
		c-0.177,0.24-0.265,0.712-0.265,1.416c0,1.536,0.336,2.937,1.008,4.2c0.673,1.264,1.568,2.272,2.688,3.024
		c1.12,0.752,2.352,1.128,3.696,1.128c0.96,0,1.831-0.184,2.615-0.552c0.784-0.368,1.48-0.904,2.089-1.608
		c0.127-0.16,0.223-0.264,0.288-0.312c0.063-0.048,0.144-0.072,0.239-0.072c0.256,0,0.384,0.161,0.384,0.48
		c0,0.608-0.287,1.28-0.863,2.016c-0.48,0.608-1.057,1.136-1.729,1.584c-0.672,0.448-1.408,0.792-2.208,1.032
		C143.216,121.645,142.384,121.765,141.52,121.765z M137.104,107.22h4.368c0.769,0,1.424-0.016,1.968-0.048
		c0.544-0.031,1.072-0.096,1.584-0.192c0.16-0.032,0.265-0.136,0.313-0.312c0.048-0.175,0.072-0.424,0.072-0.744
		c0-0.928-0.408-1.72-1.225-2.376c-0.815-0.655-1.784-0.984-2.903-0.984c-0.737,0-1.473,0.216-2.208,0.648
		c-0.737,0.432-1.345,0.968-1.824,1.608c-0.48,0.641-0.72,1.28-0.72,1.92C136.529,107.061,136.72,107.22,137.104,107.22z"/>
	<path fill="#FFFFFF" d="M-31.23,193.717c-1.568,0-2.792-0.479-3.672-1.439c-0.88-0.96-1.32-2.384-1.32-4.272v-11.136
		c0-0.256-0.096-0.44-0.288-0.552c-0.192-0.112-0.608-0.168-1.248-0.168h-0.288c-0.16,0-0.296-0.104-0.408-0.312
		c-0.113-0.208-0.168-0.424-0.168-0.648c0-0.064,0.048-0.16,0.144-0.288c0.096-0.127,0.16-0.208,0.192-0.24
		c0.64-0.448,1.224-0.896,1.752-1.344c0.528-0.448,1.008-0.888,1.44-1.32c0.432-0.432,0.792-0.824,1.08-1.176
		c0.16-0.16,0.295-0.295,0.408-0.408c0.112-0.112,0.248-0.168,0.408-0.168c0.16,0,0.312,0.032,0.456,0.096
		c0.144,0.064,0.199,0.208,0.168,0.432l-0.24,2.16c-0.032,0.353,0.048,0.592,0.24,0.72c0.192,0.128,0.496,0.192,0.912,0.192h5.472
		c0.127,0,0.24,0.104,0.336,0.312c0.096,0.208,0.144,0.456,0.144,0.744s-0.048,0.568-0.144,0.84
		c-0.096,0.272-0.209,0.408-0.336,0.408h-4.752c-0.8,0-1.32,0.064-1.56,0.192c-0.24,0.128-0.36,0.512-0.36,1.152v9.456
		c0,1.28,0.271,2.288,0.816,3.023c0.544,0.736,1.328,1.104,2.352,1.104c0.928,0,1.648-0.072,2.16-0.216
		c0.511-0.145,0.976-0.36,1.392-0.648c0.063-0.063,0.127-0.096,0.192-0.096c0.127,0,0.216,0.071,0.264,0.216
		c0.048,0.144,0.072,0.296,0.072,0.456s-0.264,0.479-0.792,0.96c-0.528,0.479-1.216,0.929-2.064,1.344
		C-29.318,193.509-30.238,193.717-31.23,193.717z"/>
	<path fill="#FFFFFF" d="M-11.598,193.717c-1.792,0-3.408-0.416-4.848-1.248c-1.44-0.832-2.584-1.976-3.432-3.432
		c-0.849-1.456-1.272-3.112-1.272-4.968c0-1.345,0.264-2.656,0.792-3.937c0.528-1.279,1.272-2.448,2.232-3.504
		c0.96-1.056,2.08-1.896,3.36-2.52c1.279-0.624,2.656-0.936,4.128-0.936c1.855,0,3.528,0.449,5.016,1.344
		c1.488,0.896,2.671,2.072,3.552,3.528c0.88,1.456,1.32,3.048,1.32,4.776c0,1.855-0.408,3.616-1.224,5.279
		c-0.816,1.665-2.024,3.017-3.624,4.057C-7.198,193.196-9.198,193.717-11.598,193.717z M-10.59,192.277
		c1.087,0,2.064-0.208,2.928-0.624c0.864-0.416,1.536-1.088,2.016-2.017c0.384-0.735,0.64-1.632,0.768-2.688
		c0.127-1.057,0.192-2.048,0.192-2.977c0-1.536-0.281-3.016-0.84-4.439c-0.561-1.424-1.344-2.592-2.352-3.504
		c-1.008-0.912-2.201-1.368-3.576-1.368c-0.864,0-1.64,0.136-2.328,0.408c-0.688,0.272-1.32,0.776-1.896,1.512
		c-0.64,0.8-1.056,1.775-1.248,2.928c-0.192,1.152-0.288,2.304-0.288,3.456c0,1.568,0.288,3.064,0.864,4.488s1.36,2.584,2.352,3.479
		C-13.006,191.829-11.87,192.277-10.59,192.277z"/>
	<path fill="#FFFFFF" d="M25.122,193.812c-1.344,0-2.584-0.2-3.72-0.6c-1.136-0.399-2.152-0.968-3.048-1.704
		c-0.128-0.127-0.248-0.271-0.36-0.432c-0.113-0.16-0.2-0.336-0.264-0.528c-0.161-0.64-0.264-1.472-0.312-2.496
		c-0.048-1.023-0.104-1.872-0.168-2.544c0-0.224,0.096-0.392,0.288-0.504c0.192-0.111,0.416-0.168,0.672-0.168
		c0.16,0,0.32,0.04,0.48,0.12c0.16,0.08,0.256,0.216,0.288,0.408c0.64,2.464,1.591,4.224,2.856,5.279
		c1.264,1.057,2.584,1.584,3.96,1.584c1.12,0,2.112-0.239,2.976-0.72c0.864-0.479,1.543-1.159,2.04-2.04
		c0.496-0.88,0.744-1.911,0.744-3.096c0-1.312-0.216-2.376-0.648-3.192c-0.432-0.815-1.049-1.527-1.848-2.136
		c-0.8-0.607-1.776-1.264-2.928-1.968c-1.248-0.8-2.48-1.608-3.696-2.424c-1.216-0.816-2.225-1.759-3.024-2.832
		c-0.8-1.072-1.2-2.376-1.2-3.912c0-1.632,0.368-3.103,1.104-4.416c0.736-1.312,1.848-2.36,3.336-3.144
		c1.488-0.784,3.352-1.176,5.592-1.176c1.152,0,2.152,0.12,3,0.36c0.847,0.24,1.528,0.473,2.04,0.696
		c0.255,0.096,0.472,0.256,0.648,0.48c0.175,0.224,0.295,0.464,0.36,0.72c0.192,0.672,0.4,1.44,0.624,2.304
		c0.224,0.864,0.336,1.68,0.336,2.448c0,0.352-0.24,0.528-0.72,0.528c-0.288,0-0.569-0.064-0.84-0.192
		c-0.272-0.127-0.44-0.288-0.504-0.48c-0.672-1.696-1.457-2.992-2.352-3.888c-0.896-0.896-2.032-1.344-3.408-1.344
		c-0.96,0-1.856,0.176-2.688,0.528c-0.833,0.353-1.512,0.928-2.04,1.728c-0.528,0.8-0.792,1.872-0.792,3.216
		c0,0.96,0.312,1.833,0.936,2.616c0.624,0.784,1.447,1.528,2.472,2.232c1.024,0.704,2.128,1.424,3.312,2.16
		c1.12,0.672,2.216,1.408,3.288,2.208c1.072,0.8,1.952,1.752,2.64,2.855c0.688,1.104,1.032,2.456,1.032,4.057
		c0,1.888-0.432,3.544-1.296,4.968c-0.864,1.424-2.081,2.52-3.648,3.288C29.074,193.428,27.234,193.812,25.122,193.812z"/>
	<path fill="#FFFFFF" d="M51.282,193.717c-1.792,0-3.408-0.416-4.848-1.248c-1.44-0.832-2.584-1.976-3.432-3.432
		c-0.849-1.456-1.272-3.112-1.272-4.968c0-1.345,0.264-2.656,0.792-3.937c0.528-1.279,1.272-2.448,2.232-3.504
		c0.96-1.056,2.08-1.896,3.36-2.52c1.279-0.624,2.656-0.936,4.128-0.936c1.855,0,3.528,0.449,5.016,1.344
		c1.488,0.896,2.671,2.072,3.552,3.528c0.88,1.456,1.32,3.048,1.32,4.776c0,1.855-0.408,3.616-1.224,5.279
		c-0.816,1.665-2.024,3.017-3.624,4.057C55.681,193.196,53.682,193.717,51.282,193.717z M52.29,192.277
		c1.087,0,2.064-0.208,2.928-0.624c0.864-0.416,1.536-1.088,2.016-2.017c0.384-0.735,0.64-1.632,0.768-2.688
		c0.127-1.057,0.192-2.048,0.192-2.977c0-1.536-0.281-3.016-0.84-4.439c-0.561-1.424-1.344-2.592-2.352-3.504
		c-1.008-0.912-2.201-1.368-3.576-1.368c-0.864,0-1.64,0.136-2.328,0.408c-0.688,0.272-1.32,0.776-1.896,1.512
		c-0.64,0.8-1.056,1.775-1.248,2.928c-0.192,1.152-0.288,2.304-0.288,3.456c0,1.568,0.288,3.064,0.864,4.488s1.36,2.584,2.352,3.479
		C49.874,191.829,51.01,192.277,52.29,192.277z"/>
	<path fill="#FFFFFF" d="M76.434,193.764c-1.601,0-3.048-0.408-4.344-1.224c-1.296-0.816-2.32-1.936-3.072-3.36
		c-0.752-1.423-1.128-3.016-1.128-4.775c0-2.08,0.456-3.968,1.368-5.664c0.912-1.696,2.136-3.048,3.672-4.056
		c1.536-1.008,3.231-1.512,5.088-1.512c2.08,0,3.904,0.561,5.472,1.68c0.384,0.288,0.576,0.592,0.576,0.912
		c0,0.256-0.112,0.544-0.336,0.864c-0.224,0.32-0.497,0.584-0.816,0.792c-0.32,0.209-0.624,0.313-0.912,0.313
		c-0.161,0-0.32-0.056-0.48-0.169c-0.161-0.111-0.336-0.231-0.528-0.359c-0.705-0.544-1.488-1.056-2.352-1.536
		c-0.864-0.48-1.584-0.72-2.16-0.72c-1.568,0-2.84,0.729-3.816,2.184c-0.977,1.457-1.464,3.368-1.464,5.736
		c0,1.504,0.328,2.864,0.984,4.08c0.655,1.216,1.536,2.176,2.64,2.88s2.328,1.056,3.672,1.056c0.928,0,1.728-0.151,2.4-0.456
		c0.672-0.304,1.392-0.84,2.16-1.607c0.063-0.064,0.144-0.12,0.24-0.168c0.096-0.049,0.176-0.072,0.24-0.072
		c0.352,0,0.528,0.224,0.528,0.672c0,0.192-0.056,0.408-0.168,0.648c-0.112,0.239-0.296,0.521-0.552,0.84
		c-0.513,0.641-1.121,1.192-1.824,1.655c-0.704,0.465-1.48,0.809-2.328,1.032C78.345,193.652,77.425,193.764,76.434,193.764z"/>
	<path fill="#FFFFFF" d="M90.257,193.188c-0.288,0-0.521-0.04-0.696-0.119c-0.176-0.08-0.264-0.217-0.264-0.408
		c0-0.256,0.12-0.433,0.36-0.528c0.24-0.096,0.487-0.176,0.744-0.24c0.672-0.159,1.184-0.359,1.536-0.6
		c0.352-0.24,0.528-0.648,0.528-1.224v-10.416c0-0.864-0.152-1.633-0.456-2.304c-0.304-0.672-0.872-1.072-1.704-1.2
		c-0.161-0.032-0.281-0.096-0.36-0.192c-0.08-0.096-0.12-0.24-0.12-0.432c0-0.352,0.144-0.544,0.432-0.576
		c1.28-0.288,2.335-0.679,3.168-1.176c0.832-0.496,1.456-0.904,1.872-1.224c0.288-0.224,0.512-0.336,0.672-0.336
		c0.192,0,0.288,0.08,0.288,0.24c0,0.256-0.041,0.76-0.12,1.512c-0.081,0.752-0.152,1.584-0.216,2.496
		c-0.064,0.912-0.096,1.736-0.096,2.472v11.137c0,0.544,0.184,0.943,0.552,1.199c0.368,0.257,0.872,0.465,1.512,0.624
		c0.255,0.064,0.504,0.145,0.744,0.24c0.24,0.096,0.36,0.272,0.36,0.528c0,0.353-0.32,0.527-0.96,0.527
		c-0.608,0-1.097-0.023-1.464-0.071c-0.368-0.048-0.72-0.088-1.056-0.12c-0.336-0.031-0.792-0.048-1.368-0.048
		c-0.544,0-0.992,0.017-1.344,0.048c-0.352,0.032-0.704,0.072-1.056,0.12C91.393,193.165,90.897,193.188,90.257,193.188z
		 M94.097,168.277c-0.672,0-1.241-0.231-1.704-0.696c-0.464-0.464-0.696-1.032-0.696-1.704c0-0.704,0.232-1.288,0.696-1.752
		c0.463-0.463,1.032-0.696,1.704-0.696c0.703,0,1.288,0.233,1.752,0.696c0.463,0.464,0.696,1.048,0.696,1.752
		c0,0.672-0.232,1.24-0.696,1.704C95.385,168.045,94.801,168.277,94.097,168.277z"/>
	<path fill="#FFFFFF" d="M112.529,193.764c-1.76,0-3.296-0.432-4.607-1.296c-1.313-0.864-2.337-2.088-3.072-3.672
		c-0.736-1.584-1.104-3.415-1.104-5.496c0-1.855,0.424-3.544,1.272-5.063c0.848-1.52,1.976-2.744,3.384-3.672
		c1.408-0.928,2.944-1.392,4.608-1.392c1.279,0,2.416,0.256,3.408,0.768c0.991,0.512,1.768,1.224,2.328,2.136
		c0.559,0.912,0.84,1.96,0.84,3.144c0,0.992-0.48,1.488-1.44,1.488h-10.128c-0.448,0-0.761,0.12-0.936,0.36
		c-0.177,0.239-0.265,0.712-0.265,1.416c0,1.535,0.336,2.936,1.008,4.199c0.673,1.265,1.568,2.272,2.688,3.024
		s2.352,1.128,3.696,1.128c0.96,0,1.831-0.184,2.615-0.552s1.48-0.904,2.089-1.608c0.127-0.159,0.223-0.264,0.288-0.312
		c0.063-0.048,0.144-0.072,0.239-0.072c0.256,0,0.384,0.16,0.384,0.479c0,0.608-0.287,1.28-0.863,2.017
		c-0.48,0.608-1.057,1.136-1.729,1.584s-1.408,0.792-2.208,1.032C114.225,193.644,113.393,193.764,112.529,193.764z M108.113,179.22
		h4.368c0.769,0,1.424-0.016,1.968-0.048c0.544-0.031,1.072-0.096,1.584-0.192c0.16-0.031,0.265-0.136,0.313-0.312
		s0.072-0.424,0.072-0.744c0-0.928-0.408-1.72-1.225-2.376c-0.815-0.655-1.784-0.984-2.903-0.984c-0.737,0-1.473,0.216-2.208,0.648
		c-0.737,0.432-1.345,0.968-1.824,1.608c-0.48,0.64-0.72,1.281-0.72,1.92C107.537,179.061,107.729,179.22,108.113,179.22z"/>
	<path fill="#FFFFFF" d="M132.497,193.717c-1.568,0-2.793-0.479-3.672-1.439c-0.881-0.96-1.32-2.384-1.32-4.272v-11.136
		c0-0.256-0.096-0.44-0.288-0.552c-0.192-0.112-0.608-0.168-1.248-0.168h-0.288c-0.16,0-0.296-0.104-0.408-0.312
		c-0.112-0.208-0.168-0.424-0.168-0.648c0-0.064,0.048-0.16,0.145-0.288c0.096-0.127,0.159-0.208,0.191-0.24
		c0.64-0.448,1.225-0.896,1.752-1.344c0.528-0.448,1.009-0.888,1.44-1.32c0.432-0.432,0.792-0.824,1.08-1.176
		c0.159-0.16,0.296-0.295,0.408-0.408c0.111-0.112,0.247-0.168,0.407-0.168s0.313,0.032,0.456,0.096
		c0.145,0.064,0.2,0.208,0.168,0.432l-0.239,2.16c-0.032,0.353,0.048,0.592,0.239,0.72c0.192,0.128,0.496,0.192,0.912,0.192h5.473
		c0.127,0,0.239,0.104,0.336,0.312c0.096,0.208,0.144,0.456,0.144,0.744s-0.048,0.568-0.144,0.84
		c-0.097,0.272-0.209,0.408-0.336,0.408h-4.752c-0.801,0-1.32,0.064-1.561,0.192c-0.24,0.128-0.359,0.512-0.359,1.152v9.456
		c0,1.28,0.271,2.288,0.815,3.023c0.544,0.736,1.328,1.104,2.353,1.104c0.928,0,1.647-0.072,2.159-0.216
		c0.512-0.145,0.977-0.36,1.393-0.648c0.063-0.063,0.127-0.096,0.191-0.096c0.128,0,0.217,0.071,0.265,0.216
		c0.048,0.144,0.072,0.296,0.072,0.456s-0.265,0.479-0.792,0.96c-0.528,0.479-1.217,0.929-2.064,1.344
		C134.408,193.509,133.489,193.717,132.497,193.717z"/>
	<path fill="#FFFFFF" d="M143.968,206.724c-0.608,0-1.169-0.152-1.681-0.456s-0.768-0.809-0.768-1.512
		c0-0.576,0.136-1.08,0.408-1.512c0.271-0.433,0.663-0.648,1.176-0.648c0.352,0,0.696,0.048,1.032,0.145
		c0.336,0.096,0.631,0.144,0.888,0.144c0.192,0,0.36-0.04,0.504-0.12c0.145-0.08,0.28-0.216,0.408-0.408
		c0.352-0.575,0.76-1.296,1.224-2.159c0.464-0.864,0.943-1.841,1.44-2.929c0.496-1.088,0.968-2.24,1.416-3.456
		c0.096-0.287,0.144-0.656,0.144-1.104c0-0.256-0.017-0.504-0.048-0.744c-0.032-0.24-0.08-0.456-0.144-0.647l-5.568-14.064
		c-0.225-0.576-0.521-1.08-0.888-1.512c-0.368-0.432-0.792-0.711-1.272-0.84c-0.256-0.096-0.504-0.208-0.744-0.336
		c-0.239-0.127-0.359-0.304-0.359-0.528c0-0.192,0.12-0.312,0.359-0.36c0.24-0.048,0.439-0.072,0.601-0.072
		c0.64,0,1.111,0.017,1.416,0.048c0.304,0.032,0.592,0.072,0.864,0.12c0.271,0.048,0.679,0.072,1.224,0.072
		c0.576,0,1.008-0.024,1.296-0.072s0.592-0.088,0.912-0.12c0.319-0.031,0.8-0.048,1.439-0.048c0.192,0,0.4,0.041,0.624,0.12
		c0.224,0.08,0.336,0.216,0.336,0.408c0,0.224-0.168,0.44-0.504,0.648c-0.336,0.208-0.632,0.344-0.888,0.408
		c-0.32,0.096-0.561,0.264-0.72,0.504c-0.161,0.24-0.24,0.584-0.24,1.032c0,0.192,0.048,0.424,0.144,0.696
		c0.097,0.272,0.176,0.488,0.24,0.648l3.889,9.6c0.063,0.192,0.159,0.288,0.287,0.288c0.097,0,0.176-0.096,0.24-0.288l3.313-8.784
		c0.096-0.224,0.184-0.52,0.264-0.888c0.079-0.367,0.12-0.664,0.12-0.888c0-0.607-0.089-1.032-0.264-1.272
		c-0.177-0.24-0.408-0.424-0.696-0.552c-0.257-0.128-0.552-0.296-0.888-0.504c-0.336-0.208-0.505-0.424-0.505-0.648
		c0-0.192,0.12-0.328,0.36-0.408c0.24-0.08,0.439-0.12,0.601-0.12c0.447,0,0.903,0.041,1.367,0.12c0.464,0.08,1.145,0.12,2.04,0.12
		c0.607,0,1.048-0.024,1.32-0.072c0.271-0.048,0.504-0.088,0.696-0.12c0.191-0.031,0.463-0.048,0.815-0.048
		c0.16,0,0.36,0.024,0.601,0.072c0.239,0.048,0.359,0.168,0.359,0.36c0,0.224-0.12,0.4-0.359,0.528
		c-0.24,0.128-0.488,0.24-0.744,0.336c-0.48,0.128-0.992,0.504-1.536,1.128c-0.545,0.624-0.977,1.32-1.296,2.088l-6.528,15.552
		c-0.032,0.096-0.2,0.512-0.504,1.248c-0.305,0.735-0.68,1.647-1.128,2.736c-0.448,1.087-0.936,2.256-1.464,3.504
		s-1.032,2.447-1.512,3.6c-0.288,0.64-0.705,1.128-1.248,1.464C145.295,206.556,144.671,206.724,143.968,206.724z"/>
</g>
</svg>
