<?xml version="1.0" encoding="utf-8"?>
<!-- Generator: Adobe Illustrator 14.0.0, SVG Export Plug-In . SVG Version: 6.00 Build 43363)  -->
<!DOCTYPE svg PUBLIC "-//W3C//DTD SVG 1.1//EN" "http://www.w3.org/Graphics/SVG/1.1/DTD/svg11.dtd">
<svg version="1.1" id="レイヤー_2" xmlns="http://www.w3.org/2000/svg" xmlns:xlink="http://www.w3.org/1999/xlink" x="0px"
	 y="0px" width="273.741px" height="262.128px" viewBox="-3.312 16.646 273.741 262.128"
	 enable-background="new -3.312 16.646 273.741 262.128" xml:space="preserve">
<g>
	<path fill="#0D4482" d="M1.632,58.695c-3.295,0-4.944-0.785-4.944-2.352c0-0.544,0.224-1.056,0.672-1.536
		c0.449-0.48,0.848-0.72,1.2-0.72c0.416,0,0.816,0.087,1.2,0.264c0.384,0.176,0.736,0.488,1.056,0.936
		c0.416,0.512,0.792,0.88,1.128,1.104c0.336,0.224,0.712,0.336,1.128,0.336c1.12,0,1.928-0.68,2.424-2.04
		c0.496-1.36,0.744-3.208,0.744-5.544V22.646c0-1.12-0.24-1.912-0.72-2.376c-0.48-0.463-1.296-0.808-2.448-1.032
		c-1.056-0.192-1.584-0.512-1.584-0.96c0-0.192,0.128-0.328,0.384-0.408c0.256-0.08,0.592-0.12,1.008-0.12
		c0.864,0,1.576,0.017,2.136,0.048c0.56,0.032,1.096,0.056,1.608,0.072c0.512,0.017,1.135,0.024,1.872,0.024
		c0.607,0,1.08-0.007,1.416-0.024c0.336-0.016,0.72-0.04,1.152-0.072c0.432-0.032,1.08-0.048,1.944-0.048
		c0.416,0,0.751,0.041,1.008,0.12c0.256,0.081,0.384,0.216,0.384,0.408c0,0.224-0.128,0.416-0.384,0.576
		c-0.257,0.161-0.656,0.288-1.2,0.384c-1.184,0.224-1.937,0.568-2.256,1.032c-0.32,0.464-0.48,1.256-0.48,2.376v24.192
		c0,1.344-0.208,2.607-0.624,3.792c-0.417,1.184-0.92,2.239-1.512,3.168c-0.592,0.928-1.145,1.696-1.656,2.304
		c-0.641,0.768-1.344,1.392-2.112,1.872C3.408,58.454,2.559,58.695,1.632,58.695z"/>
	<path fill="#0D4482" d="M33.887,50.007c-0.224,0-0.336-0.128-0.336-0.384c0-0.32,0.04-0.792,0.12-1.416
		c0.08-0.624,0.12-1.144,0.12-1.56c0-0.063,0-0.12,0-0.168c0-0.048,0-0.087,0-0.12c-1.248,1.216-2.504,2.088-3.768,2.616
		c-1.265,0.528-2.648,0.792-4.152,0.792c-1.024,0-1.952-0.216-2.784-0.648c-0.833-0.432-1.488-1.072-1.968-1.92
		c-0.48-0.848-0.72-1.896-0.72-3.144V34.31c0-0.703-0.161-1.264-0.48-1.68c-0.32-0.416-0.848-0.768-1.584-1.056
		c-0.161-0.064-0.305-0.144-0.432-0.24c-0.128-0.096-0.192-0.272-0.192-0.528c0-0.288,0.072-0.48,0.216-0.576
		c0.144-0.096,0.312-0.16,0.504-0.192c1.088-0.063,1.928-0.151,2.52-0.264c0.592-0.112,1.336-0.28,2.232-0.504
		c0.096-0.031,0.168-0.048,0.216-0.048s0.104,0,0.168,0c0.352,0,0.511,0.224,0.48,0.672c-0.096,0.737-0.168,1.353-0.216,1.848
		c-0.048,0.497-0.072,1.112-0.072,1.848v9.36c0,0.768,0.192,1.48,0.576,2.136c0.384,0.656,0.888,1.192,1.512,1.608
		c0.624,0.416,1.272,0.624,1.944,0.624c0.832,0,1.56-0.048,2.184-0.144c0.624-0.096,1.24-0.368,1.848-0.816
		c0.352-0.256,0.8-0.672,1.344-1.248c0.543-0.576,0.816-1.36,0.816-2.352v-8.784c0-0.672-0.2-1.176-0.6-1.512
		c-0.4-0.336-0.856-0.568-1.368-0.696c-0.512-0.127-0.928-0.192-1.248-0.192c-0.288,0-0.528-0.056-0.72-0.168
		c-0.192-0.112-0.288-0.328-0.288-0.648c0-0.288,0.104-0.48,0.312-0.576c0.208-0.096,0.439-0.144,0.696-0.144
		c0.991-0.031,1.815-0.072,2.472-0.12c0.656-0.048,1.248-0.128,1.776-0.24c0.528-0.112,1.08-0.248,1.656-0.408
		c0.063-0.031,0.144-0.055,0.24-0.072c0.096-0.016,0.176-0.024,0.24-0.024c0.416,0,0.624,0.176,0.624,0.528
		c0,0.032-0.008,0.088-0.024,0.168c-0.017,0.081-0.041,0.168-0.072,0.264c-0.032,0.096-0.072,0.368-0.12,0.816
		c-0.048,0.449-0.096,0.912-0.144,1.392c-0.048,0.48-0.072,0.848-0.072,1.104v11.088c0,0.864,0.088,1.48,0.264,1.848
		c0.175,0.368,0.375,0.552,0.6,0.552c0.255,0,0.631-0.024,1.128-0.072c0.496-0.048,0.855-0.072,1.08-0.072
		c0.16,0,0.319,0.032,0.48,0.096c0.16,0.064,0.24,0.24,0.24,0.528c0,0.257-0.064,0.425-0.192,0.504
		c-0.128,0.08-0.288,0.136-0.48,0.168c-1.248,0.16-2.32,0.4-3.216,0.72c-0.896,0.32-1.697,0.624-2.4,0.912
		c-0.096,0.031-0.24,0.088-0.432,0.168C34.223,49.966,34.047,50.007,33.887,50.007z"/>
	<path fill="#0D4482" d="M48.527,49.766c-0.992,0-1.92-0.152-2.784-0.456c-0.864-0.304-1.601-0.728-2.208-1.272
		c-0.161-0.352-0.28-0.943-0.36-1.776c-0.08-0.832-0.137-1.52-0.168-2.064c0-0.288,0.208-0.432,0.624-0.432
		c0.127,0,0.248,0.024,0.36,0.072c0.112,0.048,0.184,0.136,0.216,0.264c0.416,1.568,1.08,2.688,1.992,3.36
		c0.912,0.672,1.832,1.008,2.76,1.008c0.928,0,1.72-0.312,2.376-0.936c0.655-0.624,0.984-1.399,0.984-2.328
		c0-0.864-0.288-1.608-0.864-2.232c-0.576-0.624-1.584-1.384-3.024-2.28c-1.088-0.672-1.968-1.312-2.64-1.92
		c-0.672-0.608-1.16-1.231-1.464-1.872c-0.304-0.64-0.456-1.36-0.456-2.16c0-1.024,0.24-1.952,0.72-2.784
		c0.48-0.832,1.2-1.495,2.16-1.992c0.96-0.496,2.16-0.744,3.6-0.744c0.96,0,1.76,0.096,2.4,0.288c0.64,0.192,1.12,0.4,1.44,0.624
		c0.255,0.353,0.472,0.904,0.648,1.656c0.175,0.752,0.264,1.464,0.264,2.136c0,0.224-0.16,0.336-0.48,0.336
		c-0.192,0-0.376-0.04-0.552-0.12c-0.176-0.08-0.296-0.184-0.36-0.312c-0.417-1.056-0.936-1.864-1.56-2.424
		c-0.624-0.56-1.4-0.84-2.328-0.84c-0.8,0-1.512,0.24-2.136,0.72c-0.624,0.48-0.936,1.185-0.936,2.112
		c0,0.736,0.231,1.392,0.696,1.968c0.463,0.576,1.336,1.232,2.616,1.968c1.855,1.056,3.24,2.04,4.152,2.952s1.368,2.12,1.368,3.624
		c0,1.728-0.656,3.137-1.968,4.224C52.302,49.222,50.607,49.766,48.527,49.766z"/>
	<path fill="#0D4482" d="M66.191,49.766c-1.568,0-2.792-0.48-3.672-1.44c-0.88-0.96-1.32-2.383-1.32-4.272V32.919
		c0-0.256-0.096-0.44-0.288-0.552c-0.192-0.112-0.608-0.168-1.248-0.168h-0.288c-0.16,0-0.296-0.104-0.408-0.312
		c-0.113-0.208-0.168-0.424-0.168-0.648c0-0.064,0.048-0.16,0.144-0.288c0.096-0.127,0.16-0.208,0.192-0.24
		c0.64-0.448,1.224-0.896,1.752-1.344c0.528-0.448,1.008-0.888,1.44-1.32c0.432-0.432,0.792-0.824,1.08-1.176
		c0.16-0.16,0.295-0.295,0.408-0.408c0.112-0.112,0.248-0.168,0.408-0.168c0.16,0,0.312,0.032,0.456,0.096
		c0.144,0.064,0.199,0.208,0.168,0.432l-0.24,2.16c-0.032,0.353,0.048,0.592,0.24,0.72c0.192,0.128,0.496,0.192,0.912,0.192h5.472
		c0.127,0,0.24,0.104,0.336,0.312c0.096,0.208,0.144,0.456,0.144,0.744s-0.048,0.568-0.144,0.84
		c-0.096,0.272-0.209,0.408-0.336,0.408h-4.752c-0.8,0-1.32,0.064-1.56,0.192c-0.24,0.128-0.36,0.512-0.36,1.152v9.456
		c0,1.28,0.271,2.289,0.816,3.024c0.544,0.736,1.328,1.104,2.352,1.104c0.928,0,1.648-0.072,2.16-0.216
		c0.511-0.144,0.976-0.36,1.392-0.648c0.063-0.063,0.127-0.096,0.192-0.096c0.127,0,0.216,0.072,0.264,0.216
		c0.048,0.144,0.072,0.296,0.072,0.456c0,0.16-0.264,0.48-0.792,0.96s-1.216,0.928-2.064,1.344
		C68.103,49.558,67.182,49.766,66.191,49.766z"/>
	<path fill="#0D4482" d="M85.247,27.782c-0.128,0-0.216-0.127-0.264-0.384c-0.048-0.256-0.072-0.496-0.072-0.72
		c0.031-0.512,0.048-0.992,0.048-1.44c0-0.448,0-0.88,0-1.296c0-0.576-0.017-1.224-0.048-1.944c-0.032-0.72-0.081-1.608-0.144-2.664
		c0-0.352,0.104-0.68,0.312-0.984c0.208-0.304,0.408-0.535,0.6-0.696c0.384-0.319,0.728-0.568,1.032-0.744
		c0.304-0.175,0.648-0.264,1.032-0.264c0.255,0,0.432,0.152,0.528,0.456c0.096,0.305,0.144,0.665,0.144,1.08
		c0,0.833-0.137,1.792-0.408,2.88c-0.272,1.088-0.584,2.136-0.936,3.144c-0.352,1.008-0.656,1.8-0.912,2.376
		c-0.128,0.288-0.281,0.561-0.456,0.816C85.527,27.655,85.374,27.782,85.247,27.782z"/>
	<path fill="#0D4482" d="M93.046,49.166c-0.24-0.111-0.36-0.247-0.36-0.408c0-0.288,0.151-0.488,0.456-0.6
		c0.304-0.112,0.504-0.184,0.6-0.216c1.248-0.256,2.208-0.632,2.88-1.128s1.008-1.272,1.008-2.328V22.215
		c0-0.768-0.081-1.336-0.24-1.704c-0.161-0.368-0.449-0.64-0.864-0.816c-0.417-0.176-1.025-0.328-1.824-0.456
		c-1.056-0.192-1.584-0.512-1.584-0.96c0-0.192,0.127-0.328,0.384-0.408c0.256-0.08,0.592-0.12,1.008-0.12
		c0.864,0,1.56,0.017,2.088,0.048c0.528,0.032,1.032,0.056,1.512,0.072c0.48,0.017,1.072,0.024,1.776,0.024
		c0.799,0,1.488-0.007,2.064-0.024c0.576-0.016,1.167-0.04,1.776-0.072c0.607-0.032,1.344-0.048,2.208-0.048
		c0.416,0,0.751,0.041,1.008,0.12c0.256,0.081,0.384,0.216,0.384,0.408c0,0.224-0.128,0.416-0.384,0.576
		c-0.256,0.161-0.656,0.288-1.2,0.384c-1.184,0.224-2.192,0.488-3.024,0.792c-0.833,0.305-1.248,0.92-1.248,1.848v22.608
		c0,0.992,0.224,1.728,0.672,2.208c0.448,0.48,1.456,0.72,3.024,0.72h5.952c0.864,0,1.624-0.136,2.28-0.408
		c0.656-0.271,1.144-0.552,1.464-0.84c0.64-0.543,1.111-1.032,1.416-1.464c0.304-0.432,0.664-1.08,1.08-1.944
		c0.064-0.192,0.2-0.48,0.408-0.864c0.208-0.384,0.424-0.576,0.648-0.576c0.192,0,0.336,0.096,0.432,0.288
		c0.096,0.192,0.144,0.384,0.144,0.576c0,0.032-0.008,0.072-0.024,0.12c-0.017,0.048-0.024,0.088-0.024,0.12
		c-0.224,0.833-0.424,1.584-0.6,2.256c-0.176,0.672-0.32,1.313-0.432,1.92c-0.112,0.608-0.2,1.248-0.264,1.92
		c-0.032,0.225-0.088,0.417-0.168,0.576c-0.08,0.16-0.248,0.24-0.504,0.24c-1.601,0-3.137-0.017-4.608-0.048
		c-1.472-0.032-2.888-0.056-4.248-0.072c-1.36-0.017-2.664-0.041-3.912-0.072c-1.248-0.032-2.48-0.048-3.696-0.048
		c-0.8,0-1.704,0.016-2.712,0.048c-1.008,0.032-2.265,0.096-3.768,0.192C93.614,49.335,93.286,49.278,93.046,49.166z"/>
	<path fill="#0D4482" d="M121.534,49.239c-0.288,0-0.521-0.041-0.696-0.12c-0.176-0.08-0.264-0.216-0.264-0.408
		c0-0.256,0.12-0.432,0.36-0.528c0.24-0.096,0.487-0.175,0.744-0.24c0.672-0.16,1.184-0.36,1.536-0.6
		c0.352-0.24,0.528-0.648,0.528-1.224V35.702c0-0.864-0.152-1.632-0.456-2.304c-0.304-0.672-0.872-1.072-1.704-1.2
		c-0.161-0.032-0.281-0.096-0.36-0.192c-0.08-0.096-0.12-0.24-0.12-0.432c0-0.352,0.144-0.544,0.432-0.576
		c1.28-0.288,2.335-0.679,3.168-1.176c0.832-0.496,1.456-0.904,1.872-1.224c0.288-0.224,0.512-0.336,0.672-0.336
		c0.192,0,0.288,0.08,0.288,0.24c0,0.256-0.041,0.76-0.12,1.512c-0.081,0.752-0.152,1.584-0.216,2.496
		c-0.064,0.912-0.096,1.736-0.096,2.472v11.136c0,0.544,0.184,0.944,0.552,1.2c0.368,0.256,0.872,0.464,1.512,0.624
		c0.255,0.064,0.504,0.144,0.744,0.24c0.24,0.096,0.36,0.272,0.36,0.528c0,0.352-0.32,0.528-0.96,0.528
		c-0.608,0-1.097-0.024-1.464-0.072c-0.368-0.048-0.72-0.087-1.056-0.12c-0.336-0.032-0.792-0.048-1.368-0.048
		c-0.544,0-0.992,0.017-1.344,0.048c-0.352,0.032-0.704,0.072-1.056,0.12C122.67,49.215,122.175,49.239,121.534,49.239z
		 M125.375,24.326c-0.672,0-1.241-0.231-1.704-0.696c-0.464-0.464-0.696-1.032-0.696-1.704c0-0.704,0.232-1.288,0.696-1.752
		c0.463-0.463,1.032-0.696,1.704-0.696c0.703,0,1.288,0.233,1.752,0.696c0.463,0.464,0.696,1.048,0.696,1.752
		c0,0.672-0.232,1.24-0.696,1.704C126.662,24.095,126.078,24.326,125.375,24.326z"/>
	<path fill="#0D4482" d="M138.094,49.766c-0.992,0-1.92-0.152-2.784-0.456c-0.864-0.304-1.601-0.728-2.208-1.272
		c-0.161-0.352-0.28-0.943-0.36-1.776c-0.08-0.832-0.137-1.52-0.168-2.064c0-0.288,0.208-0.432,0.624-0.432
		c0.127,0,0.248,0.024,0.36,0.072c0.112,0.048,0.184,0.136,0.216,0.264c0.416,1.568,1.08,2.688,1.992,3.36
		c0.912,0.672,1.832,1.008,2.76,1.008c0.928,0,1.72-0.312,2.376-0.936c0.655-0.624,0.984-1.399,0.984-2.328
		c0-0.864-0.288-1.608-0.864-2.232c-0.576-0.624-1.584-1.384-3.024-2.28c-1.088-0.672-1.968-1.312-2.64-1.92
		c-0.672-0.608-1.16-1.231-1.464-1.872c-0.304-0.64-0.456-1.36-0.456-2.16c0-1.024,0.24-1.952,0.72-2.784
		c0.48-0.832,1.2-1.495,2.16-1.992c0.96-0.496,2.16-0.744,3.6-0.744c0.96,0,1.76,0.096,2.4,0.288c0.64,0.192,1.12,0.4,1.44,0.624
		c0.255,0.353,0.472,0.904,0.648,1.656c0.175,0.752,0.264,1.464,0.264,2.136c0,0.224-0.16,0.336-0.48,0.336
		c-0.192,0-0.376-0.04-0.552-0.12c-0.176-0.08-0.296-0.184-0.36-0.312c-0.417-1.056-0.936-1.864-1.56-2.424
		c-0.624-0.56-1.4-0.84-2.328-0.84c-0.8,0-1.512,0.24-2.136,0.72c-0.624,0.48-0.936,1.185-0.936,2.112
		c0,0.736,0.231,1.392,0.696,1.968c0.463,0.576,1.336,1.232,2.616,1.968c1.855,1.056,3.24,2.04,4.152,2.952s1.368,2.12,1.368,3.624
		c0,1.728-0.656,3.137-1.968,4.224C141.87,49.222,140.174,49.766,138.094,49.766z"/>
	<path fill="#0D4482" d="M155.759,49.766c-1.568,0-2.793-0.48-3.672-1.44c-0.881-0.96-1.32-2.383-1.32-4.272V32.919
		c0-0.256-0.096-0.44-0.288-0.552c-0.192-0.112-0.608-0.168-1.248-0.168h-0.288c-0.16,0-0.296-0.104-0.408-0.312
		c-0.112-0.208-0.168-0.424-0.168-0.648c0-0.064,0.048-0.16,0.145-0.288c0.096-0.127,0.159-0.208,0.191-0.24
		c0.64-0.448,1.225-0.896,1.752-1.344c0.528-0.448,1.009-0.888,1.44-1.32c0.432-0.432,0.792-0.824,1.08-1.176
		c0.159-0.16,0.296-0.295,0.408-0.408c0.111-0.112,0.247-0.168,0.407-0.168s0.313,0.032,0.456,0.096
		c0.145,0.064,0.2,0.208,0.168,0.432l-0.239,2.16c-0.032,0.353,0.048,0.592,0.239,0.72c0.192,0.128,0.496,0.192,0.912,0.192h5.473
		c0.127,0,0.239,0.104,0.336,0.312c0.096,0.208,0.144,0.456,0.144,0.744s-0.048,0.568-0.144,0.84
		c-0.097,0.272-0.209,0.408-0.336,0.408h-4.752c-0.801,0-1.32,0.064-1.561,0.192c-0.24,0.128-0.359,0.512-0.359,1.152v9.456
		c0,1.28,0.271,2.289,0.815,3.024c0.544,0.736,1.328,1.104,2.353,1.104c0.928,0,1.647-0.072,2.159-0.216s0.977-0.36,1.393-0.648
		c0.063-0.063,0.127-0.096,0.191-0.096c0.128,0,0.217,0.072,0.265,0.216s0.072,0.296,0.072,0.456c0,0.16-0.265,0.48-0.792,0.96
		c-0.528,0.48-1.217,0.928-2.064,1.344C157.67,49.558,156.75,49.766,155.759,49.766z"/>
	<path fill="#0D4482" d="M171.981,49.815c-1.76,0-3.296-0.432-4.607-1.296c-1.313-0.864-2.337-2.088-3.072-3.672
		c-0.736-1.584-1.104-3.416-1.104-5.496c0-1.855,0.423-3.543,1.271-5.064c0.848-1.52,1.976-2.743,3.384-3.672
		c1.408-0.928,2.944-1.392,4.608-1.392c1.279,0,2.416,0.256,3.408,0.768c0.991,0.512,1.768,1.224,2.328,2.136
		c0.559,0.912,0.84,1.96,0.84,3.144c0,0.993-0.48,1.488-1.44,1.488h-10.128c-0.448,0-0.761,0.12-0.936,0.36
		c-0.177,0.24-0.265,0.712-0.265,1.416c0,1.536,0.336,2.937,1.008,4.2c0.673,1.264,1.568,2.272,2.688,3.024
		c1.12,0.752,2.352,1.128,3.696,1.128c0.96,0,1.831-0.184,2.615-0.552c0.784-0.368,1.48-0.904,2.089-1.608
		c0.127-0.16,0.223-0.264,0.288-0.312c0.063-0.048,0.144-0.072,0.239-0.072c0.256,0,0.384,0.161,0.384,0.48
		c0,0.608-0.287,1.28-0.863,2.016c-0.48,0.608-1.057,1.136-1.729,1.584c-0.672,0.448-1.408,0.792-2.208,1.032
		C173.677,49.695,172.845,49.815,171.981,49.815z M167.565,35.27h4.368c0.769,0,1.424-0.016,1.968-0.048
		c0.544-0.031,1.072-0.096,1.584-0.192c0.16-0.032,0.265-0.136,0.313-0.312c0.048-0.175,0.072-0.424,0.072-0.744
		c0-0.928-0.408-1.72-1.225-2.376c-0.815-0.655-1.784-0.984-2.903-0.984c-0.737,0-1.473,0.216-2.208,0.648
		c-0.737,0.432-1.345,0.968-1.824,1.608c-0.48,0.641-0.72,1.28-0.72,1.92C166.99,35.111,167.181,35.27,167.565,35.27z"/>
	<path fill="#0D4482" d="M182.59,49.239c-0.288,0-0.521-0.041-0.696-0.12s-0.264-0.216-0.264-0.408c0-0.256,0.096-0.424,0.288-0.504
		c0.191-0.079,0.463-0.168,0.815-0.264c0.48-0.127,0.943-0.304,1.393-0.528c0.447-0.223,0.672-0.655,0.672-1.296v-10.32
		c0-0.864-0.089-1.6-0.265-2.208c-0.176-0.607-0.68-1.024-1.512-1.248c-0.128-0.064-0.24-0.136-0.336-0.216
		c-0.096-0.08-0.144-0.216-0.144-0.408c0-0.352,0.144-0.544,0.432-0.576c1.12-0.288,2.031-0.64,2.736-1.056
		c0.703-0.416,1.392-0.88,2.063-1.392c0.096-0.064,0.184-0.12,0.264-0.168c0.08-0.048,0.168-0.072,0.265-0.072
		c0.063,0,0.12,0.032,0.168,0.096c0.048,0.064,0.072,0.144,0.072,0.24c0,0.225-0.041,0.681-0.12,1.368
		c-0.081,0.688-0.12,1.256-0.12,1.704c0,0.128,0.007,0.248,0.023,0.36c0.016,0.113,0.04,0.185,0.072,0.216
		c1.12-1.056,2.312-1.856,3.576-2.4c1.264-0.543,2.647-0.816,4.152-0.816c1.567,0,2.863,0.641,3.888,1.92
		c1.023,1.28,1.536,2.864,1.536,4.752v10.224c0,0.641,0.224,1.064,0.672,1.272c0.447,0.208,0.912,0.393,1.392,0.552
		c0.256,0.096,0.504,0.2,0.744,0.312c0.24,0.112,0.36,0.296,0.36,0.552c0,0.192-0.112,0.312-0.336,0.36
		c-0.225,0.048-0.433,0.072-0.624,0.072c-0.641,0-1.137-0.024-1.488-0.072c-0.353-0.048-0.688-0.087-1.008-0.12
		c-0.32-0.032-0.769-0.048-1.344-0.048c-0.545,0-0.993,0.017-1.345,0.048c-0.353,0.032-0.712,0.072-1.08,0.12
		c-0.368,0.048-0.872,0.072-1.512,0.072c-0.16,0-0.36-0.024-0.6-0.072c-0.24-0.048-0.36-0.168-0.36-0.36
		c0-0.256,0.12-0.439,0.36-0.552c0.239-0.112,0.487-0.216,0.744-0.312c0.479-0.16,0.943-0.344,1.392-0.552
		c0.447-0.208,0.672-0.631,0.672-1.272v-10.08c0-1.408-0.393-2.503-1.176-3.288c-0.784-0.784-1.832-1.191-3.145-1.224
		c-1.151,0-2.159,0.185-3.023,0.552c-0.864,0.368-1.632,0.824-2.304,1.368c-0.129,0.128-0.225,0.296-0.288,0.504
		c-0.064,0.208-0.097,0.408-0.097,0.6v11.568c0,0.641,0.224,1.073,0.672,1.296c0.448,0.225,0.912,0.401,1.393,0.528
		c0.735,0.192,1.104,0.448,1.104,0.768c0,0.192-0.08,0.328-0.239,0.408c-0.161,0.08-0.401,0.12-0.721,0.12
		c-0.641,0-1.145-0.024-1.512-0.072c-0.368-0.048-0.713-0.087-1.032-0.12c-0.32-0.032-0.768-0.048-1.344-0.048
		c-0.545,0-0.984,0.017-1.32,0.048c-0.336,0.032-0.688,0.072-1.056,0.12C183.733,49.215,183.229,49.239,182.59,49.239z"/>
	<path fill="#0D4482" d="M207.933,49.239c-0.288,0-0.521-0.041-0.696-0.12s-0.264-0.216-0.264-0.408c0-0.256,0.12-0.432,0.359-0.528
		c0.24-0.096,0.487-0.175,0.744-0.24c0.672-0.16,1.184-0.36,1.536-0.6c0.352-0.24,0.528-0.648,0.528-1.224V35.702
		c0-0.864-0.152-1.632-0.456-2.304c-0.305-0.672-0.872-1.072-1.704-1.2c-0.161-0.032-0.28-0.096-0.36-0.192
		c-0.08-0.096-0.12-0.24-0.12-0.432c0-0.352,0.145-0.544,0.433-0.576c1.279-0.288,2.335-0.679,3.168-1.176
		c0.831-0.496,1.455-0.904,1.872-1.224c0.288-0.224,0.511-0.336,0.672-0.336c0.191,0,0.288,0.08,0.288,0.24
		c0,0.256-0.041,0.76-0.12,1.512c-0.08,0.752-0.152,1.584-0.216,2.496c-0.064,0.912-0.097,1.736-0.097,2.472v11.136
		c0,0.544,0.184,0.944,0.553,1.2c0.367,0.256,0.871,0.464,1.512,0.624c0.256,0.064,0.504,0.144,0.744,0.24
		c0.239,0.096,0.359,0.272,0.359,0.528c0,0.352-0.32,0.528-0.96,0.528c-0.608,0-1.097-0.024-1.464-0.072
		c-0.368-0.048-0.72-0.087-1.056-0.12c-0.336-0.032-0.792-0.048-1.368-0.048c-0.545,0-0.992,0.017-1.344,0.048
		c-0.353,0.032-0.704,0.072-1.057,0.12C209.068,49.215,208.573,49.239,207.933,49.239z M211.773,24.326
		c-0.672,0-1.24-0.231-1.704-0.696c-0.464-0.464-0.696-1.032-0.696-1.704c0-0.704,0.232-1.288,0.696-1.752
		c0.464-0.463,1.032-0.696,1.704-0.696c0.703,0,1.288,0.233,1.752,0.696c0.464,0.464,0.696,1.048,0.696,1.752
		c0,0.672-0.232,1.24-0.696,1.704C213.061,24.095,212.476,24.326,211.773,24.326z"/>
	<path fill="#0D4482" d="M219.693,49.239c-0.288,0-0.521-0.041-0.696-0.12s-0.264-0.216-0.264-0.408
		c0-0.256,0.096-0.424,0.288-0.504c0.191-0.079,0.463-0.168,0.815-0.264c0.48-0.127,0.943-0.304,1.393-0.528
		c0.447-0.223,0.672-0.655,0.672-1.296v-10.32c0-0.864-0.089-1.6-0.265-2.208c-0.176-0.607-0.68-1.024-1.512-1.248
		c-0.128-0.064-0.24-0.136-0.336-0.216c-0.096-0.08-0.144-0.216-0.144-0.408c0-0.352,0.144-0.544,0.432-0.576
		c1.12-0.288,2.031-0.64,2.736-1.056c0.703-0.416,1.392-0.88,2.063-1.392c0.096-0.064,0.184-0.12,0.264-0.168
		c0.08-0.048,0.168-0.072,0.265-0.072c0.063,0,0.12,0.032,0.168,0.096c0.048,0.064,0.072,0.144,0.072,0.24
		c0,0.225-0.041,0.681-0.12,1.368c-0.081,0.688-0.12,1.256-0.12,1.704c0,0.128,0.007,0.248,0.023,0.36
		c0.016,0.113,0.04,0.185,0.072,0.216c1.12-1.056,2.312-1.856,3.576-2.4c1.264-0.543,2.647-0.816,4.152-0.816
		c1.567,0,2.863,0.641,3.888,1.92c1.023,1.28,1.536,2.864,1.536,4.752v10.224c0,0.641,0.224,1.064,0.672,1.272
		c0.447,0.208,0.912,0.393,1.392,0.552c0.256,0.096,0.504,0.2,0.744,0.312c0.24,0.112,0.36,0.296,0.36,0.552
		c0,0.192-0.112,0.312-0.336,0.36c-0.225,0.048-0.433,0.072-0.624,0.072c-0.641,0-1.137-0.024-1.488-0.072
		c-0.353-0.048-0.688-0.087-1.008-0.12c-0.32-0.032-0.769-0.048-1.344-0.048c-0.545,0-0.993,0.017-1.345,0.048
		c-0.353,0.032-0.712,0.072-1.08,0.12c-0.368,0.048-0.872,0.072-1.512,0.072c-0.16,0-0.36-0.024-0.6-0.072
		c-0.24-0.048-0.36-0.168-0.36-0.36c0-0.256,0.12-0.439,0.36-0.552c0.239-0.112,0.487-0.216,0.744-0.312
		c0.479-0.16,0.943-0.344,1.392-0.552c0.447-0.208,0.672-0.631,0.672-1.272v-10.08c0-1.408-0.393-2.503-1.176-3.288
		c-0.784-0.784-1.832-1.191-3.145-1.224c-1.151,0-2.159,0.185-3.023,0.552c-0.864,0.368-1.632,0.824-2.304,1.368
		c-0.129,0.128-0.225,0.296-0.288,0.504c-0.064,0.208-0.097,0.408-0.097,0.6v11.568c0,0.641,0.224,1.073,0.672,1.296
		c0.448,0.225,0.912,0.401,1.393,0.528c0.735,0.192,1.104,0.448,1.104,0.768c0,0.192-0.08,0.328-0.239,0.408
		c-0.161,0.08-0.401,0.12-0.721,0.12c-0.641,0-1.145-0.024-1.512-0.072c-0.368-0.048-0.713-0.087-1.032-0.12
		c-0.32-0.032-0.768-0.048-1.344-0.048c-0.545,0-0.984,0.017-1.32,0.048c-0.336,0.032-0.688,0.072-1.056,0.12
		C220.837,49.215,220.333,49.239,219.693,49.239z"/>
	<path fill="#0D4482" d="M252.285,63.014c-2.721,0-4.872-0.521-6.456-1.56c-1.584-1.04-2.376-2.44-2.376-4.2
		c0-0.833,0.127-1.536,0.384-2.112c0.256-0.576,0.655-1.072,1.2-1.488c0.447-0.384,1.048-0.872,1.8-1.464
		c0.751-0.593,1.527-1.208,2.328-1.848l2.016,0.096c-1.536,0.991-2.608,1.936-3.216,2.832c-0.608,0.896-0.912,1.984-0.912,3.264
		c0,1.28,0.567,2.359,1.704,3.24c1.136,0.879,2.536,1.32,4.2,1.32c1.888,0,3.408-0.432,4.56-1.296c0.8-0.608,1.424-1.4,1.872-2.376
		c0.448-0.977,0.672-2.009,0.672-3.096c0-0.704-0.248-1.289-0.744-1.752c-0.496-0.464-1.271-0.84-2.327-1.128
		c-1.057-0.288-2.433-0.48-4.129-0.576c-3.008-0.224-5.096-0.624-6.264-1.2c-1.168-0.576-1.752-1.472-1.752-2.688
		c0-0.32,0.088-0.616,0.264-0.888c0.176-0.271,0.456-0.568,0.841-0.888c0.735-0.576,1.279-1,1.632-1.272
		c0.352-0.271,0.615-0.504,0.792-0.696c0.175-0.192,0.343-0.432,0.504-0.72l1.632,0.816c-0.704,0.256-1.296,0.6-1.776,1.032
		c-0.479,0.432-0.72,0.824-0.72,1.176c0,0.448,0.24,0.84,0.72,1.176c0.48,0.336,1.184,0.6,2.112,0.792
		c0.928,0.192,2.064,0.336,3.408,0.432c2.943,0.16,5.136,0.64,6.576,1.44c1.439,0.799,2.16,1.936,2.16,3.408
		c0,1.248-0.313,2.472-0.937,3.672c-0.624,1.2-1.448,2.295-2.472,3.288c-1.024,0.992-2.169,1.784-3.433,2.376
		C254.885,62.718,253.596,63.014,252.285,63.014z M252.573,44.007c-1.313,0-2.561-0.336-3.744-1.008
		c-1.185-0.672-2.152-1.56-2.904-2.664s-1.128-2.312-1.128-3.624c0-1.504,0.392-2.824,1.176-3.96
		c0.784-1.135,1.815-2.023,3.096-2.664s2.641-0.96,4.08-0.96c0.928,0,1.736,0.12,2.425,0.36c0.688,0.24,1.367,0.456,2.04,0.648
		c0.768,0.224,1.375,0.36,1.823,0.408c0.448,0.048,0.912,0.072,1.393,0.072c0.384,0,0.863-0.024,1.439-0.072
		c0.576-0.048,0.976-0.072,1.2-0.072c0.416,0,0.624,0.24,0.624,0.72c0,0.288-0.16,0.592-0.479,0.912
		c-0.161,0.161-0.288,0.24-0.385,0.24h-1.296c-0.864,0-1.344,0.128-1.439,0.384c-0.032,0.128-0.072,0.312-0.12,0.552
		c-0.048,0.24-0.089,0.504-0.12,0.792c-0.032,0.288-0.048,0.576-0.048,0.864c0,1.632-0.353,3.137-1.057,4.512
		c-0.704,1.376-1.632,2.48-2.783,3.312C255.213,43.591,253.948,44.007,252.573,44.007z M252.86,42.326
		c1.216,0,2.225-0.616,3.024-1.848c0.8-1.231,1.2-2.76,1.2-4.584c0-0.928-0.216-1.8-0.648-2.616
		c-0.432-0.816-0.992-1.472-1.68-1.968c-0.688-0.496-1.433-0.744-2.232-0.744c-0.736,0-1.432,0.264-2.088,0.792
		c-0.656,0.528-1.184,1.208-1.584,2.04c-0.4,0.833-0.6,1.744-0.6,2.736c0,1.121,0.208,2.152,0.624,3.096
		c0.415,0.944,0.976,1.696,1.68,2.256C251.26,42.047,252.028,42.326,252.86,42.326z"/>
	<path fill="#0D4482" d="M267.26,27.782c-0.128,0-0.216-0.127-0.264-0.384c-0.049-0.256-0.072-0.496-0.072-0.72
		c0.031-0.512,0.048-0.992,0.048-1.44c0-0.448,0-0.88,0-1.296c0-0.576-0.017-1.224-0.048-1.944c-0.032-0.72-0.08-1.608-0.145-2.664
		c0-0.352,0.104-0.68,0.313-0.984c0.208-0.304,0.408-0.535,0.6-0.696c0.385-0.319,0.728-0.568,1.032-0.744
		c0.304-0.175,0.648-0.264,1.032-0.264c0.256,0,0.432,0.152,0.528,0.456c0.096,0.305,0.144,0.665,0.144,1.08
		c0,0.833-0.137,1.792-0.408,2.88c-0.272,1.088-0.584,2.136-0.936,3.144c-0.353,1.008-0.656,1.8-0.912,2.376
		c-0.128,0.288-0.28,0.561-0.456,0.816C267.54,27.655,267.388,27.782,267.26,27.782z"/>
	<path fill="#0D4482" d="M19.536,121.815c-2.24,0-4.4-0.384-6.48-1.152c-2.081-0.768-3.936-1.864-5.568-3.288
		c-1.632-1.423-2.92-3.136-3.864-5.136c-0.944-2-1.416-4.216-1.416-6.648c0-2.335,0.496-4.496,1.488-6.48
		c0.992-1.984,2.352-3.712,4.08-5.184c1.728-1.472,3.704-2.616,5.928-3.432c2.224-0.816,4.567-1.224,7.032-1.224
		c1.248,0,2.304,0.048,3.168,0.144c0.864,0.096,1.704,0.233,2.52,0.408c0.816,0.176,1.768,0.408,2.856,0.696
		c0.48,0.128,0.824,0.32,1.032,0.576c0.208,0.256,0.328,0.608,0.36,1.056c0.064,0.736,0.144,1.528,0.24,2.376
		c0.096,0.848,0.16,1.896,0.192,3.144c0.032,0.224-0.072,0.408-0.312,0.552s-0.497,0.185-0.768,0.12
		c-0.272-0.064-0.456-0.271-0.552-0.624c-0.32-1.216-0.688-2.264-1.104-3.144c-0.417-0.88-1.041-1.608-1.872-2.184
		c-0.8-0.543-1.769-0.952-2.904-1.224c-1.136-0.271-2.36-0.408-3.672-0.408c-1.856,0-3.576,0.376-5.16,1.128
		c-1.584,0.752-2.944,1.776-4.08,3.072c-1.136,1.296-2.024,2.76-2.664,4.392c-0.641,1.632-0.96,3.329-0.96,5.088
		c0,1.952,0.312,3.872,0.936,5.76c0.624,1.889,1.52,3.592,2.688,5.112c1.167,1.521,2.56,2.736,4.176,3.648
		c1.616,0.912,3.416,1.368,5.4,1.368c2.304,0,4.208-0.528,5.712-1.584c1.504-1.056,2.784-2.527,3.84-4.416
		c0.224-0.416,0.552-0.624,0.984-0.624s0.648,0.256,0.648,0.768c0,0.256-0.064,0.665-0.192,1.224
		c-0.128,0.56-0.296,1.152-0.504,1.776c-0.208,0.624-0.408,1.176-0.6,1.656c-0.224,0.448-0.408,0.736-0.552,0.864
		c-0.144,0.128-0.472,0.272-0.984,0.432c-1.184,0.48-2.6,0.832-4.248,1.056C22.711,121.702,21.103,121.815,19.536,121.815z"/>
	<path fill="#0D4482" d="M39.696,121.766c-0.576,0-1.161-0.224-1.752-0.672c-0.592-0.448-1.088-0.992-1.488-1.632
		c-0.4-0.64-0.6-1.248-0.6-1.824c0-1.024,0.271-1.824,0.816-2.4c0.544-0.576,1.408-1.104,2.592-1.584l4.896-2.016
		c0.64-0.256,1.016-0.48,1.128-0.672c0.112-0.192,0.184-0.607,0.216-1.248l0.096-3.072c0.031-0.832-0.2-1.551-0.696-2.16
		c-0.497-0.607-1.208-0.912-2.136-0.912c-0.48,0-0.96,0.08-1.44,0.24s-0.88,0.368-1.2,0.624c-0.192,0.128-0.32,0.32-0.384,0.576
		c-0.064,0.256-0.096,0.528-0.096,0.816c0,0.128,0.008,0.272,0.024,0.432c0.016,0.161,0.024,0.305,0.024,0.432
		c0,0.161-0.201,0.376-0.6,0.648c-0.4,0.272-0.848,0.512-1.344,0.72c-0.497,0.208-0.904,0.312-1.224,0.312
		c-0.161,0-0.288-0.04-0.384-0.12c-0.096-0.08-0.144-0.184-0.144-0.312c0-0.512,0.168-1.063,0.504-1.656
		c0.336-0.592,0.808-1.144,1.416-1.656c0.736-0.672,1.536-1.264,2.4-1.776c0.864-0.511,1.711-0.912,2.544-1.2
		c0.832-0.288,1.567-0.432,2.208-0.432c1.152,0,2.104,0.408,2.856,1.224c0.751,0.816,1.111,1.832,1.08,3.048l-0.24,11.52
		c-0.032,0.672,0.12,1.217,0.456,1.632c0.336,0.417,0.76,0.624,1.272,0.624c0.799,0,1.392-0.175,1.776-0.528
		c0.16-0.16,0.288-0.24,0.384-0.24c0.16,0,0.288,0.048,0.384,0.144c0.096,0.096,0.144,0.225,0.144,0.384
		c0,0.353-0.176,0.704-0.528,1.056c-0.512,0.512-1.064,0.92-1.656,1.224c-0.592,0.304-1.145,0.456-1.656,0.456
		c-1.472,0-2.64-0.832-3.504-2.496h-0.144c-1.056,0.864-2.064,1.497-3.024,1.896C41.711,121.566,40.719,121.766,39.696,121.766z
		 M41.951,119.463c0.64,0,1.184-0.104,1.632-0.312c0.448-0.208,0.848-0.488,1.2-0.84c0.16-0.16,0.295-0.375,0.408-0.648
		c0.112-0.271,0.184-0.711,0.216-1.32l0.096-2.352c0.032-0.352,0.016-0.607-0.048-0.768c-0.064-0.16-0.192-0.24-0.384-0.24
		c-0.064,0-0.176,0.016-0.336,0.048c-0.16,0.032-0.368,0.096-0.624,0.192c-1.697,0.608-2.873,1.241-3.528,1.896
		c-0.656,0.656-0.984,1.256-0.984,1.8c0,0.833,0.248,1.464,0.744,1.896C40.839,119.246,41.375,119.463,41.951,119.463z"/>
	<path fill="#0D4482" d="M55.343,121.239c-0.288,0-0.521-0.041-0.696-0.12c-0.176-0.08-0.264-0.216-0.264-0.408
		c0-0.256,0.096-0.424,0.288-0.504c0.192-0.079,0.463-0.168,0.816-0.264c0.48-0.127,0.944-0.304,1.392-0.528
		c0.448-0.223,0.672-0.655,0.672-1.296v-10.32c0-0.864-0.088-1.6-0.264-2.208c-0.176-0.607-0.68-1.024-1.512-1.248
		c-0.128-0.064-0.24-0.136-0.336-0.216c-0.096-0.08-0.144-0.216-0.144-0.408c0-0.352,0.144-0.544,0.432-0.576
		c1.12-0.288,2.032-0.64,2.736-1.056c0.704-0.416,1.392-0.88,2.064-1.392c0.096-0.064,0.184-0.12,0.264-0.168
		c0.08-0.048,0.168-0.072,0.264-0.072c0.063,0,0.12,0.032,0.168,0.096c0.048,0.064,0.072,0.144,0.072,0.24
		c0,0.225-0.041,0.681-0.12,1.368c-0.08,0.688-0.12,1.256-0.12,1.704c0,0.128,0.007,0.248,0.024,0.36
		c0.016,0.113,0.04,0.185,0.072,0.216c1.12-1.056,2.312-1.856,3.576-2.4c1.264-0.543,2.647-0.816,4.152-0.816
		c1.567,0,2.864,0.641,3.888,1.92c1.023,1.28,1.536,2.864,1.536,4.752v10.224c0,0.641,0.224,1.064,0.672,1.272
		c0.448,0.208,0.912,0.393,1.392,0.552c0.255,0.096,0.504,0.2,0.744,0.312c0.24,0.112,0.36,0.296,0.36,0.552
		c0,0.192-0.113,0.312-0.336,0.36c-0.224,0.048-0.432,0.072-0.624,0.072c-0.64,0-1.136-0.024-1.488-0.072
		c-0.353-0.048-0.688-0.087-1.008-0.12c-0.32-0.032-0.768-0.048-1.344-0.048c-0.544,0-0.992,0.017-1.344,0.048
		c-0.353,0.032-0.713,0.072-1.08,0.12c-0.368,0.048-0.873,0.072-1.512,0.072c-0.161,0-0.36-0.024-0.6-0.072
		c-0.24-0.048-0.36-0.168-0.36-0.36c0-0.256,0.12-0.439,0.36-0.552c0.24-0.112,0.488-0.216,0.744-0.312
		c0.48-0.16,0.943-0.344,1.392-0.552c0.448-0.208,0.672-0.631,0.672-1.272v-10.08c0-1.408-0.392-2.503-1.176-3.288
		c-0.785-0.784-1.833-1.191-3.144-1.224c-1.152,0-2.16,0.185-3.024,0.552c-0.864,0.368-1.632,0.824-2.304,1.368
		c-0.128,0.128-0.224,0.296-0.288,0.504c-0.064,0.208-0.096,0.408-0.096,0.6v11.568c0,0.641,0.223,1.073,0.672,1.296
		c0.448,0.225,0.912,0.401,1.392,0.528c0.736,0.192,1.104,0.448,1.104,0.768c0,0.192-0.081,0.328-0.24,0.408
		c-0.161,0.08-0.4,0.12-0.72,0.12c-0.641,0-1.145-0.024-1.512-0.072c-0.368-0.048-0.712-0.087-1.032-0.12
		c-0.32-0.032-0.768-0.048-1.344-0.048c-0.544,0-0.984,0.017-1.32,0.048c-0.336,0.032-0.688,0.072-1.056,0.12
		C56.487,121.215,55.983,121.239,55.343,121.239z"/>
	<path fill="#0D4482" d="M107.711,121.815c-2.24,0-4.4-0.384-6.48-1.152c-2.081-0.768-3.936-1.864-5.568-3.288
		c-1.632-1.423-2.92-3.136-3.864-5.136c-0.944-2-1.416-4.216-1.416-6.648c0-2.335,0.496-4.496,1.488-6.48
		c0.992-1.984,2.352-3.712,4.08-5.184c1.728-1.472,3.704-2.616,5.928-3.432c2.224-0.816,4.567-1.224,7.032-1.224
		c1.248,0,2.304,0.048,3.168,0.144c0.864,0.096,1.704,0.233,2.52,0.408c0.816,0.176,1.768,0.408,2.856,0.696
		c0.48,0.128,0.824,0.32,1.032,0.576c0.208,0.256,0.328,0.608,0.36,1.056c0.064,0.736,0.144,1.528,0.24,2.376
		c0.096,0.848,0.16,1.896,0.192,3.144c0.032,0.224-0.072,0.408-0.312,0.552s-0.497,0.185-0.768,0.12
		c-0.272-0.064-0.456-0.271-0.552-0.624c-0.32-1.216-0.688-2.264-1.104-3.144c-0.417-0.88-1.041-1.608-1.872-2.184
		c-0.8-0.543-1.769-0.952-2.904-1.224c-1.136-0.271-2.36-0.408-3.672-0.408c-1.856,0-3.576,0.376-5.16,1.128
		c-1.584,0.752-2.944,1.776-4.08,3.072c-1.136,1.296-2.024,2.76-2.664,4.392c-0.641,1.632-0.96,3.329-0.96,5.088
		c0,1.952,0.312,3.872,0.936,5.76c0.624,1.889,1.52,3.592,2.688,5.112c1.167,1.521,2.56,2.736,4.176,3.648
		c1.616,0.912,3.416,1.368,5.4,1.368c2.304,0,4.208-0.528,5.712-1.584c1.504-1.056,2.784-2.527,3.84-4.416
		c0.224-0.416,0.552-0.624,0.984-0.624s0.648,0.256,0.648,0.768c0,0.256-0.064,0.665-0.192,1.224
		c-0.128,0.56-0.296,1.152-0.504,1.776c-0.208,0.624-0.408,1.176-0.6,1.656c-0.224,0.448-0.408,0.736-0.552,0.864
		c-0.144,0.128-0.472,0.272-0.984,0.432c-1.184,0.48-2.6,0.832-4.248,1.056C110.886,121.702,109.278,121.815,107.711,121.815z"/>
	<path fill="#0D4482" d="M124.126,121.239c-0.641,0-0.96-0.176-0.96-0.528c0-0.288,0.367-0.544,1.104-0.768
		c0.48-0.16,0.936-0.368,1.368-0.624c0.432-0.256,0.664-0.704,0.696-1.344V93.927c0-0.864-0.144-1.624-0.432-2.28
		c-0.288-0.655-0.848-1.047-1.68-1.176c-0.288-0.064-0.432-0.288-0.432-0.672c0-0.288,0.127-0.48,0.384-0.576
		c0.448-0.16,0.984-0.336,1.608-0.528s1.272-0.408,1.944-0.648c0.672-0.24,1.264-0.472,1.776-0.696
		c0.127-0.063,0.224-0.096,0.288-0.096c0.096,0,0.175,0.032,0.24,0.096c0.064,0.064,0.096,0.144,0.096,0.24
		c0,0.192-0.041,0.464-0.12,0.816c-0.08,0.353-0.152,0.96-0.216,1.824c-0.064,0.864-0.096,2.16-0.096,3.888v8.352
		c0,0.512,0.024,0.88,0.072,1.104c0.048,0.224,0.136,0.449,0.264,0.672c0.512-0.384,1.144-0.808,1.896-1.272
		c0.751-0.463,1.592-0.872,2.52-1.224c0.928-0.352,1.888-0.528,2.88-0.528c1.568,0,2.872,0.617,3.912,1.848
		c1.04,1.232,1.56,2.792,1.56,4.68v10.08c0,0.641,0.208,1.112,0.624,1.416c0.416,0.305,0.864,0.537,1.344,0.696
		c0.352,0.096,0.624,0.2,0.816,0.312c0.192,0.112,0.288,0.264,0.288,0.456c0,0.352-0.32,0.528-0.96,0.528s-1.128-0.024-1.464-0.072
		c-0.336-0.048-0.656-0.087-0.96-0.12c-0.304-0.032-0.744-0.048-1.32-0.048c-0.544,0-0.977,0.017-1.296,0.048
		c-0.32,0.032-0.648,0.072-0.984,0.12c-0.336,0.048-0.824,0.072-1.464,0.072c-0.641,0-0.96-0.176-0.96-0.528
		c0-0.224,0.096-0.376,0.288-0.456c0.192-0.08,0.463-0.184,0.816-0.312c0.48-0.16,0.912-0.392,1.296-0.696
		c0.384-0.304,0.576-0.775,0.576-1.416v-9.792c0-0.799-0.232-1.528-0.696-2.184c-0.464-0.655-1.032-1.176-1.704-1.56
		c-0.672-0.384-1.361-0.576-2.064-0.576c-0.608,0-1.313,0.088-2.112,0.264c-0.8,0.176-1.424,0.44-1.872,0.792
		c-0.512,0.416-0.856,0.848-1.032,1.296c-0.176,0.448-0.264,1.168-0.264,2.16v9.744c0.032,0.641,0.232,1.088,0.6,1.344
		c0.368,0.256,0.792,0.464,1.272,0.624c0.352,0.096,0.616,0.2,0.792,0.312c0.175,0.112,0.264,0.264,0.264,0.456
		c0,0.352-0.32,0.528-0.96,0.528c-0.641,0-1.121-0.024-1.44-0.072c-0.32-0.048-0.624-0.087-0.912-0.12
		c-0.288-0.032-0.72-0.048-1.296-0.048c-0.544,0-0.984,0.017-1.32,0.048c-0.336,0.032-0.688,0.072-1.056,0.12
		C125.27,121.215,124.766,121.239,124.126,121.239z"/>
	<path fill="#0D4482" d="M152.591,121.766c-0.576,0-1.16-0.224-1.752-0.672c-0.593-0.448-1.089-0.992-1.488-1.632
		c-0.4-0.64-0.6-1.248-0.6-1.824c0-1.024,0.271-1.824,0.815-2.4s1.408-1.104,2.592-1.584l4.896-2.016
		c0.64-0.256,1.016-0.48,1.128-0.672c0.111-0.192,0.184-0.607,0.216-1.248l0.096-3.072c0.032-0.832-0.2-1.551-0.695-2.16
		c-0.497-0.607-1.208-0.912-2.136-0.912c-0.48,0-0.961,0.08-1.44,0.24c-0.48,0.16-0.881,0.368-1.2,0.624
		c-0.191,0.128-0.32,0.32-0.384,0.576c-0.064,0.256-0.096,0.528-0.096,0.816c0,0.128,0.007,0.272,0.023,0.432
		c0.016,0.161,0.024,0.305,0.024,0.432c0,0.161-0.2,0.376-0.601,0.648c-0.4,0.272-0.848,0.512-1.344,0.72
		c-0.496,0.208-0.904,0.312-1.224,0.312c-0.161,0-0.288-0.04-0.384-0.12c-0.097-0.08-0.145-0.184-0.145-0.312
		c0-0.512,0.168-1.063,0.504-1.656c0.336-0.592,0.808-1.144,1.416-1.656c0.736-0.672,1.536-1.264,2.4-1.776
		c0.863-0.511,1.711-0.912,2.544-1.2c0.832-0.288,1.567-0.432,2.208-0.432c1.151,0,2.104,0.408,2.855,1.224s1.112,1.832,1.08,3.048
		l-0.239,11.52c-0.033,0.672,0.119,1.217,0.455,1.632c0.337,0.417,0.76,0.624,1.272,0.624c0.8,0,1.392-0.175,1.776-0.528
		c0.159-0.16,0.288-0.24,0.384-0.24c0.159,0,0.288,0.048,0.384,0.144c0.096,0.096,0.144,0.225,0.144,0.384
		c0,0.353-0.176,0.704-0.527,1.056c-0.513,0.512-1.064,0.92-1.656,1.224c-0.593,0.304-1.145,0.456-1.656,0.456
		c-1.472,0-2.64-0.832-3.504-2.496h-0.144c-1.057,0.864-2.064,1.497-3.024,1.896C154.606,121.566,153.614,121.766,152.591,121.766z
		 M154.846,119.463c0.64,0,1.184-0.104,1.632-0.312c0.448-0.208,0.848-0.488,1.2-0.84c0.159-0.16,0.295-0.375,0.408-0.648
		c0.111-0.271,0.184-0.711,0.216-1.32l0.096-2.352c0.031-0.352,0.016-0.607-0.048-0.768c-0.064-0.16-0.192-0.24-0.384-0.24
		c-0.064,0-0.177,0.016-0.336,0.048c-0.161,0.032-0.368,0.096-0.624,0.192c-1.696,0.608-2.873,1.241-3.528,1.896
		c-0.656,0.656-0.984,1.256-0.984,1.8c0,0.833,0.248,1.464,0.744,1.896C153.734,119.246,154.27,119.463,154.846,119.463z"/>
	<path fill="#0D4482" d="M168.238,121.239c-0.288,0-0.521-0.041-0.696-0.12s-0.264-0.216-0.264-0.408
		c0-0.256,0.096-0.424,0.288-0.504c0.191-0.079,0.463-0.168,0.815-0.264c0.48-0.127,0.943-0.304,1.393-0.528
		c0.447-0.223,0.672-0.655,0.672-1.296v-10.32c0-0.864-0.089-1.6-0.265-2.208c-0.176-0.607-0.68-1.024-1.512-1.248
		c-0.128-0.064-0.24-0.136-0.336-0.216c-0.096-0.08-0.144-0.216-0.144-0.408c0-0.352,0.144-0.544,0.432-0.576
		c1.12-0.288,2.031-0.64,2.736-1.056c0.703-0.416,1.392-0.88,2.063-1.392c0.096-0.064,0.184-0.12,0.264-0.168
		c0.08-0.048,0.168-0.072,0.265-0.072c0.063,0,0.12,0.032,0.168,0.096c0.048,0.064,0.072,0.144,0.072,0.24
		c0,0.225-0.041,0.681-0.12,1.368c-0.081,0.688-0.12,1.256-0.12,1.704c0,0.128,0.007,0.248,0.023,0.36
		c0.016,0.113,0.04,0.185,0.072,0.216c1.12-1.056,2.312-1.856,3.576-2.4c1.264-0.543,2.647-0.816,4.152-0.816
		c1.567,0,2.863,0.641,3.888,1.92c1.023,1.28,1.536,2.864,1.536,4.752v10.224c0,0.641,0.224,1.064,0.672,1.272
		c0.447,0.208,0.912,0.393,1.392,0.552c0.256,0.096,0.504,0.2,0.744,0.312c0.24,0.112,0.36,0.296,0.36,0.552
		c0,0.192-0.112,0.312-0.336,0.36c-0.225,0.048-0.433,0.072-0.624,0.072c-0.641,0-1.137-0.024-1.488-0.072
		c-0.353-0.048-0.688-0.087-1.008-0.12c-0.32-0.032-0.769-0.048-1.344-0.048c-0.545,0-0.993,0.017-1.345,0.048
		c-0.353,0.032-0.712,0.072-1.08,0.12c-0.368,0.048-0.872,0.072-1.512,0.072c-0.16,0-0.36-0.024-0.6-0.072
		c-0.24-0.048-0.36-0.168-0.36-0.36c0-0.256,0.12-0.439,0.36-0.552c0.239-0.112,0.487-0.216,0.744-0.312
		c0.479-0.16,0.943-0.344,1.392-0.552c0.447-0.208,0.672-0.631,0.672-1.272v-10.08c0-1.408-0.393-2.503-1.176-3.288
		c-0.784-0.784-1.832-1.191-3.145-1.224c-1.151,0-2.159,0.185-3.023,0.552c-0.864,0.368-1.632,0.824-2.304,1.368
		c-0.129,0.128-0.225,0.296-0.288,0.504c-0.064,0.208-0.097,0.408-0.097,0.6v11.568c0,0.641,0.224,1.073,0.672,1.296
		c0.448,0.225,0.912,0.401,1.393,0.528c0.735,0.192,1.104,0.448,1.104,0.768c0,0.192-0.08,0.328-0.239,0.408
		c-0.161,0.08-0.401,0.12-0.721,0.12c-0.641,0-1.145-0.024-1.512-0.072c-0.368-0.048-0.713-0.087-1.032-0.12
		c-0.32-0.032-0.768-0.048-1.344-0.048c-0.545,0-0.984,0.017-1.32,0.048c-0.336,0.032-0.688,0.072-1.056,0.12
		C169.382,121.215,168.878,121.239,168.238,121.239z"/>
	<path fill="#0D4482" d="M200.83,135.014c-2.721,0-4.872-0.521-6.456-1.56c-1.584-1.04-2.376-2.44-2.376-4.2
		c0-0.833,0.127-1.536,0.384-2.112c0.256-0.576,0.655-1.072,1.2-1.488c0.447-0.384,1.048-0.872,1.8-1.464
		c0.751-0.593,1.527-1.208,2.328-1.848l2.016,0.096c-1.536,0.991-2.608,1.936-3.216,2.832c-0.608,0.896-0.912,1.984-0.912,3.264
		c0,1.28,0.567,2.359,1.704,3.24c1.136,0.879,2.536,1.32,4.2,1.32c1.888,0,3.408-0.432,4.56-1.296c0.8-0.608,1.424-1.4,1.872-2.376
		c0.448-0.977,0.672-2.009,0.672-3.096c0-0.704-0.248-1.289-0.744-1.752c-0.496-0.464-1.271-0.84-2.327-1.128
		c-1.057-0.288-2.433-0.48-4.129-0.576c-3.008-0.224-5.096-0.624-6.264-1.2c-1.168-0.576-1.752-1.472-1.752-2.688
		c0-0.32,0.088-0.616,0.264-0.888c0.176-0.271,0.456-0.568,0.841-0.888c0.735-0.576,1.279-1,1.632-1.272
		c0.352-0.271,0.615-0.504,0.792-0.696c0.175-0.192,0.343-0.432,0.504-0.72l1.632,0.816c-0.704,0.256-1.296,0.6-1.776,1.032
		c-0.479,0.432-0.72,0.824-0.72,1.176c0,0.448,0.24,0.84,0.72,1.176c0.48,0.336,1.184,0.6,2.112,0.792
		c0.928,0.192,2.064,0.336,3.408,0.432c2.943,0.16,5.136,0.64,6.576,1.44c1.439,0.799,2.16,1.936,2.16,3.408
		c0,1.248-0.313,2.472-0.937,3.672c-0.624,1.2-1.448,2.295-2.472,3.288c-1.024,0.992-2.169,1.784-3.433,2.376
		C203.429,134.718,202.141,135.014,200.83,135.014z M201.118,116.007c-1.313,0-2.561-0.336-3.744-1.008
		c-1.185-0.672-2.152-1.56-2.904-2.664s-1.128-2.312-1.128-3.624c0-1.504,0.392-2.824,1.176-3.96
		c0.784-1.135,1.815-2.023,3.096-2.664s2.641-0.96,4.08-0.96c0.928,0,1.736,0.12,2.425,0.36c0.688,0.24,1.367,0.456,2.04,0.648
		c0.768,0.224,1.375,0.36,1.823,0.408c0.448,0.048,0.912,0.072,1.393,0.072c0.384,0,0.863-0.024,1.439-0.072
		c0.576-0.048,0.976-0.072,1.2-0.072c0.416,0,0.624,0.24,0.624,0.72c0,0.288-0.16,0.592-0.479,0.912
		c-0.161,0.161-0.288,0.24-0.385,0.24h-1.296c-0.864,0-1.344,0.128-1.439,0.384c-0.032,0.128-0.072,0.312-0.12,0.552
		c-0.048,0.24-0.089,0.504-0.12,0.792c-0.032,0.288-0.048,0.576-0.048,0.864c0,1.632-0.353,3.137-1.057,4.512
		c-0.704,1.376-1.632,2.48-2.783,3.312C203.758,115.591,202.493,116.007,201.118,116.007z M201.405,114.326
		c1.216,0,2.225-0.616,3.024-1.848c0.8-1.231,1.2-2.76,1.2-4.584c0-0.928-0.216-1.8-0.648-2.616
		c-0.432-0.816-0.992-1.472-1.68-1.968c-0.688-0.496-1.433-0.744-2.232-0.744c-0.736,0-1.432,0.264-2.088,0.792
		c-0.656,0.528-1.184,1.208-1.584,2.04c-0.4,0.833-0.6,1.744-0.6,2.736c0,1.121,0.208,2.152,0.624,3.096
		c0.415,0.944,0.976,1.696,1.68,2.256C199.805,114.047,200.573,114.326,201.405,114.326z"/>
	<path fill="#0D4482" d="M222.573,121.815c-1.76,0-3.296-0.432-4.607-1.296c-1.313-0.864-2.337-2.088-3.072-3.672
		c-0.736-1.584-1.104-3.416-1.104-5.496c0-1.855,0.423-3.543,1.271-5.064c0.848-1.52,1.976-2.743,3.384-3.672
		c1.408-0.928,2.944-1.392,4.608-1.392c1.279,0,2.416,0.256,3.408,0.768c0.991,0.512,1.768,1.224,2.328,2.136
		c0.559,0.912,0.84,1.96,0.84,3.144c0,0.993-0.48,1.488-1.44,1.488h-10.128c-0.448,0-0.761,0.12-0.936,0.36
		c-0.177,0.24-0.265,0.712-0.265,1.416c0,1.536,0.336,2.937,1.008,4.2c0.673,1.264,1.568,2.272,2.688,3.024
		c1.12,0.752,2.352,1.128,3.696,1.128c0.96,0,1.831-0.184,2.615-0.552c0.784-0.368,1.48-0.904,2.089-1.608
		c0.127-0.16,0.223-0.264,0.288-0.312c0.063-0.048,0.144-0.072,0.239-0.072c0.256,0,0.384,0.161,0.384,0.48
		c0,0.608-0.287,1.28-0.863,2.016c-0.48,0.608-1.057,1.136-1.729,1.584c-0.672,0.448-1.408,0.792-2.208,1.032
		C224.269,121.695,223.437,121.815,222.573,121.815z M218.157,107.27h4.368c0.769,0,1.424-0.016,1.968-0.048
		c0.544-0.031,1.072-0.096,1.584-0.192c0.16-0.032,0.265-0.136,0.313-0.312c0.048-0.175,0.072-0.424,0.072-0.744
		c0-0.928-0.408-1.72-1.225-2.376c-0.815-0.655-1.784-0.984-2.903-0.984c-0.737,0-1.473,0.216-2.208,0.648
		c-0.737,0.432-1.345,0.968-1.824,1.608c-0.48,0.641-0.72,1.28-0.72,1.92C217.582,107.111,217.773,107.27,218.157,107.27z"/>
	<path fill="#0D4482" d="M9.792,193.862c-1.344,0-2.584-0.2-3.72-0.6c-1.136-0.399-2.152-0.968-3.048-1.704
		c-0.128-0.127-0.248-0.271-0.36-0.432c-0.113-0.16-0.2-0.336-0.264-0.528c-0.161-0.64-0.264-1.472-0.312-2.496
		c-0.048-1.023-0.104-1.872-0.168-2.544c0-0.224,0.096-0.392,0.288-0.504c0.192-0.111,0.416-0.168,0.672-0.168
		c0.16,0,0.32,0.04,0.48,0.12c0.16,0.08,0.256,0.216,0.288,0.408c0.64,2.464,1.591,4.224,2.856,5.279
		c1.264,1.057,2.584,1.584,3.96,1.584c1.12,0,2.112-0.239,2.976-0.72c0.864-0.479,1.543-1.159,2.04-2.04
		c0.496-0.88,0.744-1.911,0.744-3.096c0-1.312-0.216-2.376-0.648-3.192c-0.432-0.815-1.049-1.527-1.848-2.136
		c-0.8-0.607-1.776-1.264-2.928-1.968c-1.248-0.8-2.48-1.608-3.696-2.424c-1.216-0.816-2.225-1.76-3.024-2.832
		c-0.8-1.072-1.2-2.376-1.2-3.912c0-1.632,0.368-3.104,1.104-4.416c0.736-1.312,1.848-2.359,3.336-3.145
		c1.488-0.783,3.352-1.176,5.592-1.176c1.152,0,2.152,0.12,3,0.36c0.847,0.239,1.528,0.473,2.04,0.695
		c0.255,0.097,0.472,0.257,0.648,0.48c0.175,0.225,0.295,0.464,0.36,0.72c0.192,0.672,0.4,1.44,0.624,2.305
		c0.224,0.863,0.336,1.68,0.336,2.447c0,0.353-0.24,0.528-0.72,0.528c-0.288,0-0.569-0.063-0.84-0.192
		c-0.272-0.127-0.44-0.288-0.504-0.479c-0.672-1.696-1.457-2.992-2.352-3.889c-0.896-0.895-2.032-1.344-3.408-1.344
		c-0.96,0-1.856,0.177-2.688,0.528c-0.833,0.353-1.512,0.929-2.04,1.728c-0.528,0.801-0.792,1.872-0.792,3.217
		c0,0.96,0.312,1.832,0.936,2.615c0.624,0.785,1.447,1.529,2.472,2.232c1.024,0.704,2.128,1.424,3.312,2.16
		c1.12,0.672,2.216,1.408,3.288,2.208c1.072,0.8,1.952,1.752,2.64,2.855c0.688,1.104,1.032,2.456,1.032,4.057
		c0,1.888-0.432,3.544-1.296,4.968c-0.864,1.424-2.081,2.52-3.648,3.288C13.743,193.478,11.904,193.862,9.792,193.862z"/>
	<path fill="#0D4482" d="M33.552,193.766c-1.792,0-3.408-0.416-4.848-1.248c-1.44-0.832-2.584-1.976-3.432-3.432
		c-0.849-1.456-1.272-3.112-1.272-4.968c0-1.345,0.264-2.656,0.792-3.937c0.528-1.279,1.272-2.448,2.232-3.504s2.08-1.896,3.36-2.52
		c1.279-0.624,2.656-0.937,4.128-0.937c1.855,0,3.528,0.448,5.016,1.344c1.488,0.896,2.671,2.072,3.552,3.528
		c0.88,1.456,1.32,3.048,1.32,4.776c0,1.855-0.408,3.616-1.224,5.279c-0.816,1.665-2.024,3.017-3.624,4.057
		C37.951,193.246,35.951,193.766,33.552,193.766z M34.56,192.327c1.087,0,2.064-0.208,2.928-0.624
		c0.864-0.416,1.536-1.088,2.016-2.017c0.384-0.735,0.64-1.632,0.768-2.688c0.127-1.057,0.192-2.048,0.192-2.977
		c0-1.536-0.281-3.016-0.84-4.439c-0.561-1.424-1.344-2.592-2.352-3.504c-1.008-0.912-2.201-1.368-3.576-1.368
		c-0.864,0-1.64,0.137-2.328,0.408c-0.688,0.271-1.32,0.775-1.896,1.512c-0.64,0.8-1.056,1.775-1.248,2.928
		c-0.192,1.152-0.288,2.304-0.288,3.456c0,1.568,0.288,3.064,0.864,4.488s1.36,2.584,2.352,3.479
		C32.143,191.879,33.28,192.327,34.56,192.327z"/>
	<path fill="#0D4482" d="M48.191,193.238c-0.256,0-0.48-0.032-0.672-0.096s-0.288-0.208-0.288-0.432s0.104-0.384,0.312-0.48
		c0.208-0.096,0.472-0.191,0.792-0.288c0.448-0.159,0.904-0.343,1.368-0.552c0.463-0.208,0.696-0.632,0.696-1.271v-10.32
		c0-0.864-0.096-1.624-0.288-2.28c-0.192-0.655-0.705-1.048-1.536-1.176c-0.128-0.031-0.232-0.096-0.312-0.192
		c-0.081-0.096-0.12-0.239-0.12-0.432c0-0.319,0.127-0.512,0.384-0.576c0.864-0.224,1.551-0.456,2.064-0.696
		c0.511-0.239,0.967-0.511,1.368-0.815c0.4-0.304,0.888-0.632,1.464-0.984c0.063-0.031,0.127-0.071,0.192-0.12
		c0.063-0.048,0.144-0.071,0.24-0.071c0.192,0,0.288,0.112,0.288,0.336s-0.041,0.68-0.12,1.368c-0.08,0.688-0.12,1.256-0.12,1.703
		c0,0.32,0.031,0.513,0.096,0.576h0.096c0.736-0.703,1.704-1.416,2.904-2.136c1.2-0.72,2.728-1.08,4.584-1.08
		c1.152,0,2.112,0.248,2.88,0.744c0.768,0.496,1.408,1.353,1.92,2.568h0.144c1.023-0.928,2.191-1.712,3.504-2.353
		c1.312-0.64,2.751-0.96,4.32-0.96c1.056,0,1.936,0.32,2.64,0.96c0.704,0.641,1.24,1.473,1.608,2.496
		c0.368,1.024,0.552,2.097,0.552,3.216v10.225c0,0.64,0.224,1.063,0.672,1.271c0.448,0.209,0.912,0.393,1.392,0.552
		c0.319,0.097,0.583,0.192,0.792,0.288c0.208,0.097,0.312,0.257,0.312,0.48c0,0.191-0.072,0.328-0.216,0.408
		c-0.144,0.079-0.392,0.119-0.744,0.119c-0.64,0-1.136-0.023-1.488-0.071c-0.353-0.048-0.68-0.088-0.984-0.12
		c-0.305-0.031-0.744-0.048-1.32-0.048c-0.544,0-0.992,0.017-1.344,0.048c-0.353,0.032-0.72,0.072-1.104,0.12
		c-0.384,0.048-0.896,0.071-1.536,0.071c-0.288,0-0.521-0.04-0.696-0.119c-0.176-0.08-0.264-0.217-0.264-0.408
		c0-0.256,0.104-0.433,0.312-0.528c0.208-0.096,0.472-0.176,0.792-0.24c0.512-0.127,0.984-0.304,1.416-0.527
		s0.648-0.656,0.648-1.296v-10.08c0-0.769-0.176-1.496-0.528-2.185c-0.353-0.688-0.816-1.255-1.392-1.704
		c-0.576-0.447-1.216-0.672-1.92-0.672c-0.8,0-1.544,0.097-2.232,0.288c-0.688,0.192-1.336,0.528-1.944,1.008
		c-0.896,0.704-1.344,1.856-1.344,3.456v9.889c0,0.64,0.24,1.072,0.72,1.296s0.96,0.4,1.44,0.527
		c0.319,0.064,0.583,0.152,0.792,0.265c0.208,0.112,0.312,0.28,0.312,0.504c0,0.191-0.081,0.328-0.24,0.408
		c-0.161,0.079-0.4,0.119-0.72,0.119c-0.64,0-1.144-0.023-1.512-0.071c-0.368-0.048-0.72-0.088-1.056-0.12
		c-0.336-0.031-0.792-0.048-1.368-0.048c-0.545,0-0.993,0.017-1.344,0.048c-0.353,0.032-0.72,0.072-1.104,0.12
		s-0.896,0.071-1.536,0.071c-0.256,0-0.48-0.04-0.672-0.119c-0.192-0.08-0.288-0.217-0.288-0.408c0-0.256,0.12-0.424,0.36-0.504
		c0.24-0.08,0.487-0.168,0.744-0.265c0.48-0.159,0.952-0.343,1.416-0.552c0.463-0.208,0.696-0.632,0.696-1.271v-10.08
		c0-0.769-0.176-1.496-0.528-2.185c-0.353-0.688-0.816-1.255-1.392-1.704c-0.576-0.447-1.216-0.672-1.92-0.672
		c-0.8,0-1.544,0.097-2.232,0.288c-0.688,0.192-1.336,0.528-1.944,1.008c-0.864,0.641-1.296,1.793-1.296,3.456v9.889
		c0,0.64,0.223,1.063,0.672,1.271c0.448,0.209,0.912,0.393,1.392,0.552c0.255,0.097,0.504,0.185,0.744,0.265
		c0.24,0.08,0.36,0.248,0.36,0.504c0,0.191-0.089,0.328-0.264,0.408c-0.176,0.079-0.408,0.119-0.696,0.119
		c-0.641,0-1.145-0.023-1.512-0.071c-0.368-0.048-0.712-0.088-1.032-0.12c-0.32-0.031-0.768-0.048-1.344-0.048
		c-0.544,0-0.984,0.017-1.32,0.048c-0.336,0.032-0.688,0.072-1.056,0.12C49.335,193.215,48.831,193.238,48.191,193.238z"/>
	<path fill="#0D4482" d="M93.648,193.814c-1.76,0-3.296-0.432-4.608-1.296c-1.313-0.864-2.336-2.088-3.072-3.672
		c-0.736-1.584-1.104-3.415-1.104-5.496c0-1.855,0.424-3.544,1.272-5.063c0.848-1.52,1.976-2.744,3.384-3.673
		c1.408-0.928,2.943-1.392,4.608-1.392c1.279,0,2.416,0.257,3.408,0.769c0.992,0.512,1.768,1.224,2.328,2.136
		c0.56,0.912,0.84,1.96,0.84,3.144c0,0.992-0.48,1.488-1.44,1.488H89.135c-0.448,0-0.76,0.12-0.936,0.36
		c-0.176,0.239-0.264,0.712-0.264,1.416c0,1.535,0.336,2.936,1.008,4.199c0.672,1.265,1.567,2.272,2.688,3.024
		c1.12,0.752,2.352,1.128,3.696,1.128c0.96,0,1.832-0.184,2.616-0.552c0.784-0.368,1.479-0.904,2.088-1.608
		c0.127-0.159,0.224-0.264,0.288-0.312c0.064-0.048,0.144-0.072,0.24-0.072c0.255,0,0.384,0.16,0.384,0.479
		c0,0.608-0.288,1.28-0.864,2.017c-0.48,0.608-1.056,1.136-1.728,1.584c-0.672,0.448-1.409,0.792-2.208,1.032
		C95.344,193.694,94.511,193.814,93.648,193.814z M89.232,179.27h4.368c0.768,0,1.424-0.016,1.968-0.048
		c0.544-0.031,1.072-0.096,1.584-0.192c0.16-0.031,0.264-0.136,0.312-0.312s0.072-0.424,0.072-0.744c0-0.928-0.408-1.72-1.224-2.376
		c-0.816-0.655-1.785-0.984-2.904-0.984c-0.736,0-1.472,0.217-2.208,0.648c-0.736,0.432-1.344,0.969-1.824,1.608
		s-0.72,1.28-0.72,1.92C88.656,179.111,88.847,179.27,89.232,179.27z"/>
	<path fill="#0D4482" d="M112.896,193.766c-1.792,0-3.408-0.416-4.848-1.248c-1.44-0.832-2.584-1.976-3.432-3.432
		c-0.849-1.456-1.272-3.112-1.272-4.968c0-1.345,0.264-2.656,0.792-3.937c0.528-1.279,1.272-2.448,2.232-3.504s2.08-1.896,3.36-2.52
		c1.279-0.624,2.656-0.937,4.128-0.937c1.855,0,3.528,0.448,5.016,1.344c1.488,0.896,2.671,2.072,3.552,3.528
		c0.88,1.456,1.32,3.048,1.32,4.776c0,1.855-0.408,3.616-1.224,5.279c-0.816,1.665-2.024,3.017-3.624,4.057
		C117.295,193.246,115.296,193.766,112.896,193.766z M113.904,192.327c1.087,0,2.064-0.208,2.928-0.624
		c0.864-0.416,1.536-1.088,2.016-2.017c0.384-0.735,0.64-1.632,0.768-2.688c0.127-1.057,0.192-2.048,0.192-2.977
		c0-1.536-0.281-3.016-0.84-4.439c-0.561-1.424-1.344-2.592-2.352-3.504c-1.008-0.912-2.201-1.368-3.576-1.368
		c-0.864,0-1.64,0.137-2.328,0.408c-0.688,0.271-1.32,0.775-1.896,1.512c-0.64,0.8-1.056,1.775-1.248,2.928
		c-0.192,1.152-0.288,2.304-0.288,3.456c0,1.568,0.288,3.064,0.864,4.488s1.36,2.584,2.352,3.479
		C111.488,191.879,112.624,192.327,113.904,192.327z"/>
	<path fill="#0D4482" d="M127.535,193.238c-0.288,0-0.521-0.04-0.696-0.119c-0.176-0.08-0.264-0.217-0.264-0.408
		c0-0.256,0.096-0.424,0.288-0.504s0.463-0.168,0.816-0.265c0.48-0.127,0.944-0.304,1.392-0.527
		c0.448-0.224,0.672-0.656,0.672-1.296v-10.32c0-0.864-0.088-1.6-0.264-2.208c-0.176-0.607-0.68-1.023-1.512-1.248
		c-0.128-0.063-0.24-0.136-0.336-0.216s-0.144-0.216-0.144-0.408c0-0.352,0.144-0.544,0.432-0.576
		c1.12-0.288,2.032-0.64,2.736-1.056c0.704-0.416,1.392-0.88,2.064-1.393c0.096-0.063,0.184-0.119,0.264-0.168
		c0.08-0.048,0.168-0.071,0.264-0.071c0.063,0,0.12,0.032,0.168,0.096c0.048,0.064,0.072,0.144,0.072,0.24
		c0,0.224-0.041,0.68-0.12,1.368c-0.08,0.688-0.12,1.256-0.12,1.703c0,0.129,0.007,0.249,0.024,0.36
		c0.016,0.112,0.04,0.185,0.072,0.216c1.12-1.056,2.312-1.855,3.576-2.399c1.264-0.544,2.647-0.816,4.152-0.816
		c1.567,0,2.864,0.641,3.888,1.92c1.023,1.28,1.536,2.864,1.536,4.752v10.225c0,0.64,0.224,1.063,0.672,1.271
		c0.447,0.209,0.912,0.393,1.392,0.552c0.256,0.097,0.504,0.2,0.744,0.313s0.36,0.296,0.36,0.552c0,0.192-0.112,0.313-0.336,0.36
		c-0.225,0.048-0.433,0.071-0.624,0.071c-0.641,0-1.137-0.023-1.488-0.071c-0.353-0.048-0.688-0.088-1.008-0.12
		c-0.32-0.031-0.768-0.048-1.344-0.048c-0.544,0-0.992,0.017-1.344,0.048c-0.353,0.032-0.713,0.072-1.08,0.12
		c-0.368,0.048-0.873,0.071-1.512,0.071c-0.161,0-0.36-0.023-0.6-0.071c-0.24-0.048-0.36-0.168-0.36-0.36
		c0-0.256,0.12-0.439,0.36-0.552c0.24-0.112,0.488-0.216,0.744-0.313c0.48-0.159,0.943-0.343,1.392-0.552
		c0.448-0.208,0.672-0.632,0.672-1.271v-10.08c0-1.408-0.392-2.504-1.176-3.288c-0.785-0.784-1.833-1.192-3.144-1.225
		c-1.152,0-2.16,0.185-3.024,0.553c-0.864,0.368-1.632,0.824-2.304,1.367c-0.128,0.129-0.224,0.297-0.288,0.505
		c-0.064,0.208-0.096,0.407-0.096,0.6v11.568c0,0.64,0.223,1.072,0.672,1.296c0.448,0.224,0.912,0.4,1.392,0.527
		c0.736,0.192,1.104,0.449,1.104,0.769c0,0.191-0.081,0.328-0.24,0.408c-0.161,0.079-0.4,0.119-0.72,0.119
		c-0.641,0-1.145-0.023-1.512-0.071c-0.368-0.048-0.712-0.088-1.032-0.12c-0.32-0.031-0.768-0.048-1.344-0.048
		c-0.544,0-0.984,0.017-1.32,0.048c-0.336,0.032-0.688,0.072-1.056,0.12C128.679,193.215,128.176,193.238,127.535,193.238z"/>
	<path fill="#0D4482" d="M160.991,193.814c-1.76,0-3.296-0.432-4.607-1.296c-1.313-0.864-2.337-2.088-3.072-3.672
		c-0.736-1.584-1.104-3.415-1.104-5.496c0-1.855,0.423-3.544,1.271-5.063c0.848-1.52,1.976-2.744,3.384-3.673
		c1.408-0.928,2.944-1.392,4.608-1.392c1.279,0,2.416,0.257,3.408,0.769c0.991,0.512,1.768,1.224,2.328,2.136
		c0.559,0.912,0.84,1.96,0.84,3.144c0,0.992-0.48,1.488-1.44,1.488h-10.128c-0.448,0-0.761,0.12-0.936,0.36
		c-0.177,0.239-0.265,0.712-0.265,1.416c0,1.535,0.336,2.936,1.008,4.199c0.673,1.265,1.568,2.272,2.688,3.024
		s2.352,1.128,3.696,1.128c0.96,0,1.831-0.184,2.615-0.552s1.48-0.904,2.089-1.608c0.127-0.159,0.223-0.264,0.288-0.312
		c0.063-0.048,0.144-0.072,0.239-0.072c0.256,0,0.384,0.16,0.384,0.479c0,0.608-0.287,1.28-0.863,2.017
		c-0.48,0.608-1.057,1.136-1.729,1.584s-1.408,0.792-2.208,1.032C162.687,193.694,161.855,193.814,160.991,193.814z M156.575,179.27
		h4.368c0.769,0,1.424-0.016,1.968-0.048c0.544-0.031,1.072-0.096,1.584-0.192c0.16-0.031,0.265-0.136,0.313-0.312
		s0.072-0.424,0.072-0.744c0-0.928-0.408-1.72-1.225-2.376c-0.815-0.655-1.784-0.984-2.903-0.984c-0.737,0-1.473,0.217-2.208,0.648
		c-0.737,0.432-1.345,0.969-1.824,1.608c-0.48,0.64-0.72,1.28-0.72,1.92C156,179.111,156.191,179.27,156.575,179.27z"/>
	<path fill="#0D4482" d="M172.943,171.783c-0.128,0-0.216-0.128-0.264-0.385c-0.049-0.256-0.072-0.495-0.072-0.72
		c0.031-0.512,0.048-0.991,0.048-1.44c0-0.447,0-0.879,0-1.296c0-0.575-0.017-1.224-0.048-1.943
		c-0.032-0.721-0.08-1.608-0.145-2.664c0-0.352,0.104-0.68,0.313-0.984c0.208-0.304,0.408-0.535,0.6-0.696
		c0.385-0.319,0.728-0.567,1.032-0.743c0.304-0.176,0.648-0.265,1.032-0.265c0.256,0,0.432,0.152,0.528,0.456
		c0.096,0.305,0.144,0.665,0.144,1.08c0,0.833-0.137,1.793-0.408,2.88c-0.272,1.089-0.584,2.136-0.936,3.145
		c-0.353,1.008-0.656,1.8-0.912,2.376c-0.128,0.288-0.28,0.56-0.456,0.815C173.222,171.655,173.071,171.783,172.943,171.783z"/>
	<path fill="#0D4482" d="M185.999,193.766c-0.992,0-1.92-0.152-2.784-0.456s-1.601-0.728-2.208-1.271
		c-0.16-0.353-0.28-0.943-0.36-1.776c-0.08-0.832-0.136-1.52-0.168-2.064c0-0.287,0.208-0.432,0.624-0.432
		c0.128,0,0.248,0.024,0.36,0.072c0.111,0.048,0.184,0.137,0.216,0.264c0.416,1.568,1.08,2.688,1.992,3.36s1.831,1.008,2.76,1.008
		c0.928,0,1.72-0.312,2.376-0.936s0.984-1.4,0.984-2.328c0-0.864-0.288-1.608-0.864-2.232s-1.584-1.384-3.023-2.28
		c-1.089-0.672-1.969-1.312-2.641-1.92c-0.672-0.607-1.16-1.231-1.464-1.872c-0.305-0.64-0.456-1.359-0.456-2.159
		c0-1.024,0.24-1.952,0.72-2.784c0.48-0.832,1.2-1.496,2.16-1.992s2.16-0.744,3.601-0.744c0.96,0,1.759,0.096,2.399,0.288
		c0.64,0.192,1.12,0.4,1.44,0.624c0.256,0.353,0.472,0.904,0.647,1.656s0.265,1.464,0.265,2.136c0,0.225-0.161,0.336-0.48,0.336
		c-0.191,0-0.376-0.04-0.552-0.12c-0.177-0.079-0.296-0.184-0.36-0.312c-0.416-1.057-0.936-1.864-1.56-2.425
		c-0.624-0.559-1.4-0.84-2.328-0.84c-0.8,0-1.512,0.24-2.136,0.721c-0.624,0.479-0.937,1.184-0.937,2.111
		c0,0.736,0.232,1.393,0.696,1.969c0.464,0.575,1.336,1.231,2.616,1.968c1.855,1.056,3.24,2.04,4.151,2.952
		c0.912,0.911,1.368,2.12,1.368,3.624c0,1.728-0.656,3.136-1.968,4.224C189.774,193.222,188.079,193.766,185.999,193.766z"/>
	<path fill="#0D4482" d="M3.168,265.335c-0.416,0-0.752-0.041-1.008-0.12c-0.257-0.08-0.384-0.216-0.384-0.408
		c0-0.384,0.528-0.672,1.584-0.864c1.216-0.224,2.112-0.592,2.688-1.104c0.576-0.512,0.864-1.344,0.864-2.496v-21.6
		c0-1.152-0.232-1.969-0.696-2.448c-0.464-0.48-1.304-0.832-2.52-1.057c-0.544-0.096-0.944-0.223-1.2-0.384
		c-0.257-0.159-0.384-0.352-0.384-0.576c0-0.191,0.127-0.327,0.384-0.407c0.256-0.08,0.592-0.12,1.008-0.12
		c1.216,0,2.248,0.017,3.096,0.048c0.847,0.032,1.68,0.056,2.496,0.072c0.816,0.017,1.783,0.023,2.904,0.023
		c1.056,0,2.167-0.007,3.336-0.023c1.168-0.017,2.248-0.024,3.24-0.024c1.087-0.031,2.008-0.056,2.76-0.072
		c0.751-0.016,1.192-0.023,1.32-0.023c0.16,0,0.336,0.032,0.528,0.096c0.192,0.064,0.304,0.177,0.336,0.336
		c0.16,0.896,0.319,1.784,0.48,2.664c0.16,0.881,0.24,1.641,0.24,2.28c0,0.288-0.072,0.479-0.216,0.576
		c-0.144,0.096-0.296,0.144-0.456,0.144c-0.16,0-0.272-0.04-0.336-0.12c-0.064-0.079-0.128-0.199-0.192-0.359
		c-0.161-0.544-0.32-1.063-0.48-1.561c-0.161-0.496-0.353-0.855-0.576-1.08c-0.448-0.512-0.944-0.855-1.488-1.032
		c-0.544-0.175-1.121-0.264-1.728-0.264H12.48c-0.256,0-0.608,0.145-1.056,0.432c-0.448,0.288-0.672,0.656-0.672,1.104v10.176
		c0,0.288,0.088,0.536,0.264,0.744c0.175,0.209,0.375,0.312,0.6,0.312h4.752c0.928,0,1.567-0.168,1.92-0.504
		c0.352-0.336,0.64-0.951,0.864-1.848c0.192-0.703,0.48-1.056,0.864-1.056c0.127,0,0.264,0.064,0.408,0.191
		c0.144,0.129,0.216,0.32,0.216,0.576c0,0.128-0.008,0.416-0.024,0.864c-0.017,0.448-0.041,0.912-0.072,1.392
		c-0.032,0.48-0.048,0.849-0.048,1.104c0,0.32,0.007,0.744,0.024,1.271c0.016,0.528,0.031,1.032,0.048,1.513
		c0.016,0.479,0.024,0.784,0.024,0.911c0,0.225-0.024,0.417-0.072,0.576c-0.048,0.161-0.168,0.24-0.36,0.24
		c-0.48,0-0.849-0.512-1.104-1.536c-0.192-0.735-0.449-1.279-0.768-1.632c-0.32-0.352-0.8-0.528-1.44-0.528h-4.464
		c-0.544,0-0.952,0.072-1.224,0.217c-0.272,0.144-0.408,0.488-0.408,1.031v9.216c0,1.217,0.256,2.057,0.768,2.521
		c0.512,0.464,1.312,0.696,2.4,0.696h3.552c1.023,0,1.879-0.056,2.568-0.168c0.688-0.112,1.288-0.328,1.8-0.648
		c0.512-0.352,0.968-0.815,1.368-1.392c0.4-0.576,0.856-1.345,1.368-2.305c0.096-0.191,0.208-0.352,0.336-0.479
		c0.127-0.128,0.271-0.176,0.432-0.145c0.16,0.032,0.288,0.104,0.384,0.217s0.144,0.264,0.144,0.456c0,0.287-0.08,0.792-0.24,1.512
		s-0.36,1.464-0.6,2.231c-0.24,0.769-0.456,1.377-0.648,1.824c-0.096,0.225-0.184,0.416-0.264,0.576
		c-0.081,0.16-0.216,0.24-0.408,0.24c-1.536,0-2.96-0.017-4.272-0.048c-1.313-0.032-2.561-0.064-3.744-0.097
		c-1.184-0.032-2.344-0.064-3.48-0.096c-1.136-0.031-2.312-0.048-3.528-0.048c-0.704,0-1.313,0.023-1.824,0.072
		c-0.512,0.048-1.04,0.096-1.584,0.144C4.735,265.31,4.032,265.335,3.168,265.335z"/>
	<path fill="#0D4482" d="M28.511,265.287c-0.192,0-0.4-0.024-0.624-0.072c-0.224-0.048-0.336-0.168-0.336-0.36
		c0-0.256,0.12-0.447,0.36-0.576c0.24-0.127,0.488-0.223,0.744-0.287c0.48-0.16,0.967-0.424,1.464-0.793
		c0.496-0.367,1.08-1.015,1.752-1.943l3.696-5.136c0.224-0.256,0.328-0.456,0.312-0.601c-0.017-0.144-0.088-0.312-0.216-0.504
		l-3.936-6c-0.384-0.64-0.728-1.104-1.032-1.392c-0.305-0.288-0.696-0.496-1.176-0.624c-0.257-0.064-0.504-0.16-0.744-0.288
		c-0.24-0.128-0.36-0.319-0.36-0.576c0-0.256,0.151-0.392,0.456-0.408c0.304-0.016,0.52-0.023,0.648-0.023
		c0.64,0,1.08,0.016,1.32,0.048c0.24,0.032,0.52,0.064,0.84,0.096c0.32,0.032,0.864,0.048,1.632,0.048
		c0.576,0,0.991-0.016,1.248-0.048c0.256-0.031,0.656-0.048,1.2-0.048c0.127,0,0.344,0.008,0.648,0.023
		c0.304,0.017,0.456,0.152,0.456,0.408c0,0.192-0.088,0.336-0.264,0.433c-0.176,0.096-0.376,0.176-0.6,0.239
		c-0.225,0.064-0.449,0.152-0.672,0.265c-0.224,0.112-0.336,0.296-0.336,0.552c0,0.16,0.056,0.377,0.168,0.648
		c0.112,0.271,0.264,0.568,0.456,0.888l2.208,3.312c0.127,0.225,0.271,0.225,0.432,0l2.448-3.695
		c0.127-0.16,0.224-0.336,0.288-0.528c0.064-0.192,0.096-0.367,0.096-0.528c0-0.384-0.208-0.64-0.624-0.768
		c-0.256-0.096-0.504-0.208-0.744-0.336c-0.24-0.128-0.36-0.304-0.36-0.528c0-0.256,0.151-0.392,0.456-0.408
		c0.304-0.016,0.52-0.023,0.648-0.023c0.256,0,0.624,0.023,1.104,0.071c0.48,0.049,0.912,0.072,1.296,0.072
		c0.896,0,1.52-0.04,1.872-0.12c0.352-0.079,0.736-0.12,1.152-0.12c0.192,0,0.4,0.024,0.624,0.072
		c0.224,0.048,0.336,0.168,0.336,0.36c0,0.224-0.12,0.4-0.36,0.527c-0.24,0.129-0.488,0.24-0.744,0.337
		c-0.48,0.128-1.056,0.376-1.728,0.743c-0.672,0.368-1.232,0.873-1.68,1.513l-3.024,4.56c-0.033,0.064-0.057,0.152-0.072,0.264
		c-0.017,0.113,0.024,0.233,0.12,0.36l4.656,7.584c0.384,0.608,0.751,1.056,1.104,1.344c0.352,0.288,0.768,0.513,1.248,0.673
		c0.256,0.064,0.504,0.16,0.744,0.287c0.24,0.129,0.36,0.32,0.36,0.576c0,0.192-0.112,0.313-0.336,0.36
		c-0.224,0.048-0.432,0.072-0.624,0.072c-0.641,0-1.104-0.017-1.392-0.049s-0.6-0.064-0.936-0.096
		c-0.336-0.032-0.904-0.048-1.704-0.048c-0.576,0-1.169,0.016-1.776,0.048c-0.608,0.031-1.184,0.048-1.728,0.048
		c-0.736,0-1.104-0.159-1.104-0.479c0-0.288,0.104-0.496,0.312-0.624c0.208-0.128,0.504-0.24,0.888-0.336
		c0.352-0.097,0.664-0.232,0.936-0.408c0.271-0.176,0.408-0.424,0.408-0.744c0-0.127-0.024-0.264-0.072-0.408
		c-0.048-0.144-0.12-0.295-0.216-0.456l-2.832-4.607c-0.096-0.097-0.192-0.097-0.288,0l-3.168,4.752
		c-0.032,0.064-0.08,0.185-0.144,0.359c-0.064,0.177-0.096,0.36-0.096,0.553c0,0.224,0.056,0.44,0.168,0.647
		c0.112,0.209,0.28,0.345,0.504,0.408c0.255,0.096,0.504,0.2,0.744,0.313c0.24,0.112,0.36,0.296,0.36,0.552
		c0,0.224-0.152,0.353-0.456,0.384c-0.305,0.031-0.521,0.048-0.648,0.048c-0.257,0-0.648-0.017-1.176-0.048
		s-0.984-0.048-1.368-0.048c-0.896,0-1.544,0.04-1.944,0.12C29.383,265.246,28.959,265.287,28.511,265.287z"/>
	<path fill="#0D4482" d="M49.631,278.774c-0.161,0-0.368-0.023-0.624-0.071c-0.256-0.049-0.384-0.168-0.384-0.36
		c0-0.257,0.12-0.44,0.36-0.552c0.24-0.112,0.487-0.216,0.744-0.313c0.48-0.16,0.943-0.344,1.392-0.552
		c0.448-0.209,0.672-0.632,0.672-1.272v-24.336c0-0.256-0.072-0.64-0.216-1.151c-0.144-0.512-0.376-1.008-0.696-1.488
		c-0.32-0.48-0.752-0.768-1.296-0.864c-0.128-0.031-0.224-0.111-0.288-0.239c-0.064-0.128-0.096-0.256-0.096-0.385
		c0-0.159,0.032-0.288,0.096-0.384c0.064-0.096,0.144-0.159,0.24-0.192c1.215-0.287,2.256-0.6,3.12-0.936
		c0.864-0.336,1.68-0.664,2.448-0.984c0.031,0,0.048-0.007,0.048-0.023c0-0.016,0.016-0.024,0.048-0.024
		c0.064,0,0.128,0.048,0.192,0.145c0.063,0.096,0.096,0.191,0.096,0.288c0,0.288-0.041,0.743-0.12,1.367
		c-0.08,0.624-0.12,1.129-0.12,1.513c0,0.256,0.016,0.4,0.048,0.432c0.319-0.319,0.904-0.728,1.752-1.224
		c0.848-0.496,1.816-0.943,2.904-1.345c1.087-0.399,2.127-0.6,3.12-0.6c1.664,0,3.08,0.44,4.248,1.32
		c1.168,0.88,2.064,2.016,2.688,3.408c0.624,1.392,0.936,2.84,0.936,4.344c0,1.439-0.272,2.84-0.816,4.2
		c-0.544,1.36-1.313,2.584-2.304,3.672c-0.992,1.088-2.144,1.96-3.456,2.616c-1.313,0.655-2.72,0.983-4.224,0.983
		c-0.449,0-0.984-0.072-1.608-0.216c-0.624-0.145-1.232-0.328-1.824-0.552c-0.592-0.224-1.048-0.48-1.368-0.769
		c-0.032,0-0.064,0.185-0.096,0.553c-0.032,0.367-0.056,0.751-0.072,1.151c-0.017,0.4-0.024,0.648-0.024,0.744v8.976
		c0,0.416,0.168,0.744,0.504,0.984s0.72,0.416,1.152,0.528c0.432,0.111,0.808,0.216,1.128,0.312c0.256,0.097,0.504,0.2,0.744,0.313
		c0.24,0.111,0.36,0.295,0.36,0.552c0,0.192-0.128,0.312-0.384,0.36c-0.256,0.048-0.48,0.071-0.672,0.071
		c-0.929,0-1.704-0.04-2.328-0.12s-1.352-0.119-2.184-0.119c-0.544,0-0.984,0.016-1.32,0.048c-0.336,0.031-0.68,0.071-1.032,0.12
		C50.767,278.751,50.271,278.774,49.631,278.774z M60.863,264.278c0.48,0,1.063-0.144,1.752-0.432
		c0.688-0.288,1.375-0.751,2.064-1.392c0.688-0.64,1.264-1.504,1.728-2.593c0.464-1.087,0.696-2.431,0.696-4.031
		c0-1.855-0.24-3.344-0.72-4.464s-1.072-1.969-1.776-2.545c-0.704-0.575-1.424-0.96-2.16-1.151c-0.736-0.192-1.36-0.288-1.872-0.288
		c-0.768,0-1.56,0.16-2.376,0.479c-0.816,0.32-1.504,0.681-2.064,1.08c-0.56,0.4-0.84,0.713-0.84,0.937
		c0,0.704-0.008,1.416-0.024,2.136c-0.017,0.72-0.032,1.416-0.048,2.088c-0.017,0.672-0.032,1.272-0.048,1.8
		c-0.017,0.528-0.024,0.937-0.024,1.225c0,1.28,0.295,2.464,0.888,3.552c0.592,1.088,1.327,1.961,2.208,2.616
		C59.127,263.951,59.999,264.278,60.863,264.278z"/>
	<path fill="#0D4482" d="M74.975,265.238c-0.32,0-0.56-0.04-0.72-0.119c-0.16-0.08-0.24-0.217-0.24-0.408
		c0-0.256,0.096-0.424,0.288-0.504c0.192-0.08,0.463-0.168,0.816-0.265c0.607-0.159,1.063-0.392,1.368-0.695s0.456-0.68,0.456-1.128
		v-10.32c0-0.864-0.128-1.615-0.384-2.256c-0.256-0.64-0.785-1.04-1.584-1.2c-0.128-0.031-0.24-0.111-0.336-0.24
		c-0.096-0.127-0.144-0.256-0.144-0.384c0-0.319,0.144-0.512,0.432-0.576c0.832-0.256,1.704-0.632,2.616-1.128
		s1.624-0.903,2.136-1.224c0.192-0.128,0.343-0.216,0.456-0.265c0.111-0.048,0.199-0.071,0.264-0.071c0.16,0,0.24,0.112,0.24,0.336
		c0,0.096-0.008,0.336-0.024,0.72c-0.017,0.384-0.032,0.832-0.048,1.344c-0.016,0.513-0.041,1.024-0.072,1.536
		c0,0.064,0.031,0.096,0.096,0.096c0.512-0.64,1.08-1.199,1.704-1.68c0.624-0.479,1.264-0.864,1.92-1.152
		c0.656-0.287,1.288-0.432,1.896-0.432c0.672,0,1.224,0.145,1.656,0.432c0.432,0.288,0.648,0.656,0.648,1.104
		c0,0.32-0.088,0.672-0.264,1.056c-0.176,0.384-0.408,0.721-0.696,1.008c-0.288,0.288-0.593,0.433-0.912,0.433
		c-0.192,0-0.4-0.04-0.624-0.12c-0.224-0.079-0.464-0.184-0.72-0.313c-0.257-0.096-0.512-0.191-0.768-0.287
		c-0.257-0.097-0.512-0.145-0.768-0.145c-0.768,0-1.512,0.272-2.232,0.816c-0.72,0.544-1.08,1.616-1.08,3.216v9.696
		c0,0.416,0.224,0.76,0.672,1.031c0.448,0.272,1.072,0.536,1.872,0.792c0.352,0.097,0.624,0.192,0.816,0.288
		c0.192,0.097,0.288,0.257,0.288,0.48c0,0.353-0.32,0.527-0.96,0.527c-0.96,0-1.688-0.04-2.184-0.119
		c-0.497-0.08-1.16-0.12-1.992-0.12c-0.545,0-0.984,0.017-1.32,0.048c-0.336,0.032-0.688,0.072-1.056,0.12
		C76.118,265.215,75.615,265.238,74.975,265.238z"/>
	<path fill="#0D4482" d="M98.879,265.814c-1.76,0-3.296-0.432-4.608-1.296c-1.313-0.864-2.336-2.088-3.072-3.672
		c-0.736-1.584-1.104-3.415-1.104-5.496c0-1.855,0.424-3.544,1.272-5.063c0.848-1.52,1.976-2.744,3.384-3.673
		c1.408-0.928,2.943-1.392,4.608-1.392c1.279,0,2.416,0.257,3.408,0.769c0.992,0.512,1.768,1.224,2.328,2.136
		c0.56,0.912,0.84,1.96,0.84,3.144c0,0.992-0.48,1.488-1.44,1.488H94.367c-0.448,0-0.76,0.12-0.936,0.36
		c-0.176,0.239-0.264,0.712-0.264,1.416c0,1.535,0.336,2.936,1.008,4.199c0.672,1.265,1.567,2.272,2.688,3.024
		c1.12,0.752,2.352,1.128,3.696,1.128c0.96,0,1.832-0.184,2.616-0.552c0.784-0.368,1.479-0.904,2.088-1.608
		c0.127-0.159,0.224-0.264,0.288-0.312c0.064-0.048,0.144-0.072,0.24-0.072c0.255,0,0.384,0.16,0.384,0.479
		c0,0.608-0.288,1.28-0.864,2.017c-0.48,0.608-1.056,1.136-1.728,1.584c-0.672,0.448-1.409,0.792-2.208,1.032
		C100.575,265.694,99.743,265.814,98.879,265.814z M94.463,251.27h4.368c0.768,0,1.424-0.016,1.968-0.048
		c0.544-0.031,1.072-0.096,1.584-0.192c0.16-0.031,0.264-0.136,0.312-0.312s0.072-0.424,0.072-0.744c0-0.928-0.408-1.72-1.224-2.376
		c-0.816-0.655-1.785-0.984-2.904-0.984c-0.736,0-1.472,0.217-2.208,0.648c-0.736,0.432-1.344,0.969-1.824,1.608
		s-0.72,1.28-0.72,1.92C93.887,251.111,94.079,251.27,94.463,251.27z"/>
	<path fill="#0D4482" d="M114.287,265.766c-0.992,0-1.92-0.152-2.784-0.456c-0.864-0.304-1.601-0.728-2.208-1.271
		c-0.161-0.353-0.28-0.943-0.36-1.776c-0.08-0.832-0.137-1.52-0.168-2.064c0-0.287,0.208-0.432,0.624-0.432
		c0.127,0,0.248,0.024,0.36,0.072c0.112,0.048,0.184,0.137,0.216,0.264c0.416,1.568,1.08,2.688,1.992,3.36s1.832,1.008,2.76,1.008
		c0.928,0,1.72-0.312,2.376-0.936c0.655-0.624,0.984-1.4,0.984-2.328c0-0.864-0.288-1.608-0.864-2.232
		c-0.576-0.624-1.584-1.384-3.024-2.28c-1.088-0.672-1.968-1.312-2.64-1.92c-0.672-0.607-1.16-1.231-1.464-1.872
		c-0.304-0.64-0.456-1.359-0.456-2.159c0-1.024,0.24-1.952,0.72-2.784s1.2-1.496,2.16-1.992c0.96-0.496,2.16-0.744,3.6-0.744
		c0.96,0,1.76,0.096,2.4,0.288c0.64,0.192,1.12,0.4,1.44,0.624c0.255,0.353,0.472,0.904,0.648,1.656
		c0.175,0.752,0.264,1.464,0.264,2.136c0,0.225-0.16,0.336-0.48,0.336c-0.192,0-0.376-0.04-0.552-0.12
		c-0.176-0.079-0.296-0.184-0.36-0.312c-0.417-1.057-0.936-1.864-1.56-2.425c-0.624-0.559-1.4-0.84-2.328-0.84
		c-0.8,0-1.512,0.24-2.136,0.721c-0.624,0.479-0.936,1.184-0.936,2.111c0,0.736,0.231,1.393,0.696,1.969
		c0.463,0.575,1.336,1.231,2.616,1.968c1.855,1.056,3.24,2.04,4.152,2.952c0.912,0.911,1.368,2.12,1.368,3.624
		c0,1.728-0.656,3.136-1.968,4.224C118.062,265.222,116.366,265.766,114.287,265.766z"/>
	<path fill="#0D4482" d="M129.791,265.766c-0.992,0-1.92-0.152-2.784-0.456c-0.864-0.304-1.601-0.728-2.208-1.271
		c-0.161-0.353-0.28-0.943-0.36-1.776c-0.08-0.832-0.137-1.52-0.168-2.064c0-0.287,0.208-0.432,0.624-0.432
		c0.127,0,0.248,0.024,0.36,0.072c0.112,0.048,0.184,0.137,0.216,0.264c0.416,1.568,1.08,2.688,1.992,3.36s1.832,1.008,2.76,1.008
		c0.928,0,1.72-0.312,2.376-0.936c0.655-0.624,0.984-1.4,0.984-2.328c0-0.864-0.288-1.608-0.864-2.232
		c-0.576-0.624-1.584-1.384-3.024-2.28c-1.088-0.672-1.968-1.312-2.64-1.92c-0.672-0.607-1.16-1.231-1.464-1.872
		c-0.304-0.64-0.456-1.359-0.456-2.159c0-1.024,0.24-1.952,0.72-2.784s1.2-1.496,2.16-1.992c0.96-0.496,2.16-0.744,3.6-0.744
		c0.96,0,1.76,0.096,2.4,0.288c0.64,0.192,1.12,0.4,1.44,0.624c0.255,0.353,0.472,0.904,0.648,1.656
		c0.175,0.752,0.264,1.464,0.264,2.136c0,0.225-0.16,0.336-0.48,0.336c-0.192,0-0.376-0.04-0.552-0.12
		c-0.176-0.079-0.296-0.184-0.36-0.312c-0.417-1.057-0.936-1.864-1.56-2.425c-0.624-0.559-1.4-0.84-2.328-0.84
		c-0.8,0-1.512,0.24-2.136,0.721c-0.624,0.479-0.936,1.184-0.936,2.111c0,0.736,0.231,1.393,0.696,1.969
		c0.463,0.575,1.336,1.231,2.616,1.968c1.855,1.056,3.24,2.04,4.152,2.952c0.912,0.911,1.368,2.12,1.368,3.624
		c0,1.728-0.656,3.136-1.968,4.224C133.566,265.222,131.87,265.766,129.791,265.766z"/>
	<path fill="#0D4482" d="M140.494,265.238c-0.288,0-0.521-0.04-0.696-0.119c-0.176-0.08-0.264-0.217-0.264-0.408
		c0-0.256,0.12-0.433,0.36-0.528c0.24-0.096,0.487-0.176,0.744-0.24c0.672-0.159,1.184-0.359,1.536-0.6
		c0.352-0.24,0.528-0.648,0.528-1.224v-10.416c0-0.864-0.152-1.633-0.456-2.305s-0.872-1.071-1.704-1.2
		c-0.161-0.031-0.281-0.096-0.36-0.191c-0.08-0.096-0.12-0.24-0.12-0.432c0-0.353,0.144-0.544,0.432-0.576
		c1.28-0.288,2.335-0.68,3.168-1.177c0.832-0.495,1.456-0.903,1.872-1.224c0.289-0.224,0.511-0.336,0.672-0.336
		c0.191,0,0.288,0.08,0.288,0.24c0,0.256-0.041,0.761-0.12,1.512c-0.08,0.752-0.152,1.584-0.216,2.496
		c-0.064,0.912-0.097,1.736-0.097,2.472v11.137c0,0.544,0.184,0.943,0.553,1.199c0.367,0.257,0.871,0.465,1.512,0.624
		c0.256,0.064,0.504,0.145,0.744,0.24c0.239,0.096,0.359,0.272,0.359,0.528c0,0.353-0.32,0.527-0.96,0.527
		c-0.608,0-1.097-0.023-1.464-0.071c-0.368-0.048-0.72-0.088-1.056-0.12c-0.336-0.031-0.792-0.048-1.368-0.048
		c-0.544,0-0.992,0.017-1.344,0.048c-0.352,0.032-0.704,0.072-1.056,0.12C141.63,265.215,141.135,265.238,140.494,265.238z
		 M144.335,240.327c-0.672,0-1.241-0.232-1.704-0.696c-0.464-0.464-0.696-1.032-0.696-1.704c0-0.703,0.232-1.288,0.696-1.752
		c0.463-0.464,1.032-0.696,1.704-0.696c0.703,0,1.288,0.232,1.752,0.696c0.464,0.464,0.696,1.049,0.696,1.752
		c0,0.672-0.232,1.24-0.696,1.704C145.622,240.094,145.038,240.327,144.335,240.327z"/>
	<path fill="#0D4482" d="M161.375,265.766c-1.793,0-3.408-0.416-4.849-1.248c-1.439-0.832-2.584-1.976-3.432-3.432
		c-0.849-1.456-1.272-3.112-1.272-4.968c0-1.345,0.265-2.656,0.792-3.937c0.528-1.279,1.272-2.448,2.232-3.504s2.08-1.896,3.36-2.52
		c1.279-0.624,2.655-0.937,4.128-0.937c1.855,0,3.527,0.448,5.016,1.344c1.488,0.896,2.672,2.072,3.552,3.528s1.32,3.048,1.32,4.776
		c0,1.855-0.408,3.616-1.224,5.279c-0.816,1.665-2.024,3.017-3.624,4.057C165.774,265.246,163.774,265.766,161.375,265.766z
		 M162.383,264.327c1.087,0,2.063-0.208,2.928-0.624s1.536-1.088,2.016-2.017c0.385-0.735,0.641-1.632,0.769-2.688
		c0.127-1.057,0.191-2.048,0.191-2.977c0-1.536-0.28-3.016-0.84-4.439s-1.344-2.592-2.352-3.504s-2.2-1.368-3.576-1.368
		c-0.864,0-1.641,0.137-2.328,0.408c-0.688,0.271-1.32,0.775-1.896,1.512c-0.641,0.8-1.057,1.775-1.248,2.928
		c-0.192,1.152-0.288,2.304-0.288,3.456c0,1.568,0.288,3.064,0.864,4.488c0.575,1.424,1.359,2.584,2.352,3.479
		C159.966,263.879,161.102,264.327,162.383,264.327z"/>
	<path fill="#0D4482" d="M176.014,265.238c-0.288,0-0.521-0.04-0.696-0.119c-0.176-0.08-0.264-0.217-0.264-0.408
		c0-0.256,0.096-0.424,0.288-0.504c0.191-0.08,0.463-0.168,0.815-0.265c0.48-0.127,0.943-0.304,1.393-0.527
		c0.447-0.224,0.672-0.656,0.672-1.296v-10.32c0-0.864-0.089-1.6-0.265-2.208c-0.176-0.607-0.68-1.023-1.512-1.248
		c-0.128-0.063-0.24-0.136-0.336-0.216s-0.144-0.216-0.144-0.408c0-0.352,0.144-0.544,0.432-0.576
		c1.12-0.288,2.031-0.64,2.736-1.056c0.703-0.416,1.392-0.88,2.063-1.393c0.096-0.063,0.184-0.119,0.264-0.168
		c0.08-0.048,0.168-0.071,0.265-0.071c0.063,0,0.12,0.032,0.168,0.096c0.048,0.064,0.072,0.144,0.072,0.24
		c0,0.224-0.041,0.68-0.12,1.368c-0.081,0.688-0.12,1.256-0.12,1.703c0,0.129,0.007,0.249,0.023,0.36
		c0.016,0.112,0.04,0.185,0.072,0.216c1.12-1.056,2.312-1.855,3.576-2.399c1.264-0.544,2.647-0.816,4.152-0.816
		c1.567,0,2.863,0.641,3.888,1.92c1.023,1.28,1.536,2.864,1.536,4.752v10.225c0,0.64,0.224,1.063,0.672,1.271
		c0.447,0.209,0.912,0.393,1.392,0.552c0.256,0.097,0.504,0.2,0.744,0.313s0.36,0.296,0.36,0.552c0,0.192-0.112,0.313-0.336,0.36
		c-0.225,0.048-0.433,0.071-0.624,0.071c-0.641,0-1.137-0.023-1.488-0.071c-0.353-0.048-0.688-0.088-1.008-0.12
		c-0.32-0.031-0.769-0.048-1.344-0.048c-0.545,0-0.993,0.017-1.345,0.048c-0.353,0.032-0.712,0.072-1.08,0.12
		s-0.872,0.071-1.512,0.071c-0.16,0-0.36-0.023-0.6-0.071c-0.24-0.048-0.36-0.168-0.36-0.36c0-0.256,0.12-0.439,0.36-0.552
		c0.239-0.112,0.487-0.216,0.744-0.313c0.479-0.159,0.943-0.343,1.392-0.552c0.447-0.208,0.672-0.632,0.672-1.271v-10.08
		c0-1.408-0.393-2.504-1.176-3.288c-0.784-0.784-1.832-1.192-3.145-1.225c-1.151,0-2.159,0.185-3.023,0.553
		s-1.632,0.824-2.304,1.367c-0.129,0.129-0.225,0.297-0.288,0.505c-0.064,0.208-0.097,0.407-0.097,0.6v11.568
		c0,0.64,0.224,1.072,0.672,1.296s0.912,0.4,1.393,0.527c0.735,0.192,1.104,0.449,1.104,0.769c0,0.191-0.08,0.328-0.239,0.408
		c-0.161,0.079-0.401,0.119-0.721,0.119c-0.641,0-1.145-0.023-1.512-0.071c-0.368-0.048-0.713-0.088-1.032-0.12
		c-0.32-0.031-0.768-0.048-1.344-0.048c-0.545,0-0.984,0.017-1.32,0.048c-0.336,0.032-0.688,0.072-1.056,0.12
		C177.158,265.215,176.654,265.238,176.014,265.238z"/>
</g>
</svg>
