<?xml version="1.0" encoding="utf-8"?>
<!-- Generator: Adobe Illustrator 14.0.0, SVG Export Plug-In . SVG Version: 6.00 Build 43363)  -->
<!DOCTYPE svg PUBLIC "-//W3C//DTD SVG 1.1//EN" "http://www.w3.org/Graphics/SVG/1.1/DTD/svg11.dtd">
<svg version="1.1" id="レイヤー_2" xmlns="http://www.w3.org/2000/svg" xmlns:xlink="http://www.w3.org/1999/xlink" x="0px"
	 y="0px" width="355.87px" height="250.944px" viewBox="-16.549 -224.269 355.87 250.944"
	 enable-background="new -16.549 -224.269 355.87 250.944" xml:space="preserve">
<g>
	<path fill="#0D4482" d="M-7.429-190.189c-0.416,0-0.752-0.041-1.008-0.12c-0.257-0.081-0.384-0.216-0.384-0.408
		c0-0.224,0.127-0.4,0.384-0.528c0.255-0.127,0.655-0.24,1.2-0.336c1.216-0.224,2.144-0.616,2.784-1.176
		c0.64-0.56,0.96-1.416,0.96-2.568v-18.624c0-1.472-0.032-2.6-0.096-3.384c-0.064-0.784-0.168-1.336-0.312-1.656
		c-0.144-0.319-0.344-0.496-0.6-0.528c-0.449-0.096-0.92-0.151-1.416-0.168c-0.497-0.016-1.161-0.024-1.992-0.024h-2.256
		c-0.768,0-1.529,0.152-2.28,0.456c-0.752,0.305-1.304,0.776-1.656,1.416c-0.096,0.161-0.257,0.393-0.48,0.696
		c-0.225,0.304-0.464,0.568-0.72,0.792c-0.256,0.224-0.512,0.336-0.768,0.336c-0.128,0-0.216-0.064-0.264-0.192
		c-0.048-0.127-0.072-0.271-0.072-0.432c0-0.319,0.08-0.64,0.24-0.96c0.448-0.928,0.775-1.752,0.984-2.472
		c0.208-0.72,0.375-1.576,0.504-2.568c0.064-0.544,0.184-0.864,0.36-0.96c0.176-0.096,0.328-0.144,0.456-0.144
		c0.127,0,0.328,0.192,0.6,0.576c0.271,0.384,0.472,0.704,0.6,0.96c0.192,0.32,0.631,0.56,1.32,0.72
		c0.688,0.161,1.368,0.24,2.04,0.24H7.595c1.12,0,2.032-0.064,2.736-0.192c0.703-0.128,1.312-0.304,1.824-0.528
		c0.384-0.192,0.696-0.399,0.936-0.624c0.24-0.223,0.552-0.336,0.936-0.336c0.096,0,0.175,0.12,0.24,0.36
		c0.064,0.24,0.096,0.488,0.096,0.744c0,0.161-0.024,0.384-0.072,0.672c-0.048,0.288-0.089,0.513-0.12,0.672
		c-0.096,0.576-0.185,0.992-0.264,1.248c-0.08,0.256-0.136,0.48-0.168,0.672c-0.032,0.192-0.048,0.497-0.048,0.912v0.576
		c0,0.288-0.064,0.617-0.192,0.984c-0.128,0.368-0.32,0.552-0.576,0.552c-0.224,0-0.4-0.175-0.528-0.528
		c-0.128-0.352-0.257-0.832-0.384-1.44c-0.128-0.672-0.512-1.208-1.152-1.608c-0.641-0.399-1.728-0.6-3.264-0.6H2.747
		c-0.705,0-1.232,0.096-1.584,0.288c-0.352,0.192-0.576,0.672-0.672,1.44c-0.096,0.768-0.144,2.032-0.144,3.792v18.864
		c0,1.152,0.336,2.008,1.008,2.568c0.672,0.561,1.6,0.953,2.784,1.176c0.544,0.096,0.944,0.208,1.2,0.336
		c0.256,0.128,0.384,0.304,0.384,0.528c0,0.192-0.128,0.328-0.384,0.408c-0.256,0.08-0.593,0.12-1.008,0.12
		c-0.864,0-1.577-0.024-2.136-0.072c-0.56-0.048-1.097-0.088-1.608-0.12c-0.512-0.032-1.136-0.048-1.872-0.048
		c-0.8,0-1.496,0.016-2.088,0.048c-0.593,0.032-1.2,0.072-1.824,0.12S-6.565-190.189-7.429-190.189z"/>
	<path fill="#0D4482" d="M20.651-189.757c-1.792,0-3.408-0.416-4.848-1.248c-1.44-0.832-2.584-1.975-3.432-3.432
		c-0.849-1.456-1.272-3.112-1.272-4.968c0-1.344,0.264-2.656,0.792-3.936c0.528-1.279,1.272-2.448,2.232-3.504s2.08-1.896,3.36-2.52
		c1.279-0.624,2.656-0.936,4.128-0.936c1.855,0,3.528,0.449,5.016,1.344c1.488,0.896,2.671,2.072,3.552,3.528
		c0.88,1.457,1.32,3.048,1.32,4.776c0,1.856-0.408,3.617-1.224,5.28c-0.816,1.664-2.024,3.016-3.624,4.056
		C25.051-190.278,23.051-189.757,20.651-189.757z M21.659-191.197c1.087,0,2.064-0.208,2.928-0.624
		c0.864-0.416,1.536-1.087,2.016-2.016c0.384-0.735,0.64-1.632,0.768-2.688c0.127-1.056,0.192-2.047,0.192-2.976
		c0-1.536-0.281-3.016-0.84-4.44c-0.561-1.423-1.344-2.592-2.352-3.504c-1.008-0.912-2.201-1.368-3.576-1.368
		c-0.864,0-1.64,0.136-2.328,0.408c-0.688,0.272-1.32,0.776-1.896,1.512c-0.64,0.8-1.056,1.776-1.248,2.928
		c-0.192,1.152-0.288,2.304-0.288,3.456c0,1.568,0.288,3.064,0.864,4.488s1.36,2.584,2.352,3.48
		C19.243-191.645,20.379-191.197,21.659-191.197z"/>
	<path fill="#0D4482" d="M44.651-190.285c-0.161,0-0.36-0.024-0.6-0.072c-0.24-0.048-0.36-0.168-0.36-0.36
		c0-0.256,0.12-0.439,0.36-0.552c0.24-0.112,0.487-0.216,0.744-0.312c0.48-0.16,0.943-0.344,1.392-0.552
		c0.448-0.208,0.672-0.631,0.672-1.272v-24.192c0-0.928-0.168-1.704-0.504-2.328s-0.905-1.016-1.704-1.176
		c-0.256-0.064-0.384-0.271-0.384-0.624c0-0.32,0.112-0.512,0.336-0.576c0.832-0.192,1.552-0.392,2.16-0.6
		c0.607-0.208,1.176-0.423,1.704-0.648c0.528-0.223,1.048-0.432,1.56-0.624c0.127-0.063,0.224-0.096,0.288-0.096
		c0.063,0,0.12,0.041,0.168,0.12c0.048,0.081,0.072,0.152,0.072,0.216c0,0.288-0.056,0.904-0.168,1.848
		c-0.112,0.944-0.168,2.504-0.168,4.68v24c0,0.641,0.224,1.064,0.672,1.272c0.448,0.208,0.912,0.393,1.392,0.552
		c0.256,0.096,0.504,0.2,0.744,0.312c0.24,0.112,0.36,0.296,0.36,0.552c0,0.192-0.12,0.312-0.36,0.36
		c-0.24,0.048-0.44,0.072-0.6,0.072c-0.608,0-1.097-0.024-1.464-0.072c-0.368-0.048-0.72-0.087-1.056-0.12
		c-0.336-0.032-0.792-0.048-1.368-0.048c-0.544,0-0.992,0.017-1.344,0.048c-0.353,0.032-0.704,0.072-1.056,0.12
		C45.786-190.309,45.29-190.285,44.651-190.285z"/>
	<path fill="#0D4482" d="M56.41-190.285c-0.288,0-0.521-0.041-0.696-0.12c-0.176-0.08-0.264-0.216-0.264-0.408
		c0-0.256,0.12-0.432,0.36-0.528c0.24-0.096,0.487-0.175,0.744-0.24c0.672-0.16,1.184-0.36,1.536-0.6
		c0.352-0.24,0.528-0.648,0.528-1.224v-10.416c0-0.864-0.152-1.632-0.456-2.304c-0.304-0.672-0.872-1.072-1.704-1.2
		c-0.161-0.032-0.281-0.096-0.36-0.192c-0.08-0.096-0.12-0.24-0.12-0.432c0-0.352,0.144-0.544,0.432-0.576
		c1.28-0.288,2.335-0.679,3.168-1.176c0.832-0.496,1.456-0.904,1.872-1.224c0.288-0.224,0.512-0.336,0.672-0.336
		c0.192,0,0.288,0.08,0.288,0.24c0,0.256-0.041,0.76-0.12,1.512c-0.081,0.752-0.152,1.584-0.216,2.496
		c-0.064,0.912-0.096,1.736-0.096,2.472v11.136c0,0.544,0.184,0.944,0.552,1.2c0.368,0.256,0.872,0.464,1.512,0.624
		c0.255,0.064,0.504,0.144,0.744,0.24c0.24,0.096,0.36,0.272,0.36,0.528c0,0.352-0.32,0.528-0.96,0.528
		c-0.608,0-1.097-0.024-1.464-0.072c-0.368-0.048-0.72-0.087-1.056-0.12c-0.336-0.032-0.792-0.048-1.368-0.048
		c-0.544,0-0.992,0.017-1.344,0.048c-0.352,0.032-0.704,0.072-1.056,0.12C57.546-190.309,57.05-190.285,56.41-190.285z
		 M60.25-215.197c-0.672,0-1.241-0.231-1.704-0.696c-0.464-0.464-0.696-1.032-0.696-1.704c0-0.704,0.232-1.288,0.696-1.752
		c0.463-0.463,1.032-0.696,1.704-0.696c0.703,0,1.288,0.233,1.752,0.696c0.463,0.464,0.696,1.048,0.696,1.752
		c0,0.672-0.232,1.24-0.696,1.704C61.538-215.428,60.953-215.197,60.25-215.197z"/>
	<path fill="#0D4482" d="M76.33-189.421c-0.128,0-0.288-0.248-0.48-0.744c-0.192-0.496-0.32-0.856-0.384-1.08
		c-0.225-0.544-0.432-1.112-0.624-1.704c-0.192-0.592-0.384-1.144-0.576-1.656c-0.704-1.984-1.464-3.928-2.28-5.832
		c-0.816-1.904-1.608-3.832-2.376-5.784c-0.224-0.576-0.568-1.096-1.032-1.56c-0.464-0.463-0.936-0.76-1.416-0.888
		c-0.256-0.096-0.464-0.192-0.624-0.288c-0.161-0.096-0.24-0.256-0.24-0.48c0-0.192,0.12-0.312,0.36-0.36
		c0.24-0.048,0.439-0.072,0.6-0.072c0.64,0,1.104,0.017,1.392,0.048c0.288,0.032,0.576,0.072,0.864,0.12s0.704,0.072,1.248,0.072
		c0.576,0,1.008-0.024,1.296-0.072s0.592-0.088,0.912-0.12c0.319-0.031,0.784-0.048,1.392-0.048c0.16,0,0.36,0.024,0.6,0.072
		c0.24,0.048,0.36,0.168,0.36,0.36c0,0.224-0.113,0.4-0.336,0.528c-0.225,0.128-0.48,0.24-0.768,0.336
		c-0.32,0.128-0.561,0.376-0.72,0.744c-0.161,0.368-0.24,0.776-0.24,1.224c0,0.224,0.016,0.448,0.048,0.672
		c0.031,0.224,0.08,0.432,0.144,0.624l3.792,10.08c0.031,0.032,0.055,0.048,0.072,0.048c0.016,0,0.04-0.016,0.072-0.048l3.648-9.36
		c0.127-0.319,0.224-0.664,0.288-1.032c0.063-0.368,0.096-0.68,0.096-0.936c0-0.64-0.096-1.096-0.288-1.368
		c-0.192-0.271-0.512-0.487-0.96-0.648c-0.416-0.16-0.704-0.288-0.864-0.384c-0.161-0.096-0.24-0.256-0.24-0.48
		c0-0.192,0.104-0.312,0.312-0.36c0.208-0.048,0.424-0.072,0.648-0.072c0.352,0,0.816,0.041,1.392,0.12
		c0.576,0.08,1.28,0.12,2.112,0.12c0.832,0,1.399-0.04,1.704-0.12c0.304-0.08,0.68-0.12,1.128-0.12c0.255,0,0.48,0.024,0.672,0.072
		c0.192,0.048,0.288,0.168,0.288,0.36c0,0.353-0.369,0.64-1.104,0.864c-0.48,0.128-1.008,0.497-1.584,1.104
		c-0.576,0.608-1.041,1.313-1.392,2.112l-3.744,9.024c-0.064,0.128-0.192,0.44-0.384,0.936c-0.192,0.496-0.401,1.04-0.624,1.632
		c-0.225,0.592-0.497,1.32-0.816,2.184c-0.257,0.608-0.464,1.08-0.624,1.416c-0.161,0.336-0.305,0.583-0.432,0.744H76.33z"/>
	<path fill="#0D4482" d="M96.106-189.709c-1.76,0-3.296-0.432-4.608-1.296c-1.313-0.864-2.336-2.088-3.072-3.672
		c-0.736-1.584-1.104-3.416-1.104-5.496c0-1.855,0.424-3.543,1.272-5.064c0.848-1.52,1.976-2.743,3.384-3.672
		c1.408-0.928,2.943-1.392,4.608-1.392c1.279,0,2.416,0.256,3.408,0.768c0.992,0.512,1.768,1.224,2.328,2.136
		c0.56,0.912,0.84,1.96,0.84,3.144c0,0.993-0.48,1.488-1.44,1.488H91.594c-0.448,0-0.76,0.12-0.936,0.36
		c-0.176,0.24-0.264,0.712-0.264,1.416c0,1.536,0.336,2.937,1.008,4.2c0.672,1.264,1.567,2.272,2.688,3.024
		c1.12,0.752,2.352,1.128,3.696,1.128c0.96,0,1.832-0.184,2.616-0.552c0.784-0.368,1.479-0.904,2.088-1.608
		c0.127-0.16,0.224-0.264,0.288-0.312c0.064-0.048,0.144-0.072,0.24-0.072c0.255,0,0.384,0.161,0.384,0.48
		c0,0.608-0.288,1.28-0.864,2.016c-0.48,0.608-1.056,1.136-1.728,1.584c-0.672,0.448-1.409,0.792-2.208,1.032
		C97.802-189.829,96.97-189.709,96.106-189.709z M91.69-204.253h4.368c0.768,0,1.424-0.016,1.968-0.048
		c0.544-0.031,1.072-0.096,1.584-0.192c0.16-0.032,0.264-0.136,0.312-0.312c0.048-0.175,0.072-0.424,0.072-0.744
		c0-0.928-0.408-1.72-1.224-2.376c-0.816-0.655-1.785-0.984-2.904-0.984c-0.736,0-1.472,0.216-2.208,0.648
		c-0.736,0.432-1.344,0.968-1.824,1.608c-0.48,0.641-0.72,1.28-0.72,1.92C91.114-204.413,91.306-204.253,91.69-204.253z"/>
	<path fill="#0D4482" d="M119.818-189.757c-0.576,0-1.161-0.224-1.752-0.672c-0.592-0.448-1.088-0.992-1.488-1.632
		c-0.4-0.64-0.6-1.248-0.6-1.824c0-1.024,0.271-1.824,0.816-2.4c0.544-0.576,1.408-1.104,2.592-1.584l4.896-2.016
		c0.64-0.256,1.016-0.48,1.128-0.672c0.112-0.192,0.184-0.607,0.216-1.248l0.096-3.072c0.031-0.832-0.2-1.551-0.696-2.16
		c-0.497-0.607-1.208-0.912-2.136-0.912c-0.48,0-0.96,0.08-1.44,0.24s-0.88,0.368-1.2,0.624c-0.192,0.128-0.32,0.32-0.384,0.576
		c-0.064,0.256-0.096,0.528-0.096,0.816c0,0.128,0.008,0.272,0.024,0.432c0.016,0.161,0.024,0.305,0.024,0.432
		c0,0.161-0.201,0.376-0.6,0.648c-0.4,0.272-0.848,0.512-1.344,0.72c-0.497,0.208-0.904,0.312-1.224,0.312
		c-0.161,0-0.288-0.04-0.384-0.12c-0.096-0.08-0.144-0.184-0.144-0.312c0-0.512,0.168-1.063,0.504-1.656
		c0.336-0.592,0.808-1.144,1.416-1.656c0.736-0.672,1.536-1.264,2.4-1.776c0.864-0.511,1.711-0.912,2.544-1.2
		c0.832-0.288,1.567-0.432,2.208-0.432c1.152,0,2.104,0.408,2.856,1.224c0.751,0.816,1.111,1.832,1.08,3.048l-0.24,11.52
		c-0.032,0.672,0.12,1.217,0.456,1.632c0.336,0.417,0.76,0.624,1.272,0.624c0.799,0,1.392-0.175,1.776-0.528
		c0.16-0.16,0.288-0.24,0.384-0.24c0.16,0,0.288,0.048,0.384,0.144c0.096,0.096,0.144,0.225,0.144,0.384
		c0,0.353-0.176,0.704-0.528,1.056c-0.512,0.512-1.064,0.92-1.656,1.224c-0.592,0.304-1.145,0.456-1.656,0.456
		c-1.472,0-2.64-0.832-3.504-2.496h-0.144c-1.056,0.864-2.064,1.497-3.024,1.896C121.833-189.957,120.841-189.757,119.818-189.757z
		 M122.073-192.061c0.64,0,1.184-0.104,1.632-0.312c0.448-0.208,0.848-0.488,1.2-0.84c0.16-0.16,0.295-0.375,0.408-0.648
		c0.112-0.271,0.184-0.711,0.216-1.32l0.096-2.352c0.032-0.352,0.016-0.607-0.048-0.768c-0.064-0.16-0.192-0.24-0.384-0.24
		c-0.064,0-0.176,0.016-0.336,0.048c-0.16,0.032-0.368,0.096-0.624,0.192c-1.697,0.608-2.873,1.241-3.528,1.896
		c-0.656,0.656-0.984,1.256-0.984,1.8c0,0.833,0.248,1.464,0.744,1.896C120.961-192.277,121.497-192.061,122.073-192.061z"/>
	<path fill="#0D4482" d="M143.577-189.709c-1.601,0-3.048-0.408-4.344-1.224s-2.32-1.936-3.072-3.36
		c-0.752-1.424-1.128-3.016-1.128-4.776c0-2.08,0.456-3.967,1.368-5.664c0.912-1.695,2.136-3.048,3.672-4.056
		c1.536-1.008,3.231-1.512,5.088-1.512c2.08,0,3.904,0.561,5.472,1.68c0.384,0.288,0.576,0.592,0.576,0.912
		c0,0.256-0.112,0.544-0.336,0.864c-0.224,0.32-0.497,0.584-0.816,0.792c-0.32,0.208-0.624,0.312-0.912,0.312
		c-0.161,0-0.32-0.056-0.48-0.168c-0.161-0.112-0.336-0.232-0.528-0.36c-0.705-0.544-1.488-1.056-2.352-1.536
		c-0.864-0.48-1.584-0.72-2.16-0.72c-1.568,0-2.84,0.729-3.816,2.184c-0.977,1.457-1.464,3.368-1.464,5.736
		c0,1.504,0.328,2.864,0.984,4.08c0.655,1.217,1.536,2.177,2.64,2.88c1.104,0.704,2.328,1.056,3.672,1.056
		c0.928,0,1.728-0.151,2.4-0.456c0.672-0.304,1.392-0.84,2.16-1.608c0.063-0.063,0.144-0.12,0.24-0.168
		c0.096-0.048,0.176-0.072,0.24-0.072c0.352,0,0.528,0.224,0.528,0.672c0,0.192-0.056,0.408-0.168,0.648
		c-0.112,0.24-0.296,0.521-0.552,0.84c-0.513,0.641-1.121,1.193-1.824,1.656c-0.704,0.464-1.48,0.808-2.328,1.032
		C145.489-189.822,144.568-189.709,143.577-189.709z"/>
	<path fill="#0D4482" d="M162.153-189.709c-1.601,0-3.048-0.408-4.344-1.224s-2.32-1.936-3.072-3.36
		c-0.752-1.424-1.128-3.016-1.128-4.776c0-2.08,0.456-3.967,1.368-5.664c0.912-1.695,2.136-3.048,3.672-4.056
		c1.536-1.008,3.232-1.512,5.088-1.512c2.08,0,3.904,0.561,5.473,1.68c0.384,0.288,0.576,0.592,0.576,0.912
		c0,0.256-0.113,0.544-0.337,0.864c-0.224,0.32-0.496,0.584-0.815,0.792c-0.32,0.208-0.624,0.312-0.912,0.312
		c-0.16,0-0.32-0.056-0.48-0.168c-0.16-0.112-0.336-0.232-0.527-0.36c-0.704-0.544-1.488-1.056-2.353-1.536
		c-0.863-0.48-1.584-0.72-2.159-0.72c-1.568,0-2.841,0.729-3.816,2.184c-0.977,1.457-1.464,3.368-1.464,5.736
		c0,1.504,0.327,2.864,0.983,4.08c0.656,1.217,1.536,2.177,2.641,2.88c1.104,0.704,2.328,1.056,3.672,1.056
		c0.928,0,1.728-0.151,2.4-0.456c0.672-0.304,1.392-0.84,2.159-1.608c0.064-0.063,0.145-0.12,0.24-0.168s0.176-0.072,0.24-0.072
		c0.352,0,0.528,0.224,0.528,0.672c0,0.192-0.057,0.408-0.168,0.648c-0.113,0.24-0.297,0.521-0.553,0.84
		c-0.512,0.641-1.12,1.193-1.824,1.656c-0.704,0.464-1.48,0.808-2.327,1.032C164.065-189.822,163.145-189.709,162.153-189.709z"/>
	<path fill="#0D4482" d="M181.739-189.757c-1.793,0-3.408-0.416-4.849-1.248c-1.439-0.832-2.584-1.975-3.432-3.432
		c-0.849-1.456-1.272-3.112-1.272-4.968c0-1.344,0.265-2.656,0.792-3.936c0.528-1.279,1.272-2.448,2.232-3.504s2.08-1.896,3.36-2.52
		c1.279-0.624,2.655-0.936,4.128-0.936c1.855,0,3.527,0.449,5.016,1.344c1.488,0.896,2.672,2.072,3.552,3.528
		c0.88,1.457,1.32,3.048,1.32,4.776c0,1.856-0.408,3.617-1.224,5.28c-0.816,1.664-2.024,3.016-3.624,4.056
		C186.138-190.278,184.138-189.757,181.739-189.757z M182.746-191.197c1.087,0,2.063-0.208,2.928-0.624
		c0.864-0.416,1.536-1.087,2.016-2.016c0.385-0.735,0.641-1.632,0.769-2.688c0.127-1.056,0.191-2.047,0.191-2.976
		c0-1.536-0.28-3.016-0.84-4.44c-0.56-1.423-1.344-2.592-2.352-3.504s-2.2-1.368-3.576-1.368c-0.864,0-1.641,0.136-2.328,0.408
		c-0.688,0.272-1.32,0.776-1.896,1.512c-0.641,0.8-1.057,1.776-1.248,2.928c-0.192,1.152-0.288,2.304-0.288,3.456
		c0,1.568,0.288,3.064,0.864,4.488c0.575,1.424,1.359,2.584,2.352,3.48C180.329-191.645,181.466-191.197,182.746-191.197z"/>
	<path fill="#0D4482" d="M196.617-190.285c-0.319,0-0.56-0.041-0.72-0.12s-0.24-0.216-0.24-0.408c0-0.256,0.097-0.424,0.288-0.504
		c0.192-0.079,0.464-0.168,0.816-0.264c0.607-0.16,1.063-0.392,1.368-0.696c0.304-0.304,0.456-0.679,0.456-1.128v-10.32
		c0-0.864-0.129-1.616-0.385-2.256s-0.784-1.04-1.584-1.2c-0.128-0.032-0.239-0.112-0.336-0.24
		c-0.096-0.127-0.144-0.255-0.144-0.384c0-0.319,0.144-0.512,0.432-0.576c0.832-0.255,1.704-0.631,2.616-1.128
		c0.912-0.496,1.624-0.904,2.136-1.224c0.192-0.127,0.344-0.216,0.456-0.264c0.112-0.048,0.2-0.072,0.265-0.072
		c0.159,0,0.239,0.113,0.239,0.336c0,0.096-0.008,0.336-0.023,0.72c-0.017,0.384-0.032,0.833-0.048,1.344
		c-0.017,0.513-0.041,1.025-0.072,1.536c0,0.064,0.031,0.096,0.096,0.096c0.512-0.64,1.08-1.2,1.704-1.68s1.264-0.864,1.92-1.152
		c0.655-0.288,1.288-0.432,1.896-0.432c0.672,0,1.224,0.144,1.655,0.432c0.433,0.288,0.648,0.656,0.648,1.104
		c0,0.32-0.089,0.672-0.264,1.056c-0.177,0.384-0.408,0.72-0.696,1.008s-0.593,0.432-0.912,0.432c-0.192,0-0.4-0.04-0.624-0.12
		c-0.225-0.08-0.464-0.184-0.72-0.312c-0.257-0.096-0.513-0.192-0.769-0.288c-0.256-0.096-0.512-0.144-0.768-0.144
		c-0.768,0-1.512,0.272-2.232,0.816c-0.72,0.545-1.08,1.616-1.08,3.216v9.696c0,0.417,0.224,0.761,0.673,1.032
		c0.447,0.272,1.071,0.536,1.872,0.792c0.352,0.096,0.624,0.192,0.815,0.288c0.192,0.096,0.288,0.256,0.288,0.48
		c0,0.352-0.32,0.528-0.96,0.528c-0.96,0-1.688-0.041-2.184-0.12c-0.497-0.08-1.161-0.12-1.992-0.12
		c-0.545,0-0.984,0.017-1.32,0.048c-0.336,0.032-0.688,0.072-1.056,0.12C197.762-190.309,197.258-190.285,196.617-190.285z"/>
	<path fill="#0D4482" d="M227.434-189.517c-0.064,0-0.168-0.064-0.312-0.192c-0.145-0.128-0.216-0.225-0.216-0.288
		c0-0.32,0.039-0.775,0.119-1.368c0.08-0.592,0.12-1.096,0.12-1.512v-0.288c-0.479,0.736-1.248,1.488-2.304,2.256
		s-2.384,1.152-3.984,1.152c-1.823,0-3.4-0.48-4.728-1.44c-1.328-0.96-2.352-2.191-3.072-3.696c-0.72-1.504-1.08-3.056-1.08-4.656
		c0-1.855,0.433-3.6,1.296-5.232c0.864-1.632,2.104-2.959,3.721-3.984c1.615-1.024,3.544-1.536,5.784-1.536
		c0.64,0,1.287,0.056,1.943,0.168c0.655,0.113,1.16,0.232,1.512,0.36c0.288,0.096,0.496,0.144,0.624,0.144
		c0.224,0,0.337-0.384,0.337-1.152v-6.816c0-1.312-0.209-2.191-0.624-2.64c-0.417-0.448-1.009-0.736-1.776-0.864
		c-0.288-0.064-0.432-0.271-0.432-0.624c0-0.288,0.127-0.48,0.384-0.576c1.407-0.352,2.512-0.688,3.312-1.008
		c0.8-0.32,1.424-0.576,1.872-0.768c0.128-0.064,0.248-0.104,0.36-0.12c0.111-0.016,0.199-0.024,0.264-0.024
		c0.192,0,0.304,0.096,0.336,0.288c0,0.192-0.023,0.521-0.072,0.984c-0.048,0.464-0.104,1.145-0.168,2.04
		c-0.064,0.896-0.096,2.064-0.096,3.504v21.696c0,1.088,0.08,1.88,0.24,2.376c0.159,0.496,0.415,0.744,0.768,0.744
		c0.16,0,0.439-0.016,0.84-0.048c0.4-0.031,0.809-0.064,1.225-0.096c0.576-0.031,0.864,0.113,0.864,0.432
		c0,0.224-0.072,0.425-0.217,0.6c-0.144,0.176-0.296,0.264-0.456,0.264c-0.896,0.128-1.775,0.312-2.64,0.552
		c-0.864,0.24-1.856,0.6-2.976,1.08c-0.257,0.127-0.425,0.208-0.504,0.24C227.617-189.533,227.531-189.517,227.434-189.517z
		 M222.586-192.253c0.832,0,1.647-0.216,2.448-0.648c0.799-0.432,1.504-1,2.111-1.704l0.049-8.64c0-0.864-0.249-1.711-0.744-2.544
		c-0.497-0.832-1.185-1.512-2.064-2.04c-0.881-0.528-1.912-0.792-3.096-0.792c-0.736,0-1.568,0.224-2.496,0.672
		c-0.929,0.449-1.729,1.241-2.4,2.376c-0.672,1.136-1.008,2.776-1.008,4.92c0,1.824,0.271,3.288,0.816,4.392
		c0.543,1.104,1.207,1.944,1.992,2.52c0.783,0.576,1.584,0.968,2.399,1.176C221.41-192.357,222.073-192.253,222.586-192.253z"/>
	<path fill="#0D4482" d="M236.698-190.285c-0.288,0-0.521-0.041-0.696-0.12s-0.264-0.216-0.264-0.408
		c0-0.256,0.12-0.432,0.359-0.528c0.24-0.096,0.487-0.175,0.744-0.24c0.672-0.16,1.184-0.36,1.536-0.6
		c0.352-0.24,0.528-0.648,0.528-1.224v-10.416c0-0.864-0.152-1.632-0.456-2.304c-0.305-0.672-0.872-1.072-1.704-1.2
		c-0.161-0.032-0.28-0.096-0.36-0.192c-0.08-0.096-0.12-0.24-0.12-0.432c0-0.352,0.145-0.544,0.433-0.576
		c1.279-0.288,2.335-0.679,3.168-1.176c0.831-0.496,1.455-0.904,1.872-1.224c0.288-0.224,0.511-0.336,0.672-0.336
		c0.191,0,0.288,0.08,0.288,0.24c0,0.256-0.041,0.76-0.12,1.512c-0.08,0.752-0.152,1.584-0.216,2.496
		c-0.064,0.912-0.097,1.736-0.097,2.472v11.136c0,0.544,0.184,0.944,0.553,1.2c0.367,0.256,0.871,0.464,1.512,0.624
		c0.256,0.064,0.504,0.144,0.744,0.24c0.239,0.096,0.359,0.272,0.359,0.528c0,0.352-0.32,0.528-0.96,0.528
		c-0.608,0-1.097-0.024-1.464-0.072c-0.368-0.048-0.72-0.087-1.056-0.12c-0.336-0.032-0.792-0.048-1.368-0.048
		c-0.545,0-0.992,0.017-1.344,0.048c-0.353,0.032-0.704,0.072-1.057,0.12C237.833-190.309,237.338-190.285,236.698-190.285z
		 M240.538-215.197c-0.672,0-1.24-0.231-1.704-0.696c-0.464-0.464-0.696-1.032-0.696-1.704c0-0.704,0.232-1.288,0.696-1.752
		c0.464-0.463,1.032-0.696,1.704-0.696c0.703,0,1.288,0.233,1.752,0.696c0.464,0.464,0.696,1.048,0.696,1.752
		c0,0.672-0.232,1.24-0.696,1.704C241.826-215.428,241.241-215.197,240.538-215.197z"/>
	<path fill="#0D4482" d="M248.458-190.285c-0.288,0-0.521-0.041-0.696-0.12s-0.264-0.216-0.264-0.408
		c0-0.256,0.096-0.424,0.288-0.504c0.191-0.079,0.463-0.168,0.815-0.264c0.48-0.127,0.943-0.304,1.393-0.528
		c0.447-0.223,0.672-0.655,0.672-1.296v-10.32c0-0.864-0.089-1.6-0.265-2.208c-0.176-0.607-0.68-1.024-1.512-1.248
		c-0.128-0.064-0.24-0.136-0.336-0.216c-0.096-0.08-0.144-0.216-0.144-0.408c0-0.352,0.144-0.544,0.432-0.576
		c1.12-0.288,2.031-0.64,2.736-1.056c0.703-0.416,1.392-0.88,2.063-1.392c0.096-0.064,0.184-0.12,0.264-0.168
		c0.08-0.048,0.168-0.072,0.265-0.072c0.063,0,0.12,0.032,0.168,0.096c0.048,0.064,0.072,0.144,0.072,0.24
		c0,0.225-0.041,0.681-0.12,1.368c-0.081,0.688-0.12,1.256-0.12,1.704c0,0.128,0.007,0.248,0.023,0.36
		c0.016,0.113,0.04,0.185,0.072,0.216c1.12-1.056,2.312-1.856,3.576-2.4c1.264-0.543,2.647-0.816,4.152-0.816
		c1.567,0,2.863,0.641,3.888,1.92c1.023,1.28,1.536,2.864,1.536,4.752v10.224c0,0.641,0.224,1.064,0.672,1.272
		c0.447,0.208,0.912,0.393,1.392,0.552c0.256,0.096,0.504,0.2,0.744,0.312c0.24,0.112,0.36,0.296,0.36,0.552
		c0,0.192-0.112,0.312-0.336,0.36c-0.225,0.048-0.433,0.072-0.624,0.072c-0.641,0-1.137-0.024-1.488-0.072
		c-0.353-0.048-0.688-0.087-1.008-0.12c-0.32-0.032-0.769-0.048-1.344-0.048c-0.545,0-0.993,0.017-1.345,0.048
		c-0.353,0.032-0.712,0.072-1.08,0.12c-0.368,0.048-0.872,0.072-1.512,0.072c-0.16,0-0.36-0.024-0.6-0.072
		c-0.24-0.048-0.36-0.168-0.36-0.36c0-0.256,0.12-0.439,0.36-0.552c0.239-0.112,0.487-0.216,0.744-0.312
		c0.479-0.16,0.943-0.344,1.392-0.552c0.447-0.208,0.672-0.631,0.672-1.272v-10.08c0-1.408-0.393-2.503-1.176-3.288
		c-0.784-0.784-1.832-1.191-3.145-1.224c-1.151,0-2.159,0.185-3.023,0.552c-0.864,0.368-1.632,0.824-2.304,1.368
		c-0.129,0.128-0.225,0.296-0.288,0.504c-0.064,0.208-0.097,0.408-0.097,0.6v11.568c0,0.641,0.224,1.073,0.672,1.296
		c0.448,0.225,0.912,0.401,1.393,0.528c0.735,0.192,1.104,0.448,1.104,0.768c0,0.192-0.08,0.328-0.239,0.408
		c-0.161,0.08-0.401,0.12-0.721,0.12c-0.641,0-1.145-0.024-1.512-0.072c-0.368-0.048-0.713-0.087-1.032-0.12
		c-0.32-0.032-0.768-0.048-1.344-0.048c-0.545,0-0.984,0.017-1.32,0.048c-0.336,0.032-0.688,0.072-1.056,0.12
		C249.602-190.309,249.098-190.285,248.458-190.285z"/>
	<path fill="#0D4482" d="M281.05-176.509c-2.721,0-4.872-0.521-6.456-1.56c-1.584-1.04-2.376-2.44-2.376-4.2
		c0-0.833,0.127-1.536,0.384-2.112c0.256-0.576,0.655-1.072,1.2-1.488c0.447-0.384,1.048-0.872,1.8-1.464
		c0.751-0.593,1.527-1.208,2.328-1.848l2.016,0.096c-1.536,0.991-2.608,1.936-3.216,2.832c-0.608,0.896-0.912,1.984-0.912,3.264
		c0,1.28,0.567,2.359,1.704,3.24c1.136,0.879,2.536,1.32,4.2,1.32c1.888,0,3.408-0.432,4.56-1.296c0.8-0.608,1.424-1.4,1.872-2.376
		c0.448-0.977,0.672-2.009,0.672-3.096c0-0.704-0.248-1.289-0.744-1.752c-0.496-0.464-1.271-0.84-2.327-1.128
		c-1.057-0.288-2.433-0.48-4.129-0.576c-3.008-0.224-5.096-0.624-6.264-1.2c-1.168-0.576-1.752-1.472-1.752-2.688
		c0-0.32,0.088-0.616,0.264-0.888c0.176-0.271,0.456-0.568,0.841-0.888c0.735-0.576,1.279-1,1.632-1.272
		c0.352-0.271,0.615-0.504,0.792-0.696c0.175-0.192,0.343-0.432,0.504-0.72l1.632,0.816c-0.704,0.256-1.296,0.6-1.776,1.032
		c-0.479,0.432-0.72,0.824-0.72,1.176c0,0.448,0.24,0.84,0.72,1.176c0.48,0.336,1.184,0.6,2.112,0.792
		c0.928,0.192,2.064,0.336,3.408,0.432c2.943,0.16,5.136,0.64,6.576,1.44c1.439,0.799,2.16,1.936,2.16,3.408
		c0,1.248-0.313,2.472-0.937,3.672c-0.624,1.2-1.448,2.295-2.472,3.288c-1.024,0.992-2.169,1.784-3.433,2.376
		C283.65-176.805,282.362-176.509,281.05-176.509z M281.338-195.517c-1.313,0-2.561-0.336-3.744-1.008
		c-1.185-0.672-2.152-1.56-2.904-2.664s-1.128-2.312-1.128-3.624c0-1.504,0.392-2.824,1.176-3.96
		c0.784-1.135,1.815-2.023,3.096-2.664s2.641-0.96,4.08-0.96c0.928,0,1.736,0.12,2.425,0.36c0.688,0.24,1.367,0.456,2.04,0.648
		c0.768,0.224,1.375,0.36,1.823,0.408c0.448,0.048,0.912,0.072,1.393,0.072c0.384,0,0.863-0.024,1.439-0.072
		c0.576-0.048,0.976-0.072,1.2-0.072c0.416,0,0.624,0.24,0.624,0.72c0,0.288-0.16,0.592-0.479,0.912
		c-0.161,0.161-0.288,0.24-0.385,0.24h-1.296c-0.864,0-1.344,0.128-1.439,0.384c-0.032,0.128-0.072,0.312-0.12,0.552
		c-0.048,0.24-0.089,0.504-0.12,0.792c-0.032,0.288-0.048,0.576-0.048,0.864c0,1.632-0.353,3.137-1.057,4.512
		c-0.704,1.376-1.632,2.48-2.783,3.312C283.978-195.932,282.713-195.517,281.338-195.517z M281.625-197.197
		c1.216,0,2.225-0.616,3.024-1.848c0.8-1.231,1.2-2.76,1.2-4.584c0-0.928-0.216-1.8-0.648-2.616
		c-0.432-0.816-0.992-1.472-1.68-1.968c-0.688-0.496-1.433-0.744-2.232-0.744c-0.736,0-1.432,0.264-2.088,0.792
		c-0.656,0.528-1.184,1.208-1.584,2.04c-0.4,0.833-0.6,1.744-0.6,2.736c0,1.121,0.208,2.152,0.624,3.096
		c0.415,0.944,0.976,1.696,1.68,2.256C280.026-197.477,280.793-197.197,281.625-197.197z"/>
	<path fill="#0D4482" d="M311.241-189.757c-1.568,0-2.793-0.48-3.672-1.44c-0.881-0.96-1.32-2.383-1.32-4.272v-11.136
		c0-0.256-0.096-0.44-0.288-0.552c-0.192-0.112-0.608-0.168-1.248-0.168h-0.288c-0.16,0-0.296-0.104-0.408-0.312
		c-0.112-0.208-0.168-0.424-0.168-0.648c0-0.064,0.048-0.16,0.145-0.288c0.096-0.127,0.159-0.208,0.191-0.24
		c0.64-0.448,1.225-0.896,1.752-1.344c0.528-0.448,1.009-0.888,1.44-1.32c0.432-0.432,0.792-0.824,1.08-1.176
		c0.159-0.16,0.296-0.295,0.408-0.408c0.111-0.112,0.247-0.168,0.407-0.168s0.313,0.032,0.456,0.096
		c0.145,0.064,0.2,0.208,0.168,0.432l-0.239,2.16c-0.032,0.353,0.048,0.592,0.239,0.72c0.192,0.128,0.496,0.192,0.912,0.192h5.473
		c0.127,0,0.239,0.104,0.336,0.312c0.096,0.208,0.144,0.456,0.144,0.744s-0.048,0.568-0.144,0.84
		c-0.097,0.272-0.209,0.408-0.336,0.408h-4.752c-0.801,0-1.32,0.064-1.561,0.192c-0.24,0.128-0.359,0.512-0.359,1.152v9.456
		c0,1.28,0.271,2.289,0.815,3.024c0.544,0.736,1.328,1.104,2.353,1.104c0.928,0,1.647-0.072,2.159-0.216s0.977-0.36,1.393-0.648
		c0.063-0.063,0.127-0.096,0.191-0.096c0.128,0,0.217,0.072,0.265,0.216s0.072,0.296,0.072,0.456c0,0.16-0.265,0.48-0.792,0.96
		c-0.528,0.48-1.217,0.928-2.064,1.344C313.153-189.966,312.233-189.757,311.241-189.757z"/>
	<path fill="#0D4482" d="M328.473-189.757c-1.793,0-3.408-0.416-4.849-1.248c-1.439-0.832-2.584-1.975-3.432-3.432
		c-0.849-1.456-1.272-3.112-1.272-4.968c0-1.344,0.265-2.656,0.792-3.936c0.528-1.279,1.272-2.448,2.232-3.504s2.08-1.896,3.36-2.52
		c1.279-0.624,2.655-0.936,4.128-0.936c1.855,0,3.527,0.449,5.016,1.344c1.488,0.896,2.672,2.072,3.552,3.528
		c0.88,1.457,1.32,3.048,1.32,4.776c0,1.856-0.408,3.617-1.224,5.28c-0.816,1.664-2.024,3.016-3.624,4.056
		C332.872-190.278,330.872-189.757,328.473-189.757z M329.481-191.197c1.087,0,2.063-0.208,2.928-0.624
		c0.864-0.416,1.536-1.087,2.016-2.016c0.385-0.735,0.641-1.632,0.769-2.688c0.127-1.056,0.191-2.047,0.191-2.976
		c0-1.536-0.28-3.016-0.84-4.44c-0.56-1.423-1.344-2.592-2.352-3.504s-2.2-1.368-3.576-1.368c-0.864,0-1.641,0.136-2.328,0.408
		c-0.688,0.272-1.32,0.776-1.896,1.512c-0.641,0.8-1.057,1.776-1.248,2.928c-0.192,1.152-0.288,2.304-0.288,3.456
		c0,1.568,0.288,3.064,0.864,4.488c0.575,1.424,1.359,2.584,2.352,3.48C327.064-191.645,328.2-191.197,329.481-191.197z"/>
	<path fill="#0D4482" d="M-15.589-118.285c-0.256,0-0.48-0.032-0.672-0.096c-0.192-0.063-0.288-0.208-0.288-0.432
		c0-0.224,0.104-0.384,0.312-0.48c0.208-0.096,0.472-0.192,0.792-0.288c0.448-0.16,0.904-0.344,1.368-0.552
		c0.463-0.208,0.696-0.631,0.696-1.272v-10.32c0-0.864-0.096-1.624-0.288-2.28c-0.192-0.655-0.705-1.047-1.536-1.176
		c-0.128-0.032-0.232-0.096-0.312-0.192c-0.081-0.096-0.12-0.24-0.12-0.432c0-0.319,0.127-0.512,0.384-0.576
		c0.864-0.223,1.551-0.456,2.064-0.696c0.511-0.24,0.967-0.512,1.368-0.816c0.4-0.304,0.888-0.632,1.464-0.984
		c0.063-0.031,0.127-0.072,0.192-0.12c0.063-0.048,0.144-0.072,0.24-0.072c0.192,0,0.288,0.113,0.288,0.336
		c0,0.225-0.041,0.681-0.12,1.368c-0.08,0.688-0.12,1.256-0.12,1.704c0,0.32,0.031,0.512,0.096,0.576h0.096
		c0.736-0.704,1.704-1.416,2.904-2.136c1.2-0.72,2.728-1.08,4.584-1.08c1.152,0,2.112,0.249,2.88,0.744
		c0.768,0.497,1.408,1.352,1.92,2.568h0.144c1.023-0.928,2.191-1.711,3.504-2.352c1.312-0.64,2.751-0.96,4.32-0.96
		c1.056,0,1.936,0.32,2.64,0.96c0.704,0.641,1.24,1.472,1.608,2.496c0.368,1.024,0.552,2.096,0.552,3.216v10.224
		c0,0.641,0.224,1.064,0.672,1.272c0.448,0.208,0.912,0.393,1.392,0.552c0.319,0.096,0.583,0.192,0.792,0.288
		c0.208,0.096,0.312,0.256,0.312,0.48c0,0.192-0.072,0.328-0.216,0.408s-0.392,0.12-0.744,0.12c-0.64,0-1.136-0.024-1.488-0.072
		c-0.353-0.048-0.68-0.087-0.984-0.12c-0.305-0.032-0.744-0.048-1.32-0.048c-0.544,0-0.992,0.017-1.344,0.048
		c-0.353,0.032-0.72,0.072-1.104,0.12c-0.384,0.048-0.896,0.072-1.536,0.072c-0.288,0-0.521-0.041-0.696-0.12
		c-0.176-0.08-0.264-0.216-0.264-0.408c0-0.256,0.104-0.432,0.312-0.528c0.208-0.096,0.472-0.175,0.792-0.24
		c0.512-0.127,0.984-0.304,1.416-0.528c0.432-0.223,0.648-0.655,0.648-1.296v-10.08c0-0.768-0.176-1.495-0.528-2.184
		c-0.353-0.688-0.816-1.255-1.392-1.704c-0.576-0.448-1.216-0.672-1.92-0.672c-0.8,0-1.544,0.096-2.232,0.288
		c-0.688,0.192-1.336,0.528-1.944,1.008c-0.896,0.704-1.344,1.856-1.344,3.456v9.888c0,0.641,0.24,1.073,0.72,1.296
		c0.48,0.225,0.96,0.401,1.44,0.528c0.319,0.064,0.583,0.152,0.792,0.264c0.208,0.113,0.312,0.281,0.312,0.504
		c0,0.192-0.081,0.328-0.24,0.408c-0.161,0.08-0.4,0.12-0.72,0.12c-0.64,0-1.144-0.024-1.512-0.072
		c-0.368-0.048-0.72-0.087-1.056-0.12c-0.336-0.032-0.792-0.048-1.368-0.048c-0.545,0-0.993,0.017-1.344,0.048
		c-0.353,0.032-0.72,0.072-1.104,0.12c-0.384,0.048-0.896,0.072-1.536,0.072c-0.256,0-0.48-0.041-0.672-0.12
		s-0.288-0.216-0.288-0.408c0-0.256,0.12-0.424,0.36-0.504c0.24-0.079,0.487-0.168,0.744-0.264c0.48-0.16,0.952-0.344,1.416-0.552
		c0.463-0.208,0.696-0.631,0.696-1.272v-10.08c0-0.768-0.176-1.495-0.528-2.184c-0.353-0.688-0.816-1.255-1.392-1.704
		c-0.576-0.448-1.216-0.672-1.92-0.672c-0.8,0-1.544,0.096-2.232,0.288c-0.688,0.192-1.336,0.528-1.944,1.008
		c-0.864,0.64-1.296,1.792-1.296,3.456v9.888c0,0.641,0.223,1.064,0.672,1.272c0.448,0.208,0.912,0.393,1.392,0.552
		c0.255,0.096,0.504,0.185,0.744,0.264c0.24,0.081,0.36,0.249,0.36,0.504c0,0.192-0.089,0.328-0.264,0.408
		c-0.176,0.08-0.408,0.12-0.696,0.12c-0.641,0-1.145-0.024-1.512-0.072c-0.368-0.048-0.712-0.087-1.032-0.12
		c-0.32-0.032-0.768-0.048-1.344-0.048c-0.544,0-0.984,0.017-1.32,0.048c-0.336,0.032-0.688,0.072-1.056,0.12
		C-14.445-118.309-14.949-118.285-15.589-118.285z"/>
	<path fill="#0D4482" d="M20.795-104.749c-0.608,0-1.168-0.152-1.68-0.456c-0.512-0.305-0.768-0.809-0.768-1.512
		c0-0.576,0.136-1.08,0.408-1.512c0.271-0.432,0.664-0.648,1.176-0.648c0.352,0,0.696,0.048,1.032,0.144
		c0.336,0.096,0.631,0.144,0.888,0.144c0.192,0,0.36-0.041,0.504-0.12c0.144-0.081,0.28-0.216,0.408-0.408
		c0.352-0.576,0.76-1.296,1.224-2.16c0.463-0.864,0.943-1.84,1.44-2.928c0.496-1.088,0.967-2.24,1.416-3.456
		c0.096-0.288,0.144-0.656,0.144-1.104c0-0.256-0.017-0.504-0.048-0.744c-0.032-0.24-0.08-0.456-0.144-0.648l-5.568-14.064
		c-0.224-0.576-0.521-1.08-0.888-1.512c-0.369-0.432-0.792-0.711-1.272-0.84c-0.257-0.096-0.504-0.208-0.744-0.336
		c-0.24-0.127-0.36-0.304-0.36-0.528c0-0.192,0.12-0.312,0.36-0.36c0.24-0.048,0.439-0.072,0.6-0.072
		c0.64,0,1.111,0.017,1.416,0.048c0.304,0.032,0.591,0.072,0.864,0.12c0.271,0.048,0.68,0.072,1.224,0.072
		c0.576,0,1.008-0.024,1.296-0.072s0.592-0.088,0.912-0.12c0.319-0.031,0.799-0.048,1.44-0.048c0.192,0,0.4,0.041,0.624,0.12
		c0.224,0.08,0.336,0.216,0.336,0.408c0,0.224-0.168,0.44-0.504,0.648c-0.336,0.208-0.632,0.344-0.888,0.408
		c-0.32,0.096-0.56,0.264-0.72,0.504c-0.161,0.24-0.24,0.584-0.24,1.032c0,0.192,0.048,0.424,0.144,0.696
		c0.096,0.272,0.175,0.488,0.24,0.648l3.888,9.6c0.064,0.192,0.16,0.288,0.288,0.288c0.096,0,0.175-0.096,0.24-0.288l3.312-8.784
		c0.096-0.223,0.184-0.52,0.264-0.888c0.08-0.368,0.12-0.664,0.12-0.888c0-0.607-0.088-1.032-0.264-1.272
		c-0.176-0.24-0.408-0.424-0.696-0.552c-0.257-0.128-0.552-0.296-0.888-0.504c-0.336-0.208-0.504-0.424-0.504-0.648
		c0-0.192,0.12-0.328,0.36-0.408c0.24-0.08,0.439-0.12,0.6-0.12c0.448,0,0.904,0.041,1.368,0.12c0.463,0.08,1.144,0.12,2.04,0.12
		c0.607,0,1.047-0.024,1.32-0.072c0.271-0.048,0.504-0.088,0.696-0.12c0.192-0.031,0.464-0.048,0.816-0.048
		c0.16,0,0.36,0.024,0.6,0.072c0.24,0.048,0.36,0.168,0.36,0.36c0,0.224-0.12,0.4-0.36,0.528c-0.24,0.128-0.488,0.24-0.744,0.336
		c-0.48,0.128-0.992,0.504-1.536,1.128c-0.544,0.624-0.977,1.32-1.296,2.088l-6.528,15.552c-0.032,0.096-0.2,0.512-0.504,1.248
		c-0.304,0.736-0.68,1.647-1.128,2.736c-0.448,1.087-0.936,2.256-1.464,3.504c-0.528,1.248-1.032,2.448-1.512,3.6
		c-0.288,0.64-0.704,1.128-1.248,1.464C22.122-104.917,21.498-104.749,20.795-104.749z"/>
	<path fill="#0D4482" d="M57.418-117.757c-1.568,0-2.792-0.48-3.672-1.44c-0.88-0.96-1.32-2.383-1.32-4.272v-11.136
		c0-0.256-0.096-0.44-0.288-0.552c-0.192-0.112-0.608-0.168-1.248-0.168h-0.288c-0.16,0-0.296-0.104-0.408-0.312
		c-0.113-0.208-0.168-0.424-0.168-0.648c0-0.064,0.048-0.16,0.144-0.288c0.096-0.127,0.16-0.208,0.192-0.24
		c0.64-0.448,1.224-0.896,1.752-1.344c0.528-0.448,1.008-0.888,1.44-1.32c0.432-0.432,0.792-0.824,1.08-1.176
		c0.16-0.16,0.295-0.295,0.408-0.408c0.112-0.112,0.248-0.168,0.408-0.168c0.16,0,0.312,0.032,0.456,0.096
		c0.144,0.064,0.199,0.208,0.168,0.432l-0.24,2.16c-0.032,0.353,0.048,0.592,0.24,0.72c0.192,0.128,0.496,0.192,0.912,0.192h5.472
		c0.127,0,0.24,0.104,0.336,0.312c0.096,0.208,0.144,0.456,0.144,0.744s-0.048,0.568-0.144,0.84
		c-0.096,0.272-0.209,0.408-0.336,0.408h-4.752c-0.8,0-1.32,0.064-1.56,0.192c-0.24,0.128-0.36,0.512-0.36,1.152v9.456
		c0,1.28,0.271,2.289,0.816,3.024c0.544,0.736,1.328,1.104,2.352,1.104c0.928,0,1.648-0.072,2.16-0.216
		c0.511-0.144,0.976-0.36,1.392-0.648c0.063-0.063,0.127-0.096,0.192-0.096c0.127,0,0.216,0.072,0.264,0.216
		c0.048,0.144,0.072,0.296,0.072,0.456c0,0.16-0.264,0.48-0.792,0.96s-1.216,0.928-2.064,1.344
		C59.33-117.966,58.409-117.757,57.418-117.757z"/>
	<path fill="#0D4482" d="M65.77-118.285c-0.32,0-0.56-0.041-0.72-0.12s-0.24-0.216-0.24-0.408c0-0.256,0.096-0.424,0.288-0.504
		c0.192-0.079,0.463-0.168,0.816-0.264c0.607-0.16,1.063-0.392,1.368-0.696c0.304-0.304,0.456-0.679,0.456-1.128v-10.32
		c0-0.864-0.128-1.616-0.384-2.256c-0.256-0.64-0.785-1.04-1.584-1.2c-0.128-0.032-0.24-0.112-0.336-0.24
		c-0.096-0.127-0.144-0.255-0.144-0.384c0-0.319,0.144-0.512,0.432-0.576c0.832-0.255,1.704-0.631,2.616-1.128
		c0.912-0.496,1.624-0.904,2.136-1.224c0.192-0.127,0.343-0.216,0.456-0.264c0.111-0.048,0.199-0.072,0.264-0.072
		c0.16,0,0.24,0.113,0.24,0.336c0,0.096-0.008,0.336-0.024,0.72c-0.017,0.384-0.032,0.833-0.048,1.344
		c-0.016,0.513-0.041,1.025-0.072,1.536c0,0.064,0.031,0.096,0.096,0.096c0.512-0.64,1.08-1.2,1.704-1.68s1.264-0.864,1.92-1.152
		c0.656-0.288,1.288-0.432,1.896-0.432c0.672,0,1.224,0.144,1.656,0.432s0.648,0.656,0.648,1.104c0,0.32-0.088,0.672-0.264,1.056
		c-0.176,0.384-0.408,0.72-0.696,1.008s-0.593,0.432-0.912,0.432c-0.192,0-0.4-0.04-0.624-0.12c-0.224-0.08-0.464-0.184-0.72-0.312
		c-0.257-0.096-0.512-0.192-0.768-0.288c-0.257-0.096-0.512-0.144-0.768-0.144c-0.768,0-1.512,0.272-2.232,0.816
		c-0.72,0.545-1.08,1.616-1.08,3.216v9.696c0,0.417,0.224,0.761,0.672,1.032c0.448,0.272,1.072,0.536,1.872,0.792
		c0.352,0.096,0.624,0.192,0.816,0.288c0.192,0.096,0.288,0.256,0.288,0.48c0,0.352-0.32,0.528-0.96,0.528
		c-0.96,0-1.688-0.041-2.184-0.12c-0.497-0.08-1.16-0.12-1.992-0.12c-0.545,0-0.984,0.017-1.32,0.048
		c-0.336,0.032-0.688,0.072-1.056,0.12C66.914-118.309,66.41-118.285,65.77-118.285z"/>
	<path fill="#0D4482" d="M97.017-117.517c-0.224,0-0.336-0.128-0.336-0.384c0-0.32,0.04-0.792,0.12-1.416
		c0.08-0.624,0.12-1.144,0.12-1.56c0-0.063,0-0.12,0-0.168c0-0.048,0-0.087,0-0.12c-1.248,1.216-2.504,2.088-3.768,2.616
		c-1.265,0.528-2.648,0.792-4.152,0.792c-1.024,0-1.952-0.216-2.784-0.648c-0.833-0.432-1.488-1.072-1.968-1.92
		c-0.48-0.848-0.72-1.896-0.72-3.144v-9.744c0-0.703-0.161-1.264-0.48-1.68c-0.32-0.416-0.848-0.768-1.584-1.056
		c-0.161-0.064-0.305-0.144-0.432-0.24c-0.128-0.096-0.192-0.272-0.192-0.528c0-0.288,0.072-0.48,0.216-0.576
		c0.144-0.096,0.312-0.16,0.504-0.192c1.088-0.063,1.928-0.151,2.52-0.264c0.592-0.112,1.336-0.28,2.232-0.504
		c0.096-0.031,0.168-0.048,0.216-0.048s0.104,0,0.168,0c0.352,0,0.511,0.224,0.48,0.672c-0.096,0.737-0.168,1.353-0.216,1.848
		c-0.048,0.497-0.072,1.112-0.072,1.848v9.36c0,0.768,0.192,1.48,0.576,2.136c0.384,0.656,0.888,1.192,1.512,1.608
		c0.624,0.416,1.272,0.624,1.944,0.624c0.832,0,1.56-0.048,2.184-0.144c0.624-0.096,1.24-0.368,1.848-0.816
		c0.352-0.256,0.8-0.672,1.344-1.248c0.543-0.576,0.816-1.36,0.816-2.352v-8.784c0-0.672-0.2-1.176-0.6-1.512
		c-0.4-0.336-0.856-0.568-1.368-0.696c-0.512-0.127-0.928-0.192-1.248-0.192c-0.288,0-0.528-0.056-0.72-0.168
		c-0.192-0.112-0.288-0.328-0.288-0.648c0-0.288,0.104-0.48,0.312-0.576c0.208-0.096,0.439-0.144,0.696-0.144
		c0.991-0.031,1.815-0.072,2.472-0.12c0.656-0.048,1.248-0.128,1.776-0.24c0.528-0.112,1.08-0.248,1.656-0.408
		c0.063-0.031,0.144-0.055,0.24-0.072c0.096-0.016,0.176-0.024,0.24-0.024c0.416,0,0.624,0.176,0.624,0.528
		c0,0.032-0.008,0.088-0.024,0.168c-0.017,0.081-0.041,0.168-0.072,0.264c-0.032,0.096-0.072,0.368-0.12,0.816
		c-0.048,0.449-0.096,0.912-0.144,1.392c-0.048,0.48-0.072,0.848-0.072,1.104v11.088c0,0.864,0.088,1.48,0.264,1.848
		c0.175,0.368,0.375,0.552,0.6,0.552c0.255,0,0.631-0.024,1.128-0.072c0.496-0.048,0.855-0.072,1.08-0.072
		c0.16,0,0.319,0.032,0.48,0.096c0.16,0.064,0.24,0.24,0.24,0.528c0,0.257-0.064,0.425-0.192,0.504
		c-0.128,0.08-0.288,0.136-0.48,0.168c-1.248,0.16-2.32,0.4-3.216,0.72c-0.896,0.32-1.697,0.624-2.4,0.912
		c-0.096,0.031-0.24,0.088-0.432,0.168C97.353-117.557,97.177-117.517,97.017-117.517z"/>
	<path fill="#0D4482" d="M114.969-117.709c-1.76,0-3.296-0.432-4.608-1.296c-1.313-0.864-2.336-2.088-3.072-3.672
		c-0.736-1.584-1.104-3.416-1.104-5.496c0-1.855,0.424-3.543,1.272-5.064c0.848-1.52,1.976-2.743,3.384-3.672
		c1.408-0.928,2.943-1.392,4.608-1.392c1.279,0,2.416,0.256,3.408,0.768c0.992,0.512,1.768,1.224,2.328,2.136
		c0.56,0.912,0.84,1.96,0.84,3.144c0,0.993-0.48,1.488-1.44,1.488h-10.128c-0.448,0-0.76,0.12-0.936,0.36
		c-0.176,0.24-0.264,0.712-0.264,1.416c0,1.536,0.336,2.937,1.008,4.2c0.672,1.264,1.567,2.272,2.688,3.024
		c1.12,0.752,2.352,1.128,3.696,1.128c0.96,0,1.832-0.184,2.616-0.552c0.784-0.368,1.479-0.904,2.088-1.608
		c0.127-0.16,0.224-0.264,0.288-0.312c0.064-0.048,0.144-0.072,0.24-0.072c0.255,0,0.384,0.161,0.384,0.48
		c0,0.608-0.288,1.28-0.864,2.016c-0.48,0.608-1.056,1.136-1.728,1.584c-0.672,0.448-1.409,0.792-2.208,1.032
		C116.665-117.829,115.833-117.709,114.969-117.709z M110.553-132.253h4.368c0.768,0,1.424-0.016,1.968-0.048
		c0.544-0.031,1.072-0.096,1.584-0.192c0.16-0.032,0.264-0.136,0.312-0.312c0.048-0.175,0.072-0.424,0.072-0.744
		c0-0.928-0.408-1.72-1.224-2.376c-0.816-0.655-1.785-0.984-2.904-0.984c-0.736,0-1.472,0.216-2.208,0.648
		c-0.736,0.432-1.344,0.968-1.824,1.608c-0.48,0.641-0.72,1.28-0.72,1.92C109.977-132.413,110.169-132.253,110.553-132.253z"/>
	<path fill="#0D4482" d="M135.177-118.285c-0.32,0-0.56-0.041-0.72-0.12c-0.161-0.08-0.24-0.216-0.24-0.408
		c0-0.256,0.104-0.432,0.312-0.528c0.208-0.096,0.472-0.175,0.792-0.24c0.736-0.16,1.264-0.392,1.584-0.696
		c0.32-0.304,0.48-0.775,0.48-1.416v-13.536c-0.32,0-0.688-0.008-1.104-0.024c-0.416-0.016-0.88-0.04-1.392-0.072
		c-0.096-0.032-0.233-0.144-0.408-0.336c-0.176-0.192-0.264-0.368-0.264-0.528c0-0.064,0.048-0.12,0.144-0.168
		c0.096-0.048,0.16-0.087,0.192-0.12c0.576-0.288,1.072-0.544,1.488-0.768c0.416-0.224,0.864-0.448,1.344-0.672
		c0-2.784,0.344-5.104,1.032-6.96c0.688-1.855,1.576-3.328,2.664-4.416c1.087-1.088,2.239-1.864,3.456-2.328
		c1.216-0.463,2.352-0.696,3.408-0.696c1.792,0,3.12,0.272,3.984,0.816c0.864,0.544,1.296,1.232,1.296,2.064
		c0,0.64-0.161,1.12-0.48,1.44c-0.32,0.32-0.705,0.48-1.152,0.48c-0.288,0-0.552-0.112-0.792-0.336
		c-0.24-0.224-0.521-0.48-0.84-0.768c-0.416-0.416-0.929-0.808-1.536-1.176c-0.608-0.367-1.44-0.552-2.496-0.552
		c-1.504,0-2.744,0.656-3.72,1.968c-0.977,1.313-1.464,3.329-1.464,6.048v4.224c0,0.192,0.055,0.32,0.168,0.384
		c0.112,0.064,0.231,0.096,0.36,0.096h6c0.16,0,0.304,0.048,0.432,0.144c0.127,0.096,0.192,0.225,0.192,0.384
		c0,0.224-0.024,0.464-0.072,0.72c-0.048,0.257-0.12,0.48-0.216,0.672c-0.096,0.256-0.24,0.384-0.432,0.384h-5.52
		c-0.384,0-0.632,0.056-0.744,0.168c-0.113,0.112-0.168,0.264-0.168,0.456v13.008c0,0.641,0.208,1.112,0.624,1.416
		c0.416,0.305,1.264,0.537,2.544,0.696c0.736,0.096,1.104,0.353,1.104,0.768c0,0.192-0.081,0.328-0.24,0.408
		c-0.161,0.08-0.4,0.12-0.72,0.12c-0.96,0-1.809-0.041-2.544-0.12c-0.737-0.08-1.521-0.12-2.352-0.12
		c-0.545,0-0.993,0.017-1.344,0.048c-0.353,0.032-0.72,0.072-1.104,0.12C136.329-118.309,135.817-118.285,135.177-118.285z"/>
	<path fill="#0D4482" d="M157.353-117.709c-1.76,0-3.296-0.432-4.607-1.296c-1.313-0.864-2.336-2.088-3.072-3.672
		c-0.736-1.584-1.104-3.416-1.104-5.496c0-1.855,0.424-3.543,1.272-5.064c0.848-1.52,1.976-2.743,3.384-3.672
		c1.408-0.928,2.944-1.392,4.608-1.392c1.279,0,2.416,0.256,3.408,0.768c0.991,0.512,1.768,1.224,2.328,2.136
		c0.559,0.912,0.84,1.96,0.84,3.144c0,0.993-0.48,1.488-1.44,1.488h-10.128c-0.448,0-0.76,0.12-0.936,0.36
		c-0.176,0.24-0.264,0.712-0.264,1.416c0,1.536,0.336,2.937,1.008,4.2c0.672,1.264,1.567,2.272,2.688,3.024
		c1.12,0.752,2.352,1.128,3.696,1.128c0.96,0,1.831-0.184,2.615-0.552c0.784-0.368,1.48-0.904,2.089-1.608
		c0.127-0.16,0.223-0.264,0.288-0.312c0.063-0.048,0.144-0.072,0.239-0.072c0.256,0,0.384,0.161,0.384,0.48
		c0,0.608-0.287,1.28-0.863,2.016c-0.48,0.608-1.057,1.136-1.729,1.584c-0.672,0.448-1.408,0.792-2.208,1.032
		C159.049-117.829,158.217-117.709,157.353-117.709z M152.937-132.253h4.368c0.769,0,1.424-0.016,1.968-0.048
		c0.544-0.031,1.072-0.096,1.584-0.192c0.16-0.032,0.265-0.136,0.313-0.312c0.048-0.175,0.072-0.424,0.072-0.744
		c0-0.928-0.408-1.72-1.225-2.376c-0.815-0.655-1.784-0.984-2.903-0.984c-0.737,0-1.473,0.216-2.208,0.648
		c-0.736,0.432-1.344,0.968-1.824,1.608c-0.48,0.641-0.72,1.28-0.72,1.92C152.361-132.413,152.553-132.253,152.937-132.253z"/>
	<path fill="#0D4482" d="M175.593-117.709c-1.76,0-3.296-0.432-4.607-1.296c-1.313-0.864-2.337-2.088-3.072-3.672
		c-0.736-1.584-1.104-3.416-1.104-5.496c0-1.855,0.423-3.543,1.271-5.064c0.848-1.52,1.976-2.743,3.384-3.672
		c1.408-0.928,2.944-1.392,4.608-1.392c1.279,0,2.416,0.256,3.408,0.768c0.991,0.512,1.768,1.224,2.328,2.136
		c0.559,0.912,0.84,1.96,0.84,3.144c0,0.993-0.48,1.488-1.44,1.488h-10.128c-0.448,0-0.761,0.12-0.936,0.36
		c-0.177,0.24-0.265,0.712-0.265,1.416c0,1.536,0.336,2.937,1.008,4.2c0.673,1.264,1.568,2.272,2.688,3.024
		c1.12,0.752,2.352,1.128,3.696,1.128c0.96,0,1.831-0.184,2.615-0.552c0.784-0.368,1.48-0.904,2.089-1.608
		c0.127-0.16,0.223-0.264,0.288-0.312c0.063-0.048,0.144-0.072,0.239-0.072c0.256,0,0.384,0.161,0.384,0.48
		c0,0.608-0.287,1.28-0.863,2.016c-0.48,0.608-1.057,1.136-1.729,1.584c-0.672,0.448-1.408,0.792-2.208,1.032
		C177.289-117.829,176.457-117.709,175.593-117.709z M171.177-132.253h4.368c0.769,0,1.424-0.016,1.968-0.048
		c0.544-0.031,1.072-0.096,1.584-0.192c0.16-0.032,0.265-0.136,0.313-0.312c0.048-0.175,0.072-0.424,0.072-0.744
		c0-0.928-0.408-1.72-1.225-2.376c-0.815-0.655-1.784-0.984-2.903-0.984c-0.737,0-1.473,0.216-2.208,0.648
		c-0.737,0.432-1.345,0.968-1.824,1.608c-0.48,0.641-0.72,1.28-0.72,1.92C170.602-132.413,170.793-132.253,171.177-132.253z"/>
	<path fill="#0D4482" d="M185.96-118.285c-0.16,0-0.36-0.024-0.6-0.072c-0.24-0.048-0.36-0.168-0.36-0.36
		c0-0.256,0.12-0.439,0.36-0.552c0.239-0.112,0.487-0.216,0.743-0.312c0.48-0.16,0.944-0.344,1.393-0.552
		c0.447-0.208,0.672-0.631,0.672-1.272v-24.192c0-0.928-0.168-1.704-0.504-2.328s-0.904-1.016-1.704-1.176
		c-0.257-0.064-0.384-0.271-0.384-0.624c0-0.32,0.111-0.512,0.336-0.576c0.831-0.192,1.552-0.392,2.16-0.6
		c0.607-0.208,1.176-0.423,1.704-0.648c0.527-0.223,1.047-0.432,1.56-0.624c0.128-0.063,0.224-0.096,0.288-0.096
		c0.063,0,0.12,0.041,0.168,0.12c0.048,0.081,0.072,0.152,0.072,0.216c0,0.288-0.057,0.904-0.168,1.848
		c-0.113,0.944-0.168,2.504-0.168,4.68v24c0,0.641,0.223,1.064,0.672,1.272c0.447,0.208,0.912,0.393,1.392,0.552
		c0.256,0.096,0.504,0.2,0.744,0.312c0.24,0.112,0.36,0.296,0.36,0.552c0,0.192-0.12,0.312-0.36,0.36
		c-0.24,0.048-0.44,0.072-0.6,0.072c-0.608,0-1.097-0.024-1.465-0.072c-0.368-0.048-0.72-0.087-1.056-0.12
		c-0.336-0.032-0.792-0.048-1.368-0.048c-0.544,0-0.992,0.017-1.344,0.048c-0.353,0.032-0.704,0.072-1.056,0.12
		C187.096-118.309,186.6-118.285,185.96-118.285z"/>
	<path fill="#0D4482" d="M197.72-118.285c-0.288,0-0.521-0.041-0.696-0.12s-0.264-0.216-0.264-0.408c0-0.256,0.12-0.432,0.359-0.528
		c0.24-0.096,0.487-0.175,0.744-0.24c0.672-0.16,1.184-0.36,1.536-0.6c0.352-0.24,0.528-0.648,0.528-1.224v-10.416
		c0-0.864-0.152-1.632-0.456-2.304c-0.305-0.672-0.872-1.072-1.704-1.2c-0.161-0.032-0.28-0.096-0.36-0.192
		c-0.08-0.096-0.12-0.24-0.12-0.432c0-0.352,0.145-0.544,0.433-0.576c1.279-0.288,2.335-0.679,3.168-1.176
		c0.831-0.496,1.455-0.904,1.872-1.224c0.288-0.224,0.511-0.336,0.672-0.336c0.191,0,0.288,0.08,0.288,0.24
		c0,0.256-0.041,0.76-0.12,1.512c-0.08,0.752-0.152,1.584-0.216,2.496c-0.064,0.912-0.097,1.736-0.097,2.472v11.136
		c0,0.544,0.184,0.944,0.553,1.2c0.367,0.256,0.871,0.464,1.512,0.624c0.256,0.064,0.504,0.144,0.744,0.24
		c0.239,0.096,0.359,0.272,0.359,0.528c0,0.352-0.32,0.528-0.96,0.528c-0.608,0-1.097-0.024-1.464-0.072
		c-0.368-0.048-0.72-0.087-1.056-0.12c-0.336-0.032-0.792-0.048-1.368-0.048c-0.545,0-0.992,0.017-1.344,0.048
		c-0.353,0.032-0.704,0.072-1.057,0.12C198.855-118.309,198.36-118.285,197.72-118.285z M201.56-143.197
		c-0.672,0-1.24-0.231-1.704-0.696c-0.464-0.464-0.696-1.032-0.696-1.704c0-0.704,0.232-1.288,0.696-1.752
		c0.464-0.463,1.032-0.696,1.704-0.696c0.703,0,1.288,0.233,1.752,0.696c0.464,0.464,0.696,1.048,0.696,1.752
		c0,0.672-0.232,1.24-0.696,1.704C202.848-143.428,202.263-143.197,201.56-143.197z"/>
	<path fill="#0D4482" d="M209.48-118.285c-0.288,0-0.521-0.041-0.696-0.12s-0.264-0.216-0.264-0.408
		c0-0.256,0.096-0.424,0.288-0.504c0.191-0.079,0.463-0.168,0.815-0.264c0.48-0.127,0.943-0.304,1.393-0.528
		c0.447-0.223,0.672-0.655,0.672-1.296v-10.32c0-0.864-0.089-1.6-0.265-2.208c-0.176-0.607-0.68-1.024-1.512-1.248
		c-0.128-0.064-0.24-0.136-0.336-0.216c-0.096-0.08-0.144-0.216-0.144-0.408c0-0.352,0.144-0.544,0.432-0.576
		c1.12-0.288,2.031-0.64,2.736-1.056c0.703-0.416,1.392-0.88,2.063-1.392c0.096-0.064,0.184-0.12,0.264-0.168
		c0.08-0.048,0.168-0.072,0.265-0.072c0.063,0,0.12,0.032,0.168,0.096c0.048,0.064,0.072,0.144,0.072,0.24
		c0,0.225-0.041,0.681-0.12,1.368c-0.081,0.688-0.12,1.256-0.12,1.704c0,0.128,0.007,0.248,0.023,0.36
		c0.016,0.113,0.04,0.185,0.072,0.216c1.12-1.056,2.312-1.856,3.576-2.4c1.264-0.543,2.647-0.816,4.152-0.816
		c1.567,0,2.863,0.641,3.888,1.92c1.023,1.28,1.536,2.864,1.536,4.752v10.224c0,0.641,0.224,1.064,0.672,1.272
		c0.447,0.208,0.912,0.393,1.392,0.552c0.256,0.096,0.504,0.2,0.744,0.312c0.24,0.112,0.36,0.296,0.36,0.552
		c0,0.192-0.112,0.312-0.336,0.36c-0.225,0.048-0.433,0.072-0.624,0.072c-0.641,0-1.137-0.024-1.488-0.072
		c-0.353-0.048-0.688-0.087-1.008-0.12c-0.32-0.032-0.769-0.048-1.344-0.048c-0.545,0-0.993,0.017-1.345,0.048
		c-0.353,0.032-0.712,0.072-1.08,0.12c-0.368,0.048-0.872,0.072-1.512,0.072c-0.16,0-0.36-0.024-0.6-0.072
		c-0.24-0.048-0.36-0.168-0.36-0.36c0-0.256,0.12-0.439,0.36-0.552c0.239-0.112,0.487-0.216,0.744-0.312
		c0.479-0.16,0.943-0.344,1.392-0.552c0.447-0.208,0.672-0.631,0.672-1.272v-10.08c0-1.408-0.393-2.503-1.176-3.288
		c-0.784-0.784-1.832-1.191-3.145-1.224c-1.151,0-2.159,0.185-3.023,0.552c-0.864,0.368-1.632,0.824-2.304,1.368
		c-0.129,0.128-0.225,0.296-0.288,0.504c-0.064,0.208-0.097,0.408-0.097,0.6v11.568c0,0.641,0.224,1.073,0.672,1.296
		c0.448,0.225,0.912,0.401,1.393,0.528c0.735,0.192,1.104,0.448,1.104,0.768c0,0.192-0.08,0.328-0.239,0.408
		c-0.161,0.08-0.401,0.12-0.721,0.12c-0.641,0-1.145-0.024-1.512-0.072c-0.368-0.048-0.713-0.087-1.032-0.12
		c-0.32-0.032-0.768-0.048-1.344-0.048c-0.545,0-0.984,0.017-1.32,0.048c-0.336,0.032-0.688,0.072-1.056,0.12
		C210.623-118.309,210.119-118.285,209.48-118.285z"/>
	<path fill="#0D4482" d="M242.072-104.509c-2.721,0-4.872-0.521-6.456-1.56c-1.584-1.04-2.376-2.44-2.376-4.2
		c0-0.833,0.127-1.536,0.384-2.112c0.256-0.576,0.655-1.072,1.2-1.488c0.447-0.384,1.048-0.872,1.8-1.464
		c0.751-0.593,1.527-1.208,2.328-1.848l2.016,0.096c-1.536,0.991-2.608,1.936-3.216,2.832c-0.608,0.896-0.912,1.984-0.912,3.264
		c0,1.28,0.567,2.359,1.704,3.24c1.136,0.879,2.536,1.32,4.2,1.32c1.888,0,3.408-0.432,4.56-1.296c0.8-0.608,1.424-1.4,1.872-2.376
		c0.448-0.977,0.672-2.009,0.672-3.096c0-0.704-0.248-1.289-0.744-1.752c-0.496-0.464-1.271-0.84-2.327-1.128
		c-1.057-0.288-2.433-0.48-4.129-0.576c-3.008-0.224-5.096-0.624-6.264-1.2c-1.168-0.576-1.752-1.472-1.752-2.688
		c0-0.32,0.088-0.616,0.264-0.888c0.176-0.271,0.456-0.568,0.841-0.888c0.735-0.576,1.279-1,1.632-1.272
		c0.352-0.271,0.615-0.504,0.792-0.696c0.175-0.192,0.343-0.432,0.504-0.72l1.632,0.816c-0.704,0.256-1.296,0.6-1.776,1.032
		c-0.479,0.432-0.72,0.824-0.72,1.176c0,0.448,0.24,0.84,0.72,1.176c0.48,0.336,1.184,0.6,2.112,0.792
		c0.928,0.192,2.064,0.336,3.408,0.432c2.943,0.16,5.136,0.64,6.576,1.44c1.439,0.799,2.16,1.936,2.16,3.408
		c0,1.248-0.313,2.472-0.937,3.672c-0.624,1.2-1.448,2.295-2.472,3.288c-1.024,0.992-2.169,1.784-3.433,2.376
		C244.671-104.805,243.383-104.509,242.072-104.509z M242.36-123.517c-1.313,0-2.561-0.336-3.744-1.008
		c-1.185-0.672-2.152-1.56-2.904-2.664s-1.128-2.312-1.128-3.624c0-1.504,0.392-2.824,1.176-3.96
		c0.784-1.135,1.815-2.023,3.096-2.664s2.641-0.96,4.08-0.96c0.928,0,1.736,0.12,2.425,0.36c0.688,0.24,1.367,0.456,2.04,0.648
		c0.768,0.224,1.375,0.36,1.823,0.408c0.448,0.048,0.912,0.072,1.393,0.072c0.384,0,0.863-0.024,1.439-0.072
		c0.576-0.048,0.976-0.072,1.2-0.072c0.416,0,0.624,0.24,0.624,0.72c0,0.288-0.16,0.592-0.479,0.912
		c-0.161,0.161-0.288,0.24-0.385,0.24h-1.296c-0.864,0-1.344,0.128-1.439,0.384c-0.032,0.128-0.072,0.312-0.12,0.552
		c-0.048,0.24-0.089,0.504-0.12,0.792c-0.032,0.288-0.048,0.576-0.048,0.864c0,1.632-0.353,3.137-1.057,4.512
		c-0.704,1.376-1.632,2.48-2.783,3.312C244.999-123.932,243.735-123.517,242.36-123.517z M242.647-125.197
		c1.216,0,2.225-0.616,3.024-1.848c0.8-1.231,1.2-2.76,1.2-4.584c0-0.928-0.216-1.8-0.648-2.616
		c-0.432-0.816-0.992-1.472-1.68-1.968c-0.688-0.496-1.433-0.744-2.232-0.744c-0.736,0-1.432,0.264-2.088,0.792
		c-0.656,0.528-1.184,1.208-1.584,2.04c-0.4,0.833-0.6,1.744-0.6,2.736c0,1.121,0.208,2.152,0.624,3.096
		c0.415,0.944,0.976,1.696,1.68,2.256C241.047-125.477,241.815-125.197,242.647-125.197z"/>
	<path fill="#0D4482" d="M260.504-117.757c-0.992,0-1.92-0.152-2.784-0.456s-1.601-0.728-2.208-1.272
		c-0.16-0.352-0.28-0.943-0.36-1.776c-0.08-0.832-0.136-1.52-0.168-2.064c0-0.288,0.208-0.432,0.624-0.432
		c0.128,0,0.248,0.024,0.36,0.072c0.111,0.048,0.184,0.136,0.216,0.264c0.416,1.568,1.08,2.688,1.992,3.36
		c0.912,0.672,1.831,1.008,2.76,1.008c0.928,0,1.72-0.312,2.376-0.936s0.984-1.399,0.984-2.328c0-0.864-0.288-1.608-0.864-2.232
		s-1.584-1.384-3.023-2.28c-1.089-0.672-1.969-1.312-2.641-1.92s-1.16-1.231-1.464-1.872c-0.305-0.64-0.456-1.36-0.456-2.16
		c0-1.024,0.24-1.952,0.72-2.784c0.48-0.832,1.2-1.495,2.16-1.992c0.96-0.496,2.16-0.744,3.601-0.744
		c0.96,0,1.759,0.096,2.399,0.288c0.64,0.192,1.12,0.4,1.44,0.624c0.256,0.353,0.472,0.904,0.647,1.656
		c0.176,0.752,0.265,1.464,0.265,2.136c0,0.224-0.161,0.336-0.48,0.336c-0.191,0-0.376-0.04-0.552-0.12
		c-0.177-0.08-0.296-0.184-0.36-0.312c-0.416-1.056-0.936-1.864-1.56-2.424c-0.624-0.56-1.4-0.84-2.328-0.84
		c-0.8,0-1.512,0.24-2.136,0.72s-0.937,1.185-0.937,2.112c0,0.736,0.232,1.392,0.696,1.968s1.336,1.232,2.616,1.968
		c1.855,1.056,3.24,2.04,4.151,2.952c0.912,0.912,1.368,2.12,1.368,3.624c0,1.728-0.656,3.137-1.968,4.224
		C264.28-118.302,262.584-117.757,260.504-117.757z"/>
	<path fill="#0D4482" d="M270.92-111.373c-0.576,0-0.864-0.176-0.864-0.528c0-0.128,0.056-0.248,0.168-0.36
		c0.112-0.112,0.28-0.185,0.504-0.216c0.704-0.161,1.408-0.432,2.112-0.816c0.703-0.384,1.296-0.936,1.775-1.656
		c0.48-0.72,0.721-1.64,0.721-2.76c0-0.384-0.177-0.824-0.528-1.32c-0.353-0.496-0.8-0.76-1.344-0.792
		c-0.704-0.063-1.257-0.288-1.656-0.672c-0.4-0.384-0.6-0.832-0.6-1.344c0-0.64,0.264-1.167,0.792-1.584
		c0.527-0.416,1.144-0.624,1.848-0.624c1.152,0,2.104,0.44,2.856,1.32c0.751,0.88,1.128,1.992,1.128,3.336
		c0,1.216-0.24,2.312-0.721,3.288c-0.479,0.976-1.088,1.815-1.823,2.52c-0.737,0.703-1.497,1.248-2.28,1.632
		C272.224-111.565,271.528-111.373,270.92-111.373z"/>
	<path fill="#0D4482" d="M-15.589-46.285c-0.288,0-0.521-0.041-0.696-0.12c-0.176-0.08-0.264-0.216-0.264-0.408
		c0-0.256,0.096-0.424,0.288-0.504c0.192-0.079,0.463-0.168,0.816-0.264c0.48-0.127,0.944-0.304,1.392-0.528
		c0.448-0.223,0.672-0.655,0.672-1.296v-10.32c0-0.864-0.088-1.6-0.264-2.208c-0.176-0.607-0.68-1.024-1.512-1.248
		c-0.128-0.064-0.24-0.136-0.336-0.216c-0.096-0.08-0.144-0.216-0.144-0.408c0-0.352,0.144-0.544,0.432-0.576
		c1.12-0.288,2.032-0.64,2.736-1.056c0.704-0.416,1.392-0.88,2.064-1.392c0.096-0.064,0.184-0.12,0.264-0.168
		c0.08-0.048,0.168-0.072,0.264-0.072c0.063,0,0.12,0.032,0.168,0.096c0.048,0.064,0.072,0.144,0.072,0.24
		c0,0.225-0.041,0.681-0.12,1.368c-0.08,0.688-0.12,1.256-0.12,1.704c0,0.128,0.007,0.248,0.024,0.36
		c0.016,0.113,0.04,0.185,0.072,0.216c1.12-1.056,2.312-1.856,3.576-2.4c1.264-0.543,2.647-0.816,4.152-0.816
		c1.567,0,2.864,0.641,3.888,1.92c1.023,1.28,1.536,2.864,1.536,4.752v10.224c0,0.641,0.224,1.064,0.672,1.272
		c0.448,0.208,0.912,0.393,1.392,0.552c0.255,0.096,0.504,0.2,0.744,0.312c0.24,0.112,0.36,0.296,0.36,0.552
		c0,0.192-0.113,0.312-0.336,0.36c-0.224,0.048-0.432,0.072-0.624,0.072c-0.64,0-1.136-0.024-1.488-0.072
		c-0.353-0.048-0.688-0.087-1.008-0.12c-0.32-0.032-0.768-0.048-1.344-0.048c-0.544,0-0.992,0.017-1.344,0.048
		c-0.353,0.032-0.713,0.072-1.08,0.12c-0.368,0.048-0.873,0.072-1.512,0.072c-0.161,0-0.36-0.024-0.6-0.072
		c-0.24-0.048-0.36-0.168-0.36-0.36c0-0.256,0.12-0.439,0.36-0.552c0.24-0.112,0.488-0.216,0.744-0.312
		c0.48-0.16,0.943-0.344,1.392-0.552c0.448-0.208,0.672-0.631,0.672-1.272v-10.08c0-1.408-0.392-2.503-1.176-3.288
		c-0.785-0.784-1.833-1.191-3.144-1.224c-1.152,0-2.16,0.185-3.024,0.552c-0.864,0.368-1.632,0.824-2.304,1.368
		c-0.128,0.128-0.224,0.296-0.288,0.504c-0.064,0.208-0.096,0.408-0.096,0.6v11.568c0,0.641,0.223,1.073,0.672,1.296
		c0.448,0.225,0.912,0.401,1.392,0.528c0.736,0.192,1.104,0.448,1.104,0.768c0,0.192-0.081,0.328-0.24,0.408
		c-0.161,0.08-0.4,0.12-0.72,0.12c-0.641,0-1.145-0.024-1.512-0.072c-0.368-0.048-0.712-0.087-1.032-0.12
		c-0.32-0.032-0.768-0.048-1.344-0.048c-0.544,0-0.984,0.017-1.32,0.048c-0.336,0.032-0.688,0.072-1.056,0.12
		C-14.445-46.309-14.949-46.285-15.589-46.285z"/>
	<path fill="#0D4482" d="M17.867-45.709c-1.76,0-3.296-0.432-4.608-1.296c-1.313-0.864-2.336-2.088-3.072-3.672
		c-0.736-1.584-1.104-3.416-1.104-5.496c0-1.855,0.424-3.543,1.272-5.064c0.848-1.52,1.976-2.743,3.384-3.672
		c1.408-0.928,2.943-1.392,4.608-1.392c1.279,0,2.416,0.256,3.408,0.768c0.992,0.512,1.768,1.224,2.328,2.136
		c0.56,0.912,0.84,1.96,0.84,3.144c0,0.993-0.48,1.488-1.44,1.488H13.355c-0.448,0-0.76,0.12-0.936,0.36
		c-0.176,0.24-0.264,0.712-0.264,1.416c0,1.536,0.336,2.937,1.008,4.2c0.672,1.264,1.567,2.272,2.688,3.024
		c1.12,0.752,2.352,1.128,3.696,1.128c0.96,0,1.832-0.184,2.616-0.552c0.784-0.368,1.479-0.904,2.088-1.608
		c0.127-0.16,0.224-0.264,0.288-0.312c0.064-0.048,0.144-0.072,0.24-0.072c0.255,0,0.384,0.161,0.384,0.48
		c0,0.608-0.288,1.28-0.864,2.016c-0.48,0.608-1.056,1.136-1.728,1.584c-0.672,0.448-1.409,0.792-2.208,1.032
		C19.563-45.829,18.731-45.709,17.867-45.709z M13.451-60.253h4.368c0.768,0,1.424-0.016,1.968-0.048
		c0.544-0.031,1.072-0.096,1.584-0.192c0.16-0.032,0.264-0.136,0.312-0.312c0.048-0.175,0.072-0.424,0.072-0.744
		c0-0.928-0.408-1.72-1.224-2.376c-0.816-0.655-1.785-0.984-2.904-0.984c-0.736,0-1.472,0.216-2.208,0.648
		c-0.736,0.432-1.344,0.968-1.824,1.608c-0.48,0.641-0.72,1.28-0.72,1.92C12.875-60.413,13.067-60.253,13.451-60.253z"/>
	<path fill="#0D4482" d="M36.107-45.709c-1.76,0-3.296-0.432-4.608-1.296c-1.313-0.864-2.336-2.088-3.072-3.672
		c-0.736-1.584-1.104-3.416-1.104-5.496c0-1.855,0.424-3.543,1.272-5.064c0.848-1.52,1.976-2.743,3.384-3.672
		c1.408-0.928,2.943-1.392,4.608-1.392c1.279,0,2.416,0.256,3.408,0.768c0.992,0.512,1.768,1.224,2.328,2.136
		c0.56,0.912,0.84,1.96,0.84,3.144c0,0.993-0.48,1.488-1.44,1.488H31.595c-0.448,0-0.76,0.12-0.936,0.36
		c-0.176,0.24-0.264,0.712-0.264,1.416c0,1.536,0.336,2.937,1.008,4.2c0.672,1.264,1.567,2.272,2.688,3.024
		c1.12,0.752,2.352,1.128,3.696,1.128c0.96,0,1.832-0.184,2.616-0.552c0.784-0.368,1.479-0.904,2.088-1.608
		c0.127-0.16,0.224-0.264,0.288-0.312c0.064-0.048,0.144-0.072,0.24-0.072c0.255,0,0.384,0.161,0.384,0.48
		c0,0.608-0.288,1.28-0.864,2.016c-0.48,0.608-1.056,1.136-1.728,1.584c-0.672,0.448-1.409,0.792-2.208,1.032
		C37.803-45.829,36.971-45.709,36.107-45.709z M31.691-60.253h4.368c0.768,0,1.424-0.016,1.968-0.048
		c0.544-0.031,1.072-0.096,1.584-0.192c0.16-0.032,0.264-0.136,0.312-0.312c0.048-0.175,0.072-0.424,0.072-0.744
		c0-0.928-0.408-1.72-1.224-2.376c-0.816-0.655-1.785-0.984-2.904-0.984c-0.736,0-1.472,0.216-2.208,0.648
		c-0.736,0.432-1.344,0.968-1.824,1.608c-0.48,0.641-0.72,1.28-0.72,1.92C31.115-60.413,31.307-60.253,31.691-60.253z"/>
	<path fill="#0D4482" d="M61.259-45.517c-0.065,0-0.168-0.064-0.312-0.192c-0.144-0.128-0.216-0.225-0.216-0.288
		c0-0.32,0.04-0.775,0.12-1.368c0.08-0.592,0.12-1.096,0.12-1.512v-0.288c-0.48,0.736-1.248,1.488-2.304,2.256
		s-2.384,1.152-3.984,1.152c-1.824,0-3.4-0.48-4.728-1.44c-1.328-0.96-2.352-2.191-3.072-3.696c-0.72-1.504-1.08-3.056-1.08-4.656
		c0-1.855,0.432-3.6,1.296-5.232c0.864-1.632,2.104-2.959,3.72-3.984c1.616-1.024,3.544-1.536,5.784-1.536
		c0.64,0,1.288,0.056,1.944,0.168c0.656,0.113,1.16,0.232,1.512,0.36c0.288,0.096,0.496,0.144,0.624,0.144
		c0.224,0,0.336-0.384,0.336-1.152v-6.816c0-1.312-0.208-2.191-0.624-2.64c-0.416-0.448-1.008-0.736-1.776-0.864
		c-0.288-0.064-0.432-0.271-0.432-0.624c0-0.288,0.127-0.48,0.384-0.576c1.408-0.352,2.512-0.688,3.312-1.008
		c0.8-0.32,1.424-0.576,1.872-0.768c0.127-0.064,0.248-0.104,0.36-0.12c0.111-0.016,0.199-0.024,0.264-0.024
		c0.192,0,0.304,0.096,0.336,0.288c0,0.192-0.024,0.521-0.072,0.984c-0.048,0.464-0.104,1.145-0.168,2.04
		c-0.064,0.896-0.096,2.064-0.096,3.504v21.696c0,1.088,0.08,1.88,0.24,2.376c0.16,0.496,0.416,0.744,0.768,0.744
		c0.16,0,0.439-0.016,0.84-0.048c0.4-0.031,0.808-0.064,1.224-0.096c0.576-0.031,0.864,0.113,0.864,0.432
		c0,0.224-0.072,0.425-0.216,0.6c-0.144,0.176-0.296,0.264-0.456,0.264c-0.896,0.128-1.776,0.312-2.64,0.552
		c-0.864,0.24-1.856,0.6-2.976,1.08c-0.256,0.127-0.424,0.208-0.504,0.24C61.443-45.533,61.355-45.517,61.259-45.517z
		 M56.411-48.253c0.832,0,1.647-0.216,2.448-0.648c0.8-0.432,1.504-1,2.112-1.704l0.048-8.64c0-0.864-0.248-1.711-0.744-2.544
		c-0.497-0.832-1.184-1.512-2.064-2.04c-0.88-0.528-1.913-0.792-3.096-0.792c-0.737,0-1.568,0.224-2.496,0.672
		c-0.929,0.449-1.728,1.241-2.4,2.376c-0.672,1.136-1.008,2.776-1.008,4.92c0,1.824,0.271,3.288,0.816,4.392
		c0.544,1.104,1.208,1.944,1.992,2.52c0.784,0.576,1.584,0.968,2.4,1.176C55.235-48.357,55.899-48.253,56.411-48.253z"/>
	<path fill="#0D4482" d="M87.082-45.757c-1.568,0-2.792-0.48-3.672-1.44c-0.88-0.96-1.32-2.383-1.32-4.272v-11.136
		c0-0.256-0.096-0.44-0.288-0.552c-0.192-0.112-0.608-0.168-1.248-0.168h-0.288c-0.16,0-0.296-0.104-0.408-0.312
		c-0.113-0.208-0.168-0.424-0.168-0.648c0-0.064,0.048-0.16,0.144-0.288c0.096-0.127,0.16-0.208,0.192-0.24
		c0.64-0.448,1.224-0.896,1.752-1.344c0.528-0.448,1.008-0.888,1.44-1.32c0.432-0.432,0.792-0.824,1.08-1.176
		c0.16-0.16,0.295-0.295,0.408-0.408c0.112-0.112,0.248-0.168,0.408-0.168c0.16,0,0.312,0.032,0.456,0.096
		c0.144,0.064,0.199,0.208,0.168,0.432l-0.24,2.16c-0.032,0.353,0.048,0.592,0.24,0.72c0.192,0.128,0.496,0.192,0.912,0.192h5.472
		c0.127,0,0.24,0.104,0.336,0.312c0.096,0.208,0.144,0.456,0.144,0.744s-0.048,0.568-0.144,0.84
		c-0.096,0.272-0.209,0.408-0.336,0.408H87.37c-0.8,0-1.32,0.064-1.56,0.192c-0.24,0.128-0.36,0.512-0.36,1.152v9.456
		c0,1.28,0.271,2.289,0.816,3.024c0.544,0.736,1.328,1.104,2.352,1.104c0.928,0,1.648-0.072,2.16-0.216
		c0.511-0.144,0.976-0.36,1.392-0.648c0.063-0.063,0.127-0.096,0.192-0.096c0.127,0,0.216,0.072,0.264,0.216
		c0.048,0.144,0.072,0.296,0.072,0.456c0,0.16-0.264,0.48-0.792,0.96s-1.216,0.928-2.064,1.344
		C88.994-45.966,88.074-45.757,87.082-45.757z"/>
	<path fill="#0D4482" d="M104.314-45.757c-1.792,0-3.408-0.416-4.848-1.248c-1.44-0.832-2.584-1.975-3.432-3.432
		c-0.849-1.456-1.272-3.112-1.272-4.968c0-1.344,0.264-2.656,0.792-3.936c0.528-1.279,1.272-2.448,2.232-3.504s2.08-1.896,3.36-2.52
		c1.279-0.624,2.656-0.936,4.128-0.936c1.855,0,3.528,0.449,5.016,1.344c1.488,0.896,2.671,2.072,3.552,3.528
		c0.88,1.457,1.32,3.048,1.32,4.776c0,1.856-0.408,3.617-1.224,5.28c-0.816,1.664-2.024,3.016-3.624,4.056
		C108.714-46.278,106.714-45.757,104.314-45.757z M105.323-47.197c1.087,0,2.064-0.208,2.928-0.624
		c0.864-0.416,1.536-1.087,2.016-2.016c0.384-0.735,0.64-1.632,0.768-2.688c0.127-1.056,0.192-2.047,0.192-2.976
		c0-1.536-0.281-3.016-0.84-4.44c-0.561-1.423-1.344-2.592-2.352-3.504c-1.008-0.912-2.201-1.368-3.576-1.368
		c-0.864,0-1.64,0.136-2.328,0.408c-0.688,0.272-1.32,0.776-1.896,1.512c-0.64,0.8-1.056,1.776-1.248,2.928
		c-0.192,1.152-0.288,2.304-0.288,3.456c0,1.568,0.288,3.064,0.864,4.488s1.36,2.584,2.352,3.48
		C102.906-47.645,104.042-47.197,105.323-47.197z"/>
	<path fill="#0D4482" d="M143.578-45.517c-0.065,0-0.168-0.064-0.312-0.192c-0.144-0.128-0.216-0.225-0.216-0.288
		c0-0.32,0.04-0.775,0.12-1.368c0.08-0.592,0.12-1.096,0.12-1.512v-0.288c-0.48,0.736-1.248,1.488-2.304,2.256
		s-2.384,1.152-3.984,1.152c-1.824,0-3.4-0.48-4.728-1.44c-1.328-0.96-2.352-2.191-3.072-3.696c-0.72-1.504-1.08-3.056-1.08-4.656
		c0-1.855,0.432-3.6,1.296-5.232c0.864-1.632,2.104-2.959,3.72-3.984c1.616-1.024,3.544-1.536,5.784-1.536
		c0.64,0,1.288,0.056,1.944,0.168c0.656,0.113,1.16,0.232,1.512,0.36c0.288,0.096,0.496,0.144,0.624,0.144
		c0.224,0,0.336-0.384,0.336-1.152v-6.816c0-1.312-0.208-2.191-0.624-2.64c-0.416-0.448-1.008-0.736-1.776-0.864
		c-0.288-0.064-0.432-0.271-0.432-0.624c0-0.288,0.127-0.48,0.384-0.576c1.408-0.352,2.512-0.688,3.312-1.008
		c0.8-0.32,1.424-0.576,1.872-0.768c0.127-0.064,0.248-0.104,0.36-0.12c0.111-0.016,0.199-0.024,0.264-0.024
		c0.192,0,0.304,0.096,0.336,0.288c0,0.192-0.024,0.521-0.072,0.984c-0.048,0.464-0.104,1.145-0.168,2.04
		c-0.064,0.896-0.096,2.064-0.096,3.504v21.696c0,1.088,0.08,1.88,0.24,2.376c0.16,0.496,0.416,0.744,0.768,0.744
		c0.16,0,0.439-0.016,0.84-0.048c0.4-0.031,0.808-0.064,1.224-0.096c0.576-0.031,0.864,0.113,0.864,0.432
		c0,0.224-0.072,0.425-0.216,0.6c-0.144,0.176-0.296,0.264-0.456,0.264c-0.896,0.128-1.776,0.312-2.64,0.552
		c-0.864,0.24-1.856,0.6-2.976,1.08c-0.256,0.127-0.424,0.208-0.504,0.24C143.762-45.533,143.674-45.517,143.578-45.517z
		 M138.73-48.253c0.832,0,1.647-0.216,2.448-0.648c0.8-0.432,1.504-1,2.112-1.704l0.048-8.64c0-0.864-0.248-1.711-0.744-2.544
		c-0.497-0.832-1.184-1.512-2.064-2.04c-0.88-0.528-1.913-0.792-3.096-0.792c-0.737,0-1.568,0.224-2.496,0.672
		c-0.929,0.449-1.728,1.241-2.4,2.376c-0.672,1.136-1.008,2.776-1.008,4.92c0,1.824,0.271,3.288,0.816,4.392
		c0.544,1.104,1.208,1.944,1.992,2.52c0.784,0.576,1.584,0.968,2.4,1.176C137.554-48.357,138.218-48.253,138.73-48.253z"/>
	<path fill="#0D4482" d="M160.954-45.709c-1.761,0-3.296-0.432-4.608-1.296c-1.312-0.864-2.336-2.088-3.072-3.672
		c-0.736-1.584-1.104-3.416-1.104-5.496c0-1.855,0.424-3.543,1.272-5.064c0.848-1.52,1.976-2.743,3.384-3.672
		c1.407-0.928,2.943-1.392,4.607-1.392c1.28,0,2.416,0.256,3.408,0.768c0.991,0.512,1.768,1.224,2.328,2.136
		c0.56,0.912,0.84,1.96,0.84,3.144c0,0.993-0.479,1.488-1.439,1.488h-10.128c-0.449,0-0.761,0.12-0.937,0.36
		c-0.176,0.24-0.264,0.712-0.264,1.416c0,1.536,0.336,2.937,1.008,4.2c0.672,1.264,1.567,2.272,2.688,3.024
		c1.12,0.752,2.353,1.128,3.696,1.128c0.96,0,1.832-0.184,2.616-0.552c0.784-0.368,1.479-0.904,2.088-1.608
		c0.128-0.16,0.224-0.264,0.288-0.312c0.063-0.048,0.144-0.072,0.24-0.072c0.256,0,0.384,0.161,0.384,0.48
		c0,0.608-0.288,1.28-0.864,2.016c-0.479,0.608-1.056,1.136-1.728,1.584c-0.672,0.448-1.409,0.792-2.208,1.032
		C162.65-45.829,161.819-45.709,160.954-45.709z M156.538-60.253h4.368c0.768,0,1.423-0.016,1.968-0.048
		c0.544-0.031,1.071-0.096,1.584-0.192c0.16-0.032,0.264-0.136,0.312-0.312c0.049-0.175,0.072-0.424,0.072-0.744
		c0-0.928-0.408-1.72-1.224-2.376c-0.816-0.655-1.784-0.984-2.904-0.984c-0.736,0-1.472,0.216-2.208,0.648s-1.344,0.968-1.824,1.608
		c-0.479,0.641-0.72,1.28-0.72,1.92C155.962-60.413,156.155-60.253,156.538-60.253z"/>
	<path fill="#0D4482" d="M175.066-45.757c-0.576,0-1.16-0.224-1.752-0.672c-0.593-0.448-1.089-0.992-1.488-1.632
		c-0.4-0.64-0.6-1.248-0.6-1.824c0-1.024,0.271-1.824,0.815-2.4s1.408-1.104,2.592-1.584l4.896-2.016
		c0.64-0.256,1.016-0.48,1.128-0.672c0.111-0.192,0.184-0.607,0.216-1.248l0.096-3.072c0.032-0.832-0.2-1.551-0.695-2.16
		c-0.497-0.607-1.208-0.912-2.136-0.912c-0.48,0-0.961,0.08-1.44,0.24c-0.48,0.16-0.881,0.368-1.2,0.624
		c-0.191,0.128-0.32,0.32-0.384,0.576c-0.064,0.256-0.096,0.528-0.096,0.816c0,0.128,0.007,0.272,0.023,0.432
		c0.016,0.161,0.024,0.305,0.024,0.432c0,0.161-0.2,0.376-0.601,0.648c-0.4,0.272-0.848,0.512-1.344,0.72
		c-0.496,0.208-0.904,0.312-1.224,0.312c-0.161,0-0.288-0.04-0.384-0.12c-0.097-0.08-0.145-0.184-0.145-0.312
		c0-0.512,0.168-1.063,0.504-1.656c0.336-0.592,0.808-1.144,1.416-1.656c0.736-0.672,1.536-1.264,2.4-1.776
		c0.863-0.511,1.711-0.912,2.544-1.2c0.832-0.288,1.567-0.432,2.208-0.432c1.151,0,2.104,0.408,2.855,1.224s1.112,1.832,1.08,3.048
		l-0.239,11.52c-0.033,0.672,0.119,1.217,0.455,1.632c0.337,0.417,0.76,0.624,1.272,0.624c0.8,0,1.392-0.175,1.776-0.528
		c0.159-0.16,0.288-0.24,0.384-0.24c0.159,0,0.288,0.048,0.384,0.144c0.096,0.096,0.144,0.225,0.144,0.384
		c0,0.353-0.176,0.704-0.527,1.056c-0.513,0.512-1.064,0.92-1.656,1.224c-0.593,0.304-1.145,0.456-1.656,0.456
		c-1.472,0-2.64-0.832-3.504-2.496h-0.144c-1.057,0.864-2.064,1.497-3.024,1.896C177.081-45.957,176.089-45.757,175.066-45.757z
		 M177.322-48.061c0.64,0,1.184-0.104,1.632-0.312c0.448-0.208,0.848-0.488,1.2-0.84c0.159-0.16,0.295-0.375,0.408-0.648
		c0.111-0.271,0.184-0.711,0.216-1.32l0.096-2.352c0.031-0.352,0.016-0.607-0.048-0.768c-0.064-0.16-0.192-0.24-0.384-0.24
		c-0.064,0-0.177,0.016-0.336,0.048c-0.161,0.032-0.368,0.096-0.624,0.192c-1.696,0.608-2.873,1.241-3.528,1.896
		c-0.656,0.656-0.984,1.256-0.984,1.8c0,0.833,0.248,1.464,0.744,1.896C176.209-48.277,176.745-48.061,177.322-48.061z"/>
	<path fill="#0D4482" d="M190.474-46.285c-0.16,0-0.36-0.024-0.6-0.072c-0.24-0.048-0.36-0.168-0.36-0.36
		c0-0.256,0.12-0.439,0.36-0.552c0.239-0.112,0.487-0.216,0.743-0.312c0.48-0.16,0.944-0.344,1.393-0.552
		c0.447-0.208,0.672-0.631,0.672-1.272v-24.192c0-0.928-0.168-1.704-0.504-2.328s-0.904-1.016-1.704-1.176
		c-0.257-0.064-0.384-0.271-0.384-0.624c0-0.32,0.111-0.512,0.336-0.576c0.831-0.192,1.552-0.392,2.16-0.6
		c0.607-0.208,1.176-0.423,1.704-0.648c0.527-0.223,1.047-0.432,1.56-0.624c0.128-0.063,0.224-0.096,0.288-0.096
		c0.063,0,0.12,0.041,0.168,0.12c0.048,0.081,0.072,0.152,0.072,0.216c0,0.288-0.057,0.904-0.168,1.848
		c-0.113,0.944-0.168,2.504-0.168,4.68v24c0,0.641,0.223,1.064,0.672,1.272c0.447,0.208,0.912,0.393,1.392,0.552
		c0.256,0.096,0.504,0.2,0.744,0.312c0.24,0.112,0.36,0.296,0.36,0.552c0,0.192-0.12,0.312-0.36,0.36
		c-0.24,0.048-0.44,0.072-0.6,0.072c-0.608,0-1.097-0.024-1.465-0.072c-0.368-0.048-0.72-0.087-1.056-0.12
		c-0.336-0.032-0.792-0.048-1.368-0.048c-0.544,0-0.992,0.017-1.344,0.048c-0.353,0.032-0.704,0.072-1.056,0.12
		C191.61-46.309,191.114-46.285,190.474-46.285z"/>
	<path fill="#0D4482" d="M220.569-45.325c-0.064,0-0.128-0.032-0.191-0.096c-0.064-0.064-0.112-0.144-0.145-0.24l-6.672-16.56
		c-0.224-0.64-0.576-1.16-1.056-1.56c-0.48-0.4-0.96-0.664-1.44-0.792c-0.256-0.096-0.504-0.208-0.744-0.336
		c-0.239-0.127-0.359-0.304-0.359-0.528c0-0.192,0.12-0.312,0.359-0.36c0.24-0.048,0.439-0.072,0.601-0.072
		c0.415,0,0.808,0.017,1.176,0.048c0.367,0.032,0.744,0.072,1.128,0.12s0.784,0.072,1.2,0.072c0.447,0,0.896-0.024,1.344-0.072
		s0.888-0.088,1.32-0.12c0.432-0.031,0.871-0.048,1.32-0.048c0.127,0,0.319,0.024,0.575,0.072c0.256,0.048,0.385,0.168,0.385,0.36
		c0,0.224-0.12,0.4-0.36,0.528c-0.24,0.128-0.488,0.24-0.744,0.336c-0.32,0.096-0.568,0.329-0.744,0.696
		c-0.176,0.369-0.264,0.776-0.264,1.224c0,0.417,0.079,0.833,0.24,1.248l3.743,9.648c0.032,0.128,0.112,0.192,0.24,0.192
		s0.208-0.063,0.24-0.192l3.264-7.776c0.16-0.416,0.265-0.816,0.313-1.2c0.048-0.384,0.072-0.751,0.072-1.104
		c0-0.703-0.272-1.279-0.816-1.728c-0.545-0.448-1.088-0.784-1.632-1.008c-0.257-0.096-0.504-0.208-0.744-0.336
		c-0.24-0.127-0.36-0.304-0.36-0.528c0-0.192,0.112-0.312,0.336-0.36c0.224-0.048,0.433-0.072,0.624-0.072
		c0.448,0,0.937,0.041,1.464,0.12c0.528,0.08,1.24,0.12,2.137,0.12c0.896,0,1.663-0.04,2.304-0.12c0.64-0.08,1.216-0.12,1.729-0.12
		c0.159,0,0.359,0.024,0.6,0.072c0.24,0.048,0.36,0.168,0.36,0.36c0,0.224-0.12,0.4-0.36,0.528c-0.24,0.128-0.488,0.24-0.744,0.336
		c-0.353,0.128-0.713,0.305-1.08,0.528c-0.368,0.225-0.552,0.624-0.552,1.2c0,0.192,0.023,0.408,0.072,0.648
		c0.048,0.24,0.136,0.504,0.264,0.792l3.6,9.264c0.16,0.353,0.288,0.528,0.385,0.528c0.127,0,0.255-0.16,0.384-0.48l3.647-8.496
		c0.128-0.255,0.217-0.576,0.265-0.96c0.048-0.384,0.071-0.688,0.071-0.912c0-0.576-0.191-1.039-0.575-1.392
		c-0.385-0.352-0.753-0.592-1.104-0.72c-0.257-0.096-0.504-0.208-0.744-0.336c-0.24-0.127-0.359-0.304-0.359-0.528
		c0-0.192,0.119-0.312,0.359-0.36c0.24-0.048,0.439-0.072,0.601-0.072c0.703,0,1.264,0.041,1.68,0.12
		c0.415,0.08,1.056,0.12,1.92,0.12c0.607,0,1.039-0.024,1.296-0.072c0.256-0.048,0.48-0.088,0.672-0.12
		c0.192-0.031,0.464-0.048,0.816-0.048c0.191,0,0.399,0.024,0.624,0.072c0.224,0.048,0.336,0.168,0.336,0.36
		c0,0.224-0.12,0.4-0.36,0.528c-0.24,0.128-0.488,0.24-0.744,0.336c-0.479,0.128-0.944,0.504-1.392,1.128
		c-0.448,0.624-0.833,1.304-1.152,2.04l-6.575,15.744c-0.097,0.224-0.24,0.336-0.433,0.336c-0.128,0-0.257-0.112-0.384-0.336
		l-4.992-12.384c-0.096-0.255-0.191-0.399-0.288-0.432c-0.096,0-0.208,0.16-0.336,0.48l-5.231,12.336
		C220.857-45.437,220.729-45.325,220.569-45.325z"/>
	<path fill="#0D4482" d="M244.712-46.285c-0.288,0-0.521-0.041-0.696-0.12s-0.264-0.216-0.264-0.408c0-0.256,0.12-0.432,0.359-0.528
		c0.24-0.096,0.487-0.175,0.744-0.24c0.672-0.16,1.184-0.36,1.536-0.6c0.352-0.24,0.528-0.648,0.528-1.224v-10.416
		c0-0.864-0.152-1.632-0.456-2.304c-0.305-0.672-0.872-1.072-1.704-1.2c-0.161-0.032-0.28-0.096-0.36-0.192
		c-0.08-0.096-0.12-0.24-0.12-0.432c0-0.352,0.145-0.544,0.433-0.576c1.279-0.288,2.335-0.679,3.168-1.176
		c0.831-0.496,1.455-0.904,1.872-1.224c0.288-0.224,0.511-0.336,0.672-0.336c0.191,0,0.288,0.08,0.288,0.24
		c0,0.256-0.041,0.76-0.12,1.512c-0.08,0.752-0.152,1.584-0.216,2.496c-0.064,0.912-0.097,1.736-0.097,2.472v11.136
		c0,0.544,0.184,0.944,0.553,1.2c0.367,0.256,0.871,0.464,1.512,0.624c0.256,0.064,0.504,0.144,0.744,0.24
		c0.239,0.096,0.359,0.272,0.359,0.528c0,0.352-0.32,0.528-0.96,0.528c-0.608,0-1.097-0.024-1.464-0.072
		c-0.368-0.048-0.72-0.087-1.056-0.12c-0.336-0.032-0.792-0.048-1.368-0.048c-0.545,0-0.992,0.017-1.344,0.048
		c-0.353,0.032-0.704,0.072-1.057,0.12C245.847-46.309,245.352-46.285,244.712-46.285z M248.552-71.197
		c-0.672,0-1.24-0.231-1.704-0.696c-0.464-0.464-0.696-1.032-0.696-1.704c0-0.704,0.232-1.288,0.696-1.752
		c0.464-0.463,1.032-0.696,1.704-0.696c0.703,0,1.288,0.233,1.752,0.696c0.464,0.464,0.696,1.048,0.696,1.752
		c0,0.672-0.232,1.24-0.696,1.704C249.84-71.428,249.255-71.197,248.552-71.197z"/>
	<path fill="#0D4482" d="M263.432-45.757c-1.568,0-2.793-0.48-3.672-1.44c-0.881-0.96-1.32-2.383-1.32-4.272v-11.136
		c0-0.256-0.096-0.44-0.288-0.552c-0.192-0.112-0.608-0.168-1.248-0.168h-0.288c-0.16,0-0.296-0.104-0.408-0.312
		c-0.112-0.208-0.168-0.424-0.168-0.648c0-0.064,0.048-0.16,0.145-0.288c0.096-0.127,0.159-0.208,0.191-0.24
		c0.64-0.448,1.225-0.896,1.752-1.344c0.528-0.448,1.009-0.888,1.44-1.32c0.432-0.432,0.792-0.824,1.08-1.176
		c0.159-0.16,0.296-0.295,0.408-0.408c0.111-0.112,0.247-0.168,0.407-0.168s0.313,0.032,0.456,0.096
		c0.145,0.064,0.2,0.208,0.168,0.432l-0.239,2.16c-0.032,0.353,0.048,0.592,0.239,0.72c0.192,0.128,0.496,0.192,0.912,0.192h5.473
		c0.127,0,0.239,0.104,0.336,0.312c0.096,0.208,0.144,0.456,0.144,0.744s-0.048,0.568-0.144,0.84
		c-0.097,0.272-0.209,0.408-0.336,0.408h-4.752c-0.801,0-1.32,0.064-1.561,0.192c-0.24,0.128-0.359,0.512-0.359,1.152v9.456
		c0,1.28,0.271,2.289,0.815,3.024c0.544,0.736,1.328,1.104,2.353,1.104c0.928,0,1.647-0.072,2.159-0.216s0.977-0.36,1.393-0.648
		c0.063-0.063,0.127-0.096,0.191-0.096c0.128,0,0.217,0.072,0.265,0.216s0.072,0.296,0.072,0.456c0,0.16-0.265,0.48-0.792,0.96
		c-0.528,0.48-1.217,0.928-2.064,1.344C265.343-45.966,264.423-45.757,263.432-45.757z"/>
	<path fill="#0D4482" d="M271.304-46.285c-0.641,0-0.96-0.176-0.96-0.528c0-0.288,0.367-0.544,1.104-0.768
		c0.48-0.16,0.937-0.368,1.368-0.624c0.433-0.256,0.664-0.704,0.696-1.344v-24.048c0-0.864-0.145-1.624-0.432-2.28
		c-0.288-0.655-0.849-1.047-1.681-1.176c-0.288-0.064-0.432-0.288-0.432-0.672c0-0.288,0.127-0.48,0.384-0.576
		c0.448-0.16,0.984-0.336,1.608-0.528s1.271-0.408,1.943-0.648c0.672-0.24,1.264-0.472,1.776-0.696
		c0.128-0.063,0.224-0.096,0.288-0.096c0.096,0,0.176,0.032,0.24,0.096c0.063,0.064,0.096,0.144,0.096,0.24
		c0,0.192-0.041,0.464-0.12,0.816c-0.08,0.353-0.152,0.96-0.216,1.824c-0.064,0.864-0.096,2.16-0.096,3.888v8.352
		c0,0.512,0.023,0.88,0.071,1.104c0.048,0.224,0.136,0.449,0.265,0.672c0.511-0.384,1.144-0.808,1.896-1.272
		c0.752-0.463,1.592-0.872,2.521-1.224c0.928-0.352,1.888-0.528,2.88-0.528c1.567,0,2.871,0.617,3.912,1.848
		c1.039,1.232,1.56,2.792,1.56,4.68v10.08c0,0.641,0.208,1.112,0.624,1.416c0.416,0.305,0.864,0.537,1.344,0.696
		c0.352,0.096,0.624,0.2,0.816,0.312c0.191,0.112,0.288,0.264,0.288,0.456c0,0.352-0.32,0.528-0.96,0.528
		c-0.641,0-1.128-0.024-1.464-0.072c-0.336-0.048-0.656-0.087-0.96-0.12c-0.305-0.032-0.744-0.048-1.32-0.048
		c-0.545,0-0.977,0.017-1.296,0.048c-0.32,0.032-0.648,0.072-0.984,0.12c-0.336,0.048-0.824,0.072-1.464,0.072
		c-0.641,0-0.96-0.176-0.96-0.528c0-0.224,0.096-0.376,0.288-0.456c0.192-0.08,0.464-0.184,0.815-0.312
		c0.48-0.16,0.912-0.392,1.297-0.696c0.384-0.304,0.575-0.775,0.575-1.416v-9.792c0-0.799-0.232-1.528-0.695-2.184
		c-0.465-0.655-1.032-1.176-1.704-1.56c-0.672-0.384-1.36-0.576-2.064-0.576c-0.608,0-1.313,0.088-2.111,0.264
		c-0.801,0.176-1.425,0.44-1.872,0.792c-0.513,0.416-0.856,0.848-1.032,1.296c-0.177,0.448-0.264,1.168-0.264,2.16v9.744
		c0.031,0.641,0.231,1.088,0.6,1.344c0.367,0.256,0.792,0.464,1.271,0.624c0.353,0.096,0.616,0.2,0.792,0.312
		c0.176,0.112,0.265,0.264,0.265,0.456c0,0.352-0.32,0.528-0.96,0.528c-0.641,0-1.121-0.024-1.44-0.072
		c-0.32-0.048-0.624-0.087-0.912-0.12c-0.288-0.032-0.72-0.048-1.296-0.048c-0.544,0-0.983,0.017-1.319,0.048
		c-0.337,0.032-0.688,0.072-1.057,0.12C272.448-46.309,271.944-46.285,271.304-46.285z"/>
	<path fill="#0D4482" d="M-8.629,26.243c-1.568,0-2.792-0.48-3.672-1.44c-0.88-0.96-1.32-2.383-1.32-4.272V9.395
		c0-0.256-0.096-0.44-0.288-0.552c-0.192-0.112-0.608-0.168-1.248-0.168h-0.288c-0.16,0-0.296-0.104-0.408-0.312
		c-0.113-0.208-0.168-0.424-0.168-0.648c0-0.064,0.048-0.16,0.144-0.288c0.096-0.127,0.16-0.208,0.192-0.24
		c0.64-0.448,1.224-0.896,1.752-1.344c0.528-0.448,1.008-0.888,1.44-1.32c0.432-0.432,0.792-0.824,1.08-1.176
		c0.16-0.16,0.295-0.295,0.408-0.408c0.112-0.112,0.248-0.168,0.408-0.168c0.16,0,0.312,0.032,0.456,0.096
		c0.144,0.064,0.199,0.208,0.168,0.432l-0.24,2.16c-0.032,0.353,0.048,0.592,0.24,0.72c0.192,0.128,0.496,0.192,0.912,0.192h5.472
		c0.127,0,0.24,0.104,0.336,0.312c0.096,0.208,0.144,0.456,0.144,0.744s-0.048,0.568-0.144,0.84
		c-0.096,0.272-0.209,0.408-0.336,0.408h-4.752c-0.8,0-1.32,0.064-1.56,0.192c-0.24,0.128-0.36,0.512-0.36,1.152v9.456
		c0,1.28,0.271,2.289,0.816,3.024c0.544,0.736,1.328,1.104,2.352,1.104c0.928,0,1.648-0.072,2.16-0.216
		c0.511-0.144,0.976-0.36,1.392-0.648c0.063-0.063,0.127-0.096,0.192-0.096c0.127,0,0.216,0.072,0.264,0.216
		c0.048,0.144,0.072,0.296,0.072,0.456c0,0.16-0.264,0.48-0.792,0.96s-1.216,0.928-2.064,1.344
		C-6.717,26.034-7.637,26.243-8.629,26.243z"/>
	<path fill="#0D4482" d="M-0.757,25.715c-0.641,0-0.96-0.176-0.96-0.528c0-0.288,0.367-0.544,1.104-0.768
		c0.48-0.16,0.936-0.368,1.368-0.624c0.432-0.256,0.664-0.704,0.696-1.344V-1.597c0-0.864-0.144-1.624-0.432-2.28
		c-0.288-0.655-0.848-1.047-1.68-1.176c-0.288-0.064-0.432-0.288-0.432-0.672c0-0.288,0.127-0.48,0.384-0.576
		c0.448-0.16,0.984-0.336,1.608-0.528s1.272-0.408,1.944-0.648c0.672-0.24,1.264-0.472,1.776-0.696
		c0.127-0.063,0.224-0.096,0.288-0.096c0.096,0,0.175,0.032,0.24,0.096c0.064,0.064,0.096,0.144,0.096,0.24
		c0,0.192-0.041,0.464-0.12,0.816c-0.08,0.353-0.152,0.96-0.216,1.824c-0.064,0.864-0.096,2.16-0.096,3.888v8.352
		c0,0.512,0.024,0.88,0.072,1.104C4.931,8.275,5.019,8.5,5.147,8.723c0.512-0.384,1.144-0.808,1.896-1.272
		c0.751-0.463,1.592-0.872,2.52-1.224c0.928-0.352,1.888-0.528,2.88-0.528c1.568,0,2.872,0.617,3.912,1.848
		c1.04,1.232,1.56,2.792,1.56,4.68v10.08c0,0.641,0.208,1.112,0.624,1.416c0.416,0.305,0.864,0.537,1.344,0.696
		c0.352,0.096,0.624,0.2,0.816,0.312c0.192,0.112,0.288,0.264,0.288,0.456c0,0.352-0.32,0.528-0.96,0.528s-1.128-0.024-1.464-0.072
		c-0.336-0.048-0.656-0.087-0.96-0.12c-0.304-0.032-0.744-0.048-1.32-0.048c-0.544,0-0.977,0.017-1.296,0.048
		c-0.32,0.032-0.648,0.072-0.984,0.12c-0.336,0.048-0.824,0.072-1.464,0.072c-0.641,0-0.96-0.176-0.96-0.528
		c0-0.224,0.096-0.376,0.288-0.456c0.192-0.08,0.463-0.184,0.816-0.312c0.48-0.16,0.912-0.392,1.296-0.696
		c0.384-0.304,0.576-0.775,0.576-1.416v-9.792c0-0.799-0.232-1.528-0.696-2.184c-0.464-0.655-1.032-1.176-1.704-1.56
		c-0.672-0.384-1.361-0.576-2.064-0.576c-0.608,0-1.313,0.088-2.112,0.264c-0.8,0.176-1.424,0.44-1.872,0.792
		c-0.512,0.416-0.856,0.848-1.032,1.296c-0.176,0.448-0.264,1.168-0.264,2.16v9.744c0.032,0.641,0.232,1.088,0.6,1.344
		c0.368,0.256,0.792,0.464,1.272,0.624c0.352,0.096,0.616,0.2,0.792,0.312c0.175,0.112,0.264,0.264,0.264,0.456
		c0,0.352-0.32,0.528-0.96,0.528c-0.641,0-1.121-0.024-1.44-0.072c-0.32-0.048-0.624-0.087-0.912-0.12
		c-0.288-0.032-0.72-0.048-1.296-0.048c-0.544,0-0.984,0.017-1.32,0.048c-0.336,0.032-0.688,0.072-1.056,0.12
		C0.386,25.691-0.117,25.715-0.757,25.715z"/>
	<path fill="#0D4482" d="M32.315,26.291c-1.76,0-3.296-0.432-4.608-1.296c-1.313-0.864-2.336-2.088-3.072-3.672
		c-0.736-1.584-1.104-3.416-1.104-5.496c0-1.855,0.424-3.543,1.272-5.064c0.848-1.52,1.976-2.743,3.384-3.672
		c1.408-0.928,2.943-1.392,4.608-1.392c1.279,0,2.416,0.256,3.408,0.768c0.992,0.512,1.768,1.224,2.328,2.136
		c0.56,0.912,0.84,1.96,0.84,3.144c0,0.993-0.48,1.488-1.44,1.488H27.803c-0.448,0-0.76,0.12-0.936,0.36
		c-0.176,0.24-0.264,0.712-0.264,1.416c0,1.536,0.336,2.937,1.008,4.2c0.672,1.264,1.567,2.272,2.688,3.024
		c1.12,0.752,2.352,1.128,3.696,1.128c0.96,0,1.832-0.184,2.616-0.552c0.784-0.368,1.479-0.904,2.088-1.608
		c0.127-0.16,0.224-0.264,0.288-0.312c0.064-0.048,0.144-0.072,0.24-0.072c0.255,0,0.384,0.161,0.384,0.48
		c0,0.608-0.288,1.28-0.864,2.016c-0.48,0.608-1.056,1.136-1.728,1.584c-0.672,0.448-1.409,0.792-2.208,1.032
		C34.011,26.171,33.179,26.291,32.315,26.291z M27.899,11.747h4.368c0.768,0,1.424-0.016,1.968-0.048
		c0.544-0.031,1.072-0.096,1.584-0.192c0.16-0.032,0.264-0.136,0.312-0.312c0.048-0.175,0.072-0.424,0.072-0.744
		c0-0.928-0.408-1.72-1.224-2.376c-0.816-0.655-1.785-0.984-2.904-0.984c-0.736,0-1.472,0.216-2.208,0.648
		c-0.736,0.432-1.344,0.968-1.824,1.608c-0.48,0.641-0.72,1.28-0.72,1.92C27.323,11.587,27.515,11.747,27.899,11.747z"/>
	<path fill="#0D4482" d="M61.259,26.675c-0.064,0-0.128-0.032-0.192-0.096c-0.064-0.064-0.112-0.144-0.144-0.24L54.25,9.779
		c-0.224-0.64-0.576-1.16-1.056-1.56c-0.48-0.4-0.96-0.664-1.44-0.792c-0.257-0.096-0.504-0.208-0.744-0.336
		c-0.24-0.127-0.36-0.304-0.36-0.528c0-0.192,0.12-0.312,0.36-0.36c0.24-0.048,0.439-0.072,0.6-0.072
		c0.416,0,0.808,0.017,1.176,0.048c0.368,0.032,0.744,0.072,1.128,0.12c0.384,0.048,0.784,0.072,1.2,0.072
		c0.448,0,0.896-0.024,1.344-0.072c0.448-0.048,0.888-0.088,1.32-0.12c0.432-0.031,0.871-0.048,1.32-0.048
		c0.127,0,0.319,0.024,0.576,0.072c0.255,0.048,0.384,0.168,0.384,0.36c0,0.224-0.12,0.4-0.36,0.528
		c-0.24,0.128-0.488,0.24-0.744,0.336c-0.32,0.096-0.568,0.329-0.744,0.696c-0.176,0.369-0.264,0.776-0.264,1.224
		c0,0.417,0.08,0.833,0.24,1.248l3.744,9.648c0.031,0.128,0.112,0.192,0.24,0.192s0.208-0.063,0.24-0.192l3.264-7.776
		c0.16-0.416,0.264-0.816,0.312-1.2c0.048-0.384,0.072-0.751,0.072-1.104c0-0.703-0.272-1.279-0.816-1.728
		c-0.544-0.448-1.088-0.784-1.632-1.008c-0.257-0.096-0.504-0.208-0.744-0.336c-0.24-0.127-0.36-0.304-0.36-0.528
		c0-0.192,0.111-0.312,0.336-0.36c0.223-0.048,0.432-0.072,0.624-0.072c0.448,0,0.936,0.041,1.464,0.12
		c0.528,0.08,1.24,0.12,2.136,0.12c0.896,0,1.664-0.04,2.304-0.12c0.64-0.08,1.216-0.12,1.728-0.12c0.16,0,0.36,0.024,0.6,0.072
		c0.24,0.048,0.36,0.168,0.36,0.36c0,0.224-0.12,0.4-0.36,0.528c-0.24,0.128-0.488,0.24-0.744,0.336
		c-0.353,0.128-0.712,0.305-1.08,0.528c-0.368,0.225-0.552,0.624-0.552,1.2c0,0.192,0.024,0.408,0.072,0.648
		c0.048,0.24,0.136,0.504,0.264,0.792l3.6,9.264c0.16,0.353,0.288,0.528,0.384,0.528c0.127,0,0.256-0.16,0.384-0.48l3.648-8.496
		c0.127-0.255,0.216-0.576,0.264-0.96c0.048-0.384,0.072-0.688,0.072-0.912c0-0.576-0.192-1.039-0.576-1.392
		c-0.384-0.352-0.752-0.592-1.104-0.72c-0.256-0.096-0.504-0.208-0.744-0.336c-0.24-0.127-0.36-0.304-0.36-0.528
		c0-0.192,0.12-0.312,0.36-0.36c0.24-0.048,0.44-0.072,0.6-0.072c0.704,0,1.264,0.041,1.68,0.12c0.416,0.08,1.056,0.12,1.92,0.12
		c0.607,0,1.04-0.024,1.296-0.072c0.256-0.048,0.48-0.088,0.672-0.12c0.192-0.031,0.463-0.048,0.816-0.048
		c0.192,0,0.399,0.024,0.624,0.072c0.223,0.048,0.336,0.168,0.336,0.36c0,0.224-0.12,0.4-0.36,0.528
		c-0.24,0.128-0.488,0.24-0.744,0.336c-0.48,0.128-0.944,0.504-1.392,1.128c-0.449,0.624-0.833,1.304-1.152,2.04l-6.576,15.744
		c-0.096,0.224-0.24,0.336-0.432,0.336c-0.128,0-0.256-0.112-0.384-0.336l-4.992-12.384c-0.096-0.255-0.192-0.399-0.288-0.432
		c-0.096,0-0.208,0.16-0.336,0.48l-5.232,12.336C61.547,26.563,61.418,26.675,61.259,26.675z"/>
	<path fill="#0D4482" d="M85.162,25.715c-0.641,0-0.96-0.176-0.96-0.528c0-0.288,0.367-0.544,1.104-0.768
		c0.48-0.16,0.936-0.368,1.368-0.624c0.432-0.256,0.664-0.704,0.696-1.344V-1.597c0-0.864-0.144-1.624-0.432-2.28
		c-0.288-0.655-0.848-1.047-1.68-1.176c-0.288-0.064-0.432-0.288-0.432-0.672c0-0.288,0.127-0.48,0.384-0.576
		c0.448-0.16,0.984-0.336,1.608-0.528s1.272-0.408,1.944-0.648c0.672-0.24,1.264-0.472,1.776-0.696
		c0.127-0.063,0.224-0.096,0.288-0.096c0.096,0,0.175,0.032,0.24,0.096c0.064,0.064,0.096,0.144,0.096,0.24
		c0,0.192-0.041,0.464-0.12,0.816c-0.08,0.353-0.152,0.96-0.216,1.824c-0.064,0.864-0.096,2.16-0.096,3.888v8.352
		c0,0.512,0.024,0.88,0.072,1.104c0.048,0.224,0.136,0.449,0.264,0.672c0.512-0.384,1.144-0.808,1.896-1.272
		c0.751-0.463,1.592-0.872,2.52-1.224c0.928-0.352,1.888-0.528,2.88-0.528c1.568,0,2.872,0.617,3.912,1.848
		c1.04,1.232,1.56,2.792,1.56,4.68v10.08c0,0.641,0.208,1.112,0.624,1.416c0.416,0.305,0.864,0.537,1.344,0.696
		c0.352,0.096,0.624,0.2,0.816,0.312c0.192,0.112,0.288,0.264,0.288,0.456c0,0.352-0.32,0.528-0.96,0.528s-1.128-0.024-1.464-0.072
		c-0.336-0.048-0.656-0.087-0.96-0.12c-0.304-0.032-0.744-0.048-1.32-0.048c-0.544,0-0.977,0.017-1.296,0.048
		c-0.32,0.032-0.648,0.072-0.984,0.12c-0.336,0.048-0.824,0.072-1.464,0.072c-0.641,0-0.96-0.176-0.96-0.528
		c0-0.224,0.096-0.376,0.288-0.456c0.192-0.08,0.463-0.184,0.816-0.312c0.48-0.16,0.912-0.392,1.296-0.696
		c0.384-0.304,0.576-0.775,0.576-1.416v-9.792c0-0.799-0.232-1.528-0.696-2.184c-0.464-0.655-1.032-1.176-1.704-1.56
		c-0.672-0.384-1.361-0.576-2.064-0.576c-0.608,0-1.313,0.088-2.112,0.264c-0.8,0.176-1.424,0.44-1.872,0.792
		c-0.512,0.416-0.856,0.848-1.032,1.296c-0.176,0.448-0.264,1.168-0.264,2.16v9.744c0.032,0.641,0.232,1.088,0.6,1.344
		c0.368,0.256,0.792,0.464,1.272,0.624c0.352,0.096,0.616,0.2,0.792,0.312c0.175,0.112,0.264,0.264,0.264,0.456
		c0,0.352-0.32,0.528-0.96,0.528c-0.641,0-1.121-0.024-1.44-0.072c-0.32-0.048-0.624-0.087-0.912-0.12
		c-0.288-0.032-0.72-0.048-1.296-0.048c-0.544,0-0.984,0.017-1.32,0.048c-0.336,0.032-0.688,0.072-1.056,0.12
		C86.306,25.691,85.802,25.715,85.162,25.715z"/>
	<path fill="#0D4482" d="M119.242,26.243c-1.792,0-3.408-0.416-4.848-1.248c-1.44-0.832-2.584-1.975-3.432-3.432
		c-0.849-1.456-1.272-3.112-1.272-4.968c0-1.344,0.264-2.656,0.792-3.936c0.528-1.279,1.272-2.448,2.232-3.504s2.08-1.896,3.36-2.52
		c1.279-0.624,2.656-0.936,4.128-0.936c1.855,0,3.528,0.449,5.016,1.344c1.488,0.896,2.671,2.072,3.552,3.528
		c0.88,1.457,1.32,3.048,1.32,4.776c0,1.856-0.408,3.617-1.224,5.28c-0.816,1.664-2.024,3.016-3.624,4.056
		C123.641,25.722,121.642,26.243,119.242,26.243z M120.25,24.803c1.087,0,2.064-0.208,2.928-0.624
		c0.864-0.416,1.536-1.087,2.016-2.016c0.384-0.735,0.64-1.632,0.768-2.688c0.127-1.056,0.192-2.047,0.192-2.976
		c0-1.536-0.281-3.016-0.84-4.44c-0.561-1.423-1.344-2.592-2.352-3.504c-1.008-0.912-2.201-1.368-3.576-1.368
		c-0.864,0-1.64,0.136-2.328,0.408c-0.688,0.272-1.32,0.776-1.896,1.512c-0.64,0.8-1.056,1.776-1.248,2.928
		c-0.192,1.152-0.288,2.304-0.288,3.456c0,1.568,0.288,3.064,0.864,4.488s1.36,2.584,2.352,3.48
		C117.834,24.355,118.97,24.803,120.25,24.803z"/>
	<path fill="#0D4482" d="M132.922,25.715c-0.161,0-0.36-0.024-0.6-0.072c-0.24-0.048-0.36-0.168-0.36-0.36
		c0-0.256,0.12-0.439,0.36-0.552c0.24-0.112,0.487-0.216,0.744-0.312c0.48-0.16,0.943-0.344,1.392-0.552
		c0.448-0.208,0.672-0.631,0.672-1.272V-1.597c0-0.928-0.168-1.704-0.504-2.328s-0.905-1.016-1.704-1.176
		c-0.256-0.064-0.384-0.271-0.384-0.624c0-0.32,0.112-0.512,0.336-0.576c0.832-0.192,1.552-0.392,2.16-0.6
		c0.607-0.208,1.176-0.423,1.704-0.648c0.528-0.223,1.048-0.432,1.56-0.624c0.127-0.063,0.224-0.096,0.288-0.096
		c0.063,0,0.12,0.041,0.168,0.12c0.048,0.081,0.072,0.152,0.072,0.216c0,0.288-0.056,0.904-0.168,1.848
		c-0.112,0.944-0.168,2.504-0.168,4.68v24c0,0.641,0.224,1.064,0.672,1.272c0.448,0.208,0.912,0.393,1.392,0.552
		c0.256,0.096,0.504,0.2,0.744,0.312c0.24,0.112,0.36,0.296,0.36,0.552c0,0.192-0.12,0.312-0.36,0.36
		c-0.24,0.048-0.44,0.072-0.6,0.072c-0.608,0-1.097-0.024-1.464-0.072c-0.368-0.048-0.72-0.087-1.056-0.12
		c-0.336-0.032-0.792-0.048-1.368-0.048c-0.544,0-0.992,0.017-1.344,0.048c-0.353,0.032-0.704,0.072-1.056,0.12
		C134.057,25.691,133.562,25.715,132.922,25.715z"/>
	<path fill="#0D4482" d="M152.794,26.291c-1.76,0-3.296-0.432-4.608-1.296c-1.313-0.864-2.336-2.088-3.072-3.672
		c-0.736-1.584-1.104-3.416-1.104-5.496c0-1.855,0.424-3.543,1.272-5.064c0.848-1.52,1.976-2.743,3.384-3.672
		c1.408-0.928,2.943-1.392,4.608-1.392c1.279,0,2.416,0.256,3.408,0.768c0.991,0.512,1.768,1.224,2.328,2.136
		c0.559,0.912,0.84,1.96,0.84,3.144c0,0.993-0.48,1.488-1.44,1.488h-10.128c-0.448,0-0.76,0.12-0.936,0.36
		c-0.176,0.24-0.264,0.712-0.264,1.416c0,1.536,0.336,2.937,1.008,4.2c0.672,1.264,1.567,2.272,2.688,3.024
		c1.12,0.752,2.352,1.128,3.696,1.128c0.96,0,1.832-0.184,2.616-0.552c0.784-0.368,1.48-0.904,2.089-1.608
		c0.127-0.16,0.223-0.264,0.288-0.312c0.063-0.048,0.144-0.072,0.239-0.072c0.256,0,0.384,0.161,0.384,0.48
		c0,0.608-0.287,1.28-0.863,2.016c-0.48,0.608-1.057,1.136-1.729,1.584c-0.672,0.448-1.408,0.792-2.208,1.032
		C154.49,26.171,153.657,26.291,152.794,26.291z M148.378,11.747h4.368c0.768,0,1.424-0.016,1.968-0.048
		c0.544-0.031,1.072-0.096,1.583-0.192c0.16-0.032,0.265-0.136,0.313-0.312c0.048-0.175,0.072-0.424,0.072-0.744
		c0-0.928-0.408-1.72-1.225-2.376c-0.816-0.655-1.784-0.984-2.904-0.984c-0.736,0-1.472,0.216-2.208,0.648
		c-0.736,0.432-1.344,0.968-1.824,1.608c-0.48,0.641-0.72,1.28-0.72,1.92C147.802,11.587,147.993,11.747,148.378,11.747z"/>
	<path fill="#0D4482" d="M172.761,25.715c-0.16,0-0.36-0.024-0.6-0.072c-0.24-0.048-0.36-0.168-0.36-0.36
		c0-0.256,0.12-0.439,0.36-0.552c0.239-0.112,0.487-0.216,0.743-0.312c0.48-0.16,0.944-0.344,1.393-0.552
		c0.447-0.208,0.672-0.631,0.672-1.272V-1.597c0-0.928-0.168-1.704-0.504-2.328s-0.904-1.016-1.704-1.176
		c-0.257-0.064-0.384-0.271-0.384-0.624c0-0.32,0.111-0.512,0.336-0.576c0.831-0.192,1.552-0.392,2.16-0.6
		c0.607-0.208,1.176-0.423,1.704-0.648c0.527-0.223,1.047-0.432,1.56-0.624c0.128-0.063,0.224-0.096,0.288-0.096
		c0.063,0,0.12,0.041,0.168,0.12c0.048,0.081,0.072,0.152,0.072,0.216c0,0.288-0.057,0.904-0.168,1.848
		c-0.113,0.944-0.168,2.504-0.168,4.68v24c0,0.641,0.223,1.064,0.672,1.272c0.447,0.208,0.912,0.393,1.392,0.552
		c0.256,0.096,0.504,0.2,0.744,0.312c0.24,0.112,0.36,0.296,0.36,0.552c0,0.192-0.12,0.312-0.36,0.36
		c-0.24,0.048-0.44,0.072-0.6,0.072c-0.608,0-1.097-0.024-1.465-0.072c-0.368-0.048-0.72-0.087-1.056-0.12
		c-0.336-0.032-0.792-0.048-1.368-0.048c-0.544,0-0.992,0.017-1.344,0.048c-0.353,0.032-0.704,0.072-1.056,0.12
		C173.897,25.691,173.401,25.715,172.761,25.715z"/>
	<path fill="#0D4482" d="M184.521,25.715c-0.288,0-0.521-0.041-0.696-0.12s-0.264-0.216-0.264-0.408c0-0.256,0.12-0.432,0.359-0.528
		c0.24-0.096,0.487-0.175,0.744-0.24c0.672-0.16,1.184-0.36,1.536-0.6c0.352-0.24,0.528-0.648,0.528-1.224V12.179
		c0-0.864-0.152-1.632-0.456-2.304c-0.305-0.672-0.872-1.072-1.704-1.2c-0.161-0.032-0.28-0.096-0.36-0.192
		c-0.08-0.096-0.12-0.24-0.12-0.432c0-0.352,0.145-0.544,0.433-0.576c1.279-0.288,2.335-0.679,3.168-1.176
		c0.831-0.496,1.455-0.904,1.872-1.224c0.288-0.224,0.511-0.336,0.672-0.336c0.191,0,0.288,0.08,0.288,0.24
		c0,0.256-0.041,0.76-0.12,1.512c-0.08,0.752-0.152,1.584-0.216,2.496c-0.064,0.912-0.097,1.736-0.097,2.472v11.136
		c0,0.544,0.184,0.944,0.553,1.2c0.367,0.256,0.871,0.464,1.512,0.624c0.256,0.064,0.504,0.144,0.744,0.24
		c0.239,0.096,0.359,0.272,0.359,0.528c0,0.352-0.32,0.528-0.96,0.528c-0.608,0-1.097-0.024-1.464-0.072
		c-0.368-0.048-0.72-0.087-1.056-0.12c-0.336-0.032-0.792-0.048-1.368-0.048c-0.545,0-0.992,0.017-1.344,0.048
		c-0.353,0.032-0.704,0.072-1.057,0.12C185.656,25.691,185.16,25.715,184.521,25.715z M188.361,0.803
		c-0.672,0-1.24-0.231-1.704-0.696c-0.464-0.464-0.696-1.032-0.696-1.704c0-0.704,0.232-1.288,0.696-1.752
		c0.464-0.463,1.032-0.696,1.704-0.696c0.703,0,1.288,0.233,1.752,0.696c0.464,0.464,0.696,1.048,0.696,1.752
		c0,0.672-0.232,1.24-0.696,1.704C189.649,0.572,189.064,0.803,188.361,0.803z"/>
	<path fill="#0D4482" d="M196.281,25.715c-0.32,0-0.561-0.041-0.721-0.12s-0.239-0.216-0.239-0.408c0-0.256,0.104-0.432,0.312-0.528
		c0.208-0.096,0.472-0.175,0.792-0.24c0.736-0.16,1.264-0.392,1.584-0.696c0.319-0.304,0.48-0.775,0.48-1.416V8.771
		c-0.32,0-0.688-0.008-1.104-0.024c-0.416-0.016-0.88-0.04-1.392-0.072c-0.097-0.032-0.232-0.144-0.408-0.336
		s-0.264-0.368-0.264-0.528c0-0.064,0.048-0.12,0.144-0.168c0.096-0.048,0.16-0.087,0.192-0.12c0.576-0.288,1.071-0.544,1.487-0.768
		c0.416-0.224,0.864-0.448,1.345-0.672c0-2.784,0.343-5.104,1.031-6.96c0.688-1.855,1.576-3.328,2.664-4.416s2.24-1.864,3.456-2.328
		c1.216-0.463,2.353-0.696,3.408-0.696c1.792,0,3.12,0.272,3.984,0.816c0.863,0.544,1.296,1.232,1.296,2.064
		c0,0.64-0.161,1.12-0.48,1.44c-0.32,0.32-0.704,0.48-1.151,0.48c-0.288,0-0.553-0.112-0.792-0.336
		c-0.24-0.224-0.521-0.48-0.84-0.768c-0.417-0.416-0.929-0.808-1.536-1.176c-0.608-0.367-1.44-0.552-2.496-0.552
		c-1.505,0-2.744,0.656-3.721,1.968c-0.976,1.313-1.464,3.329-1.464,6.048v4.224c0,0.192,0.056,0.32,0.168,0.384
		c0.112,0.064,0.232,0.096,0.36,0.096h6c0.16,0,0.304,0.048,0.432,0.144C208.936,6.611,209,6.74,209,6.899
		c0,0.224-0.024,0.464-0.072,0.72c-0.048,0.257-0.12,0.48-0.216,0.672c-0.096,0.256-0.24,0.384-0.432,0.384h-5.521
		c-0.384,0-0.632,0.056-0.744,0.168c-0.112,0.112-0.168,0.264-0.168,0.456v13.008c0,0.641,0.208,1.112,0.624,1.416
		c0.416,0.305,1.264,0.537,2.544,0.696c0.736,0.096,1.104,0.353,1.104,0.768c0,0.192-0.08,0.328-0.24,0.408s-0.4,0.12-0.72,0.12
		c-0.96,0-1.809-0.041-2.544-0.12c-0.736-0.08-1.521-0.12-2.353-0.12c-0.544,0-0.992,0.017-1.344,0.048
		c-0.353,0.032-0.72,0.072-1.104,0.12C197.432,25.691,196.92,25.715,196.281,25.715z"/>
	<path fill="#0D4482" d="M218.455,26.291c-1.76,0-3.296-0.432-4.607-1.296c-1.313-0.864-2.337-2.088-3.072-3.672
		c-0.736-1.584-1.104-3.416-1.104-5.496c0-1.855,0.423-3.543,1.271-5.064c0.848-1.52,1.976-2.743,3.384-3.672
		c1.408-0.928,2.944-1.392,4.608-1.392c1.279,0,2.416,0.256,3.408,0.768c0.991,0.512,1.768,1.224,2.328,2.136
		c0.559,0.912,0.84,1.96,0.84,3.144c0,0.993-0.48,1.488-1.44,1.488h-10.128c-0.448,0-0.761,0.12-0.936,0.36
		c-0.177,0.24-0.265,0.712-0.265,1.416c0,1.536,0.336,2.937,1.008,4.2c0.673,1.264,1.568,2.272,2.688,3.024
		c1.12,0.752,2.352,1.128,3.696,1.128c0.96,0,1.831-0.184,2.615-0.552c0.784-0.368,1.48-0.904,2.089-1.608
		c0.127-0.16,0.223-0.264,0.288-0.312c0.063-0.048,0.144-0.072,0.239-0.072c0.256,0,0.384,0.161,0.384,0.48
		c0,0.608-0.287,1.28-0.863,2.016c-0.48,0.608-1.057,1.136-1.729,1.584c-0.672,0.448-1.408,0.792-2.208,1.032
		C220.152,26.171,219.32,26.291,218.455,26.291z M214.039,11.747h4.368c0.769,0,1.424-0.016,1.968-0.048
		c0.544-0.031,1.072-0.096,1.584-0.192c0.16-0.032,0.265-0.136,0.313-0.312c0.048-0.175,0.072-0.424,0.072-0.744
		c0-0.928-0.408-1.72-1.225-2.376c-0.815-0.655-1.784-0.984-2.903-0.984c-0.737,0-1.473,0.216-2.208,0.648
		c-0.737,0.432-1.345,0.968-1.824,1.608c-0.48,0.641-0.72,1.28-0.72,1.92C213.464,11.587,213.656,11.747,214.039,11.747z"/>
</g>
</svg>
