<?xml version="1.0" encoding="utf-8"?>
<!-- Generator: Adobe Illustrator 14.0.0, SVG Export Plug-In . SVG Version: 6.00 Build 43363)  -->
<!DOCTYPE svg PUBLIC "-//W3C//DTD SVG 1.1//EN" "http://www.w3.org/Graphics/SVG/1.1/DTD/svg11.dtd">
<svg version="1.1" id="レイヤー_3" xmlns="http://www.w3.org/2000/svg" xmlns:xlink="http://www.w3.org/1999/xlink" x="0px"
	 y="0px" width="302.781px" height="263.521px" viewBox="0 5.76 302.781 263.521" enable-background="new 0 5.76 302.781 263.521"
	 xml:space="preserve">
<g>
	<path fill="#0D4482" d="M16.08,40.367c-0.064,0-0.161-0.144-0.288-0.432c-0.128-0.288-0.256-0.592-0.384-0.912L5.04,13.008
		c-0.384-0.832-0.848-1.512-1.392-2.04c-0.544-0.528-1.232-0.904-2.064-1.128c-0.512-0.16-0.904-0.32-1.176-0.48
		C0.136,9.199,0,9.008,0,8.783c0-0.192,0.127-0.328,0.384-0.408c0.256-0.08,0.592-0.12,1.008-0.12c0.736,0,1.432,0.024,2.088,0.072
		c0.656,0.048,1.384,0.072,2.184,0.072c0.896,0,1.744-0.016,2.544-0.048c0.799-0.031,1.44-0.048,1.92-0.048
		c0.416,0,0.751,0.041,1.008,0.12c0.255,0.08,0.384,0.216,0.384,0.408c0,0.224-0.128,0.4-0.384,0.528
		c-0.257,0.128-0.656,0.272-1.2,0.432c-0.384,0.096-0.641,0.296-0.768,0.6c-0.128,0.305-0.192,0.632-0.192,0.984
		c0,0.512,0.127,1.2,0.384,2.064c0.736,1.856,1.408,3.552,2.016,5.088c0.607,1.536,1.208,3.016,1.8,4.44
		c0.592,1.424,1.216,2.88,1.872,4.368c0.656,1.488,1.384,3.144,2.184,4.968c0.16,0.353,0.295,0.512,0.408,0.48
		c0.112-0.032,0.216-0.176,0.312-0.432l3.744-9.264c0.096-0.255,0.168-0.472,0.216-0.648c0.048-0.175,0.072-0.328,0.072-0.456
		c0-0.192-0.032-0.391-0.096-0.6c-0.064-0.208-0.161-0.472-0.288-0.792l-2.736-6.816c-0.416-1.023-1.072-1.879-1.968-2.568
		C16,10.52,15.136,10.064,14.304,9.84c-0.512-0.16-0.905-0.32-1.176-0.48c-0.272-0.16-0.408-0.352-0.408-0.576
		c0-0.192,0.127-0.328,0.384-0.408c0.256-0.08,0.592-0.12,1.008-0.12c0.512,0,1,0.017,1.464,0.048
		c0.463,0.032,0.943,0.056,1.44,0.072c0.496,0.017,1.032,0.024,1.608,0.024c0.736,0,1.416-0.016,2.04-0.048
		c0.624-0.031,1.176-0.048,1.656-0.048c0.416,0,0.751,0.041,1.008,0.12c0.256,0.08,0.384,0.216,0.384,0.408
		c0,0.256-0.161,0.464-0.48,0.624c-0.32,0.161-0.648,0.336-0.984,0.528c-0.336,0.192-0.504,0.48-0.504,0.864
		c0,0.064,0.007,0.128,0.024,0.192c0.016,0.064,0.04,0.128,0.072,0.192c0.064,0.128,0.184,0.44,0.36,0.936
		c0.175,0.497,0.384,1.049,0.624,1.656c0.24,0.608,0.472,1.176,0.696,1.704c0.224,0.528,0.384,0.904,0.48,1.128
		c0.16,0.384,0.295,0.584,0.408,0.6c0.111,0.017,0.264-0.184,0.456-0.6c0.256-0.576,0.52-1.231,0.792-1.968
		c0.272-0.736,0.512-1.432,0.72-2.088c0.208-0.655,0.344-1.111,0.408-1.368c0.031-0.096,0.048-0.208,0.048-0.336
		c0-0.384-0.144-0.672-0.432-0.864s-0.584-0.376-0.888-0.552c-0.305-0.175-0.456-0.392-0.456-0.648c0-0.192,0.127-0.328,0.384-0.408
		c0.256-0.08,0.592-0.12,1.008-0.12c0.703,0,1.183,0.017,1.44,0.048c0.255,0.032,0.607,0.048,1.056,0.048
		c0.544,0,1.008-0.024,1.392-0.072c0.384-0.048,0.864-0.072,1.44-0.072c0.416,0,0.751,0.041,1.008,0.12
		c0.255,0.081,0.384,0.216,0.384,0.408c0,0.224-0.128,0.408-0.384,0.552c-0.257,0.144-0.656,0.281-1.2,0.408
		c-1.024,0.224-1.721,0.497-2.088,0.816c-0.368,0.32-0.761,0.816-1.176,1.488c-0.16,0.288-0.392,0.768-0.696,1.44
		c-0.305,0.672-0.624,1.408-0.96,2.208c-0.336,0.8-0.632,1.552-0.888,2.256c-0.096,0.224-0.185,0.544-0.264,0.96
		c-0.081,0.416-0.089,0.704-0.024,0.864l4.944,12.72c0.063,0.161,0.144,0.208,0.24,0.144c0.096-0.064,0.192-0.208,0.288-0.432
		c0.799-2.112,1.704-4.815,2.712-8.112c1.008-3.295,2.056-6.784,3.144-10.464c0.096-0.288,0.168-0.583,0.216-0.888
		c0.048-0.304,0.072-0.583,0.072-0.84c0-0.48-0.104-0.912-0.312-1.296c-0.208-0.384-0.584-0.64-1.128-0.768
		C35.344,9.743,35,9.616,34.632,9.455c-0.368-0.16-0.552-0.352-0.552-0.576c0-0.192,0.127-0.328,0.384-0.408
		c0.256-0.08,0.592-0.12,1.008-0.12c0.64,0,1.224,0.008,1.752,0.024c0.528,0.017,1.096,0.024,1.704,0.024
		c0.799,0,1.567-0.024,2.304-0.072c0.736-0.048,1.408-0.072,2.016-0.072c0.416,0,0.751,0.041,1.008,0.12
		c0.256,0.081,0.384,0.216,0.384,0.408c0,0.224-0.128,0.408-0.384,0.552C44,9.479,43.6,9.616,43.056,9.743
		c-0.768,0.161-1.416,0.488-1.944,0.984c-0.528,0.497-0.944,1.041-1.248,1.632c-0.304,0.593-0.552,1.128-0.744,1.608l-8.496,25.104
		c-0.032,0.128-0.128,0.344-0.288,0.648c-0.161,0.304-0.32,0.456-0.48,0.456c-0.128,0-0.272-0.096-0.432-0.288
		s-0.288-0.4-0.384-0.624c-0.833-1.92-1.553-3.64-2.16-5.16c-0.608-1.52-1.192-3.048-1.752-4.584
		c-0.56-1.536-1.224-3.231-1.992-5.088c-0.096-0.224-0.176-0.312-0.24-0.264c-0.064,0.048-0.161,0.232-0.288,0.552
		c-0.768,1.824-1.433,3.44-1.992,4.848c-0.561,1.409-1.112,2.84-1.656,4.296c-0.544,1.457-1.152,3.128-1.824,5.016
		c-0.128,0.32-0.288,0.648-0.48,0.984C16.464,40.199,16.272,40.367,16.08,40.367z"/>
	<path fill="#0D4482" d="M45.839,39.743c-0.641,0-0.96-0.176-0.96-0.528c0-0.288,0.367-0.544,1.104-0.768
		c0.48-0.16,0.936-0.368,1.368-0.624c0.432-0.256,0.664-0.704,0.696-1.344V12.431c0-0.864-0.144-1.624-0.432-2.28
		c-0.288-0.655-0.848-1.047-1.68-1.176c-0.288-0.064-0.432-0.288-0.432-0.672c0-0.288,0.127-0.48,0.384-0.576
		c0.448-0.16,0.984-0.336,1.608-0.528s1.272-0.408,1.944-0.648c0.672-0.24,1.264-0.472,1.776-0.696
		c0.127-0.063,0.224-0.096,0.288-0.096c0.096,0,0.175,0.032,0.24,0.096c0.064,0.064,0.096,0.144,0.096,0.24
		c0,0.192-0.041,0.464-0.12,0.816c-0.08,0.353-0.152,0.96-0.216,1.824c-0.064,0.864-0.096,2.16-0.096,3.888v8.352
		c0,0.512,0.024,0.88,0.072,1.104c0.048,0.224,0.136,0.449,0.264,0.672c0.512-0.384,1.144-0.808,1.896-1.272
		c0.751-0.463,1.592-0.872,2.52-1.224c0.928-0.352,1.888-0.528,2.88-0.528c1.568,0,2.872,0.617,3.912,1.848
		c1.04,1.232,1.56,2.792,1.56,4.68v10.08c0,0.641,0.208,1.112,0.624,1.416c0.416,0.305,0.864,0.537,1.344,0.696
		c0.352,0.096,0.624,0.2,0.816,0.312c0.192,0.112,0.288,0.264,0.288,0.456c0,0.352-0.32,0.528-0.96,0.528s-1.128-0.024-1.464-0.072
		c-0.336-0.048-0.656-0.087-0.96-0.12c-0.304-0.032-0.744-0.048-1.32-0.048c-0.544,0-0.977,0.017-1.296,0.048
		c-0.32,0.032-0.648,0.072-0.984,0.12c-0.336,0.048-0.824,0.072-1.464,0.072c-0.641,0-0.96-0.176-0.96-0.528
		c0-0.224,0.096-0.376,0.288-0.456c0.192-0.08,0.463-0.184,0.816-0.312c0.48-0.16,0.912-0.392,1.296-0.696
		c0.384-0.304,0.576-0.775,0.576-1.416v-9.792c0-0.799-0.232-1.528-0.696-2.184c-0.464-0.655-1.032-1.176-1.704-1.56
		c-0.672-0.384-1.361-0.576-2.064-0.576c-0.608,0-1.313,0.088-2.112,0.264c-0.8,0.176-1.424,0.44-1.872,0.792
		c-0.512,0.416-0.856,0.848-1.032,1.296c-0.176,0.448-0.264,1.168-0.264,2.16v9.744c0.032,0.641,0.232,1.088,0.6,1.344
		c0.368,0.256,0.792,0.464,1.272,0.624c0.352,0.096,0.616,0.2,0.792,0.312c0.175,0.112,0.264,0.264,0.264,0.456
		c0,0.352-0.32,0.528-0.96,0.528c-0.641,0-1.121-0.024-1.44-0.072c-0.32-0.048-0.624-0.087-0.912-0.12
		c-0.288-0.032-0.72-0.048-1.296-0.048c-0.544,0-0.984,0.017-1.32,0.048c-0.336,0.032-0.688,0.072-1.056,0.12
		C46.983,39.719,46.479,39.743,45.839,39.743z"/>
	<path fill="#0D4482" d="M74.304,40.271c-0.576,0-1.161-0.224-1.752-0.672c-0.592-0.448-1.088-0.992-1.488-1.632
		c-0.4-0.64-0.6-1.248-0.6-1.824c0-1.024,0.271-1.824,0.816-2.4c0.544-0.576,1.408-1.104,2.592-1.584l4.896-2.016
		c0.64-0.256,1.016-0.48,1.128-0.672c0.112-0.192,0.184-0.607,0.216-1.248l0.096-3.072c0.031-0.832-0.2-1.551-0.696-2.16
		c-0.497-0.607-1.208-0.912-2.136-0.912c-0.48,0-0.96,0.08-1.44,0.24s-0.88,0.368-1.2,0.624c-0.192,0.128-0.32,0.32-0.384,0.576
		c-0.064,0.256-0.096,0.528-0.096,0.816c0,0.128,0.008,0.272,0.024,0.432c0.016,0.161,0.024,0.305,0.024,0.432
		c0,0.161-0.201,0.376-0.6,0.648c-0.4,0.272-0.848,0.512-1.344,0.72c-0.497,0.208-0.904,0.312-1.224,0.312
		c-0.161,0-0.288-0.04-0.384-0.12c-0.096-0.08-0.144-0.184-0.144-0.312c0-0.512,0.168-1.063,0.504-1.656
		c0.336-0.592,0.808-1.144,1.416-1.656c0.736-0.672,1.536-1.264,2.4-1.776c0.864-0.511,1.711-0.912,2.544-1.2
		c0.832-0.288,1.567-0.432,2.208-0.432c1.152,0,2.104,0.408,2.856,1.224c0.751,0.816,1.111,1.832,1.08,3.048l-0.24,11.52
		c-0.032,0.672,0.12,1.217,0.456,1.632c0.336,0.417,0.76,0.624,1.272,0.624c0.799,0,1.392-0.175,1.776-0.528
		c0.16-0.16,0.288-0.24,0.384-0.24c0.16,0,0.288,0.048,0.384,0.144c0.096,0.096,0.144,0.225,0.144,0.384
		c0,0.353-0.176,0.704-0.528,1.056c-0.512,0.512-1.064,0.92-1.656,1.224c-0.592,0.304-1.145,0.456-1.656,0.456
		c-1.472,0-2.64-0.832-3.504-2.496h-0.144c-1.056,0.864-2.064,1.497-3.024,1.896C76.319,40.071,75.327,40.271,74.304,40.271z
		 M76.56,37.968c0.64,0,1.184-0.104,1.632-0.312c0.448-0.208,0.848-0.488,1.2-0.84c0.16-0.16,0.295-0.375,0.408-0.648
		c0.112-0.271,0.184-0.711,0.216-1.32l0.096-2.352c0.032-0.352,0.016-0.607-0.048-0.768c-0.064-0.16-0.192-0.24-0.384-0.24
		c-0.064,0-0.176,0.016-0.336,0.048c-0.16,0.032-0.368,0.096-0.624,0.192c-1.697,0.608-2.873,1.241-3.528,1.896
		c-0.656,0.656-0.984,1.256-0.984,1.8c0,0.833,0.248,1.464,0.744,1.896C75.447,37.751,75.983,37.968,76.56,37.968z"/>
	<path fill="#0D4482" d="M96.911,40.271c-1.568,0-2.792-0.48-3.672-1.44c-0.88-0.96-1.32-2.383-1.32-4.272V23.424
		c0-0.256-0.096-0.44-0.288-0.552c-0.192-0.112-0.608-0.168-1.248-0.168h-0.288c-0.16,0-0.296-0.104-0.408-0.312
		c-0.113-0.208-0.168-0.424-0.168-0.648c0-0.064,0.048-0.16,0.144-0.288c0.096-0.127,0.16-0.208,0.192-0.24
		c0.64-0.448,1.224-0.896,1.752-1.344c0.528-0.448,1.008-0.888,1.44-1.32c0.432-0.432,0.792-0.824,1.08-1.176
		c0.16-0.16,0.295-0.295,0.408-0.408c0.112-0.112,0.248-0.168,0.408-0.168c0.16,0,0.312,0.032,0.456,0.096
		c0.144,0.064,0.199,0.208,0.168,0.432l-0.24,2.16c-0.032,0.353,0.048,0.592,0.24,0.72c0.192,0.128,0.496,0.192,0.912,0.192h5.472
		c0.127,0,0.24,0.104,0.336,0.312c0.096,0.208,0.144,0.456,0.144,0.744s-0.048,0.568-0.144,0.84
		c-0.096,0.272-0.209,0.408-0.336,0.408h-4.752c-0.8,0-1.32,0.064-1.56,0.192c-0.24,0.128-0.36,0.512-0.36,1.152v9.456
		c0,1.28,0.271,2.289,0.816,3.024c0.544,0.736,1.328,1.104,2.352,1.104c0.928,0,1.648-0.072,2.16-0.216
		c0.511-0.144,0.976-0.36,1.392-0.648c0.063-0.063,0.127-0.096,0.192-0.096c0.127,0,0.216,0.072,0.264,0.216
		c0.048,0.144,0.072,0.296,0.072,0.456c0,0.16-0.264,0.48-0.792,0.96s-1.216,0.928-2.064,1.344
		C98.823,40.063,97.902,40.271,96.911,40.271z"/>
	<path fill="#0D4482" d="M121.583,40.271c-1.568,0-2.792-0.48-3.672-1.44c-0.88-0.96-1.32-2.383-1.32-4.272V23.424
		c0-0.256-0.096-0.44-0.288-0.552c-0.192-0.112-0.608-0.168-1.248-0.168h-0.288c-0.16,0-0.296-0.104-0.408-0.312
		c-0.113-0.208-0.168-0.424-0.168-0.648c0-0.064,0.048-0.16,0.144-0.288c0.096-0.127,0.16-0.208,0.192-0.24
		c0.64-0.448,1.224-0.896,1.752-1.344c0.528-0.448,1.008-0.888,1.44-1.32c0.432-0.432,0.792-0.824,1.08-1.176
		c0.16-0.16,0.295-0.295,0.408-0.408c0.112-0.112,0.248-0.168,0.408-0.168c0.16,0,0.312,0.032,0.456,0.096
		c0.144,0.064,0.199,0.208,0.168,0.432l-0.24,2.16c-0.032,0.353,0.048,0.592,0.24,0.72c0.192,0.128,0.496,0.192,0.912,0.192h5.472
		c0.127,0,0.24,0.104,0.336,0.312c0.096,0.208,0.144,0.456,0.144,0.744s-0.048,0.568-0.144,0.84
		c-0.096,0.272-0.209,0.408-0.336,0.408h-4.752c-0.8,0-1.32,0.064-1.56,0.192c-0.24,0.128-0.36,0.512-0.36,1.152v9.456
		c0,1.28,0.271,2.289,0.816,3.024c0.544,0.736,1.328,1.104,2.352,1.104c0.928,0,1.648-0.072,2.16-0.216
		c0.511-0.144,0.976-0.36,1.392-0.648c0.063-0.063,0.127-0.096,0.192-0.096c0.127,0,0.216,0.072,0.264,0.216
		c0.048,0.144,0.072,0.296,0.072,0.456c0,0.16-0.264,0.48-0.792,0.96s-1.216,0.928-2.064,1.344
		C123.495,40.063,122.574,40.271,121.583,40.271z"/>
	<path fill="#0D4482" d="M129.455,39.743c-0.641,0-0.96-0.176-0.96-0.528c0-0.288,0.367-0.544,1.104-0.768
		c0.48-0.16,0.936-0.368,1.368-0.624c0.432-0.256,0.664-0.704,0.696-1.344V12.431c0-0.864-0.144-1.624-0.432-2.28
		c-0.288-0.655-0.848-1.047-1.68-1.176c-0.288-0.064-0.432-0.288-0.432-0.672c0-0.288,0.127-0.48,0.384-0.576
		c0.448-0.16,0.984-0.336,1.608-0.528s1.272-0.408,1.944-0.648c0.672-0.24,1.264-0.472,1.776-0.696
		c0.127-0.063,0.224-0.096,0.288-0.096c0.096,0,0.175,0.032,0.24,0.096c0.064,0.064,0.096,0.144,0.096,0.24
		c0,0.192-0.041,0.464-0.12,0.816c-0.08,0.353-0.152,0.96-0.216,1.824c-0.064,0.864-0.096,2.16-0.096,3.888v8.352
		c0,0.512,0.024,0.88,0.072,1.104c0.048,0.224,0.136,0.449,0.264,0.672c0.512-0.384,1.144-0.808,1.896-1.272
		c0.751-0.463,1.592-0.872,2.52-1.224c0.928-0.352,1.888-0.528,2.88-0.528c1.568,0,2.872,0.617,3.912,1.848
		c1.04,1.232,1.561,2.792,1.561,4.68v10.08c0,0.641,0.207,1.112,0.624,1.416c0.415,0.305,0.863,0.537,1.344,0.696
		c0.352,0.096,0.624,0.2,0.815,0.312c0.192,0.112,0.288,0.264,0.288,0.456c0,0.352-0.32,0.528-0.96,0.528
		c-0.641,0-1.128-0.024-1.464-0.072c-0.336-0.048-0.656-0.087-0.96-0.12c-0.305-0.032-0.744-0.048-1.32-0.048
		c-0.544,0-0.977,0.017-1.295,0.048c-0.321,0.032-0.649,0.072-0.985,0.12c-0.336,0.048-0.824,0.072-1.464,0.072
		c-0.641,0-0.96-0.176-0.96-0.528c0-0.224,0.096-0.376,0.288-0.456c0.192-0.08,0.463-0.184,0.816-0.312
		c0.48-0.16,0.912-0.392,1.296-0.696c0.384-0.304,0.576-0.775,0.576-1.416v-9.792c0-0.799-0.232-1.528-0.696-2.184
		c-0.464-0.655-1.032-1.176-1.704-1.56c-0.672-0.384-1.361-0.576-2.064-0.576c-0.608,0-1.313,0.088-2.112,0.264
		c-0.8,0.176-1.424,0.44-1.872,0.792c-0.512,0.416-0.856,0.848-1.032,1.296c-0.176,0.448-0.264,1.168-0.264,2.16v9.744
		c0.032,0.641,0.232,1.088,0.6,1.344c0.368,0.256,0.792,0.464,1.272,0.624c0.352,0.096,0.616,0.2,0.792,0.312
		c0.175,0.112,0.264,0.264,0.264,0.456c0,0.352-0.32,0.528-0.96,0.528c-0.641,0-1.121-0.024-1.44-0.072
		c-0.32-0.048-0.624-0.087-0.912-0.12c-0.288-0.032-0.72-0.048-1.296-0.048c-0.544,0-0.984,0.017-1.32,0.048
		c-0.336,0.032-0.688,0.072-1.056,0.12C130.598,39.719,130.094,39.743,129.455,39.743z"/>
	<path fill="#0D4482" d="M162.526,40.32c-1.76,0-3.296-0.432-4.607-1.296c-1.313-0.864-2.337-2.088-3.072-3.672
		c-0.736-1.584-1.104-3.416-1.104-5.496c0-1.855,0.423-3.543,1.271-5.064c0.848-1.52,1.976-2.743,3.384-3.672
		c1.408-0.928,2.944-1.392,4.608-1.392c1.279,0,2.416,0.256,3.408,0.768c0.991,0.512,1.768,1.224,2.328,2.136
		c0.559,0.912,0.84,1.96,0.84,3.144c0,0.993-0.48,1.488-1.44,1.488h-10.128c-0.448,0-0.761,0.12-0.936,0.36
		c-0.177,0.24-0.265,0.712-0.265,1.416c0,1.536,0.336,2.937,1.008,4.2c0.673,1.264,1.568,2.272,2.688,3.024
		c1.12,0.752,2.352,1.128,3.696,1.128c0.96,0,1.831-0.184,2.615-0.552c0.784-0.368,1.48-0.904,2.089-1.608
		c0.127-0.16,0.223-0.264,0.288-0.312c0.063-0.048,0.144-0.072,0.239-0.072c0.256,0,0.384,0.161,0.384,0.48
		c0,0.608-0.287,1.28-0.863,2.016c-0.48,0.608-1.057,1.136-1.729,1.584c-0.672,0.448-1.408,0.792-2.208,1.032
		C164.223,40.199,163.391,40.32,162.526,40.32z M158.11,25.775h4.368c0.769,0,1.424-0.016,1.968-0.048
		c0.544-0.031,1.072-0.096,1.584-0.192c0.16-0.032,0.265-0.136,0.313-0.312c0.048-0.175,0.072-0.424,0.072-0.744
		c0-0.928-0.408-1.72-1.225-2.376c-0.815-0.655-1.784-0.984-2.903-0.984c-0.737,0-1.473,0.216-2.208,0.648
		c-0.737,0.432-1.345,0.968-1.824,1.608c-0.48,0.641-0.72,1.28-0.72,1.92C157.535,25.615,157.727,25.775,158.11,25.775z"/>
	<path fill="#0D4482" d="M189.694,40.271c-1.568,0-2.793-0.48-3.672-1.44c-0.881-0.96-1.32-2.383-1.32-4.272V23.424
		c0-0.256-0.096-0.44-0.288-0.552c-0.192-0.112-0.608-0.168-1.248-0.168h-0.288c-0.16,0-0.296-0.104-0.408-0.312
		c-0.112-0.208-0.168-0.424-0.168-0.648c0-0.064,0.048-0.16,0.145-0.288c0.096-0.127,0.159-0.208,0.191-0.24
		c0.64-0.448,1.225-0.896,1.752-1.344c0.528-0.448,1.009-0.888,1.44-1.32c0.432-0.432,0.792-0.824,1.08-1.176
		c0.159-0.16,0.296-0.295,0.408-0.408c0.111-0.112,0.247-0.168,0.407-0.168s0.313,0.032,0.456,0.096
		c0.145,0.064,0.2,0.208,0.168,0.432l-0.239,2.16c-0.032,0.353,0.048,0.592,0.239,0.72c0.192,0.128,0.496,0.192,0.912,0.192h5.473
		c0.127,0,0.239,0.104,0.336,0.312c0.096,0.208,0.144,0.456,0.144,0.744s-0.048,0.568-0.144,0.84
		c-0.097,0.272-0.209,0.408-0.336,0.408h-4.752c-0.801,0-1.32,0.064-1.561,0.192c-0.24,0.128-0.359,0.512-0.359,1.152v9.456
		c0,1.28,0.271,2.289,0.815,3.024c0.544,0.736,1.328,1.104,2.353,1.104c0.928,0,1.647-0.072,2.159-0.216s0.977-0.36,1.393-0.648
		c0.063-0.063,0.127-0.096,0.191-0.096c0.128,0,0.217,0.072,0.265,0.216s0.072,0.296,0.072,0.456c0,0.16-0.265,0.48-0.792,0.96
		c-0.528,0.48-1.217,0.928-2.064,1.344C191.605,40.063,190.686,40.271,189.694,40.271z"/>
	<path fill="#0D4482" d="M206.541,40.703c-0.064,0-0.128-0.032-0.191-0.096c-0.064-0.064-0.112-0.144-0.145-0.24l-6.672-16.56
		c-0.224-0.64-0.576-1.16-1.056-1.56c-0.48-0.4-0.96-0.664-1.44-0.792c-0.256-0.096-0.504-0.208-0.744-0.336
		c-0.239-0.127-0.359-0.304-0.359-0.528c0-0.192,0.12-0.312,0.359-0.36c0.24-0.048,0.439-0.072,0.601-0.072
		c0.415,0,0.808,0.017,1.176,0.048c0.367,0.032,0.744,0.072,1.128,0.12s0.784,0.072,1.2,0.072c0.447,0,0.896-0.024,1.344-0.072
		s0.888-0.088,1.32-0.12c0.432-0.031,0.871-0.048,1.32-0.048c0.127,0,0.319,0.024,0.575,0.072c0.256,0.048,0.385,0.168,0.385,0.36
		c0,0.224-0.12,0.4-0.36,0.528c-0.24,0.128-0.488,0.24-0.744,0.336c-0.32,0.096-0.568,0.329-0.744,0.696
		c-0.176,0.369-0.264,0.776-0.264,1.224c0,0.417,0.079,0.833,0.24,1.248l3.743,9.648c0.032,0.128,0.112,0.192,0.24,0.192
		s0.208-0.063,0.24-0.192l3.264-7.776c0.16-0.416,0.265-0.816,0.313-1.2c0.048-0.384,0.072-0.751,0.072-1.104
		c0-0.703-0.272-1.279-0.816-1.728c-0.545-0.448-1.088-0.784-1.632-1.008c-0.257-0.096-0.504-0.208-0.744-0.336
		c-0.24-0.127-0.36-0.304-0.36-0.528c0-0.192,0.112-0.312,0.336-0.36c0.224-0.048,0.433-0.072,0.624-0.072
		c0.448,0,0.937,0.041,1.464,0.12c0.528,0.08,1.24,0.12,2.137,0.12c0.896,0,1.663-0.04,2.304-0.12c0.64-0.08,1.216-0.12,1.729-0.12
		c0.159,0,0.359,0.024,0.6,0.072c0.24,0.048,0.36,0.168,0.36,0.36c0,0.224-0.12,0.4-0.36,0.528c-0.24,0.128-0.488,0.24-0.744,0.336
		c-0.353,0.128-0.713,0.305-1.08,0.528c-0.368,0.225-0.552,0.624-0.552,1.2c0,0.192,0.023,0.408,0.072,0.648
		c0.048,0.24,0.136,0.504,0.264,0.792l3.6,9.264c0.16,0.353,0.288,0.528,0.385,0.528c0.127,0,0.255-0.16,0.384-0.48l3.647-8.496
		c0.128-0.255,0.217-0.576,0.265-0.96c0.048-0.384,0.071-0.688,0.071-0.912c0-0.576-0.191-1.039-0.575-1.392
		c-0.385-0.352-0.753-0.592-1.104-0.72c-0.257-0.096-0.504-0.208-0.744-0.336c-0.24-0.127-0.359-0.304-0.359-0.528
		c0-0.192,0.119-0.312,0.359-0.36c0.24-0.048,0.439-0.072,0.601-0.072c0.703,0,1.264,0.041,1.68,0.12
		c0.415,0.08,1.056,0.12,1.92,0.12c0.607,0,1.039-0.024,1.296-0.072c0.256-0.048,0.48-0.088,0.672-0.12
		c0.192-0.031,0.464-0.048,0.816-0.048c0.191,0,0.399,0.024,0.624,0.072c0.224,0.048,0.336,0.168,0.336,0.36
		c0,0.224-0.12,0.4-0.36,0.528c-0.24,0.128-0.488,0.24-0.744,0.336c-0.479,0.128-0.944,0.504-1.392,1.128
		c-0.448,0.624-0.833,1.304-1.152,2.04l-6.575,15.744c-0.097,0.224-0.24,0.336-0.433,0.336c-0.128,0-0.257-0.112-0.384-0.336
		l-4.992-12.384c-0.096-0.255-0.191-0.399-0.288-0.432c-0.096,0-0.208,0.16-0.336,0.48l-5.231,12.336
		C206.829,40.591,206.701,40.703,206.541,40.703z"/>
	<path fill="#0D4482" d="M238.605,40.271c-1.793,0-3.408-0.416-4.849-1.248c-1.439-0.832-2.584-1.975-3.432-3.432
		c-0.849-1.456-1.272-3.112-1.272-4.968c0-1.344,0.265-2.656,0.792-3.936c0.528-1.279,1.272-2.448,2.232-3.504s2.08-1.896,3.36-2.52
		c1.279-0.624,2.655-0.936,4.128-0.936c1.855,0,3.527,0.449,5.016,1.344c1.488,0.896,2.672,2.072,3.552,3.528
		c0.88,1.457,1.32,3.048,1.32,4.776c0,1.856-0.408,3.617-1.224,5.28c-0.816,1.664-2.024,3.016-3.624,4.056
		C243.005,39.751,241.005,40.271,238.605,40.271z M239.613,38.831c1.087,0,2.063-0.208,2.928-0.624
		c0.864-0.416,1.536-1.087,2.016-2.016c0.385-0.735,0.641-1.632,0.769-2.688c0.127-1.056,0.191-2.047,0.191-2.976
		c0-1.536-0.28-3.016-0.84-4.44c-0.56-1.423-1.344-2.592-2.352-3.504s-2.2-1.368-3.576-1.368c-0.864,0-1.641,0.136-2.328,0.408
		c-0.688,0.272-1.32,0.776-1.896,1.512c-0.641,0.8-1.057,1.776-1.248,2.928c-0.192,1.152-0.288,2.304-0.288,3.456
		c0,1.568,0.288,3.064,0.864,4.488c0.575,1.424,1.359,2.584,2.352,3.48C237.196,38.384,238.333,38.831,239.613,38.831z"/>
	<path fill="#0D4482" d="M1.872,111.743c-0.641,0-0.96-0.176-0.96-0.528c0-0.288,0.367-0.544,1.104-0.768
		c0.48-0.16,0.936-0.368,1.368-0.624c0.432-0.256,0.664-0.704,0.696-1.344V84.431c0-0.864-0.144-1.624-0.432-2.28
		c-0.288-0.655-0.848-1.047-1.68-1.176c-0.288-0.064-0.432-0.288-0.432-0.672c0-0.288,0.127-0.48,0.384-0.576
		c0.448-0.16,0.984-0.336,1.608-0.528s1.272-0.408,1.944-0.648c0.672-0.24,1.264-0.472,1.776-0.696
		c0.127-0.063,0.224-0.096,0.288-0.096c0.096,0,0.175,0.032,0.24,0.096c0.064,0.064,0.096,0.144,0.096,0.24
		c0,0.192-0.041,0.464-0.12,0.816c-0.08,0.353-0.152,0.96-0.216,1.824c-0.064,0.864-0.096,2.16-0.096,3.888v8.352
		c0,0.512,0.024,0.88,0.072,1.104c0.048,0.224,0.136,0.449,0.264,0.672c0.512-0.384,1.144-0.808,1.896-1.272
		c0.751-0.463,1.592-0.872,2.52-1.224c0.928-0.352,1.888-0.528,2.88-0.528c1.568,0,2.872,0.617,3.912,1.848
		c1.04,1.232,1.56,2.792,1.56,4.68v10.08c0,0.641,0.208,1.112,0.624,1.416c0.416,0.305,0.864,0.537,1.344,0.696
		c0.352,0.096,0.624,0.2,0.816,0.312c0.192,0.112,0.288,0.264,0.288,0.456c0,0.352-0.32,0.528-0.96,0.528s-1.128-0.024-1.464-0.072
		c-0.336-0.048-0.656-0.087-0.96-0.12c-0.304-0.032-0.744-0.048-1.32-0.048c-0.544,0-0.977,0.017-1.296,0.048
		c-0.32,0.032-0.648,0.072-0.984,0.12c-0.336,0.048-0.824,0.072-1.464,0.072c-0.641,0-0.96-0.176-0.96-0.528
		c0-0.224,0.096-0.376,0.288-0.456c0.192-0.08,0.463-0.184,0.816-0.312c0.48-0.16,0.912-0.392,1.296-0.696
		c0.384-0.304,0.576-0.775,0.576-1.416v-9.792c0-0.799-0.232-1.528-0.696-2.184c-0.464-0.655-1.032-1.176-1.704-1.56
		c-0.672-0.384-1.361-0.576-2.064-0.576c-0.608,0-1.313,0.088-2.112,0.264c-0.8,0.176-1.424,0.44-1.872,0.792
		c-0.512,0.416-0.856,0.848-1.032,1.296c-0.176,0.448-0.264,1.168-0.264,2.16v9.744c0.032,0.641,0.232,1.088,0.6,1.344
		c0.368,0.256,0.792,0.464,1.272,0.624c0.352,0.096,0.616,0.2,0.792,0.312c0.175,0.112,0.264,0.264,0.264,0.456
		c0,0.352-0.32,0.528-0.96,0.528c-0.641,0-1.121-0.024-1.44-0.072c-0.32-0.048-0.624-0.087-0.912-0.12
		c-0.288-0.032-0.72-0.048-1.296-0.048c-0.544,0-0.984,0.017-1.32,0.048c-0.336,0.032-0.688,0.072-1.056,0.12
		C3.016,111.719,2.512,111.743,1.872,111.743z"/>
	<path fill="#0D4482" d="M30.336,112.271c-0.576,0-1.161-0.224-1.752-0.672c-0.592-0.448-1.088-0.992-1.488-1.632
		c-0.4-0.64-0.6-1.248-0.6-1.824c0-1.024,0.271-1.824,0.816-2.4c0.544-0.576,1.408-1.104,2.592-1.584l4.896-2.016
		c0.64-0.256,1.016-0.48,1.128-0.672c0.112-0.192,0.184-0.607,0.216-1.248l0.096-3.072c0.031-0.832-0.2-1.551-0.696-2.16
		c-0.497-0.607-1.208-0.912-2.136-0.912c-0.48,0-0.96,0.08-1.44,0.24s-0.88,0.368-1.2,0.624c-0.192,0.128-0.32,0.32-0.384,0.576
		c-0.064,0.256-0.096,0.528-0.096,0.816c0,0.128,0.008,0.272,0.024,0.432c0.016,0.161,0.024,0.305,0.024,0.432
		c0,0.161-0.201,0.376-0.6,0.648c-0.4,0.272-0.848,0.512-1.344,0.72c-0.497,0.208-0.904,0.312-1.224,0.312
		c-0.161,0-0.288-0.04-0.384-0.12c-0.096-0.08-0.144-0.184-0.144-0.312c0-0.512,0.168-1.063,0.504-1.656
		c0.336-0.592,0.808-1.144,1.416-1.656c0.736-0.672,1.536-1.264,2.4-1.776c0.864-0.511,1.711-0.912,2.544-1.2
		c0.832-0.288,1.567-0.432,2.208-0.432c1.152,0,2.104,0.408,2.856,1.224c0.751,0.816,1.111,1.832,1.08,3.048l-0.24,11.52
		c-0.032,0.672,0.12,1.217,0.456,1.632c0.336,0.417,0.76,0.624,1.272,0.624c0.799,0,1.392-0.175,1.776-0.528
		c0.16-0.16,0.288-0.24,0.384-0.24c0.16,0,0.288,0.048,0.384,0.144c0.096,0.096,0.144,0.225,0.144,0.384
		c0,0.353-0.176,0.704-0.528,1.056c-0.512,0.512-1.064,0.92-1.656,1.224c-0.592,0.304-1.145,0.456-1.656,0.456
		c-1.472,0-2.64-0.832-3.504-2.496h-0.144c-1.056,0.864-2.064,1.497-3.024,1.896C32.352,112.071,31.359,112.271,30.336,112.271z
		 M32.592,109.968c0.64,0,1.184-0.104,1.632-0.312c0.448-0.208,0.848-0.488,1.2-0.84c0.16-0.16,0.295-0.375,0.408-0.648
		c0.112-0.271,0.184-0.711,0.216-1.32l0.096-2.352c0.032-0.352,0.016-0.607-0.048-0.768c-0.064-0.16-0.192-0.24-0.384-0.24
		c-0.064,0-0.176,0.016-0.336,0.048c-0.16,0.032-0.368,0.096-0.624,0.192c-1.697,0.608-2.873,1.241-3.528,1.896
		c-0.656,0.656-0.984,1.256-0.984,1.8c0,0.833,0.248,1.464,0.744,1.896C31.479,109.751,32.016,109.968,32.592,109.968z"/>
	<path fill="#0D4482" d="M53.184,112.607c-0.128,0-0.288-0.248-0.48-0.744c-0.192-0.496-0.32-0.856-0.384-1.08
		c-0.225-0.544-0.432-1.112-0.624-1.704c-0.192-0.592-0.384-1.144-0.576-1.656c-0.704-1.984-1.464-3.928-2.28-5.832
		c-0.816-1.904-1.608-3.832-2.376-5.784c-0.224-0.576-0.568-1.096-1.032-1.56c-0.464-0.463-0.936-0.76-1.416-0.888
		c-0.256-0.096-0.464-0.192-0.624-0.288c-0.161-0.096-0.24-0.256-0.24-0.48c0-0.192,0.12-0.312,0.36-0.36
		c0.24-0.048,0.439-0.072,0.6-0.072c0.64,0,1.104,0.017,1.392,0.048c0.288,0.032,0.576,0.072,0.864,0.12s0.704,0.072,1.248,0.072
		c0.576,0,1.008-0.024,1.296-0.072s0.592-0.088,0.912-0.12c0.319-0.031,0.784-0.048,1.392-0.048c0.16,0,0.36,0.024,0.6,0.072
		c0.24,0.048,0.36,0.168,0.36,0.36c0,0.224-0.113,0.4-0.336,0.528c-0.225,0.128-0.48,0.24-0.768,0.336
		c-0.32,0.128-0.561,0.376-0.72,0.744c-0.161,0.368-0.24,0.776-0.24,1.224c0,0.224,0.016,0.448,0.048,0.672
		c0.031,0.224,0.08,0.432,0.144,0.624l3.792,10.08c0.031,0.032,0.055,0.048,0.072,0.048c0.016,0,0.04-0.016,0.072-0.048l3.648-9.36
		c0.127-0.319,0.224-0.664,0.288-1.032c0.063-0.368,0.096-0.68,0.096-0.936c0-0.64-0.096-1.096-0.288-1.368
		c-0.192-0.271-0.512-0.487-0.96-0.648c-0.416-0.16-0.704-0.288-0.864-0.384c-0.161-0.096-0.24-0.256-0.24-0.48
		c0-0.192,0.104-0.312,0.312-0.36c0.208-0.048,0.424-0.072,0.648-0.072c0.352,0,0.816,0.041,1.392,0.12
		c0.576,0.08,1.28,0.12,2.112,0.12c0.832,0,1.399-0.04,1.704-0.12c0.304-0.08,0.68-0.12,1.128-0.12c0.255,0,0.48,0.024,0.672,0.072
		c0.192,0.048,0.288,0.168,0.288,0.36c0,0.353-0.369,0.64-1.104,0.864c-0.48,0.128-1.008,0.497-1.584,1.104
		c-0.576,0.608-1.041,1.313-1.392,2.112l-3.744,9.024c-0.064,0.128-0.192,0.44-0.384,0.936c-0.192,0.496-0.401,1.04-0.624,1.632
		c-0.225,0.592-0.497,1.32-0.816,2.184c-0.257,0.608-0.464,1.08-0.624,1.416c-0.161,0.336-0.305,0.583-0.432,0.744H53.184z"/>
	<path fill="#0D4482" d="M72.959,112.32c-1.76,0-3.296-0.432-4.608-1.296c-1.313-0.864-2.336-2.088-3.072-3.672
		c-0.736-1.584-1.104-3.416-1.104-5.496c0-1.855,0.424-3.543,1.272-5.064c0.848-1.52,1.976-2.743,3.384-3.672
		c1.408-0.928,2.943-1.392,4.608-1.392c1.279,0,2.416,0.256,3.408,0.768c0.992,0.512,1.768,1.224,2.328,2.136
		c0.56,0.912,0.84,1.96,0.84,3.144c0,0.993-0.48,1.488-1.44,1.488H68.447c-0.448,0-0.76,0.12-0.936,0.36
		c-0.176,0.24-0.264,0.712-0.264,1.416c0,1.536,0.336,2.937,1.008,4.2c0.672,1.264,1.567,2.272,2.688,3.024
		c1.12,0.752,2.352,1.128,3.696,1.128c0.96,0,1.832-0.184,2.616-0.552c0.784-0.368,1.479-0.904,2.088-1.608
		c0.127-0.16,0.224-0.264,0.288-0.312c0.064-0.048,0.144-0.072,0.24-0.072c0.255,0,0.384,0.161,0.384,0.48
		c0,0.608-0.288,1.28-0.864,2.016c-0.48,0.608-1.056,1.136-1.728,1.584c-0.672,0.448-1.409,0.792-2.208,1.032
		C74.655,112.199,73.823,112.32,72.959,112.32z M68.543,97.775h4.368c0.768,0,1.424-0.016,1.968-0.048
		c0.544-0.031,1.072-0.096,1.584-0.192c0.16-0.032,0.264-0.136,0.312-0.312c0.048-0.175,0.072-0.424,0.072-0.744
		c0-0.928-0.408-1.72-1.224-2.376c-0.816-0.655-1.785-0.984-2.904-0.984c-0.736,0-1.472,0.216-2.208,0.648
		c-0.736,0.432-1.344,0.968-1.824,1.608c-0.48,0.641-0.72,1.28-0.72,1.92C67.967,97.615,68.159,97.775,68.543,97.775z"/>
	<path fill="#0D4482" d="M93.167,111.743c-0.288,0-0.521-0.041-0.696-0.12c-0.176-0.08-0.264-0.216-0.264-0.408
		c0-0.256,0.12-0.432,0.36-0.528c0.24-0.096,0.487-0.175,0.744-0.24c0.672-0.16,1.184-0.36,1.536-0.6
		c0.352-0.24,0.528-0.648,0.528-1.224V98.207c0-0.864-0.152-1.632-0.456-2.304c-0.304-0.672-0.872-1.072-1.704-1.2
		c-0.161-0.032-0.281-0.096-0.36-0.192c-0.08-0.096-0.12-0.24-0.12-0.432c0-0.352,0.144-0.544,0.432-0.576
		c1.28-0.288,2.335-0.679,3.168-1.176c0.832-0.496,1.456-0.904,1.872-1.224c0.288-0.224,0.512-0.336,0.672-0.336
		c0.192,0,0.288,0.08,0.288,0.24c0,0.256-0.041,0.76-0.12,1.512c-0.081,0.752-0.152,1.584-0.216,2.496
		c-0.064,0.912-0.096,1.736-0.096,2.472v11.136c0,0.544,0.184,0.944,0.552,1.2c0.368,0.256,0.872,0.464,1.512,0.624
		c0.255,0.064,0.504,0.144,0.744,0.24c0.24,0.096,0.36,0.272,0.36,0.528c0,0.352-0.32,0.528-0.96,0.528
		c-0.608,0-1.097-0.024-1.464-0.072c-0.368-0.048-0.72-0.087-1.056-0.12c-0.336-0.032-0.792-0.048-1.368-0.048
		c-0.544,0-0.992,0.017-1.344,0.048c-0.352,0.032-0.704,0.072-1.056,0.12C94.302,111.719,93.807,111.743,93.167,111.743z
		 M97.007,86.831c-0.672,0-1.241-0.231-1.704-0.696c-0.464-0.464-0.696-1.032-0.696-1.704c0-0.704,0.232-1.288,0.696-1.752
		c0.463-0.463,1.032-0.696,1.704-0.696c0.703,0,1.288,0.233,1.752,0.696c0.463,0.464,0.696,1.048,0.696,1.752
		c0,0.672-0.232,1.24-0.696,1.704C98.294,86.6,97.71,86.831,97.007,86.831z"/>
	<path fill="#0D4482" d="M104.926,111.743c-0.288,0-0.521-0.041-0.696-0.12c-0.176-0.08-0.264-0.216-0.264-0.408
		c0-0.256,0.096-0.424,0.288-0.504c0.192-0.079,0.463-0.168,0.816-0.264c0.48-0.127,0.944-0.304,1.392-0.528
		c0.448-0.223,0.672-0.655,0.672-1.296v-10.32c0-0.864-0.088-1.6-0.264-2.208c-0.176-0.607-0.68-1.024-1.512-1.248
		c-0.128-0.064-0.24-0.136-0.336-0.216c-0.096-0.08-0.144-0.216-0.144-0.408c0-0.352,0.144-0.544,0.432-0.576
		c1.12-0.288,2.032-0.64,2.736-1.056c0.704-0.416,1.392-0.88,2.064-1.392c0.096-0.064,0.184-0.12,0.264-0.168
		c0.08-0.048,0.168-0.072,0.264-0.072c0.063,0,0.12,0.032,0.168,0.096c0.048,0.064,0.072,0.144,0.072,0.24
		c0,0.225-0.041,0.681-0.12,1.368c-0.08,0.688-0.12,1.256-0.12,1.704c0,0.128,0.007,0.248,0.024,0.36
		c0.016,0.113,0.04,0.185,0.072,0.216c1.12-1.056,2.312-1.856,3.576-2.4c1.264-0.543,2.647-0.816,4.152-0.816
		c1.567,0,2.864,0.641,3.888,1.92c1.023,1.28,1.536,2.864,1.536,4.752v10.224c0,0.641,0.224,1.064,0.672,1.272
		c0.448,0.208,0.912,0.393,1.392,0.552c0.255,0.096,0.504,0.2,0.744,0.312c0.24,0.112,0.36,0.296,0.36,0.552
		c0,0.192-0.113,0.312-0.336,0.36c-0.224,0.048-0.432,0.072-0.624,0.072c-0.64,0-1.136-0.024-1.488-0.072
		c-0.353-0.048-0.688-0.087-1.008-0.12c-0.32-0.032-0.768-0.048-1.344-0.048c-0.544,0-0.992,0.017-1.344,0.048
		c-0.353,0.032-0.713,0.072-1.08,0.12c-0.368,0.048-0.873,0.072-1.512,0.072c-0.161,0-0.36-0.024-0.6-0.072
		c-0.24-0.048-0.36-0.168-0.36-0.36c0-0.256,0.12-0.439,0.36-0.552c0.24-0.112,0.488-0.216,0.744-0.312
		c0.48-0.16,0.943-0.344,1.392-0.552c0.448-0.208,0.672-0.631,0.672-1.272v-10.08c0-1.408-0.392-2.503-1.176-3.288
		c-0.785-0.784-1.833-1.191-3.144-1.224c-1.152,0-2.16,0.185-3.024,0.552c-0.864,0.368-1.632,0.824-2.304,1.368
		c-0.128,0.128-0.224,0.296-0.288,0.504c-0.064,0.208-0.096,0.408-0.096,0.6v11.568c0,0.641,0.223,1.073,0.672,1.296
		c0.448,0.225,0.912,0.401,1.392,0.528c0.736,0.192,1.104,0.448,1.104,0.768c0,0.192-0.081,0.328-0.24,0.408
		c-0.161,0.08-0.4,0.12-0.72,0.12c-0.641,0-1.145-0.024-1.512-0.072c-0.368-0.048-0.712-0.087-1.032-0.12
		c-0.32-0.032-0.768-0.048-1.344-0.048c-0.544,0-0.984,0.017-1.32,0.048c-0.336,0.032-0.688,0.072-1.056,0.12
		C106.07,111.719,105.566,111.743,104.926,111.743z"/>
	<path fill="#0D4482" d="M147.981,112.32c-1.601,0-3.048-0.408-4.344-1.224s-2.32-1.936-3.072-3.36
		c-0.752-1.424-1.128-3.016-1.128-4.776c0-2.08,0.456-3.967,1.368-5.664c0.912-1.695,2.136-3.048,3.672-4.056
		c1.536-1.008,3.232-1.512,5.087-1.512c2.08,0,3.904,0.561,5.473,1.68c0.384,0.288,0.576,0.592,0.576,0.912
		c0,0.256-0.113,0.544-0.337,0.864c-0.224,0.32-0.496,0.584-0.815,0.792c-0.32,0.208-0.624,0.312-0.912,0.312
		c-0.16,0-0.32-0.056-0.48-0.168c-0.16-0.112-0.336-0.232-0.527-0.36c-0.704-0.544-1.488-1.056-2.353-1.536
		c-0.863-0.48-1.584-0.72-2.159-0.72c-1.569,0-2.841,0.729-3.816,2.184c-0.977,1.457-1.464,3.368-1.464,5.736
		c0,1.504,0.328,2.864,0.984,4.08c0.655,1.217,1.536,2.177,2.64,2.88c1.104,0.704,2.328,1.056,3.672,1.056
		c0.928,0,1.728-0.151,2.4-0.456c0.672-0.304,1.392-0.84,2.159-1.608c0.064-0.063,0.145-0.12,0.24-0.168s0.176-0.072,0.24-0.072
		c0.352,0,0.528,0.224,0.528,0.672c0,0.192-0.057,0.408-0.168,0.648c-0.113,0.24-0.297,0.521-0.553,0.84
		c-0.512,0.641-1.12,1.193-1.824,1.656c-0.704,0.464-1.48,0.808-2.327,1.032C149.894,112.207,148.974,112.32,147.981,112.32z"/>
	<path fill="#0D4482" d="M167.566,112.271c-1.793,0-3.408-0.416-4.849-1.248c-1.439-0.832-2.584-1.975-3.432-3.432
		c-0.849-1.456-1.272-3.112-1.272-4.968c0-1.344,0.265-2.656,0.792-3.936c0.528-1.279,1.272-2.448,2.232-3.504s2.08-1.896,3.36-2.52
		c1.279-0.624,2.655-0.936,4.128-0.936c1.855,0,3.527,0.449,5.016,1.344c1.488,0.896,2.672,2.072,3.552,3.528
		c0.88,1.457,1.32,3.048,1.32,4.776c0,1.856-0.408,3.617-1.224,5.28c-0.816,1.664-2.024,3.016-3.624,4.056
		C171.966,111.751,169.966,112.271,167.566,112.271z M168.574,110.831c1.087,0,2.063-0.208,2.928-0.624
		c0.864-0.416,1.536-1.087,2.016-2.016c0.385-0.735,0.641-1.632,0.769-2.688c0.127-1.056,0.191-2.047,0.191-2.976
		c0-1.536-0.28-3.016-0.84-4.44c-0.56-1.423-1.344-2.592-2.352-3.504s-2.2-1.368-3.576-1.368c-0.864,0-1.641,0.136-2.328,0.408
		c-0.688,0.272-1.32,0.776-1.896,1.512c-0.641,0.8-1.057,1.776-1.248,2.928c-0.192,1.152-0.288,2.304-0.288,3.456
		c0,1.568,0.288,3.064,0.864,4.488c0.575,1.424,1.359,2.584,2.352,3.48C166.157,110.384,167.294,110.831,168.574,110.831z"/>
	<path fill="#0D4482" d="M182.206,111.743c-0.257,0-0.48-0.032-0.672-0.096c-0.192-0.063-0.288-0.208-0.288-0.432
		c0-0.224,0.104-0.384,0.312-0.48c0.208-0.096,0.472-0.192,0.792-0.288c0.448-0.16,0.904-0.344,1.368-0.552
		c0.464-0.208,0.696-0.631,0.696-1.272v-10.32c0-0.864-0.097-1.624-0.288-2.28c-0.192-0.655-0.704-1.047-1.536-1.176
		c-0.128-0.032-0.232-0.096-0.313-0.192c-0.08-0.096-0.119-0.24-0.119-0.432c0-0.319,0.127-0.512,0.384-0.576
		c0.863-0.223,1.552-0.456,2.063-0.696c0.512-0.24,0.968-0.512,1.368-0.816c0.399-0.304,0.888-0.632,1.464-0.984
		c0.064-0.031,0.128-0.072,0.192-0.12c0.063-0.048,0.144-0.072,0.24-0.072c0.191,0,0.288,0.113,0.288,0.336
		c0,0.225-0.041,0.681-0.12,1.368c-0.081,0.688-0.12,1.256-0.12,1.704c0,0.32,0.031,0.512,0.096,0.576h0.096
		c0.736-0.704,1.704-1.416,2.904-2.136s2.728-1.08,4.584-1.08c1.152,0,2.112,0.249,2.88,0.744c0.769,0.497,1.408,1.352,1.92,2.568
		h0.145c1.023-0.928,2.191-1.711,3.504-2.352c1.312-0.64,2.752-0.96,4.32-0.96c1.056,0,1.936,0.32,2.64,0.96
		c0.703,0.641,1.239,1.472,1.607,2.496c0.368,1.024,0.553,2.096,0.553,3.216v10.224c0,0.641,0.224,1.064,0.672,1.272
		c0.447,0.208,0.912,0.393,1.392,0.552c0.319,0.096,0.584,0.192,0.792,0.288c0.208,0.096,0.313,0.256,0.313,0.48
		c0,0.192-0.072,0.328-0.216,0.408c-0.145,0.08-0.393,0.12-0.744,0.12c-0.641,0-1.137-0.024-1.488-0.072
		c-0.353-0.048-0.681-0.087-0.984-0.12c-0.304-0.032-0.743-0.048-1.319-0.048c-0.545,0-0.992,0.017-1.345,0.048
		c-0.353,0.032-0.72,0.072-1.104,0.12c-0.384,0.048-0.896,0.072-1.536,0.072c-0.288,0-0.521-0.041-0.696-0.12
		s-0.264-0.216-0.264-0.408c0-0.256,0.104-0.432,0.313-0.528c0.207-0.096,0.472-0.175,0.792-0.24
		c0.511-0.127,0.983-0.304,1.416-0.528c0.432-0.223,0.647-0.655,0.647-1.296v-10.08c0-0.768-0.176-1.495-0.528-2.184
		c-0.353-0.688-0.815-1.255-1.392-1.704c-0.576-0.448-1.217-0.672-1.92-0.672c-0.801,0-1.544,0.096-2.232,0.288
		s-1.336,0.528-1.943,1.008c-0.896,0.704-1.345,1.856-1.345,3.456v9.888c0,0.641,0.24,1.073,0.721,1.296
		c0.479,0.225,0.96,0.401,1.439,0.528c0.319,0.064,0.584,0.152,0.792,0.264c0.208,0.113,0.313,0.281,0.313,0.504
		c0,0.192-0.08,0.328-0.24,0.408s-0.4,0.12-0.72,0.12c-0.641,0-1.145-0.024-1.513-0.072c-0.368-0.048-0.72-0.087-1.056-0.12
		c-0.336-0.032-0.792-0.048-1.368-0.048c-0.544,0-0.992,0.017-1.344,0.048c-0.353,0.032-0.72,0.072-1.104,0.12
		c-0.385,0.048-0.896,0.072-1.536,0.072c-0.257,0-0.48-0.041-0.672-0.12c-0.192-0.08-0.288-0.216-0.288-0.408
		c0-0.256,0.12-0.424,0.359-0.504c0.24-0.079,0.487-0.168,0.744-0.264c0.48-0.16,0.952-0.344,1.416-0.552
		c0.464-0.208,0.696-0.631,0.696-1.272v-10.08c0-0.768-0.177-1.495-0.528-2.184c-0.353-0.688-0.815-1.255-1.392-1.704
		c-0.576-0.448-1.217-0.672-1.92-0.672c-0.801,0-1.545,0.096-2.232,0.288c-0.688,0.192-1.336,0.528-1.944,1.008
		c-0.863,0.64-1.296,1.792-1.296,3.456v9.888c0,0.641,0.224,1.064,0.672,1.272c0.448,0.208,0.912,0.393,1.393,0.552
		c0.256,0.096,0.504,0.185,0.744,0.264c0.239,0.081,0.359,0.249,0.359,0.504c0,0.192-0.088,0.328-0.264,0.408
		s-0.408,0.12-0.696,0.12c-0.641,0-1.145-0.024-1.512-0.072c-0.368-0.048-0.713-0.087-1.032-0.12
		c-0.32-0.032-0.768-0.048-1.344-0.048c-0.545,0-0.984,0.017-1.32,0.048c-0.336,0.032-0.688,0.072-1.056,0.12
		C183.35,111.719,182.846,111.743,182.206,111.743z"/>
	<path fill="#0D4482" d="M219.55,111.743c-0.257,0-0.48-0.032-0.672-0.096c-0.192-0.063-0.288-0.208-0.288-0.432
		c0-0.224,0.104-0.384,0.312-0.48c0.208-0.096,0.472-0.192,0.792-0.288c0.448-0.16,0.904-0.344,1.368-0.552
		c0.464-0.208,0.696-0.631,0.696-1.272v-10.32c0-0.864-0.097-1.624-0.288-2.28c-0.192-0.655-0.704-1.047-1.536-1.176
		c-0.128-0.032-0.232-0.096-0.313-0.192c-0.08-0.096-0.119-0.24-0.119-0.432c0-0.319,0.127-0.512,0.384-0.576
		c0.863-0.223,1.552-0.456,2.063-0.696c0.512-0.24,0.968-0.512,1.368-0.816c0.399-0.304,0.888-0.632,1.464-0.984
		c0.064-0.031,0.128-0.072,0.192-0.12c0.063-0.048,0.144-0.072,0.24-0.072c0.191,0,0.288,0.113,0.288,0.336
		c0,0.225-0.041,0.681-0.12,1.368c-0.081,0.688-0.12,1.256-0.12,1.704c0,0.32,0.031,0.512,0.096,0.576h0.096
		c0.736-0.704,1.704-1.416,2.904-2.136s2.728-1.08,4.584-1.08c1.152,0,2.112,0.249,2.88,0.744c0.769,0.497,1.408,1.352,1.92,2.568
		h0.145c1.023-0.928,2.191-1.711,3.504-2.352c1.312-0.64,2.752-0.96,4.32-0.96c1.056,0,1.936,0.32,2.64,0.96
		c0.703,0.641,1.239,1.472,1.607,2.496c0.368,1.024,0.553,2.096,0.553,3.216v10.224c0,0.641,0.224,1.064,0.672,1.272
		c0.447,0.208,0.912,0.393,1.392,0.552c0.319,0.096,0.584,0.192,0.792,0.288c0.208,0.096,0.313,0.256,0.313,0.48
		c0,0.192-0.072,0.328-0.216,0.408c-0.145,0.08-0.393,0.12-0.744,0.12c-0.641,0-1.137-0.024-1.488-0.072
		c-0.353-0.048-0.681-0.087-0.984-0.12c-0.304-0.032-0.743-0.048-1.319-0.048c-0.545,0-0.992,0.017-1.345,0.048
		c-0.353,0.032-0.72,0.072-1.104,0.12c-0.384,0.048-0.896,0.072-1.536,0.072c-0.288,0-0.521-0.041-0.696-0.12
		s-0.264-0.216-0.264-0.408c0-0.256,0.104-0.432,0.313-0.528c0.207-0.096,0.472-0.175,0.792-0.24
		c0.511-0.127,0.983-0.304,1.416-0.528c0.432-0.223,0.647-0.655,0.647-1.296v-10.08c0-0.768-0.176-1.495-0.528-2.184
		c-0.353-0.688-0.815-1.255-1.392-1.704c-0.576-0.448-1.217-0.672-1.92-0.672c-0.801,0-1.544,0.096-2.232,0.288
		s-1.336,0.528-1.943,1.008c-0.896,0.704-1.345,1.856-1.345,3.456v9.888c0,0.641,0.24,1.073,0.721,1.296
		c0.479,0.225,0.96,0.401,1.439,0.528c0.319,0.064,0.584,0.152,0.792,0.264c0.208,0.113,0.313,0.281,0.313,0.504
		c0,0.192-0.08,0.328-0.24,0.408s-0.4,0.12-0.72,0.12c-0.641,0-1.145-0.024-1.513-0.072c-0.368-0.048-0.72-0.087-1.056-0.12
		c-0.336-0.032-0.792-0.048-1.368-0.048c-0.544,0-0.992,0.017-1.344,0.048c-0.353,0.032-0.72,0.072-1.104,0.12
		c-0.385,0.048-0.896,0.072-1.536,0.072c-0.257,0-0.48-0.041-0.672-0.12c-0.192-0.08-0.288-0.216-0.288-0.408
		c0-0.256,0.12-0.424,0.359-0.504c0.24-0.079,0.487-0.168,0.744-0.264c0.48-0.16,0.952-0.344,1.416-0.552
		c0.464-0.208,0.696-0.631,0.696-1.272v-10.08c0-0.768-0.177-1.495-0.528-2.184c-0.353-0.688-0.815-1.255-1.392-1.704
		c-0.576-0.448-1.217-0.672-1.92-0.672c-0.801,0-1.545,0.096-2.232,0.288c-0.688,0.192-1.336,0.528-1.944,1.008
		c-0.863,0.64-1.296,1.792-1.296,3.456v9.888c0,0.641,0.224,1.064,0.672,1.272c0.448,0.208,0.912,0.393,1.393,0.552
		c0.256,0.096,0.504,0.185,0.744,0.264c0.239,0.081,0.359,0.249,0.359,0.504c0,0.192-0.088,0.328-0.264,0.408
		s-0.408,0.12-0.696,0.12c-0.641,0-1.145-0.024-1.512-0.072c-0.368-0.048-0.713-0.087-1.032-0.12
		c-0.32-0.032-0.768-0.048-1.344-0.048c-0.545,0-0.984,0.017-1.32,0.048c-0.336,0.032-0.688,0.072-1.056,0.12
		C220.693,111.719,220.189,111.743,219.55,111.743z"/>
	<path fill="#0D4482" d="M266.014,112.271c-1.793,0-3.408-0.416-4.849-1.248c-1.439-0.832-2.584-1.975-3.432-3.432
		c-0.849-1.456-1.272-3.112-1.272-4.968c0-1.344,0.265-2.656,0.792-3.936c0.528-1.279,1.272-2.448,2.232-3.504s2.08-1.896,3.36-2.52
		c1.279-0.624,2.655-0.936,4.128-0.936c1.855,0,3.527,0.449,5.016,1.344c1.488,0.896,2.672,2.072,3.552,3.528
		c0.88,1.457,1.32,3.048,1.32,4.776c0,1.856-0.408,3.617-1.224,5.28c-0.816,1.664-2.024,3.016-3.624,4.056
		C270.413,111.751,268.413,112.271,266.014,112.271z M267.021,110.831c1.087,0,2.063-0.208,2.928-0.624
		c0.864-0.416,1.536-1.087,2.016-2.016c0.385-0.735,0.641-1.632,0.769-2.688c0.127-1.056,0.191-2.047,0.191-2.976
		c0-1.536-0.28-3.016-0.84-4.44c-0.56-1.423-1.344-2.592-2.352-3.504s-2.2-1.368-3.576-1.368c-0.864,0-1.641,0.136-2.328,0.408
		c-0.688,0.272-1.32,0.776-1.896,1.512c-0.641,0.8-1.057,1.776-1.248,2.928c-0.192,1.152-0.288,2.304-0.288,3.456
		c0,1.568,0.288,3.064,0.864,4.488c0.575,1.424,1.359,2.584,2.352,3.48C264.604,110.384,265.741,110.831,267.021,110.831z"/>
	<path fill="#0D4482" d="M280.653,111.743c-0.288,0-0.521-0.041-0.696-0.12s-0.264-0.216-0.264-0.408
		c0-0.256,0.096-0.424,0.288-0.504c0.191-0.079,0.463-0.168,0.815-0.264c0.48-0.127,0.943-0.304,1.393-0.528
		c0.447-0.223,0.672-0.655,0.672-1.296v-10.32c0-0.864-0.089-1.6-0.265-2.208c-0.176-0.607-0.68-1.024-1.512-1.248
		c-0.128-0.064-0.24-0.136-0.336-0.216c-0.096-0.08-0.144-0.216-0.144-0.408c0-0.352,0.144-0.544,0.432-0.576
		c1.12-0.288,2.031-0.64,2.736-1.056c0.703-0.416,1.392-0.88,2.063-1.392c0.096-0.064,0.184-0.12,0.264-0.168
		c0.08-0.048,0.168-0.072,0.265-0.072c0.063,0,0.12,0.032,0.168,0.096c0.048,0.064,0.072,0.144,0.072,0.24
		c0,0.225-0.041,0.681-0.12,1.368c-0.081,0.688-0.12,1.256-0.12,1.704c0,0.128,0.007,0.248,0.023,0.36
		c0.016,0.113,0.04,0.185,0.072,0.216c1.12-1.056,2.312-1.856,3.576-2.4c1.264-0.543,2.647-0.816,4.152-0.816
		c1.567,0,2.863,0.641,3.888,1.92c1.023,1.28,1.536,2.864,1.536,4.752v10.224c0,0.641,0.224,1.064,0.672,1.272
		c0.447,0.208,0.912,0.393,1.392,0.552c0.256,0.096,0.504,0.2,0.744,0.312c0.24,0.112,0.36,0.296,0.36,0.552
		c0,0.192-0.112,0.312-0.336,0.36c-0.225,0.048-0.433,0.072-0.624,0.072c-0.641,0-1.137-0.024-1.488-0.072
		c-0.353-0.048-0.688-0.087-1.008-0.12c-0.32-0.032-0.769-0.048-1.344-0.048c-0.545,0-0.993,0.017-1.345,0.048
		c-0.353,0.032-0.712,0.072-1.08,0.12c-0.368,0.048-0.872,0.072-1.512,0.072c-0.16,0-0.36-0.024-0.6-0.072
		c-0.24-0.048-0.36-0.168-0.36-0.36c0-0.256,0.12-0.439,0.36-0.552c0.239-0.112,0.487-0.216,0.744-0.312
		c0.479-0.16,0.943-0.344,1.392-0.552c0.447-0.208,0.672-0.631,0.672-1.272v-10.08c0-1.408-0.393-2.503-1.176-3.288
		c-0.784-0.784-1.832-1.191-3.145-1.224c-1.151,0-2.159,0.185-3.023,0.552c-0.864,0.368-1.632,0.824-2.304,1.368
		c-0.129,0.128-0.225,0.296-0.288,0.504c-0.064,0.208-0.097,0.408-0.097,0.6v11.568c0,0.641,0.224,1.073,0.672,1.296
		c0.448,0.225,0.912,0.401,1.393,0.528c0.735,0.192,1.104,0.448,1.104,0.768c0,0.192-0.08,0.328-0.239,0.408
		c-0.161,0.08-0.401,0.12-0.721,0.12c-0.641,0-1.145-0.024-1.512-0.072c-0.368-0.048-0.713-0.087-1.032-0.12
		c-0.32-0.032-0.768-0.048-1.344-0.048c-0.545,0-0.984,0.017-1.32,0.048c-0.336,0.032-0.688,0.072-1.056,0.12
		C281.797,111.719,281.293,111.743,280.653,111.743z"/>
	<path fill="#0D4482" d="M2.112,183.743c-0.288,0-0.521-0.041-0.696-0.12c-0.176-0.08-0.264-0.216-0.264-0.408
		c0-0.256,0.12-0.432,0.36-0.528c0.24-0.096,0.487-0.175,0.744-0.24c0.672-0.16,1.184-0.36,1.536-0.6
		c0.352-0.24,0.528-0.648,0.528-1.224v-10.416c0-0.864-0.152-1.632-0.456-2.304c-0.304-0.672-0.872-1.072-1.704-1.2
		c-0.161-0.032-0.281-0.096-0.36-0.192c-0.08-0.096-0.12-0.24-0.12-0.432c0-0.352,0.144-0.544,0.432-0.576
		c1.28-0.288,2.335-0.679,3.168-1.176c0.832-0.496,1.456-0.904,1.872-1.224c0.288-0.224,0.512-0.336,0.672-0.336
		c0.192,0,0.288,0.08,0.288,0.24c0,0.256-0.041,0.76-0.12,1.512c-0.081,0.752-0.152,1.584-0.216,2.496
		c-0.064,0.912-0.096,1.736-0.096,2.472v11.136c0,0.544,0.184,0.944,0.552,1.2c0.368,0.256,0.872,0.464,1.512,0.624
		c0.255,0.064,0.504,0.144,0.744,0.24c0.24,0.096,0.36,0.272,0.36,0.528c0,0.352-0.32,0.528-0.96,0.528
		c-0.608,0-1.097-0.024-1.464-0.072c-0.368-0.048-0.72-0.087-1.056-0.12c-0.336-0.032-0.792-0.048-1.368-0.048
		c-0.544,0-0.992,0.017-1.344,0.048c-0.352,0.032-0.704,0.072-1.056,0.12C3.248,183.719,2.752,183.743,2.112,183.743z
		 M5.952,158.831c-0.672,0-1.241-0.231-1.704-0.696c-0.464-0.464-0.696-1.032-0.696-1.704c0-0.704,0.232-1.288,0.696-1.752
		c0.463-0.463,1.032-0.696,1.704-0.696c0.703,0,1.288,0.233,1.752,0.696c0.463,0.464,0.696,1.048,0.696,1.752
		c0,0.672-0.232,1.24-0.696,1.704C7.24,158.6,6.655,158.831,5.952,158.831z"/>
	<path fill="#0D4482" d="M18.672,184.271c-0.992,0-1.92-0.152-2.784-0.456c-0.864-0.304-1.601-0.728-2.208-1.272
		c-0.161-0.352-0.28-0.943-0.36-1.776c-0.08-0.832-0.137-1.52-0.168-2.064c0-0.288,0.208-0.432,0.624-0.432
		c0.127,0,0.248,0.024,0.36,0.072c0.112,0.048,0.184,0.136,0.216,0.264c0.416,1.568,1.08,2.688,1.992,3.36
		c0.912,0.672,1.832,1.008,2.76,1.008c0.928,0,1.72-0.312,2.376-0.936c0.655-0.624,0.984-1.399,0.984-2.328
		c0-0.864-0.288-1.608-0.864-2.232c-0.576-0.624-1.584-1.384-3.024-2.28c-1.088-0.672-1.968-1.312-2.64-1.92
		c-0.672-0.608-1.16-1.231-1.464-1.872c-0.304-0.64-0.456-1.36-0.456-2.16c0-1.024,0.24-1.952,0.72-2.784
		c0.48-0.832,1.2-1.495,2.16-1.992c0.96-0.496,2.16-0.744,3.6-0.744c0.96,0,1.76,0.096,2.4,0.288c0.64,0.192,1.12,0.4,1.44,0.624
		c0.255,0.353,0.472,0.904,0.648,1.656c0.175,0.752,0.264,1.464,0.264,2.136c0,0.224-0.16,0.336-0.48,0.336
		c-0.192,0-0.376-0.04-0.552-0.12c-0.176-0.08-0.296-0.184-0.36-0.312c-0.417-1.056-0.936-1.864-1.56-2.424
		c-0.624-0.56-1.4-0.84-2.328-0.84c-0.8,0-1.512,0.24-2.136,0.72c-0.624,0.48-0.936,1.185-0.936,2.112
		c0,0.736,0.231,1.392,0.696,1.968c0.463,0.576,1.336,1.232,2.616,1.968c1.855,1.056,3.24,2.04,4.152,2.952s1.368,2.12,1.368,3.624
		c0,1.728-0.656,3.137-1.968,4.224C22.447,183.727,20.751,184.271,18.672,184.271z"/>
	<path fill="#0D4482" d="M47.087,184.32c-1.76,0-3.296-0.432-4.608-1.296c-1.313-0.864-2.336-2.088-3.072-3.672
		c-0.736-1.584-1.104-3.416-1.104-5.496c0-1.855,0.424-3.543,1.272-5.064c0.848-1.52,1.976-2.743,3.384-3.672
		c1.408-0.928,2.943-1.392,4.608-1.392c1.279,0,2.416,0.256,3.408,0.768c0.992,0.512,1.768,1.224,2.328,2.136
		c0.56,0.912,0.84,1.96,0.84,3.144c0,0.993-0.48,1.488-1.44,1.488H42.575c-0.448,0-0.76,0.12-0.936,0.36
		c-0.176,0.24-0.264,0.712-0.264,1.416c0,1.536,0.336,2.937,1.008,4.2c0.672,1.264,1.567,2.272,2.688,3.024
		c1.12,0.752,2.352,1.128,3.696,1.128c0.96,0,1.832-0.184,2.616-0.552c0.784-0.368,1.479-0.904,2.088-1.608
		c0.127-0.16,0.224-0.264,0.288-0.312c0.064-0.048,0.144-0.072,0.24-0.072c0.255,0,0.384,0.161,0.384,0.48
		c0,0.608-0.288,1.28-0.864,2.016c-0.48,0.608-1.056,1.136-1.728,1.584c-0.672,0.448-1.409,0.792-2.208,1.032
		C48.783,184.199,47.951,184.32,47.087,184.32z M42.671,169.775h4.368c0.768,0,1.424-0.016,1.968-0.048
		c0.544-0.031,1.072-0.096,1.584-0.192c0.16-0.032,0.264-0.136,0.312-0.312c0.048-0.175,0.072-0.424,0.072-0.744
		c0-0.928-0.408-1.72-1.224-2.376c-0.816-0.655-1.785-0.984-2.904-0.984c-0.736,0-1.472,0.216-2.208,0.648
		c-0.736,0.432-1.344,0.968-1.824,1.608c-0.48,0.641-0.72,1.28-0.72,1.92C42.095,169.615,42.287,169.775,42.671,169.775z"/>
	<path fill="#0D4482" d="M56.303,183.791c-0.192,0-0.4-0.024-0.624-0.072c-0.224-0.048-0.336-0.168-0.336-0.36
		c0-0.255,0.12-0.448,0.36-0.576c0.24-0.127,0.488-0.224,0.744-0.288c0.48-0.16,0.967-0.424,1.464-0.792
		c0.496-0.368,1.08-1.016,1.752-1.944l3.696-5.136c0.224-0.256,0.328-0.456,0.312-0.6c-0.017-0.144-0.088-0.312-0.216-0.504
		l-3.936-6c-0.384-0.64-0.728-1.104-1.032-1.392c-0.305-0.288-0.696-0.496-1.176-0.624c-0.257-0.063-0.504-0.16-0.744-0.288
		c-0.24-0.128-0.36-0.32-0.36-0.576c0-0.256,0.151-0.392,0.456-0.408c0.304-0.016,0.52-0.024,0.648-0.024
		c0.64,0,1.08,0.017,1.32,0.048c0.24,0.033,0.52,0.065,0.84,0.096c0.32,0.032,0.864,0.048,1.632,0.048
		c0.576,0,0.991-0.016,1.248-0.048c0.256-0.031,0.656-0.048,1.2-0.048c0.127,0,0.344,0.008,0.648,0.024
		c0.304,0.017,0.456,0.152,0.456,0.408c0,0.192-0.088,0.336-0.264,0.432c-0.176,0.096-0.376,0.176-0.6,0.24
		c-0.225,0.064-0.449,0.152-0.672,0.264c-0.224,0.113-0.336,0.296-0.336,0.552c0,0.161,0.056,0.376,0.168,0.648
		c0.112,0.272,0.264,0.568,0.456,0.888l2.208,3.312c0.127,0.224,0.271,0.224,0.432,0l2.448-3.696
		c0.127-0.16,0.224-0.336,0.288-0.528c0.064-0.192,0.096-0.368,0.096-0.528c0-0.384-0.208-0.64-0.624-0.768
		c-0.256-0.096-0.504-0.208-0.744-0.336c-0.24-0.128-0.36-0.304-0.36-0.528c0-0.256,0.151-0.392,0.456-0.408
		c0.304-0.016,0.52-0.024,0.648-0.024c0.256,0,0.624,0.024,1.104,0.072s0.912,0.072,1.296,0.072c0.896,0,1.52-0.04,1.872-0.12
		c0.352-0.08,0.736-0.12,1.152-0.12c0.192,0,0.4,0.024,0.624,0.072c0.224,0.048,0.336,0.168,0.336,0.36c0,0.224-0.12,0.4-0.36,0.528
		c-0.24,0.128-0.488,0.24-0.744,0.336c-0.48,0.128-1.056,0.376-1.728,0.744c-0.672,0.368-1.232,0.872-1.68,1.512l-3.024,4.56
		c-0.033,0.064-0.057,0.152-0.072,0.264c-0.017,0.112,0.024,0.232,0.12,0.36l4.656,7.584c0.384,0.608,0.751,1.056,1.104,1.344
		c0.352,0.288,0.768,0.512,1.248,0.672c0.256,0.064,0.504,0.161,0.744,0.288c0.24,0.128,0.36,0.32,0.36,0.576
		c0,0.192-0.112,0.312-0.336,0.36c-0.224,0.048-0.432,0.072-0.624,0.072c-0.641,0-1.104-0.017-1.392-0.048
		c-0.288-0.032-0.6-0.064-0.936-0.096c-0.336-0.032-0.904-0.048-1.704-0.048c-0.576,0-1.169,0.016-1.776,0.048
		c-0.608,0.032-1.184,0.048-1.728,0.048c-0.736,0-1.104-0.16-1.104-0.48c0-0.288,0.104-0.496,0.312-0.624
		c0.208-0.128,0.504-0.24,0.888-0.336c0.352-0.096,0.664-0.231,0.936-0.408c0.271-0.176,0.408-0.424,0.408-0.744
		c0-0.127-0.024-0.264-0.072-0.408s-0.12-0.296-0.216-0.456l-2.832-4.608c-0.096-0.096-0.192-0.096-0.288,0l-3.168,4.752
		c-0.032,0.064-0.08,0.184-0.144,0.36c-0.064,0.176-0.096,0.36-0.096,0.552c0,0.225,0.056,0.44,0.168,0.648
		c0.112,0.208,0.28,0.344,0.504,0.408c0.255,0.096,0.504,0.2,0.744,0.312c0.24,0.112,0.36,0.296,0.36,0.552
		c0,0.224-0.152,0.352-0.456,0.384c-0.305,0.032-0.521,0.048-0.648,0.048c-0.257,0-0.648-0.016-1.176-0.048
		s-0.984-0.048-1.368-0.048c-0.896,0-1.544,0.041-1.944,0.12C57.175,183.751,56.751,183.791,56.303,183.791z"/>
	<path fill="#0D4482" d="M77.423,197.28c-0.161,0-0.368-0.024-0.624-0.072c-0.256-0.048-0.384-0.168-0.384-0.36
		c0-0.256,0.12-0.44,0.36-0.552c0.24-0.112,0.487-0.216,0.744-0.312c0.48-0.16,0.943-0.344,1.392-0.552
		c0.448-0.208,0.672-0.632,0.672-1.272v-24.336c0-0.256-0.072-0.64-0.216-1.152c-0.144-0.511-0.376-1.008-0.696-1.488
		c-0.32-0.48-0.752-0.768-1.296-0.864c-0.128-0.032-0.224-0.112-0.288-0.24c-0.064-0.127-0.096-0.256-0.096-0.384
		c0-0.16,0.032-0.288,0.096-0.384c0.064-0.096,0.144-0.16,0.24-0.192c1.215-0.288,2.256-0.6,3.12-0.936
		c0.864-0.336,1.68-0.664,2.448-0.984c0.031,0,0.048-0.008,0.048-0.024s0.016-0.024,0.048-0.024c0.064,0,0.128,0.048,0.192,0.144
		c0.063,0.096,0.096,0.192,0.096,0.288c0,0.288-0.041,0.744-0.12,1.368c-0.08,0.624-0.12,1.128-0.12,1.512
		c0,0.257,0.016,0.401,0.048,0.432c0.319-0.319,0.904-0.728,1.752-1.224c0.848-0.496,1.816-0.943,2.904-1.344
		c1.087-0.4,2.127-0.6,3.12-0.6c1.664,0,3.08,0.44,4.248,1.32c1.168,0.88,2.064,2.016,2.688,3.408s0.936,2.84,0.936,4.344
		c0,1.44-0.272,2.84-0.816,4.2c-0.544,1.361-1.313,2.584-2.304,3.672c-0.992,1.088-2.144,1.961-3.456,2.616
		c-1.313,0.655-2.72,0.984-4.224,0.984c-0.449,0-0.984-0.072-1.608-0.216s-1.232-0.329-1.824-0.552
		c-0.592-0.223-1.048-0.48-1.368-0.768c-0.032,0-0.064,0.184-0.096,0.552c-0.032,0.368-0.056,0.751-0.072,1.152
		c-0.017,0.4-0.024,0.648-0.024,0.744v8.976c0,0.416,0.168,0.744,0.504,0.984c0.336,0.24,0.72,0.416,1.152,0.528
		c0.432,0.112,0.808,0.216,1.128,0.312c0.256,0.096,0.504,0.2,0.744,0.312c0.24,0.112,0.36,0.296,0.36,0.552
		c0,0.192-0.128,0.312-0.384,0.36c-0.256,0.048-0.48,0.072-0.672,0.072c-0.929,0-1.704-0.041-2.328-0.12
		c-0.624-0.08-1.352-0.12-2.184-0.12c-0.544,0-0.984,0.016-1.32,0.048c-0.336,0.032-0.68,0.072-1.032,0.12
		C78.559,197.255,78.063,197.28,77.423,197.28z M88.655,182.783c0.48,0,1.063-0.144,1.752-0.432
		c0.688-0.288,1.375-0.751,2.064-1.392c0.688-0.64,1.264-1.503,1.728-2.592c0.464-1.087,0.696-2.432,0.696-4.032
		c0-1.855-0.24-3.343-0.72-4.464c-0.48-1.12-1.072-1.968-1.776-2.544c-0.704-0.576-1.424-0.96-2.16-1.152
		c-0.736-0.192-1.36-0.288-1.872-0.288c-0.768,0-1.56,0.161-2.376,0.48c-0.816,0.32-1.504,0.68-2.064,1.08
		c-0.56,0.4-0.84,0.712-0.84,0.936c0,0.704-0.008,1.416-0.024,2.136c-0.017,0.72-0.032,1.416-0.048,2.088
		c-0.017,0.672-0.032,1.272-0.048,1.8c-0.017,0.528-0.024,0.936-0.024,1.224c0,1.28,0.295,2.464,0.888,3.552
		c0.592,1.088,1.327,1.96,2.208,2.616C86.918,182.456,87.791,182.783,88.655,182.783z"/>
	<path fill="#0D4482" d="M110.639,184.32c-1.76,0-3.296-0.432-4.608-1.296c-1.313-0.864-2.336-2.088-3.072-3.672
		c-0.736-1.584-1.104-3.416-1.104-5.496c0-1.855,0.424-3.543,1.272-5.064c0.848-1.52,1.976-2.743,3.384-3.672
		c1.408-0.928,2.943-1.392,4.608-1.392c1.279,0,2.416,0.256,3.408,0.768c0.992,0.512,1.768,1.224,2.328,2.136
		c0.56,0.912,0.84,1.96,0.84,3.144c0,0.993-0.48,1.488-1.44,1.488h-10.128c-0.448,0-0.76,0.12-0.936,0.36
		c-0.176,0.24-0.264,0.712-0.264,1.416c0,1.536,0.336,2.937,1.008,4.2c0.672,1.264,1.567,2.272,2.688,3.024
		c1.12,0.752,2.352,1.128,3.696,1.128c0.96,0,1.832-0.184,2.616-0.552c0.784-0.368,1.479-0.904,2.088-1.608
		c0.127-0.16,0.224-0.264,0.288-0.312c0.064-0.048,0.144-0.072,0.24-0.072c0.255,0,0.384,0.161,0.384,0.48
		c0,0.608-0.288,1.28-0.864,2.016c-0.48,0.608-1.056,1.136-1.728,1.584c-0.672,0.448-1.409,0.792-2.208,1.032
		C112.335,184.199,111.503,184.32,110.639,184.32z M106.223,169.775h4.368c0.768,0,1.424-0.016,1.968-0.048
		c0.544-0.031,1.072-0.096,1.584-0.192c0.16-0.032,0.264-0.136,0.312-0.312c0.048-0.175,0.072-0.424,0.072-0.744
		c0-0.928-0.408-1.72-1.224-2.376c-0.816-0.655-1.785-0.984-2.904-0.984c-0.736,0-1.472,0.216-2.208,0.648
		c-0.736,0.432-1.344,0.968-1.824,1.608c-0.48,0.641-0.72,1.28-0.72,1.92C105.647,169.615,105.839,169.775,106.223,169.775z"/>
	<path fill="#0D4482" d="M121.487,183.743c-0.32,0-0.56-0.041-0.72-0.12s-0.24-0.216-0.24-0.408c0-0.256,0.096-0.424,0.288-0.504
		c0.192-0.079,0.463-0.168,0.816-0.264c0.607-0.16,1.063-0.392,1.368-0.696c0.304-0.304,0.456-0.679,0.456-1.128v-10.32
		c0-0.864-0.128-1.616-0.384-2.256c-0.256-0.64-0.785-1.04-1.584-1.2c-0.128-0.032-0.24-0.112-0.336-0.24
		c-0.096-0.127-0.144-0.255-0.144-0.384c0-0.319,0.144-0.512,0.432-0.576c0.832-0.255,1.704-0.631,2.616-1.128
		c0.912-0.496,1.624-0.904,2.136-1.224c0.192-0.127,0.343-0.216,0.456-0.264c0.111-0.048,0.199-0.072,0.264-0.072
		c0.16,0,0.24,0.113,0.24,0.336c0,0.096-0.008,0.336-0.024,0.72c-0.017,0.384-0.032,0.833-0.048,1.344
		c-0.016,0.513-0.041,1.025-0.072,1.536c0,0.064,0.031,0.096,0.096,0.096c0.512-0.64,1.08-1.2,1.704-1.68s1.264-0.864,1.92-1.152
		c0.656-0.288,1.288-0.432,1.896-0.432c0.672,0,1.224,0.144,1.656,0.432s0.648,0.656,0.648,1.104c0,0.32-0.088,0.672-0.264,1.056
		c-0.176,0.384-0.408,0.72-0.696,1.008s-0.593,0.432-0.912,0.432c-0.192,0-0.4-0.04-0.624-0.12c-0.224-0.08-0.464-0.184-0.72-0.312
		c-0.257-0.096-0.512-0.192-0.768-0.288c-0.257-0.096-0.512-0.144-0.768-0.144c-0.768,0-1.512,0.272-2.232,0.816
		c-0.72,0.545-1.08,1.616-1.08,3.216v9.696c0,0.417,0.224,0.761,0.672,1.032c0.448,0.272,1.072,0.536,1.872,0.792
		c0.352,0.096,0.624,0.192,0.816,0.288c0.192,0.096,0.288,0.256,0.288,0.48c0,0.352-0.32,0.528-0.96,0.528
		c-0.96,0-1.688-0.041-2.184-0.12c-0.497-0.08-1.16-0.12-1.992-0.12c-0.545,0-0.984,0.017-1.32,0.048
		c-0.336,0.032-0.688,0.072-1.056,0.12C122.63,183.719,122.126,183.743,121.487,183.743z"/>
	<path fill="#0D4482" d="M137.279,183.743c-0.288,0-0.521-0.041-0.696-0.12c-0.176-0.08-0.264-0.216-0.264-0.408
		c0-0.256,0.12-0.432,0.36-0.528c0.24-0.096,0.487-0.175,0.744-0.24c0.672-0.16,1.184-0.36,1.536-0.6
		c0.352-0.24,0.528-0.648,0.528-1.224v-10.416c0-0.864-0.152-1.632-0.456-2.304c-0.304-0.672-0.872-1.072-1.704-1.2
		c-0.161-0.032-0.281-0.096-0.36-0.192c-0.08-0.096-0.12-0.24-0.12-0.432c0-0.352,0.144-0.544,0.432-0.576
		c1.28-0.288,2.335-0.679,3.168-1.176c0.832-0.496,1.456-0.904,1.872-1.224c0.288-0.224,0.512-0.336,0.672-0.336
		c0.192,0,0.288,0.08,0.288,0.24c0,0.256-0.041,0.76-0.12,1.512c-0.081,0.752-0.152,1.584-0.216,2.496
		c-0.064,0.912-0.096,1.736-0.096,2.472v11.136c0,0.544,0.184,0.944,0.552,1.2c0.368,0.256,0.872,0.464,1.512,0.624
		c0.255,0.064,0.504,0.144,0.743,0.24c0.24,0.096,0.361,0.272,0.361,0.528c0,0.352-0.32,0.528-0.961,0.528
		c-0.608,0-1.096-0.024-1.464-0.072c-0.368-0.048-0.72-0.087-1.056-0.12c-0.336-0.032-0.792-0.048-1.368-0.048
		c-0.544,0-0.992,0.017-1.344,0.048c-0.352,0.032-0.704,0.072-1.056,0.12C138.415,183.719,137.919,183.743,137.279,183.743z
		 M141.119,158.831c-0.672,0-1.241-0.231-1.704-0.696c-0.464-0.464-0.696-1.032-0.696-1.704c0-0.704,0.232-1.288,0.696-1.752
		c0.463-0.463,1.032-0.696,1.704-0.696c0.703,0,1.288,0.233,1.752,0.696c0.463,0.464,0.696,1.048,0.696,1.752
		c0,0.672-0.232,1.24-0.696,1.704C142.407,158.6,141.822,158.831,141.119,158.831z"/>
	<path fill="#0D4482" d="M157.15,184.32c-1.76,0-3.296-0.432-4.607-1.296c-1.313-0.864-2.337-2.088-3.072-3.672
		c-0.736-1.584-1.104-3.416-1.104-5.496c0-1.855,0.423-3.543,1.271-5.064c0.848-1.52,1.976-2.743,3.384-3.672
		c1.408-0.928,2.944-1.392,4.608-1.392c1.279,0,2.416,0.256,3.408,0.768c0.991,0.512,1.768,1.224,2.328,2.136
		c0.559,0.912,0.84,1.96,0.84,3.144c0,0.993-0.48,1.488-1.44,1.488h-10.128c-0.448,0-0.761,0.12-0.936,0.36
		c-0.177,0.24-0.265,0.712-0.265,1.416c0,1.536,0.336,2.937,1.008,4.2c0.673,1.264,1.568,2.272,2.688,3.024
		c1.12,0.752,2.352,1.128,3.696,1.128c0.96,0,1.831-0.184,2.615-0.552c0.784-0.368,1.48-0.904,2.089-1.608
		c0.127-0.16,0.223-0.264,0.288-0.312c0.063-0.048,0.144-0.072,0.239-0.072c0.256,0,0.384,0.161,0.384,0.48
		c0,0.608-0.287,1.28-0.863,2.016c-0.48,0.608-1.057,1.136-1.729,1.584c-0.672,0.448-1.408,0.792-2.208,1.032
		C158.847,184.199,158.015,184.32,157.15,184.32z M152.734,169.775h4.368c0.769,0,1.424-0.016,1.968-0.048
		c0.544-0.031,1.072-0.096,1.584-0.192c0.16-0.032,0.265-0.136,0.313-0.312c0.048-0.175,0.072-0.424,0.072-0.744
		c0-0.928-0.408-1.72-1.225-2.376c-0.815-0.655-1.784-0.984-2.903-0.984c-0.737,0-1.473,0.216-2.208,0.648
		c-0.737,0.432-1.345,0.968-1.824,1.608c-0.48,0.641-0.72,1.28-0.72,1.92C152.159,169.615,152.351,169.775,152.734,169.775z"/>
	<path fill="#0D4482" d="M167.759,183.743c-0.288,0-0.521-0.041-0.696-0.12s-0.264-0.216-0.264-0.408
		c0-0.256,0.096-0.424,0.288-0.504c0.191-0.079,0.463-0.168,0.815-0.264c0.48-0.127,0.943-0.304,1.393-0.528
		c0.447-0.223,0.672-0.655,0.672-1.296v-10.32c0-0.864-0.089-1.6-0.265-2.208c-0.176-0.607-0.68-1.024-1.512-1.248
		c-0.128-0.064-0.24-0.136-0.336-0.216c-0.096-0.08-0.144-0.216-0.144-0.408c0-0.352,0.144-0.544,0.432-0.576
		c1.12-0.288,2.031-0.64,2.736-1.056c0.703-0.416,1.392-0.88,2.063-1.392c0.096-0.064,0.184-0.12,0.264-0.168
		c0.08-0.048,0.168-0.072,0.265-0.072c0.063,0,0.12,0.032,0.168,0.096c0.048,0.064,0.072,0.144,0.072,0.24
		c0,0.225-0.041,0.681-0.12,1.368c-0.081,0.688-0.12,1.256-0.12,1.704c0,0.128,0.007,0.248,0.023,0.36
		c0.016,0.113,0.04,0.185,0.072,0.216c1.12-1.056,2.312-1.856,3.576-2.4c1.264-0.543,2.647-0.816,4.152-0.816
		c1.567,0,2.863,0.641,3.888,1.92c1.023,1.28,1.536,2.864,1.536,4.752v10.224c0,0.641,0.224,1.064,0.672,1.272
		c0.447,0.208,0.912,0.393,1.392,0.552c0.256,0.096,0.504,0.2,0.744,0.312c0.24,0.112,0.36,0.296,0.36,0.552
		c0,0.192-0.112,0.312-0.336,0.36c-0.225,0.048-0.433,0.072-0.624,0.072c-0.641,0-1.137-0.024-1.488-0.072
		c-0.353-0.048-0.688-0.087-1.008-0.12c-0.32-0.032-0.769-0.048-1.344-0.048c-0.545,0-0.993,0.017-1.345,0.048
		c-0.353,0.032-0.712,0.072-1.08,0.12c-0.368,0.048-0.872,0.072-1.512,0.072c-0.16,0-0.36-0.024-0.6-0.072
		c-0.24-0.048-0.36-0.168-0.36-0.36c0-0.256,0.12-0.439,0.36-0.552c0.239-0.112,0.487-0.216,0.744-0.312
		c0.479-0.16,0.943-0.344,1.392-0.552c0.447-0.208,0.672-0.631,0.672-1.272v-10.08c0-1.408-0.393-2.503-1.176-3.288
		c-0.784-0.784-1.832-1.191-3.145-1.224c-1.151,0-2.159,0.185-3.023,0.552c-0.864,0.368-1.632,0.824-2.304,1.368
		c-0.129,0.128-0.225,0.296-0.288,0.504c-0.064,0.208-0.097,0.408-0.097,0.6v11.568c0,0.641,0.224,1.073,0.672,1.296
		c0.448,0.225,0.912,0.401,1.393,0.528c0.735,0.192,1.104,0.448,1.104,0.768c0,0.192-0.08,0.328-0.239,0.408
		c-0.161,0.08-0.401,0.12-0.721,0.12c-0.641,0-1.145-0.024-1.512-0.072c-0.368-0.048-0.713-0.087-1.032-0.12
		c-0.32-0.032-0.768-0.048-1.344-0.048c-0.545,0-0.984,0.017-1.32,0.048c-0.336,0.032-0.688,0.072-1.056,0.12
		C168.902,183.719,168.398,183.743,167.759,183.743z"/>
	<path fill="#0D4482" d="M201.214,184.32c-1.601,0-3.048-0.408-4.344-1.224s-2.32-1.936-3.072-3.36s-1.128-3.016-1.128-4.776
		c0-2.08,0.456-3.967,1.368-5.664c0.912-1.695,2.136-3.048,3.672-4.056c1.536-1.008,3.232-1.512,5.088-1.512
		c2.08,0,3.904,0.561,5.473,1.68c0.384,0.288,0.576,0.592,0.576,0.912c0,0.256-0.113,0.544-0.337,0.864
		c-0.224,0.32-0.496,0.584-0.815,0.792c-0.32,0.208-0.624,0.312-0.912,0.312c-0.16,0-0.32-0.056-0.48-0.168
		c-0.16-0.112-0.336-0.232-0.527-0.36c-0.704-0.544-1.488-1.056-2.353-1.536c-0.863-0.48-1.584-0.72-2.159-0.72
		c-1.568,0-2.841,0.729-3.816,2.184c-0.977,1.457-1.464,3.368-1.464,5.736c0,1.504,0.327,2.864,0.983,4.08
		c0.656,1.217,1.536,2.177,2.641,2.88c1.104,0.704,2.328,1.056,3.672,1.056c0.928,0,1.728-0.151,2.4-0.456
		c0.672-0.304,1.392-0.84,2.159-1.608c0.064-0.063,0.145-0.12,0.24-0.168s0.176-0.072,0.24-0.072c0.352,0,0.528,0.224,0.528,0.672
		c0,0.192-0.057,0.408-0.168,0.648c-0.113,0.24-0.297,0.521-0.553,0.84c-0.512,0.641-1.12,1.193-1.824,1.656
		c-0.704,0.464-1.48,0.808-2.327,1.032C203.126,184.207,202.206,184.32,201.214,184.32z"/>
	<path fill="#0D4482" d="M212.639,183.743c-0.288,0-0.521-0.041-0.696-0.12s-0.264-0.216-0.264-0.408
		c0-0.256,0.12-0.432,0.359-0.528c0.24-0.096,0.487-0.175,0.744-0.24c0.672-0.16,1.184-0.36,1.536-0.6
		c0.352-0.24,0.528-0.648,0.528-1.224v-10.416c0-0.864-0.152-1.632-0.456-2.304c-0.305-0.672-0.872-1.072-1.704-1.2
		c-0.161-0.032-0.28-0.096-0.36-0.192c-0.08-0.096-0.12-0.24-0.12-0.432c0-0.352,0.145-0.544,0.433-0.576
		c1.279-0.288,2.335-0.679,3.168-1.176c0.831-0.496,1.455-0.904,1.872-1.224c0.288-0.224,0.511-0.336,0.672-0.336
		c0.191,0,0.288,0.08,0.288,0.24c0,0.256-0.041,0.76-0.12,1.512c-0.08,0.752-0.152,1.584-0.216,2.496
		c-0.064,0.912-0.097,1.736-0.097,2.472v11.136c0,0.544,0.184,0.944,0.553,1.2c0.367,0.256,0.871,0.464,1.512,0.624
		c0.256,0.064,0.504,0.144,0.744,0.24c0.239,0.096,0.359,0.272,0.359,0.528c0,0.352-0.32,0.528-0.96,0.528
		c-0.608,0-1.097-0.024-1.464-0.072c-0.368-0.048-0.72-0.087-1.056-0.12c-0.336-0.032-0.792-0.048-1.368-0.048
		c-0.545,0-0.992,0.017-1.344,0.048c-0.353,0.032-0.704,0.072-1.057,0.12C213.773,183.719,213.278,183.743,212.639,183.743z
		 M216.479,158.831c-0.672,0-1.24-0.231-1.704-0.696c-0.464-0.464-0.696-1.032-0.696-1.704c0-0.704,0.232-1.288,0.696-1.752
		c0.464-0.463,1.032-0.696,1.704-0.696c0.703,0,1.288,0.233,1.752,0.696c0.464,0.464,0.696,1.048,0.696,1.752
		c0,0.672-0.232,1.24-0.696,1.704C217.767,158.6,217.182,158.831,216.479,158.831z"/>
	<path fill="#0D4482" d="M224.398,183.743c-0.288,0-0.521-0.041-0.696-0.12s-0.264-0.216-0.264-0.408
		c0-0.256,0.096-0.424,0.288-0.504c0.191-0.079,0.463-0.168,0.815-0.264c0.48-0.127,0.943-0.304,1.393-0.528
		c0.447-0.223,0.672-0.655,0.672-1.296v-10.32c0-0.864-0.089-1.6-0.265-2.208c-0.176-0.607-0.68-1.024-1.512-1.248
		c-0.128-0.064-0.24-0.136-0.336-0.216c-0.096-0.08-0.144-0.216-0.144-0.408c0-0.352,0.144-0.544,0.432-0.576
		c1.12-0.288,2.031-0.64,2.736-1.056c0.703-0.416,1.392-0.88,2.063-1.392c0.096-0.064,0.184-0.12,0.264-0.168
		c0.08-0.048,0.168-0.072,0.265-0.072c0.063,0,0.12,0.032,0.168,0.096c0.048,0.064,0.072,0.144,0.072,0.24
		c0,0.225-0.041,0.681-0.12,1.368c-0.081,0.688-0.12,1.256-0.12,1.704c0,0.128,0.007,0.248,0.023,0.36
		c0.016,0.113,0.04,0.185,0.072,0.216c1.12-1.056,2.312-1.856,3.576-2.4c1.264-0.543,2.647-0.816,4.152-0.816
		c1.567,0,2.863,0.641,3.888,1.92c1.023,1.28,1.536,2.864,1.536,4.752v10.224c0,0.641,0.224,1.064,0.672,1.272
		c0.447,0.208,0.912,0.393,1.392,0.552c0.256,0.096,0.504,0.2,0.744,0.312c0.24,0.112,0.36,0.296,0.36,0.552
		c0,0.192-0.112,0.312-0.336,0.36c-0.225,0.048-0.433,0.072-0.624,0.072c-0.641,0-1.137-0.024-1.488-0.072
		c-0.353-0.048-0.688-0.087-1.008-0.12c-0.32-0.032-0.769-0.048-1.344-0.048c-0.545,0-0.993,0.017-1.345,0.048
		c-0.353,0.032-0.712,0.072-1.08,0.12c-0.368,0.048-0.872,0.072-1.512,0.072c-0.16,0-0.36-0.024-0.6-0.072
		c-0.24-0.048-0.36-0.168-0.36-0.36c0-0.256,0.12-0.439,0.36-0.552c0.239-0.112,0.487-0.216,0.744-0.312
		c0.479-0.16,0.943-0.344,1.392-0.552c0.447-0.208,0.672-0.631,0.672-1.272v-10.08c0-1.408-0.393-2.503-1.176-3.288
		c-0.784-0.784-1.832-1.191-3.145-1.224c-1.151,0-2.159,0.185-3.023,0.552c-0.864,0.368-1.632,0.824-2.304,1.368
		c-0.129,0.128-0.225,0.296-0.288,0.504c-0.064,0.208-0.097,0.408-0.097,0.6v11.568c0,0.641,0.224,1.073,0.672,1.296
		c0.448,0.225,0.912,0.401,1.393,0.528c0.735,0.192,1.104,0.448,1.104,0.768c0,0.192-0.08,0.328-0.239,0.408
		c-0.161,0.08-0.401,0.12-0.721,0.12c-0.641,0-1.145-0.024-1.512-0.072c-0.368-0.048-0.713-0.087-1.032-0.12
		c-0.32-0.032-0.768-0.048-1.344-0.048c-0.545,0-0.984,0.017-1.32,0.048c-0.336,0.032-0.688,0.072-1.056,0.12
		C225.542,183.719,225.038,183.743,224.398,183.743z"/>
	<path fill="#0D4482" d="M256.99,197.519c-2.721,0-4.872-0.521-6.456-1.56c-1.584-1.04-2.376-2.44-2.376-4.2
		c0-0.833,0.127-1.536,0.384-2.112c0.256-0.576,0.655-1.072,1.2-1.488c0.447-0.384,1.048-0.872,1.8-1.464
		c0.751-0.593,1.527-1.208,2.328-1.848l2.016,0.096c-1.536,0.991-2.608,1.936-3.216,2.832c-0.608,0.896-0.912,1.984-0.912,3.264
		c0,1.28,0.567,2.359,1.704,3.24c1.136,0.879,2.536,1.32,4.2,1.32c1.888,0,3.408-0.432,4.56-1.296c0.8-0.608,1.424-1.4,1.872-2.376
		c0.448-0.977,0.672-2.009,0.672-3.096c0-0.704-0.248-1.289-0.744-1.752c-0.496-0.464-1.271-0.84-2.327-1.128
		c-1.057-0.288-2.433-0.48-4.129-0.576c-3.008-0.224-5.096-0.624-6.264-1.2c-1.168-0.576-1.752-1.472-1.752-2.688
		c0-0.32,0.088-0.616,0.264-0.888c0.176-0.271,0.456-0.568,0.841-0.888c0.735-0.576,1.279-1,1.632-1.272
		c0.352-0.271,0.615-0.504,0.792-0.696c0.175-0.192,0.343-0.432,0.504-0.72l1.632,0.816c-0.704,0.256-1.296,0.6-1.776,1.032
		c-0.479,0.432-0.72,0.824-0.72,1.176c0,0.448,0.24,0.84,0.72,1.176c0.48,0.336,1.184,0.6,2.112,0.792
		c0.928,0.192,2.064,0.336,3.408,0.432c2.943,0.16,5.136,0.64,6.576,1.44c1.439,0.799,2.16,1.936,2.16,3.408
		c0,1.248-0.313,2.472-0.937,3.672c-0.624,1.2-1.448,2.295-2.472,3.288c-1.024,0.992-2.169,1.784-3.433,2.376
		C259.59,197.223,258.302,197.519,256.99,197.519z M257.278,178.511c-1.313,0-2.561-0.336-3.744-1.008
		c-1.185-0.672-2.152-1.56-2.904-2.664s-1.128-2.312-1.128-3.624c0-1.504,0.392-2.824,1.176-3.96
		c0.784-1.135,1.815-2.023,3.096-2.664s2.641-0.96,4.08-0.96c0.928,0,1.736,0.12,2.425,0.36c0.688,0.24,1.367,0.456,2.04,0.648
		c0.768,0.224,1.375,0.36,1.823,0.408c0.448,0.048,0.912,0.072,1.393,0.072c0.384,0,0.863-0.024,1.439-0.072
		c0.576-0.048,0.976-0.072,1.2-0.072c0.416,0,0.624,0.24,0.624,0.72c0,0.288-0.16,0.592-0.479,0.912
		c-0.161,0.161-0.288,0.24-0.385,0.24h-1.296c-0.864,0-1.344,0.128-1.439,0.384c-0.032,0.128-0.072,0.312-0.12,0.552
		c-0.048,0.24-0.089,0.504-0.12,0.792c-0.032,0.288-0.048,0.576-0.048,0.864c0,1.632-0.353,3.137-1.057,4.512
		c-0.704,1.376-1.632,2.48-2.783,3.312C259.918,178.096,258.653,178.511,257.278,178.511z M257.565,176.831
		c1.216,0,2.225-0.616,3.024-1.848c0.8-1.231,1.2-2.76,1.2-4.584c0-0.928-0.216-1.8-0.648-2.616
		c-0.432-0.816-0.992-1.472-1.68-1.968c-0.688-0.496-1.433-0.744-2.232-0.744c-0.736,0-1.432,0.264-2.088,0.792
		c-0.656,0.528-1.184,1.208-1.584,2.04c-0.4,0.833-0.6,1.744-0.6,2.736c0,1.121,0.208,2.152,0.624,3.096
		c0.415,0.944,0.976,1.696,1.68,2.256C255.966,176.552,256.733,176.831,257.565,176.831z"/>
	<path fill="#0D4482" d="M9.072,256.271c-1.568,0-2.792-0.479-3.672-1.44c-0.88-0.959-1.32-2.383-1.32-4.271v-11.136
		c0-0.256-0.096-0.44-0.288-0.552c-0.192-0.112-0.608-0.168-1.248-0.168H2.256c-0.16,0-0.296-0.104-0.408-0.313
		c-0.113-0.207-0.168-0.424-0.168-0.648c0-0.063,0.048-0.159,0.144-0.287c0.096-0.128,0.16-0.208,0.192-0.24
		c0.64-0.447,1.224-0.896,1.752-1.344s1.008-0.889,1.44-1.32s0.792-0.824,1.08-1.176c0.16-0.16,0.295-0.296,0.408-0.408
		c0.112-0.111,0.248-0.168,0.408-0.168c0.16,0,0.312,0.032,0.456,0.096c0.144,0.064,0.199,0.209,0.168,0.432l-0.24,2.16
		c-0.032,0.354,0.048,0.593,0.24,0.721s0.496,0.191,0.912,0.191h5.472c0.127,0,0.24,0.104,0.336,0.313
		c0.096,0.208,0.144,0.455,0.144,0.744c0,0.287-0.048,0.568-0.144,0.84c-0.096,0.271-0.209,0.408-0.336,0.408H9.36
		c-0.8,0-1.32,0.064-1.56,0.191c-0.24,0.129-0.36,0.512-0.36,1.152v9.455c0,1.281,0.271,2.289,0.816,3.025
		c0.544,0.736,1.328,1.104,2.352,1.104c0.928,0,1.648-0.072,2.16-0.217c0.511-0.144,0.976-0.359,1.392-0.647
		c0.063-0.063,0.127-0.097,0.192-0.097c0.127,0,0.216,0.072,0.264,0.217c0.048,0.145,0.072,0.297,0.072,0.456
		c0,0.16-0.264,0.479-0.792,0.96s-1.216,0.928-2.064,1.344C10.984,256.063,10.063,256.271,9.072,256.271z"/>
	<path fill="#0D4482" d="M16.944,255.743c-0.641,0-0.96-0.176-0.96-0.527c0-0.288,0.367-0.544,1.104-0.768
		c0.48-0.16,0.936-0.368,1.368-0.625c0.432-0.256,0.664-0.703,0.696-1.344v-24.048c0-0.864-0.144-1.624-0.432-2.28
		c-0.288-0.655-0.848-1.047-1.68-1.176c-0.288-0.064-0.432-0.288-0.432-0.672c0-0.288,0.127-0.48,0.384-0.576
		c0.448-0.16,0.984-0.336,1.608-0.527c0.624-0.192,1.272-0.408,1.944-0.648c0.672-0.24,1.264-0.472,1.776-0.696
		c0.127-0.063,0.224-0.096,0.288-0.096c0.096,0,0.175,0.032,0.24,0.096c0.064,0.064,0.096,0.144,0.096,0.24
		c0,0.192-0.041,0.464-0.12,0.815c-0.08,0.354-0.152,0.961-0.216,1.824c-0.064,0.864-0.096,2.16-0.096,3.889v8.352
		c0,0.512,0.024,0.881,0.072,1.104c0.048,0.225,0.136,0.449,0.264,0.672c0.512-0.383,1.144-0.807,1.896-1.271
		c0.751-0.463,1.592-0.871,2.52-1.225c0.928-0.352,1.888-0.527,2.88-0.527c1.568,0,2.872,0.617,3.912,1.848
		c1.04,1.232,1.56,2.793,1.56,4.68v10.08c0,0.641,0.208,1.113,0.624,1.416c0.416,0.305,0.864,0.537,1.344,0.697
		c0.352,0.096,0.624,0.199,0.816,0.312s0.288,0.264,0.288,0.456c0,0.352-0.32,0.527-0.96,0.527s-1.128-0.023-1.464-0.072
		c-0.336-0.047-0.656-0.087-0.96-0.119c-0.304-0.031-0.744-0.049-1.32-0.049c-0.544,0-0.977,0.018-1.296,0.049
		c-0.32,0.032-0.648,0.072-0.984,0.119c-0.336,0.049-0.824,0.072-1.464,0.072c-0.641,0-0.96-0.176-0.96-0.527
		c0-0.224,0.096-0.376,0.288-0.456c0.192-0.079,0.463-0.185,0.816-0.312c0.48-0.16,0.912-0.393,1.296-0.697
		c0.384-0.303,0.576-0.775,0.576-1.416v-9.791c0-0.8-0.232-1.528-0.696-2.185c-0.464-0.655-1.032-1.176-1.704-1.56
		c-0.672-0.385-1.361-0.576-2.064-0.576c-0.608,0-1.313,0.088-2.112,0.264c-0.8,0.177-1.424,0.44-1.872,0.793
		c-0.512,0.416-0.856,0.848-1.032,1.295c-0.176,0.449-0.264,1.169-0.264,2.16v9.744c0.032,0.641,0.232,1.088,0.6,1.344
		c0.368,0.257,0.792,0.465,1.272,0.625c0.352,0.096,0.616,0.199,0.792,0.312c0.175,0.112,0.264,0.264,0.264,0.456
		c0,0.352-0.32,0.527-0.96,0.527c-0.641,0-1.121-0.023-1.44-0.072c-0.32-0.047-0.624-0.087-0.912-0.119
		c-0.288-0.031-0.72-0.049-1.296-0.049c-0.544,0-0.984,0.018-1.32,0.049c-0.336,0.032-0.688,0.072-1.056,0.119
		C18.087,255.719,17.583,255.743,16.944,255.743z"/>
	<path fill="#0D4482" d="M50.016,256.319c-1.76,0-3.296-0.432-4.608-1.296c-1.313-0.864-2.336-2.088-3.072-3.672
		c-0.736-1.584-1.104-3.415-1.104-5.496c0-1.855,0.424-3.544,1.272-5.063c0.848-1.52,1.976-2.744,3.384-3.672
		c1.408-0.928,2.943-1.393,4.608-1.393c1.279,0,2.416,0.256,3.408,0.768c0.992,0.513,1.768,1.225,2.328,2.137
		c0.56,0.912,0.84,1.961,0.84,3.144c0,0.993-0.48,1.488-1.44,1.488H45.504c-0.448,0-0.76,0.12-0.936,0.36
		c-0.176,0.24-0.264,0.712-0.264,1.416c0,1.535,0.336,2.936,1.008,4.199c0.672,1.265,1.567,2.273,2.688,3.024
		c1.12,0.752,2.352,1.128,3.696,1.128c0.96,0,1.832-0.184,2.616-0.552c0.784-0.368,1.479-0.903,2.088-1.608
		c0.127-0.16,0.224-0.264,0.288-0.313c0.064-0.047,0.144-0.071,0.24-0.071c0.255,0,0.384,0.161,0.384,0.479
		c0,0.609-0.288,1.281-0.864,2.017c-0.48,0.608-1.056,1.136-1.728,1.584c-0.672,0.448-1.409,0.792-2.208,1.032
		C51.712,256.2,50.88,256.319,50.016,256.319z M45.6,241.775h4.368c0.768,0,1.424-0.016,1.968-0.048
		c0.544-0.031,1.072-0.096,1.584-0.191c0.16-0.032,0.264-0.137,0.312-0.313s0.072-0.424,0.072-0.744c0-0.928-0.408-1.72-1.224-2.376
		c-0.816-0.655-1.785-0.983-2.904-0.983c-0.736,0-1.472,0.215-2.208,0.647c-0.736,0.433-1.344,0.968-1.824,1.608
		s-0.72,1.279-0.72,1.92C45.024,241.616,45.216,241.775,45.6,241.775z"/>
	<path fill="#0D4482" d="M78.383,256.607c-0.128,0-0.288-0.248-0.48-0.743c-0.192-0.496-0.32-0.856-0.384-1.08
		c-0.225-0.545-0.432-1.112-0.624-1.705c-0.192-0.592-0.384-1.143-0.576-1.655c-0.704-1.983-1.464-3.928-2.28-5.832
		c-0.816-1.903-1.608-3.832-2.376-5.784c-0.224-0.576-0.568-1.096-1.032-1.561c-0.464-0.463-0.936-0.76-1.416-0.888
		c-0.256-0.096-0.464-0.192-0.624-0.288c-0.161-0.096-0.24-0.256-0.24-0.479c0-0.192,0.12-0.312,0.36-0.36
		c0.24-0.048,0.439-0.072,0.6-0.072c0.64,0,1.104,0.018,1.392,0.049c0.288,0.031,0.576,0.072,0.864,0.119
		c0.288,0.049,0.704,0.072,1.248,0.072c0.576,0,1.008-0.023,1.296-0.072c0.288-0.047,0.592-0.088,0.912-0.119
		c0.319-0.031,0.784-0.049,1.392-0.049c0.16,0,0.36,0.024,0.6,0.072c0.24,0.049,0.36,0.168,0.36,0.36c0,0.224-0.113,0.4-0.336,0.528
		c-0.225,0.128-0.48,0.239-0.768,0.336c-0.32,0.128-0.561,0.376-0.72,0.744c-0.161,0.367-0.24,0.775-0.24,1.224
		c0,0.224,0.016,0.448,0.048,0.672c0.031,0.224,0.08,0.433,0.144,0.624l3.792,10.08c0.031,0.032,0.055,0.048,0.072,0.048
		c0.016,0,0.04-0.016,0.072-0.048l3.648-9.36c0.127-0.319,0.224-0.663,0.288-1.032c0.063-0.367,0.096-0.68,0.096-0.936
		c0-0.64-0.096-1.096-0.288-1.368c-0.192-0.271-0.512-0.487-0.96-0.647c-0.416-0.16-0.704-0.289-0.864-0.385
		c-0.161-0.096-0.24-0.256-0.24-0.479c0-0.192,0.104-0.312,0.312-0.36c0.208-0.048,0.424-0.072,0.648-0.072
		c0.352,0,0.816,0.041,1.392,0.121c0.576,0.08,1.28,0.119,2.112,0.119c0.832,0,1.399-0.039,1.704-0.119s0.68-0.121,1.128-0.121
		c0.255,0,0.48,0.024,0.672,0.072c0.192,0.049,0.288,0.168,0.288,0.36c0,0.353-0.369,0.64-1.104,0.864
		c-0.48,0.128-1.008,0.496-1.584,1.104c-0.576,0.608-1.041,1.313-1.392,2.111l-3.744,9.025c-0.064,0.127-0.192,0.439-0.384,0.936
		c-0.192,0.496-0.401,1.04-0.624,1.632c-0.225,0.593-0.497,1.319-0.816,2.185c-0.257,0.607-0.464,1.08-0.624,1.416
		c-0.161,0.336-0.305,0.583-0.432,0.743H78.383z"/>
	<path fill="#0D4482" d="M94.031,256.271c-0.576,0-1.161-0.224-1.752-0.672c-0.592-0.448-1.088-0.991-1.488-1.632
		c-0.4-0.641-0.6-1.248-0.6-1.824c0-1.023,0.271-1.824,0.816-2.4c0.544-0.576,1.408-1.104,2.592-1.584l4.896-2.016
		c0.64-0.256,1.016-0.48,1.128-0.672c0.112-0.191,0.184-0.607,0.216-1.248l0.096-3.072c0.031-0.832-0.2-1.551-0.696-2.16
		c-0.497-0.607-1.208-0.912-2.136-0.912c-0.48,0-0.96,0.08-1.44,0.24s-0.88,0.369-1.2,0.625c-0.192,0.127-0.32,0.319-0.384,0.575
		c-0.064,0.257-0.096,0.528-0.096,0.815c0,0.129,0.008,0.273,0.024,0.433c0.016,0.161,0.024,0.305,0.024,0.433
		c0,0.16-0.201,0.376-0.6,0.647c-0.4,0.272-0.848,0.513-1.344,0.72c-0.497,0.209-0.904,0.313-1.224,0.313
		c-0.161,0-0.288-0.04-0.384-0.12c-0.096-0.079-0.144-0.185-0.144-0.312c0-0.512,0.168-1.064,0.504-1.656s0.808-1.145,1.416-1.656
		c0.736-0.672,1.536-1.264,2.4-1.776c0.864-0.511,1.711-0.911,2.544-1.2c0.832-0.287,1.567-0.432,2.208-0.432
		c1.152,0,2.104,0.408,2.856,1.225c0.751,0.815,1.111,1.832,1.08,3.047l-0.24,11.521c-0.032,0.672,0.12,1.217,0.456,1.632
		c0.336,0.416,0.76,0.624,1.272,0.624c0.799,0,1.392-0.175,1.776-0.528c0.16-0.159,0.288-0.239,0.384-0.239
		c0.16,0,0.288,0.048,0.384,0.144s0.144,0.225,0.144,0.385c0,0.352-0.176,0.703-0.528,1.056c-0.512,0.513-1.064,0.92-1.656,1.224
		c-0.592,0.304-1.145,0.456-1.656,0.456c-1.472,0-2.64-0.831-3.504-2.496h-0.144c-1.056,0.864-2.064,1.497-3.024,1.896
		C96.047,256.071,95.055,256.271,94.031,256.271z M96.287,253.968c0.64,0,1.184-0.104,1.632-0.313c0.448-0.207,0.848-0.487,1.2-0.84
		c0.16-0.16,0.295-0.375,0.408-0.648c0.112-0.271,0.184-0.711,0.216-1.319l0.096-2.353c0.032-0.352,0.016-0.607-0.048-0.768
		c-0.064-0.16-0.192-0.24-0.384-0.24c-0.064,0-0.176,0.017-0.336,0.049c-0.16,0.031-0.368,0.096-0.624,0.191
		c-1.697,0.608-2.873,1.24-3.528,1.896c-0.656,0.656-0.984,1.256-0.984,1.8c0,0.833,0.248,1.464,0.744,1.896
		C95.175,253.751,95.711,253.968,96.287,253.968z"/>
	<path fill="#0D4482" d="M109.438,255.743c-0.161,0-0.36-0.023-0.6-0.072c-0.24-0.047-0.36-0.168-0.36-0.359
		c0-0.256,0.12-0.439,0.36-0.552c0.24-0.112,0.487-0.216,0.744-0.312c0.48-0.16,0.943-0.344,1.392-0.553
		c0.448-0.207,0.672-0.631,0.672-1.271v-24.192c0-0.928-0.168-1.704-0.504-2.328s-0.905-1.016-1.704-1.176
		c-0.256-0.063-0.384-0.271-0.384-0.624c0-0.32,0.112-0.512,0.336-0.576c0.832-0.191,1.552-0.392,2.16-0.6
		c0.607-0.208,1.176-0.424,1.704-0.648c0.528-0.223,1.048-0.432,1.56-0.624c0.127-0.063,0.224-0.096,0.288-0.096
		c0.063,0,0.12,0.04,0.168,0.12c0.048,0.08,0.072,0.152,0.072,0.216c0,0.288-0.056,0.904-0.168,1.849
		c-0.112,0.943-0.168,2.504-0.168,4.68v24c0,0.641,0.224,1.064,0.672,1.271c0.448,0.209,0.912,0.393,1.392,0.553
		c0.256,0.096,0.504,0.199,0.744,0.312c0.24,0.112,0.36,0.296,0.36,0.552c0,0.191-0.12,0.313-0.36,0.359
		c-0.24,0.049-0.44,0.072-0.6,0.072c-0.608,0-1.097-0.023-1.464-0.072c-0.368-0.047-0.72-0.087-1.056-0.119
		c-0.336-0.031-0.792-0.049-1.368-0.049c-0.544,0-0.992,0.018-1.344,0.049c-0.353,0.032-0.704,0.072-1.056,0.119
		C110.574,255.719,110.078,255.743,109.438,255.743z"/>
	<path fill="#0D4482" d="M120.958,255.743c-0.161,0-0.36-0.023-0.6-0.072c-0.24-0.047-0.36-0.168-0.36-0.359
		c0-0.256,0.12-0.439,0.36-0.552c0.24-0.112,0.487-0.216,0.744-0.312c0.48-0.16,0.943-0.344,1.392-0.553
		c0.448-0.207,0.672-0.631,0.672-1.271v-24.192c0-0.928-0.168-1.704-0.504-2.328s-0.905-1.016-1.704-1.176
		c-0.256-0.063-0.384-0.271-0.384-0.624c0-0.32,0.112-0.512,0.336-0.576c0.832-0.191,1.552-0.392,2.16-0.6
		c0.607-0.208,1.176-0.424,1.704-0.648c0.528-0.223,1.048-0.432,1.56-0.624c0.127-0.063,0.224-0.096,0.288-0.096
		c0.063,0,0.12,0.04,0.168,0.12c0.048,0.08,0.072,0.152,0.072,0.216c0,0.288-0.056,0.904-0.168,1.849
		c-0.112,0.943-0.168,2.504-0.168,4.68v24c0,0.641,0.224,1.064,0.672,1.271c0.448,0.209,0.912,0.393,1.392,0.553
		c0.256,0.096,0.504,0.199,0.744,0.312c0.24,0.112,0.36,0.296,0.36,0.552c0,0.191-0.12,0.313-0.36,0.359
		c-0.24,0.049-0.44,0.072-0.6,0.072c-0.608,0-1.097-0.023-1.464-0.072c-0.368-0.047-0.72-0.087-1.056-0.119
		c-0.336-0.031-0.792-0.049-1.368-0.049c-0.544,0-0.992,0.018-1.344,0.049c-0.353,0.032-0.704,0.072-1.056,0.119
		C122.093,255.719,121.598,255.743,120.958,255.743z"/>
	<path fill="#0D4482" d="M140.83,256.319c-1.76,0-3.296-0.432-4.608-1.296c-1.313-0.864-2.336-2.088-3.072-3.672
		c-0.736-1.584-1.104-3.415-1.104-5.496c0-1.855,0.424-3.544,1.272-5.063c0.848-1.52,1.976-2.744,3.384-3.672
		c1.408-0.928,2.943-1.393,4.608-1.393c1.279,0,2.416,0.256,3.408,0.768c0.992,0.513,1.768,1.225,2.329,2.137
		c0.559,0.912,0.84,1.961,0.84,3.144c0,0.993-0.48,1.488-1.44,1.488h-10.128c-0.448,0-0.76,0.12-0.936,0.36
		c-0.176,0.24-0.264,0.712-0.264,1.416c0,1.535,0.336,2.936,1.008,4.199c0.672,1.265,1.567,2.273,2.688,3.024
		c1.12,0.752,2.352,1.128,3.696,1.128c0.96,0,1.832-0.184,2.616-0.552s1.48-0.903,2.089-1.608c0.127-0.16,0.223-0.264,0.288-0.313
		c0.063-0.047,0.144-0.071,0.239-0.071c0.256,0,0.384,0.161,0.384,0.479c0,0.609-0.287,1.281-0.863,2.017
		c-0.48,0.608-1.057,1.136-1.729,1.584s-1.408,0.792-2.208,1.032C142.525,256.2,141.693,256.319,140.83,256.319z M136.414,241.775
		h4.368c0.768,0,1.424-0.016,1.968-0.048c0.544-0.031,1.072-0.096,1.584-0.191c0.16-0.032,0.264-0.137,0.312-0.313
		s0.072-0.424,0.072-0.744c0-0.928-0.408-1.72-1.224-2.376c-0.816-0.655-1.785-0.983-2.904-0.983c-0.736,0-1.472,0.215-2.208,0.647
		c-0.736,0.433-1.344,0.968-1.824,1.608s-0.72,1.279-0.72,1.92C135.837,241.616,136.029,241.775,136.414,241.775z"/>
	<path fill="#0D4482" d="M152.397,269.28c-0.608,0-1.169-0.152-1.681-0.457s-0.768-0.809-0.768-1.512
		c0-0.576,0.136-1.08,0.408-1.512c0.271-0.432,0.663-0.648,1.176-0.648c0.352,0,0.696,0.049,1.032,0.145s0.631,0.144,0.888,0.144
		c0.192,0,0.36-0.04,0.504-0.12c0.145-0.08,0.28-0.216,0.408-0.408c0.352-0.576,0.76-1.295,1.224-2.16
		c0.464-0.863,0.943-1.84,1.44-2.928c0.496-1.088,0.968-2.24,1.416-3.455c0.096-0.289,0.144-0.656,0.144-1.104
		c0-0.256-0.017-0.504-0.048-0.744c-0.032-0.239-0.08-0.456-0.144-0.647l-5.568-14.064c-0.225-0.576-0.521-1.08-0.888-1.512
		c-0.368-0.432-0.792-0.712-1.272-0.84c-0.256-0.097-0.504-0.208-0.744-0.336c-0.239-0.128-0.359-0.305-0.359-0.528
		c0-0.192,0.12-0.312,0.359-0.36c0.24-0.048,0.439-0.072,0.601-0.072c0.64,0,1.111,0.018,1.416,0.049
		c0.304,0.031,0.592,0.072,0.864,0.119c0.271,0.049,0.679,0.072,1.224,0.072c0.576,0,1.008-0.023,1.296-0.072
		c0.288-0.047,0.592-0.088,0.912-0.119c0.319-0.031,0.8-0.049,1.439-0.049c0.192,0,0.4,0.041,0.624,0.121s0.336,0.215,0.336,0.407
		c0,0.224-0.168,0.44-0.504,0.647c-0.336,0.209-0.632,0.345-0.888,0.408c-0.32,0.097-0.561,0.265-0.72,0.504
		c-0.161,0.24-0.24,0.585-0.24,1.033c0,0.191,0.048,0.424,0.144,0.695c0.097,0.272,0.176,0.488,0.24,0.648l3.889,9.6
		c0.063,0.191,0.159,0.288,0.287,0.288c0.097,0,0.176-0.097,0.24-0.288l3.313-8.784c0.096-0.224,0.184-0.52,0.264-0.888
		c0.079-0.367,0.12-0.664,0.12-0.889c0-0.607-0.089-1.031-0.264-1.271c-0.177-0.24-0.408-0.424-0.696-0.552
		c-0.257-0.128-0.552-0.296-0.888-0.505c-0.336-0.207-0.505-0.424-0.505-0.647c0-0.192,0.12-0.327,0.36-0.407
		s0.439-0.121,0.601-0.121c0.447,0,0.903,0.041,1.367,0.121s1.145,0.119,2.04,0.119c0.607,0,1.048-0.023,1.32-0.072
		c0.271-0.047,0.504-0.088,0.696-0.119c0.191-0.031,0.463-0.049,0.815-0.049c0.16,0,0.36,0.024,0.601,0.072
		c0.239,0.049,0.359,0.168,0.359,0.36c0,0.224-0.12,0.4-0.359,0.528c-0.24,0.128-0.488,0.239-0.744,0.336
		c-0.48,0.128-0.992,0.504-1.536,1.127c-0.545,0.625-0.977,1.32-1.296,2.088l-6.528,15.553c-0.032,0.096-0.2,0.512-0.504,1.248
		c-0.305,0.736-0.68,1.647-1.128,2.736c-0.448,1.087-0.936,2.256-1.464,3.504s-1.032,2.447-1.512,3.6
		c-0.288,0.64-0.705,1.128-1.248,1.464C153.725,269.112,153.101,269.28,152.397,269.28z"/>
	<path fill="#0D4482" d="M177.261,256.271c-0.992,0-1.92-0.152-2.784-0.456s-1.601-0.728-2.208-1.271
		c-0.16-0.352-0.28-0.943-0.36-1.776c-0.08-0.831-0.136-1.52-0.168-2.063c0-0.289,0.208-0.433,0.624-0.433
		c0.128,0,0.248,0.024,0.36,0.072c0.111,0.048,0.184,0.136,0.216,0.264c0.416,1.568,1.08,2.688,1.992,3.36s1.831,1.008,2.76,1.008
		c0.928,0,1.72-0.313,2.376-0.936c0.656-0.625,0.984-1.4,0.984-2.328c0-0.864-0.288-1.608-0.864-2.232s-1.584-1.384-3.023-2.279
		c-1.089-0.672-1.969-1.313-2.641-1.92c-0.672-0.608-1.16-1.232-1.464-1.873c-0.305-0.639-0.456-1.359-0.456-2.16
		c0-1.023,0.24-1.951,0.72-2.783c0.48-0.832,1.2-1.496,2.16-1.992s2.16-0.744,3.601-0.744c0.96,0,1.759,0.096,2.399,0.288
		c0.64,0.192,1.12,0.4,1.44,0.624c0.256,0.353,0.472,0.904,0.647,1.656s0.265,1.464,0.265,2.136c0,0.224-0.161,0.336-0.48,0.336
		c-0.191,0-0.376-0.04-0.552-0.12c-0.177-0.08-0.296-0.184-0.36-0.313c-0.416-1.055-0.936-1.863-1.56-2.424
		c-0.624-0.559-1.4-0.84-2.328-0.84c-0.8,0-1.512,0.24-2.136,0.721c-0.624,0.479-0.937,1.184-0.937,2.111
		c0,0.736,0.232,1.393,0.696,1.969s1.336,1.232,2.616,1.968c1.855,1.056,3.24,2.04,4.151,2.952c0.912,0.912,1.368,2.119,1.368,3.623
		c0,1.729-0.656,3.137-1.968,4.225C181.036,255.727,179.341,256.271,177.261,256.271z"/>
	<path fill="#0D4482" d="M206.685,256.271c-1.793,0-3.408-0.416-4.849-1.248c-1.439-0.831-2.584-1.976-3.432-3.432
		c-0.849-1.456-1.272-3.112-1.272-4.968c0-1.344,0.265-2.656,0.792-3.937c0.528-1.279,1.272-2.448,2.232-3.504
		s2.08-1.896,3.36-2.521c1.279-0.623,2.655-0.936,4.128-0.936c1.855,0,3.527,0.449,5.016,1.344c1.488,0.896,2.672,2.072,3.552,3.528
		s1.32,3.048,1.32,4.776c0,1.855-0.408,3.616-1.224,5.279c-0.816,1.664-2.024,3.017-3.624,4.057
		C211.084,255.751,209.084,256.271,206.685,256.271z M207.692,254.831c1.087,0,2.063-0.207,2.928-0.623s1.536-1.088,2.016-2.017
		c0.385-0.735,0.641-1.632,0.769-2.688c0.127-1.055,0.191-2.047,0.191-2.975c0-1.537-0.28-3.017-0.84-4.441
		c-0.56-1.423-1.344-2.592-2.352-3.504s-2.2-1.367-3.576-1.367c-0.864,0-1.641,0.137-2.328,0.408
		c-0.688,0.271-1.32,0.775-1.896,1.512c-0.641,0.801-1.057,1.775-1.248,2.928c-0.192,1.152-0.288,2.305-0.288,3.456
		c0,1.568,0.288,3.064,0.864,4.488c0.575,1.424,1.359,2.585,2.352,3.479C205.275,254.384,206.412,254.831,207.692,254.831z"/>
	<path fill="#0D4482" d="M221.324,255.743c-0.32,0-0.561-0.04-0.721-0.119c-0.16-0.08-0.239-0.217-0.239-0.408
		c0-0.256,0.104-0.432,0.312-0.528c0.208-0.096,0.472-0.175,0.792-0.239c0.736-0.16,1.264-0.393,1.584-0.697
		c0.319-0.303,0.48-0.775,0.48-1.416V238.8c-0.32,0-0.688-0.008-1.104-0.024c-0.416-0.016-0.88-0.04-1.392-0.071
		c-0.097-0.032-0.232-0.145-0.408-0.336c-0.176-0.192-0.264-0.368-0.264-0.528c0-0.063,0.048-0.12,0.144-0.169
		c0.096-0.047,0.16-0.087,0.192-0.119c0.576-0.288,1.071-0.544,1.487-0.768c0.416-0.225,0.864-0.448,1.345-0.672
		c0-2.785,0.343-5.104,1.031-6.961c0.688-1.855,1.576-3.328,2.664-4.416s2.24-1.863,3.456-2.328
		c1.216-0.463,2.353-0.695,3.408-0.695c1.792,0,3.12,0.271,3.984,0.816c0.863,0.544,1.296,1.231,1.296,2.063
		c0,0.64-0.161,1.12-0.48,1.44c-0.32,0.32-0.704,0.479-1.151,0.479c-0.288,0-0.553-0.112-0.792-0.336
		c-0.24-0.224-0.521-0.479-0.84-0.769c-0.417-0.415-0.929-0.807-1.536-1.176c-0.608-0.367-1.44-0.552-2.496-0.552
		c-1.505,0-2.744,0.656-3.721,1.968c-0.976,1.313-1.464,3.328-1.464,6.049v4.223c0,0.193,0.056,0.32,0.168,0.385
		s0.232,0.096,0.36,0.096h6c0.16,0,0.304,0.049,0.432,0.145s0.192,0.225,0.192,0.384c0,0.224-0.024,0.464-0.072,0.72
		c-0.048,0.257-0.12,0.48-0.216,0.672c-0.096,0.257-0.24,0.385-0.432,0.385h-5.521c-0.384,0-0.632,0.056-0.744,0.168
		c-0.112,0.111-0.168,0.264-0.168,0.455v13.008c0,0.641,0.208,1.113,0.624,1.416c0.416,0.305,1.264,0.537,2.544,0.697
		c0.736,0.096,1.104,0.352,1.104,0.768c0,0.191-0.08,0.328-0.24,0.408c-0.16,0.079-0.4,0.119-0.72,0.119
		c-0.96,0-1.809-0.04-2.544-0.119c-0.736-0.08-1.521-0.121-2.353-0.121c-0.544,0-0.992,0.018-1.344,0.049
		c-0.353,0.032-0.72,0.072-1.104,0.119C222.476,255.719,221.964,255.743,221.324,255.743z"/>
	<path fill="#0D4482" d="M245.947,255.743c-0.16,0-0.36-0.023-0.6-0.072c-0.24-0.047-0.36-0.168-0.36-0.359
		c0-0.256,0.12-0.439,0.36-0.552c0.239-0.112,0.487-0.216,0.743-0.312c0.48-0.16,0.944-0.344,1.393-0.553
		c0.447-0.207,0.672-0.631,0.672-1.271v-24.192c0-0.928-0.168-1.704-0.504-2.328s-0.904-1.016-1.704-1.176
		c-0.257-0.063-0.384-0.271-0.384-0.624c0-0.32,0.111-0.512,0.336-0.576c0.831-0.191,1.552-0.392,2.16-0.6
		c0.607-0.208,1.176-0.424,1.704-0.648c0.527-0.223,1.047-0.432,1.56-0.624c0.128-0.063,0.224-0.096,0.288-0.096
		c0.063,0,0.12,0.04,0.168,0.12s0.072,0.152,0.072,0.216c0,0.288-0.057,0.904-0.168,1.849c-0.113,0.943-0.168,2.504-0.168,4.68v24
		c0,0.641,0.223,1.064,0.672,1.271c0.447,0.209,0.912,0.393,1.392,0.553c0.256,0.096,0.504,0.199,0.744,0.312s0.36,0.296,0.36,0.552
		c0,0.191-0.12,0.313-0.36,0.359c-0.24,0.049-0.44,0.072-0.6,0.072c-0.608,0-1.097-0.023-1.465-0.072
		c-0.368-0.047-0.72-0.087-1.056-0.119c-0.336-0.031-0.792-0.049-1.368-0.049c-0.544,0-0.992,0.018-1.344,0.049
		c-0.353,0.032-0.704,0.072-1.056,0.119C247.083,255.719,246.587,255.743,245.947,255.743z"/>
	<path fill="#0D4482" d="M257.707,255.743c-0.288,0-0.521-0.04-0.696-0.119c-0.176-0.08-0.264-0.217-0.264-0.408
		c0-0.256,0.12-0.432,0.359-0.528c0.24-0.096,0.487-0.175,0.744-0.239c0.672-0.16,1.184-0.361,1.536-0.601
		c0.352-0.24,0.528-0.647,0.528-1.224v-10.416c0-0.864-0.152-1.633-0.456-2.305c-0.305-0.672-0.872-1.071-1.704-1.199
		c-0.161-0.032-0.28-0.097-0.36-0.192c-0.08-0.097-0.12-0.24-0.12-0.433c0-0.352,0.145-0.543,0.433-0.576
		c1.279-0.287,2.335-0.679,3.168-1.176c0.831-0.495,1.455-0.903,1.872-1.224c0.288-0.224,0.511-0.336,0.672-0.336
		c0.191,0,0.288,0.08,0.288,0.24c0,0.257-0.041,0.761-0.12,1.512c-0.08,0.753-0.152,1.584-0.216,2.496
		c-0.064,0.912-0.097,1.736-0.097,2.472v11.137c0,0.544,0.184,0.943,0.553,1.199c0.367,0.257,0.871,0.465,1.512,0.625
		c0.256,0.064,0.504,0.144,0.744,0.239c0.239,0.097,0.359,0.272,0.359,0.528c0,0.352-0.32,0.527-0.96,0.527
		c-0.608,0-1.097-0.023-1.464-0.072c-0.368-0.047-0.72-0.087-1.056-0.119c-0.336-0.031-0.792-0.049-1.368-0.049
		c-0.545,0-0.992,0.018-1.344,0.049c-0.353,0.032-0.704,0.072-1.057,0.119C258.842,255.719,258.347,255.743,257.707,255.743z
		 M261.547,230.831c-0.672,0-1.24-0.23-1.704-0.695c-0.464-0.464-0.696-1.032-0.696-1.704c0-0.704,0.232-1.288,0.696-1.752
		s1.032-0.696,1.704-0.696c0.703,0,1.288,0.232,1.752,0.696s0.696,1.048,0.696,1.752c0,0.672-0.232,1.24-0.696,1.704
		C262.835,230.6,262.25,230.831,261.547,230.831z"/>
	<path fill="#0D4482" d="M269.467,255.743c-0.32,0-0.561-0.04-0.721-0.119c-0.16-0.08-0.239-0.217-0.239-0.408
		c0-0.256,0.104-0.432,0.312-0.528c0.208-0.096,0.472-0.175,0.792-0.239c0.736-0.16,1.264-0.393,1.584-0.697
		c0.319-0.303,0.48-0.775,0.48-1.416V238.8c-0.32,0-0.688-0.008-1.104-0.024c-0.416-0.016-0.88-0.04-1.392-0.071
		c-0.097-0.032-0.232-0.145-0.408-0.336c-0.176-0.192-0.264-0.368-0.264-0.528c0-0.063,0.048-0.12,0.144-0.169
		c0.096-0.047,0.16-0.087,0.192-0.119c0.576-0.288,1.071-0.544,1.487-0.768c0.416-0.225,0.864-0.448,1.345-0.672
		c0-2.785,0.343-5.104,1.031-6.961c0.688-1.855,1.576-3.328,2.664-4.416s2.24-1.863,3.456-2.328
		c1.216-0.463,2.353-0.695,3.408-0.695c1.792,0,3.12,0.271,3.984,0.816c0.863,0.544,1.296,1.231,1.296,2.063
		c0,0.64-0.161,1.12-0.48,1.44c-0.32,0.32-0.704,0.479-1.151,0.479c-0.288,0-0.553-0.112-0.792-0.336
		c-0.24-0.224-0.521-0.479-0.84-0.769c-0.417-0.415-0.929-0.807-1.536-1.176c-0.608-0.367-1.44-0.552-2.496-0.552
		c-1.505,0-2.744,0.656-3.721,1.968c-0.976,1.313-1.464,3.328-1.464,6.049v4.223c0,0.193,0.056,0.32,0.168,0.385
		s0.232,0.096,0.36,0.096h6c0.16,0,0.304,0.049,0.432,0.145s0.192,0.225,0.192,0.384c0,0.224-0.024,0.464-0.072,0.72
		c-0.048,0.257-0.12,0.48-0.216,0.672c-0.096,0.257-0.24,0.385-0.432,0.385h-5.521c-0.384,0-0.632,0.056-0.744,0.168
		c-0.112,0.111-0.168,0.264-0.168,0.455v13.008c0,0.641,0.208,1.113,0.624,1.416c0.416,0.305,1.264,0.537,2.544,0.697
		c0.736,0.096,1.104,0.352,1.104,0.768c0,0.191-0.08,0.328-0.24,0.408c-0.16,0.079-0.4,0.119-0.72,0.119
		c-0.96,0-1.809-0.04-2.544-0.119c-0.736-0.08-1.521-0.121-2.353-0.121c-0.544,0-0.992,0.018-1.344,0.049
		c-0.353,0.032-0.72,0.072-1.104,0.119C270.618,255.719,270.106,255.743,269.467,255.743z"/>
	<path fill="#0D4482" d="M291.642,256.319c-1.76,0-3.296-0.432-4.607-1.296c-1.313-0.864-2.337-2.088-3.072-3.672
		c-0.736-1.584-1.104-3.415-1.104-5.496c0-1.855,0.423-3.544,1.271-5.063c0.848-1.52,1.976-2.744,3.384-3.672
		s2.944-1.393,4.608-1.393c1.279,0,2.416,0.256,3.408,0.768c0.991,0.513,1.768,1.225,2.328,2.137c0.559,0.912,0.84,1.961,0.84,3.144
		c0,0.993-0.48,1.488-1.44,1.488H287.13c-0.448,0-0.761,0.12-0.936,0.36c-0.177,0.24-0.265,0.712-0.265,1.416
		c0,1.535,0.336,2.936,1.008,4.199c0.673,1.265,1.568,2.273,2.688,3.024c1.12,0.752,2.352,1.128,3.696,1.128
		c0.96,0,1.831-0.184,2.615-0.552s1.48-0.903,2.089-1.608c0.127-0.16,0.223-0.264,0.288-0.313c0.063-0.047,0.144-0.071,0.239-0.071
		c0.256,0,0.384,0.161,0.384,0.479c0,0.609-0.287,1.281-0.863,2.017c-0.48,0.608-1.057,1.136-1.729,1.584s-1.408,0.792-2.208,1.032
		S292.506,256.319,291.642,256.319z M287.226,241.775h4.368c0.769,0,1.424-0.016,1.968-0.048c0.544-0.031,1.072-0.096,1.584-0.191
		c0.16-0.032,0.265-0.137,0.313-0.313s0.072-0.424,0.072-0.744c0-0.928-0.408-1.72-1.225-2.376
		c-0.815-0.655-1.784-0.983-2.903-0.983c-0.737,0-1.473,0.215-2.208,0.647c-0.737,0.433-1.345,0.968-1.824,1.608
		c-0.48,0.641-0.72,1.279-0.72,1.92C286.65,241.616,286.842,241.775,287.226,241.775z"/>
</g>
</svg>
