<?xml version="1.0" encoding="utf-8"?>
<!-- Generator: Adobe Illustrator 14.0.0, SVG Export Plug-In . SVG Version: 6.00 Build 43363)  -->
<!DOCTYPE svg PUBLIC "-//W3C//DTD SVG 1.1//EN" "http://www.w3.org/Graphics/SVG/1.1/DTD/svg11.dtd">
<svg version="1.1" id="レイヤー_2" xmlns="http://www.w3.org/2000/svg" xmlns:xlink="http://www.w3.org/1999/xlink" x="0px"
	 y="0px" width="275.468px" height="191.808px" viewBox="0.912 5.712 275.468 191.808"
	 enable-background="new 0.912 5.712 275.468 191.808" xml:space="preserve">
<g>
	<path fill="#0D4482" d="M2.304,39.84c-0.417,0-0.752-0.041-1.008-0.12c-0.256-0.081-0.384-0.216-0.384-0.408
		c0-0.384,0.528-0.672,1.584-0.864c1.216-0.224,2.144-0.592,2.784-1.104c0.64-0.512,0.96-1.328,0.96-2.448V13.2
		c0-1.12-0.233-1.92-0.696-2.4C5.08,10.32,4.24,9.968,3.024,9.744C1.968,9.552,1.44,9.232,1.44,8.784
		c0-0.192,0.127-0.328,0.384-0.408c0.255-0.08,0.591-0.12,1.008-0.12c0.864,0,1.576,0.017,2.136,0.048
		c0.56,0.032,1.096,0.056,1.608,0.072C7.087,8.392,7.711,8.4,8.448,8.4c0.703,0,1.279-0.007,1.728-0.024
		c0.448-0.016,0.928-0.04,1.44-0.072c0.511-0.032,1.2-0.048,2.064-0.048c0.416,0,0.751,0.041,1.008,0.12
		c0.256,0.081,0.384,0.216,0.384,0.408c0,0.224-0.128,0.416-0.384,0.576c-0.256,0.161-0.656,0.288-1.2,0.384
		c-1.184,0.224-2.048,0.576-2.592,1.056c-0.544,0.48-0.816,1.28-0.816,2.4v21.696c0,1.121,0.336,1.937,1.008,2.448
		c0.672,0.512,1.6,0.88,2.784,1.104c0.543,0.096,0.943,0.208,1.2,0.336c0.256,0.128,0.384,0.304,0.384,0.528
		c0,0.192-0.128,0.328-0.384,0.408c-0.256,0.08-0.592,0.12-1.008,0.12c-0.864,0-1.577-0.024-2.136-0.072
		c-0.561-0.048-1.097-0.088-1.608-0.12C9.808,39.615,9.184,39.6,8.448,39.6c-0.8,0-1.497,0.016-2.088,0.048
		c-0.592,0.032-1.2,0.072-1.824,0.12S3.168,39.84,2.304,39.84z"/>
	<path fill="#0D4482" d="M18.432,39.744c-0.32,0-0.56-0.041-0.72-0.12c-0.161-0.08-0.24-0.216-0.24-0.408
		c0-0.256,0.104-0.432,0.312-0.528c0.208-0.096,0.472-0.175,0.792-0.24c0.736-0.16,1.264-0.392,1.584-0.696
		c0.32-0.304,0.48-0.775,0.48-1.416V22.8c-0.32,0-0.688-0.008-1.104-0.024c-0.416-0.016-0.88-0.04-1.392-0.072
		c-0.096-0.032-0.233-0.144-0.408-0.336C17.56,22.176,17.472,22,17.472,21.84c0-0.064,0.048-0.12,0.144-0.168
		c0.096-0.048,0.16-0.087,0.192-0.12c0.576-0.288,1.072-0.544,1.488-0.768c0.416-0.224,0.864-0.448,1.344-0.672
		c0-2.784,0.344-5.104,1.032-6.96c0.688-1.855,1.576-3.328,2.664-4.416c1.087-1.088,2.239-1.864,3.456-2.328
		c1.216-0.463,2.352-0.696,3.408-0.696c1.792,0,3.12,0.272,3.984,0.816c0.864,0.544,1.296,1.232,1.296,2.064
		c0,0.64-0.161,1.12-0.48,1.44c-0.32,0.32-0.705,0.48-1.152,0.48c-0.288,0-0.552-0.112-0.792-0.336
		c-0.24-0.224-0.521-0.48-0.84-0.768C32.8,8.992,32.287,8.6,31.68,8.232c-0.608-0.367-1.44-0.552-2.496-0.552
		c-1.504,0-2.744,0.656-3.72,1.968C24.487,10.96,24,12.976,24,15.696v4.224c0,0.192,0.055,0.32,0.168,0.384
		c0.112,0.064,0.231,0.096,0.36,0.096h6c0.16,0,0.304,0.048,0.432,0.144c0.127,0.096,0.192,0.225,0.192,0.384
		c0,0.224-0.024,0.464-0.072,0.72c-0.048,0.257-0.12,0.48-0.216,0.672c-0.096,0.256-0.24,0.384-0.432,0.384h-5.52
		c-0.384,0-0.632,0.056-0.744,0.168C24.055,22.984,24,23.136,24,23.328v13.008c0,0.641,0.208,1.112,0.624,1.416
		c0.416,0.305,1.264,0.537,2.544,0.696c0.736,0.096,1.104,0.353,1.104,0.768c0,0.192-0.081,0.328-0.24,0.408
		c-0.161,0.08-0.4,0.12-0.72,0.12c-0.96,0-1.809-0.041-2.544-0.12c-0.737-0.08-1.521-0.12-2.352-0.12
		c-0.545,0-0.993,0.017-1.344,0.048c-0.353,0.032-0.72,0.072-1.104,0.12C19.584,39.72,19.072,39.744,18.432,39.744z"/>
	<path fill="#0D4482" d="M50.255,40.272c-1.568,0-2.792-0.48-3.672-1.44c-0.88-0.96-1.32-2.383-1.32-4.272V23.424
		c0-0.256-0.096-0.44-0.288-0.552c-0.192-0.112-0.608-0.168-1.248-0.168h-0.288c-0.16,0-0.296-0.104-0.408-0.312
		c-0.113-0.208-0.168-0.424-0.168-0.648c0-0.064,0.048-0.16,0.144-0.288c0.096-0.127,0.16-0.208,0.192-0.24
		c0.64-0.448,1.224-0.896,1.752-1.344c0.528-0.448,1.008-0.888,1.44-1.32c0.432-0.432,0.792-0.824,1.08-1.176
		c0.16-0.16,0.295-0.295,0.408-0.408c0.112-0.112,0.248-0.168,0.408-0.168c0.16,0,0.312,0.032,0.456,0.096
		c0.144,0.064,0.199,0.208,0.168,0.432l-0.24,2.16c-0.032,0.353,0.048,0.592,0.24,0.72c0.192,0.128,0.496,0.192,0.912,0.192h5.472
		c0.127,0,0.24,0.104,0.336,0.312c0.096,0.208,0.144,0.456,0.144,0.744s-0.048,0.568-0.144,0.84
		c-0.096,0.272-0.209,0.408-0.336,0.408h-4.752c-0.8,0-1.32,0.064-1.56,0.192c-0.24,0.128-0.36,0.512-0.36,1.152v9.456
		c0,1.28,0.271,2.289,0.816,3.024c0.544,0.736,1.328,1.104,2.352,1.104c0.928,0,1.648-0.072,2.16-0.216
		c0.511-0.144,0.976-0.36,1.392-0.648c0.063-0.063,0.127-0.096,0.192-0.096c0.127,0,0.216,0.072,0.264,0.216
		c0.048,0.144,0.072,0.296,0.072,0.456c0,0.16-0.264,0.48-0.792,0.96s-1.216,0.928-2.064,1.344
		C52.167,40.063,51.247,40.272,50.255,40.272z"/>
	<path fill="#0D4482" d="M58.127,39.744c-0.641,0-0.96-0.176-0.96-0.528c0-0.288,0.367-0.544,1.104-0.768
		c0.48-0.16,0.936-0.368,1.368-0.624c0.432-0.256,0.664-0.704,0.696-1.344V12.432c0-0.864-0.144-1.624-0.432-2.28
		c-0.288-0.655-0.848-1.047-1.68-1.176c-0.288-0.064-0.432-0.288-0.432-0.672c0-0.288,0.127-0.48,0.384-0.576
		c0.448-0.16,0.984-0.336,1.608-0.528s1.272-0.408,1.944-0.648c0.672-0.24,1.264-0.472,1.776-0.696
		c0.127-0.063,0.224-0.096,0.288-0.096c0.096,0,0.175,0.032,0.24,0.096C64.095,5.92,64.127,6,64.127,6.096
		c0,0.192-0.041,0.464-0.12,0.816c-0.08,0.353-0.152,0.96-0.216,1.824c-0.064,0.864-0.096,2.16-0.096,3.888v8.352
		c0,0.512,0.024,0.88,0.072,1.104c0.048,0.224,0.136,0.449,0.264,0.672c0.512-0.384,1.144-0.808,1.896-1.272
		c0.751-0.463,1.592-0.872,2.52-1.224c0.928-0.352,1.888-0.528,2.88-0.528c1.568,0,2.872,0.617,3.912,1.848
		c1.04,1.232,1.56,2.792,1.56,4.68v10.08c0,0.641,0.208,1.112,0.624,1.416c0.416,0.305,0.864,0.537,1.344,0.696
		c0.352,0.096,0.624,0.2,0.816,0.312c0.192,0.112,0.288,0.264,0.288,0.456c0,0.352-0.32,0.528-0.96,0.528s-1.128-0.024-1.464-0.072
		c-0.336-0.048-0.656-0.087-0.96-0.12c-0.304-0.032-0.744-0.048-1.32-0.048c-0.544,0-0.977,0.017-1.296,0.048
		c-0.32,0.032-0.648,0.072-0.984,0.12c-0.336,0.048-0.824,0.072-1.464,0.072c-0.641,0-0.96-0.176-0.96-0.528
		c0-0.224,0.096-0.376,0.288-0.456c0.192-0.08,0.463-0.184,0.816-0.312c0.48-0.16,0.912-0.392,1.296-0.696
		c0.384-0.304,0.576-0.775,0.576-1.416v-9.792c0-0.799-0.232-1.528-0.696-2.184c-0.464-0.655-1.032-1.176-1.704-1.56
		c-0.672-0.384-1.361-0.576-2.064-0.576c-0.608,0-1.313,0.088-2.112,0.264c-0.8,0.176-1.424,0.44-1.872,0.792
		c-0.512,0.416-0.856,0.848-1.032,1.296c-0.176,0.448-0.264,1.168-0.264,2.16v9.744c0.032,0.641,0.232,1.088,0.6,1.344
		c0.368,0.256,0.792,0.464,1.272,0.624c0.352,0.096,0.616,0.2,0.792,0.312c0.175,0.112,0.264,0.264,0.264,0.456
		c0,0.352-0.32,0.528-0.96,0.528c-0.641,0-1.121-0.024-1.44-0.072c-0.32-0.048-0.624-0.087-0.912-0.12
		c-0.288-0.032-0.72-0.048-1.296-0.048c-0.544,0-0.984,0.017-1.32,0.048c-0.336,0.032-0.688,0.072-1.056,0.12
		C59.271,39.72,58.767,39.744,58.127,39.744z"/>
	<path fill="#0D4482" d="M91.2,40.32c-1.76,0-3.296-0.432-4.608-1.296c-1.313-0.864-2.336-2.088-3.072-3.672
		c-0.736-1.584-1.104-3.416-1.104-5.496c0-1.855,0.424-3.543,1.272-5.064c0.848-1.52,1.976-2.743,3.384-3.672
		c1.408-0.928,2.943-1.392,4.608-1.392c1.279,0,2.416,0.256,3.408,0.768c0.992,0.512,1.768,1.224,2.328,2.136
		c0.56,0.912,0.84,1.96,0.84,3.144c0,0.993-0.48,1.488-1.44,1.488H86.688c-0.448,0-0.76,0.12-0.936,0.36
		c-0.176,0.24-0.264,0.712-0.264,1.416c0,1.536,0.336,2.937,1.008,4.2c0.672,1.264,1.567,2.272,2.688,3.024
		c1.12,0.752,2.352,1.128,3.696,1.128c0.96,0,1.832-0.184,2.616-0.552c0.784-0.368,1.479-0.904,2.088-1.608
		c0.127-0.16,0.224-0.264,0.288-0.312c0.064-0.048,0.144-0.072,0.24-0.072c0.255,0,0.384,0.161,0.384,0.48
		c0,0.608-0.288,1.28-0.864,2.016c-0.48,0.608-1.056,1.136-1.728,1.584c-0.672,0.448-1.409,0.792-2.208,1.032
		C92.896,40.2,92.063,40.32,91.2,40.32z M86.784,25.776h4.368c0.768,0,1.424-0.016,1.968-0.048c0.544-0.031,1.072-0.096,1.584-0.192
		c0.16-0.032,0.264-0.136,0.312-0.312c0.048-0.175,0.072-0.424,0.072-0.744c0-0.928-0.408-1.72-1.224-2.376
		c-0.816-0.655-1.785-0.984-2.904-0.984c-0.736,0-1.472,0.216-2.208,0.648c-0.736,0.432-1.344,0.968-1.824,1.608
		c-0.48,0.641-0.72,1.28-0.72,1.92C86.208,25.616,86.399,25.776,86.784,25.776z"/>
	<path fill="#0D4482" d="M102.047,39.744c-0.32,0-0.56-0.041-0.72-0.12s-0.24-0.216-0.24-0.408c0-0.256,0.096-0.424,0.288-0.504
		c0.192-0.079,0.463-0.168,0.816-0.264c0.607-0.16,1.063-0.392,1.368-0.696c0.304-0.304,0.456-0.679,0.456-1.128v-10.32
		c0-0.864-0.128-1.616-0.384-2.256c-0.256-0.64-0.785-1.04-1.584-1.2c-0.128-0.032-0.24-0.112-0.336-0.24
		c-0.096-0.127-0.144-0.255-0.144-0.384c0-0.319,0.144-0.512,0.432-0.576c0.832-0.255,1.704-0.631,2.616-1.128
		c0.912-0.496,1.624-0.904,2.136-1.224c0.192-0.127,0.343-0.216,0.456-0.264c0.111-0.048,0.199-0.072,0.264-0.072
		c0.16,0,0.24,0.113,0.24,0.336c0,0.096-0.008,0.336-0.024,0.72c-0.017,0.384-0.032,0.833-0.048,1.344
		c-0.016,0.513-0.041,1.025-0.072,1.536c0,0.064,0.031,0.096,0.096,0.096c0.512-0.64,1.08-1.2,1.704-1.68s1.264-0.864,1.92-1.152
		c0.656-0.288,1.288-0.432,1.896-0.432c0.672,0,1.224,0.144,1.656,0.432s0.648,0.656,0.648,1.104c0,0.32-0.088,0.672-0.264,1.056
		c-0.176,0.384-0.408,0.72-0.696,1.008s-0.593,0.432-0.912,0.432c-0.192,0-0.4-0.04-0.624-0.12c-0.224-0.08-0.464-0.184-0.72-0.312
		c-0.257-0.096-0.512-0.192-0.768-0.288c-0.257-0.096-0.512-0.144-0.768-0.144c-0.768,0-1.512,0.272-2.232,0.816
		c-0.72,0.545-1.08,1.616-1.08,3.216v9.696c0,0.417,0.224,0.761,0.672,1.032c0.448,0.272,1.072,0.536,1.872,0.792
		c0.352,0.096,0.624,0.192,0.816,0.288c0.192,0.096,0.288,0.256,0.288,0.48c0,0.352-0.32,0.528-0.96,0.528
		c-0.96,0-1.688-0.041-2.184-0.12c-0.497-0.08-1.16-0.12-1.992-0.12c-0.545,0-0.984,0.017-1.32,0.048
		c-0.336,0.032-0.688,0.072-1.056,0.12C103.191,39.72,102.687,39.744,102.047,39.744z"/>
	<path fill="#0D4482" d="M125.952,40.32c-1.76,0-3.296-0.432-4.608-1.296c-1.313-0.864-2.336-2.088-3.072-3.672
		c-0.736-1.584-1.104-3.416-1.104-5.496c0-1.855,0.424-3.543,1.272-5.064c0.848-1.52,1.976-2.743,3.384-3.672
		c1.408-0.928,2.943-1.392,4.608-1.392c1.279,0,2.416,0.256,3.408,0.768c0.992,0.512,1.768,1.224,2.328,2.136
		c0.56,0.912,0.84,1.96,0.84,3.144c0,0.993-0.48,1.488-1.44,1.488h-10.128c-0.448,0-0.76,0.12-0.936,0.36
		c-0.176,0.24-0.264,0.712-0.264,1.416c0,1.536,0.336,2.937,1.008,4.2c0.672,1.264,1.567,2.272,2.688,3.024
		c1.12,0.752,2.352,1.128,3.696,1.128c0.96,0,1.832-0.184,2.616-0.552c0.784-0.368,1.479-0.904,2.088-1.608
		c0.127-0.16,0.224-0.264,0.288-0.312c0.064-0.048,0.144-0.072,0.24-0.072c0.255,0,0.384,0.161,0.384,0.48
		c0,0.608-0.288,1.28-0.864,2.016c-0.48,0.608-1.056,1.136-1.728,1.584c-0.672,0.448-1.409,0.792-2.208,1.032
		C127.647,40.2,126.815,40.32,125.952,40.32z M121.536,25.776h4.368c0.768,0,1.424-0.016,1.968-0.048
		c0.544-0.031,1.072-0.096,1.584-0.192c0.16-0.032,0.264-0.136,0.312-0.312c0.048-0.175,0.072-0.424,0.072-0.744
		c0-0.928-0.408-1.72-1.224-2.376c-0.816-0.655-1.785-0.984-2.904-0.984c-0.736,0-1.472,0.216-2.208,0.648
		c-0.736,0.432-1.344,0.968-1.824,1.608c-0.48,0.641-0.72,1.28-0.72,1.92C120.959,25.616,121.151,25.776,121.536,25.776z"/>
	<path fill="#0D4482" d="M149.664,40.272c-0.576,0-1.161-0.224-1.753-0.672c-0.593-0.448-1.088-0.992-1.487-1.632
		c-0.4-0.64-0.601-1.248-0.601-1.824c0-1.024,0.271-1.824,0.815-2.4c0.545-0.576,1.408-1.104,2.593-1.584l4.896-2.016
		c0.641-0.256,1.016-0.48,1.129-0.672c0.111-0.192,0.184-0.607,0.215-1.248l0.097-3.072c0.031-0.832-0.2-1.551-0.696-2.16
		c-0.496-0.607-1.208-0.912-2.136-0.912c-0.479,0-0.96,0.08-1.44,0.24c-0.479,0.16-0.88,0.368-1.199,0.624
		c-0.192,0.128-0.32,0.32-0.385,0.576c-0.064,0.256-0.096,0.528-0.096,0.816c0,0.128,0.008,0.272,0.023,0.432
		c0.017,0.161,0.025,0.305,0.025,0.432c0,0.161-0.201,0.376-0.601,0.648c-0.4,0.272-0.849,0.512-1.345,0.72
		c-0.496,0.208-0.904,0.312-1.223,0.312c-0.161,0-0.289-0.04-0.385-0.12c-0.096-0.08-0.145-0.184-0.145-0.312
		c0-0.512,0.168-1.063,0.504-1.656c0.336-0.592,0.809-1.144,1.416-1.656c0.736-0.672,1.537-1.264,2.4-1.776
		c0.864-0.511,1.712-0.912,2.545-1.2c0.831-0.288,1.566-0.432,2.207-0.432c1.152,0,2.104,0.408,2.856,1.224
		c0.751,0.816,1.111,1.832,1.08,3.048l-0.24,11.52c-0.032,0.672,0.12,1.217,0.456,1.632c0.336,0.417,0.76,0.624,1.271,0.624
		c0.8,0,1.393-0.175,1.776-0.528c0.159-0.16,0.288-0.24,0.384-0.24c0.16,0,0.288,0.048,0.385,0.144
		c0.096,0.096,0.144,0.225,0.144,0.384c0,0.353-0.177,0.704-0.528,1.056c-0.512,0.512-1.064,0.92-1.656,1.224
		s-1.145,0.456-1.655,0.456c-1.472,0-2.64-0.832-3.505-2.496h-0.143c-1.057,0.864-2.064,1.497-3.025,1.896
		C151.679,40.072,150.687,40.272,149.664,40.272z M151.919,37.968c0.639,0,1.184-0.104,1.631-0.312
		c0.448-0.208,0.848-0.488,1.201-0.84c0.159-0.16,0.295-0.375,0.407-0.648c0.112-0.271,0.185-0.711,0.216-1.32l0.096-2.352
		c0.032-0.352,0.017-0.607-0.047-0.768c-0.064-0.16-0.192-0.24-0.385-0.24c-0.064,0-0.176,0.016-0.336,0.048
		c-0.16,0.032-0.368,0.096-0.623,0.192c-1.697,0.608-2.873,1.241-3.529,1.896c-0.656,0.656-0.983,1.256-0.983,1.8
		c0,0.833,0.247,1.464,0.744,1.896C150.806,37.752,151.343,37.968,151.919,37.968z"/>
	<path fill="#0D4482" d="M165.55,39.744c-0.32,0-0.561-0.041-0.721-0.12s-0.239-0.216-0.239-0.408c0-0.256,0.096-0.424,0.288-0.504
		c0.191-0.079,0.463-0.168,0.816-0.264c0.607-0.16,1.063-0.392,1.367-0.696c0.305-0.304,0.456-0.679,0.456-1.128v-10.32
		c0-0.864-0.128-1.616-0.384-2.256s-0.785-1.04-1.584-1.2c-0.129-0.032-0.24-0.112-0.336-0.24c-0.096-0.127-0.145-0.255-0.145-0.384
		c0-0.319,0.145-0.512,0.433-0.576c0.831-0.255,1.704-0.631,2.616-1.128c0.912-0.496,1.623-0.904,2.136-1.224
		c0.192-0.127,0.343-0.216,0.456-0.264c0.111-0.048,0.199-0.072,0.264-0.072c0.16,0,0.24,0.113,0.24,0.336
		c0,0.096-0.008,0.336-0.023,0.72c-0.018,0.384-0.033,0.833-0.049,1.344c-0.016,0.513-0.041,1.025-0.072,1.536
		c0,0.064,0.031,0.096,0.096,0.096c0.512-0.64,1.08-1.2,1.705-1.68c0.623-0.48,1.264-0.864,1.92-1.152
		c0.655-0.288,1.287-0.432,1.896-0.432c0.673,0,1.224,0.144,1.656,0.432s0.647,0.656,0.647,1.104c0,0.32-0.088,0.672-0.264,1.056
		c-0.176,0.384-0.408,0.72-0.695,1.008c-0.289,0.288-0.594,0.432-0.912,0.432c-0.192,0-0.4-0.04-0.625-0.12
		c-0.224-0.08-0.464-0.184-0.719-0.312c-0.258-0.096-0.513-0.192-0.769-0.288c-0.257-0.096-0.513-0.144-0.769-0.144
		c-0.768,0-1.512,0.272-2.231,0.816c-0.72,0.545-1.08,1.616-1.08,3.216v9.696c0,0.417,0.224,0.761,0.672,1.032
		c0.448,0.272,1.071,0.536,1.872,0.792c0.352,0.096,0.624,0.192,0.816,0.288c0.191,0.096,0.287,0.256,0.287,0.48
		c0,0.352-0.32,0.528-0.959,0.528c-0.961,0-1.689-0.041-2.185-0.12c-0.497-0.08-1.16-0.12-1.991-0.12
		c-0.545,0-0.984,0.017-1.32,0.048c-0.336,0.032-0.689,0.072-1.057,0.12C166.694,39.72,166.19,39.744,165.55,39.744z"/>
	<path fill="#0D4482" d="M189.455,40.32c-1.76,0-3.297-0.432-4.607-1.296c-1.313-0.864-2.337-2.088-3.072-3.672
		c-0.736-1.584-1.104-3.416-1.104-5.496c0-1.855,0.424-3.543,1.272-5.064c0.848-1.52,1.975-2.743,3.384-3.672
		c1.407-0.928,2.943-1.392,4.608-1.392c1.279,0,2.415,0.256,3.407,0.768c0.991,0.512,1.769,1.224,2.328,2.136
		c0.56,0.912,0.84,1.96,0.84,3.144c0,0.993-0.479,1.488-1.44,1.488h-10.127c-0.449,0-0.761,0.12-0.937,0.36
		c-0.177,0.24-0.264,0.712-0.264,1.416c0,1.536,0.336,2.937,1.008,4.2c0.672,1.264,1.567,2.272,2.688,3.024
		c1.119,0.752,2.352,1.128,3.695,1.128c0.96,0,1.832-0.184,2.616-0.552c0.784-0.368,1.479-0.904,2.088-1.608
		c0.128-0.16,0.224-0.264,0.288-0.312c0.064-0.048,0.145-0.072,0.24-0.072c0.256,0,0.384,0.161,0.384,0.48
		c0,0.608-0.288,1.28-0.864,2.016c-0.48,0.608-1.056,1.136-1.728,1.584c-0.673,0.448-1.409,0.792-2.208,1.032
		C191.15,40.2,190.318,40.32,189.455,40.32z M185.039,25.776h4.367c0.769,0,1.424-0.016,1.969-0.048
		c0.544-0.031,1.072-0.096,1.584-0.192c0.16-0.032,0.264-0.136,0.313-0.312c0.047-0.175,0.071-0.424,0.071-0.744
		c0-0.928-0.407-1.72-1.224-2.376c-0.816-0.655-1.785-0.984-2.904-0.984c-0.736,0-1.473,0.216-2.208,0.648
		c-0.736,0.432-1.344,0.968-1.823,1.608c-0.48,0.641-0.721,1.28-0.721,1.92C184.462,25.616,184.654,25.776,185.039,25.776z"/>
	<path fill="#0D4482" d="M216.623,40.272c-1.568,0-2.793-0.48-3.672-1.44c-0.881-0.96-1.32-2.383-1.32-4.272V23.424
		c0-0.256-0.096-0.44-0.289-0.552c-0.191-0.112-0.607-0.168-1.248-0.168h-0.287c-0.16,0-0.297-0.104-0.408-0.312
		c-0.113-0.208-0.168-0.424-0.168-0.648c0-0.064,0.047-0.16,0.145-0.288c0.096-0.127,0.158-0.208,0.191-0.24
		c0.639-0.448,1.225-0.896,1.752-1.344c0.527-0.448,1.008-0.888,1.439-1.32c0.432-0.432,0.793-0.824,1.08-1.176
		c0.16-0.16,0.297-0.295,0.408-0.408c0.111-0.112,0.248-0.168,0.408-0.168s0.313,0.032,0.455,0.096
		c0.145,0.064,0.201,0.208,0.168,0.432l-0.238,2.16c-0.033,0.353,0.047,0.592,0.238,0.72c0.193,0.128,0.496,0.192,0.912,0.192h5.473
		c0.127,0,0.24,0.104,0.336,0.312c0.096,0.208,0.145,0.456,0.145,0.744s-0.049,0.568-0.145,0.84
		c-0.096,0.272-0.209,0.408-0.336,0.408h-4.752c-0.801,0-1.32,0.064-1.561,0.192c-0.24,0.128-0.359,0.512-0.359,1.152v9.456
		c0,1.28,0.271,2.289,0.816,3.024c0.543,0.736,1.328,1.104,2.352,1.104c0.928,0,1.648-0.072,2.16-0.216s0.977-0.36,1.393-0.648
		c0.063-0.063,0.127-0.096,0.191-0.096c0.127,0,0.217,0.072,0.264,0.216c0.049,0.144,0.072,0.296,0.072,0.456
		c0,0.16-0.264,0.48-0.791,0.96c-0.529,0.48-1.217,0.928-2.064,1.344C218.533,40.063,217.613,40.272,216.623,40.272z"/>
	<path fill="#0D4482" d="M233.468,40.704c-0.064,0-0.127-0.032-0.191-0.096c-0.064-0.064-0.111-0.144-0.145-0.24l-6.672-16.56
		c-0.223-0.64-0.576-1.16-1.055-1.56c-0.48-0.4-0.961-0.664-1.441-0.792c-0.256-0.096-0.504-0.208-0.744-0.336
		c-0.238-0.127-0.359-0.304-0.359-0.528c0-0.192,0.121-0.312,0.359-0.36c0.24-0.048,0.439-0.072,0.602-0.072
		c0.414,0,0.807,0.017,1.176,0.048c0.367,0.032,0.744,0.072,1.127,0.12c0.385,0.048,0.785,0.072,1.201,0.072
		c0.447,0,0.895-0.024,1.344-0.072c0.447-0.048,0.887-0.088,1.32-0.12c0.432-0.031,0.871-0.048,1.32-0.048
		c0.127,0,0.318,0.024,0.574,0.072c0.256,0.048,0.385,0.168,0.385,0.36c0,0.224-0.119,0.4-0.359,0.528
		c-0.24,0.128-0.488,0.24-0.744,0.336c-0.32,0.096-0.568,0.329-0.744,0.696c-0.176,0.369-0.264,0.776-0.264,1.224
		c0,0.417,0.078,0.833,0.24,1.248l3.742,9.648c0.033,0.128,0.113,0.192,0.24,0.192c0.129,0,0.209-0.063,0.24-0.192l3.264-7.776
		c0.16-0.416,0.266-0.816,0.313-1.2c0.049-0.384,0.072-0.751,0.072-1.104c0-0.703-0.271-1.279-0.816-1.728
		c-0.545-0.448-1.088-0.784-1.631-1.008c-0.258-0.096-0.504-0.208-0.744-0.336c-0.24-0.127-0.361-0.304-0.361-0.528
		c0-0.192,0.113-0.312,0.336-0.36c0.225-0.048,0.434-0.072,0.625-0.072c0.447,0,0.936,0.041,1.463,0.12
		c0.529,0.08,1.24,0.12,2.137,0.12s1.664-0.04,2.305-0.12c0.639-0.08,1.215-0.12,1.729-0.12c0.158,0,0.359,0.024,0.6,0.072
		c0.24,0.048,0.359,0.168,0.359,0.36c0,0.224-0.119,0.4-0.359,0.528c-0.24,0.128-0.488,0.24-0.744,0.336
		c-0.354,0.128-0.713,0.305-1.08,0.528c-0.369,0.225-0.553,0.624-0.553,1.2c0,0.192,0.023,0.408,0.072,0.648
		c0.049,0.24,0.137,0.504,0.264,0.792l3.6,9.264c0.16,0.353,0.289,0.528,0.385,0.528c0.127,0,0.256-0.16,0.385-0.48l3.646-8.496
		c0.129-0.255,0.217-0.576,0.266-0.96c0.047-0.384,0.07-0.688,0.07-0.912c0-0.576-0.191-1.039-0.574-1.392
		c-0.385-0.352-0.754-0.592-1.105-0.72c-0.256-0.096-0.504-0.208-0.744-0.336c-0.24-0.127-0.359-0.304-0.359-0.528
		c0-0.192,0.119-0.312,0.359-0.36c0.24-0.048,0.439-0.072,0.602-0.072c0.703,0,1.264,0.041,1.68,0.12
		c0.414,0.08,1.055,0.12,1.92,0.12c0.607,0,1.039-0.024,1.295-0.072s0.48-0.088,0.672-0.12c0.193-0.031,0.465-0.048,0.816-0.048
		c0.191,0,0.4,0.024,0.625,0.072c0.223,0.048,0.336,0.168,0.336,0.36c0,0.224-0.121,0.4-0.361,0.528
		c-0.24,0.128-0.488,0.24-0.744,0.336c-0.479,0.128-0.943,0.504-1.391,1.128c-0.449,0.624-0.834,1.304-1.152,2.04l-6.576,15.744
		c-0.096,0.224-0.24,0.336-0.432,0.336c-0.129,0-0.258-0.112-0.385-0.336l-4.992-12.384c-0.096-0.255-0.191-0.399-0.287-0.432
		c-0.096,0-0.209,0.16-0.336,0.48l-5.232,12.336C233.757,40.592,233.628,40.704,233.468,40.704z"/>
	<path fill="#0D4482" d="M265.533,40.272c-1.793,0-3.408-0.416-4.848-1.248c-1.439-0.832-2.584-1.975-3.432-3.432
		c-0.85-1.456-1.273-3.112-1.273-4.968c0-1.344,0.266-2.656,0.793-3.936c0.527-1.279,1.271-2.448,2.232-3.504
		c0.959-1.056,2.08-1.896,3.359-2.52s2.656-0.936,4.129-0.936c1.855,0,3.527,0.449,5.016,1.344c1.488,0.896,2.672,2.072,3.551,3.528
		c0.881,1.457,1.32,3.048,1.32,4.776c0,1.856-0.408,3.617-1.223,5.28c-0.816,1.664-2.025,3.016-3.625,4.056
		S267.933,40.272,265.533,40.272z M266.541,38.832c1.088,0,2.064-0.208,2.928-0.624c0.865-0.416,1.537-1.087,2.016-2.016
		c0.385-0.735,0.641-1.632,0.77-2.688c0.127-1.056,0.191-2.047,0.191-2.976c0-1.536-0.281-3.016-0.84-4.44
		c-0.561-1.423-1.344-2.592-2.352-3.504s-2.201-1.368-3.576-1.368c-0.865,0-1.641,0.136-2.328,0.408
		c-0.689,0.272-1.32,0.776-1.896,1.512c-0.641,0.8-1.057,1.776-1.248,2.928c-0.191,1.152-0.287,2.304-0.287,3.456
		c0,1.568,0.287,3.064,0.863,4.488s1.359,2.584,2.352,3.48C264.125,38.384,265.261,38.832,266.541,38.832z"/>
	<path fill="#0D4482" d="M11.232,112.272c-1.792,0-3.408-0.416-4.848-1.248c-1.44-0.832-2.584-1.975-3.432-3.432
		c-0.849-1.456-1.272-3.112-1.272-4.968c0-1.344,0.264-2.656,0.792-3.936C3,97.408,3.744,96.24,4.704,95.184s2.08-1.896,3.36-2.52
		c1.279-0.624,2.656-0.936,4.128-0.936c1.855,0,3.528,0.449,5.016,1.344c1.488,0.896,2.671,2.072,3.552,3.528
		c0.88,1.457,1.32,3.048,1.32,4.776c0,1.856-0.408,3.617-1.224,5.28c-0.816,1.664-2.024,3.016-3.624,4.056
		C15.631,111.751,13.632,112.272,11.232,112.272z M12.24,110.832c1.087,0,2.064-0.208,2.928-0.624
		c0.864-0.416,1.536-1.087,2.016-2.016c0.384-0.735,0.64-1.632,0.768-2.688c0.127-1.056,0.192-2.047,0.192-2.976
		c0-1.536-0.281-3.016-0.84-4.44c-0.561-1.423-1.344-2.592-2.352-3.504c-1.008-0.912-2.201-1.368-3.576-1.368
		c-0.864,0-1.64,0.136-2.328,0.408c-0.688,0.272-1.32,0.776-1.896,1.512c-0.64,0.8-1.056,1.776-1.248,2.928
		c-0.192,1.152-0.288,2.304-0.288,3.456c0,1.568,0.288,3.064,0.864,4.488s1.36,2.584,2.352,3.48
		C9.824,110.384,10.96,110.832,12.24,110.832z"/>
	<path fill="#0D4482" d="M25.872,111.744c-0.32,0-0.56-0.041-0.72-0.12c-0.161-0.08-0.24-0.216-0.24-0.408
		c0-0.256,0.104-0.432,0.312-0.528c0.208-0.096,0.472-0.175,0.792-0.24c0.736-0.16,1.264-0.392,1.584-0.696
		c0.32-0.304,0.48-0.775,0.48-1.416V94.8c-0.32,0-0.688-0.008-1.104-0.024c-0.416-0.016-0.88-0.04-1.392-0.072
		c-0.096-0.032-0.233-0.144-0.408-0.336C25,94.176,24.912,94,24.912,93.84c0-0.064,0.048-0.12,0.144-0.168
		c0.096-0.048,0.16-0.087,0.192-0.12c0.576-0.288,1.072-0.544,1.488-0.768c0.416-0.224,0.864-0.448,1.344-0.672
		c0-2.784,0.344-5.104,1.032-6.96c0.688-1.855,1.576-3.328,2.664-4.416c1.087-1.088,2.239-1.864,3.456-2.328
		c1.216-0.463,2.352-0.696,3.408-0.696c1.792,0,3.12,0.272,3.984,0.816c0.864,0.544,1.296,1.232,1.296,2.064
		c0,0.64-0.161,1.12-0.48,1.44c-0.32,0.32-0.705,0.48-1.152,0.48c-0.288,0-0.552-0.112-0.792-0.336
		c-0.24-0.224-0.521-0.48-0.84-0.768c-0.416-0.416-0.929-0.808-1.536-1.176c-0.608-0.367-1.44-0.552-2.496-0.552
		c-1.504,0-2.744,0.656-3.72,1.968c-0.977,1.313-1.464,3.329-1.464,6.048v4.224c0,0.192,0.055,0.32,0.168,0.384
		c0.112,0.064,0.231,0.096,0.36,0.096h6c0.16,0,0.304,0.048,0.432,0.144c0.127,0.096,0.192,0.225,0.192,0.384
		c0,0.224-0.024,0.464-0.072,0.72c-0.048,0.257-0.12,0.48-0.216,0.672c-0.096,0.256-0.24,0.384-0.432,0.384h-5.52
		c-0.384,0-0.632,0.056-0.744,0.168c-0.113,0.112-0.168,0.264-0.168,0.456v13.008c0,0.641,0.208,1.112,0.624,1.416
		c0.416,0.305,1.264,0.537,2.544,0.696c0.736,0.096,1.104,0.353,1.104,0.768c0,0.192-0.081,0.328-0.24,0.408
		c-0.161,0.08-0.4,0.12-0.72,0.12c-0.96,0-1.809-0.041-2.544-0.12c-0.737-0.08-1.521-0.12-2.352-0.12
		c-0.545,0-0.993,0.017-1.344,0.048c-0.353,0.032-0.72,0.072-1.104,0.12C27.024,111.72,26.512,111.744,25.872,111.744z"/>
	<path fill="#0D4482" d="M51.695,125.28c-0.608,0-1.168-0.152-1.68-0.456c-0.512-0.305-0.768-0.809-0.768-1.512
		c0-0.576,0.136-1.08,0.408-1.512c0.271-0.432,0.664-0.648,1.176-0.648c0.352,0,0.696,0.048,1.032,0.144
		c0.336,0.096,0.631,0.144,0.888,0.144c0.192,0,0.36-0.041,0.504-0.12c0.144-0.081,0.28-0.216,0.408-0.408
		c0.352-0.576,0.76-1.296,1.224-2.16c0.463-0.864,0.943-1.84,1.44-2.928c0.496-1.088,0.967-2.24,1.416-3.456
		c0.096-0.288,0.144-0.656,0.144-1.104c0-0.256-0.017-0.504-0.048-0.744c-0.032-0.24-0.08-0.456-0.144-0.648l-5.568-14.064
		c-0.224-0.576-0.521-1.08-0.888-1.512c-0.369-0.432-0.792-0.711-1.272-0.84c-0.257-0.096-0.504-0.208-0.744-0.336
		c-0.24-0.127-0.36-0.304-0.36-0.528c0-0.192,0.12-0.312,0.36-0.36c0.24-0.048,0.439-0.072,0.6-0.072
		c0.64,0,1.111,0.017,1.416,0.048c0.304,0.032,0.591,0.072,0.864,0.12c0.271,0.048,0.68,0.072,1.224,0.072
		c0.576,0,1.008-0.024,1.296-0.072s0.592-0.088,0.912-0.12c0.319-0.031,0.799-0.048,1.44-0.048c0.192,0,0.4,0.041,0.624,0.12
		c0.224,0.08,0.336,0.216,0.336,0.408c0,0.224-0.168,0.44-0.504,0.648c-0.336,0.208-0.632,0.344-0.888,0.408
		c-0.32,0.096-0.56,0.264-0.72,0.504c-0.161,0.24-0.24,0.584-0.24,1.032c0,0.192,0.048,0.424,0.144,0.696
		c0.096,0.272,0.175,0.488,0.24,0.648l3.888,9.6c0.064,0.192,0.16,0.288,0.288,0.288c0.096,0,0.175-0.096,0.24-0.288l3.312-8.784
		c0.096-0.223,0.184-0.52,0.264-0.888c0.08-0.368,0.12-0.664,0.12-0.888c0-0.607-0.088-1.032-0.264-1.272
		c-0.176-0.24-0.408-0.424-0.696-0.552c-0.257-0.128-0.552-0.296-0.888-0.504c-0.336-0.208-0.504-0.424-0.504-0.648
		c0-0.192,0.12-0.328,0.36-0.408c0.24-0.08,0.439-0.12,0.6-0.12c0.448,0,0.904,0.041,1.368,0.12c0.463,0.08,1.144,0.12,2.04,0.12
		c0.607,0,1.047-0.024,1.32-0.072c0.271-0.048,0.504-0.088,0.696-0.12c0.192-0.031,0.464-0.048,0.816-0.048
		c0.16,0,0.36,0.024,0.6,0.072c0.24,0.048,0.36,0.168,0.36,0.36c0,0.224-0.12,0.4-0.36,0.528c-0.24,0.128-0.488,0.24-0.744,0.336
		c-0.48,0.128-0.992,0.504-1.536,1.128c-0.544,0.624-0.977,1.32-1.296,2.088l-6.528,15.552c-0.032,0.096-0.2,0.512-0.504,1.248
		c-0.304,0.736-0.68,1.647-1.128,2.736c-0.448,1.087-0.936,2.256-1.464,3.504c-0.528,1.248-1.032,2.448-1.512,3.6
		c-0.288,0.64-0.704,1.128-1.248,1.464C53.022,125.112,52.398,125.28,51.695,125.28z"/>
	<path fill="#0D4482" d="M79.679,112.272c-1.792,0-3.408-0.416-4.848-1.248c-1.44-0.832-2.584-1.975-3.432-3.432
		c-0.849-1.456-1.272-3.112-1.272-4.968c0-1.344,0.264-2.656,0.792-3.936c0.528-1.279,1.272-2.448,2.232-3.504s2.08-1.896,3.36-2.52
		c1.279-0.624,2.656-0.936,4.128-0.936c1.855,0,3.528,0.449,5.016,1.344c1.488,0.896,2.671,2.072,3.552,3.528
		c0.88,1.457,1.32,3.048,1.32,4.776c0,1.856-0.408,3.617-1.224,5.28c-0.816,1.664-2.024,3.016-3.624,4.056
		C84.078,111.751,82.079,112.272,79.679,112.272z M80.687,110.832c1.087,0,2.064-0.208,2.928-0.624
		c0.864-0.416,1.536-1.087,2.016-2.016c0.384-0.735,0.64-1.632,0.768-2.688c0.127-1.056,0.192-2.047,0.192-2.976
		c0-1.536-0.281-3.016-0.84-4.44c-0.561-1.423-1.344-2.592-2.352-3.504c-1.008-0.912-2.201-1.368-3.576-1.368
		c-0.864,0-1.64,0.136-2.328,0.408c-0.688,0.272-1.32,0.776-1.896,1.512c-0.64,0.8-1.056,1.776-1.248,2.928
		c-0.192,1.152-0.288,2.304-0.288,3.456c0,1.568,0.288,3.064,0.864,4.488s1.36,2.584,2.352,3.48
		C78.271,110.384,79.407,110.832,80.687,110.832z"/>
	<path fill="#0D4482" d="M109.774,112.512c-0.224,0-0.336-0.128-0.336-0.384c0-0.32,0.04-0.792,0.12-1.416
		c0.08-0.624,0.12-1.144,0.12-1.56c0-0.063,0-0.12,0-0.168c0-0.048,0-0.087,0-0.12c-1.248,1.216-2.504,2.088-3.768,2.616
		c-1.265,0.528-2.648,0.792-4.152,0.792c-1.024,0-1.952-0.216-2.784-0.648c-0.833-0.432-1.488-1.072-1.968-1.92
		c-0.48-0.848-0.72-1.896-0.72-3.144v-9.744c0-0.703-0.161-1.264-0.48-1.68c-0.32-0.416-0.848-0.768-1.584-1.056
		c-0.161-0.064-0.305-0.144-0.432-0.24c-0.128-0.096-0.192-0.272-0.192-0.528c0-0.288,0.072-0.48,0.216-0.576
		c0.144-0.096,0.312-0.16,0.504-0.192c1.088-0.063,1.928-0.151,2.52-0.264c0.592-0.112,1.336-0.28,2.232-0.504
		c0.096-0.031,0.168-0.048,0.216-0.048s0.104,0,0.168,0c0.352,0,0.511,0.224,0.48,0.672c-0.096,0.737-0.168,1.353-0.216,1.848
		c-0.048,0.497-0.072,1.112-0.072,1.848v9.36c0,0.768,0.192,1.48,0.576,2.136c0.384,0.656,0.888,1.192,1.512,1.608
		c0.624,0.416,1.272,0.624,1.944,0.624c0.832,0,1.56-0.048,2.184-0.144c0.624-0.096,1.24-0.368,1.848-0.816
		c0.352-0.256,0.8-0.672,1.344-1.248c0.543-0.576,0.816-1.36,0.816-2.352V96.48c0-0.672-0.2-1.176-0.6-1.512
		c-0.4-0.336-0.856-0.568-1.368-0.696c-0.512-0.127-0.928-0.192-1.248-0.192c-0.288,0-0.528-0.056-0.72-0.168
		c-0.192-0.112-0.288-0.328-0.288-0.648c0-0.288,0.104-0.48,0.312-0.576c0.208-0.096,0.439-0.144,0.696-0.144
		c0.991-0.031,1.815-0.072,2.472-0.12c0.656-0.048,1.248-0.128,1.776-0.24c0.528-0.112,1.08-0.248,1.656-0.408
		c0.063-0.031,0.144-0.055,0.24-0.072c0.096-0.016,0.176-0.024,0.24-0.024c0.416,0,0.624,0.176,0.624,0.528
		c0,0.032-0.008,0.088-0.024,0.168c-0.017,0.081-0.041,0.168-0.072,0.264c-0.032,0.096-0.072,0.368-0.12,0.816
		c-0.048,0.449-0.096,0.912-0.144,1.392c-0.048,0.48-0.072,0.848-0.072,1.104v11.088c0,0.864,0.088,1.48,0.264,1.848
		c0.175,0.368,0.375,0.552,0.6,0.552c0.255,0,0.631-0.024,1.128-0.072c0.496-0.048,0.855-0.072,1.08-0.072
		c0.16,0,0.319,0.032,0.48,0.096c0.16,0.064,0.24,0.24,0.24,0.528c0,0.257-0.064,0.425-0.192,0.504
		c-0.128,0.08-0.288,0.136-0.48,0.168c-1.248,0.16-2.32,0.4-3.216,0.72c-0.896,0.32-1.697,0.624-2.4,0.912
		c-0.096,0.031-0.24,0.088-0.432,0.168C110.11,112.471,109.934,112.512,109.774,112.512z"/>
	<path fill="#0D4482" d="M119.327,118.656c-0.576,0-0.864-0.176-0.864-0.528c0-0.128,0.056-0.248,0.168-0.36
		c0.112-0.112,0.28-0.185,0.504-0.216c0.704-0.161,1.408-0.432,2.112-0.816c0.703-0.384,1.296-0.936,1.776-1.656
		s0.72-1.64,0.72-2.76c0-0.384-0.176-0.824-0.528-1.32c-0.353-0.496-0.8-0.76-1.344-0.792c-0.705-0.063-1.256-0.288-1.656-0.672
		c-0.4-0.384-0.6-0.832-0.6-1.344c0-0.64,0.264-1.167,0.792-1.584c0.528-0.416,1.144-0.624,1.848-0.624
		c1.152,0,2.104,0.44,2.856,1.32c0.751,0.88,1.128,1.992,1.128,3.336c0,1.216-0.24,2.312-0.72,3.288
		c-0.48,0.976-1.088,1.815-1.824,2.52c-0.736,0.703-1.496,1.248-2.28,1.632C120.63,118.464,119.934,118.656,119.327,118.656z"/>
	<path fill="#0D4482" d="M140.014,111.744c-0.161,0-0.36-0.024-0.6-0.072c-0.24-0.048-0.36-0.168-0.36-0.36
		c0-0.256,0.12-0.439,0.36-0.552c0.24-0.112,0.487-0.216,0.744-0.312c0.48-0.16,0.943-0.344,1.392-0.552
		c0.448-0.208,0.672-0.631,0.672-1.272V84.432c0-0.928-0.168-1.704-0.504-2.328s-0.905-1.016-1.704-1.176
		c-0.256-0.064-0.384-0.271-0.384-0.624c0-0.32,0.112-0.512,0.336-0.576c0.832-0.192,1.552-0.392,2.16-0.6
		c0.607-0.208,1.176-0.423,1.704-0.648c0.528-0.223,1.049-0.432,1.561-0.624c0.127-0.063,0.224-0.096,0.288-0.096
		c0.063,0,0.12,0.041,0.168,0.12c0.048,0.081,0.071,0.152,0.071,0.216c0,0.288-0.056,0.904-0.168,1.848
		c-0.111,0.944-0.168,2.504-0.168,4.68v24c0,0.641,0.225,1.064,0.672,1.272c0.448,0.208,0.912,0.393,1.393,0.552
		c0.256,0.096,0.504,0.2,0.744,0.312c0.24,0.112,0.359,0.296,0.359,0.552c0,0.192-0.119,0.312-0.359,0.36
		c-0.24,0.048-0.44,0.072-0.6,0.072c-0.609,0-1.098-0.024-1.465-0.072c-0.367-0.048-0.72-0.087-1.056-0.12
		c-0.336-0.032-0.792-0.048-1.368-0.048c-0.544,0-0.992,0.017-1.344,0.048c-0.353,0.032-0.704,0.072-1.056,0.12
		C141.149,111.72,140.654,111.744,140.014,111.744z"/>
	<path fill="#0D4482" d="M159.886,112.32c-1.761,0-3.297-0.432-4.608-1.296c-1.313-0.864-2.337-2.088-3.072-3.672
		c-0.736-1.584-1.104-3.416-1.104-5.496c0-1.855,0.424-3.543,1.272-5.064c0.848-1.52,1.976-2.743,3.384-3.672
		c1.408-0.928,2.943-1.392,4.608-1.392c1.279,0,2.415,0.256,3.407,0.768c0.992,0.512,1.769,1.224,2.328,2.136
		c0.561,0.912,0.84,1.96,0.84,3.144c0,0.993-0.479,1.488-1.439,1.488h-10.128c-0.448,0-0.761,0.12-0.937,0.36
		c-0.176,0.24-0.264,0.712-0.264,1.416c0,1.536,0.336,2.937,1.008,4.2c0.672,1.264,1.568,2.272,2.688,3.024
		c1.12,0.752,2.353,1.128,3.696,1.128c0.959,0,1.831-0.184,2.615-0.552c0.784-0.368,1.48-0.904,2.088-1.608
		c0.128-0.16,0.225-0.264,0.289-0.312c0.063-0.048,0.144-0.072,0.24-0.072c0.255,0,0.383,0.161,0.383,0.48
		c0,0.608-0.287,1.28-0.863,2.016c-0.48,0.608-1.057,1.136-1.729,1.584c-0.672,0.448-1.408,0.792-2.207,1.032
		C161.582,112.2,160.75,112.32,159.886,112.32z M155.47,97.776h4.367c0.768,0,1.424-0.016,1.969-0.048
		c0.543-0.031,1.071-0.096,1.584-0.192c0.159-0.032,0.264-0.136,0.312-0.312c0.048-0.175,0.071-0.424,0.071-0.744
		c0-0.928-0.407-1.72-1.223-2.376c-0.816-0.655-1.785-0.984-2.904-0.984c-0.736,0-1.473,0.216-2.209,0.648s-1.344,0.968-1.823,1.608
		c-0.479,0.641-0.72,1.28-0.72,1.92C154.894,97.616,155.085,97.776,155.47,97.776z"/>
	<path fill="#0D4482" d="M177.453,112.272c-1.567,0-2.791-0.48-3.672-1.44c-0.88-0.96-1.319-2.383-1.319-4.272V95.424
		c0-0.256-0.097-0.44-0.288-0.552c-0.191-0.112-0.608-0.168-1.248-0.168h-0.288c-0.16,0-0.296-0.104-0.407-0.312
		c-0.113-0.208-0.168-0.424-0.168-0.648c0-0.064,0.047-0.16,0.144-0.288c0.096-0.127,0.159-0.208,0.192-0.24
		c0.639-0.448,1.224-0.896,1.752-1.344c0.527-0.448,1.008-0.888,1.439-1.32c0.432-0.432,0.792-0.824,1.08-1.176
		c0.16-0.16,0.295-0.295,0.408-0.408c0.111-0.112,0.247-0.168,0.408-0.168c0.159,0,0.312,0.032,0.455,0.096
		c0.145,0.064,0.199,0.208,0.168,0.432l-0.24,2.16c-0.031,0.353,0.049,0.592,0.24,0.72c0.192,0.128,0.496,0.192,0.912,0.192h5.473
		c0.127,0,0.24,0.104,0.336,0.312c0.096,0.208,0.144,0.456,0.144,0.744s-0.048,0.568-0.144,0.84
		c-0.096,0.272-0.209,0.408-0.336,0.408h-4.752c-0.801,0-1.32,0.064-1.561,0.192c-0.24,0.128-0.359,0.512-0.359,1.152v9.456
		c0,1.28,0.271,2.289,0.815,3.024c0.544,0.736,1.327,1.104,2.353,1.104c0.928,0,1.647-0.072,2.16-0.216
		c0.511-0.144,0.975-0.36,1.392-0.648c0.063-0.063,0.128-0.096,0.192-0.096c0.127,0,0.215,0.072,0.264,0.216
		c0.048,0.144,0.072,0.296,0.072,0.456c0,0.16-0.265,0.48-0.793,0.96c-0.527,0.48-1.216,0.928-2.063,1.344
		C179.365,112.063,178.445,112.272,177.453,112.272z"/>
	<path fill="#0D4482" d="M186.91,90.288c-0.129,0-0.217-0.127-0.265-0.384c-0.048-0.256-0.071-0.496-0.071-0.72
		c0.031-0.512,0.047-0.992,0.047-1.44c0-0.448,0-0.88,0-1.296c0-0.576-0.016-1.224-0.047-1.944c-0.033-0.72-0.081-1.608-0.145-2.664
		c0-0.352,0.104-0.68,0.313-0.984c0.207-0.304,0.407-0.535,0.6-0.696c0.384-0.319,0.728-0.568,1.031-0.744
		c0.305-0.175,0.648-0.264,1.033-0.264c0.255,0,0.432,0.152,0.527,0.456c0.096,0.305,0.145,0.665,0.145,1.08
		c0,0.833-0.137,1.792-0.408,2.88c-0.272,1.088-0.584,2.136-0.937,3.144c-0.353,1.008-0.656,1.8-0.911,2.376
		c-0.129,0.288-0.281,0.561-0.457,0.816C187.189,90.16,187.037,90.288,186.91,90.288z"/>
	<path fill="#0D4482" d="M199.964,112.272c-0.991,0-1.919-0.152-2.783-0.456c-0.863-0.304-1.601-0.728-2.208-1.272
		c-0.161-0.352-0.28-0.943-0.36-1.776c-0.08-0.832-0.137-1.52-0.168-2.064c0-0.288,0.208-0.432,0.625-0.432
		c0.127,0,0.247,0.024,0.359,0.072c0.111,0.048,0.184,0.136,0.216,0.264c0.415,1.568,1.08,2.688,1.992,3.36
		c0.912,0.672,1.831,1.008,2.761,1.008c0.928,0,1.719-0.312,2.375-0.936s0.984-1.399,0.984-2.328c0-0.864-0.289-1.608-0.863-2.232
		c-0.576-0.624-1.584-1.384-3.025-2.28c-1.088-0.672-1.967-1.312-2.64-1.92c-0.672-0.608-1.16-1.231-1.464-1.872
		c-0.305-0.64-0.456-1.36-0.456-2.16c0-1.024,0.24-1.952,0.72-2.784c0.48-0.832,1.2-1.495,2.16-1.992
		c0.961-0.496,2.16-0.744,3.6-0.744c0.961,0,1.76,0.096,2.4,0.288s1.119,0.4,1.439,0.624c0.256,0.353,0.473,0.904,0.648,1.656
		c0.176,0.752,0.264,1.464,0.264,2.136c0,0.224-0.16,0.336-0.479,0.336c-0.193,0-0.377-0.04-0.553-0.12
		c-0.176-0.08-0.297-0.184-0.359-0.312c-0.416-1.056-0.938-1.864-1.561-2.424c-0.625-0.56-1.4-0.84-2.328-0.84
		c-0.801,0-1.512,0.24-2.137,0.72c-0.623,0.48-0.936,1.185-0.936,2.112c0,0.736,0.232,1.392,0.696,1.968s1.335,1.232,2.616,1.968
		c1.855,1.056,3.24,2.04,4.152,2.952s1.367,2.12,1.367,3.624c0,1.728-0.656,3.137-1.969,4.224S202.044,112.272,199.964,112.272z"/>
	<path fill="#0D4482" d="M227.228,112.272c-1.568,0-2.793-0.48-3.672-1.44c-0.881-0.96-1.32-2.383-1.32-4.272V95.424
		c0-0.256-0.096-0.44-0.287-0.552c-0.193-0.112-0.609-0.168-1.248-0.168h-0.289c-0.16,0-0.295-0.104-0.408-0.312
		c-0.111-0.208-0.168-0.424-0.168-0.648c0-0.064,0.049-0.16,0.145-0.288c0.096-0.127,0.16-0.208,0.191-0.24
		c0.641-0.448,1.225-0.896,1.752-1.344c0.529-0.448,1.01-0.888,1.441-1.32c0.432-0.432,0.791-0.824,1.08-1.176
		c0.158-0.16,0.295-0.295,0.408-0.408c0.111-0.112,0.246-0.168,0.406-0.168s0.313,0.032,0.457,0.096
		c0.145,0.064,0.199,0.208,0.168,0.432l-0.24,2.16c-0.031,0.353,0.049,0.592,0.24,0.72c0.191,0.128,0.496,0.192,0.912,0.192h5.473
		c0.127,0,0.238,0.104,0.336,0.312c0.096,0.208,0.143,0.456,0.143,0.744s-0.047,0.568-0.143,0.84
		c-0.098,0.272-0.209,0.408-0.336,0.408h-4.752c-0.801,0-1.32,0.064-1.561,0.192c-0.24,0.128-0.359,0.512-0.359,1.152v9.456
		c0,1.28,0.271,2.289,0.814,3.024c0.545,0.736,1.328,1.104,2.354,1.104c0.928,0,1.646-0.072,2.158-0.216s0.977-0.36,1.393-0.648
		c0.064-0.063,0.127-0.096,0.191-0.096c0.129,0,0.217,0.072,0.266,0.216c0.047,0.144,0.072,0.296,0.072,0.456
		c0,0.16-0.266,0.48-0.793,0.96s-1.217,0.928-2.064,1.344S228.22,112.272,227.228,112.272z"/>
	<path fill="#0D4482" d="M235.58,111.744c-0.318,0-0.559-0.041-0.719-0.12s-0.24-0.216-0.24-0.408c0-0.256,0.096-0.424,0.287-0.504
		c0.193-0.079,0.465-0.168,0.816-0.264c0.607-0.16,1.064-0.392,1.369-0.696c0.303-0.304,0.455-0.679,0.455-1.128v-10.32
		c0-0.864-0.129-1.616-0.385-2.256s-0.783-1.04-1.584-1.2c-0.127-0.032-0.238-0.112-0.336-0.24
		c-0.096-0.127-0.143-0.255-0.143-0.384c0-0.319,0.143-0.512,0.432-0.576c0.832-0.255,1.703-0.631,2.615-1.128
		c0.912-0.496,1.625-0.904,2.137-1.224c0.191-0.127,0.344-0.216,0.455-0.264c0.113-0.048,0.201-0.072,0.266-0.072
		c0.158,0,0.238,0.113,0.238,0.336c0,0.096-0.008,0.336-0.023,0.72s-0.031,0.833-0.047,1.344c-0.018,0.513-0.041,1.025-0.072,1.536
		c0,0.064,0.031,0.096,0.096,0.096c0.512-0.64,1.08-1.2,1.703-1.68c0.625-0.48,1.264-0.864,1.92-1.152s1.289-0.432,1.896-0.432
		c0.672,0,1.225,0.144,1.656,0.432s0.648,0.656,0.648,1.104c0,0.32-0.09,0.672-0.264,1.056c-0.178,0.384-0.408,0.72-0.697,1.008
		c-0.287,0.288-0.592,0.432-0.912,0.432c-0.191,0-0.4-0.04-0.623-0.12c-0.225-0.08-0.465-0.184-0.721-0.312
		c-0.256-0.096-0.512-0.192-0.768-0.288c-0.256-0.096-0.512-0.144-0.768-0.144c-0.768,0-1.512,0.272-2.232,0.816
		c-0.721,0.545-1.08,1.616-1.08,3.216v9.696c0,0.417,0.223,0.761,0.672,1.032c0.447,0.272,1.072,0.536,1.873,0.792
		c0.352,0.096,0.623,0.192,0.814,0.288c0.193,0.096,0.289,0.256,0.289,0.48c0,0.352-0.32,0.528-0.961,0.528
		c-0.959,0-1.688-0.041-2.184-0.12s-1.16-0.12-1.992-0.12c-0.545,0-0.984,0.017-1.32,0.048c-0.336,0.032-0.688,0.072-1.055,0.12
		C236.724,111.72,236.22,111.744,235.58,111.744z"/>
	<path fill="#0D4482" d="M252.332,125.28c-0.607,0-1.168-0.152-1.68-0.456c-0.512-0.305-0.768-0.809-0.768-1.512
		c0-0.576,0.135-1.08,0.408-1.512c0.271-0.432,0.662-0.648,1.176-0.648c0.352,0,0.695,0.048,1.031,0.144
		c0.336,0.096,0.631,0.144,0.889,0.144c0.191,0,0.359-0.041,0.504-0.12c0.145-0.081,0.279-0.216,0.408-0.408
		c0.352-0.576,0.76-1.296,1.223-2.16c0.465-0.864,0.943-1.84,1.441-2.928c0.496-1.088,0.967-2.24,1.416-3.456
		c0.096-0.288,0.143-0.656,0.143-1.104c0-0.256-0.016-0.504-0.047-0.744c-0.033-0.24-0.08-0.456-0.145-0.648l-5.568-14.064
		c-0.225-0.576-0.52-1.08-0.887-1.512c-0.369-0.432-0.793-0.711-1.273-0.84c-0.256-0.096-0.504-0.208-0.744-0.336
		c-0.238-0.127-0.359-0.304-0.359-0.528c0-0.192,0.121-0.312,0.359-0.36c0.24-0.048,0.439-0.072,0.602-0.072
		c0.639,0,1.111,0.017,1.416,0.048c0.303,0.032,0.592,0.072,0.863,0.12s0.68,0.072,1.225,0.072c0.576,0,1.008-0.024,1.295-0.072
		c0.289-0.048,0.592-0.088,0.912-0.12c0.32-0.031,0.801-0.048,1.439-0.048c0.193,0,0.4,0.041,0.625,0.12
		c0.223,0.08,0.336,0.216,0.336,0.408c0,0.224-0.168,0.44-0.504,0.648c-0.336,0.208-0.633,0.344-0.889,0.408
		c-0.32,0.096-0.561,0.264-0.719,0.504c-0.162,0.24-0.24,0.584-0.24,1.032c0,0.192,0.047,0.424,0.143,0.696
		c0.098,0.272,0.176,0.488,0.24,0.648l3.889,9.6c0.064,0.192,0.16,0.288,0.287,0.288c0.098,0,0.176-0.096,0.24-0.288l3.313-8.784
		c0.096-0.223,0.184-0.52,0.264-0.888c0.08-0.368,0.121-0.664,0.121-0.888c0-0.607-0.09-1.032-0.264-1.272
		c-0.178-0.24-0.408-0.424-0.697-0.552c-0.256-0.128-0.551-0.296-0.887-0.504c-0.336-0.208-0.506-0.424-0.506-0.648
		c0-0.192,0.121-0.328,0.361-0.408c0.24-0.08,0.439-0.12,0.6-0.12c0.447,0,0.904,0.041,1.367,0.12c0.465,0.08,1.145,0.12,2.041,0.12
		c0.607,0,1.047-0.024,1.32-0.072c0.271-0.048,0.504-0.088,0.695-0.12c0.191-0.031,0.463-0.048,0.816-0.048
		c0.16,0,0.359,0.024,0.6,0.072c0.24,0.048,0.359,0.168,0.359,0.36c0,0.224-0.119,0.4-0.359,0.528
		c-0.24,0.128-0.488,0.24-0.744,0.336c-0.48,0.128-0.992,0.504-1.535,1.128c-0.545,0.624-0.977,1.32-1.297,2.088l-6.527,15.552
		c-0.033,0.096-0.201,0.512-0.504,1.248c-0.305,0.736-0.68,1.647-1.129,2.736c-0.447,1.087-0.936,2.256-1.463,3.504
		c-0.529,1.248-1.033,2.448-1.512,3.6c-0.289,0.64-0.705,1.128-1.248,1.464C253.66,125.112,253.035,125.28,252.332,125.28z"/>
	<path fill="#0D4482" d="M9.072,184.272c-1.568,0-2.792-0.479-3.672-1.44c-0.88-0.959-1.32-2.383-1.32-4.271v-11.136
		c0-0.256-0.096-0.44-0.288-0.552c-0.192-0.112-0.608-0.168-1.248-0.168H2.256c-0.16,0-0.296-0.104-0.408-0.313
		c-0.113-0.207-0.168-0.424-0.168-0.648c0-0.063,0.048-0.159,0.144-0.287c0.096-0.128,0.16-0.208,0.192-0.24
		c0.64-0.447,1.224-0.896,1.752-1.344s1.008-0.889,1.44-1.32s0.792-0.824,1.08-1.176c0.16-0.16,0.295-0.296,0.408-0.408
		c0.112-0.111,0.248-0.168,0.408-0.168c0.16,0,0.312,0.032,0.456,0.096c0.144,0.064,0.199,0.209,0.168,0.432l-0.24,2.16
		c-0.032,0.354,0.048,0.593,0.24,0.721S8.224,164.4,8.64,164.4h5.472c0.127,0,0.24,0.104,0.336,0.313
		c0.096,0.208,0.144,0.455,0.144,0.744c0,0.287-0.048,0.568-0.144,0.84c-0.096,0.271-0.209,0.408-0.336,0.408H9.36
		c-0.8,0-1.32,0.064-1.56,0.191c-0.24,0.129-0.36,0.512-0.36,1.152v9.455c0,1.281,0.271,2.289,0.816,3.025
		c0.544,0.736,1.328,1.104,2.352,1.104c0.928,0,1.648-0.072,2.16-0.217c0.511-0.144,0.976-0.359,1.392-0.647
		c0.063-0.063,0.127-0.097,0.192-0.097c0.127,0,0.216,0.072,0.264,0.217c0.048,0.145,0.072,0.297,0.072,0.456
		c0,0.16-0.264,0.479-0.792,0.96s-1.216,0.928-2.064,1.344C10.984,184.064,10.063,184.272,9.072,184.272z"/>
	<path fill="#0D4482" d="M16.944,183.743c-0.641,0-0.96-0.176-0.96-0.527c0-0.288,0.367-0.544,1.104-0.768
		c0.48-0.16,0.936-0.368,1.368-0.625c0.432-0.256,0.664-0.703,0.696-1.344v-24.048c0-0.864-0.144-1.624-0.432-2.28
		c-0.288-0.655-0.848-1.047-1.68-1.176c-0.288-0.064-0.432-0.288-0.432-0.672c0-0.288,0.127-0.48,0.384-0.576
		c0.448-0.16,0.984-0.336,1.608-0.528s1.272-0.408,1.944-0.648c0.672-0.24,1.264-0.472,1.776-0.696
		c0.127-0.063,0.224-0.096,0.288-0.096c0.096,0,0.175,0.032,0.24,0.096c0.064,0.064,0.096,0.144,0.096,0.24
		c0,0.192-0.041,0.464-0.12,0.816c-0.08,0.353-0.152,0.96-0.216,1.824c-0.064,0.864-0.096,2.16-0.096,3.889v8.352
		c0,0.512,0.024,0.881,0.072,1.104c0.048,0.225,0.136,0.449,0.264,0.672c0.512-0.383,1.144-0.807,1.896-1.271
		c0.751-0.463,1.592-0.871,2.52-1.225c0.928-0.352,1.888-0.527,2.88-0.527c1.568,0,2.872,0.617,3.912,1.848
		c1.04,1.232,1.56,2.793,1.56,4.68v10.08c0,0.641,0.208,1.113,0.624,1.416c0.416,0.305,0.864,0.537,1.344,0.697
		c0.352,0.096,0.624,0.199,0.816,0.312s0.288,0.264,0.288,0.456c0,0.352-0.32,0.527-0.96,0.527s-1.128-0.023-1.464-0.072
		c-0.336-0.047-0.656-0.087-0.96-0.119c-0.304-0.031-0.744-0.049-1.32-0.049c-0.544,0-0.977,0.018-1.296,0.049
		c-0.32,0.032-0.648,0.072-0.984,0.119c-0.336,0.049-0.824,0.072-1.464,0.072c-0.641,0-0.96-0.176-0.96-0.527
		c0-0.224,0.096-0.376,0.288-0.456c0.192-0.079,0.463-0.185,0.816-0.312c0.48-0.16,0.912-0.393,1.296-0.697
		c0.384-0.303,0.576-0.775,0.576-1.416v-9.791c0-0.8-0.232-1.528-0.696-2.185c-0.464-0.655-1.032-1.176-1.704-1.56
		c-0.672-0.385-1.361-0.576-2.064-0.576c-0.608,0-1.313,0.088-2.112,0.264c-0.8,0.177-1.424,0.44-1.872,0.793
		c-0.512,0.416-0.856,0.848-1.032,1.295c-0.176,0.449-0.264,1.169-0.264,2.16v9.744c0.032,0.641,0.232,1.088,0.6,1.344
		c0.368,0.257,0.792,0.465,1.272,0.625c0.352,0.096,0.616,0.199,0.792,0.312c0.175,0.112,0.264,0.264,0.264,0.456
		c0,0.352-0.32,0.527-0.96,0.527c-0.641,0-1.121-0.023-1.44-0.072c-0.32-0.047-0.624-0.087-0.912-0.119
		c-0.288-0.031-0.72-0.049-1.296-0.049c-0.544,0-0.984,0.018-1.32,0.049c-0.336,0.032-0.688,0.072-1.056,0.119
		C18.087,183.72,17.583,183.743,16.944,183.743z"/>
	<path fill="#0D4482" d="M50.016,184.32c-1.76,0-3.296-0.432-4.608-1.296c-1.313-0.864-2.336-2.088-3.072-3.672
		c-0.736-1.584-1.104-3.415-1.104-5.496c0-1.855,0.424-3.544,1.272-5.063c0.848-1.52,1.976-2.744,3.384-3.672
		c1.408-0.928,2.943-1.393,4.608-1.393c1.279,0,2.416,0.256,3.408,0.768c0.992,0.513,1.768,1.225,2.328,2.137
		c0.56,0.912,0.84,1.961,0.84,3.144c0,0.993-0.48,1.488-1.44,1.488H45.504c-0.448,0-0.76,0.12-0.936,0.36
		c-0.176,0.24-0.264,0.712-0.264,1.416c0,1.535,0.336,2.936,1.008,4.199c0.672,1.265,1.567,2.273,2.688,3.024
		c1.12,0.752,2.352,1.128,3.696,1.128c0.96,0,1.832-0.184,2.616-0.552c0.784-0.368,1.479-0.903,2.088-1.608
		c0.127-0.16,0.224-0.264,0.288-0.313c0.064-0.047,0.144-0.071,0.24-0.071c0.255,0,0.384,0.161,0.384,0.479
		c0,0.609-0.288,1.281-0.864,2.017c-0.48,0.608-1.056,1.136-1.728,1.584c-0.672,0.448-1.409,0.792-2.208,1.032
		C51.712,184.2,50.88,184.32,50.016,184.32z M45.6,169.776h4.368c0.768,0,1.424-0.016,1.968-0.048
		c0.544-0.031,1.072-0.096,1.584-0.191c0.16-0.032,0.264-0.137,0.312-0.313s0.072-0.424,0.072-0.744c0-0.928-0.408-1.72-1.224-2.376
		c-0.816-0.655-1.785-0.983-2.904-0.983c-0.736,0-1.472,0.215-2.208,0.647c-0.736,0.433-1.344,0.968-1.824,1.608
		s-0.72,1.279-0.72,1.92C45.024,169.616,45.216,169.776,45.6,169.776z"/>
	<path fill="#0D4482" d="M78.335,184.32c-1.601,0-3.048-0.408-4.344-1.224s-2.32-1.937-3.072-3.36
		c-0.752-1.424-1.128-3.016-1.128-4.775c0-2.08,0.456-3.968,1.368-5.664c0.912-1.695,2.136-3.049,3.672-4.057
		c1.536-1.008,3.231-1.512,5.088-1.512c2.08,0,3.904,0.561,5.472,1.68c0.384,0.289,0.576,0.593,0.576,0.912
		c0,0.257-0.112,0.545-0.336,0.864c-0.224,0.32-0.497,0.585-0.816,0.792c-0.32,0.209-0.624,0.313-0.912,0.313
		c-0.161,0-0.32-0.057-0.48-0.168c-0.161-0.112-0.336-0.232-0.528-0.36c-0.705-0.544-1.488-1.056-2.352-1.536
		c-0.864-0.48-1.584-0.721-2.16-0.721c-1.568,0-2.84,0.729-3.816,2.185c-0.977,1.456-1.464,3.368-1.464,5.736
		c0,1.505,0.328,2.864,0.984,4.079c0.655,1.217,1.536,2.178,2.64,2.881c1.104,0.704,2.328,1.056,3.672,1.056
		c0.928,0,1.728-0.151,2.4-0.456c0.672-0.304,1.392-0.84,2.16-1.607c0.063-0.064,0.144-0.121,0.24-0.168
		c0.096-0.049,0.176-0.072,0.24-0.072c0.352,0,0.528,0.225,0.528,0.672c0,0.191-0.056,0.408-0.168,0.648
		c-0.112,0.24-0.296,0.52-0.552,0.84c-0.513,0.641-1.121,1.192-1.824,1.656c-0.704,0.464-1.48,0.807-2.328,1.031
		C80.247,184.207,79.327,184.32,78.335,184.32z"/>
	<path fill="#0D4482" d="M89.52,183.743c-0.641,0-0.96-0.176-0.96-0.527c0-0.288,0.367-0.544,1.104-0.768
		c0.48-0.16,0.936-0.368,1.368-0.625c0.432-0.256,0.664-0.703,0.696-1.344v-24.048c0-0.864-0.144-1.624-0.432-2.28
		c-0.288-0.655-0.848-1.047-1.68-1.176c-0.288-0.064-0.432-0.288-0.432-0.672c0-0.288,0.127-0.48,0.384-0.576
		c0.448-0.16,0.984-0.336,1.608-0.528s1.272-0.408,1.944-0.648c0.672-0.24,1.264-0.472,1.776-0.696
		c0.127-0.063,0.224-0.096,0.288-0.096c0.096,0,0.175,0.032,0.24,0.096c0.064,0.064,0.096,0.144,0.096,0.24
		c0,0.192-0.041,0.464-0.12,0.816c-0.08,0.353-0.152,0.96-0.216,1.824c-0.064,0.864-0.096,2.16-0.096,3.889v8.352
		c0,0.512,0.024,0.881,0.072,1.104c0.048,0.225,0.136,0.449,0.264,0.672c0.512-0.383,1.144-0.807,1.896-1.271
		c0.751-0.463,1.592-0.871,2.52-1.225c0.928-0.352,1.888-0.527,2.88-0.527c1.568,0,2.872,0.617,3.912,1.848
		c1.04,1.232,1.56,2.793,1.56,4.68v10.08c0,0.641,0.208,1.113,0.624,1.416c0.416,0.305,0.864,0.537,1.344,0.697
		c0.352,0.096,0.624,0.199,0.816,0.312s0.288,0.264,0.288,0.456c0,0.352-0.32,0.527-0.96,0.527s-1.128-0.023-1.464-0.072
		c-0.336-0.047-0.656-0.087-0.96-0.119c-0.304-0.031-0.744-0.049-1.32-0.049c-0.544,0-0.977,0.018-1.296,0.049
		c-0.32,0.032-0.648,0.072-0.984,0.119c-0.336,0.049-0.824,0.072-1.464,0.072c-0.641,0-0.96-0.176-0.96-0.527
		c0-0.224,0.096-0.376,0.288-0.456c0.192-0.079,0.463-0.185,0.816-0.312c0.48-0.16,0.912-0.393,1.296-0.697
		c0.384-0.303,0.576-0.775,0.576-1.416v-9.791c0-0.8-0.232-1.528-0.696-2.185c-0.464-0.655-1.032-1.176-1.704-1.56
		c-0.672-0.385-1.361-0.576-2.064-0.576c-0.608,0-1.313,0.088-2.112,0.264c-0.8,0.177-1.424,0.44-1.872,0.793
		c-0.512,0.416-0.856,0.848-1.032,1.295c-0.176,0.449-0.264,1.169-0.264,2.16v9.744c0.032,0.641,0.232,1.088,0.6,1.344
		c0.368,0.257,0.792,0.465,1.272,0.625c0.352,0.096,0.616,0.199,0.792,0.312c0.175,0.112,0.264,0.264,0.264,0.456
		c0,0.352-0.32,0.527-0.96,0.527c-0.641,0-1.121-0.023-1.44-0.072c-0.32-0.047-0.624-0.087-0.912-0.119
		c-0.288-0.031-0.72-0.049-1.296-0.049c-0.544,0-0.984,0.018-1.32,0.049c-0.336,0.032-0.688,0.072-1.056,0.119
		C90.663,183.72,90.159,183.743,89.52,183.743z"/>
	<path fill="#0D4482" d="M117.983,184.272c-0.576,0-1.161-0.224-1.752-0.672c-0.592-0.448-1.088-0.991-1.488-1.632
		c-0.4-0.641-0.6-1.248-0.6-1.824c0-1.023,0.271-1.824,0.816-2.4c0.544-0.576,1.408-1.104,2.592-1.584l4.896-2.016
		c0.64-0.256,1.016-0.48,1.128-0.672c0.112-0.191,0.184-0.607,0.216-1.248l0.096-3.072c0.031-0.832-0.2-1.551-0.696-2.16
		c-0.497-0.607-1.208-0.912-2.136-0.912c-0.48,0-0.96,0.08-1.44,0.24s-0.88,0.369-1.2,0.625c-0.192,0.127-0.32,0.319-0.384,0.575
		c-0.064,0.257-0.096,0.528-0.096,0.815c0,0.129,0.008,0.273,0.024,0.433c0.016,0.161,0.024,0.305,0.024,0.433
		c0,0.16-0.201,0.376-0.6,0.647c-0.4,0.272-0.848,0.513-1.344,0.72c-0.497,0.209-0.904,0.313-1.224,0.313
		c-0.161,0-0.288-0.04-0.384-0.12c-0.096-0.079-0.144-0.185-0.144-0.312c0-0.512,0.168-1.064,0.504-1.656s0.808-1.145,1.416-1.656
		c0.736-0.672,1.536-1.264,2.4-1.776c0.864-0.511,1.711-0.911,2.544-1.2c0.832-0.287,1.567-0.432,2.208-0.432
		c1.152,0,2.104,0.408,2.856,1.225c0.751,0.815,1.111,1.832,1.08,3.047l-0.24,11.521c-0.032,0.672,0.12,1.217,0.456,1.632
		c0.336,0.416,0.76,0.624,1.272,0.624c0.799,0,1.392-0.175,1.776-0.528c0.16-0.159,0.288-0.239,0.384-0.239
		c0.16,0,0.288,0.048,0.384,0.144s0.144,0.225,0.144,0.385c0,0.352-0.176,0.703-0.528,1.056c-0.512,0.513-1.064,0.92-1.656,1.224
		c-0.592,0.304-1.145,0.456-1.656,0.456c-1.472,0-2.64-0.831-3.504-2.496h-0.144c-1.056,0.864-2.064,1.497-3.024,1.896
		C119.999,184.072,119.007,184.272,117.983,184.272z M120.239,181.968c0.64,0,1.184-0.104,1.632-0.313
		c0.448-0.207,0.848-0.487,1.2-0.84c0.16-0.16,0.295-0.375,0.408-0.648c0.112-0.271,0.184-0.711,0.216-1.319l0.096-2.353
		c0.032-0.352,0.016-0.607-0.048-0.768c-0.064-0.16-0.192-0.24-0.384-0.24c-0.064,0-0.176,0.017-0.336,0.049
		c-0.16,0.031-0.368,0.096-0.624,0.191c-1.697,0.608-2.873,1.24-3.528,1.896c-0.656,0.656-0.984,1.256-0.984,1.8
		c0,0.833,0.248,1.464,0.744,1.896C119.127,181.751,119.663,181.968,120.239,181.968z"/>
	<path fill="#0D4482" d="M133.391,183.743c-0.161,0-0.36-0.023-0.6-0.072c-0.24-0.047-0.36-0.168-0.36-0.359
		c0-0.256,0.12-0.439,0.36-0.552c0.24-0.112,0.487-0.216,0.744-0.312c0.48-0.16,0.943-0.344,1.392-0.553
		c0.448-0.207,0.672-0.631,0.672-1.271v-24.192c0-0.928-0.168-1.704-0.504-2.328s-0.905-1.016-1.704-1.176
		c-0.256-0.063-0.384-0.271-0.384-0.624c0-0.32,0.112-0.512,0.336-0.576c0.832-0.192,1.552-0.392,2.16-0.6
		c0.607-0.208,1.176-0.423,1.704-0.648c0.528-0.223,1.048-0.432,1.56-0.624c0.127-0.063,0.224-0.096,0.288-0.096
		c0.063,0,0.12,0.041,0.168,0.12c0.048,0.081,0.072,0.152,0.072,0.216c0,0.288-0.056,0.904-0.168,1.849
		c-0.112,0.943-0.168,2.504-0.168,4.68v24c0,0.641,0.224,1.064,0.672,1.271c0.448,0.209,0.912,0.393,1.392,0.553
		c0.256,0.096,0.504,0.199,0.744,0.312c0.24,0.112,0.36,0.296,0.36,0.552c0,0.191-0.12,0.313-0.36,0.359
		c-0.24,0.049-0.44,0.072-0.6,0.072c-0.608,0-1.097-0.023-1.464-0.072c-0.368-0.047-0.72-0.087-1.056-0.119
		c-0.336-0.031-0.792-0.049-1.368-0.049c-0.544,0-0.992,0.018-1.344,0.049c-0.353,0.032-0.704,0.072-1.056,0.119
		C134.526,183.72,134.03,183.743,133.391,183.743z"/>
	<path fill="#0D4482" d="M144.91,183.743c-0.16,0-0.359-0.023-0.6-0.072c-0.24-0.047-0.359-0.168-0.359-0.359
		c0-0.256,0.119-0.439,0.359-0.552s0.487-0.216,0.744-0.312c0.48-0.16,0.943-0.344,1.393-0.553c0.447-0.207,0.672-0.631,0.672-1.271
		v-24.192c0-0.928-0.168-1.704-0.504-2.328s-0.905-1.016-1.705-1.176c-0.256-0.063-0.384-0.271-0.384-0.624
		c0-0.32,0.112-0.512,0.337-0.576c0.831-0.192,1.551-0.392,2.159-0.6c0.607-0.208,1.177-0.423,1.704-0.648
		c0.527-0.223,1.048-0.432,1.561-0.624c0.127-0.063,0.223-0.096,0.287-0.096s0.12,0.041,0.168,0.12
		c0.049,0.081,0.072,0.152,0.072,0.216c0,0.288-0.057,0.904-0.168,1.849c-0.112,0.943-0.168,2.504-0.168,4.68v24
		c0,0.641,0.224,1.064,0.672,1.271c0.447,0.209,0.912,0.393,1.393,0.553c0.256,0.096,0.504,0.199,0.744,0.312
		c0.239,0.112,0.359,0.296,0.359,0.552c0,0.191-0.12,0.313-0.359,0.359c-0.24,0.049-0.441,0.072-0.601,0.072
		c-0.608,0-1.097-0.023-1.464-0.072c-0.368-0.047-0.721-0.087-1.057-0.119c-0.336-0.031-0.791-0.049-1.367-0.049
		c-0.545,0-0.992,0.018-1.344,0.049c-0.354,0.032-0.705,0.072-1.057,0.119C146.045,183.72,145.55,183.743,144.91,183.743z"/>
	<path fill="#0D4482" d="M164.782,184.32c-1.761,0-3.296-0.432-4.608-1.296s-2.336-2.088-3.072-3.672s-1.104-3.415-1.104-5.496
		c0-1.855,0.424-3.544,1.271-5.063s1.977-2.744,3.385-3.672s2.943-1.393,4.607-1.393c1.279,0,2.416,0.256,3.408,0.768
		c0.992,0.513,1.768,1.225,2.328,2.137c0.56,0.912,0.84,1.961,0.84,3.144c0,0.993-0.48,1.488-1.439,1.488h-10.129
		c-0.447,0-0.76,0.12-0.936,0.36s-0.264,0.712-0.264,1.416c0,1.535,0.336,2.936,1.008,4.199c0.672,1.265,1.567,2.273,2.688,3.024
		c1.12,0.752,2.353,1.128,3.696,1.128c0.96,0,1.831-0.184,2.616-0.552c0.783-0.368,1.479-0.903,2.088-1.608
		c0.127-0.16,0.224-0.264,0.288-0.313c0.063-0.047,0.144-0.071,0.24-0.071c0.255,0,0.384,0.161,0.384,0.479
		c0,0.609-0.288,1.281-0.864,2.017c-0.479,0.608-1.056,1.136-1.728,1.584s-1.408,0.792-2.208,1.032S165.646,184.32,164.782,184.32z
		 M160.366,169.776h4.368c0.768,0,1.424-0.016,1.968-0.048c0.544-0.031,1.071-0.096,1.584-0.191
		c0.159-0.032,0.265-0.137,0.312-0.313c0.049-0.176,0.072-0.424,0.072-0.744c0-0.928-0.408-1.72-1.224-2.376
		c-0.816-0.655-1.784-0.983-2.904-0.983c-0.736,0-1.472,0.215-2.208,0.647s-1.344,0.968-1.824,1.608
		c-0.479,0.641-0.72,1.279-0.72,1.92C159.79,169.616,159.982,169.776,160.366,169.776z"/>
	<path fill="#0D4482" d="M175.389,183.743c-0.288,0-0.521-0.04-0.696-0.119c-0.176-0.08-0.264-0.217-0.264-0.408
		c0-0.256,0.096-0.424,0.288-0.504s0.464-0.168,0.815-0.264c0.48-0.128,0.944-0.305,1.393-0.529
		c0.447-0.223,0.672-0.654,0.672-1.295v-10.32c0-0.864-0.088-1.6-0.264-2.208c-0.176-0.607-0.68-1.024-1.512-1.248
		c-0.129-0.063-0.24-0.136-0.336-0.216c-0.097-0.08-0.145-0.217-0.145-0.408c0-0.352,0.145-0.544,0.432-0.576
		c1.12-0.288,2.032-0.64,2.736-1.056c0.703-0.415,1.393-0.88,2.064-1.392c0.096-0.064,0.184-0.121,0.264-0.168
		c0.08-0.049,0.168-0.072,0.264-0.072c0.064,0,0.12,0.031,0.168,0.096c0.049,0.064,0.072,0.145,0.072,0.24
		c0,0.225-0.041,0.68-0.12,1.367c-0.08,0.689-0.12,1.257-0.12,1.705c0,0.128,0.008,0.248,0.024,0.359
		c0.016,0.113,0.04,0.185,0.071,0.217c1.12-1.057,2.313-1.856,3.576-2.4s2.648-0.816,4.152-0.816c1.567,0,2.863,0.641,3.889,1.92
		c1.023,1.28,1.535,2.864,1.535,4.752v10.225c0,0.641,0.224,1.064,0.672,1.271c0.448,0.209,0.912,0.393,1.393,0.553
		c0.256,0.096,0.504,0.199,0.744,0.312s0.359,0.296,0.359,0.552c0,0.191-0.112,0.313-0.336,0.359
		c-0.225,0.049-0.432,0.072-0.624,0.072c-0.64,0-1.136-0.023-1.487-0.072c-0.354-0.047-0.689-0.087-1.008-0.119
		c-0.32-0.031-0.769-0.049-1.345-0.049c-0.544,0-0.992,0.018-1.344,0.049c-0.353,0.032-0.713,0.072-1.08,0.119
		c-0.368,0.049-0.872,0.072-1.513,0.072c-0.16,0-0.359-0.023-0.6-0.072c-0.24-0.047-0.359-0.168-0.359-0.359
		c0-0.256,0.119-0.439,0.359-0.552s0.488-0.216,0.744-0.312c0.48-0.16,0.943-0.344,1.393-0.553c0.447-0.207,0.672-0.631,0.672-1.271
		v-10.08c0-1.408-0.393-2.504-1.176-3.289c-0.785-0.783-1.833-1.191-3.145-1.223c-1.152,0-2.16,0.184-3.023,0.551
		c-0.865,0.369-1.633,0.824-2.305,1.369c-0.129,0.128-0.225,0.296-0.288,0.504c-0.064,0.208-0.096,0.408-0.096,0.6v11.568
		c0,0.641,0.224,1.072,0.672,1.295c0.448,0.225,0.912,0.401,1.392,0.529c0.736,0.191,1.104,0.447,1.104,0.768
		c0,0.191-0.081,0.328-0.24,0.408c-0.161,0.079-0.4,0.119-0.72,0.119c-0.641,0-1.145-0.023-1.512-0.072
		c-0.369-0.047-0.713-0.087-1.032-0.119c-0.32-0.031-0.769-0.049-1.345-0.049c-0.544,0-0.983,0.018-1.319,0.049
		c-0.336,0.032-0.688,0.072-1.056,0.119C176.533,183.72,176.029,183.743,175.389,183.743z"/>
	<path fill="#0D4482" d="M207.982,197.52c-2.721,0-4.873-0.521-6.457-1.56c-1.584-1.041-2.375-2.441-2.375-4.2
		c0-0.833,0.127-1.536,0.383-2.112s0.656-1.072,1.201-1.488c0.447-0.384,1.047-0.871,1.799-1.463
		c0.752-0.594,1.527-1.209,2.328-1.849l2.016,0.097c-1.535,0.99-2.607,1.936-3.215,2.831c-0.609,0.896-0.912,1.983-0.912,3.265
		c0,1.279,0.566,2.359,1.703,3.24c1.137,0.879,2.537,1.319,4.201,1.319c1.887,0,3.408-0.433,4.559-1.296
		c0.801-0.608,1.424-1.4,1.873-2.376c0.447-0.977,0.672-2.009,0.672-3.097c0-0.703-0.248-1.288-0.744-1.752s-1.271-0.84-2.328-1.127
		c-1.057-0.289-2.432-0.48-4.129-0.576c-3.008-0.225-5.096-0.625-6.264-1.2c-1.168-0.576-1.752-1.472-1.752-2.688
		c0-0.319,0.088-0.615,0.264-0.888c0.176-0.271,0.457-0.567,0.842-0.888c0.734-0.576,1.279-1,1.631-1.272
		c0.352-0.271,0.615-0.504,0.793-0.696c0.174-0.191,0.342-0.432,0.504-0.72l1.631,0.816c-0.703,0.257-1.295,0.6-1.775,1.032
		c-0.48,0.432-0.721,0.824-0.721,1.176c0,0.448,0.24,0.84,0.721,1.176s1.184,0.6,2.111,0.792s2.064,0.336,3.408,0.433
		c2.943,0.16,5.137,0.64,6.576,1.439c1.439,0.799,2.16,1.936,2.16,3.408c0,1.248-0.313,2.472-0.936,3.672
		c-0.625,1.199-1.449,2.295-2.473,3.287s-2.168,1.784-3.432,2.377C210.582,197.224,209.292,197.52,207.982,197.52z M208.269,178.512
		c-1.313,0-2.561-0.336-3.744-1.009c-1.184-0.672-2.152-1.559-2.904-2.663s-1.127-2.312-1.127-3.624
		c0-1.504,0.391-2.824,1.176-3.961c0.783-1.135,1.814-2.023,3.096-2.663c1.279-0.64,2.641-0.96,4.08-0.96
		c0.928,0,1.736,0.119,2.424,0.359s1.367,0.457,2.041,0.648c0.768,0.225,1.375,0.359,1.822,0.408
		c0.449,0.048,0.912,0.072,1.393,0.072c0.385,0,0.863-0.024,1.439-0.072c0.576-0.049,0.977-0.072,1.201-0.072
		c0.416,0,0.623,0.24,0.623,0.721c0,0.287-0.16,0.592-0.479,0.911c-0.162,0.161-0.289,0.24-0.385,0.24h-1.297
		c-0.863,0-1.344,0.128-1.439,0.384c-0.031,0.129-0.072,0.313-0.119,0.553c-0.049,0.239-0.09,0.504-0.121,0.791
		c-0.031,0.289-0.047,0.576-0.047,0.864c0,1.632-0.354,3.137-1.057,4.513c-0.705,1.375-1.633,2.479-2.783,3.312
		C210.91,178.097,209.644,178.512,208.269,178.512z M208.556,176.831c1.217,0,2.225-0.615,3.025-1.848
		c0.799-1.231,1.199-2.76,1.199-4.584c0-0.928-0.215-1.8-0.648-2.615c-0.432-0.816-0.992-1.473-1.68-1.969s-1.432-0.744-2.232-0.744
		c-0.736,0-1.432,0.264-2.088,0.793c-0.656,0.527-1.184,1.207-1.584,2.039c-0.4,0.833-0.6,1.744-0.6,2.736
		c0,1.121,0.209,2.152,0.625,3.096c0.414,0.944,0.975,1.697,1.68,2.256C206.957,176.552,207.724,176.831,208.556,176.831z"/>
	<path fill="#0D4482" d="M229.724,184.32c-1.76,0-3.295-0.432-4.607-1.296s-2.336-2.088-3.072-3.672s-1.104-3.415-1.104-5.496
		c0-1.855,0.424-3.544,1.271-5.063s1.977-2.744,3.385-3.672s2.943-1.393,4.607-1.393c1.279,0,2.416,0.256,3.408,0.768
		c0.992,0.513,1.768,1.225,2.328,2.137c0.559,0.912,0.84,1.961,0.84,3.144c0,0.993-0.48,1.488-1.439,1.488h-10.129
		c-0.447,0-0.76,0.12-0.936,0.36s-0.264,0.712-0.264,1.416c0,1.535,0.336,2.936,1.008,4.199c0.672,1.265,1.568,2.273,2.688,3.024
		c1.121,0.752,2.352,1.128,3.697,1.128c0.959,0,1.83-0.184,2.615-0.552c0.783-0.368,1.48-0.903,2.088-1.608
		c0.127-0.16,0.223-0.264,0.289-0.313c0.063-0.047,0.143-0.071,0.238-0.071c0.256,0,0.385,0.161,0.385,0.479
		c0,0.609-0.287,1.281-0.863,2.017c-0.48,0.608-1.057,1.136-1.729,1.584s-1.408,0.792-2.209,1.032
		C231.421,184.2,230.589,184.32,229.724,184.32z M225.308,169.776h4.369c0.768,0,1.424-0.016,1.967-0.048
		c0.545-0.031,1.072-0.096,1.584-0.191c0.16-0.032,0.266-0.137,0.313-0.313c0.049-0.176,0.072-0.424,0.072-0.744
		c0-0.928-0.408-1.72-1.225-2.376c-0.814-0.655-1.783-0.983-2.902-0.983c-0.738,0-1.473,0.215-2.209,0.647s-1.344,0.968-1.824,1.608
		s-0.719,1.279-0.719,1.92C224.734,169.616,224.925,169.776,225.308,169.776z"/>
	<path fill="#0D4482" d="M244.22,184.272c-0.799,0-1.48-0.28-2.039-0.84c-0.561-0.56-0.84-1.239-0.84-2.04
		c0-0.799,0.279-1.48,0.84-2.04c0.559-0.56,1.24-0.84,2.039-0.84c0.801,0,1.48,0.28,2.041,0.84c0.559,0.56,0.84,1.241,0.84,2.04
		c0,0.801-0.281,1.48-0.84,2.04C245.701,183.991,245.021,184.272,244.22,184.272z M244.125,173.76c-0.225,0-0.408-0.136-0.553-0.408
		c-0.143-0.271-0.248-0.76-0.311-1.464c-0.129-1.375-0.273-2.872-0.432-4.488c-0.162-1.615-0.297-3.223-0.408-4.824
		c-0.113-1.6-0.209-3.055-0.289-4.367s-0.119-2.353-0.119-3.121c0-0.703,0.215-1.319,0.648-1.848
		c0.432-0.527,0.967-0.791,1.607-0.791c0.639,0,1.158,0.264,1.561,0.791c0.398,0.528,0.6,1.145,0.6,1.848
		c0,0.769-0.049,1.809-0.145,3.121s-0.217,2.768-0.359,4.367c-0.145,1.602-0.297,3.217-0.457,4.849s-0.32,3.12-0.48,4.464
		c-0.031,0.512-0.119,0.953-0.264,1.32C244.582,173.575,244.38,173.76,244.125,173.76z"/>
</g>
</svg>
