<?xml version="1.0" encoding="utf-8"?>
<!-- Generator: Adobe Illustrator 14.0.0, SVG Export Plug-In . SVG Version: 6.00 Build 43363)  -->
<!DOCTYPE svg PUBLIC "-//W3C//DTD SVG 1.1//EN" "http://www.w3.org/Graphics/SVG/1.1/DTD/svg11.dtd">
<svg version="1.1" id="レイヤー_3" xmlns="http://www.w3.org/2000/svg" xmlns:xlink="http://www.w3.org/1999/xlink" x="0px"
	 y="0px" width="280.719px" height="346.352px" viewBox="325.67 -46.477 280.719 346.352"
	 enable-background="new 325.67 -46.477 280.719 346.352" xml:space="preserve">
<g>
	<path fill="#0D4482" d="M327.381-4.646c-0.511,0-0.925-0.069-1.239-0.207c-0.314-0.137-0.472-0.324-0.472-0.561
		c0-0.274,0.167-0.521,0.501-0.737c0.334-0.216,0.816-0.422,1.446-0.62c1.022-0.314,1.966-0.786,2.832-1.416
		c0.864-0.628,1.612-1.671,2.241-3.127c1.102-2.517,2.115-4.876,3.039-7.08c0.924-2.202,1.8-4.366,2.625-6.49
		c0.826-2.124,1.682-4.336,2.566-6.638c0.886-2.301,1.819-4.809,2.803-7.522c0.197-0.55,0.374-1.101,0.531-1.652
		c0.156-0.55,0.256-1.141,0.295-1.77c0.354-0.118,0.709-0.236,1.063-0.354s0.708-0.295,1.063-0.531
		c0.354-0.236,0.599-0.59,0.736-1.062c0.138-0.472,0.266-0.786,0.384-0.944c0.039-0.039,0.089-0.059,0.147-0.059
		s0.107,0.04,0.147,0.118c0.079,0.158,0.147,0.354,0.206,0.59c0.06,0.236,0.128,0.472,0.207,0.708
		c0.944,2.99,1.927,6.039,2.95,9.145c1.022,3.108,2.015,6.106,2.979,8.998c0.963,2.891,1.848,5.487,2.654,7.788
		c0.807,2.301,1.446,4.16,1.918,5.576c0.551,1.573,1.141,2.753,1.77,3.54c0.629,0.788,1.289,1.338,1.977,1.652
		c0.688,0.315,1.426,0.551,2.213,0.708c0.668,0.118,1.16,0.305,1.475,0.561c0.314,0.256,0.473,0.521,0.473,0.796
		c0,0.236-0.158,0.393-0.473,0.472c-0.314,0.079-0.728,0.118-1.238,0.118c-0.551,0-1.299-0.029-2.242-0.088
		s-1.947-0.118-3.009-0.177C358.887-4.97,357.903-5,356.999-5c-0.748,0-1.515,0-2.301,0c-0.787,0-1.515,0.01-2.184,0.03
		c-0.669,0.02-1.238,0.029-1.711,0.029c-0.512,0-0.924-0.059-1.238-0.177c-0.315-0.118-0.473-0.295-0.473-0.531
		c0-0.275,0.197-0.511,0.59-0.708c0.393-0.196,0.846-0.333,1.357-0.413c1.298-0.196,2.222-0.531,2.773-1.003
		c0.55-0.472,0.826-1.022,0.826-1.652c0-0.59-0.129-1.446-0.385-2.566c-0.256-1.121-0.56-2.321-0.914-3.599
		c-0.354-1.278-0.688-2.409-1.003-3.393c-0.079-0.314-0.227-0.501-0.442-0.561c-0.217-0.059-0.6-0.088-1.15-0.088h-11.15
		c-0.158,0-0.325,0.069-0.502,0.207c-0.178,0.138-0.345,0.423-0.502,0.855c-0.117,0.394-0.314,1.013-0.59,1.858
		c-0.275,0.846-0.551,1.741-0.826,2.685s-0.512,1.79-0.707,2.537c-0.197,0.748-0.296,1.219-0.296,1.416
		c0,0.865,0.334,1.583,1.003,2.153c0.668,0.571,1.475,0.974,2.42,1.209c1.297,0.354,1.946,0.748,1.946,1.18
		c0,0.236-0.157,0.404-0.472,0.501c-0.315,0.098-0.729,0.147-1.239,0.147c-0.512,0-1.259-0.021-2.242-0.059S335.561-5,334.461-5
		c-1.298,0-2.558,0.059-3.776,0.177C329.466-4.705,328.364-4.646,327.381-4.646z M341.186-21.579h9.146
		c0.55,0,0.826-0.098,0.826-0.295c0-0.078-0.011-0.167-0.03-0.266c-0.02-0.098-0.049-0.206-0.088-0.324l-4.602-14.396
		c-0.236-0.708-0.414-1.062-0.531-1.062c-0.08,0-0.236,0.334-0.473,1.003l-5.369,14.455c-0.078,0.236-0.117,0.394-0.117,0.472
		c0,0.197,0.107,0.315,0.324,0.354C340.488-21.598,340.794-21.579,341.186-21.579z"/>
	<path fill="#0D4482" d="M387.678-3.82c-0.08,0-0.207-0.08-0.384-0.236c-0.177-0.157-0.266-0.275-0.266-0.354
		c0-0.394,0.049-0.953,0.147-1.681c0.098-0.728,0.147-1.347,0.147-1.858v-0.354c-0.59,0.905-1.534,1.829-2.832,2.773
		c-1.298,0.944-2.931,1.416-4.897,1.416c-2.242,0-4.18-0.59-5.811-1.77c-1.633-1.18-2.892-2.694-3.776-4.543
		c-0.886-1.849-1.327-3.756-1.327-5.723c0-2.281,0.531-4.425,1.593-6.431c1.062-2.006,2.585-3.638,4.572-4.897
		c1.985-1.258,4.356-1.888,7.109-1.888c0.786,0,1.583,0.069,2.39,0.206c0.806,0.139,1.426,0.286,1.858,0.443
		c0.354,0.118,0.609,0.177,0.767,0.177c0.275,0,0.414-0.472,0.414-1.416v-8.378c0-1.612-0.257-2.694-0.768-3.245
		c-0.512-0.55-1.238-0.904-2.184-1.062c-0.354-0.078-0.53-0.333-0.53-0.767c0-0.354,0.157-0.59,0.472-0.708
		c1.73-0.433,3.088-0.846,4.071-1.239c0.982-0.393,1.749-0.708,2.301-0.944c0.157-0.079,0.304-0.127,0.442-0.147
		c0.138-0.02,0.246-0.03,0.324-0.03c0.236,0,0.374,0.118,0.414,0.354c0,0.236-0.029,0.64-0.089,1.209
		c-0.06,0.571-0.128,1.407-0.206,2.508c-0.08,1.102-0.119,2.537-0.119,4.307v26.668c0,1.338,0.098,2.312,0.295,2.921
		c0.197,0.61,0.512,0.915,0.945,0.915c0.195,0,0.539-0.02,1.031-0.059c0.492-0.039,0.994-0.079,1.505-0.118
		c0.708-0.039,1.062,0.138,1.062,0.531c0,0.275-0.088,0.521-0.265,0.737c-0.177,0.217-0.364,0.325-0.561,0.325
		c-1.102,0.157-2.183,0.383-3.245,0.678s-2.281,0.737-3.658,1.328c-0.314,0.157-0.521,0.255-0.619,0.295
		C387.904-3.841,387.796-3.82,387.678-3.82z M381.719-7.183c1.021,0,2.025-0.265,3.008-0.796c0.983-0.531,1.85-1.229,2.597-2.094
		l0.06-10.62c0-1.062-0.306-2.104-0.915-3.127c-0.61-1.022-1.456-1.858-2.537-2.508c-1.082-0.649-2.351-0.973-3.806-0.973
		c-0.904,0-1.928,0.275-3.068,0.826c-1.141,0.551-2.123,1.525-2.949,2.921c-0.826,1.396-1.239,3.413-1.239,6.047
		c0,2.242,0.334,4.042,1.003,5.398c0.668,1.357,1.484,2.39,2.449,3.098c0.963,0.708,1.946,1.19,2.949,1.445
		C380.274-7.31,381.089-7.183,381.719-7.183z"/>
	<path fill="#0D4482" d="M409.094-3.702c-0.157,0-0.354-0.305-0.59-0.914s-0.393-1.052-0.472-1.328
		c-0.275-0.668-0.53-1.366-0.767-2.095c-0.236-0.727-0.473-1.406-0.709-2.035c-0.865-2.438-1.799-4.828-2.802-7.168
		c-1.003-2.34-1.977-4.71-2.921-7.11c-0.275-0.708-0.699-1.347-1.268-1.917c-0.571-0.57-1.151-0.934-1.741-1.091
		c-0.315-0.118-0.571-0.236-0.767-0.354c-0.197-0.118-0.295-0.314-0.295-0.59c0-0.236,0.146-0.384,0.441-0.443
		c0.296-0.059,0.541-0.088,0.738-0.088c0.786,0,1.357,0.021,1.711,0.059c0.354,0.04,0.708,0.088,1.063,0.147
		c0.354,0.059,0.864,0.088,1.533,0.088c0.709,0,1.239-0.029,1.594-0.088c0.354-0.059,0.727-0.108,1.121-0.147
		c0.393-0.039,0.963-0.059,1.711-0.059c0.195,0,0.441,0.029,0.736,0.088s0.443,0.207,0.443,0.443c0,0.275-0.139,0.492-0.413,0.649
		c-0.276,0.158-0.591,0.295-0.944,0.413c-0.394,0.157-0.688,0.462-0.885,0.914c-0.197,0.453-0.295,0.954-0.295,1.505
		c0,0.275,0.02,0.551,0.059,0.826c0.039,0.276,0.098,0.531,0.178,0.767l4.66,12.39c0.039,0.04,0.068,0.059,0.089,0.059
		c0.02,0,0.049-0.02,0.089-0.059l4.484-11.505c0.156-0.393,0.273-0.816,0.354-1.269c0.078-0.452,0.117-0.835,0.117-1.151
		c0-0.786-0.117-1.347-0.354-1.681c-0.236-0.334-0.629-0.599-1.18-0.796c-0.512-0.197-0.865-0.354-1.063-0.472
		s-0.295-0.314-0.295-0.59c0-0.236,0.127-0.384,0.384-0.443c0.255-0.059,0.521-0.088,0.796-0.088c0.434,0,1.004,0.05,1.711,0.147
		c0.709,0.099,1.573,0.147,2.597,0.147c1.022,0,1.72-0.049,2.095-0.147c0.373-0.098,0.835-0.147,1.387-0.147
		c0.314,0,0.59,0.029,0.826,0.088c0.235,0.059,0.354,0.207,0.354,0.443c0,0.433-0.453,0.787-1.357,1.062
		c-0.59,0.157-1.238,0.61-1.947,1.357c-0.707,0.748-1.278,1.613-1.711,2.596l-4.602,11.092c-0.079,0.158-0.236,0.541-0.473,1.15
		c-0.235,0.61-0.492,1.279-0.767,2.006c-0.275,0.729-0.61,1.623-1.003,2.685c-0.314,0.748-0.57,1.328-0.767,1.741
		c-0.198,0.413-0.374,0.717-0.531,0.914H409.094z"/>
	<path fill="#0D4482" d="M428.329-4.115c-0.709,0-1.426-0.276-2.154-0.826s-1.338-1.219-1.828-2.006
		c-0.492-0.787-0.738-1.534-0.738-2.242c0-1.258,0.334-2.242,1.004-2.95c0.668-0.708,1.73-1.357,3.186-1.947l6.018-2.478
		c0.787-0.314,1.248-0.59,1.387-0.826c0.138-0.236,0.227-0.747,0.266-1.534l0.118-3.776c0.038-1.022-0.246-1.908-0.855-2.655
		c-0.61-0.747-1.485-1.121-2.626-1.121c-0.59,0-1.18,0.099-1.77,0.295c-0.59,0.198-1.082,0.453-1.475,0.767
		c-0.236,0.158-0.395,0.394-0.473,0.708c-0.079,0.315-0.117,0.649-0.117,1.003c0,0.158,0.008,0.335,0.029,0.531
		c0.02,0.197,0.029,0.374,0.029,0.531c0,0.197-0.246,0.463-0.738,0.797c-0.492,0.334-1.042,0.629-1.651,0.885
		c-0.61,0.256-1.112,0.384-1.505,0.384c-0.197,0-0.354-0.049-0.472-0.148c-0.118-0.098-0.177-0.226-0.177-0.383
		c0-0.629,0.206-1.307,0.619-2.036c0.413-0.727,0.992-1.406,1.74-2.035c0.904-0.826,1.889-1.554,2.95-2.183
		c1.062-0.629,2.104-1.121,3.127-1.475s1.927-0.531,2.714-0.531c1.416,0,2.586,0.501,3.511,1.504
		c0.924,1.003,1.366,2.252,1.327,3.747l-0.295,14.16c-0.039,0.826,0.148,1.496,0.561,2.006c0.413,0.511,0.934,0.767,1.564,0.767
		c0.982,0,1.711-0.215,2.182-0.649c0.197-0.196,0.354-0.295,0.473-0.295c0.196,0,0.354,0.059,0.473,0.177
		c0.117,0.118,0.176,0.275,0.176,0.472c0,0.434-0.217,0.866-0.648,1.298c-0.63,0.629-1.309,1.131-2.035,1.504
		c-0.729,0.373-1.407,0.561-2.035,0.561c-1.811,0-3.246-1.022-4.308-3.068h-0.177c-1.299,1.062-2.537,1.839-3.717,2.331
		C430.806-4.361,429.587-4.115,428.329-4.115z M431.101-6.947c0.786,0,1.455-0.127,2.007-0.384c0.55-0.255,1.041-0.599,1.475-1.032
		c0.196-0.196,0.363-0.462,0.502-0.796c0.137-0.334,0.225-0.875,0.265-1.623l0.118-2.891c0.039-0.433,0.02-0.747-0.059-0.944
		c-0.08-0.197-0.236-0.295-0.473-0.295c-0.079,0-0.217,0.021-0.412,0.059c-0.197,0.04-0.453,0.118-0.768,0.236
		c-2.086,0.748-3.531,1.524-4.336,2.33c-0.807,0.807-1.21,1.544-1.21,2.213c0,1.023,0.304,1.799,0.915,2.33
		C429.735-7.213,430.393-6.947,431.101-6.947z"/>
	<path fill="#0D4482" d="M447.561-4.764c-0.354,0-0.64-0.049-0.855-0.147c-0.217-0.098-0.324-0.265-0.324-0.501
		c0-0.314,0.118-0.521,0.354-0.619c0.236-0.098,0.57-0.207,1.004-0.325c0.59-0.157,1.159-0.374,1.711-0.649
		c0.55-0.275,0.826-0.806,0.826-1.593v-12.685c0-1.062-0.109-1.967-0.325-2.714c-0.216-0.747-0.836-1.258-1.858-1.534
		c-0.158-0.079-0.295-0.167-0.413-0.266c-0.118-0.098-0.177-0.266-0.177-0.501c0-0.433,0.177-0.668,0.531-0.708
		c1.376-0.354,2.497-0.787,3.363-1.298c0.864-0.511,1.711-1.082,2.536-1.711c0.118-0.078,0.226-0.147,0.325-0.207
		c0.098-0.059,0.206-0.088,0.324-0.088c0.078,0,0.147,0.04,0.207,0.118c0.059,0.079,0.088,0.177,0.088,0.295
		c0,0.276-0.05,0.836-0.147,1.682c-0.099,0.846-0.147,1.544-0.147,2.094c0,0.158,0.009,0.305,0.029,0.443
		c0.02,0.138,0.049,0.227,0.088,0.265c1.377-1.298,2.842-2.281,4.396-2.95c1.553-0.668,3.254-1.003,5.104-1.003
		c1.926,0,3.52,0.787,4.779,2.36c1.258,1.574,1.887,3.521,1.887,5.841v12.567c0,0.788,0.275,1.308,0.826,1.563
		c0.551,0.256,1.121,0.482,1.711,0.679c0.314,0.118,0.62,0.246,0.915,0.383c0.295,0.139,0.442,0.364,0.442,0.679
		c0,0.236-0.139,0.383-0.413,0.442c-0.275,0.059-0.53,0.088-0.767,0.088c-0.787,0-1.396-0.029-1.829-0.088
		c-0.434-0.059-0.847-0.108-1.239-0.147c-0.394-0.039-0.943-0.059-1.652-0.059c-0.669,0-1.219,0.021-1.651,0.059
		c-0.434,0.04-0.876,0.088-1.327,0.147c-0.453,0.059-1.072,0.088-1.859,0.088c-0.197,0-0.442-0.029-0.737-0.088
		s-0.442-0.207-0.442-0.442c0-0.314,0.147-0.54,0.442-0.679c0.295-0.137,0.6-0.265,0.915-0.383c0.59-0.196,1.159-0.422,1.711-0.679
		c0.55-0.255,0.826-0.776,0.826-1.563v-12.39c0-1.73-0.482-3.077-1.445-4.042c-0.965-0.963-2.253-1.465-3.865-1.505
		c-1.416,0-2.654,0.227-3.717,0.679c-1.063,0.453-2.006,1.013-2.832,1.682c-0.158,0.158-0.275,0.364-0.354,0.62
		c-0.08,0.256-0.119,0.501-0.119,0.737v14.219c0,0.788,0.275,1.318,0.826,1.593c0.551,0.275,1.121,0.492,1.711,0.649
		c0.904,0.236,1.357,0.551,1.357,0.944c0,0.236-0.099,0.404-0.295,0.501c-0.197,0.098-0.492,0.147-0.885,0.147
		c-0.787,0-1.407-0.029-1.859-0.088S454.385-4.961,453.993-5c-0.395-0.039-0.944-0.059-1.652-0.059c-0.67,0-1.209,0.021-1.623,0.059
		c-0.412,0.04-0.846,0.088-1.297,0.147C448.968-4.794,448.348-4.764,447.561-4.764z"/>
	<path fill="#0D4482" d="M488.684-4.056c-1.967,0-3.746-0.501-5.34-1.504c-1.593-1.003-2.852-2.379-3.775-4.13
		c-0.925-1.75-1.387-3.707-1.387-5.871c0-2.556,0.561-4.876,1.682-6.962c1.121-2.084,2.625-3.747,4.514-4.985
		c1.888-1.239,3.972-1.858,6.254-1.858c2.557,0,4.798,0.688,6.726,2.065c0.473,0.354,0.708,0.728,0.708,1.121
		c0,0.315-0.138,0.669-0.413,1.062c-0.275,0.394-0.61,0.718-1.003,0.974c-0.394,0.256-0.767,0.384-1.121,0.384
		c-0.197,0-0.394-0.068-0.59-0.207c-0.197-0.138-0.413-0.285-0.648-0.443c-0.866-0.668-1.829-1.298-2.892-1.888
		c-1.062-0.59-1.946-0.885-2.654-0.885c-1.928,0-3.491,0.896-4.69,2.685c-1.201,1.791-1.8,4.14-1.8,7.051
		c0,1.849,0.403,3.521,1.21,5.015c0.805,1.496,1.888,2.675,3.244,3.54c1.357,0.866,2.861,1.298,4.514,1.298
		c1.141,0,2.124-0.187,2.95-0.561c0.826-0.374,1.711-1.033,2.655-1.977c0.078-0.079,0.177-0.147,0.295-0.207
		c0.117-0.059,0.215-0.088,0.295-0.088c0.432,0,0.648,0.275,0.648,0.826c0,0.236-0.069,0.501-0.206,0.797
		c-0.139,0.295-0.364,0.64-0.679,1.032c-0.63,0.787-1.377,1.466-2.242,2.036c-0.865,0.57-1.819,0.993-2.861,1.269
		C491.034-4.195,489.903-4.056,488.684-4.056z"/>
	<path fill="#0D4482" d="M502.726-4.764c-0.354,0-0.64-0.049-0.855-0.147c-0.217-0.098-0.324-0.265-0.324-0.501
		c0-0.314,0.147-0.531,0.442-0.649c0.295-0.118,0.6-0.216,0.915-0.295c0.825-0.196,1.454-0.442,1.888-0.737
		c0.433-0.295,0.648-0.797,0.648-1.505v-12.803c0-1.062-0.187-2.006-0.561-2.832s-1.071-1.317-2.094-1.475
		c-0.197-0.039-0.345-0.118-0.442-0.236c-0.099-0.118-0.147-0.295-0.147-0.531c0-0.432,0.177-0.668,0.53-0.708
		c1.573-0.354,2.871-0.835,3.895-1.445c1.022-0.609,1.789-1.111,2.301-1.504c0.354-0.275,0.629-0.413,0.826-0.413
		c0.235,0,0.354,0.099,0.354,0.295c0,0.315-0.05,0.935-0.147,1.858c-0.099,0.925-0.187,1.947-0.266,3.068
		c-0.079,1.121-0.117,2.134-0.117,3.038v13.688c0,0.669,0.226,1.161,0.678,1.475c0.452,0.315,1.071,0.571,1.858,0.767
		c0.314,0.079,0.62,0.177,0.915,0.295c0.295,0.118,0.442,0.335,0.442,0.649c0,0.434-0.394,0.649-1.18,0.649
		c-0.748,0-1.348-0.029-1.8-0.088S509.6-4.961,509.187-5c-0.413-0.039-0.974-0.059-1.682-0.059c-0.669,0-1.22,0.021-1.652,0.059
		c-0.433,0.04-0.865,0.088-1.298,0.147S503.513-4.764,502.726-4.764z M507.447-35.385c-0.826,0-1.525-0.285-2.095-0.855
		c-0.571-0.57-0.855-1.269-0.855-2.095c0-0.865,0.284-1.583,0.855-2.153c0.569-0.57,1.269-0.855,2.095-0.855
		c0.864,0,1.582,0.286,2.153,0.855c0.569,0.57,0.855,1.289,0.855,2.153c0,0.826-0.286,1.525-0.855,2.095
		C509.029-35.67,508.311-35.385,507.447-35.385z"/>
	<path fill="#0D4482" d="M517.181-4.764c-0.354,0-0.64-0.049-0.855-0.147c-0.217-0.098-0.324-0.265-0.324-0.501
		c0-0.314,0.118-0.521,0.354-0.619c0.236-0.098,0.57-0.207,1.004-0.325c0.59-0.157,1.159-0.374,1.711-0.649
		c0.55-0.275,0.825-0.806,0.825-1.593v-12.685c0-1.062-0.108-1.967-0.324-2.714c-0.217-0.747-0.836-1.258-1.858-1.534
		c-0.157-0.079-0.295-0.167-0.413-0.266c-0.118-0.098-0.177-0.266-0.177-0.501c0-0.433,0.177-0.668,0.531-0.708
		c1.376-0.354,2.497-0.787,3.362-1.298c0.865-0.511,1.711-1.082,2.537-1.711c0.118-0.078,0.227-0.147,0.325-0.207
		c0.098-0.059,0.206-0.088,0.324-0.088c0.078,0,0.147,0.04,0.206,0.118c0.06,0.079,0.089,0.177,0.089,0.295
		c0,0.276-0.05,0.836-0.147,1.682c-0.099,0.846-0.147,1.544-0.147,2.094c0,0.158,0.009,0.305,0.029,0.443
		c0.02,0.138,0.049,0.227,0.089,0.265c1.376-1.298,2.841-2.281,4.396-2.95c1.553-0.668,3.254-1.003,5.104-1.003
		c1.927,0,3.52,0.787,4.778,2.36c1.259,1.574,1.889,3.521,1.889,5.841v12.567c0,0.788,0.274,1.308,0.825,1.563
		c0.551,0.256,1.121,0.482,1.712,0.679c0.313,0.118,0.619,0.246,0.914,0.383c0.295,0.139,0.442,0.364,0.442,0.679
		c0,0.236-0.139,0.383-0.413,0.442c-0.275,0.059-0.531,0.088-0.767,0.088c-0.787,0-1.396-0.029-1.829-0.088
		c-0.434-0.059-0.847-0.108-1.239-0.147c-0.394-0.039-0.944-0.059-1.652-0.059c-0.669,0-1.219,0.021-1.651,0.059
		c-0.434,0.04-0.876,0.088-1.328,0.147s-1.071,0.088-1.858,0.088c-0.197,0-0.442-0.029-0.737-0.088s-0.442-0.207-0.442-0.442
		c0-0.314,0.147-0.54,0.442-0.679c0.295-0.137,0.6-0.265,0.915-0.383c0.59-0.196,1.159-0.422,1.711-0.679
		c0.55-0.255,0.826-0.776,0.826-1.563v-12.39c0-1.73-0.482-3.077-1.446-4.042c-0.964-0.963-2.252-1.465-3.864-1.505
		c-1.416,0-2.655,0.227-3.717,0.679c-1.063,0.453-2.006,1.013-2.832,1.682c-0.158,0.158-0.275,0.364-0.354,0.62
		c-0.079,0.256-0.117,0.501-0.117,0.737v14.219c0,0.788,0.274,1.318,0.825,1.593c0.551,0.275,1.121,0.492,1.711,0.649
		c0.905,0.236,1.357,0.551,1.357,0.944c0,0.236-0.099,0.404-0.295,0.501c-0.197,0.098-0.492,0.147-0.885,0.147
		c-0.787,0-1.407-0.029-1.858-0.088c-0.453-0.059-0.876-0.108-1.269-0.147c-0.394-0.039-0.944-0.059-1.652-0.059
		c-0.669,0-1.21,0.021-1.622,0.059c-0.413,0.04-0.847,0.088-1.299,0.147S517.969-4.764,517.181-4.764z"/>
	<path fill="#0D4482" d="M557.243,12.169c-3.344,0-5.988-0.64-7.936-1.917c-1.947-1.278-2.92-3-2.92-5.163
		c0-1.023,0.156-1.888,0.472-2.596c0.314-0.708,0.806-1.318,1.475-1.829c0.551-0.472,1.288-1.072,2.213-1.799
		c0.924-0.729,1.878-1.485,2.861-2.271l2.479,0.118c-1.889,1.219-3.207,2.379-3.953,3.481c-0.748,1.101-1.121,2.438-1.121,4.012
		c0,1.573,0.697,2.9,2.095,3.982c1.396,1.082,3.116,1.623,5.162,1.623c2.32,0,4.188-0.531,5.604-1.593
		c0.983-0.748,1.75-1.721,2.302-2.921c0.55-1.2,0.826-2.469,0.826-3.805c0-0.866-0.306-1.584-0.915-2.154
		c-0.61-0.57-1.563-1.032-2.861-1.386s-2.99-0.59-5.074-0.708c-3.697-0.276-6.264-0.767-7.699-1.475
		c-1.437-0.708-2.153-1.809-2.153-3.304c0-0.393,0.107-0.757,0.324-1.091c0.216-0.333,0.561-0.698,1.032-1.091
		c0.904-0.708,1.573-1.229,2.006-1.563c0.433-0.334,0.757-0.62,0.974-0.856c0.216-0.236,0.423-0.531,0.62-0.885l2.006,1.003
		c-0.866,0.315-1.594,0.738-2.184,1.269c-0.59,0.531-0.885,1.013-0.885,1.445c0,0.551,0.295,1.033,0.885,1.446
		s1.455,0.737,2.597,0.974c1.14,0.236,2.537,0.413,4.188,0.531c3.618,0.197,6.313,0.787,8.083,1.77
		c1.771,0.983,2.655,2.379,2.655,4.189c0,1.534-0.384,3.039-1.15,4.514c-0.768,1.475-1.78,2.822-3.039,4.042
		c-1.259,1.219-2.665,2.192-4.218,2.92C560.438,11.805,558.855,12.169,557.243,12.169z M557.597-11.195
		c-1.613,0-3.147-0.413-4.603-1.239c-1.455-0.826-2.646-1.917-3.569-3.274c-0.925-1.357-1.387-2.841-1.387-4.455
		c0-1.848,0.481-3.471,1.445-4.867c0.964-1.396,2.232-2.487,3.806-3.274c1.573-0.787,3.245-1.18,5.016-1.18
		c1.14,0,2.133,0.147,2.979,0.442c0.845,0.295,1.681,0.561,2.507,0.796c0.944,0.276,1.691,0.443,2.242,0.501
		c0.551,0.059,1.121,0.089,1.711,0.089c0.472,0,1.063-0.03,1.771-0.089c0.708-0.059,1.199-0.088,1.475-0.088
		c0.511,0,0.767,0.295,0.767,0.885c0,0.354-0.197,0.728-0.59,1.121c-0.197,0.198-0.354,0.295-0.472,0.295h-1.593
		c-1.063,0-1.652,0.157-1.771,0.472c-0.039,0.158-0.088,0.384-0.147,0.679c-0.059,0.295-0.108,0.62-0.147,0.974
		s-0.059,0.708-0.059,1.062c0,2.006-0.434,3.855-1.298,5.546c-0.866,1.691-2.007,3.048-3.423,4.071
		C560.842-11.706,559.288-11.195,557.597-11.195z M557.951-13.26c1.494,0,2.733-0.757,3.717-2.271
		c0.983-1.514,1.476-3.393,1.476-5.635c0-1.14-0.266-2.212-0.797-3.215s-1.22-1.809-2.064-2.419
		c-0.847-0.609-1.761-0.915-2.744-0.915c-0.905,0-1.761,0.324-2.566,0.974c-0.807,0.649-1.455,1.485-1.947,2.507
		c-0.492,1.023-0.737,2.144-0.737,3.363c0,1.377,0.256,2.646,0.768,3.806c0.511,1.161,1.199,2.085,2.064,2.773
		C555.984-13.604,556.927-13.26,557.951-13.26z"/>
	<path fill="#0D4482" d="M336.938,67.885c-1.928,0-3.432-0.59-4.513-1.77c-1.083-1.18-1.622-2.93-1.622-5.251V47.176
		c0-0.314-0.119-0.541-0.354-0.679c-0.236-0.137-0.747-0.207-1.534-0.207h-0.354c-0.197,0-0.365-0.127-0.502-0.383
		c-0.139-0.255-0.207-0.521-0.207-0.797c0-0.078,0.06-0.196,0.178-0.354c0.117-0.157,0.196-0.255,0.236-0.295
		c0.785-0.55,1.504-1.101,2.152-1.652c0.649-0.55,1.24-1.091,1.771-1.623c0.531-0.531,0.974-1.012,1.327-1.445
		c0.197-0.196,0.363-0.363,0.502-0.501c0.137-0.138,0.305-0.207,0.502-0.207c0.195,0,0.383,0.04,0.561,0.118
		c0.177,0.08,0.244,0.256,0.206,0.531l-0.295,2.655c-0.04,0.434,0.06,0.729,0.295,0.885c0.235,0.158,0.609,0.236,1.121,0.236h6.726
		c0.157,0,0.295,0.128,0.413,0.384c0.118,0.256,0.177,0.561,0.177,0.915c0,0.354-0.059,0.699-0.177,1.032
		c-0.118,0.334-0.256,0.501-0.413,0.501h-5.841c-0.983,0-1.622,0.08-1.917,0.236c-0.295,0.158-0.443,0.63-0.443,1.416v11.623
		c0,1.574,0.334,2.813,1.004,3.717c0.668,0.905,1.631,1.357,2.891,1.357c1.141,0,2.025-0.088,2.654-0.266
		c0.629-0.177,1.2-0.442,1.711-0.796c0.079-0.079,0.157-0.118,0.236-0.118c0.157,0,0.266,0.088,0.324,0.266
		c0.06,0.177,0.09,0.364,0.09,0.561c0,0.197-0.325,0.59-0.975,1.18c-0.648,0.59-1.494,1.141-2.537,1.652
		C339.289,67.629,338.157,67.885,336.938,67.885z"/>
	<path fill="#0D4482" d="M346.614,67.236c-0.787,0-1.18-0.215-1.18-0.649c0-0.354,0.452-0.668,1.357-0.944
		c0.59-0.196,1.15-0.452,1.682-0.767c0.531-0.314,0.816-0.865,0.855-1.652V33.665c0-1.062-0.178-1.996-0.531-2.802
		c-0.354-0.806-1.043-1.288-2.064-1.446c-0.354-0.078-0.531-0.354-0.531-0.826c0-0.354,0.156-0.59,0.472-0.708
		c0.55-0.197,1.21-0.413,1.977-0.649c0.767-0.236,1.563-0.501,2.39-0.796s1.553-0.58,2.184-0.855
		c0.156-0.078,0.273-0.118,0.354-0.118c0.117,0,0.215,0.04,0.295,0.118c0.078,0.079,0.117,0.177,0.117,0.295
		c0,0.236-0.049,0.571-0.146,1.003c-0.1,0.434-0.188,1.18-0.266,2.242c-0.08,1.062-0.118,2.655-0.118,4.779v10.266
		c0,0.63,0.029,1.083,0.089,1.357c0.059,0.276,0.166,0.551,0.324,0.826c0.629-0.472,1.406-0.993,2.33-1.563
		c0.924-0.57,1.957-1.071,3.098-1.504c1.141-0.433,2.32-0.649,3.54-0.649c1.927,0,3.53,0.757,4.809,2.271
		c1.278,1.515,1.917,3.432,1.917,5.752v12.39c0,0.788,0.256,1.367,0.768,1.741c0.511,0.374,1.063,0.659,1.652,0.855
		c0.432,0.118,0.767,0.246,1.002,0.383c0.236,0.139,0.354,0.325,0.354,0.561c0,0.434-0.394,0.649-1.18,0.649
		c-0.788,0-1.387-0.029-1.8-0.088c-0.412-0.059-0.807-0.108-1.18-0.147c-0.375-0.039-0.914-0.059-1.623-0.059
		c-0.669,0-1.199,0.021-1.593,0.059c-0.394,0.04-0.796,0.088-1.21,0.147c-0.412,0.059-1.013,0.088-1.799,0.088
		c-0.787,0-1.18-0.215-1.18-0.649c0-0.274,0.117-0.462,0.354-0.561c0.236-0.098,0.57-0.226,1.003-0.383
		c0.591-0.196,1.121-0.481,1.593-0.855c0.473-0.374,0.709-0.953,0.709-1.741V51.011c0-0.983-0.286-1.878-0.855-2.685
		c-0.571-0.806-1.27-1.446-2.096-1.917c-0.825-0.472-1.672-0.708-2.537-0.708c-0.747,0-1.613,0.109-2.596,0.324
		c-0.983,0.217-1.75,0.542-2.301,0.974c-0.629,0.512-1.053,1.042-1.268,1.593c-0.217,0.551-0.325,1.436-0.325,2.655v11.977
		c0.038,0.787,0.284,1.337,0.737,1.652c0.451,0.315,0.974,0.571,1.563,0.767c0.433,0.118,0.757,0.246,0.974,0.383
		c0.216,0.139,0.324,0.325,0.324,0.561c0,0.434-0.393,0.649-1.18,0.649s-1.377-0.029-1.77-0.088
		c-0.395-0.059-0.768-0.108-1.121-0.147c-0.354-0.039-0.885-0.059-1.594-0.059c-0.669,0-1.209,0.021-1.622,0.059
		c-0.413,0.04-0.847,0.088-1.298,0.147C348.02,67.206,347.401,67.236,346.614,67.236z"/>
	<path fill="#0D4482" d="M377.59,67.236c-0.394,0-0.688-0.049-0.886-0.147c-0.197-0.098-0.295-0.265-0.295-0.501
		c0-0.314,0.119-0.521,0.354-0.619c0.235-0.098,0.569-0.207,1.003-0.325c0.747-0.196,1.307-0.481,1.682-0.855
		c0.373-0.374,0.561-0.835,0.561-1.387V50.716c0-1.062-0.158-1.986-0.473-2.773c-0.314-0.786-0.964-1.277-1.946-1.475
		c-0.157-0.039-0.295-0.138-0.413-0.295c-0.118-0.156-0.178-0.314-0.178-0.472c0-0.393,0.178-0.629,0.531-0.708
		c1.023-0.314,2.095-0.776,3.216-1.387c1.121-0.609,1.996-1.111,2.626-1.504c0.236-0.157,0.422-0.266,0.561-0.325
		c0.137-0.059,0.244-0.088,0.324-0.088c0.196,0,0.295,0.138,0.295,0.413c0,0.118-0.01,0.413-0.029,0.885
		c-0.021,0.472-0.04,1.023-0.059,1.652c-0.021,0.629-0.051,1.259-0.09,1.888c0,0.08,0.039,0.118,0.119,0.118
		c0.629-0.786,1.327-1.475,2.094-2.065c0.768-0.59,1.554-1.062,2.36-1.416c0.806-0.354,1.583-0.531,2.331-0.531
		c0.825,0,1.504,0.177,2.035,0.531s0.797,0.807,0.797,1.357c0,0.394-0.109,0.826-0.325,1.298c-0.217,0.472-0.501,0.885-0.855,1.239
		s-0.728,0.531-1.121,0.531c-0.235,0-0.492-0.049-0.767-0.147c-0.275-0.098-0.57-0.226-0.885-0.383
		c-0.316-0.118-0.631-0.236-0.944-0.354c-0.315-0.118-0.63-0.177-0.944-0.177c-0.943,0-1.858,0.335-2.743,1.003
		c-0.886,0.669-1.327,1.986-1.327,3.953v11.918c0,0.512,0.274,0.935,0.826,1.269c0.55,0.335,1.316,0.659,2.301,0.974
		c0.432,0.118,0.767,0.236,1.002,0.354c0.236,0.118,0.354,0.315,0.354,0.59c0,0.434-0.394,0.649-1.18,0.649
		c-1.181,0-2.075-0.049-2.685-0.147c-0.61-0.098-1.426-0.147-2.449-0.147c-0.669,0-1.209,0.021-1.622,0.059
		c-0.413,0.04-0.847,0.088-1.298,0.147C378.995,67.206,378.376,67.236,377.59,67.236z"/>
	<path fill="#0D4482" d="M408.211,67.885c-2.204,0-4.188-0.512-5.959-1.534s-3.177-2.428-4.219-4.218
		c-1.042-1.79-1.563-3.825-1.563-6.107c0-1.652,0.324-3.264,0.974-4.838c0.649-1.573,1.563-3.009,2.743-4.307
		c1.18-1.298,2.557-2.33,4.131-3.097c1.572-0.767,3.264-1.15,5.073-1.15c2.28,0,4.337,0.551,6.165,1.652
		c1.83,1.102,3.284,2.547,4.367,4.336c1.08,1.79,1.622,3.747,1.622,5.871c0,2.282-0.501,4.445-1.505,6.49
		c-1.003,2.046-2.488,3.708-4.454,4.986C413.618,67.245,411.161,67.885,408.211,67.885z M409.45,66.115
		c1.336,0,2.537-0.255,3.599-0.767c1.062-0.511,1.888-1.337,2.478-2.478c0.473-0.904,0.787-2.006,0.944-3.304
		c0.157-1.298,0.235-2.517,0.235-3.658c0-1.888-0.344-3.707-1.031-5.458c-0.689-1.75-1.652-3.186-2.892-4.307
		s-2.704-1.682-4.396-1.682c-1.063,0-2.016,0.168-2.861,0.501c-0.846,0.335-1.623,0.954-2.33,1.859
		c-0.787,0.983-1.299,2.183-1.535,3.599c-0.235,1.416-0.354,2.832-0.354,4.248c0,1.928,0.354,3.767,1.063,5.517
		c0.707,1.75,1.671,3.177,2.891,4.277C406.479,65.565,407.876,66.115,409.45,66.115z"/>
	<path fill="#0D4482" d="M445.204,68.18c-0.276,0-0.414-0.158-0.414-0.472c0-0.394,0.049-0.974,0.148-1.74
		c0.098-0.767,0.146-1.406,0.146-1.917c0-0.079,0-0.148,0-0.207c0-0.059,0-0.108,0-0.147c-1.533,1.495-3.078,2.566-4.631,3.215
		c-1.555,0.649-3.256,0.974-5.104,0.974c-1.26,0-2.4-0.266-3.422-0.797c-1.023-0.531-1.829-1.317-2.42-2.36
		c-0.59-1.042-0.885-2.331-0.885-3.864V48.887c0-0.865-0.197-1.554-0.59-2.065c-0.394-0.511-1.043-0.944-1.947-1.298
		c-0.197-0.078-0.374-0.177-0.531-0.295c-0.156-0.118-0.235-0.333-0.235-0.649c0-0.354,0.089-0.59,0.266-0.708
		s0.384-0.196,0.62-0.236c1.336-0.079,2.369-0.187,3.097-0.325c0.728-0.137,1.642-0.344,2.743-0.62
		c0.119-0.039,0.207-0.059,0.266-0.059c0.06,0,0.127,0,0.207,0c0.432,0,0.629,0.275,0.59,0.826
		c-0.118,0.905-0.207,1.662-0.266,2.271c-0.059,0.61-0.088,1.367-0.088,2.271v11.505c0,0.944,0.235,1.819,0.707,2.625
		c0.473,0.807,1.092,1.465,1.859,1.976c0.767,0.512,1.563,0.767,2.389,0.767c1.023,0,1.918-0.059,2.686-0.177
		c0.767-0.118,1.523-0.452,2.271-1.003c0.432-0.314,0.982-0.826,1.651-1.534s1.003-1.671,1.003-2.891V48.474
		c0-0.826-0.246-1.445-0.737-1.858c-0.492-0.413-1.053-0.698-1.682-0.855c-0.63-0.157-1.142-0.236-1.534-0.236
		c-0.354,0-0.648-0.068-0.885-0.207c-0.236-0.137-0.354-0.403-0.354-0.796c0-0.354,0.127-0.59,0.383-0.708
		c0.256-0.118,0.541-0.177,0.855-0.177c1.219-0.039,2.232-0.089,3.039-0.147c0.805-0.059,1.533-0.157,2.183-0.295
		c0.649-0.137,1.327-0.304,2.036-0.501c0.078-0.039,0.176-0.068,0.295-0.088c0.117-0.02,0.215-0.029,0.295-0.029
		c0.51,0,0.767,0.216,0.767,0.649c0,0.04-0.011,0.109-0.03,0.207c-0.02,0.099-0.049,0.207-0.088,0.324
		c-0.039,0.118-0.088,0.453-0.147,1.003c-0.06,0.551-0.118,1.121-0.177,1.711c-0.059,0.59-0.089,1.042-0.089,1.357v13.629
		c0,1.062,0.108,1.82,0.325,2.271c0.215,0.453,0.461,0.679,0.736,0.679c0.314,0,0.777-0.03,1.387-0.089s1.053-0.088,1.328-0.088
		c0.196,0,0.393,0.04,0.59,0.118c0.196,0.079,0.295,0.295,0.295,0.649c0,0.315-0.079,0.521-0.236,0.62
		c-0.157,0.099-0.354,0.167-0.59,0.207c-1.533,0.197-2.852,0.492-3.953,0.885s-2.085,0.767-2.949,1.121
		c-0.119,0.039-0.295,0.108-0.531,0.207C445.616,68.13,445.399,68.18,445.204,68.18z"/>
	<path fill="#0D4482" d="M466.207,84.169c-3.344,0-5.988-0.64-7.936-1.917c-1.946-1.278-2.921-3-2.921-5.163
		c0-1.023,0.157-1.888,0.473-2.596c0.314-0.708,0.806-1.318,1.475-1.829c0.551-0.472,1.288-1.072,2.213-1.799
		c0.924-0.729,1.878-1.485,2.861-2.271l2.479,0.118c-1.889,1.219-3.207,2.379-3.953,3.481c-0.748,1.101-1.121,2.438-1.121,4.012
		c0,1.573,0.697,2.9,2.094,3.982c1.396,1.082,3.117,1.623,5.163,1.623c2.32,0,4.188-0.531,5.604-1.593
		c0.983-0.748,1.75-1.721,2.301-2.921c0.551-1.2,0.826-2.469,0.826-3.805c0-0.866-0.305-1.584-0.914-2.154
		c-0.61-0.57-1.563-1.032-2.861-1.386c-1.299-0.354-2.99-0.59-5.074-0.708c-3.697-0.276-6.264-0.767-7.699-1.475
		c-1.437-0.708-2.154-1.809-2.154-3.304c0-0.393,0.108-0.757,0.325-1.091c0.216-0.333,0.561-0.698,1.032-1.091
		c0.904-0.708,1.572-1.229,2.006-1.563c0.433-0.334,0.758-0.62,0.974-0.856c0.216-0.236,0.423-0.531,0.62-0.885l2.006,1.003
		c-0.865,0.315-1.594,0.738-2.184,1.269c-0.59,0.531-0.885,1.013-0.885,1.445c0,0.551,0.295,1.033,0.885,1.446
		s1.455,0.737,2.596,0.974c1.141,0.236,2.537,0.413,4.189,0.531c3.619,0.197,6.313,0.787,8.083,1.77s2.655,2.379,2.655,4.189
		c0,1.534-0.384,3.039-1.15,4.514c-0.768,1.475-1.78,2.822-3.039,4.042c-1.259,1.219-2.665,2.192-4.219,2.92
		C469.402,83.805,467.819,84.169,466.207,84.169z M466.561,60.805c-1.613,0-3.147-0.413-4.603-1.239
		c-1.456-0.826-2.646-1.917-3.569-3.274c-0.925-1.357-1.387-2.841-1.387-4.455c0-1.848,0.481-3.471,1.445-4.867
		c0.964-1.396,2.232-2.487,3.806-3.274c1.573-0.787,3.245-1.18,5.015-1.18c1.141,0,2.134,0.147,2.98,0.442
		c0.846,0.295,1.682,0.561,2.508,0.796c0.943,0.276,1.689,0.443,2.241,0.501c0.55,0.059,1.121,0.089,1.711,0.089
		c0.472,0,1.062-0.03,1.771-0.089c0.707-0.059,1.199-0.088,1.475-0.088c0.511,0,0.768,0.295,0.768,0.885
		c0,0.354-0.197,0.728-0.59,1.121c-0.197,0.198-0.354,0.295-0.473,0.295h-1.594c-1.062,0-1.651,0.157-1.77,0.472
		c-0.039,0.158-0.088,0.384-0.147,0.679c-0.059,0.295-0.108,0.62-0.147,0.974s-0.059,0.708-0.059,1.062
		c0,2.006-0.434,3.855-1.299,5.546c-0.865,1.691-2.006,3.048-3.422,4.071C469.805,60.294,468.252,60.805,466.561,60.805z
		 M466.915,58.74c1.494,0,2.733-0.757,3.717-2.271c0.982-1.514,1.475-3.393,1.475-5.635c0-1.14-0.265-2.212-0.796-3.215
		c-0.53-1.003-1.22-1.809-2.065-2.419c-0.846-0.609-1.76-0.915-2.743-0.915c-0.905,0-1.761,0.324-2.566,0.974
		c-0.807,0.649-1.456,1.485-1.946,2.507c-0.492,1.023-0.738,2.144-0.738,3.363c0,1.377,0.256,2.646,0.768,3.806
		c0.51,1.161,1.199,2.085,2.064,2.773C464.948,58.396,465.891,58.74,466.915,58.74z"/>
	<path fill="#0D4482" d="M482.668,67.236c-0.787,0-1.18-0.215-1.18-0.649c0-0.354,0.452-0.668,1.356-0.944
		c0.59-0.196,1.15-0.452,1.682-0.767c0.531-0.314,0.816-0.865,0.855-1.652V33.665c0-1.062-0.177-1.996-0.53-2.802
		c-0.354-0.806-1.043-1.288-2.065-1.446c-0.354-0.078-0.531-0.354-0.531-0.826c0-0.354,0.157-0.59,0.473-0.708
		c0.55-0.197,1.209-0.413,1.977-0.649c0.767-0.236,1.563-0.501,2.389-0.796c0.826-0.295,1.554-0.58,2.184-0.855
		c0.156-0.078,0.274-0.118,0.354-0.118c0.118,0,0.216,0.04,0.295,0.118c0.079,0.079,0.118,0.177,0.118,0.295
		c0,0.236-0.05,0.571-0.147,1.003c-0.099,0.434-0.187,1.18-0.266,2.242s-0.118,2.655-0.118,4.779v10.266
		c0,0.63,0.03,1.083,0.089,1.357c0.06,0.276,0.167,0.551,0.324,0.826c0.629-0.472,1.406-0.993,2.331-1.563
		c0.924-0.57,1.956-1.071,3.098-1.504c1.14-0.433,2.32-0.649,3.54-0.649c1.927,0,3.529,0.757,4.809,2.271
		c1.277,1.515,1.917,3.432,1.917,5.752v12.39c0,0.788,0.256,1.367,0.767,1.741c0.511,0.374,1.063,0.659,1.652,0.855
		c0.433,0.118,0.768,0.246,1.003,0.383c0.236,0.139,0.354,0.325,0.354,0.561c0,0.434-0.394,0.649-1.181,0.649
		s-1.386-0.029-1.799-0.088s-0.807-0.108-1.181-0.147c-0.374-0.039-0.914-0.059-1.622-0.059c-0.669,0-1.2,0.021-1.593,0.059
		c-0.394,0.04-0.797,0.088-1.21,0.147s-1.013,0.088-1.8,0.088s-1.18-0.215-1.18-0.649c0-0.274,0.118-0.462,0.354-0.561
		c0.235-0.098,0.569-0.226,1.003-0.383c0.59-0.196,1.121-0.481,1.593-0.855c0.472-0.374,0.708-0.953,0.708-1.741V51.011
		c0-0.983-0.286-1.878-0.855-2.685c-0.57-0.806-1.269-1.446-2.095-1.917c-0.826-0.472-1.672-0.708-2.537-0.708
		c-0.747,0-1.613,0.109-2.596,0.324c-0.983,0.217-1.751,0.542-2.301,0.974c-0.63,0.512-1.053,1.042-1.269,1.593
		c-0.217,0.551-0.325,1.436-0.325,2.655v11.977c0.039,0.787,0.285,1.337,0.738,1.652c0.451,0.315,0.974,0.571,1.563,0.767
		c0.432,0.118,0.757,0.246,0.974,0.383c0.215,0.139,0.324,0.325,0.324,0.561c0,0.434-0.394,0.649-1.18,0.649
		c-0.788,0-1.378-0.029-1.771-0.088c-0.394-0.059-0.767-0.108-1.121-0.147c-0.354-0.039-0.885-0.059-1.593-0.059
		c-0.669,0-1.21,0.021-1.623,0.059c-0.412,0.04-0.846,0.088-1.298,0.147S483.454,67.236,482.668,67.236z"/>
	<path fill="#0D4482" d="M529.455,67.885c-0.708,0-1.427-0.276-2.154-0.826s-1.337-1.219-1.828-2.006
		c-0.493-0.787-0.738-1.534-0.738-2.242c0-1.258,0.334-2.242,1.003-2.95c0.669-0.708,1.73-1.357,3.187-1.947l6.018-2.478
		c0.787-0.314,1.249-0.59,1.387-0.826c0.138-0.236,0.226-0.747,0.266-1.534l0.118-3.776c0.038-1.022-0.246-1.908-0.855-2.655
		c-0.61-0.747-1.485-1.121-2.626-1.121c-0.59,0-1.18,0.099-1.77,0.295c-0.59,0.198-1.082,0.453-1.476,0.767
		c-0.235,0.158-0.394,0.394-0.472,0.708c-0.079,0.315-0.118,0.649-0.118,1.003c0,0.158,0.01,0.335,0.029,0.531
		c0.02,0.197,0.03,0.374,0.03,0.531c0,0.197-0.246,0.463-0.738,0.797c-0.492,0.334-1.042,0.629-1.651,0.885
		c-0.61,0.256-1.112,0.384-1.505,0.384c-0.197,0-0.354-0.049-0.472-0.148c-0.118-0.098-0.177-0.226-0.177-0.383
		c0-0.629,0.206-1.307,0.619-2.036c0.413-0.727,0.993-1.406,1.74-2.035c0.904-0.826,1.889-1.554,2.95-2.183
		c1.063-0.629,2.104-1.121,3.127-1.475c1.022-0.354,1.927-0.531,2.714-0.531c1.416,0,2.586,0.501,3.511,1.504
		c0.924,1.003,1.366,2.252,1.327,3.747l-0.295,14.16c-0.039,0.826,0.147,1.496,0.561,2.006c0.413,0.511,0.935,0.767,1.563,0.767
		c0.983,0,1.711-0.215,2.184-0.649c0.196-0.196,0.354-0.295,0.472-0.295c0.196,0,0.354,0.059,0.472,0.177
		c0.118,0.118,0.178,0.275,0.178,0.472c0,0.434-0.217,0.866-0.649,1.298c-0.63,0.629-1.309,1.131-2.035,1.504
		c-0.729,0.373-1.407,0.561-2.036,0.561c-1.81,0-3.245-1.022-4.307-3.068h-0.177c-1.298,1.062-2.537,1.839-3.718,2.331
		C531.932,67.639,530.713,67.885,529.455,67.885z M532.227,65.053c0.786,0,1.455-0.127,2.006-0.384
		c0.551-0.255,1.042-0.599,1.476-1.032c0.196-0.196,0.363-0.462,0.501-0.796c0.138-0.334,0.227-0.875,0.266-1.623l0.118-2.891
		c0.039-0.433,0.02-0.747-0.059-0.944c-0.08-0.197-0.236-0.295-0.473-0.295c-0.079,0-0.217,0.021-0.413,0.059
		c-0.197,0.04-0.452,0.118-0.767,0.236c-2.085,0.748-3.531,1.524-4.337,2.33c-0.807,0.807-1.209,1.544-1.209,2.213
		c0,1.023,0.304,1.799,0.914,2.33C530.86,64.787,531.519,65.053,532.227,65.053z"/>
	<path fill="#0D4482" d="M346.85,140.18c-0.078,0-0.206-0.08-0.383-0.236c-0.178-0.157-0.266-0.275-0.266-0.354
		c0-0.395,0.049-0.953,0.147-1.682c0.098-0.728,0.147-1.348,0.147-1.858v-0.354c-0.59,0.906-1.534,1.829-2.832,2.773
		c-1.298,0.943-2.931,1.416-4.896,1.416c-2.242,0-4.18-0.59-5.813-1.77c-1.633-1.181-2.891-2.694-3.775-4.543
		c-0.885-1.849-1.328-3.756-1.328-5.724c0-2.281,0.531-4.425,1.594-6.431c1.063-2.006,2.586-3.638,4.572-4.897
		c1.986-1.258,4.355-1.888,7.109-1.888c0.787,0,1.583,0.069,2.39,0.206c0.806,0.139,1.425,0.286,1.858,0.443
		c0.354,0.118,0.609,0.177,0.768,0.177c0.274,0,0.412-0.472,0.412-1.416v-8.378c0-1.612-0.256-2.694-0.767-3.245
		c-0.512-0.55-1.239-0.904-2.183-1.062c-0.354-0.078-0.531-0.333-0.531-0.767c0-0.354,0.156-0.59,0.472-0.708
		c1.73-0.433,3.087-0.846,4.071-1.239c0.982-0.393,1.75-0.708,2.301-0.944c0.156-0.079,0.305-0.127,0.443-0.147
		c0.137-0.02,0.244-0.03,0.324-0.03c0.235,0,0.373,0.118,0.412,0.354c0,0.236-0.029,0.64-0.088,1.209
		c-0.059,0.571-0.129,1.407-0.207,2.508c-0.079,1.102-0.117,2.537-0.117,4.307v26.668c0,1.338,0.098,2.312,0.295,2.921
		c0.195,0.61,0.51,0.915,0.943,0.915c0.197,0,0.541-0.02,1.033-0.06c0.49-0.039,0.992-0.079,1.504-0.118
		c0.708-0.039,1.063,0.139,1.063,0.531c0,0.275-0.089,0.521-0.266,0.737c-0.178,0.217-0.364,0.325-0.561,0.325
		c-1.102,0.156-2.184,0.383-3.245,0.678s-2.282,0.737-3.658,1.328c-0.315,0.156-0.521,0.255-0.619,0.295
		C347.077,140.159,346.969,140.18,346.85,140.18z M340.891,136.817c1.023,0,2.025-0.266,3.01-0.797
		c0.982-0.53,1.848-1.229,2.596-2.094l0.059-10.62c0-1.062-0.305-2.104-0.914-3.127c-0.61-1.022-1.455-1.858-2.537-2.508
		c-1.082-0.649-2.351-0.973-3.805-0.973c-0.906,0-1.928,0.275-3.068,0.826c-1.142,0.551-2.125,1.525-2.95,2.921
		c-0.826,1.396-1.239,3.413-1.239,6.047c0,2.242,0.334,4.042,1.003,5.398s1.484,2.389,2.448,3.098
		c0.964,0.707,1.947,1.189,2.95,1.445S340.262,136.817,340.891,136.817z"/>
	<path fill="#0D4482" d="M358.238,139.236c-0.354,0-0.64-0.05-0.855-0.147c-0.217-0.098-0.325-0.266-0.325-0.502
		c0-0.313,0.148-0.53,0.443-0.648c0.295-0.117,0.599-0.216,0.914-0.295c0.826-0.196,1.455-0.442,1.889-0.737
		c0.432-0.296,0.648-0.797,0.648-1.505v-12.803c0-1.062-0.188-2.006-0.561-2.832c-0.375-0.826-1.072-1.317-2.095-1.475
		c-0.197-0.039-0.345-0.118-0.442-0.236c-0.099-0.118-0.147-0.295-0.147-0.531c0-0.432,0.177-0.668,0.531-0.708
		c1.573-0.354,2.87-0.835,3.894-1.445c1.022-0.609,1.789-1.111,2.301-1.504c0.354-0.275,0.629-0.413,0.826-0.413
		c0.236,0,0.354,0.099,0.354,0.295c0,0.315-0.05,0.935-0.147,1.858c-0.099,0.925-0.188,1.947-0.266,3.068
		c-0.08,1.121-0.118,2.134-0.118,3.038v13.688c0,0.67,0.226,1.16,0.679,1.475c0.451,0.316,1.071,0.571,1.858,0.768
		c0.314,0.079,0.62,0.178,0.915,0.295c0.295,0.118,0.441,0.335,0.441,0.648c0,0.434-0.393,0.649-1.18,0.649
		c-0.748,0-1.348-0.029-1.799-0.089c-0.453-0.059-0.885-0.107-1.299-0.146c-0.412-0.039-0.973-0.06-1.682-0.06
		c-0.669,0-1.219,0.021-1.651,0.06c-0.434,0.039-0.866,0.088-1.298,0.146C359.634,139.206,359.024,139.236,358.238,139.236z
		 M362.958,108.615c-0.826,0-1.525-0.285-2.094-0.855c-0.571-0.57-0.855-1.269-0.855-2.095c0-0.865,0.284-1.583,0.855-2.153
		c0.568-0.57,1.268-0.855,2.094-0.855c0.865,0,1.583,0.286,2.154,0.855c0.568,0.57,0.855,1.289,0.855,2.153
		c0,0.826-0.287,1.525-0.855,2.095C364.541,108.33,363.823,108.615,362.958,108.615z"/>
	<path fill="#0D4482" d="M376.999,139.885c-0.707,0-1.426-0.275-2.152-0.826c-0.729-0.551-1.338-1.219-1.83-2.006
		s-0.736-1.534-0.736-2.242c0-1.258,0.333-2.242,1.002-2.95c0.669-0.708,1.73-1.357,3.187-1.947l6.019-2.478
		c0.785-0.314,1.248-0.59,1.386-0.826c0.138-0.236,0.226-0.747,0.266-1.534l0.118-3.776c0.039-1.022-0.246-1.908-0.855-2.655
		c-0.61-0.747-1.485-1.121-2.625-1.121c-0.591,0-1.181,0.099-1.771,0.295c-0.591,0.198-1.083,0.453-1.476,0.767
		c-0.235,0.158-0.393,0.394-0.472,0.708c-0.079,0.315-0.118,0.649-0.118,1.003c0,0.158,0.01,0.335,0.029,0.531
		c0.02,0.197,0.029,0.374,0.029,0.531c0,0.197-0.246,0.463-0.736,0.797c-0.492,0.334-1.043,0.629-1.652,0.885
		c-0.61,0.256-1.111,0.384-1.505,0.384c-0.197,0-0.354-0.049-0.472-0.148c-0.118-0.098-0.178-0.226-0.178-0.383
		c0-0.629,0.207-1.307,0.62-2.036c0.413-0.727,0.993-1.406,1.741-2.035c0.904-0.826,1.887-1.554,2.949-2.183
		c1.063-0.629,2.104-1.121,3.127-1.475c1.022-0.354,1.927-0.531,2.715-0.531c1.415,0,2.585,0.501,3.51,1.504
		c0.924,1.003,1.366,2.252,1.328,3.747l-0.295,14.159c-0.041,0.826,0.146,1.496,0.56,2.007s0.935,0.767,1.563,0.767
		c0.982,0,1.711-0.215,2.184-0.648c0.195-0.197,0.354-0.295,0.472-0.295c0.196,0,0.354,0.059,0.472,0.177
		c0.118,0.118,0.178,0.275,0.178,0.472c0,0.434-0.217,0.865-0.649,1.299c-0.63,0.629-1.308,1.131-2.036,1.504
		c-0.728,0.373-1.406,0.561-2.035,0.561c-1.81,0-3.244-1.022-4.307-3.068h-0.178c-1.297,1.063-2.536,1.84-3.717,2.33
		C379.477,139.639,378.258,139.885,376.999,139.885z M379.772,137.053c0.787,0,1.455-0.127,2.006-0.384
		c0.551-0.255,1.042-0.599,1.476-1.032c0.196-0.196,0.362-0.462,0.501-0.797c0.138-0.334,0.227-0.875,0.266-1.622l0.118-2.891
		c0.038-0.433,0.02-0.747-0.06-0.944c-0.078-0.197-0.235-0.295-0.471-0.295c-0.08,0-0.217,0.021-0.414,0.059
		c-0.197,0.04-0.452,0.118-0.767,0.236c-2.085,0.748-3.53,1.524-4.337,2.33c-0.807,0.807-1.209,1.545-1.209,2.213
		c0,1.023,0.305,1.799,0.914,2.33S379.064,137.053,379.772,137.053z"/>
	<path fill="#0D4482" d="M395.937,139.236c-0.197,0-0.442-0.029-0.737-0.089c-0.295-0.059-0.442-0.206-0.442-0.441
		c0-0.314,0.147-0.541,0.442-0.68c0.295-0.137,0.6-0.265,0.914-0.383c0.59-0.196,1.16-0.422,1.711-0.679
		c0.551-0.255,0.826-0.776,0.826-1.563v-29.736c0-1.14-0.206-2.094-0.619-2.861s-1.111-1.249-2.095-1.446
		c-0.315-0.078-0.472-0.333-0.472-0.767c0-0.393,0.137-0.629,0.413-0.708c1.022-0.236,1.907-0.481,2.655-0.738
		c0.746-0.255,1.445-0.521,2.094-0.796c0.649-0.275,1.288-0.531,1.918-0.767c0.156-0.078,0.274-0.118,0.354-0.118
		c0.078,0,0.148,0.05,0.207,0.148c0.059,0.099,0.088,0.187,0.088,0.265c0,0.354-0.068,1.112-0.206,2.271
		c-0.138,1.161-0.206,3.078-0.206,5.752v29.5c0,0.787,0.274,1.309,0.826,1.563c0.55,0.257,1.12,0.482,1.711,0.679
		c0.314,0.118,0.619,0.246,0.914,0.383c0.295,0.139,0.442,0.365,0.442,0.68c0,0.235-0.147,0.383-0.442,0.441
		c-0.295,0.06-0.541,0.089-0.738,0.089c-0.747,0-1.348-0.029-1.799-0.089c-0.453-0.059-0.885-0.107-1.298-0.146
		s-0.974-0.06-1.682-0.06c-0.669,0-1.22,0.021-1.651,0.06c-0.434,0.039-0.866,0.088-1.299,0.146
		C397.333,139.206,396.723,139.236,395.937,139.236z"/>
	<path fill="#0D4482" d="M421.602,139.885c-2.204,0-4.189-0.512-5.959-1.534c-1.771-1.022-3.178-2.429-4.219-4.218
		c-1.043-1.79-1.564-3.826-1.564-6.107c0-1.652,0.325-3.264,0.975-4.838c0.648-1.573,1.563-3.009,2.743-4.307
		c1.18-1.298,2.556-2.33,4.13-3.097c1.572-0.767,3.264-1.15,5.074-1.15c2.28,0,4.336,0.551,6.165,1.652
		c1.829,1.102,3.284,2.547,4.366,4.336c1.081,1.79,1.623,3.747,1.623,5.871c0,2.282-0.502,4.445-1.505,6.49
		c-1.003,2.046-2.488,3.708-4.454,4.985C427.01,139.244,424.552,139.885,421.602,139.885z M422.841,138.115
		c1.337,0,2.537-0.256,3.6-0.768c1.062-0.511,1.888-1.337,2.478-2.479c0.472-0.904,0.786-2.006,0.944-3.304
		c0.156-1.298,0.235-2.517,0.235-3.658c0-1.888-0.345-3.707-1.032-5.458c-0.688-1.75-1.652-3.186-2.891-4.307
		c-1.239-1.121-2.705-1.682-4.396-1.682c-1.062,0-2.016,0.168-2.861,0.501c-0.846,0.335-1.622,0.954-2.33,1.859
		c-0.787,0.983-1.298,2.183-1.534,3.599c-0.235,1.416-0.354,2.832-0.354,4.248c0,1.928,0.354,3.767,1.063,5.517
		c0.708,1.75,1.672,3.176,2.891,4.278S421.266,138.115,422.841,138.115z"/>
	<path fill="#0D4482" d="M448.505,156.168c-3.344,0-5.988-0.639-7.936-1.917c-1.946-1.278-2.92-2.999-2.92-5.163
		c0-1.022,0.156-1.887,0.473-2.596c0.314-0.707,0.805-1.318,1.475-1.828c0.551-0.473,1.287-1.072,2.213-1.8
		c0.924-0.729,1.877-1.485,2.861-2.271l2.478,0.118c-1.888,1.219-3.206,2.379-3.953,3.48s-1.12,2.438-1.12,4.012
		s0.697,2.9,2.094,3.982s3.117,1.623,5.162,1.623c2.32,0,4.189-0.531,5.605-1.593c0.982-0.748,1.75-1.722,2.301-2.921
		c0.551-1.2,0.826-2.469,0.826-3.805c0-0.866-0.305-1.584-0.914-2.154c-0.611-0.57-1.564-1.032-2.861-1.387
		c-1.299-0.354-2.99-0.59-5.074-0.707c-3.698-0.276-6.265-0.768-7.699-1.476c-1.438-0.708-2.154-1.809-2.154-3.304
		c0-0.393,0.107-0.758,0.324-1.092s0.561-0.697,1.033-1.092c0.904-0.707,1.572-1.229,2.006-1.563
		c0.432-0.334,0.757-0.62,0.973-0.856c0.217-0.236,0.423-0.531,0.62-0.885l2.006,1.003c-0.865,0.315-1.593,0.738-2.183,1.269
		c-0.59,0.531-0.885,1.013-0.885,1.445c0,0.552,0.295,1.032,0.885,1.446c0.59,0.412,1.455,0.736,2.596,0.973
		s2.537,0.413,4.189,0.531c3.618,0.197,6.313,0.787,8.082,1.77c1.771,0.983,2.656,2.38,2.656,4.189c0,1.534-0.385,3.039-1.15,4.514
		c-0.768,1.475-1.781,2.822-3.039,4.041c-1.26,1.219-2.666,2.192-4.219,2.921C451.7,155.805,450.118,156.168,448.505,156.168z
		 M448.859,132.805c-1.613,0-3.147-0.413-4.603-1.239c-1.455-0.826-2.645-1.917-3.568-3.274c-0.926-1.357-1.387-2.841-1.387-4.455
		c0-1.848,0.48-3.471,1.445-4.867c0.963-1.396,2.232-2.487,3.805-3.274c1.573-0.787,3.246-1.18,5.016-1.18
		c1.141,0,2.133,0.147,2.979,0.442c0.846,0.295,1.682,0.561,2.508,0.796c0.944,0.276,1.69,0.443,2.241,0.501
		c0.551,0.059,1.121,0.089,1.711,0.089c0.473,0,1.063-0.03,1.771-0.089c0.708-0.059,1.2-0.088,1.476-0.088
		c0.51,0,0.767,0.295,0.767,0.885c0,0.354-0.197,0.728-0.59,1.121c-0.197,0.198-0.354,0.295-0.472,0.295h-1.594
		c-1.063,0-1.652,0.157-1.77,0.472c-0.04,0.158-0.089,0.384-0.148,0.679c-0.059,0.295-0.107,0.62-0.146,0.974
		c-0.04,0.354-0.059,0.708-0.059,1.062c0,2.006-0.434,3.855-1.299,5.546c-0.865,1.691-2.006,3.048-3.422,4.071
		C452.104,132.294,450.55,132.805,448.859,132.805z M449.214,130.74c1.494,0,2.732-0.757,3.717-2.271
		c0.982-1.514,1.475-3.393,1.475-5.635c0-1.14-0.266-2.212-0.797-3.215c-0.53-1.003-1.219-1.809-2.064-2.419
		c-0.846-0.609-1.761-0.915-2.744-0.915c-0.904,0-1.76,0.324-2.566,0.974c-0.807,0.649-1.455,1.485-1.946,2.507
		c-0.492,1.023-0.737,2.144-0.737,3.363c0,1.377,0.255,2.646,0.767,3.806c0.511,1.161,1.199,2.085,2.065,2.773
		C447.246,130.396,448.19,130.74,449.214,130.74z"/>
	<path fill="#0D4482" d="M484.26,140.18c-0.276,0-0.413-0.158-0.413-0.473c0-0.393,0.049-0.973,0.147-1.74
		c0.098-0.767,0.147-1.406,0.147-1.917c0-0.079,0-0.147,0-0.206c0-0.06,0-0.108,0-0.148c-1.534,1.496-3.078,2.566-4.631,3.216
		c-1.555,0.649-3.256,0.974-5.104,0.974c-1.26,0-2.4-0.266-3.423-0.797s-1.829-1.317-2.419-2.359s-0.885-2.331-0.885-3.865v-11.977
		c0-0.865-0.197-1.554-0.59-2.065c-0.395-0.511-1.043-0.944-1.947-1.298c-0.197-0.078-0.375-0.177-0.531-0.295
		c-0.157-0.118-0.236-0.333-0.236-0.649c0-0.354,0.089-0.59,0.266-0.708c0.178-0.118,0.384-0.196,0.62-0.236
		c1.337-0.079,2.369-0.187,3.097-0.325c0.729-0.137,1.643-0.344,2.744-0.62c0.118-0.039,0.207-0.059,0.266-0.059s0.127,0,0.207,0
		c0.432,0,0.628,0.275,0.59,0.826c-0.119,0.905-0.207,1.662-0.266,2.271c-0.06,0.61-0.089,1.367-0.089,2.271v11.505
		c0,0.944,0.235,1.819,0.708,2.626s1.092,1.465,1.858,1.976c0.767,0.512,1.563,0.767,2.39,0.767c1.022,0,1.918-0.059,2.685-0.176
		c0.767-0.119,1.524-0.452,2.271-1.004c0.433-0.314,0.982-0.826,1.651-1.533c0.669-0.709,1.004-1.672,1.004-2.892v-10.797
		c0-0.826-0.246-1.445-0.738-1.858s-1.053-0.698-1.682-0.855c-0.629-0.157-1.141-0.236-1.533-0.236
		c-0.354,0-0.649-0.068-0.885-0.207c-0.236-0.137-0.354-0.403-0.354-0.796c0-0.354,0.128-0.59,0.384-0.708
		c0.255-0.118,0.54-0.177,0.855-0.177c1.219-0.039,2.231-0.089,3.038-0.147c0.806-0.059,1.534-0.157,2.184-0.295
		c0.648-0.137,1.327-0.304,2.035-0.501c0.078-0.039,0.177-0.068,0.295-0.088c0.118-0.02,0.216-0.029,0.295-0.029
		c0.511,0,0.767,0.216,0.767,0.649c0,0.04-0.01,0.109-0.029,0.207c-0.021,0.099-0.05,0.207-0.088,0.324
		c-0.04,0.118-0.089,0.453-0.147,1.003c-0.06,0.551-0.118,1.121-0.178,1.711c-0.059,0.59-0.088,1.042-0.088,1.357v13.628
		c0,1.063,0.107,1.82,0.324,2.271c0.216,0.453,0.462,0.68,0.737,0.68c0.314,0,0.776-0.03,1.387-0.09
		c0.609-0.059,1.052-0.088,1.327-0.088c0.196,0,0.393,0.039,0.59,0.118s0.296,0.295,0.296,0.649c0,0.314-0.08,0.521-0.236,0.619
		c-0.158,0.099-0.354,0.168-0.59,0.207c-1.534,0.197-2.853,0.492-3.953,0.885c-1.102,0.393-2.085,0.767-2.95,1.121
		c-0.118,0.038-0.295,0.107-0.531,0.206C484.673,140.13,484.456,140.18,484.26,140.18z"/>
	<path fill="#0D4482" d="M506.325,139.944c-2.164,0-4.052-0.531-5.664-1.593c-1.613-1.062-2.872-2.566-3.776-4.514
		c-0.905-1.947-1.357-4.198-1.357-6.755c0-2.281,0.521-4.356,1.564-6.225c1.041-1.868,2.428-3.372,4.159-4.513
		c1.73-1.141,3.618-1.711,5.664-1.711c1.572,0,2.969,0.315,4.188,0.944c1.219,0.629,2.173,1.504,2.861,2.625s1.033,2.41,1.033,3.864
		c0,1.22-0.59,1.829-1.771,1.829h-12.448c-0.552,0-0.936,0.147-1.151,0.442c-0.216,0.295-0.324,0.876-0.324,1.741
		c0,1.888,0.413,3.609,1.239,5.163s1.927,2.793,3.304,3.717c1.377,0.925,2.892,1.387,4.543,1.387c1.18,0,2.251-0.226,3.216-0.679
		c0.963-0.451,1.818-1.111,2.566-1.977c0.156-0.196,0.274-0.324,0.354-0.383c0.079-0.06,0.178-0.089,0.296-0.089
		c0.313,0,0.472,0.197,0.472,0.59c0,0.747-0.354,1.573-1.063,2.478c-0.59,0.748-1.298,1.396-2.124,1.947
		c-0.825,0.551-1.73,0.974-2.714,1.269S507.386,139.944,506.325,139.944z M500.896,122.067h5.369c0.944,0,1.75-0.019,2.419-0.059
		c0.669-0.039,1.317-0.118,1.947-0.236c0.196-0.039,0.324-0.167,0.384-0.383c0.059-0.216,0.088-0.521,0.088-0.915
		c0-1.141-0.501-2.114-1.504-2.92c-1.003-0.806-2.193-1.209-3.569-1.209c-0.905,0-1.811,0.265-2.715,0.796
		c-0.905,0.531-1.651,1.19-2.241,1.977c-0.591,0.787-0.886,1.574-0.886,2.36C500.188,121.87,500.425,122.067,500.896,122.067z"/>
	<path fill="#0D4482" d="M542.373,139.885c-2.203,0-4.188-0.512-5.959-1.534c-1.77-1.022-3.177-2.429-4.218-4.218
		c-1.043-1.79-1.563-3.826-1.563-6.107c0-1.652,0.324-3.264,0.973-4.838c0.649-1.573,1.563-3.009,2.744-4.307
		c1.18-1.298,2.556-2.33,4.13-3.097c1.572-0.767,3.265-1.15,5.074-1.15c2.28,0,4.336,0.551,6.165,1.652
		c1.829,1.102,3.284,2.547,4.366,4.336c1.081,1.79,1.622,3.747,1.622,5.871c0,2.282-0.501,4.445-1.504,6.49
		c-1.003,2.046-2.488,3.708-4.455,4.985S545.323,139.885,542.373,139.885z M543.612,138.115c1.337,0,2.537-0.256,3.599-0.768
		c1.063-0.511,1.889-1.337,2.479-2.479c0.472-0.904,0.786-2.006,0.944-3.304c0.156-1.298,0.235-2.517,0.235-3.658
		c0-1.888-0.345-3.707-1.032-5.458c-0.688-1.75-1.652-3.186-2.891-4.307c-1.239-1.121-2.705-1.682-4.396-1.682
		c-1.063,0-2.017,0.168-2.862,0.501c-0.846,0.335-1.622,0.954-2.33,1.859c-0.787,0.983-1.298,2.183-1.534,3.599
		c-0.235,1.416-0.354,2.832-0.354,4.248c0,1.928,0.354,3.767,1.062,5.517c0.708,1.75,1.672,3.176,2.892,4.278
		C540.642,137.565,542.039,138.115,543.612,138.115z"/>
	<path fill="#0D4482" d="M560.368,139.236c-0.354,0-0.64-0.05-0.855-0.147c-0.217-0.098-0.324-0.266-0.324-0.502
		c0-0.313,0.118-0.52,0.354-0.619c0.236-0.098,0.57-0.206,1.004-0.324c0.59-0.156,1.159-0.373,1.711-0.648
		c0.55-0.275,0.825-0.807,0.825-1.594v-12.685c0-1.062-0.108-1.967-0.324-2.714c-0.217-0.747-0.836-1.258-1.858-1.534
		c-0.157-0.079-0.295-0.167-0.413-0.266c-0.118-0.098-0.177-0.266-0.177-0.501c0-0.433,0.177-0.668,0.531-0.708
		c1.376-0.354,2.497-0.787,3.362-1.298c0.865-0.511,1.711-1.082,2.537-1.711c0.118-0.078,0.227-0.147,0.325-0.207
		c0.098-0.059,0.206-0.088,0.324-0.088c0.078,0,0.147,0.04,0.206,0.118c0.06,0.079,0.089,0.177,0.089,0.295
		c0,0.276-0.05,0.836-0.147,1.682c-0.099,0.846-0.147,1.544-0.147,2.094c0,0.158,0.009,0.305,0.029,0.443
		c0.02,0.138,0.049,0.227,0.089,0.265c1.376-1.298,2.841-2.281,4.396-2.95c1.553-0.668,3.254-1.003,5.104-1.003
		c1.927,0,3.52,0.787,4.778,2.36c1.259,1.574,1.889,3.521,1.889,5.841v12.567c0,0.787,0.274,1.309,0.825,1.563
		c0.551,0.257,1.121,0.482,1.712,0.679c0.313,0.118,0.619,0.246,0.914,0.383c0.295,0.139,0.442,0.365,0.442,0.68
		c0,0.235-0.139,0.383-0.413,0.441c-0.275,0.06-0.531,0.089-0.767,0.089c-0.787,0-1.396-0.029-1.829-0.089
		c-0.434-0.059-0.847-0.107-1.239-0.146c-0.394-0.039-0.944-0.06-1.652-0.06c-0.669,0-1.219,0.021-1.651,0.06
		c-0.434,0.039-0.876,0.088-1.328,0.146c-0.452,0.06-1.071,0.089-1.858,0.089c-0.197,0-0.442-0.029-0.737-0.089
		c-0.295-0.059-0.442-0.206-0.442-0.441c0-0.314,0.147-0.541,0.442-0.68c0.295-0.137,0.6-0.265,0.915-0.383
		c0.59-0.196,1.159-0.422,1.711-0.679c0.55-0.255,0.826-0.776,0.826-1.563v-12.39c0-1.73-0.482-3.077-1.446-4.042
		c-0.964-0.963-2.252-1.465-3.864-1.505c-1.416,0-2.655,0.227-3.717,0.679c-1.063,0.453-2.006,1.013-2.832,1.682
		c-0.158,0.158-0.275,0.364-0.354,0.62c-0.079,0.256-0.117,0.501-0.117,0.737v14.219c0,0.787,0.274,1.318,0.825,1.594
		s1.121,0.492,1.711,0.648c0.905,0.236,1.357,0.551,1.357,0.943c0,0.236-0.099,0.404-0.295,0.502
		c-0.197,0.098-0.492,0.147-0.885,0.147c-0.787,0-1.407-0.029-1.858-0.089c-0.453-0.059-0.876-0.107-1.269-0.146
		c-0.394-0.039-0.944-0.06-1.652-0.06c-0.669,0-1.21,0.021-1.622,0.06c-0.413,0.039-0.847,0.088-1.299,0.146
		C561.774,139.206,561.155,139.236,560.368,139.236z"/>
	<path fill="#0D4482" d="M332.69,211.885c-0.707,0-1.426-0.275-2.152-0.826c-0.729-0.551-1.338-1.219-1.83-2.006
		s-0.736-1.534-0.736-2.242c0-1.258,0.333-2.242,1.002-2.95s1.73-1.356,3.187-1.946l6.019-2.479c0.785-0.314,1.248-0.59,1.386-0.826
		s0.226-0.746,0.266-1.533l0.118-3.776c0.039-1.022-0.246-1.907-0.855-2.655c-0.61-0.746-1.485-1.121-2.625-1.121
		c-0.591,0-1.181,0.099-1.771,0.295c-0.591,0.197-1.083,0.453-1.476,0.768c-0.235,0.157-0.393,0.393-0.472,0.707
		c-0.079,0.316-0.118,0.649-0.118,1.004c0,0.157,0.01,0.334,0.029,0.531s0.029,0.373,0.029,0.53c0,0.197-0.246,0.463-0.736,0.797
		c-0.492,0.335-1.043,0.63-1.652,0.885c-0.61,0.257-1.111,0.384-1.505,0.384c-0.197,0-0.354-0.049-0.472-0.148
		c-0.118-0.098-0.178-0.225-0.178-0.383c0-0.629,0.207-1.307,0.62-2.035c0.413-0.728,0.993-1.406,1.741-2.035
		c0.904-0.826,1.887-1.555,2.949-2.184s2.104-1.121,3.127-1.475c1.022-0.354,1.927-0.531,2.715-0.531
		c1.415,0,2.585,0.502,3.51,1.504c0.924,1.004,1.366,2.252,1.328,3.747l-0.295,14.159c-0.041,0.826,0.146,1.496,0.56,2.007
		s0.935,0.767,1.563,0.767c0.982,0,1.711-0.215,2.184-0.648c0.195-0.197,0.354-0.295,0.472-0.295c0.196,0,0.354,0.059,0.472,0.177
		c0.118,0.118,0.178,0.275,0.178,0.472c0,0.434-0.217,0.865-0.649,1.299c-0.63,0.629-1.308,1.131-2.036,1.504
		c-0.728,0.373-1.406,0.561-2.035,0.561c-1.81,0-3.244-1.022-4.307-3.068h-0.178c-1.297,1.063-2.536,1.84-3.717,2.33
		C335.169,211.639,333.949,211.885,332.69,211.885z M335.464,209.053c0.787,0,1.455-0.127,2.006-0.384
		c0.551-0.255,1.042-0.599,1.476-1.032c0.196-0.196,0.362-0.462,0.501-0.797c0.138-0.334,0.227-0.875,0.266-1.622l0.118-2.892
		c0.038-0.432,0.02-0.746-0.06-0.943c-0.078-0.197-0.235-0.295-0.471-0.295c-0.08,0-0.217,0.02-0.414,0.059
		s-0.452,0.118-0.767,0.236c-2.085,0.748-3.53,1.524-4.337,2.33c-0.807,0.807-1.209,1.545-1.209,2.213
		c0,1.023,0.305,1.799,0.914,2.33S334.756,209.053,335.464,209.053z"/>
	<path fill="#0D4482" d="M351.925,211.236c-0.354,0-0.641-0.05-0.855-0.147c-0.217-0.098-0.325-0.266-0.325-0.502
		c0-0.313,0.118-0.52,0.354-0.619c0.235-0.098,0.569-0.206,1.002-0.324c0.59-0.156,1.16-0.373,1.711-0.648s0.826-0.807,0.826-1.594
		v-12.685c0-1.062-0.108-1.967-0.324-2.714c-0.217-0.747-0.836-1.259-1.858-1.534c-0.157-0.079-0.295-0.167-0.413-0.266
		c-0.117-0.098-0.177-0.266-0.177-0.501c0-0.434,0.177-0.669,0.53-0.709c1.377-0.354,2.498-0.786,3.363-1.297
		c0.865-0.512,1.711-1.082,2.537-1.712c0.118-0.078,0.227-0.147,0.324-0.206s0.207-0.089,0.325-0.089
		c0.078,0,0.147,0.04,0.206,0.118c0.059,0.079,0.089,0.177,0.089,0.295c0,0.275-0.05,0.836-0.147,1.682
		c-0.099,0.846-0.147,1.544-0.147,2.094c0,0.158,0.009,0.306,0.029,0.443c0.02,0.139,0.049,0.227,0.089,0.266
		c1.376-1.299,2.841-2.281,4.395-2.95c1.555-0.669,3.255-1.003,5.104-1.003c1.928,0,3.521,0.787,4.779,2.359
		c1.259,1.574,1.889,3.521,1.889,5.842v12.566c0,0.787,0.274,1.309,0.826,1.563c0.55,0.257,1.121,0.482,1.711,0.679
		c0.314,0.118,0.619,0.246,0.914,0.383c0.295,0.139,0.442,0.365,0.442,0.68c0,0.235-0.138,0.383-0.413,0.441
		c-0.275,0.06-0.531,0.089-0.767,0.089c-0.788,0-1.397-0.029-1.829-0.089c-0.434-0.059-0.846-0.107-1.239-0.146
		s-0.944-0.06-1.651-0.06c-0.67,0-1.221,0.021-1.652,0.06c-0.434,0.039-0.876,0.088-1.328,0.146
		c-0.452,0.06-1.072,0.089-1.857,0.089c-0.197,0-0.443-0.029-0.738-0.089c-0.295-0.059-0.442-0.206-0.442-0.441
		c0-0.314,0.147-0.541,0.442-0.68c0.295-0.137,0.6-0.265,0.914-0.383c0.591-0.196,1.16-0.422,1.711-0.679
		c0.551-0.255,0.826-0.776,0.826-1.563v-12.39c0-1.73-0.481-3.077-1.445-4.042c-0.964-0.963-2.252-1.465-3.864-1.504
		c-1.416,0-2.655,0.227-3.717,0.678c-1.062,0.453-2.007,1.014-2.832,1.682c-0.157,0.158-0.276,0.365-0.354,0.62
		c-0.079,0.256-0.117,0.501-0.117,0.737v14.219c0,0.787,0.274,1.318,0.826,1.594c0.55,0.275,1.121,0.492,1.711,0.648
		c0.904,0.236,1.356,0.551,1.356,0.943c0,0.236-0.099,0.404-0.295,0.502c-0.197,0.098-0.492,0.147-0.886,0.147
		c-0.787,0-1.406-0.029-1.857-0.089c-0.453-0.059-0.876-0.107-1.27-0.146c-0.393-0.039-0.943-0.06-1.651-0.06
		c-0.669,0-1.21,0.021-1.622,0.06c-0.414,0.039-0.847,0.088-1.299,0.146C353.33,211.206,352.71,211.236,351.925,211.236z"/>
	<path fill="#0D4482" d="M413.874,212.18c-0.275,0-0.413-0.158-0.413-0.473c0-0.393,0.049-0.973,0.147-1.74
		c0.098-0.767,0.147-1.406,0.147-1.917c0-0.079,0-0.147,0-0.206c0-0.06,0-0.108,0-0.148c-1.534,1.496-3.078,2.566-4.632,3.216
		c-1.555,0.649-3.255,0.974-5.104,0.974c-1.259,0-2.399-0.266-3.422-0.797c-1.023-0.531-1.828-1.317-2.419-2.359
		c-0.59-1.042-0.885-2.331-0.885-3.865v-11.977c0-0.865-0.197-1.554-0.591-2.064c-0.393-0.512-1.042-0.945-1.946-1.299
		c-0.197-0.078-0.374-0.177-0.531-0.295s-0.235-0.334-0.235-0.648c0-0.354,0.088-0.59,0.266-0.709
		c0.176-0.117,0.383-0.195,0.619-0.235c1.336-0.079,2.369-0.187,3.098-0.325c0.727-0.137,1.642-0.344,2.743-0.619
		c0.118-0.039,0.206-0.059,0.266-0.059s0.127,0,0.206,0c0.433,0,0.629,0.275,0.59,0.826c-0.117,0.904-0.206,1.662-0.266,2.271
		c-0.059,0.609-0.088,1.367-0.088,2.271v11.505c0,0.944,0.236,1.819,0.708,2.626s1.091,1.465,1.858,1.976
		c0.768,0.512,1.563,0.767,2.39,0.767c1.022,0,1.917-0.059,2.685-0.176c0.768-0.119,1.523-0.452,2.271-1.004
		c0.432-0.314,0.982-0.826,1.652-1.533c0.668-0.709,1.002-1.672,1.002-2.892v-10.797c0-0.826-0.246-1.445-0.736-1.858
		c-0.492-0.413-1.053-0.698-1.682-0.855c-0.63-0.156-1.142-0.236-1.535-0.236c-0.354,0-0.648-0.068-0.885-0.207
		c-0.235-0.137-0.354-0.402-0.354-0.796c0-0.354,0.127-0.59,0.383-0.708c0.256-0.117,0.541-0.177,0.855-0.177
		c1.219-0.039,2.232-0.089,3.039-0.147c0.806-0.059,1.534-0.156,2.184-0.295c0.648-0.138,1.327-0.305,2.035-0.502
		c0.078-0.039,0.177-0.068,0.295-0.088s0.216-0.029,0.295-0.029c0.511,0,0.768,0.216,0.768,0.648c0,0.039-0.011,0.109-0.03,0.207
		c-0.021,0.098-0.05,0.206-0.089,0.324c-0.039,0.117-0.088,0.452-0.146,1.003c-0.06,0.552-0.119,1.12-0.178,1.711
		c-0.059,0.59-0.088,1.042-0.088,1.356v13.629c0,1.063,0.107,1.82,0.324,2.271c0.216,0.453,0.462,0.68,0.737,0.68
		c0.314,0,0.776-0.03,1.387-0.09c0.609-0.059,1.052-0.088,1.327-0.088c0.197,0,0.393,0.039,0.59,0.118s0.295,0.295,0.295,0.649
		c0,0.314-0.078,0.521-0.235,0.619c-0.157,0.099-0.354,0.168-0.591,0.207c-1.533,0.197-2.852,0.492-3.952,0.885
		c-1.102,0.393-2.085,0.767-2.95,1.121c-0.118,0.038-0.295,0.107-0.531,0.206C414.286,212.13,414.07,212.18,413.874,212.18z"/>
	<path fill="#0D4482" d="M425.969,211.236c-0.354,0-0.64-0.05-0.855-0.147c-0.217-0.098-0.325-0.266-0.325-0.502
		c0-0.313,0.119-0.52,0.354-0.619c0.235-0.098,0.569-0.206,1.003-0.324c0.59-0.156,1.16-0.373,1.711-0.648s0.826-0.807,0.826-1.594
		v-12.685c0-1.062-0.109-1.967-0.324-2.714c-0.217-0.747-0.836-1.259-1.859-1.534c-0.157-0.079-0.295-0.167-0.412-0.266
		c-0.118-0.098-0.178-0.266-0.178-0.501c0-0.434,0.178-0.669,0.531-0.709c1.377-0.354,2.498-0.786,3.363-1.297
		c0.865-0.512,1.711-1.082,2.537-1.712c0.117-0.078,0.226-0.147,0.324-0.206c0.098-0.059,0.207-0.089,0.324-0.089
		c0.078,0,0.148,0.04,0.207,0.118c0.059,0.079,0.088,0.177,0.088,0.295c0,0.275-0.049,0.836-0.146,1.682
		c-0.1,0.846-0.148,1.544-0.148,2.094c0,0.158,0.01,0.306,0.029,0.443c0.02,0.139,0.049,0.227,0.089,0.266
		c1.376-1.299,2.841-2.281,4.396-2.95c1.554-0.669,3.254-1.003,5.104-1.003c1.927,0,3.52,0.787,4.779,2.359
		c1.258,1.574,1.888,3.521,1.888,5.842v12.566c0,0.787,0.274,1.309,0.826,1.563c0.55,0.257,1.121,0.482,1.711,0.679
		c0.314,0.118,0.62,0.246,0.915,0.383c0.295,0.139,0.441,0.365,0.441,0.68c0,0.235-0.138,0.383-0.412,0.441
		c-0.275,0.06-0.531,0.089-0.768,0.089c-0.787,0-1.396-0.029-1.828-0.089c-0.434-0.059-0.847-0.107-1.24-0.146
		c-0.393-0.039-0.943-0.06-1.651-0.06c-0.669,0-1.22,0.021-1.651,0.06c-0.434,0.039-0.877,0.088-1.328,0.146
		c-0.453,0.06-1.072,0.089-1.858,0.089c-0.197,0-0.442-0.029-0.737-0.089c-0.295-0.059-0.443-0.206-0.443-0.441
		c0-0.314,0.148-0.541,0.443-0.68c0.295-0.137,0.6-0.265,0.914-0.383c0.59-0.196,1.16-0.422,1.711-0.679
		c0.551-0.255,0.826-0.776,0.826-1.563v-12.39c0-1.73-0.482-3.077-1.445-4.042c-0.965-0.963-2.252-1.465-3.865-1.504
		c-1.416,0-2.654,0.227-3.717,0.678c-1.062,0.453-2.006,1.014-2.832,1.682c-0.157,0.158-0.275,0.365-0.354,0.62
		c-0.08,0.256-0.118,0.501-0.118,0.737v14.219c0,0.787,0.274,1.318,0.826,1.594c0.55,0.275,1.121,0.492,1.711,0.648
		c0.904,0.236,1.356,0.551,1.356,0.943c0,0.236-0.098,0.404-0.295,0.502s-0.492,0.147-0.885,0.147c-0.787,0-1.406-0.029-1.858-0.089
		c-0.452-0.059-0.876-0.107-1.269-0.146c-0.394-0.039-0.943-0.06-1.652-0.06c-0.669,0-1.209,0.021-1.622,0.06
		s-0.847,0.088-1.298,0.146C427.374,211.206,426.755,211.236,425.969,211.236z"/>
	<path fill="#0D4482" d="M467.091,211.944c-1.967,0-3.746-0.502-5.339-1.504c-1.593-1.004-2.853-2.38-3.776-4.131
		c-0.924-1.749-1.387-3.707-1.387-5.87c0-2.556,0.561-4.876,1.682-6.962c1.121-2.084,2.626-3.746,4.514-4.985
		c1.889-1.239,3.973-1.858,6.254-1.858c2.557,0,4.799,0.688,6.727,2.064c0.472,0.354,0.708,0.729,0.708,1.121
		c0,0.315-0.139,0.67-0.413,1.063c-0.275,0.394-0.61,0.718-1.003,0.973c-0.394,0.257-0.767,0.385-1.121,0.385
		c-0.197,0-0.394-0.068-0.591-0.207c-0.197-0.138-0.412-0.285-0.648-0.443c-0.865-0.668-1.829-1.297-2.891-1.887
		c-1.063-0.591-1.947-0.886-2.655-0.886c-1.928,0-3.491,0.896-4.69,2.685c-1.2,1.791-1.799,4.141-1.799,7.051
		c0,1.85,0.402,3.521,1.209,5.015c0.806,1.495,1.888,2.675,3.244,3.54c1.357,0.865,2.862,1.299,4.514,1.299
		c1.141,0,2.125-0.188,2.951-0.561c0.825-0.374,1.711-1.033,2.654-1.977c0.078-0.079,0.178-0.148,0.295-0.207
		c0.118-0.059,0.216-0.088,0.295-0.088c0.433,0,0.649,0.275,0.649,0.825c0,0.236-0.069,0.501-0.206,0.797
		c-0.139,0.295-0.365,0.64-0.68,1.032c-0.629,0.787-1.377,1.466-2.242,2.035c-0.865,0.57-1.819,0.993-2.861,1.27
		C469.441,211.805,468.309,211.944,467.091,211.944z"/>
	<path fill="#0D4482" d="M489.925,211.944c-2.163,0-4.052-0.531-5.664-1.593c-1.613-1.062-2.871-2.566-3.775-4.514
		c-0.906-1.946-1.357-4.198-1.357-6.755c0-2.281,0.521-4.356,1.563-6.225s2.429-3.373,4.159-4.514s3.619-1.711,5.664-1.711
		c1.573,0,2.97,0.314,4.189,0.943c1.219,0.63,2.173,1.505,2.861,2.626c0.688,1.121,1.032,2.409,1.032,3.864
		c0,1.22-0.59,1.829-1.77,1.829h-12.449c-0.552,0-0.935,0.147-1.15,0.442c-0.217,0.295-0.325,0.876-0.325,1.74
		c0,1.889,0.414,3.609,1.24,5.163c0.825,1.554,1.926,2.793,3.304,3.717c1.376,0.925,2.891,1.387,4.543,1.387
		c1.18,0,2.251-0.226,3.215-0.679c0.964-0.451,1.819-1.111,2.566-1.977c0.157-0.196,0.275-0.324,0.354-0.383
		c0.078-0.06,0.177-0.089,0.295-0.089c0.314,0,0.472,0.197,0.472,0.59c0,0.747-0.354,1.573-1.062,2.478
		c-0.59,0.748-1.298,1.396-2.124,1.947s-1.731,0.974-2.714,1.269C492.009,211.796,490.987,211.944,489.925,211.944z
		 M484.497,194.067h5.369c0.943,0,1.749-0.02,2.419-0.059c0.668-0.039,1.317-0.118,1.946-0.236c0.197-0.039,0.325-0.167,0.384-0.383
		c0.06-0.217,0.089-0.521,0.089-0.915c0-1.141-0.502-2.114-1.505-2.921c-1.003-0.805-2.193-1.209-3.569-1.209
		c-0.905,0-1.81,0.266-2.714,0.797c-0.905,0.53-1.652,1.189-2.242,1.977s-0.885,1.573-0.885,2.359
		C483.789,193.87,484.024,194.067,484.497,194.067z"/>
	<path fill="#0D4482" d="M503.258,211.236c-0.394,0-0.688-0.05-0.885-0.147c-0.197-0.098-0.295-0.266-0.295-0.502
		c0-0.313,0.118-0.52,0.354-0.619c0.235-0.098,0.569-0.206,1.003-0.324c0.746-0.196,1.307-0.481,1.681-0.855
		c0.374-0.373,0.561-0.836,0.561-1.387v-12.685c0-1.062-0.157-1.985-0.472-2.773c-0.315-0.786-0.964-1.277-1.947-1.475
		c-0.157-0.039-0.295-0.138-0.413-0.296c-0.117-0.156-0.177-0.313-0.177-0.471c0-0.393,0.177-0.629,0.531-0.709
		c1.022-0.314,2.095-0.775,3.216-1.387c1.121-0.609,1.995-1.11,2.625-1.504c0.236-0.156,0.423-0.266,0.561-0.324
		s0.245-0.089,0.324-0.089c0.196,0,0.295,0.138,0.295,0.413c0,0.118-0.01,0.413-0.029,0.885c-0.021,0.473-0.039,1.023-0.059,1.652
		c-0.021,0.629-0.05,1.26-0.089,1.888c0,0.079,0.039,0.118,0.118,0.118c0.629-0.786,1.327-1.475,2.095-2.064
		c0.767-0.59,1.553-1.063,2.359-1.416c0.807-0.354,1.583-0.531,2.331-0.531c0.826,0,1.505,0.177,2.035,0.531
		c0.531,0.354,0.797,0.807,0.797,1.356c0,0.394-0.109,0.826-0.324,1.298c-0.217,0.473-0.502,0.885-0.855,1.239
		c-0.354,0.354-0.729,0.53-1.121,0.53c-0.236,0-0.492-0.049-0.768-0.146s-0.57-0.227-0.885-0.384
		c-0.315-0.118-0.63-0.235-0.944-0.354c-0.315-0.117-0.629-0.177-0.943-0.177c-0.944,0-1.858,0.335-2.744,1.003
		c-0.885,0.67-1.327,1.986-1.327,3.953v11.918c0,0.512,0.274,0.936,0.826,1.269c0.55,0.335,1.317,0.659,2.301,0.974
		c0.433,0.118,0.767,0.236,1.003,0.354c0.236,0.119,0.354,0.316,0.354,0.59c0,0.434-0.394,0.649-1.181,0.649
		c-1.18,0-2.075-0.05-2.685-0.147c-0.61-0.098-1.426-0.147-2.448-0.147c-0.669,0-1.209,0.021-1.622,0.06s-0.847,0.088-1.299,0.146
		C504.664,211.206,504.045,211.236,503.258,211.236z"/>
	<path fill="#0D4482" d="M531.224,211.885c-1.928,0-3.433-0.59-4.514-1.77c-1.082-1.181-1.623-2.93-1.623-5.252v-13.688
		c0-0.314-0.117-0.541-0.354-0.679s-0.748-0.206-1.534-0.206h-0.354c-0.197,0-0.364-0.127-0.502-0.384
		c-0.139-0.255-0.206-0.521-0.206-0.797c0-0.078,0.059-0.196,0.177-0.354s0.196-0.255,0.235-0.296c0.787-0.55,1.505-1.1,2.154-1.651
		c0.648-0.55,1.238-1.091,1.77-1.622s0.974-1.013,1.327-1.445c0.197-0.197,0.363-0.363,0.502-0.502
		c0.138-0.138,0.305-0.207,0.502-0.207c0.196,0,0.383,0.04,0.561,0.118c0.177,0.079,0.245,0.257,0.206,0.531l-0.295,2.655
		c-0.04,0.434,0.059,0.729,0.295,0.885c0.236,0.158,0.609,0.236,1.121,0.236h6.726c0.157,0,0.295,0.128,0.413,0.383
		c0.118,0.256,0.177,0.561,0.177,0.915c0,0.354-0.059,0.698-0.177,1.032s-0.256,0.502-0.413,0.502h-5.841
		c-0.983,0-1.622,0.079-1.917,0.235c-0.295,0.157-0.443,0.63-0.443,1.416v11.623c0,1.573,0.334,2.813,1.004,3.718
		c0.668,0.904,1.631,1.356,2.891,1.356c1.141,0,2.025-0.089,2.655-0.266c0.628-0.177,1.199-0.442,1.711-0.796
		c0.078-0.079,0.156-0.119,0.235-0.119c0.157,0,0.266,0.089,0.325,0.266c0.059,0.178,0.088,0.365,0.088,0.561
		c0,0.197-0.324,0.59-0.974,1.181c-0.648,0.59-1.495,1.142-2.536,1.651C533.574,211.629,532.443,211.885,531.224,211.885z"/>
	<path fill="#0D4482" d="M545.502,211.885c-0.708,0-1.427-0.275-2.154-0.826s-1.337-1.219-1.828-2.006
		c-0.493-0.787-0.738-1.534-0.738-2.242c0-1.258,0.334-2.242,1.003-2.95s1.73-1.356,3.187-1.946l6.018-2.479
		c0.787-0.314,1.249-0.59,1.387-0.826s0.226-0.746,0.266-1.533l0.118-3.776c0.038-1.022-0.246-1.907-0.855-2.655
		c-0.61-0.746-1.485-1.121-2.626-1.121c-0.59,0-1.18,0.099-1.77,0.295c-0.59,0.197-1.082,0.453-1.476,0.768
		c-0.235,0.157-0.394,0.393-0.472,0.707c-0.079,0.316-0.118,0.649-0.118,1.004c0,0.157,0.01,0.334,0.029,0.531s0.03,0.373,0.03,0.53
		c0,0.197-0.246,0.463-0.738,0.797c-0.492,0.335-1.042,0.63-1.651,0.885c-0.61,0.257-1.112,0.384-1.505,0.384
		c-0.197,0-0.354-0.049-0.472-0.148c-0.118-0.098-0.177-0.225-0.177-0.383c0-0.629,0.206-1.307,0.619-2.035
		c0.413-0.728,0.993-1.406,1.74-2.035c0.904-0.826,1.889-1.555,2.95-2.184c1.063-0.629,2.104-1.121,3.127-1.475
		c1.022-0.354,1.927-0.531,2.714-0.531c1.416,0,2.586,0.502,3.511,1.504c0.924,1.004,1.366,2.252,1.327,3.747l-0.295,14.159
		c-0.039,0.826,0.147,1.496,0.561,2.007s0.935,0.767,1.563,0.767c0.983,0,1.711-0.215,2.184-0.648
		c0.196-0.197,0.354-0.295,0.472-0.295c0.196,0,0.354,0.059,0.472,0.177s0.178,0.275,0.178,0.472c0,0.434-0.217,0.865-0.649,1.299
		c-0.63,0.629-1.309,1.131-2.035,1.504c-0.729,0.373-1.407,0.561-2.036,0.561c-1.81,0-3.245-1.022-4.307-3.068h-0.177
		c-1.298,1.063-2.537,1.84-3.718,2.33C547.979,211.639,546.76,211.885,545.502,211.885z M548.274,209.053
		c0.786,0,1.455-0.127,2.006-0.384c0.551-0.255,1.042-0.599,1.476-1.032c0.196-0.196,0.363-0.462,0.501-0.797
		c0.138-0.334,0.227-0.875,0.266-1.622l0.118-2.892c0.039-0.432,0.02-0.746-0.059-0.943c-0.08-0.197-0.236-0.295-0.473-0.295
		c-0.079,0-0.217,0.02-0.413,0.059c-0.197,0.039-0.452,0.118-0.767,0.236c-2.085,0.748-3.531,1.524-4.337,2.33
		c-0.807,0.807-1.209,1.545-1.209,2.213c0,1.023,0.304,1.799,0.914,2.33C546.907,208.787,547.566,209.053,548.274,209.053z"/>
	<path fill="#0D4482" d="M564.734,211.236c-0.354,0-0.64-0.05-0.855-0.147c-0.217-0.098-0.324-0.266-0.324-0.502
		c0-0.313,0.147-0.53,0.442-0.648c0.295-0.117,0.6-0.216,0.915-0.295c0.825-0.196,1.454-0.442,1.888-0.737
		c0.433-0.296,0.648-0.797,0.648-1.505v-12.803c0-1.063-0.187-2.006-0.561-2.832s-1.071-1.317-2.094-1.475
		c-0.197-0.039-0.345-0.119-0.442-0.236c-0.099-0.118-0.147-0.295-0.147-0.531c0-0.432,0.177-0.668,0.53-0.708
		c1.573-0.354,2.871-0.835,3.895-1.445c1.022-0.609,1.789-1.11,2.301-1.505c0.354-0.274,0.629-0.412,0.826-0.412
		c0.235,0,0.354,0.098,0.354,0.295c0,0.314-0.05,0.935-0.147,1.857c-0.099,0.926-0.187,1.947-0.266,3.068s-0.117,2.135-0.117,3.039
		v13.688c0,0.67,0.226,1.16,0.678,1.475c0.452,0.316,1.071,0.571,1.858,0.768c0.314,0.079,0.62,0.178,0.915,0.295
		c0.295,0.118,0.442,0.335,0.442,0.648c0,0.434-0.394,0.649-1.18,0.649c-0.748,0-1.348-0.029-1.8-0.089
		c-0.452-0.059-0.885-0.107-1.298-0.146s-0.974-0.06-1.682-0.06c-0.669,0-1.22,0.021-1.652,0.06s-0.865,0.088-1.298,0.146
		C566.131,211.206,565.521,211.236,564.734,211.236z M569.455,180.615c-0.826,0-1.525-0.285-2.095-0.855
		c-0.571-0.57-0.855-1.27-0.855-2.096c0-0.864,0.284-1.582,0.855-2.152c0.569-0.57,1.269-0.855,2.095-0.855
		c0.864,0,1.582,0.285,2.153,0.855c0.569,0.57,0.855,1.288,0.855,2.152c0,0.826-0.286,1.525-0.855,2.096
		C571.037,180.33,570.319,180.615,569.455,180.615z"/>
	<path fill="#0D4482" d="M579.189,211.236c-0.354,0-0.64-0.05-0.855-0.147c-0.217-0.098-0.324-0.266-0.324-0.502
		c0-0.313,0.118-0.52,0.354-0.619c0.236-0.098,0.57-0.206,1.004-0.324c0.59-0.156,1.159-0.373,1.711-0.648
		c0.55-0.275,0.825-0.807,0.825-1.594v-12.685c0-1.062-0.108-1.967-0.324-2.714c-0.217-0.747-0.836-1.259-1.858-1.534
		c-0.157-0.079-0.295-0.167-0.413-0.266c-0.118-0.098-0.177-0.266-0.177-0.501c0-0.434,0.177-0.669,0.531-0.709
		c1.376-0.354,2.497-0.786,3.362-1.297c0.865-0.512,1.711-1.082,2.537-1.712c0.118-0.078,0.227-0.147,0.325-0.206
		c0.098-0.059,0.206-0.089,0.324-0.089c0.078,0,0.147,0.04,0.206,0.118c0.06,0.079,0.089,0.177,0.089,0.295
		c0,0.275-0.05,0.836-0.147,1.682c-0.099,0.846-0.147,1.544-0.147,2.094c0,0.158,0.009,0.306,0.029,0.443
		c0.02,0.139,0.049,0.227,0.089,0.266c1.376-1.299,2.841-2.281,4.396-2.95c1.553-0.669,3.254-1.003,5.104-1.003
		c1.927,0,3.52,0.787,4.778,2.359c1.259,1.574,1.889,3.521,1.889,5.842v12.566c0,0.787,0.274,1.309,0.825,1.563
		c0.551,0.257,1.121,0.482,1.712,0.679c0.313,0.118,0.619,0.246,0.914,0.383c0.295,0.139,0.442,0.365,0.442,0.68
		c0,0.235-0.139,0.383-0.413,0.441c-0.275,0.06-0.531,0.089-0.767,0.089c-0.787,0-1.396-0.029-1.829-0.089
		c-0.434-0.059-0.847-0.107-1.239-0.146c-0.394-0.039-0.944-0.06-1.652-0.06c-0.669,0-1.219,0.021-1.651,0.06
		c-0.434,0.039-0.876,0.088-1.328,0.146c-0.452,0.06-1.071,0.089-1.858,0.089c-0.197,0-0.442-0.029-0.737-0.089
		c-0.295-0.059-0.442-0.206-0.442-0.441c0-0.314,0.147-0.541,0.442-0.68c0.295-0.137,0.6-0.265,0.915-0.383
		c0.59-0.196,1.159-0.422,1.711-0.679c0.55-0.255,0.826-0.776,0.826-1.563v-12.39c0-1.73-0.482-3.077-1.446-4.042
		c-0.964-0.963-2.252-1.465-3.864-1.504c-1.416,0-2.655,0.227-3.717,0.678c-1.063,0.453-2.006,1.014-2.832,1.682
		c-0.158,0.158-0.275,0.365-0.354,0.62c-0.079,0.256-0.117,0.501-0.117,0.737v14.219c0,0.787,0.274,1.318,0.825,1.594
		s1.121,0.492,1.711,0.648c0.905,0.236,1.357,0.551,1.357,0.943c0,0.236-0.099,0.404-0.295,0.502
		c-0.197,0.098-0.492,0.147-0.885,0.147c-0.787,0-1.407-0.029-1.858-0.089c-0.453-0.059-0.876-0.107-1.269-0.146
		c-0.394-0.039-0.944-0.06-1.652-0.06c-0.669,0-1.21,0.021-1.622,0.06c-0.413,0.039-0.847,0.088-1.299,0.146
		C580.595,211.206,579.976,211.236,579.189,211.236z"/>
	<path fill="#0D4482" d="M328.147,299.874c-0.197,0-0.452-0.03-0.767-0.089c-0.315-0.059-0.472-0.207-0.472-0.442
		c0-0.315,0.147-0.541,0.442-0.679c0.295-0.139,0.599-0.266,0.915-0.384c0.59-0.197,1.159-0.423,1.711-0.678
		c0.55-0.257,0.826-0.777,0.826-1.563v-29.913c0-0.314-0.09-0.787-0.266-1.416c-0.178-0.629-0.463-1.239-0.855-1.829
		c-0.395-0.59-0.926-0.944-1.594-1.063c-0.157-0.038-0.275-0.137-0.354-0.295c-0.08-0.156-0.118-0.314-0.118-0.472
		c0-0.196,0.038-0.354,0.118-0.472c0.078-0.118,0.177-0.197,0.295-0.236c1.494-0.354,2.773-0.737,3.835-1.15s2.065-0.816,3.009-1.21
		c0.039,0,0.059-0.009,0.059-0.029c0-0.02,0.02-0.029,0.06-0.029c0.078,0,0.157,0.059,0.235,0.177
		c0.079,0.118,0.119,0.236,0.119,0.354c0,0.354-0.051,0.914-0.148,1.681c-0.098,0.768-0.146,1.387-0.146,1.858
		c0,0.315,0.019,0.493,0.059,0.531c0.393-0.393,1.11-0.894,2.153-1.504c1.042-0.609,2.231-1.16,3.569-1.652
		c1.337-0.491,2.615-0.737,3.835-0.737c2.045,0,3.785,0.541,5.222,1.622c1.436,1.082,2.537,2.479,3.304,4.189
		s1.151,3.491,1.151,5.339c0,1.771-0.336,3.491-1.004,5.163c-0.669,1.672-1.613,3.177-2.832,4.514s-2.635,2.409-4.248,3.215
		s-3.344,1.21-5.191,1.21c-0.552,0-1.21-0.089-1.977-0.266c-0.768-0.177-1.515-0.404-2.242-0.679
		c-0.729-0.274-1.289-0.59-1.682-0.943c-0.039,0-0.079,0.227-0.117,0.678c-0.041,0.452-0.07,0.924-0.09,1.416
		c-0.02,0.491-0.029,0.797-0.029,0.915v11.033c0,0.51,0.207,0.914,0.62,1.209s0.885,0.511,1.416,0.649
		c0.53,0.137,0.993,0.265,1.386,0.383c0.314,0.118,0.62,0.245,0.915,0.384c0.295,0.138,0.442,0.363,0.442,0.679
		c0,0.235-0.157,0.384-0.472,0.442c-0.315,0.059-0.591,0.089-0.826,0.089c-1.142,0-2.095-0.05-2.861-0.147
		c-0.767-0.099-1.662-0.148-2.685-0.148c-0.67,0-1.209,0.02-1.623,0.06c-0.412,0.039-0.836,0.089-1.268,0.147
		C329.544,299.844,328.934,299.874,328.147,299.874z M341.954,282.056c0.59,0,1.307-0.177,2.153-0.531
		c0.846-0.354,1.69-0.924,2.537-1.711c0.845-0.786,1.554-1.849,2.124-3.186s0.855-2.989,0.855-4.956c0-2.281-0.295-4.11-0.885-5.487
		c-0.59-1.376-1.318-2.419-2.184-3.127s-1.75-1.18-2.654-1.416c-0.906-0.236-1.672-0.354-2.301-0.354
		c-0.944,0-1.918,0.198-2.921,0.591c-1.003,0.394-1.85,0.836-2.537,1.327c-0.688,0.492-1.032,0.876-1.032,1.15
		c0,0.866-0.01,1.74-0.029,2.626c-0.021,0.885-0.04,1.74-0.06,2.566c-0.021,0.826-0.04,1.563-0.06,2.212
		c-0.02,0.649-0.029,1.15-0.029,1.505c0,1.573,0.363,3.029,1.092,4.366c0.728,1.337,1.632,2.409,2.715,3.215
		C339.819,281.653,340.891,282.056,341.954,282.056z"/>
	<path fill="#0D4482" d="M362.132,283.885c-0.707,0-1.426-0.275-2.152-0.826c-0.729-0.551-1.338-1.219-1.83-2.006
		c-0.492-0.786-0.736-1.534-0.736-2.242c0-1.259,0.333-2.242,1.002-2.95s1.73-1.356,3.187-1.946l6.019-2.479
		c0.785-0.314,1.248-0.59,1.386-0.826c0.138-0.235,0.226-0.746,0.266-1.534l0.118-3.775c0.039-1.022-0.246-1.907-0.855-2.655
		c-0.61-0.747-1.485-1.121-2.625-1.121c-0.591,0-1.181,0.099-1.771,0.295c-0.591,0.197-1.083,0.453-1.476,0.768
		c-0.235,0.157-0.393,0.394-0.472,0.708s-0.118,0.648-0.118,1.003c0,0.157,0.01,0.334,0.029,0.53
		c0.02,0.197,0.029,0.375,0.029,0.531c0,0.197-0.246,0.463-0.736,0.797c-0.492,0.334-1.043,0.63-1.652,0.885
		c-0.61,0.256-1.111,0.384-1.505,0.384c-0.197,0-0.354-0.049-0.472-0.147c-0.118-0.098-0.178-0.227-0.178-0.384
		c0-0.629,0.207-1.308,0.62-2.035s0.993-1.406,1.741-2.036c0.904-0.826,1.887-1.553,2.949-2.183
		c1.063-0.629,2.104-1.121,3.127-1.475c1.022-0.354,1.927-0.531,2.715-0.531c1.415,0,2.585,0.501,3.51,1.504
		c0.924,1.003,1.366,2.253,1.328,3.747l-0.295,14.16c-0.041,0.825,0.146,1.495,0.56,2.006c0.413,0.512,0.935,0.767,1.563,0.767
		c0.982,0,1.711-0.216,2.184-0.648c0.195-0.196,0.354-0.295,0.472-0.295c0.196,0,0.354,0.059,0.472,0.177
		c0.118,0.118,0.178,0.275,0.178,0.472c0,0.434-0.217,0.866-0.649,1.298c-0.63,0.63-1.308,1.132-2.036,1.505
		c-0.728,0.373-1.406,0.561-2.035,0.561c-1.81,0-3.244-1.022-4.307-3.068h-0.178c-1.297,1.063-2.536,1.839-3.717,2.331
		C364.61,283.639,363.39,283.885,362.132,283.885z M364.905,281.053c0.787,0,1.455-0.127,2.006-0.384
		c0.551-0.255,1.042-0.599,1.476-1.032c0.196-0.196,0.362-0.462,0.501-0.797c0.138-0.333,0.227-0.875,0.266-1.622l0.118-2.892
		c0.038-0.432,0.02-0.746-0.06-0.943c-0.078-0.196-0.235-0.295-0.471-0.295c-0.08,0-0.217,0.02-0.414,0.059
		c-0.197,0.04-0.452,0.118-0.767,0.236c-2.085,0.747-3.53,1.524-4.337,2.33c-0.807,0.807-1.209,1.544-1.209,2.213
		c0,1.023,0.305,1.799,0.914,2.33S364.197,281.053,364.905,281.053z"/>
	<path fill="#0D4482" d="M389.921,283.885c-1.928,0-3.433-0.59-4.514-1.771c-1.082-1.18-1.623-2.93-1.623-5.251v-13.688
		c0-0.314-0.117-0.54-0.354-0.679c-0.236-0.138-0.748-0.206-1.534-0.206h-0.354c-0.197,0-0.363-0.128-0.501-0.384
		s-0.206-0.521-0.206-0.797c0-0.078,0.059-0.196,0.177-0.354s0.196-0.256,0.235-0.295c0.787-0.551,1.505-1.101,2.154-1.652
		c0.648-0.551,1.238-1.092,1.77-1.622c0.531-0.531,0.974-1.013,1.328-1.446c0.195-0.196,0.363-0.363,0.501-0.501
		s0.304-0.207,0.501-0.207s0.385,0.04,0.561,0.118c0.178,0.079,0.246,0.257,0.207,0.531l-0.295,2.655
		c-0.039,0.433,0.059,0.728,0.295,0.885s0.609,0.236,1.121,0.236h6.727c0.156,0,0.295,0.128,0.412,0.383
		c0.118,0.257,0.178,0.561,0.178,0.915c0,0.354-0.06,0.698-0.178,1.032c-0.117,0.335-0.256,0.502-0.412,0.502h-5.842
		c-0.983,0-1.623,0.079-1.918,0.235c-0.295,0.158-0.441,0.63-0.441,1.416v11.623c0,1.574,0.333,2.813,1.002,3.717
		c0.669,0.905,1.633,1.357,2.892,1.357c1.14,0,2.025-0.089,2.655-0.266c0.629-0.177,1.199-0.442,1.711-0.797
		c0.078-0.078,0.156-0.117,0.236-0.117c0.156,0,0.266,0.088,0.324,0.265c0.059,0.178,0.088,0.364,0.088,0.561
		c0,0.197-0.324,0.591-0.973,1.181c-0.649,0.59-1.496,1.141-2.537,1.651C392.27,283.628,391.139,283.885,389.921,283.885z"/>
	<path fill="#0D4482" d="M399.596,283.236c-0.787,0-1.18-0.216-1.18-0.648c0-0.354,0.451-0.669,1.356-0.944
		c0.59-0.196,1.15-0.452,1.682-0.767c0.53-0.314,0.815-0.865,0.855-1.652v-29.559c0-1.063-0.177-1.996-0.531-2.803
		c-0.354-0.806-1.042-1.288-2.065-1.445c-0.354-0.079-0.53-0.354-0.53-0.826c0-0.354,0.157-0.59,0.472-0.708
		c0.551-0.196,1.209-0.413,1.977-0.649c0.768-0.235,1.563-0.501,2.39-0.796c0.825-0.295,1.554-0.58,2.183-0.855
		c0.157-0.079,0.275-0.118,0.354-0.118c0.118,0,0.216,0.039,0.295,0.118c0.078,0.079,0.118,0.177,0.118,0.295
		c0,0.235-0.051,0.57-0.148,1.003s-0.187,1.18-0.265,2.242c-0.079,1.062-0.118,2.654-0.118,4.778v10.267
		c0,0.629,0.029,1.082,0.088,1.356c0.06,0.275,0.168,0.552,0.325,0.826c0.628-0.472,1.405-0.993,2.331-1.563
		c0.923-0.569,1.955-1.071,3.097-1.505c1.141-0.432,2.32-0.648,3.54-0.648c1.927,0,3.529,0.758,4.809,2.271
		c1.277,1.515,1.918,3.432,1.918,5.752v12.391c0,0.787,0.255,1.367,0.767,1.74c0.511,0.374,1.062,0.659,1.651,0.855
		c0.434,0.118,0.768,0.246,1.004,0.384s0.354,0.324,0.354,0.561c0,0.433-0.394,0.648-1.18,0.648c-0.787,0-1.387-0.029-1.8-0.088
		c-0.413-0.06-0.807-0.108-1.18-0.147c-0.374-0.039-0.915-0.06-1.622-0.06c-0.67,0-1.201,0.021-1.594,0.06
		c-0.394,0.039-0.797,0.088-1.209,0.147c-0.414,0.059-1.014,0.088-1.8,0.088c-0.787,0-1.181-0.216-1.181-0.648
		c0-0.275,0.119-0.462,0.354-0.561c0.236-0.098,0.569-0.227,1.003-0.384c0.59-0.196,1.121-0.481,1.594-0.855
		c0.472-0.373,0.707-0.953,0.707-1.74v-12.036c0-0.982-0.285-1.878-0.855-2.685c-0.57-0.806-1.268-1.445-2.094-1.918
		c-0.826-0.472-1.673-0.708-2.537-0.708c-0.748,0-1.613,0.109-2.596,0.325c-0.984,0.217-1.751,0.541-2.302,0.974
		c-0.63,0.511-1.053,1.042-1.269,1.593c-0.217,0.551-0.324,1.437-0.324,2.655v11.977c0.039,0.787,0.285,1.338,0.737,1.652
		s0.974,0.57,1.563,0.767c0.433,0.118,0.757,0.246,0.974,0.384c0.216,0.138,0.325,0.324,0.325,0.561
		c0,0.433-0.395,0.648-1.181,0.648c-0.787,0-1.378-0.029-1.771-0.088c-0.393-0.06-0.767-0.108-1.121-0.147
		c-0.354-0.039-0.885-0.06-1.592-0.06c-0.67,0-1.21,0.021-1.623,0.06s-0.846,0.088-1.298,0.147
		C401.003,283.206,400.383,283.236,399.596,283.236z"/>
	<path fill="#0D4482" d="M434.466,283.885c-0.866,0-1.623-0.324-2.271-0.974c-0.65-0.649-0.975-1.406-0.975-2.271
		c0-0.904,0.324-1.672,0.975-2.301c0.648-0.629,1.405-0.944,2.271-0.944c0.904,0,1.671,0.315,2.301,0.944
		c0.629,0.629,0.943,1.396,0.943,2.301c0,0.865-0.314,1.622-0.943,2.271C436.136,283.561,435.37,283.885,434.466,283.885z"/>
</g>
</svg>
