<?xml version="1.0" encoding="utf-8"?>
<!-- Generator: Adobe Illustrator 14.0.0, SVG Export Plug-In . SVG Version: 6.00 Build 43363)  -->
<!DOCTYPE svg PUBLIC "-//W3C//DTD SVG 1.1//EN" "http://www.w3.org/Graphics/SVG/1.1/DTD/svg11.dtd">
<svg version="1.1" id="レイヤー_1" xmlns="http://www.w3.org/2000/svg" xmlns:xlink="http://www.w3.org/1999/xlink" x="0px"
	 y="0px" width="322.413px" height="178.848px" viewBox="1.392 5.76 322.413 178.848"
	 enable-background="new 1.392 5.76 322.413 178.848" xml:space="preserve">
<g>
	<path fill="#083E00" d="M17.808,39.935c-0.32,0-1.032-0.032-2.136-0.096c-1.104-0.065-2.368-0.12-3.792-0.168
		c-1.424-0.048-2.776-0.072-4.056-0.072c-0.641,0-1.176,0.016-1.608,0.048c-0.432,0.032-0.896,0.072-1.392,0.12
		c-0.497,0.048-1.176,0.072-2.04,0.072c-0.417,0-0.752-0.048-1.008-0.144c-0.256-0.096-0.384-0.256-0.384-0.48
		c0-0.256,0.127-0.424,0.384-0.504c0.256-0.079,0.656-0.168,1.2-0.264c1.216-0.224,2.056-0.592,2.52-1.104
		c0.463-0.512,0.696-1.344,0.696-2.496v-21.6c0-1.152-0.232-1.968-0.696-2.448c-0.464-0.48-1.304-0.832-2.52-1.056
		c-0.544-0.096-0.944-0.2-1.2-0.312C1.52,9.32,1.392,9.136,1.392,8.879c0-0.223,0.127-0.384,0.384-0.48
		c0.256-0.096,0.592-0.144,1.008-0.144c0.832,0,1.495,0.008,1.992,0.024C5.272,8.296,5.76,8.312,6.24,8.327
		c0.48,0.017,1.104,0.024,1.872,0.024c0.512,0,1.16-0.016,1.944-0.048c0.784-0.032,1.6-0.08,2.448-0.144
		c0.848-0.064,1.616-0.112,2.304-0.144C15.496,7.984,16,7.968,16.32,7.968c3.264,0,6.048,0.392,8.352,1.176
		c2.304,0.785,4.176,1.872,5.616,3.264s2.503,3.008,3.192,4.848c0.688,1.841,1.032,3.816,1.032,5.928
		c0,2.304-0.432,4.464-1.296,6.48c-0.864,2.016-2.064,3.8-3.6,5.352c-1.536,1.552-3.312,2.76-5.328,3.624
		C22.272,39.503,20.112,39.935,17.808,39.935z M17.232,38.255c2.496,0,4.704-0.607,6.624-1.824c1.92-1.216,3.416-2.896,4.488-5.04
		c1.071-2.144,1.608-4.608,1.608-7.392c0-2.304-0.384-4.36-1.152-6.168c-0.768-1.808-1.792-3.328-3.072-4.56
		c-1.28-1.231-2.72-2.176-4.32-2.832c-1.601-0.655-3.216-0.984-4.848-0.984c-1.376,0-2.552,0.041-3.528,0.12
		c-0.977,0.08-1.721,0.329-2.232,0.744c-0.512,0.416-0.768,1.104-0.768,2.064v21.408c0,1.28,0.352,2.24,1.056,2.88
		c0.704,0.641,1.608,1.064,2.712,1.272C14.904,38.152,16.048,38.255,17.232,38.255z"/>
	<path fill="#083E00" d="M38.304,39.743c-0.288,0-0.521-0.041-0.696-0.12c-0.176-0.08-0.264-0.216-0.264-0.408
		c0-0.256,0.12-0.432,0.36-0.528c0.24-0.096,0.487-0.175,0.744-0.24c0.672-0.16,1.184-0.36,1.536-0.6
		c0.352-0.24,0.528-0.648,0.528-1.224V26.207c0-0.864-0.152-1.632-0.456-2.304c-0.304-0.672-0.872-1.072-1.704-1.2
		c-0.161-0.032-0.281-0.096-0.36-0.192c-0.08-0.096-0.12-0.24-0.12-0.432c0-0.352,0.144-0.544,0.432-0.576
		c1.28-0.288,2.335-0.679,3.168-1.176c0.832-0.496,1.456-0.904,1.872-1.224c0.288-0.224,0.512-0.336,0.672-0.336
		c0.192,0,0.288,0.08,0.288,0.24c0,0.256-0.041,0.76-0.12,1.512c-0.081,0.752-0.152,1.584-0.216,2.496
		c-0.064,0.912-0.096,1.736-0.096,2.472v11.136c0,0.544,0.184,0.944,0.552,1.2c0.368,0.256,0.872,0.464,1.512,0.624
		c0.255,0.064,0.504,0.144,0.744,0.24c0.24,0.096,0.36,0.272,0.36,0.528c0,0.352-0.32,0.528-0.96,0.528
		c-0.608,0-1.097-0.024-1.464-0.072c-0.368-0.048-0.72-0.087-1.056-0.12c-0.336-0.032-0.792-0.048-1.368-0.048
		c-0.544,0-0.992,0.017-1.344,0.048c-0.352,0.032-0.704,0.072-1.056,0.12C39.439,39.719,38.944,39.743,38.304,39.743z
		 M42.144,14.831c-0.672,0-1.241-0.231-1.704-0.696c-0.464-0.464-0.696-1.032-0.696-1.704c0-0.704,0.232-1.288,0.696-1.752
		c0.463-0.463,1.032-0.696,1.704-0.696c0.703,0,1.288,0.233,1.752,0.696c0.463,0.464,0.696,1.048,0.696,1.752
		c0,0.672-0.232,1.24-0.696,1.704C43.432,14.6,42.847,14.831,42.144,14.831z"/>
	<path fill="#083E00" d="M58.224,40.607c-0.128,0-0.288-0.248-0.48-0.744c-0.192-0.496-0.32-0.856-0.384-1.08
		c-0.225-0.544-0.432-1.112-0.624-1.704c-0.192-0.592-0.384-1.144-0.576-1.656c-0.704-1.984-1.464-3.928-2.28-5.832
		c-0.816-1.904-1.608-3.832-2.376-5.784c-0.224-0.576-0.568-1.096-1.032-1.56c-0.464-0.463-0.936-0.76-1.416-0.888
		c-0.256-0.096-0.464-0.192-0.624-0.288c-0.161-0.096-0.24-0.256-0.24-0.48c0-0.192,0.12-0.312,0.36-0.36
		c0.24-0.048,0.439-0.072,0.6-0.072c0.64,0,1.104,0.017,1.392,0.048c0.288,0.032,0.576,0.072,0.864,0.12s0.704,0.072,1.248,0.072
		c0.576,0,1.008-0.024,1.296-0.072s0.592-0.088,0.912-0.12c0.319-0.031,0.784-0.048,1.392-0.048c0.16,0,0.36,0.024,0.6,0.072
		c0.24,0.048,0.36,0.168,0.36,0.36c0,0.224-0.113,0.4-0.336,0.528c-0.225,0.128-0.48,0.24-0.768,0.336
		c-0.32,0.128-0.561,0.376-0.72,0.744c-0.161,0.368-0.24,0.776-0.24,1.224c0,0.224,0.016,0.448,0.048,0.672
		c0.031,0.224,0.08,0.432,0.144,0.624l3.792,10.08c0.031,0.032,0.055,0.048,0.072,0.048c0.016,0,0.04-0.016,0.072-0.048l3.648-9.36
		c0.127-0.319,0.224-0.664,0.288-1.032c0.063-0.368,0.096-0.68,0.096-0.936c0-0.64-0.096-1.096-0.288-1.368
		c-0.192-0.271-0.512-0.487-0.96-0.648c-0.416-0.16-0.704-0.288-0.864-0.384c-0.161-0.096-0.24-0.256-0.24-0.48
		c0-0.192,0.104-0.312,0.312-0.36c0.208-0.048,0.424-0.072,0.648-0.072c0.352,0,0.816,0.041,1.392,0.12
		c0.576,0.08,1.28,0.12,2.112,0.12c0.832,0,1.399-0.04,1.704-0.12c0.304-0.08,0.68-0.12,1.128-0.12c0.255,0,0.48,0.024,0.672,0.072
		c0.192,0.048,0.288,0.168,0.288,0.36c0,0.353-0.369,0.64-1.104,0.864c-0.48,0.128-1.008,0.497-1.584,1.104
		c-0.576,0.608-1.041,1.313-1.392,2.112l-3.744,9.024c-0.064,0.128-0.192,0.44-0.384,0.936c-0.192,0.496-0.401,1.04-0.624,1.632
		c-0.225,0.592-0.497,1.32-0.816,2.184c-0.257,0.608-0.464,1.08-0.624,1.416c-0.161,0.336-0.305,0.583-0.432,0.744H58.224z"/>
	<path fill="#083E00" d="M79.007,40.271c-1.792,0-3.408-0.416-4.848-1.248c-1.44-0.832-2.584-1.975-3.432-3.432
		c-0.849-1.456-1.272-3.112-1.272-4.968c0-1.344,0.264-2.656,0.792-3.936c0.528-1.279,1.272-2.448,2.232-3.504s2.08-1.896,3.36-2.52
		c1.279-0.624,2.656-0.936,4.128-0.936c1.855,0,3.528,0.449,5.016,1.344c1.488,0.896,2.671,2.072,3.552,3.528
		c0.88,1.457,1.32,3.048,1.32,4.776c0,1.856-0.408,3.617-1.224,5.28c-0.816,1.664-2.024,3.016-3.624,4.056
		C83.407,39.751,81.407,40.271,79.007,40.271z M80.016,38.831c1.087,0,2.064-0.208,2.928-0.624c0.864-0.416,1.536-1.087,2.016-2.016
		c0.384-0.735,0.64-1.632,0.768-2.688c0.127-1.056,0.192-2.047,0.192-2.976c0-1.536-0.281-3.016-0.84-4.44
		c-0.561-1.423-1.344-2.592-2.352-3.504c-1.008-0.912-2.201-1.368-3.576-1.368c-0.864,0-1.64,0.136-2.328,0.408
		c-0.688,0.272-1.32,0.776-1.896,1.512c-0.64,0.8-1.056,1.776-1.248,2.928c-0.192,1.152-0.288,2.304-0.288,3.456
		c0,1.568,0.288,3.064,0.864,4.488s1.36,2.584,2.352,3.48C77.599,38.384,78.735,38.831,80.016,38.831z"/>
	<path fill="#083E00" d="M93.887,39.743c-0.32,0-0.56-0.041-0.72-0.12s-0.24-0.216-0.24-0.408c0-0.256,0.096-0.424,0.288-0.504
		c0.192-0.079,0.463-0.168,0.816-0.264c0.607-0.16,1.063-0.392,1.368-0.696c0.304-0.304,0.456-0.679,0.456-1.128v-10.32
		c0-0.864-0.128-1.616-0.384-2.256c-0.256-0.64-0.785-1.04-1.584-1.2c-0.128-0.032-0.24-0.112-0.336-0.24
		c-0.096-0.127-0.144-0.255-0.144-0.384c0-0.319,0.144-0.512,0.432-0.576c0.832-0.255,1.704-0.631,2.616-1.128
		c0.912-0.496,1.624-0.904,2.136-1.224c0.192-0.127,0.343-0.216,0.456-0.264c0.111-0.048,0.199-0.072,0.264-0.072
		c0.16,0,0.24,0.113,0.24,0.336c0,0.096-0.008,0.336-0.024,0.72c-0.017,0.384-0.032,0.833-0.048,1.344
		c-0.016,0.513-0.041,1.025-0.072,1.536c0,0.064,0.031,0.096,0.096,0.096c0.512-0.64,1.08-1.2,1.704-1.68s1.264-0.864,1.92-1.152
		c0.656-0.288,1.288-0.432,1.896-0.432c0.672,0,1.224,0.144,1.656,0.432s0.648,0.656,0.648,1.104c0,0.32-0.088,0.672-0.264,1.056
		c-0.176,0.384-0.408,0.72-0.696,1.008s-0.593,0.432-0.912,0.432c-0.192,0-0.4-0.04-0.624-0.12c-0.224-0.08-0.464-0.184-0.72-0.312
		c-0.257-0.096-0.512-0.192-0.768-0.288c-0.257-0.096-0.512-0.144-0.768-0.144c-0.768,0-1.512,0.272-2.232,0.816
		c-0.72,0.545-1.08,1.616-1.08,3.216v9.696c0,0.417,0.224,0.761,0.672,1.032c0.448,0.272,1.072,0.536,1.872,0.792
		c0.352,0.096,0.624,0.192,0.816,0.288c0.192,0.096,0.288,0.256,0.288,0.48c0,0.352-0.32,0.528-0.96,0.528
		c-0.96,0-1.688-0.041-2.184-0.12c-0.497-0.08-1.16-0.12-1.992-0.12c-0.545,0-0.984,0.017-1.32,0.048
		c-0.336,0.032-0.688,0.072-1.056,0.12C95.031,39.719,94.527,39.743,93.887,39.743z"/>
	<path fill="#083E00" d="M117.792,40.32c-1.601,0-3.048-0.408-4.344-1.224s-2.32-1.936-3.072-3.36
		c-0.752-1.424-1.128-3.016-1.128-4.776c0-2.08,0.456-3.967,1.368-5.664c0.912-1.695,2.136-3.048,3.672-4.056
		c1.536-1.008,3.231-1.512,5.088-1.512c2.08,0,3.904,0.561,5.472,1.68c0.384,0.288,0.576,0.592,0.576,0.912
		c0,0.256-0.112,0.544-0.336,0.864c-0.224,0.32-0.497,0.584-0.816,0.792c-0.32,0.208-0.624,0.312-0.912,0.312
		c-0.161,0-0.32-0.056-0.48-0.168c-0.161-0.112-0.336-0.232-0.528-0.36c-0.705-0.544-1.488-1.056-2.352-1.536
		c-0.864-0.48-1.584-0.72-2.16-0.72c-1.568,0-2.84,0.729-3.816,2.184c-0.977,1.457-1.464,3.368-1.464,5.736
		c0,1.504,0.328,2.864,0.984,4.08c0.655,1.217,1.536,2.177,2.64,2.88c1.104,0.704,2.328,1.056,3.672,1.056
		c0.928,0,1.728-0.151,2.4-0.456c0.672-0.304,1.392-0.84,2.16-1.608c0.063-0.063,0.144-0.12,0.24-0.168
		c0.096-0.048,0.176-0.072,0.24-0.072c0.352,0,0.528,0.224,0.528,0.672c0,0.192-0.056,0.408-0.168,0.648
		c-0.112,0.24-0.296,0.521-0.552,0.84c-0.513,0.641-1.121,1.193-1.824,1.656c-0.704,0.464-1.48,0.808-2.328,1.032
		C119.703,40.207,118.783,40.32,117.792,40.32z"/>
	<path fill="#083E00" d="M136.368,40.32c-1.76,0-3.296-0.432-4.608-1.296c-1.313-0.864-2.336-2.088-3.072-3.672
		c-0.736-1.584-1.104-3.416-1.104-5.496c0-1.855,0.424-3.543,1.272-5.064c0.848-1.52,1.976-2.743,3.384-3.672
		c1.408-0.928,2.943-1.392,4.608-1.392c1.279,0,2.416,0.256,3.408,0.768c0.992,0.512,1.768,1.224,2.328,2.136
		c0.56,0.912,0.84,1.96,0.84,3.144c0,0.993-0.48,1.488-1.44,1.488h-10.128c-0.448,0-0.76,0.12-0.936,0.36
		c-0.176,0.24-0.264,0.712-0.264,1.416c0,1.536,0.336,2.937,1.008,4.2c0.672,1.264,1.567,2.272,2.688,3.024
		c1.12,0.752,2.352,1.128,3.696,1.128c0.96,0,1.832-0.184,2.616-0.552c0.784-0.368,1.479-0.904,2.088-1.608
		c0.127-0.16,0.224-0.264,0.288-0.312c0.064-0.048,0.144-0.072,0.24-0.072c0.255,0,0.384,0.161,0.384,0.48
		c0,0.608-0.288,1.28-0.864,2.016c-0.48,0.608-1.056,1.136-1.728,1.584c-0.672,0.448-1.409,0.792-2.208,1.032
		C138.064,40.199,137.232,40.32,136.368,40.32z M131.952,25.775h4.368c0.768,0,1.424-0.016,1.968-0.048
		c0.544-0.031,1.072-0.096,1.584-0.192c0.16-0.032,0.264-0.136,0.312-0.312c0.048-0.175,0.072-0.424,0.072-0.744
		c0-0.928-0.408-1.72-1.224-2.376c-0.816-0.655-1.785-0.984-2.904-0.984c-0.736,0-1.472,0.216-2.208,0.648
		c-0.736,0.432-1.344,0.968-1.824,1.608c-0.48,0.641-0.72,1.28-0.72,1.92C131.376,25.615,131.568,25.775,131.952,25.775z"/>
	<path fill="#083E00" d="M165.311,40.703c-0.064,0-0.127-0.032-0.191-0.096c-0.064-0.064-0.111-0.144-0.145-0.24l-6.672-16.56
		c-0.223-0.64-0.576-1.16-1.055-1.56c-0.48-0.4-0.961-0.664-1.441-0.792c-0.256-0.096-0.504-0.208-0.744-0.336
		c-0.238-0.127-0.359-0.304-0.359-0.528c0-0.192,0.121-0.312,0.359-0.36c0.24-0.048,0.439-0.072,0.602-0.072
		c0.414,0,0.807,0.017,1.176,0.048c0.367,0.032,0.744,0.072,1.127,0.12c0.385,0.048,0.785,0.072,1.201,0.072
		c0.447,0,0.895-0.024,1.344-0.072c0.447-0.048,0.887-0.088,1.32-0.12c0.432-0.031,0.871-0.048,1.32-0.048
		c0.127,0,0.318,0.024,0.574,0.072c0.256,0.048,0.385,0.168,0.385,0.36c0,0.224-0.119,0.4-0.359,0.528
		c-0.24,0.128-0.488,0.24-0.744,0.336c-0.32,0.096-0.568,0.329-0.744,0.696C162.088,22.52,162,22.927,162,23.375
		c0,0.417,0.078,0.833,0.24,1.248l3.742,9.648c0.033,0.128,0.113,0.192,0.24,0.192c0.129,0,0.209-0.063,0.24-0.192l3.264-7.776
		c0.16-0.416,0.266-0.816,0.313-1.2c0.049-0.384,0.072-0.751,0.072-1.104c0-0.703-0.271-1.279-0.816-1.728
		c-0.545-0.448-1.088-0.784-1.631-1.008c-0.258-0.096-0.504-0.208-0.744-0.336c-0.24-0.127-0.361-0.304-0.361-0.528
		c0-0.192,0.113-0.312,0.336-0.36c0.225-0.048,0.434-0.072,0.625-0.072c0.447,0,0.936,0.041,1.463,0.12
		c0.529,0.08,1.24,0.12,2.137,0.12s1.664-0.04,2.305-0.12c0.639-0.08,1.215-0.12,1.729-0.12c0.158,0,0.359,0.024,0.6,0.072
		c0.24,0.048,0.359,0.168,0.359,0.36c0,0.224-0.119,0.4-0.359,0.528c-0.24,0.128-0.488,0.24-0.744,0.336
		c-0.354,0.128-0.713,0.305-1.08,0.528c-0.369,0.225-0.553,0.624-0.553,1.2c0,0.192,0.023,0.408,0.072,0.648
		c0.049,0.24,0.137,0.504,0.264,0.792l3.6,9.264c0.16,0.353,0.289,0.528,0.385,0.528c0.127,0,0.256-0.16,0.385-0.48l3.646-8.496
		c0.129-0.255,0.217-0.576,0.266-0.96c0.047-0.384,0.07-0.688,0.07-0.912c0-0.576-0.191-1.039-0.574-1.392
		c-0.385-0.352-0.754-0.592-1.105-0.72c-0.256-0.096-0.504-0.208-0.744-0.336c-0.24-0.127-0.359-0.304-0.359-0.528
		c0-0.192,0.119-0.312,0.359-0.36c0.24-0.048,0.439-0.072,0.602-0.072c0.703,0,1.264,0.041,1.68,0.12
		c0.414,0.08,1.055,0.12,1.92,0.12c0.607,0,1.039-0.024,1.295-0.072s0.48-0.088,0.672-0.12c0.193-0.031,0.465-0.048,0.816-0.048
		c0.191,0,0.4,0.024,0.625,0.072c0.223,0.048,0.336,0.168,0.336,0.36c0,0.224-0.121,0.4-0.361,0.528
		c-0.24,0.128-0.488,0.24-0.744,0.336c-0.479,0.128-0.943,0.504-1.391,1.128c-0.449,0.624-0.834,1.304-1.152,2.04l-6.576,15.744
		c-0.096,0.224-0.24,0.336-0.432,0.336c-0.129,0-0.258-0.112-0.385-0.336l-4.992-12.384c-0.096-0.255-0.191-0.399-0.287-0.432
		c-0.096,0-0.209,0.16-0.336,0.48l-5.232,12.336C165.6,40.591,165.471,40.703,165.311,40.703z"/>
	<path fill="#083E00" d="M192.24,40.271c-0.576,0-1.16-0.224-1.752-0.672c-0.594-0.448-1.09-0.992-1.488-1.632
		c-0.4-0.64-0.6-1.248-0.6-1.824c0-1.024,0.271-1.824,0.814-2.4c0.545-0.576,1.408-1.104,2.592-1.584l4.896-2.016
		c0.641-0.256,1.016-0.48,1.129-0.672c0.111-0.192,0.184-0.607,0.215-1.248l0.096-3.072c0.033-0.832-0.199-1.551-0.695-2.16
		c-0.496-0.607-1.207-0.912-2.135-0.912c-0.48,0-0.961,0.08-1.441,0.24s-0.881,0.368-1.199,0.624
		c-0.191,0.128-0.32,0.32-0.385,0.576c-0.064,0.256-0.096,0.528-0.096,0.816c0,0.128,0.008,0.272,0.023,0.432
		c0.016,0.161,0.025,0.305,0.025,0.432c0,0.161-0.201,0.376-0.602,0.648c-0.4,0.272-0.848,0.512-1.344,0.72
		c-0.496,0.208-0.904,0.312-1.223,0.312c-0.162,0-0.289-0.04-0.385-0.12c-0.096-0.08-0.145-0.184-0.145-0.312
		c0-0.512,0.168-1.063,0.504-1.656c0.336-0.592,0.809-1.144,1.416-1.656c0.736-0.672,1.537-1.264,2.4-1.776
		c0.863-0.511,1.711-0.912,2.545-1.2c0.832-0.288,1.566-0.432,2.207-0.432c1.152,0,2.104,0.408,2.855,1.224s1.113,1.832,1.08,3.048
		l-0.238,11.52c-0.033,0.672,0.119,1.217,0.455,1.632c0.336,0.417,0.76,0.624,1.271,0.624c0.801,0,1.393-0.175,1.777-0.528
		c0.158-0.16,0.287-0.24,0.383-0.24c0.16,0,0.289,0.048,0.385,0.144c0.096,0.096,0.143,0.225,0.143,0.384
		c0,0.353-0.176,0.704-0.527,1.056c-0.512,0.512-1.064,0.92-1.656,1.224s-1.145,0.456-1.656,0.456c-1.471,0-2.639-0.832-3.504-2.496
		h-0.143c-1.057,0.864-2.064,1.497-3.025,1.896C194.256,40.071,193.264,40.271,192.24,40.271z M194.496,37.968
		c0.639,0,1.184-0.104,1.631-0.312c0.449-0.208,0.848-0.488,1.201-0.84c0.158-0.16,0.295-0.375,0.408-0.648
		c0.111-0.271,0.184-0.711,0.215-1.32l0.096-2.352c0.031-0.352,0.016-0.607-0.047-0.768c-0.064-0.16-0.193-0.24-0.385-0.24
		c-0.064,0-0.176,0.016-0.336,0.048c-0.16,0.032-0.367,0.096-0.623,0.192c-1.697,0.608-2.873,1.241-3.529,1.896
		c-0.656,0.656-0.984,1.256-0.984,1.8c0,0.833,0.248,1.464,0.744,1.896C193.383,37.751,193.92,37.968,194.496,37.968z"/>
	<path fill="#083E00" d="M212.688,40.271c-0.992,0-1.92-0.152-2.785-0.456c-0.863-0.304-1.6-0.728-2.207-1.272
		c-0.16-0.352-0.281-0.943-0.361-1.776c-0.08-0.832-0.135-1.52-0.168-2.064c0-0.288,0.209-0.432,0.625-0.432
		c0.127,0,0.248,0.024,0.359,0.072c0.111,0.048,0.184,0.136,0.217,0.264c0.416,1.568,1.08,2.688,1.992,3.36
		c0.912,0.672,1.83,1.008,2.76,1.008c0.928,0,1.719-0.312,2.375-0.936s0.984-1.399,0.984-2.328c0-0.864-0.287-1.608-0.863-2.232
		s-1.584-1.384-3.023-2.28c-1.09-0.672-1.969-1.312-2.641-1.92s-1.16-1.231-1.465-1.872c-0.305-0.64-0.455-1.36-0.455-2.16
		c0-1.024,0.24-1.952,0.719-2.784c0.48-0.832,1.201-1.495,2.16-1.992c0.961-0.496,2.16-0.744,3.602-0.744
		c0.959,0,1.758,0.096,2.398,0.288s1.121,0.4,1.441,0.624c0.256,0.353,0.471,0.904,0.646,1.656c0.176,0.752,0.266,1.464,0.266,2.136
		c0,0.224-0.162,0.336-0.48,0.336c-0.191,0-0.377-0.04-0.553-0.12c-0.176-0.08-0.295-0.184-0.359-0.312
		c-0.416-1.056-0.936-1.864-1.561-2.424c-0.623-0.56-1.4-0.84-2.328-0.84c-0.799,0-1.512,0.24-2.135,0.72
		c-0.625,0.48-0.938,1.185-0.938,2.112c0,0.736,0.232,1.392,0.697,1.968c0.463,0.576,1.336,1.232,2.615,1.968
		c1.855,1.056,3.24,2.04,4.152,2.952s1.367,2.12,1.367,3.624c0,1.728-0.656,3.137-1.967,4.224
		C216.463,39.727,214.768,40.271,212.688,40.271z"/>
	<path fill="#083E00" d="M239.951,40.271c-1.568,0-2.793-0.48-3.672-1.44c-0.881-0.96-1.32-2.383-1.32-4.272V23.424
		c0-0.256-0.096-0.44-0.289-0.552c-0.191-0.112-0.607-0.168-1.248-0.168h-0.287c-0.16,0-0.297-0.104-0.408-0.312
		c-0.113-0.208-0.168-0.424-0.168-0.648c0-0.064,0.047-0.16,0.145-0.288c0.096-0.127,0.158-0.208,0.191-0.24
		c0.639-0.448,1.225-0.896,1.752-1.344c0.527-0.448,1.008-0.888,1.439-1.32c0.432-0.432,0.793-0.824,1.08-1.176
		c0.16-0.16,0.297-0.295,0.408-0.408c0.111-0.112,0.248-0.168,0.408-0.168s0.313,0.032,0.455,0.096
		c0.145,0.064,0.201,0.208,0.168,0.432l-0.238,2.16c-0.033,0.353,0.047,0.592,0.238,0.72c0.193,0.128,0.496,0.192,0.912,0.192h5.473
		c0.127,0,0.24,0.104,0.336,0.312c0.096,0.208,0.145,0.456,0.145,0.744s-0.049,0.568-0.145,0.84
		c-0.096,0.272-0.209,0.408-0.336,0.408h-4.752c-0.801,0-1.32,0.064-1.561,0.192c-0.24,0.128-0.359,0.512-0.359,1.152v9.456
		c0,1.28,0.271,2.289,0.816,3.024c0.543,0.736,1.328,1.104,2.352,1.104c0.928,0,1.648-0.072,2.16-0.216s0.977-0.36,1.393-0.648
		c0.063-0.063,0.127-0.096,0.191-0.096c0.127,0,0.217,0.072,0.264,0.216c0.049,0.144,0.072,0.296,0.072,0.456
		c0,0.16-0.264,0.48-0.791,0.96c-0.529,0.48-1.217,0.928-2.064,1.344C241.861,40.063,240.941,40.271,239.951,40.271z"/>
	<path fill="#083E00" d="M247.822,39.743c-0.641,0-0.961-0.176-0.961-0.528c0-0.288,0.367-0.544,1.104-0.768
		c0.48-0.16,0.938-0.368,1.369-0.624c0.432-0.256,0.664-0.704,0.695-1.344V12.431c0-0.864-0.145-1.624-0.432-2.28
		c-0.287-0.655-0.848-1.047-1.68-1.176c-0.289-0.064-0.432-0.288-0.432-0.672c0-0.288,0.127-0.48,0.383-0.576
		c0.449-0.16,0.984-0.336,1.609-0.528c0.623-0.192,1.271-0.408,1.943-0.648c0.672-0.24,1.264-0.472,1.775-0.696
		c0.129-0.063,0.225-0.096,0.289-0.096c0.096,0,0.176,0.032,0.24,0.096c0.063,0.064,0.096,0.144,0.096,0.24
		c0,0.192-0.041,0.464-0.121,0.816c-0.08,0.353-0.152,0.96-0.215,1.824c-0.064,0.864-0.096,2.16-0.096,3.888v8.352
		c0,0.512,0.023,0.88,0.07,1.104c0.049,0.224,0.137,0.449,0.266,0.672c0.51-0.384,1.143-0.808,1.895-1.272
		c0.752-0.463,1.592-0.872,2.521-1.224c0.928-0.352,1.887-0.528,2.879-0.528c1.568,0,2.871,0.617,3.912,1.848
		c1.039,1.232,1.561,2.792,1.561,4.68v10.08c0,0.641,0.207,1.112,0.623,1.416c0.416,0.305,0.865,0.537,1.344,0.696
		c0.352,0.096,0.625,0.2,0.816,0.312c0.191,0.112,0.289,0.264,0.289,0.456c0,0.352-0.32,0.528-0.961,0.528s-1.127-0.024-1.463-0.072
		c-0.336-0.048-0.656-0.087-0.961-0.12c-0.305-0.032-0.744-0.048-1.32-0.048c-0.545,0-0.977,0.017-1.295,0.048
		c-0.32,0.032-0.648,0.072-0.984,0.12c-0.336,0.048-0.824,0.072-1.465,0.072s-0.959-0.176-0.959-0.528
		c0-0.224,0.096-0.376,0.287-0.456c0.193-0.08,0.465-0.184,0.816-0.312c0.48-0.16,0.912-0.392,1.297-0.696
		c0.383-0.304,0.574-0.775,0.574-1.416v-9.792c0-0.799-0.232-1.528-0.695-2.184c-0.465-0.655-1.031-1.176-1.703-1.56
		c-0.672-0.384-1.361-0.576-2.064-0.576c-0.609,0-1.313,0.088-2.111,0.264c-0.801,0.176-1.426,0.44-1.873,0.792
		c-0.512,0.416-0.855,0.848-1.031,1.296c-0.178,0.448-0.264,1.168-0.264,2.16v9.744c0.031,0.641,0.23,1.088,0.6,1.344
		c0.367,0.256,0.791,0.464,1.271,0.624c0.352,0.096,0.615,0.2,0.791,0.312c0.176,0.112,0.266,0.264,0.266,0.456
		c0,0.352-0.32,0.528-0.961,0.528s-1.121-0.024-1.439-0.072c-0.32-0.048-0.625-0.087-0.912-0.12
		c-0.289-0.032-0.721-0.048-1.297-0.048c-0.543,0-0.982,0.017-1.318,0.048c-0.338,0.032-0.689,0.072-1.057,0.12
		C248.965,39.719,248.461,39.743,247.822,39.743z"/>
	<path fill="#083E00" d="M280.893,40.32c-1.76,0-3.295-0.432-4.607-1.296c-1.313-0.864-2.336-2.088-3.072-3.672
		s-1.104-3.416-1.104-5.496c0-1.855,0.424-3.543,1.271-5.064c0.848-1.52,1.977-2.743,3.385-3.672
		c1.408-0.928,2.943-1.392,4.607-1.392c1.279,0,2.416,0.256,3.408,0.768c0.992,0.512,1.768,1.224,2.328,2.136
		c0.559,0.912,0.84,1.96,0.84,3.144c0,0.993-0.48,1.488-1.439,1.488h-10.129c-0.447,0-0.76,0.12-0.936,0.36
		c-0.176,0.24-0.264,0.712-0.264,1.416c0,1.536,0.336,2.937,1.008,4.2c0.672,1.264,1.568,2.272,2.688,3.024
		c1.121,0.752,2.352,1.128,3.697,1.128c0.959,0,1.83-0.184,2.615-0.552c0.783-0.368,1.48-0.904,2.088-1.608
		c0.127-0.16,0.223-0.264,0.289-0.312c0.063-0.048,0.143-0.072,0.238-0.072c0.256,0,0.385,0.161,0.385,0.48
		c0,0.608-0.287,1.28-0.863,2.016c-0.48,0.608-1.057,1.136-1.729,1.584c-0.672,0.448-1.408,0.792-2.209,1.032
		C282.59,40.199,281.758,40.32,280.893,40.32z M276.477,25.775h4.369c0.768,0,1.424-0.016,1.967-0.048
		c0.545-0.031,1.072-0.096,1.584-0.192c0.16-0.032,0.266-0.136,0.313-0.312c0.049-0.175,0.072-0.424,0.072-0.744
		c0-0.928-0.408-1.72-1.225-2.376c-0.814-0.655-1.783-0.984-2.902-0.984c-0.738,0-1.473,0.216-2.209,0.648s-1.344,0.968-1.824,1.608
		c-0.48,0.641-0.719,1.28-0.719,1.92C275.902,25.615,276.094,25.775,276.477,25.775z"/>
	<path fill="#083E00" d="M10.224,112.32c-1.601,0-3.048-0.408-4.344-1.224s-2.32-1.936-3.072-3.36
		c-0.752-1.424-1.128-3.016-1.128-4.776c0-2.08,0.456-3.967,1.368-5.664C3.96,95.6,5.184,94.247,6.72,93.24
		c1.536-1.008,3.231-1.512,5.088-1.512c2.08,0,3.904,0.561,5.472,1.68c0.384,0.288,0.576,0.592,0.576,0.912
		c0,0.256-0.112,0.544-0.336,0.864c-0.224,0.32-0.497,0.584-0.816,0.792c-0.32,0.208-0.624,0.312-0.912,0.312
		c-0.161,0-0.32-0.056-0.48-0.168c-0.161-0.112-0.336-0.232-0.528-0.36c-0.705-0.544-1.488-1.056-2.352-1.536
		c-0.864-0.48-1.584-0.72-2.16-0.72c-1.568,0-2.84,0.729-3.816,2.184c-0.977,1.457-1.464,3.368-1.464,5.736
		c0,1.504,0.328,2.864,0.984,4.08c0.655,1.217,1.536,2.177,2.64,2.88c1.104,0.704,2.328,1.056,3.672,1.056
		c0.928,0,1.728-0.151,2.4-0.456c0.672-0.304,1.392-0.84,2.16-1.608c0.063-0.063,0.144-0.12,0.24-0.168
		c0.096-0.048,0.176-0.072,0.24-0.072c0.352,0,0.528,0.224,0.528,0.672c0,0.192-0.056,0.408-0.168,0.648
		c-0.112,0.24-0.296,0.521-0.552,0.84c-0.513,0.641-1.121,1.193-1.824,1.656c-0.704,0.464-1.48,0.808-2.328,1.032
		C12.136,112.207,11.215,112.32,10.224,112.32z"/>
	<path fill="#083E00" d="M21.408,111.743c-0.641,0-0.96-0.176-0.96-0.528c0-0.288,0.367-0.544,1.104-0.768
		c0.48-0.16,0.936-0.368,1.368-0.624c0.432-0.256,0.664-0.704,0.696-1.344V84.431c0-0.864-0.144-1.624-0.432-2.28
		c-0.288-0.655-0.848-1.047-1.68-1.176c-0.288-0.064-0.432-0.288-0.432-0.672c0-0.288,0.127-0.48,0.384-0.576
		c0.448-0.16,0.984-0.336,1.608-0.528s1.272-0.408,1.944-0.648c0.672-0.24,1.264-0.472,1.776-0.696
		c0.127-0.063,0.224-0.096,0.288-0.096c0.096,0,0.175,0.032,0.24,0.096c0.064,0.064,0.096,0.144,0.096,0.24
		c0,0.192-0.041,0.464-0.12,0.816c-0.08,0.353-0.152,0.96-0.216,1.824c-0.064,0.864-0.096,2.16-0.096,3.888v8.352
		c0,0.512,0.024,0.88,0.072,1.104c0.048,0.224,0.136,0.449,0.264,0.672c0.512-0.384,1.144-0.808,1.896-1.272
		c0.751-0.463,1.592-0.872,2.52-1.224c0.928-0.352,1.888-0.528,2.88-0.528c1.568,0,2.872,0.617,3.912,1.848
		c1.04,1.232,1.56,2.792,1.56,4.68v10.08c0,0.641,0.208,1.112,0.624,1.416c0.416,0.305,0.864,0.537,1.344,0.696
		c0.352,0.096,0.624,0.2,0.816,0.312c0.192,0.112,0.288,0.264,0.288,0.456c0,0.352-0.32,0.528-0.96,0.528s-1.128-0.024-1.464-0.072
		c-0.336-0.048-0.656-0.087-0.96-0.12c-0.304-0.032-0.744-0.048-1.32-0.048c-0.544,0-0.977,0.017-1.296,0.048
		c-0.32,0.032-0.648,0.072-0.984,0.12c-0.336,0.048-0.824,0.072-1.464,0.072c-0.641,0-0.96-0.176-0.96-0.528
		c0-0.224,0.096-0.376,0.288-0.456c0.192-0.08,0.463-0.184,0.816-0.312c0.48-0.16,0.912-0.392,1.296-0.696
		c0.384-0.304,0.576-0.775,0.576-1.416v-9.792c0-0.799-0.232-1.528-0.696-2.184c-0.464-0.655-1.032-1.176-1.704-1.56
		c-0.672-0.384-1.361-0.576-2.064-0.576c-0.608,0-1.313,0.088-2.112,0.264c-0.8,0.176-1.424,0.44-1.872,0.792
		c-0.512,0.416-0.856,0.848-1.032,1.296c-0.176,0.448-0.264,1.168-0.264,2.16v9.744c0.032,0.641,0.232,1.088,0.6,1.344
		c0.368,0.256,0.792,0.464,1.272,0.624c0.352,0.096,0.616,0.2,0.792,0.312c0.175,0.112,0.264,0.264,0.264,0.456
		c0,0.352-0.32,0.528-0.96,0.528c-0.641,0-1.121-0.024-1.44-0.072c-0.32-0.048-0.624-0.087-0.912-0.12
		c-0.288-0.032-0.72-0.048-1.296-0.048c-0.544,0-0.984,0.017-1.32,0.048c-0.336,0.032-0.688,0.072-1.056,0.12
		C22.551,111.719,22.047,111.743,21.408,111.743z"/>
	<path fill="#083E00" d="M55.487,112.271c-1.792,0-3.408-0.416-4.848-1.248c-1.44-0.832-2.584-1.975-3.432-3.432
		c-0.849-1.456-1.272-3.112-1.272-4.968c0-1.344,0.264-2.656,0.792-3.936c0.528-1.279,1.272-2.448,2.232-3.504s2.08-1.896,3.36-2.52
		c1.279-0.624,2.656-0.936,4.128-0.936c1.855,0,3.528,0.449,5.016,1.344c1.488,0.896,2.671,2.072,3.552,3.528
		c0.88,1.457,1.32,3.048,1.32,4.776c0,1.856-0.408,3.617-1.224,5.28c-0.816,1.664-2.024,3.016-3.624,4.056
		C59.887,111.751,57.887,112.271,55.487,112.271z M56.496,110.831c1.087,0,2.064-0.208,2.928-0.624
		c0.864-0.416,1.536-1.087,2.016-2.016c0.384-0.735,0.64-1.632,0.768-2.688c0.127-1.056,0.192-2.047,0.192-2.976
		c0-1.536-0.281-3.016-0.84-4.44c-0.561-1.423-1.344-2.592-2.352-3.504c-1.008-0.912-2.201-1.368-3.576-1.368
		c-0.864,0-1.64,0.136-2.328,0.408c-0.688,0.272-1.32,0.776-1.896,1.512c-0.64,0.8-1.056,1.776-1.248,2.928
		c-0.192,1.152-0.288,2.304-0.288,3.456c0,1.568,0.288,3.064,0.864,4.488s1.36,2.584,2.352,3.48
		C54.079,110.384,55.215,110.831,56.496,110.831z"/>
	<path fill="#083E00" d="M70.127,111.743c-0.288,0-0.521-0.041-0.696-0.12c-0.176-0.08-0.264-0.216-0.264-0.408
		c0-0.256,0.12-0.432,0.36-0.528c0.24-0.096,0.487-0.175,0.744-0.24c0.672-0.16,1.184-0.36,1.536-0.6
		c0.352-0.24,0.528-0.648,0.528-1.224V98.207c0-0.864-0.152-1.632-0.456-2.304c-0.304-0.672-0.872-1.072-1.704-1.2
		c-0.161-0.032-0.281-0.096-0.36-0.192c-0.08-0.096-0.12-0.24-0.12-0.432c0-0.352,0.144-0.544,0.432-0.576
		c1.28-0.288,2.335-0.679,3.168-1.176c0.832-0.496,1.456-0.904,1.872-1.224c0.288-0.224,0.512-0.336,0.672-0.336
		c0.192,0,0.288,0.08,0.288,0.24c0,0.256-0.041,0.76-0.12,1.512c-0.081,0.752-0.152,1.584-0.216,2.496
		c-0.064,0.912-0.096,1.736-0.096,2.472v11.136c0,0.544,0.184,0.944,0.552,1.2c0.368,0.256,0.872,0.464,1.512,0.624
		c0.255,0.064,0.504,0.144,0.744,0.24c0.24,0.096,0.36,0.272,0.36,0.528c0,0.352-0.32,0.528-0.96,0.528
		c-0.608,0-1.097-0.024-1.464-0.072c-0.368-0.048-0.72-0.087-1.056-0.12c-0.336-0.032-0.792-0.048-1.368-0.048
		c-0.544,0-0.992,0.017-1.344,0.048c-0.352,0.032-0.704,0.072-1.056,0.12C71.263,111.719,70.767,111.743,70.127,111.743z
		 M73.967,86.831c-0.672,0-1.241-0.231-1.704-0.696c-0.464-0.464-0.696-1.032-0.696-1.704c0-0.704,0.232-1.288,0.696-1.752
		c0.463-0.463,1.032-0.696,1.704-0.696c0.703,0,1.288,0.233,1.752,0.696c0.463,0.464,0.696,1.048,0.696,1.752
		c0,0.672-0.232,1.24-0.696,1.704C75.255,86.6,74.67,86.831,73.967,86.831z"/>
	<path fill="#083E00" d="M89.999,112.32c-1.601,0-3.048-0.408-4.344-1.224s-2.32-1.936-3.072-3.36
		c-0.752-1.424-1.128-3.016-1.128-4.776c0-2.08,0.456-3.967,1.368-5.664c0.912-1.695,2.136-3.048,3.672-4.056
		c1.536-1.008,3.231-1.512,5.088-1.512c2.08,0,3.904,0.561,5.472,1.68c0.384,0.288,0.576,0.592,0.576,0.912
		c0,0.256-0.112,0.544-0.336,0.864c-0.224,0.32-0.497,0.584-0.816,0.792c-0.32,0.208-0.624,0.312-0.912,0.312
		c-0.161,0-0.32-0.056-0.48-0.168c-0.161-0.112-0.336-0.232-0.528-0.36c-0.705-0.544-1.488-1.056-2.352-1.536
		c-0.864-0.48-1.584-0.72-2.16-0.72c-1.568,0-2.84,0.729-3.816,2.184c-0.977,1.457-1.464,3.368-1.464,5.736
		c0,1.504,0.328,2.864,0.984,4.08c0.655,1.217,1.536,2.177,2.64,2.88c1.104,0.704,2.328,1.056,3.672,1.056
		c0.928,0,1.728-0.151,2.4-0.456c0.672-0.304,1.392-0.84,2.16-1.608c0.063-0.063,0.144-0.12,0.24-0.168
		c0.096-0.048,0.176-0.072,0.24-0.072c0.352,0,0.528,0.224,0.528,0.672c0,0.192-0.056,0.408-0.168,0.648
		c-0.112,0.24-0.296,0.521-0.552,0.84c-0.513,0.641-1.121,1.193-1.824,1.656c-0.704,0.464-1.48,0.808-2.328,1.032
		C91.911,112.207,90.99,112.32,89.999,112.32z"/>
	<path fill="#083E00" d="M108.576,112.32c-1.76,0-3.296-0.432-4.608-1.296c-1.313-0.864-2.336-2.088-3.072-3.672
		c-0.736-1.584-1.104-3.416-1.104-5.496c0-1.855,0.424-3.543,1.272-5.064c0.848-1.52,1.976-2.743,3.384-3.672
		c1.408-0.928,2.943-1.392,4.608-1.392c1.279,0,2.416,0.256,3.408,0.768c0.992,0.512,1.768,1.224,2.328,2.136
		c0.56,0.912,0.84,1.96,0.84,3.144c0,0.993-0.48,1.488-1.44,1.488h-10.128c-0.448,0-0.76,0.12-0.936,0.36
		c-0.176,0.24-0.264,0.712-0.264,1.416c0,1.536,0.336,2.937,1.008,4.2c0.672,1.264,1.567,2.272,2.688,3.024
		c1.12,0.752,2.352,1.128,3.696,1.128c0.96,0,1.832-0.184,2.616-0.552c0.784-0.368,1.479-0.904,2.088-1.608
		c0.127-0.16,0.224-0.264,0.288-0.312c0.064-0.048,0.144-0.072,0.24-0.072c0.255,0,0.384,0.161,0.384,0.48
		c0,0.608-0.288,1.28-0.864,2.016c-0.48,0.608-1.056,1.136-1.728,1.584c-0.672,0.448-1.409,0.792-2.208,1.032
		C110.271,112.199,109.439,112.32,108.576,112.32z M104.16,97.775h4.368c0.768,0,1.424-0.016,1.968-0.048
		c0.544-0.031,1.072-0.096,1.584-0.192c0.16-0.032,0.264-0.136,0.312-0.312c0.048-0.175,0.072-0.424,0.072-0.744
		c0-0.928-0.408-1.72-1.224-2.376c-0.816-0.655-1.785-0.984-2.904-0.984c-0.736,0-1.472,0.216-2.208,0.648
		c-0.736,0.432-1.344,0.968-1.824,1.608c-0.48,0.641-0.72,1.28-0.72,1.92C103.583,97.615,103.775,97.775,104.16,97.775z"/>
	<path fill="#083E00" d="M128.975,111.84c-0.417,0-0.752-0.041-1.008-0.12c-0.256-0.081-0.384-0.216-0.384-0.408
		c0-0.384,0.528-0.672,1.584-0.864c1.216-0.224,2.144-0.592,2.784-1.104c0.64-0.512,0.96-1.328,0.96-2.448V85.199
		c0-1.12-0.233-1.92-0.696-2.4c-0.464-0.48-1.304-0.832-2.52-1.056c-1.056-0.192-1.584-0.512-1.584-0.96
		c0-0.192,0.127-0.328,0.384-0.408c0.255-0.08,0.591-0.12,1.008-0.12c0.864,0,1.576,0.017,2.136,0.048
		c0.56,0.032,1.096,0.056,1.608,0.072c0.511,0.017,1.135,0.024,1.872,0.024c0.703,0,1.279-0.007,1.728-0.024
		c0.448-0.016,0.928-0.04,1.44-0.072c0.511-0.032,1.2-0.048,2.064-0.048c0.416,0,0.751,0.041,1.008,0.12
		c0.256,0.081,0.384,0.216,0.384,0.408c0,0.224-0.128,0.416-0.384,0.576c-0.256,0.161-0.656,0.288-1.2,0.384
		c-1.184,0.224-2.048,0.576-2.592,1.056c-0.544,0.48-0.816,1.28-0.816,2.4v21.696c0,1.121,0.336,1.937,1.008,2.448
		c0.672,0.512,1.6,0.88,2.784,1.104c0.543,0.096,0.943,0.208,1.2,0.336c0.256,0.128,0.384,0.304,0.384,0.528
		c0,0.192-0.128,0.328-0.384,0.408c-0.256,0.08-0.592,0.12-1.008,0.12c-0.864,0-1.577-0.024-2.136-0.072
		c-0.561-0.048-1.097-0.088-1.608-0.12c-0.512-0.032-1.136-0.048-1.872-0.048c-0.8,0-1.497,0.016-2.088,0.048
		c-0.592,0.032-1.2,0.072-1.824,0.12S129.839,111.84,128.975,111.84z"/>
	<path fill="#083E00" d="M163.438,112.703c-0.064,0-0.127-0.032-0.191-0.096c-0.064-0.064-0.111-0.144-0.145-0.24l-6.672-16.56
		c-0.223-0.64-0.576-1.16-1.055-1.56c-0.48-0.4-0.961-0.664-1.441-0.792c-0.256-0.096-0.504-0.208-0.744-0.336
		c-0.238-0.127-0.359-0.304-0.359-0.528c0-0.192,0.121-0.312,0.359-0.36c0.24-0.048,0.439-0.072,0.602-0.072
		c0.414,0,0.807,0.017,1.176,0.048c0.367,0.032,0.744,0.072,1.127,0.12c0.385,0.048,0.785,0.072,1.201,0.072
		c0.447,0,0.895-0.024,1.344-0.072c0.447-0.048,0.887-0.088,1.32-0.12c0.432-0.031,0.871-0.048,1.32-0.048
		c0.127,0,0.318,0.024,0.574,0.072c0.256,0.048,0.385,0.168,0.385,0.36c0,0.224-0.119,0.4-0.359,0.528
		c-0.24,0.128-0.488,0.24-0.744,0.336c-0.32,0.096-0.568,0.329-0.744,0.696c-0.176,0.369-0.264,0.776-0.264,1.224
		c0,0.417,0.078,0.833,0.24,1.248l3.742,9.648c0.033,0.128,0.113,0.192,0.24,0.192c0.129,0,0.209-0.063,0.24-0.192l3.264-7.776
		c0.16-0.416,0.266-0.816,0.313-1.2c0.049-0.384,0.072-0.751,0.072-1.104c0-0.703-0.271-1.279-0.816-1.728
		c-0.545-0.448-1.088-0.784-1.631-1.008c-0.258-0.096-0.504-0.208-0.744-0.336c-0.24-0.127-0.361-0.304-0.361-0.528
		c0-0.192,0.113-0.312,0.336-0.36c0.225-0.048,0.434-0.072,0.625-0.072c0.447,0,0.936,0.041,1.463,0.12
		c0.529,0.08,1.24,0.12,2.137,0.12s1.664-0.04,2.305-0.12c0.639-0.08,1.215-0.12,1.729-0.12c0.158,0,0.359,0.024,0.6,0.072
		c0.24,0.048,0.359,0.168,0.359,0.36c0,0.224-0.119,0.4-0.359,0.528c-0.24,0.128-0.488,0.24-0.744,0.336
		c-0.354,0.128-0.713,0.305-1.08,0.528c-0.369,0.225-0.553,0.624-0.553,1.2c0,0.192,0.023,0.408,0.072,0.648
		c0.049,0.24,0.137,0.504,0.264,0.792l3.6,9.264c0.16,0.353,0.289,0.528,0.385,0.528c0.127,0,0.256-0.16,0.385-0.48l3.646-8.496
		c0.129-0.255,0.217-0.576,0.266-0.96c0.047-0.384,0.07-0.688,0.07-0.912c0-0.576-0.191-1.039-0.574-1.392
		c-0.385-0.352-0.754-0.592-1.105-0.72c-0.256-0.096-0.504-0.208-0.744-0.336c-0.24-0.127-0.359-0.304-0.359-0.528
		c0-0.192,0.119-0.312,0.359-0.36c0.24-0.048,0.439-0.072,0.602-0.072c0.703,0,1.264,0.041,1.68,0.12
		c0.414,0.08,1.055,0.12,1.92,0.12c0.607,0,1.039-0.024,1.295-0.072s0.48-0.088,0.672-0.12c0.193-0.031,0.465-0.048,0.816-0.048
		c0.191,0,0.4,0.024,0.625,0.072c0.223,0.048,0.336,0.168,0.336,0.36c0,0.224-0.121,0.4-0.361,0.528
		c-0.24,0.128-0.488,0.24-0.744,0.336c-0.479,0.128-0.943,0.504-1.391,1.128c-0.449,0.624-0.834,1.304-1.152,2.04l-6.576,15.744
		c-0.096,0.224-0.24,0.336-0.432,0.336c-0.129,0-0.258-0.112-0.385-0.336l-4.992-12.384c-0.096-0.255-0.191-0.399-0.287-0.432
		c-0.096,0-0.209,0.16-0.336,0.48l-5.232,12.336C163.727,112.591,163.598,112.703,163.438,112.703z"/>
	<path fill="#083E00" d="M190.367,112.271c-0.576,0-1.16-0.224-1.752-0.672c-0.594-0.448-1.09-0.992-1.488-1.632
		c-0.4-0.64-0.6-1.248-0.6-1.824c0-1.024,0.271-1.824,0.814-2.4c0.545-0.576,1.408-1.104,2.592-1.584l4.896-2.016
		c0.641-0.256,1.016-0.48,1.129-0.672c0.111-0.192,0.184-0.607,0.215-1.248l0.096-3.072c0.033-0.832-0.199-1.551-0.695-2.16
		c-0.496-0.607-1.207-0.912-2.135-0.912c-0.48,0-0.961,0.08-1.441,0.24s-0.881,0.368-1.199,0.624
		c-0.191,0.128-0.32,0.32-0.385,0.576c-0.064,0.256-0.096,0.528-0.096,0.816c0,0.128,0.008,0.272,0.023,0.432
		c0.016,0.161,0.025,0.305,0.025,0.432c0,0.161-0.201,0.376-0.602,0.648c-0.4,0.272-0.848,0.512-1.344,0.72
		c-0.496,0.208-0.904,0.312-1.223,0.312c-0.162,0-0.289-0.04-0.385-0.12c-0.096-0.08-0.145-0.184-0.145-0.312
		c0-0.512,0.168-1.063,0.504-1.656c0.336-0.592,0.809-1.144,1.416-1.656c0.736-0.672,1.537-1.264,2.4-1.776
		c0.863-0.511,1.711-0.912,2.545-1.2c0.832-0.288,1.566-0.432,2.207-0.432c1.152,0,2.104,0.408,2.855,1.224s1.113,1.832,1.08,3.048
		l-0.238,11.52c-0.033,0.672,0.119,1.217,0.455,1.632c0.336,0.417,0.76,0.624,1.271,0.624c0.801,0,1.393-0.175,1.777-0.528
		c0.158-0.16,0.287-0.24,0.383-0.24c0.16,0,0.289,0.048,0.385,0.144c0.096,0.096,0.143,0.225,0.143,0.384
		c0,0.353-0.176,0.704-0.527,1.056c-0.512,0.512-1.064,0.92-1.656,1.224s-1.145,0.456-1.656,0.456c-1.471,0-2.639-0.832-3.504-2.496
		h-0.143c-1.057,0.864-2.064,1.497-3.025,1.896C192.383,112.071,191.391,112.271,190.367,112.271z M192.623,109.968
		c0.639,0,1.184-0.104,1.631-0.312c0.449-0.208,0.848-0.488,1.201-0.84c0.158-0.16,0.295-0.375,0.408-0.648
		c0.111-0.271,0.184-0.711,0.215-1.32l0.096-2.352c0.031-0.352,0.016-0.607-0.047-0.768c-0.064-0.16-0.193-0.24-0.385-0.24
		c-0.064,0-0.176,0.016-0.336,0.048c-0.16,0.032-0.367,0.096-0.623,0.192c-1.697,0.608-2.873,1.241-3.529,1.896
		c-0.656,0.656-0.984,1.256-0.984,1.8c0,0.833,0.248,1.464,0.744,1.896C191.51,109.751,192.047,109.968,192.623,109.968z"/>
	<path fill="#083E00" d="M206.014,111.743c-0.287,0-0.52-0.041-0.695-0.12s-0.264-0.216-0.264-0.408
		c0-0.256,0.096-0.424,0.287-0.504c0.191-0.079,0.463-0.168,0.816-0.264c0.48-0.127,0.943-0.304,1.393-0.528
		c0.447-0.223,0.672-0.655,0.672-1.296v-10.32c0-0.864-0.09-1.6-0.266-2.208c-0.176-0.607-0.68-1.024-1.512-1.248
		c-0.127-0.064-0.24-0.136-0.336-0.216c-0.096-0.08-0.143-0.216-0.143-0.408c0-0.352,0.143-0.544,0.432-0.576
		c1.119-0.288,2.031-0.64,2.736-1.056c0.703-0.416,1.391-0.88,2.063-1.392c0.096-0.064,0.184-0.12,0.264-0.168
		c0.08-0.048,0.168-0.072,0.266-0.072c0.063,0,0.119,0.032,0.168,0.096c0.047,0.064,0.072,0.144,0.072,0.24
		c0,0.225-0.041,0.681-0.121,1.368c-0.08,0.688-0.119,1.256-0.119,1.704c0,0.128,0.006,0.248,0.023,0.36
		c0.016,0.113,0.039,0.185,0.072,0.216c1.119-1.056,2.311-1.856,3.576-2.4c1.264-0.543,2.646-0.816,4.152-0.816
		c1.566,0,2.863,0.641,3.887,1.92c1.023,1.28,1.537,2.864,1.537,4.752v10.224c0,0.641,0.223,1.064,0.672,1.272
		c0.447,0.208,0.912,0.393,1.391,0.552c0.256,0.096,0.504,0.2,0.744,0.312c0.24,0.112,0.361,0.296,0.361,0.552
		c0,0.192-0.113,0.312-0.336,0.36c-0.225,0.048-0.434,0.072-0.625,0.072c-0.641,0-1.137-0.024-1.488-0.072
		c-0.352-0.048-0.688-0.087-1.008-0.12c-0.32-0.032-0.768-0.048-1.344-0.048c-0.545,0-0.992,0.017-1.344,0.048
		c-0.354,0.032-0.713,0.072-1.08,0.12c-0.369,0.048-0.873,0.072-1.512,0.072c-0.16,0-0.361-0.024-0.6-0.072
		c-0.24-0.048-0.361-0.168-0.361-0.36c0-0.256,0.121-0.439,0.361-0.552c0.238-0.112,0.486-0.216,0.744-0.312
		c0.479-0.16,0.943-0.344,1.391-0.552c0.447-0.208,0.672-0.631,0.672-1.272v-10.08c0-1.408-0.393-2.503-1.176-3.288
		c-0.783-0.784-1.832-1.191-3.145-1.224c-1.15,0-2.158,0.185-3.023,0.552c-0.863,0.368-1.631,0.824-2.303,1.368
		c-0.129,0.128-0.225,0.296-0.289,0.504c-0.064,0.208-0.096,0.408-0.096,0.6v11.568c0,0.641,0.223,1.073,0.672,1.296
		c0.447,0.225,0.912,0.401,1.393,0.528c0.734,0.192,1.104,0.448,1.104,0.768c0,0.192-0.08,0.328-0.24,0.408s-0.4,0.12-0.721,0.12
		c-0.641,0-1.145-0.024-1.512-0.072c-0.367-0.048-0.713-0.087-1.031-0.12c-0.32-0.032-0.768-0.048-1.344-0.048
		c-0.545,0-0.984,0.017-1.32,0.048c-0.336,0.032-0.689,0.072-1.057,0.12C207.158,111.719,206.654,111.743,206.014,111.743z"/>
	<path fill="#083E00" d="M238.318,112.271c-1.568,0-2.793-0.48-3.672-1.44c-0.881-0.96-1.32-2.383-1.32-4.272V95.424
		c0-0.256-0.096-0.44-0.289-0.552c-0.191-0.112-0.607-0.168-1.248-0.168h-0.287c-0.16,0-0.297-0.104-0.408-0.312
		c-0.113-0.208-0.168-0.424-0.168-0.648c0-0.064,0.047-0.16,0.145-0.288c0.096-0.127,0.158-0.208,0.191-0.24
		c0.639-0.448,1.225-0.896,1.752-1.344c0.527-0.448,1.008-0.888,1.439-1.32c0.432-0.432,0.793-0.824,1.08-1.176
		c0.16-0.16,0.297-0.295,0.408-0.408c0.111-0.112,0.248-0.168,0.408-0.168s0.313,0.032,0.455,0.096
		c0.145,0.064,0.201,0.208,0.168,0.432l-0.238,2.16c-0.033,0.353,0.047,0.592,0.238,0.72c0.193,0.128,0.496,0.192,0.912,0.192h5.473
		c0.127,0,0.24,0.104,0.336,0.312c0.096,0.208,0.145,0.456,0.145,0.744s-0.049,0.568-0.145,0.84
		c-0.096,0.272-0.209,0.408-0.336,0.408h-4.752c-0.801,0-1.32,0.064-1.561,0.192c-0.24,0.128-0.359,0.512-0.359,1.152v9.456
		c0,1.28,0.271,2.289,0.816,3.024c0.543,0.736,1.328,1.104,2.352,1.104c0.928,0,1.648-0.072,2.16-0.216s0.977-0.36,1.393-0.648
		c0.063-0.063,0.127-0.096,0.191-0.096c0.127,0,0.217,0.072,0.264,0.216c0.049,0.144,0.072,0.296,0.072,0.456
		c0,0.16-0.264,0.48-0.791,0.96c-0.529,0.48-1.217,0.928-2.064,1.344C240.229,112.063,239.309,112.271,238.318,112.271z"/>
	<path fill="#083E00" d="M254.541,112.32c-1.76,0-3.297-0.432-4.607-1.296c-1.313-0.864-2.338-2.088-3.072-3.672
		c-0.736-1.584-1.104-3.416-1.104-5.496c0-1.855,0.422-3.543,1.271-5.064c0.848-1.52,1.975-2.743,3.383-3.672
		c1.408-0.928,2.945-1.392,4.609-1.392c1.279,0,2.416,0.256,3.408,0.768c0.99,0.512,1.768,1.224,2.328,2.136
		c0.559,0.912,0.84,1.96,0.84,3.144c0,0.993-0.48,1.488-1.441,1.488h-10.127c-0.449,0-0.762,0.12-0.936,0.36
		c-0.178,0.24-0.266,0.712-0.266,1.416c0,1.536,0.336,2.937,1.008,4.2c0.674,1.264,1.568,2.272,2.689,3.024
		c1.119,0.752,2.352,1.128,3.695,1.128c0.961,0,1.832-0.184,2.615-0.552c0.785-0.368,1.48-0.904,2.09-1.608
		c0.127-0.16,0.223-0.264,0.287-0.312c0.064-0.048,0.145-0.072,0.24-0.072c0.256,0,0.383,0.161,0.383,0.48
		c0,0.608-0.287,1.28-0.863,2.016c-0.48,0.608-1.057,1.136-1.729,1.584c-0.672,0.448-1.408,0.792-2.207,1.032
		C256.236,112.199,255.404,112.32,254.541,112.32z M250.125,97.775h4.367c0.77,0,1.424-0.016,1.969-0.048
		c0.543-0.031,1.072-0.096,1.584-0.192c0.16-0.032,0.264-0.136,0.313-0.312c0.047-0.175,0.072-0.424,0.072-0.744
		c0-0.928-0.408-1.72-1.225-2.376c-0.816-0.655-1.785-0.984-2.904-0.984c-0.736,0-1.473,0.216-2.207,0.648
		c-0.738,0.432-1.346,0.968-1.824,1.608c-0.48,0.641-0.721,1.28-0.721,1.92C249.549,97.615,249.74,97.775,250.125,97.775z"/>
	<path fill="#083E00" d="M279.693,112.511c-0.064,0-0.168-0.064-0.313-0.192c-0.145-0.128-0.215-0.225-0.215-0.288
		c0-0.32,0.039-0.775,0.119-1.368c0.08-0.592,0.119-1.096,0.119-1.512v-0.288c-0.479,0.736-1.248,1.488-2.303,2.256
		c-1.057,0.768-2.385,1.152-3.984,1.152c-1.824,0-3.4-0.48-4.729-1.44s-2.352-2.191-3.072-3.696c-0.719-1.504-1.08-3.056-1.08-4.656
		c0-1.855,0.434-3.6,1.297-5.232s2.104-2.959,3.721-3.984c1.615-1.024,3.543-1.536,5.783-1.536c0.641,0,1.287,0.056,1.943,0.168
		c0.656,0.113,1.16,0.232,1.512,0.36c0.289,0.096,0.496,0.144,0.625,0.144c0.223,0,0.336-0.384,0.336-1.152v-6.816
		c0-1.312-0.209-2.191-0.623-2.64c-0.418-0.448-1.01-0.736-1.777-0.864c-0.287-0.064-0.432-0.271-0.432-0.624
		c0-0.288,0.127-0.48,0.385-0.576c1.406-0.352,2.512-0.688,3.311-1.008c0.801-0.32,1.424-0.576,1.873-0.768
		c0.127-0.064,0.248-0.104,0.359-0.12c0.111-0.016,0.199-0.024,0.264-0.024c0.193,0,0.305,0.096,0.336,0.288
		c0,0.192-0.023,0.521-0.072,0.984c-0.047,0.464-0.104,1.145-0.168,2.04c-0.064,0.896-0.096,2.064-0.096,3.504v21.696
		c0,1.088,0.08,1.88,0.24,2.376s0.416,0.744,0.768,0.744c0.16,0,0.439-0.016,0.84-0.048c0.4-0.031,0.809-0.064,1.225-0.096
		c0.576-0.031,0.865,0.113,0.865,0.432c0,0.224-0.072,0.425-0.217,0.6c-0.145,0.176-0.297,0.264-0.457,0.264
		c-0.895,0.128-1.775,0.312-2.639,0.552c-0.865,0.24-1.857,0.6-2.977,1.08c-0.256,0.127-0.424,0.208-0.504,0.24
		C279.877,112.495,279.789,112.511,279.693,112.511z M274.846,109.775c0.832,0,1.646-0.216,2.447-0.648
		c0.799-0.432,1.504-1,2.111-1.704l0.049-8.64c0-0.864-0.248-1.711-0.744-2.544c-0.496-0.832-1.184-1.512-2.064-2.04
		c-0.881-0.528-1.912-0.792-3.096-0.792c-0.736,0-1.568,0.224-2.496,0.672c-0.928,0.449-1.729,1.241-2.4,2.376
		c-0.672,1.136-1.008,2.776-1.008,4.92c0,1.824,0.271,3.288,0.816,4.392c0.543,1.104,1.207,1.944,1.992,2.52
		c0.783,0.576,1.584,0.968,2.4,1.176C273.67,109.672,274.332,109.775,274.846,109.775z"/>
	<path fill="#083E00" d="M9.072,184.271c-1.568,0-2.792-0.48-3.672-1.439c-0.88-0.961-1.32-2.384-1.32-4.272v-11.136
		c0-0.256-0.096-0.439-0.288-0.553c-0.192-0.111-0.608-0.168-1.248-0.168H2.256c-0.16,0-0.296-0.104-0.408-0.312
		c-0.113-0.208-0.168-0.424-0.168-0.647c0-0.064,0.048-0.16,0.144-0.289c0.096-0.127,0.16-0.207,0.192-0.239
		c0.64-0.448,1.224-0.896,1.752-1.345c0.528-0.447,1.008-0.888,1.44-1.319c0.432-0.433,0.792-0.823,1.08-1.177
		c0.16-0.159,0.295-0.295,0.408-0.407c0.112-0.112,0.248-0.168,0.408-0.168c0.16,0,0.312,0.032,0.456,0.096
		c0.144,0.064,0.199,0.208,0.168,0.433l-0.24,2.16c-0.032,0.352,0.048,0.592,0.24,0.719c0.192,0.129,0.496,0.192,0.912,0.192h5.472
		c0.127,0,0.24,0.104,0.336,0.312c0.096,0.209,0.144,0.457,0.144,0.744c0,0.289-0.048,0.568-0.144,0.84
		c-0.096,0.273-0.209,0.408-0.336,0.408H9.36c-0.8,0-1.32,0.064-1.56,0.192c-0.24,0.128-0.36,0.513-0.36,1.152v9.456
		c0,1.279,0.271,2.288,0.816,3.023c0.544,0.736,1.328,1.104,2.352,1.104c0.928,0,1.648-0.072,2.16-0.216
		c0.511-0.145,0.976-0.36,1.392-0.648c0.063-0.063,0.127-0.096,0.192-0.096c0.127,0,0.216,0.072,0.264,0.216
		c0.048,0.144,0.072,0.296,0.072,0.456s-0.264,0.48-0.792,0.96s-1.216,0.929-2.064,1.344
		C10.984,184.062,10.063,184.271,9.072,184.271z"/>
	<path fill="#083E00" d="M26.304,184.271c-1.792,0-3.408-0.416-4.848-1.248c-1.44-0.832-2.584-1.975-3.432-3.432
		c-0.849-1.456-1.272-3.111-1.272-4.969c0-1.344,0.264-2.655,0.792-3.936c0.528-1.279,1.272-2.447,2.232-3.504s2.08-1.896,3.36-2.52
		c1.279-0.625,2.656-0.937,4.128-0.937c1.855,0,3.528,0.448,5.016,1.345c1.488,0.896,2.671,2.072,3.552,3.527
		c0.88,1.457,1.32,3.048,1.32,4.775c0,1.857-0.408,3.617-1.224,5.281s-2.024,3.016-3.624,4.055
		C30.703,183.751,28.704,184.271,26.304,184.271z M27.312,182.832c1.087,0,2.064-0.208,2.928-0.625
		c0.864-0.415,1.536-1.087,2.016-2.016c0.384-0.735,0.64-1.632,0.768-2.688c0.127-1.057,0.192-2.048,0.192-2.977
		c0-1.535-0.281-3.016-0.84-4.439c-0.561-1.424-1.344-2.592-2.352-3.504c-1.008-0.912-2.201-1.368-3.576-1.368
		c-0.864,0-1.64,0.136-2.328,0.407c-0.688,0.273-1.32,0.777-1.896,1.513c-0.64,0.8-1.056,1.776-1.248,2.928
		c-0.192,1.152-0.288,2.304-0.288,3.456c0,1.568,0.288,3.064,0.864,4.488s1.36,2.584,2.352,3.48
		C24.896,182.384,26.032,182.832,27.312,182.832z"/>
	<path fill="#083E00" d="M54.047,184.271c-0.576,0-1.161-0.225-1.752-0.672c-0.592-0.447-1.088-0.992-1.488-1.632
		c-0.4-0.64-0.6-1.248-0.6-1.824c0-1.024,0.271-1.823,0.816-2.399c0.544-0.576,1.408-1.104,2.592-1.584l4.896-2.017
		c0.64-0.256,1.016-0.479,1.128-0.672c0.112-0.192,0.184-0.607,0.216-1.248l0.096-3.072c0.031-0.831-0.2-1.552-0.696-2.159
		c-0.497-0.607-1.208-0.912-2.136-0.912c-0.48,0-0.96,0.08-1.44,0.24s-0.88,0.367-1.2,0.623c-0.192,0.129-0.32,0.32-0.384,0.576
		c-0.064,0.256-0.096,0.528-0.096,0.816c0,0.128,0.008,0.271,0.024,0.432s0.024,0.305,0.024,0.432c0,0.161-0.201,0.377-0.6,0.648
		c-0.4,0.271-0.848,0.512-1.344,0.72c-0.497,0.208-0.904,0.312-1.224,0.312c-0.161,0-0.288-0.039-0.384-0.119
		s-0.144-0.184-0.144-0.313c0-0.512,0.168-1.063,0.504-1.656c0.336-0.592,0.808-1.143,1.416-1.655
		c0.736-0.673,1.536-1.264,2.4-1.776c0.864-0.512,1.711-0.912,2.544-1.199c0.832-0.289,1.567-0.433,2.208-0.433
		c1.152,0,2.104,0.408,2.856,1.224c0.751,0.816,1.111,1.832,1.08,3.049l-0.24,11.52c-0.032,0.672,0.12,1.217,0.456,1.632
		c0.336,0.417,0.76,0.624,1.272,0.624c0.799,0,1.392-0.176,1.776-0.527c0.16-0.16,0.288-0.24,0.384-0.24
		c0.16,0,0.288,0.048,0.384,0.144c0.096,0.097,0.144,0.225,0.144,0.384c0,0.354-0.176,0.705-0.528,1.057
		c-0.512,0.512-1.064,0.92-1.656,1.224c-0.592,0.304-1.145,0.456-1.656,0.456c-1.472,0-2.64-0.832-3.504-2.496h-0.144
		c-1.056,0.864-2.064,1.496-3.024,1.896C56.063,184.071,55.071,184.271,54.047,184.271z M56.303,181.968
		c0.64,0,1.184-0.104,1.632-0.312c0.448-0.209,0.848-0.488,1.2-0.841c0.16-0.159,0.295-0.376,0.408-0.647
		c0.112-0.271,0.184-0.712,0.216-1.32l0.096-2.352c0.032-0.352,0.016-0.607-0.048-0.769c-0.064-0.159-0.192-0.239-0.384-0.239
		c-0.064,0-0.176,0.016-0.336,0.047c-0.16,0.033-0.368,0.097-0.624,0.192c-1.697,0.608-2.873,1.241-3.528,1.896
		c-0.656,0.656-0.984,1.257-0.984,1.801c0,0.832,0.248,1.464,0.744,1.896C55.191,181.752,55.727,181.968,56.303,181.968z"/>
	<path fill="#083E00" d="M76.895,184.607c-0.128,0-0.288-0.248-0.48-0.744s-0.32-0.855-0.384-1.08
		c-0.225-0.543-0.432-1.111-0.624-1.703c-0.192-0.592-0.384-1.145-0.576-1.656c-0.704-1.984-1.464-3.928-2.28-5.832
		c-0.816-1.904-1.608-3.832-2.376-5.784c-0.224-0.576-0.568-1.096-1.032-1.56c-0.464-0.464-0.936-0.76-1.416-0.889
		c-0.256-0.096-0.464-0.191-0.624-0.287c-0.161-0.097-0.24-0.256-0.24-0.48c0-0.192,0.12-0.313,0.36-0.36
		c0.24-0.048,0.439-0.071,0.6-0.071c0.64,0,1.104,0.016,1.392,0.047c0.288,0.033,0.576,0.072,0.864,0.121
		c0.288,0.047,0.704,0.071,1.248,0.071c0.576,0,1.008-0.024,1.296-0.071c0.288-0.049,0.592-0.088,0.912-0.121
		c0.319-0.031,0.784-0.047,1.392-0.047c0.16,0,0.36,0.023,0.6,0.071c0.24,0.048,0.36,0.168,0.36,0.36c0,0.225-0.113,0.4-0.336,0.527
		c-0.225,0.129-0.48,0.24-0.768,0.336c-0.32,0.129-0.561,0.377-0.72,0.744c-0.161,0.369-0.24,0.777-0.24,1.225
		c0,0.225,0.016,0.448,0.048,0.672c0.031,0.225,0.08,0.432,0.144,0.624l3.792,10.08c0.031,0.032,0.055,0.048,0.072,0.048
		c0.016,0,0.04-0.016,0.072-0.048l3.648-9.36c0.127-0.319,0.224-0.664,0.288-1.031c0.063-0.368,0.096-0.68,0.096-0.937
		c0-0.64-0.096-1.096-0.288-1.368c-0.192-0.271-0.512-0.487-0.96-0.648c-0.416-0.159-0.704-0.287-0.864-0.383
		c-0.161-0.097-0.24-0.256-0.24-0.48c0-0.192,0.104-0.313,0.312-0.36c0.208-0.048,0.424-0.071,0.648-0.071
		c0.352,0,0.816,0.04,1.392,0.119c0.576,0.08,1.28,0.12,2.112,0.12c0.832,0,1.399-0.04,1.704-0.12
		c0.304-0.079,0.68-0.119,1.128-0.119c0.255,0,0.48,0.023,0.672,0.071s0.288,0.168,0.288,0.36c0,0.353-0.369,0.641-1.104,0.863
		c-0.48,0.129-1.008,0.497-1.584,1.104c-0.576,0.608-1.041,1.313-1.392,2.112l-3.744,9.023c-0.064,0.129-0.192,0.44-0.384,0.937
		c-0.192,0.496-0.401,1.04-0.624,1.632c-0.225,0.592-0.497,1.32-0.816,2.184c-0.257,0.608-0.464,1.08-0.624,1.416
		c-0.161,0.336-0.305,0.584-0.432,0.744H76.895z"/>
	<path fill="#083E00" d="M97.679,184.271c-1.792,0-3.408-0.416-4.848-1.248c-1.44-0.832-2.584-1.975-3.432-3.432
		c-0.849-1.456-1.272-3.111-1.272-4.969c0-1.344,0.264-2.655,0.792-3.936c0.528-1.279,1.272-2.447,2.232-3.504s2.08-1.896,3.36-2.52
		c1.279-0.625,2.656-0.937,4.128-0.937c1.855,0,3.528,0.448,5.016,1.345c1.488,0.896,2.671,2.072,3.552,3.527
		c0.88,1.457,1.32,3.048,1.32,4.775c0,1.857-0.408,3.617-1.224,5.281s-2.024,3.016-3.624,4.055
		C102.078,183.751,100.079,184.271,97.679,184.271z M98.687,182.832c1.087,0,2.064-0.208,2.928-0.625
		c0.864-0.415,1.536-1.087,2.016-2.016c0.384-0.735,0.64-1.632,0.768-2.688c0.127-1.057,0.192-2.048,0.192-2.977
		c0-1.535-0.281-3.016-0.84-4.439c-0.561-1.424-1.344-2.592-2.352-3.504c-1.008-0.912-2.201-1.368-3.576-1.368
		c-0.864,0-1.64,0.136-2.328,0.407c-0.688,0.273-1.32,0.777-1.896,1.513c-0.64,0.8-1.056,1.776-1.248,2.928
		c-0.192,1.152-0.288,2.304-0.288,3.456c0,1.568,0.288,3.064,0.864,4.488s1.36,2.584,2.352,3.48
		C96.271,182.384,97.407,182.832,98.687,182.832z"/>
	<path fill="#083E00" d="M112.318,183.744c-0.288,0-0.521-0.041-0.696-0.121c-0.176-0.079-0.264-0.215-0.264-0.407
		c0-0.256,0.12-0.433,0.36-0.528c0.24-0.096,0.487-0.176,0.744-0.24c0.672-0.159,1.184-0.359,1.536-0.6
		c0.352-0.24,0.528-0.648,0.528-1.225v-10.416c0-0.863-0.152-1.631-0.456-2.303c-0.304-0.673-0.872-1.072-1.704-1.201
		c-0.161-0.031-0.281-0.096-0.36-0.191c-0.08-0.096-0.12-0.24-0.12-0.432c0-0.352,0.144-0.545,0.432-0.576
		c1.28-0.288,2.335-0.68,3.168-1.176c0.832-0.496,1.456-0.904,1.872-1.225c0.288-0.224,0.512-0.336,0.672-0.336
		c0.192,0,0.288,0.08,0.288,0.24c0,0.256-0.041,0.76-0.12,1.512c-0.081,0.752-0.152,1.584-0.216,2.496
		c-0.064,0.912-0.096,1.736-0.096,2.473v11.135c0,0.545,0.184,0.945,0.552,1.201c0.368,0.256,0.872,0.464,1.512,0.623
		c0.255,0.064,0.504,0.145,0.744,0.24c0.24,0.096,0.36,0.272,0.36,0.528c0,0.353-0.32,0.528-0.96,0.528
		c-0.608,0-1.097-0.024-1.464-0.072c-0.368-0.049-0.72-0.088-1.056-0.12s-0.792-0.048-1.368-0.048c-0.544,0-0.992,0.016-1.344,0.048
		s-0.704,0.071-1.056,0.12C113.454,183.719,112.958,183.744,112.318,183.744z M116.159,158.832c-0.672,0-1.241-0.232-1.704-0.696
		c-0.464-0.464-0.696-1.032-0.696-1.704c0-0.703,0.232-1.287,0.696-1.752c0.463-0.463,1.032-0.696,1.704-0.696
		c0.703,0,1.288,0.233,1.752,0.696c0.463,0.465,0.696,1.049,0.696,1.752c0,0.672-0.232,1.24-0.696,1.704
		C117.446,158.599,116.862,158.832,116.159,158.832z"/>
	<path fill="#083E00" d="M139.103,184.511c-0.065,0-0.168-0.064-0.312-0.191c-0.144-0.129-0.216-0.225-0.216-0.289
		c0-0.32,0.04-0.775,0.12-1.367c0.08-0.592,0.12-1.096,0.12-1.513v-0.288c-0.48,0.736-1.248,1.488-2.304,2.256
		c-1.056,0.769-2.384,1.152-3.984,1.152c-1.824,0-3.4-0.48-4.728-1.439c-1.328-0.961-2.352-2.191-3.072-3.696
		c-0.72-1.504-1.08-3.056-1.08-4.656c0-1.855,0.432-3.601,1.296-5.231c0.864-1.633,2.104-2.96,3.72-3.984
		c1.616-1.023,3.544-1.536,5.784-1.536c0.64,0,1.288,0.056,1.944,0.168c0.656,0.112,1.16,0.232,1.512,0.36
		c0.288,0.096,0.496,0.144,0.624,0.144c0.224,0,0.336-0.384,0.336-1.151v-6.816c0-1.313-0.208-2.191-0.624-2.641
		c-0.416-0.447-1.008-0.735-1.776-0.863c-0.288-0.064-0.432-0.271-0.432-0.624c0-0.288,0.127-0.479,0.384-0.576
		c1.408-0.352,2.512-0.688,3.312-1.008c0.8-0.319,1.424-0.576,1.872-0.769c0.127-0.063,0.248-0.104,0.36-0.119
		c0.111-0.016,0.199-0.024,0.264-0.024c0.192,0,0.304,0.097,0.336,0.288c0,0.191-0.024,0.521-0.072,0.984s-0.104,1.145-0.168,2.039
		c-0.064,0.896-0.096,2.064-0.096,3.504v21.697c0,1.088,0.08,1.879,0.24,2.375c0.16,0.496,0.416,0.744,0.768,0.744
		c0.16,0,0.439-0.016,0.84-0.048c0.4-0.031,0.808-0.063,1.224-0.097c0.576-0.031,0.864,0.113,0.864,0.433
		c0,0.224-0.072,0.425-0.217,0.601c-0.143,0.176-0.295,0.264-0.456,0.264c-0.896,0.128-1.775,0.313-2.64,0.552
		c-0.864,0.24-1.856,0.601-2.976,1.08c-0.256,0.128-0.424,0.208-0.504,0.239C139.286,184.495,139.198,184.511,139.103,184.511z
		 M134.254,181.775c0.832,0,1.647-0.216,2.448-0.648c0.8-0.432,1.504-0.999,2.112-1.703l0.048-8.641
		c0-0.863-0.248-1.711-0.744-2.543c-0.497-0.832-1.184-1.513-2.064-2.041c-0.88-0.527-1.913-0.791-3.096-0.791
		c-0.737,0-1.568,0.224-2.496,0.672c-0.929,0.448-1.728,1.24-2.4,2.375c-0.672,1.137-1.008,2.777-1.008,4.92
		c0,1.824,0.271,3.289,0.816,4.393c0.544,1.104,1.208,1.943,1.992,2.52c0.784,0.576,1.584,0.969,2.4,1.176
		C133.078,181.672,133.742,181.775,134.254,181.775z"/>
	<path fill="#083E00" d="M164.926,184.271c-1.568,0-2.793-0.48-3.672-1.439c-0.881-0.961-1.32-2.384-1.32-4.272v-11.136
		c0-0.256-0.096-0.439-0.287-0.553c-0.193-0.111-0.609-0.168-1.248-0.168h-0.289c-0.16,0-0.295-0.104-0.408-0.312
		c-0.111-0.208-0.168-0.424-0.168-0.647c0-0.064,0.049-0.16,0.145-0.289c0.096-0.127,0.16-0.207,0.191-0.239
		c0.641-0.448,1.225-0.896,1.752-1.345c0.529-0.447,1.01-0.888,1.441-1.319c0.432-0.433,0.791-0.823,1.08-1.177
		c0.158-0.159,0.295-0.295,0.408-0.407c0.111-0.112,0.246-0.168,0.406-0.168s0.313,0.032,0.457,0.096
		c0.145,0.064,0.199,0.208,0.168,0.433l-0.24,2.16c-0.031,0.352,0.049,0.592,0.24,0.719c0.191,0.129,0.496,0.192,0.912,0.192h5.473
		c0.127,0,0.238,0.104,0.336,0.312c0.096,0.209,0.143,0.457,0.143,0.744c0,0.289-0.047,0.568-0.143,0.84
		c-0.098,0.273-0.209,0.408-0.336,0.408h-4.752c-0.801,0-1.32,0.064-1.561,0.192s-0.359,0.513-0.359,1.152v9.456
		c0,1.279,0.271,2.288,0.814,3.023c0.545,0.736,1.328,1.104,2.354,1.104c0.928,0,1.646-0.072,2.158-0.216
		c0.512-0.145,0.977-0.36,1.393-0.648c0.064-0.063,0.127-0.096,0.191-0.096c0.129,0,0.217,0.072,0.266,0.216
		c0.047,0.144,0.072,0.296,0.072,0.456s-0.266,0.48-0.793,0.96s-1.217,0.929-2.064,1.344S165.918,184.271,164.926,184.271z"/>
	<path fill="#083E00" d="M172.797,183.744c-0.641,0-0.959-0.176-0.959-0.528c0-0.288,0.367-0.544,1.104-0.769
		c0.48-0.159,0.936-0.367,1.367-0.623c0.434-0.256,0.664-0.704,0.697-1.345v-24.048c0-0.864-0.145-1.624-0.432-2.28
		c-0.289-0.655-0.85-1.048-1.682-1.176c-0.287-0.063-0.432-0.288-0.432-0.672c0-0.288,0.127-0.479,0.385-0.576
		c0.447-0.159,0.984-0.336,1.607-0.528c0.625-0.191,1.271-0.408,1.943-0.647c0.672-0.24,1.264-0.472,1.777-0.696
		c0.127-0.063,0.223-0.096,0.287-0.096c0.096,0,0.176,0.032,0.24,0.096c0.064,0.064,0.096,0.145,0.096,0.24
		c0,0.191-0.041,0.465-0.119,0.816c-0.08,0.352-0.152,0.959-0.217,1.824c-0.064,0.863-0.096,2.159-0.096,3.887v8.353
		c0,0.513,0.023,0.88,0.072,1.104c0.047,0.224,0.135,0.448,0.264,0.672c0.512-0.385,1.145-0.809,1.896-1.272s1.592-0.872,2.52-1.224
		s1.889-0.528,2.881-0.528c1.566,0,2.871,0.616,3.912,1.849c1.039,1.231,1.559,2.791,1.559,4.68v10.08
		c0,0.641,0.209,1.111,0.625,1.416s0.863,0.536,1.344,0.695c0.352,0.096,0.623,0.201,0.816,0.313
		c0.191,0.112,0.287,0.264,0.287,0.456c0,0.353-0.32,0.528-0.959,0.528c-0.641,0-1.129-0.024-1.465-0.072
		c-0.336-0.049-0.656-0.088-0.959-0.12c-0.305-0.032-0.744-0.048-1.32-0.048c-0.545,0-0.977,0.016-1.297,0.048
		s-0.648,0.071-0.984,0.12c-0.336,0.048-0.824,0.072-1.463,0.072c-0.641,0-0.961-0.176-0.961-0.528c0-0.224,0.096-0.376,0.289-0.456
		c0.191-0.08,0.463-0.184,0.814-0.313c0.48-0.159,0.912-0.391,1.297-0.695s0.576-0.775,0.576-1.416v-9.793
		c0-0.799-0.232-1.527-0.695-2.184c-0.465-0.655-1.033-1.176-1.705-1.56s-1.359-0.576-2.064-0.576c-0.607,0-1.313,0.089-2.111,0.265
		c-0.801,0.176-1.424,0.439-1.871,0.791c-0.514,0.416-0.857,0.849-1.033,1.297c-0.176,0.447-0.264,1.168-0.264,2.16v9.743
		c0.031,0.641,0.232,1.089,0.6,1.345s0.793,0.464,1.271,0.623c0.354,0.096,0.617,0.201,0.793,0.313
		c0.176,0.112,0.264,0.264,0.264,0.456c0,0.353-0.32,0.528-0.959,0.528c-0.641,0-1.121-0.024-1.441-0.072
		c-0.32-0.049-0.623-0.088-0.912-0.12c-0.287-0.032-0.719-0.048-1.295-0.048c-0.545,0-0.984,0.016-1.32,0.048
		s-0.688,0.071-1.057,0.12C173.941,183.719,173.438,183.744,172.797,183.744z"/>
	<path fill="#083E00" d="M205.869,184.32c-1.76,0-3.297-0.433-4.607-1.297c-1.313-0.863-2.338-2.088-3.072-3.672
		c-0.736-1.584-1.104-3.416-1.104-5.496c0-1.855,0.422-3.543,1.271-5.064c0.848-1.52,1.975-2.742,3.383-3.672
		c1.408-0.928,2.945-1.392,4.609-1.392c1.279,0,2.416,0.257,3.408,0.769c0.99,0.512,1.768,1.224,2.328,2.136
		c0.559,0.911,0.84,1.96,0.84,3.144c0,0.992-0.48,1.488-1.441,1.488h-10.127c-0.449,0-0.762,0.12-0.936,0.359
		c-0.178,0.24-0.266,0.713-0.266,1.416c0,1.537,0.336,2.938,1.008,4.201c0.674,1.264,1.568,2.271,2.689,3.023
		c1.119,0.752,2.352,1.128,3.695,1.128c0.961,0,1.832-0.184,2.615-0.552c0.785-0.367,1.48-0.904,2.09-1.608
		c0.127-0.159,0.223-0.264,0.287-0.312c0.064-0.049,0.145-0.072,0.24-0.072c0.256,0,0.383,0.16,0.383,0.48
		c0,0.607-0.287,1.279-0.863,2.016c-0.48,0.607-1.057,1.137-1.729,1.584c-0.672,0.448-1.408,0.792-2.207,1.031
		C207.564,184.199,206.732,184.32,205.869,184.32z M201.453,169.775h4.367c0.77,0,1.424-0.016,1.969-0.048
		c0.543-0.031,1.072-0.096,1.584-0.192c0.16-0.031,0.264-0.135,0.313-0.312c0.047-0.175,0.072-0.424,0.072-0.744
		c0-0.928-0.408-1.72-1.225-2.376c-0.816-0.655-1.785-0.984-2.904-0.984c-0.736,0-1.473,0.217-2.207,0.648
		c-0.738,0.432-1.346,0.969-1.824,1.607c-0.48,0.641-0.721,1.281-0.721,1.92C200.877,169.615,201.068,169.775,201.453,169.775z"/>
	<path fill="#083E00" d="M226.076,183.744c-0.256,0-0.48-0.033-0.672-0.097s-0.287-0.208-0.287-0.432s0.104-0.384,0.311-0.479
		c0.209-0.097,0.473-0.193,0.793-0.289c0.447-0.159,0.904-0.344,1.367-0.552c0.465-0.208,0.697-0.632,0.697-1.272v-10.319
		c0-0.864-0.098-1.624-0.289-2.28c-0.191-0.655-0.703-1.047-1.535-1.176c-0.129-0.031-0.232-0.096-0.313-0.191
		c-0.08-0.097-0.119-0.24-0.119-0.433c0-0.319,0.127-0.512,0.383-0.576c0.863-0.224,1.553-0.456,2.064-0.696
		s0.967-0.512,1.367-0.815s0.889-0.632,1.465-0.984c0.064-0.031,0.127-0.071,0.191-0.12c0.064-0.048,0.145-0.072,0.24-0.072
		c0.191,0,0.289,0.113,0.289,0.336c0,0.225-0.041,0.682-0.121,1.369s-0.119,1.256-0.119,1.703c0,0.32,0.031,0.513,0.096,0.576h0.096
		c0.736-0.703,1.703-1.416,2.904-2.136c1.199-0.72,2.727-1.08,4.584-1.08c1.152,0,2.111,0.249,2.879,0.744
		c0.77,0.497,1.408,1.353,1.92,2.567h0.145c1.023-0.928,2.191-1.711,3.504-2.352c1.313-0.64,2.752-0.96,4.32-0.96
		c1.057,0,1.936,0.32,2.641,0.96c0.703,0.641,1.238,1.473,1.607,2.496c0.367,1.024,0.553,2.096,0.553,3.216v10.224
		c0,0.641,0.223,1.064,0.672,1.272c0.447,0.208,0.912,0.393,1.391,0.552c0.32,0.096,0.584,0.192,0.793,0.289
		c0.207,0.096,0.313,0.256,0.313,0.479c0,0.192-0.072,0.328-0.217,0.407c-0.145,0.08-0.393,0.121-0.744,0.121
		c-0.641,0-1.137-0.024-1.488-0.072c-0.352-0.049-0.68-0.088-0.984-0.12c-0.303-0.032-0.742-0.048-1.318-0.048
		c-0.545,0-0.992,0.016-1.346,0.048c-0.352,0.032-0.719,0.071-1.104,0.12c-0.383,0.048-0.896,0.072-1.535,0.072
		c-0.289,0-0.521-0.041-0.697-0.121c-0.176-0.079-0.264-0.215-0.264-0.407c0-0.256,0.104-0.433,0.313-0.528
		c0.207-0.096,0.473-0.176,0.793-0.24c0.51-0.127,0.982-0.303,1.416-0.527c0.432-0.224,0.646-0.656,0.646-1.297v-10.08
		c0-0.768-0.176-1.494-0.527-2.184c-0.354-0.688-0.816-1.256-1.393-1.703c-0.576-0.448-1.217-0.673-1.92-0.673
		c-0.801,0-1.543,0.097-2.232,0.288c-0.688,0.191-1.336,0.528-1.943,1.008c-0.896,0.705-1.344,1.856-1.344,3.457v9.887
		c0,0.641,0.24,1.073,0.721,1.297c0.479,0.225,0.959,0.4,1.439,0.527c0.318,0.064,0.584,0.152,0.791,0.264
		c0.209,0.113,0.313,0.281,0.313,0.505c0,0.192-0.08,0.328-0.24,0.407c-0.16,0.08-0.4,0.121-0.719,0.121
		c-0.641,0-1.145-0.024-1.514-0.072c-0.367-0.049-0.719-0.088-1.055-0.12s-0.793-0.048-1.369-0.048
		c-0.543,0-0.992,0.016-1.344,0.048s-0.719,0.071-1.104,0.12c-0.385,0.048-0.896,0.072-1.535,0.072c-0.258,0-0.48-0.041-0.672-0.121
		c-0.193-0.079-0.289-0.215-0.289-0.407c0-0.256,0.121-0.424,0.359-0.505c0.24-0.078,0.488-0.168,0.744-0.264
		c0.48-0.159,0.953-0.344,1.416-0.552c0.465-0.208,0.697-0.632,0.697-1.272v-10.08c0-0.768-0.178-1.494-0.529-2.184
		c-0.352-0.688-0.814-1.256-1.391-1.703c-0.576-0.448-1.217-0.673-1.92-0.673c-0.801,0-1.545,0.097-2.232,0.288
		c-0.689,0.191-1.336,0.528-1.945,1.008c-0.863,0.641-1.295,1.793-1.295,3.457v9.887c0,0.641,0.223,1.064,0.672,1.272
		c0.447,0.208,0.912,0.393,1.393,0.552c0.256,0.096,0.504,0.186,0.744,0.264c0.238,0.081,0.359,0.249,0.359,0.505
		c0,0.192-0.088,0.328-0.264,0.407c-0.176,0.08-0.408,0.121-0.697,0.121c-0.641,0-1.145-0.024-1.512-0.072
		c-0.367-0.049-0.713-0.088-1.031-0.12c-0.32-0.032-0.768-0.048-1.344-0.048c-0.545,0-0.984,0.016-1.32,0.048
		s-0.689,0.071-1.057,0.12C227.221,183.719,226.717,183.744,226.076,183.744z"/>
	<path fill="#083E00" d="M272.541,184.271c-1.793,0-3.408-0.416-4.85-1.248c-1.439-0.832-2.584-1.975-3.432-3.432
		c-0.848-1.456-1.271-3.111-1.271-4.969c0-1.344,0.264-2.655,0.791-3.936c0.529-1.279,1.273-2.447,2.232-3.504
		c0.961-1.057,2.08-1.896,3.361-2.52c1.279-0.625,2.654-0.937,4.127-0.937c1.855,0,3.527,0.448,5.016,1.345
		c1.488,0.896,2.672,2.072,3.553,3.527c0.879,1.457,1.32,3.048,1.32,4.775c0,1.857-0.408,3.617-1.225,5.281
		s-2.023,3.016-3.623,4.055C276.939,183.751,274.939,184.271,272.541,184.271z M273.549,182.832c1.086,0,2.063-0.208,2.928-0.625
		c0.863-0.415,1.535-1.087,2.016-2.016c0.385-0.735,0.641-1.632,0.768-2.688c0.127-1.057,0.191-2.048,0.191-2.977
		c0-1.535-0.279-3.016-0.84-4.439c-0.559-1.424-1.344-2.592-2.352-3.504s-2.199-1.368-3.576-1.368c-0.863,0-1.641,0.136-2.328,0.407
		c-0.688,0.273-1.32,0.777-1.895,1.513c-0.641,0.8-1.057,1.776-1.248,2.928c-0.193,1.152-0.289,2.304-0.289,3.456
		c0,1.568,0.289,3.064,0.865,4.488c0.574,1.424,1.359,2.584,2.352,3.48C271.131,182.384,272.268,182.832,273.549,182.832z"/>
	<path fill="#083E00" d="M291.98,184.271c-0.992,0-1.92-0.152-2.785-0.456c-0.863-0.304-1.6-0.728-2.207-1.272
		c-0.16-0.352-0.281-0.943-0.361-1.775s-0.135-1.52-0.168-2.064c0-0.287,0.209-0.432,0.625-0.432c0.127,0,0.248,0.023,0.359,0.072
		c0.111,0.048,0.184,0.137,0.217,0.264c0.416,1.568,1.08,2.688,1.992,3.36c0.912,0.672,1.83,1.008,2.76,1.008
		c0.928,0,1.719-0.312,2.375-0.937c0.656-0.623,0.984-1.398,0.984-2.328c0-0.863-0.287-1.607-0.863-2.231s-1.584-1.384-3.023-2.28
		c-1.09-0.672-1.969-1.312-2.641-1.92c-0.672-0.607-1.16-1.23-1.465-1.871s-0.455-1.36-0.455-2.16c0-1.024,0.24-1.952,0.719-2.785
		c0.48-0.831,1.201-1.494,2.16-1.991c0.961-0.495,2.16-0.744,3.602-0.744c0.959,0,1.758,0.097,2.398,0.288s1.121,0.4,1.441,0.624
		c0.256,0.353,0.471,0.904,0.646,1.655c0.176,0.753,0.266,1.465,0.266,2.137c0,0.225-0.162,0.336-0.48,0.336
		c-0.191,0-0.377-0.039-0.553-0.12c-0.176-0.079-0.295-0.184-0.359-0.312c-0.416-1.057-0.936-1.864-1.561-2.424
		c-0.623-0.561-1.4-0.84-2.328-0.84c-0.799,0-1.512,0.239-2.135,0.719c-0.625,0.48-0.938,1.186-0.938,2.113
		c0,0.736,0.232,1.391,0.697,1.967c0.463,0.576,1.336,1.232,2.615,1.969c1.855,1.056,3.24,2.039,4.152,2.951
		s1.367,2.121,1.367,3.625c0,1.728-0.656,3.137-1.967,4.224C295.756,183.726,294.061,184.271,291.98,184.271z"/>
	<path fill="#083E00" d="M309.645,184.271c-1.568,0-2.793-0.48-3.672-1.439c-0.881-0.961-1.32-2.384-1.32-4.272v-11.136
		c0-0.256-0.096-0.439-0.289-0.553c-0.191-0.111-0.607-0.168-1.248-0.168h-0.287c-0.16,0-0.297-0.104-0.408-0.312
		c-0.113-0.208-0.168-0.424-0.168-0.647c0-0.064,0.047-0.16,0.145-0.289c0.096-0.127,0.158-0.207,0.191-0.239
		c0.639-0.448,1.225-0.896,1.752-1.345c0.527-0.447,1.008-0.888,1.439-1.319c0.432-0.433,0.793-0.823,1.08-1.177
		c0.16-0.159,0.297-0.295,0.408-0.407s0.248-0.168,0.408-0.168s0.313,0.032,0.455,0.096c0.145,0.064,0.201,0.208,0.168,0.433
		l-0.238,2.16c-0.033,0.352,0.047,0.592,0.238,0.719c0.193,0.129,0.496,0.192,0.912,0.192h5.473c0.127,0,0.24,0.104,0.336,0.312
		c0.096,0.209,0.145,0.457,0.145,0.744c0,0.289-0.049,0.568-0.145,0.84c-0.096,0.273-0.209,0.408-0.336,0.408h-4.752
		c-0.801,0-1.32,0.064-1.561,0.192s-0.359,0.513-0.359,1.152v9.456c0,1.279,0.271,2.288,0.816,3.023
		c0.543,0.736,1.328,1.104,2.352,1.104c0.928,0,1.648-0.072,2.16-0.216c0.512-0.145,0.977-0.36,1.393-0.648
		c0.063-0.063,0.127-0.096,0.191-0.096c0.127,0,0.217,0.072,0.264,0.216c0.049,0.144,0.072,0.296,0.072,0.456
		s-0.264,0.48-0.791,0.96c-0.529,0.479-1.217,0.929-2.064,1.344C311.555,184.062,310.635,184.271,309.645,184.271z"/>
	<path fill="#083E00" d="M321.164,184.271c-0.705,0-1.32-0.264-1.848-0.792c-0.529-0.528-0.793-1.144-0.793-1.848
		c0-0.735,0.264-1.36,0.793-1.872c0.527-0.512,1.143-0.768,1.848-0.768c0.736,0,1.359,0.256,1.871,0.768s0.77,1.137,0.77,1.872
		c0,0.704-0.258,1.319-0.77,1.848S321.9,184.271,321.164,184.271z"/>
</g>
</svg>
