<?xml version="1.0" encoding="utf-8"?>
<!-- Generator: Adobe Illustrator 14.0.0, SVG Export Plug-In . SVG Version: 6.00 Build 43363)  -->
<!DOCTYPE svg PUBLIC "-//W3C//DTD SVG 1.1 Basic//EN" "http://www.w3.org/Graphics/SVG/1.1/DTD/svg11-basic.dtd">
<svg version="1.1" baseProfile="basic" id="レイヤー_1"
	 xmlns="http://www.w3.org/2000/svg" xmlns:xlink="http://www.w3.org/1999/xlink" x="0px" y="0px" width="168px" height="168px"
	 viewBox="0 0 168 168" xml:space="preserve">
<g>
	<path fill="#FFFFFF" d="M0.423,155.111h1.012l0.403-4.053H0.075L0.423,155.111z M3.294,155.111h1.005l0.383-4.053H2.918
		L3.294,155.111z M25.887,152.582l0.027-1.873c0-0.068-0.007-0.111-0.021-0.129c-0.014-0.02-0.057-0.027-0.13-0.027l-1.572,0.027
		h-2.085l-1.552-0.027c-0.064,0-0.105,0.006-0.123,0.02c-0.019,0.015-0.027,0.063-0.027,0.138l0.027,1.188v1.724l-0.027,1.155
		c0,0.072,0.007,0.121,0.021,0.144c0.014,0.021,0.057,0.026,0.13,0.026l1.552-0.026h2.352v5.97c0,0.194-0.034,0.332-0.103,0.409
		c-0.082,0.087-0.244,0.13-0.485,0.13c-0.337,0-0.588-0.009-0.752-0.027c0.086-0.154,0.194-0.313,0.321-0.471
		c-1.167-0.343-2.017-0.791-2.55-1.349h0.8l1.805,0.026c0.068,0,0.11-0.008,0.126-0.022c0.016-0.017,0.024-0.06,0.024-0.127v-0.799
		c0-0.067-0.007-0.11-0.021-0.132c-0.014-0.018-0.057-0.026-0.13-0.026l-1.805,0.026h-1.162c0.032-0.182,0.055-0.454,0.068-0.819
		h0.882l1.736,0.026c0.073,0,0.119-0.006,0.137-0.02s0.027-0.061,0.027-0.137v-0.801c0-0.063-0.007-0.104-0.021-0.123
		c-0.014-0.018-0.062-0.027-0.144-0.027l-1.326,0.027l0.267-0.52c0.063-0.117,0.141-0.212,0.232-0.279
		c0.077-0.062,0.116-0.115,0.116-0.164c0-0.082-0.075-0.148-0.226-0.199c-0.296-0.086-0.679-0.176-1.148-0.266
		c-0.023,0.137-0.082,0.332-0.178,0.588c-0.168,0.391-0.296,0.672-0.383,0.84h-1.032c-0.219-0.473-0.451-0.9-0.697-1.277
		c-0.05-0.068-0.096-0.104-0.137-0.104c-0.023,0-0.071,0.012-0.144,0.035l-0.772,0.252c-0.105,0.037-0.157,0.078-0.157,0.123
		c0,0.033,0.018,0.069,0.055,0.117c0.168,0.235,0.333,0.52,0.492,0.854l-1.313-0.027c-0.073,0-0.119,0.008-0.137,0.021
		c-0.023,0.014-0.034,0.057-0.034,0.129v0.801c0,0.068,0.007,0.111,0.021,0.129c0.018,0.02,0.068,0.027,0.15,0.027l1.736-0.027
		h0.697c0,0.232-0.018,0.506-0.055,0.82h-0.896l-1.805-0.027c-0.068,0-0.112,0.008-0.13,0.021c-0.019,0.014-0.027,0.059-0.027,0.137
		v0.799c0,0.064,0.007,0.105,0.021,0.123c0.018,0.02,0.063,0.027,0.137,0.027l1.805-0.027h0.574c-0.41,0.803-1.354,1.395-2.83,1.777
		c0.269,0.252,0.479,0.518,0.629,0.801c0.091,0.168,0.171,0.252,0.239,0.252s0.18-0.031,0.335-0.096
		c1.285-0.486,2.188-1.207,2.707-2.16c0.588,0.789,1.383,1.391,2.386,1.805c0.146,0.064,0.253,0.096,0.321,0.096
		s0.148-0.096,0.239-0.287l0.068-0.17c0.096,0.182,0.175,0.449,0.239,0.799c0.032,0.205,0.07,0.326,0.116,0.363
		c0.045,0.045,0.208,0.068,0.485,0.068c0.838,0,1.399-0.125,1.682-0.377c0.26-0.273,0.39-0.709,0.39-1.305l-0.041-2.783v-5.783
		H25.887z M24.458,153.93h-2.659v-0.705h2.659V153.93z M24.458,152.289h-2.659v-0.684h2.659V152.289z M15.612,154.919h2.311
		l1.408,0.026c0.064,0,0.103-0.006,0.116-0.02c0.018-0.02,0.027-0.068,0.027-0.15l-0.027-1.271v-1.512l0.027-1.285
		c0-0.104-0.048-0.155-0.144-0.155l-1.408,0.026H15.96l-1.647-0.026c-0.068,0-0.112,0.006-0.13,0.02
		c-0.019,0.014-0.027,0.061-0.027,0.137l0.027,3.035v6.064l-0.027,3.008c0,0.072,0.008,0.117,0.024,0.133
		c0.016,0.016,0.058,0.023,0.126,0.023h1.183c0.063,0,0.104-0.007,0.123-0.021c0.018-0.021,0.027-0.063,0.027-0.138l-0.027-3.008
		V154.919z M15.612,151.605h2.461v0.684h-2.461V151.605z M15.612,153.225h2.461v0.705h-2.461V153.225z M41.486,159.117
		c-0.506-0.24-0.923-0.412-1.251-0.512c-0.064,0.305-0.176,0.617-0.335,0.936c-0.378,0.738-0.9,1.447-1.565,2.127
		c0.346,0.158,0.64,0.346,0.882,0.561c0.15,0.15,0.253,0.226,0.308,0.226c0.059,0,0.157-0.088,0.294-0.267
		c0.615-0.748,1.091-1.481,1.429-2.201c0.104-0.225,0.198-0.366,0.28-0.432c0.104-0.072,0.157-0.147,0.157-0.225
		C41.684,159.262,41.618,159.191,41.486,159.117z M37.965,153.369c0.241-0.498,0.501-1.109,0.779-1.84
		c0.104-0.305,0.198-0.49,0.28-0.553c0.104-0.092,0.157-0.177,0.157-0.254c0-0.086-0.075-0.156-0.226-0.211
		c-0.355-0.146-0.809-0.285-1.36-0.418c-0.041,0.342-0.114,0.672-0.219,0.991c-0.611,1.8-1.429,3.278-2.454,4.437
		c0.141,0.242,0.28,0.651,0.417,1.229c0.041,0.16,0.093,0.24,0.157,0.24c0.059,0,0.144-0.063,0.253-0.187
		c0.337-0.4,0.608-0.75,0.813-1.045c-0.009,0.391-0.014,0.961-0.014,1.709v3.219l-0.027,2.127c0,0.072,0.004,0.117,0.014,0.138
		c0.014,0.021,0.055,0.032,0.123,0.032h1.176c0.068,0,0.109-0.006,0.123-0.02c0.022-0.02,0.034-0.068,0.034-0.15l-0.027-2.127
		L37.965,153.369L37.965,153.369z M46.244,155.371c-0.046-0.063-0.089-0.096-0.13-0.096c-0.032,0-0.087,0.016-0.164,0.049
		l-0.759,0.369c-0.101,0.045-0.15,0.094-0.15,0.143c0,0.033,0.018,0.074,0.055,0.123l0.547,0.779
		c-0.953,0.074-1.857,0.131-2.714,0.172c0.92-0.813,1.779-1.67,2.577-2.578c0.214-0.232,0.415-0.396,0.602-0.492
		c0.114-0.055,0.171-0.123,0.171-0.205s-0.053-0.156-0.157-0.225c-0.392-0.26-0.8-0.484-1.224-0.67
		c-0.078,0.195-0.194,0.396-0.349,0.602c-0.574,0.738-1.194,1.434-1.859,2.084l-0.8-0.73c0.292-0.313,0.665-0.758,1.121-1.325
		c0.155-0.19,0.294-0.32,0.417-0.384c0.096-0.036,0.144-0.102,0.144-0.19c0-0.063-0.057-0.135-0.171-0.213l-0.431-0.226
		c1.244-0.164,2.288-0.352,3.131-0.561c0.337-0.074,0.585-0.109,0.745-0.109c0.141,0,0.212-0.037,0.212-0.108
		c0-0.067-0.03-0.146-0.089-0.228c-0.219-0.332-0.483-0.67-0.793-1.012c-0.255,0.137-0.545,0.24-0.868,0.309
		c-1.855,0.414-3.96,0.668-6.316,0.759c0.205,0.282,0.346,0.59,0.424,0.924c0.036,0.142,0.066,0.228,0.089,0.26
		c0.036,0.05,0.109,0.074,0.219,0.074c0.045,0,0.123-0.004,0.232-0.015c0.702-0.041,1.39-0.096,2.064-0.164l-0.116,0.164
		c-0.337,0.476-0.659,0.892-0.964,1.252c-0.15-0.123-0.36-0.282-0.629-0.479c-0.055-0.037-0.101-0.055-0.137-0.055
		c-0.041,0-0.089,0.027-0.144,0.082l-0.629,0.643c-0.06,0.068-0.089,0.123-0.089,0.164s0.025,0.08,0.075,0.115
		c0.752,0.529,1.531,1.188,2.338,1.977c-0.037,0.027-0.144,0.121-0.321,0.279c-0.146,0.133-0.269,0.24-0.369,0.322
		c-0.242,0.008-0.602,0.014-1.08,0.014c-0.401,0-0.839-0.02-1.313-0.055c0.036,0.377,0.098,0.814,0.185,1.313
		c0.022,0.142,0.082,0.211,0.178,0.211c0.036,0,0.103-0.021,0.198-0.067c0.073-0.045,0.216-0.072,0.431-0.082
		c0.606-0.019,1.508-0.058,2.707-0.115v3.19l-0.027,1.484c0,0.068,0.007,0.111,0.021,0.129c0.014,0.021,0.062,0.027,0.144,0.027
		h1.176c0.068,0,0.109-0.006,0.123-0.02c0.022-0.021,0.034-0.064,0.034-0.137l-0.027-1.484v-3.287
		c1.167-0.082,2.005-0.148,2.516-0.199c0.045,0.082,0.104,0.193,0.178,0.336c0.118,0.236,0.191,0.377,0.219,0.424
		c0.032,0.076,0.073,0.115,0.123,0.115c0.036,0,0.082-0.016,0.137-0.047l0.841-0.432c0.109-0.056,0.164-0.109,0.164-0.164
		c0-0.027-0.012-0.062-0.034-0.103C47.424,157.014,46.863,156.137,46.244,155.371z M45.731,158.583
		c-0.032,0-0.071,0.013-0.116,0.035l-0.841,0.401c-0.105,0.056-0.157,0.105-0.157,0.15c0,0.027,0.011,0.066,0.034,0.117
		c0.52,1.135,1.107,2.1,1.764,2.898c0.137,0.178,0.23,0.266,0.28,0.266c0.05,0,0.152-0.07,0.308-0.211
		c0.296-0.252,0.613-0.465,0.95-0.643c-0.898-0.896-1.593-1.865-2.085-2.912C45.827,158.619,45.781,158.583,45.731,158.583z
		 M59.936,152.234c0-0.867,0.034-1.383,0.103-1.553c0.045-0.109,0.068-0.197,0.068-0.267c0-0.093-0.075-0.146-0.226-0.158
		c-0.419-0.049-0.909-0.082-1.47-0.096c0.073,0.512,0.109,1.215,0.109,2.112v8.107l-0.027,2.434c0,0.072,0.007,0.117,0.021,0.138
		c0.014,0.021,0.059,0.032,0.137,0.032h1.155c0.068,0,0.111-0.006,0.13-0.02c0.018-0.02,0.027-0.068,0.027-0.15l-0.027-2.446
		V152.234z M57.96,153.238l-0.656-0.137c-0.091-0.019-0.146-0.027-0.164-0.027c-0.041,0-0.062,0.039-0.062,0.117
		c-0.055,1.121-0.203,2.065-0.444,2.836c-0.014,0.047-0.021,0.08-0.021,0.104c0,0.072,0.057,0.131,0.171,0.178l0.704,0.279
		c0.082,0.027,0.13,0.041,0.144,0.041c0.032,0,0.059-0.033,0.082-0.102c0.232-0.725,0.383-1.746,0.451-3.063v-0.055
		C58.165,153.328,58.097,153.271,57.96,153.238z M69.424,161.121l-1.914,0.027h-1.415v-2.756h0.759l1.777,0.026
		c0.068,0,0.11-0.008,0.126-0.022c0.016-0.017,0.024-0.062,0.024-0.133v-1.089c0-0.067-0.007-0.11-0.021-0.129
		c-0.014-0.021-0.057-0.026-0.13-0.026l-1.777,0.026h-0.759v-2.435h1.176l1.75,0.027c0.068,0,0.109-0.008,0.123-0.021
		c0.022-0.015,0.034-0.058,0.034-0.13v-1.079c0-0.068-0.007-0.111-0.021-0.132c-0.019-0.018-0.064-0.026-0.137-0.026l-1.75,0.026
		h-1.176v-1.045c0-0.844,0.034-1.36,0.103-1.553c0.045-0.168,0.068-0.262,0.068-0.279c0-0.082-0.075-0.131-0.226-0.145
		c-0.424-0.049-0.932-0.082-1.524-0.096c0.073,0.611,0.109,1.314,0.109,2.113v1.004H63.34c0.091-0.35,0.173-0.699,0.246-1.045
		c0.032-0.185,0.089-0.328,0.171-0.438c0.055-0.067,0.082-0.133,0.082-0.19c0-0.074-0.08-0.14-0.239-0.199
		c-0.419-0.146-0.866-0.262-1.34-0.348c-0.014,0.35-0.046,0.686-0.096,1.004c-0.128,0.707-0.349,1.463-0.663,2.27
		c-0.087-0.396-0.269-0.971-0.547-1.723c-0.032-0.076-0.073-0.115-0.123-0.115c-0.027,0-0.068,0.012-0.123,0.033l-0.547,0.186
		c-0.114,0.031-0.171,0.07-0.171,0.115c0,0.023,0.009,0.063,0.027,0.117c0.223,0.563,0.392,1.17,0.506,1.818
		c0.014,0.086,0.043,0.129,0.089,0.129c0.027,0,0.082-0.015,0.164-0.041l0.588-0.211c-0.201,0.469-0.419,0.893-0.656,1.271
		c0.355,0.104,0.69,0.26,1.005,0.465c0.141,0.09,0.23,0.138,0.267,0.138c0.063,0,0.148-0.099,0.253-0.296
		c0.26-0.532,0.483-1.067,0.67-1.604h1.723v2.434h-0.841l-1.777-0.027c-0.068,0-0.109,0.006-0.123,0.021
		c-0.023,0.015-0.034,0.062-0.034,0.137v1.089c0,0.067,0.009,0.11,0.027,0.129c0.014,0.02,0.057,0.026,0.13,0.026l1.777-0.026h0.841
		v2.756h-1.764l-1.921-0.027c-0.068,0-0.111,0.008-0.126,0.023c-0.016,0.016-0.024,0.059-0.024,0.127v1.08
		c0,0.071,0.007,0.117,0.021,0.137c0.014,0.021,0.057,0.033,0.13,0.033l1.921-0.027h4.648l1.914,0.027
		c0.068,0,0.111-0.006,0.13-0.021c0.018-0.021,0.027-0.067,0.027-0.149v-1.08c0-0.064-0.007-0.105-0.021-0.123
		C69.547,161.128,69.501,161.121,69.424,161.121z M81.708,155.111h1.005l0.383-4.053h-1.764L81.708,155.111z M78.836,155.111h1.011
		l0.404-4.053h-1.764L78.836,155.111z M98.783,153.854c-0.387,0-0.752,0.021-1.094,0.063c0.055-0.178,0.135-0.443,0.237-0.793
		c0.109-0.383,0.199-0.68,0.269-0.889c0.072-0.211,0.166-0.389,0.279-0.533c0.063-0.064,0.096-0.135,0.096-0.213
		c0-0.141-0.074-0.234-0.225-0.279c-0.435-0.16-0.992-0.313-1.677-0.459c0,0.475-0.047,0.992-0.144,1.553
		c-0.137,0.67-0.274,1.258-0.418,1.764c-0.596,0.09-1.147,0.162-1.653,0.211c-0.716,0.064-1.33,0.097-1.847,0.097
		c0.156,0.614,0.3,1.097,0.433,1.442c0.056,0.146,0.147,0.22,0.278,0.22c0.052,0,0.107-0.013,0.173-0.035
		c0.264-0.101,0.521-0.177,0.771-0.226c0.594-0.108,1.049-0.188,1.367-0.239c-0.602,1.741-1.455,3.569-2.563,5.489
		c-0.037,0.049-0.056,0.103-0.056,0.156c0,0.064,0.037,0.133,0.109,0.205c0.215,0.201,0.537,0.406,0.971,0.615
		c0.06,0.033,0.111,0.049,0.156,0.049c0.088,0,0.155-0.057,0.205-0.172c0.963-1.723,1.899-3.916,2.815-6.582
		c0.476-0.064,0.867-0.096,1.176-0.096c0.287,0,0.49,0.08,0.609,0.238c0.127,0.178,0.191,0.533,0.191,1.065
		c0,1.347-0.182,2.5-0.547,3.468c-0.105,0.268-0.215,0.457-0.328,0.565c-0.133,0.118-0.322,0.178-0.568,0.178
		c-0.482,0-0.994-0.103-1.537-0.308c0.123,0.291,0.209,0.726,0.26,1.3c0,0.205,0.084,0.334,0.252,0.39
		c0.324,0.104,0.787,0.157,1.39,0.157c0.86,0,1.489-0.438,1.887-1.313c0.22-0.461,0.396-1.078,0.533-1.854
		c0.149-0.855,0.226-1.738,0.226-2.645c0-0.789-0.152-1.402-0.457-1.84C100.014,154.105,99.49,153.854,98.783,153.854z
		 M102.494,153.307c-0.063-0.063-0.119-0.097-0.17-0.097c-0.031,0-0.064,0.011-0.096,0.026c-0.232,0.123-0.611,0.363-1.136,0.72
		c0.953,0.896,1.72,2.104,2.298,3.623c0.026,0.101,0.086,0.149,0.178,0.149c0.045,0,0.094-0.014,0.143-0.041
		c0.438-0.215,0.789-0.447,1.053-0.697c0.062-0.051,0.09-0.104,0.09-0.157c0-0.031-0.012-0.071-0.035-0.123
		C104.332,155.439,103.557,154.305,102.494,153.307z M118.143,150.408c-0.061,0-0.119,0.029-0.178,0.09
		c-0.197,0.195-0.473,0.561-0.828,1.094c1.012,0.445,1.955,1.053,2.83,1.818c0.064,0.063,0.121,0.096,0.172,0.096
		c0.041,0,0.09-0.037,0.15-0.109c0.268-0.313,0.508-0.643,0.717-0.983c0.045-0.078,0.068-0.134,0.068-0.164
		c0-0.052-0.031-0.104-0.096-0.158c-0.834-0.719-1.75-1.274-2.748-1.668C118.199,150.414,118.17,150.408,118.143,150.408z
		 M121.834,155.589c-0.775,0-1.555,0.181-2.338,0.541c-0.844,0.388-1.625,0.945-2.346,1.675c0.063-0.861,0.178-1.711,0.342-2.55
		c0.055-0.256,0.148-0.502,0.281-0.737c0.045-0.078,0.067-0.148,0.067-0.213c0-0.109-0.075-0.197-0.228-0.267
		c-0.219-0.123-0.702-0.293-1.454-0.507c0,0.21-0.046,0.632-0.132,1.265c-0.215,1.604-0.356,3.111-0.43,4.521
		c0,0.137,0.064,0.229,0.197,0.279c0.242,0.118,0.559,0.243,0.951,0.377c0.068,0.018,0.117,0.026,0.15,0.026
		c0.063,0,0.119-0.041,0.17-0.123c0.168-0.278,0.369-0.535,0.602-0.772c0.615-0.619,1.254-1.113,1.914-1.482
		c0.762-0.43,1.467-0.643,2.119-0.643c0.529,0,0.941,0.127,1.238,0.383c0.295,0.26,0.442,0.613,0.442,1.059
		c0,0.936-0.551,1.639-1.653,2.113c-0.938,0.424-2.222,0.686-3.849,0.785c0.336,0.26,0.652,0.656,0.949,1.188
		c0.082,0.134,0.194,0.199,0.342,0.199c0.052,0,0.123-0.008,0.22-0.021c1.5-0.191,2.694-0.513,3.59-0.963
		c1.408-0.707,2.11-1.752,2.11-3.14c0-0.849-0.252-1.535-0.758-2.063C123.748,155.9,122.914,155.589,121.834,155.589z
		 M147.33,150.457c-0.441-0.051-0.938-0.084-1.49-0.104c0.078,0.502,0.117,1.17,0.117,2.004v8.399c0,0.205-0.041,0.351-0.123,0.433
		c-0.086,0.086-0.254,0.129-0.5,0.129c-0.537,0-1.041-0.021-1.51-0.068c0.191,0.256,0.342,0.609,0.451,1.061
		c0.045,0.209,0.086,0.334,0.123,0.375c0.045,0.051,0.178,0.076,0.396,0.076c0.593,0,1.037-0.023,1.332-0.068
		c0.301-0.047,0.562-0.139,0.778-0.28c0.185-0.127,0.313-0.291,0.392-0.492c0.078-0.198,0.115-0.493,0.115-0.881l-0.027-2.783
		v-5.926c0-0.83,0.027-1.302,0.082-1.416c0.052-0.164,0.076-0.267,0.076-0.308C147.543,150.52,147.473,150.471,147.33,150.457z
		 M144.709,159.289c0.016-0.02,0.023-0.064,0.023-0.137l-0.015-1.854v-3.86c0-0.867,0.015-1.365,0.041-1.498
		c0.056-0.195,0.082-0.299,0.082-0.308c0-0.092-0.062-0.146-0.184-0.157c-0.451-0.05-0.929-0.082-1.431-0.097
		c0.068,0.438,0.104,1.129,0.104,2.072v3.848l-0.026,1.854c0,0.068,0.004,0.113,0.014,0.137c0.014,0.018,0.055,0.027,0.123,0.027
		h1.147C144.654,159.316,144.693,159.307,144.709,159.289z M142.443,159.33c0-0.068-0.008-0.111-0.021-0.131
		c-0.018-0.018-0.063-0.027-0.137-0.027l-1.477,0.027h-1.695l-1.463-0.027c-0.063,0-0.104,0.008-0.123,0.021
		s-0.027,0.059-0.027,0.137l0.021,1.031v0.801l-0.021,1.654c0,0.067,0.006,0.111,0.014,0.129c0.021,0.02,0.063,0.027,0.131,0.027
		h1.013c0.063,0,0.104-0.007,0.122-0.021c0.019-0.015,0.027-0.062,0.027-0.138v-0.418h2.271v0.322c0,0.096,0.053,0.143,0.155,0.143
		h1.047c0.109,0,0.164-0.047,0.164-0.143l-0.034-1.641v-0.883L142.443,159.33z M141.076,161.373h-2.27v-1.148h2.27V161.373z
		 M139.982,150.695c0.1-0.055,0.149-0.115,0.149-0.184c0-0.093-0.063-0.15-0.187-0.179c-0.428-0.097-0.856-0.176-1.291-0.239
		c-0.082,0.225-0.219,0.465-0.409,0.725c-0.789,1.094-1.882,1.963-3.274,2.604c0.211,0.255,0.383,0.55,0.52,0.882
		c0.102,0.215,0.182,0.321,0.24,0.321c0.041,0,0.147-0.047,0.319-0.138c0.57-0.319,1.162-0.75,1.777-1.293v0.589
		c0,0.067,0.008,0.11,0.021,0.131c0.019,0.019,0.068,0.026,0.15,0.026l0.949-0.026h0.813l0.949,0.026
		c0.063,0,0.104-0.008,0.123-0.021c0.021-0.015,0.026-0.06,0.026-0.137v-0.671c0.369,0.283,0.763,0.535,1.177,0.761
		c0.155,0.082,0.26,0.123,0.313,0.123c0.062,0,0.129-0.11,0.205-0.336c0.119-0.336,0.273-0.636,0.465-0.896
		c-0.649-0.283-1.168-0.547-1.551-0.793C140.949,151.646,140.451,151.221,139.982,150.695z M139.764,152.876h-0.813
		c-0.41,0-0.662-0.006-0.759-0.015c0.365-0.352,0.734-0.774,1.107-1.271c0.4,0.496,0.816,0.921,1.244,1.271
		C140.461,152.871,140.201,152.876,139.764,152.876z M140.412,158.46l1.594,0.026c0.068,0,0.109-0.006,0.123-0.02
		c0.023-0.014,0.033-0.057,0.033-0.131l-0.027-1.121v-1.51l0.027-1.143c0-0.063-0.006-0.104-0.02-0.123
		c-0.019-0.019-0.064-0.027-0.138-0.027l-1.594,0.027h-2.271l-1.613-0.027c-0.09,0-0.137,0.051-0.137,0.15l0.014,1.58
		c0,1.147-0.102,2.104-0.307,2.862c-0.215,0.854-0.592,1.66-1.135,2.42c0.277,0.185,0.549,0.438,0.813,0.772
		c0.144,0.169,0.236,0.253,0.281,0.253c0.06,0,0.139-0.084,0.238-0.253c0.461-0.788,0.783-1.526,0.965-2.215
		c0.109-0.41,0.211-0.918,0.307-1.524h2.846V158.46z M137.74,155.419h3.09v0.554h-3.09V155.419z M137.719,156.91h3.111v0.561h-3.152
		L137.719,156.91z M167.1,156.445c-0.651-0.697-1.526-1.047-2.625-1.047c-0.748,0-1.49,0.211-2.229,0.629l-0.014-0.041
		c0.373-0.359,0.85-0.828,1.43-1.408c0.773-0.779,1.305-1.311,1.592-1.592c0.25-0.219,0.455-0.367,0.615-0.445
		c0.16-0.072,0.24-0.184,0.24-0.334c0-0.109-0.053-0.225-0.158-0.342c-0.25-0.311-0.563-0.609-0.936-0.896
		c-0.105-0.072-0.214-0.109-0.322-0.109c-0.051,0-0.139,0.037-0.267,0.109c-0.122,0.064-0.379,0.135-0.766,0.213
		c-1.158,0.223-2.22,0.383-3.181,0.479c-0.178,0.014-0.356,0.021-0.539,0.021c-0.27,0-0.522-0.017-0.76-0.047
		c0.178,0.719,0.34,1.223,0.486,1.51c0.068,0.16,0.17,0.24,0.307,0.24c0.072,0,0.166-0.023,0.281-0.068
		c0.15-0.062,0.346-0.117,0.588-0.172c0.93-0.195,1.832-0.373,2.707-0.533c-0.498,0.615-1.223,1.416-2.174,2.4
		c-1.168,1.217-2.273,2.245-3.316,3.09c-0.078,0.076-0.115,0.145-0.115,0.205c0,0.041,0.017,0.08,0.048,0.114
		c0.291,0.39,0.563,0.692,0.819,0.916c0.086,0.082,0.158,0.123,0.213,0.123c0.056,0,0.134-0.053,0.238-0.155
		c0.633-0.63,1.039-1.025,1.217-1.189c1.162-0.99,2.355-1.484,3.582-1.484c0.611,0,1.115,0.17,1.513,0.506
		c0.459,0.393,0.688,0.928,0.688,1.607c0,0.492-0.1,0.902-0.301,1.23c-0.223,0.358-0.6,0.66-1.127,0.901
		c-0.16-0.621-0.449-1.104-0.869-1.457c-0.465-0.392-1.053-0.588-1.764-0.588c-0.506,0-0.947,0.147-1.326,0.444
		c-0.434,0.336-0.648,0.759-0.648,1.265c0,0.606,0.219,1.088,0.656,1.442c0.5,0.41,1.225,0.615,2.174,0.615
		c1.396,0,2.523-0.303,3.392-0.91c0.997-0.696,1.495-1.672,1.495-2.926C167.947,157.828,167.664,157.055,167.1,156.445z
		 M162.807,161.277c-0.811,0-1.217-0.24-1.217-0.725c0-0.142,0.055-0.261,0.164-0.355c0.127-0.117,0.297-0.178,0.506-0.178
		c0.605,0,1.002,0.401,1.189,1.203C163.262,161.259,163.049,161.277,162.807,161.277z M18.128,133.382
		c0.45-0.569,1.23-2.549,1.44-4.108c-0.12-0.211-0.57-0.271-0.78-0.121c-0.69,1.771-2.4,4.291-6.27,4.291
		c-4.92,0-8.91-3.48-8.91-9.779c0-6.211,3.9-9.121,8.49-9.121c4.35,0,5.7,2.34,6.149,4.381c0.21,0.18,0.66,0.15,0.81-0.061
		c-0.24-1.83-0.39-3.719-0.42-4.41c-0.27,0.031-0.48-0.029-0.84-0.119c-1.41-0.391-3.69-0.721-5.31-0.721
		c-3.12,0-5.91,0.84-8.1,2.551c-2.28,1.77-3.78,4.619-3.78,7.949c0,3.869,1.86,6.6,4.26,8.25c2.19,1.471,4.77,2.01,7.47,2.01
		c1.92,0,4.08-0.449,4.74-0.689C17.408,133.563,17.768,133.443,18.128,133.382z M38.798,127.863c0-3.689-2.73-6.209-6.089-6.209
		c-3.54,0-6.39,2.699-6.39,6.479c0,3.75,2.7,6.18,6.15,6.18C36.218,134.313,38.798,131.613,38.798,127.863z M32.768,133.412
		c-2.64,0-3.87-2.939-3.87-5.668c0-3.301,1.47-5.191,3.45-5.191c2.85,0,3.87,3.24,3.87,5.791
		C36.218,130.652,35.408,133.412,32.768,133.412z M53.138,126.482l-6.99,0.66c-0.15,0.182-0.24,0.451-0.24,0.75
		c0,0.301,0.12,0.69,0.45,0.961l6.99-0.66c0.15-0.18,0.24-0.449,0.24-0.75C53.588,127.053,53.468,126.693,53.138,126.482z
		 M63.398,133.893c1.05,0,1.92,0.03,2.91,0.09c0.21-0.09,0.27-0.601,0.06-0.75l-0.72-0.09c-1.08-0.15-1.14-0.449-1.14-2.609v-14.189
		c0-1.32,0.06-2.82,0.09-3.721c-0.06-0.119-0.18-0.18-0.3-0.18c-1.08,0.57-2.49,1.02-3.24,1.26c-0.15,0.09-0.15,0.51,0,0.602
		l0.3,0.18c0.9,0.539,0.93,0.72,0.93,2.49v13.56c0,2.159-0.03,2.459-1.14,2.608l-0.69,0.09c-0.21,0.15-0.15,0.66,0.06,0.75
		C61.418,133.923,62.318,133.893,63.398,133.893z M82.987,131.164c-0.93,1.17-1.77,1.469-2.76,1.469c-3.21,0-4.98-2.58-4.98-5.609
		c0-0.75,0.03-0.811,0.81-0.811h5.55c1.26,0,1.68-0.029,1.77-0.209c0.06-0.121,0.12-0.361,0.12-0.781c0-1.799-1.68-3.568-4.26-3.568
		c-3.6,0-6.03,3.091-6.03,6.779c0,1.32,0.36,2.73,1.26,3.9c0.87,1.139,2.4,1.979,4.35,1.979c1.56,0,3.72-0.75,4.709-2.789
		C83.498,131.253,83.288,131.072,82.987,131.164z M78.908,122.553c1.74,0,2.31,1.051,2.31,1.891c0,0.391-0.09,0.51-0.18,0.57
		c-0.24,0.18-0.9,0.299-3.12,0.299h-2.13c-0.21,0-0.21-0.09-0.21-0.148C75.608,124.173,77.138,122.553,78.908,122.553z
		 M95.377,133.563c0.602-0.33,0.961-0.601,1.17-0.601c0.182,0,0.361,0.24,0.48,0.42c0.51,0.66,1.229,0.931,1.951,0.931
		c1.469,0,2.52-1.17,2.52-1.32c0-0.209-0.09-0.389-0.211-0.389c-0.09,0-0.24,0.119-0.389,0.209c-0.183,0.09-0.451,0.18-0.75,0.18
		c-1.17,0-1.441-1.229-1.381-2.609l0.18-5.219c0.09-2.25-0.959-3.51-3.119-3.51c-2.189,0-5.58,2.129-5.58,3.688
		c0,0.271,0.15,0.421,0.42,0.421c0.449,0,1.26-0.212,1.709-0.57c0.24-0.18,0.271-0.539,0.301-1.021
		c0.061-0.93,1.08-1.351,1.92-1.351c1.859,0,2.221,1.5,2.189,2.609l-0.029,1.379c0,0.451-0.061,0.721-0.51,0.871l-3.57,1.289
		c-1.92,0.691-2.49,1.381-2.49,2.551c0,0.84,0.361,1.59,0.931,2.101c0.51,0.448,1.229,0.688,2.103,0.688
		C94.059,134.313,94.719,133.923,95.377,133.563z M92.498,131.164c0-1.17,0.869-1.621,2.641-2.221
		c0.539-0.18,1.049-0.301,1.229-0.301c0.18,0,0.301,0.061,0.301,0.391l-0.062,1.77c-0.028,0.631-0.028,1.051-0.391,1.41
		c-0.299,0.301-1.229,0.75-1.828,0.75C92.857,132.962,92.498,131.673,92.498,131.164z M116.857,132.934
		c0.061,0.119,0.061,0.479,0.061,0.93v0.51c0,0.15,0.148,0.24,0.33,0.24c0.84-0.33,2.699-0.779,3.959-0.961
		c0.27-0.148,0.24-0.898,0.029-0.959c-0.449,0.149-0.959,0.299-1.289,0.299c-0.84,0-0.869-1.109-0.869-3.479v-13.171
		c0-1.319,0.059-2.819,0.09-3.721c-0.061-0.119-0.182-0.181-0.301-0.181c-1.08,0.57-2.49,1.021-3.24,1.261
		c-0.15,0.09-0.15,0.51,0,0.603l0.301,0.18c0.9,0.539,0.93,0.719,0.93,2.49v4.528c0,0.24-0.028,0.42-0.18,0.42
		c-0.33-0.121-0.99-0.271-2.01-0.271c-4.08,0-7.26,2.699-7.26,6.898c0,3.15,2.219,5.76,5.549,5.76c1.439,0,2.461-0.479,3.779-1.379
		h0.121V132.934z M114.338,132.873c-2.939,0-4.471-2.58-4.471-5.311c0-2.609,1.41-4.979,4.141-4.979c1.17,0,2.07,0.629,2.52,1.261
		c0.209,0.299,0.33,0.569,0.33,1.17v5.909c0,0.479-0.028,0.931-0.211,1.108C116.168,132.514,115.146,132.873,114.338,132.873z
		 M138.098,131.523c-0.031-0.271-0.24-0.451-0.541-0.359c-0.93,1.17-1.77,1.469-2.76,1.469c-3.209,0-4.98-2.58-4.98-5.609
		c0-0.75,0.031-0.811,0.812-0.811h5.552c1.26,0,1.68-0.029,1.77-0.209c0.061-0.121,0.119-0.361,0.119-0.781
		c0-1.799-1.68-3.568-4.26-3.568c-3.601,0-6.029,3.091-6.029,6.779c0,1.32,0.359,2.73,1.26,3.9c0.871,1.139,2.4,1.979,4.35,1.979
		C134.947,134.313,137.107,133.563,138.098,131.523z M133.477,122.553c1.74,0,2.312,1.051,2.312,1.891c0,0.391-0.09,0.51-0.181,0.57
		c-0.239,0.18-0.899,0.299-3.121,0.299h-2.129c-0.211,0-0.211-0.09-0.211-0.148C130.178,124.173,131.707,122.553,133.477,122.553z
		 M152.258,121.654c-1.111,0-2.25,0.93-3.301,1.799c-0.061-0.029-0.09-0.119-0.09-0.27v-1.74c0-0.119-0.09-0.18-0.24-0.209
		c-0.75,0.449-2.34,1.229-3.029,1.469c-0.149,0.09-0.149,0.42-0.031,0.541l0.271,0.18c0.809,0.539,0.809,0.689,0.809,1.859v5.25
		c0,2.16-0.028,2.43-1.139,2.609l-0.57,0.09c-0.211,0.149-0.149,0.66,0.062,0.75c0.778-0.06,1.681-0.09,2.76-0.09
		c1.05,0,1.921,0.03,3.33,0.09c0.209-0.09,0.271-0.601,0.06-0.75l-1.08-0.09c-1.139-0.09-1.199-0.449-1.199-2.609v-4.08
		c0-1.02,0.09-1.891,0.391-2.311c0.238-0.33,0.6-0.601,1.08-0.601c0.42,0,0.869,0.181,1.318,0.479
		c0.211,0.119,0.361,0.211,0.66,0.211c0.479,0,1.291-0.391,1.291-1.381C153.607,122.132,153.008,121.654,152.258,121.654z
		 M163.236,134.313c2.221,0,4.32-1.14,4.32-3.42c0-2.129-1.472-3.148-3.062-4.049c-1.05-0.601-2.31-1.261-2.31-2.49
		c0-1.08,0.75-1.83,1.92-1.83c1.229,0,2.129,0.869,2.64,2.188c0.149,0.181,0.601,0.121,0.721-0.09c0-0.812-0.211-1.771-0.479-2.431
		c-0.271-0.239-1.379-0.539-2.641-0.539c-2.279,0-4.078,1.229-4.078,3.42c0,1.648,1.229,2.699,2.969,3.689
		c1.108,0.629,2.311,1.379,2.311,2.76c0,1.289-0.93,1.92-2.01,1.92c-1.711,0-2.67-1.438-3.18-3.09
		c-0.15-0.18-0.541-0.149-0.691,0.029c-0.059,0.99,0.121,2.461,0.361,3.029C160.777,134.014,161.826,134.313,163.236,134.313z"/>
</g>
<g>
	<g>
		<path fill="#FFFFFF" d="M85.467,69.245c-0.355-0.327-0.712-0.657-1.063-0.998c-0.326,0.313-0.657,0.615-0.989,0.916l-0.108,0.098
			l-0.529-0.543l0.115-0.104c0.325-0.295,0.651-0.592,0.972-0.9C75.933,59.705,71.91,49.587,71.91,37.64
			c0-9.548,1.328-17.568,3.842-23.191c2.274-5.087,5.375-7.888,8.729-7.888c6.078,0,12.619,9.726,12.619,31.079
			c0,11.936-4.09,22.055-12.154,30.078c0.348,0.336,0.697,0.662,1.051,0.983l0.113,0.104l-0.536,0.537L85.467,69.245z M84.481,7.316
			c-3.04,0-5.895,2.643-8.04,7.442c-2.47,5.524-3.776,13.437-3.776,22.881c0,11.74,3.95,21.679,11.742,29.543
			c7.92-7.878,11.936-17.818,11.936-29.543c0-9.422-1.313-17.328-3.795-22.862C90.393,9.966,87.527,7.316,84.481,7.316L84.481,7.316
			z"/>
	</g>
	<g>
		<path fill="#FFFFFF" d="M117.926,83.963l-0.074-0.012c-3.593-0.578-12.947-2.469-22.219-7.518
			c-2.507-1.367-4.867-2.897-7.018-4.548l-0.131-0.101l0.515-0.558l0.108,0.083c2.119,1.624,4.432,3.123,6.875,4.454
			c9.371,5.107,18.727,6.941,22.313,7.493l0.293,0.045L117.926,83.963L117.926,83.963z M88.93,71.746
			c2.102,1.604,4.403,3.092,6.848,4.423c9.166,4.993,18.416,6.883,22.046,7.474l0.137-0.137c-3.799-0.606-12.951-2.484-22.12-7.48
			c-2.415-1.316-4.703-2.794-6.804-4.396L88.93,71.746L88.93,71.746z"/>
	</g>
	<g>
		<path fill="#FFFFFF" d="M50.898,83.923l-0.66-0.658l0.29-0.047c3.6-0.582,12.979-2.48,22.297-7.534
			c2.522-1.369,4.897-2.903,7.06-4.56l0.111-0.085l0.508,0.563l-0.13,0.1c-2.206,1.692-4.628,3.257-7.201,4.653
			c-9.238,5.008-18.602,6.952-22.198,7.555L50.898,83.923L50.898,83.923z M50.866,83.467l0.135,0.135
			c3.637-0.615,12.895-2.558,22.029-7.51c2.508-1.361,4.874-2.884,7.032-4.529l-0.105-0.117c-2.146,1.634-4.496,3.148-6.989,4.501
			C63.85,80.894,54.674,82.831,50.866,83.467L50.866,83.467z"/>
	</g>
	<g>
		<path fill="#FFFFFF" d="M86.913,73.153l-0.104-0.085c-0.354-0.29-0.707-0.581-1.058-0.885l-0.125-0.109l0.554-0.524l0.104,0.091
			c0.326,0.284,0.656,0.555,0.986,0.827l0.129,0.104l-0.064,0.161L86.913,73.153L86.913,73.153z M86.074,72.065
			c0.271,0.233,0.545,0.459,0.818,0.685l0.112-0.112c-0.294-0.241-0.56-0.459-0.815-0.682L86.074,72.065L86.074,72.065z"/>
	</g>
	<g>
		<path fill="#FFFFFF" d="M82.126,73.059l-0.536-0.542l0.127-0.104c0.333-0.271,0.665-0.542,0.993-0.823l0.104-0.09l0.546,0.528
			l-0.125,0.107c-0.332,0.286-0.669,0.562-1.006,0.837L82.126,73.059L82.126,73.059z M82.036,72.542l0.111,0.113
			c0.257-0.21,0.515-0.422,0.77-0.639l-0.114-0.109C82.548,72.123,82.292,72.333,82.036,72.542L82.036,72.542z"/>
	</g>
	<g>
		<path fill="#FFFFFF" d="M85.259,71.742c-0.263-0.232-0.524-0.464-0.784-0.704c-0.271,0.248-0.545,0.487-0.819,0.727l-0.103,0.09
			l-0.173-0.03l-0.449-0.432l0.122-0.106c0.317-0.277,0.597-0.521,0.87-0.771c-0.354-0.341-0.705-0.695-1.053-1.05l-0.322-0.328
			c-8.075-8.412-12.169-18.92-12.169-31.232c0-10.21,1.501-18.783,4.341-24.794c2.563-5.425,6.05-8.413,9.818-8.413
			c6.845,0,14.213,10.392,14.213,33.207c0,12.343-4.175,22.881-12.407,31.32l-0.33,0.323c-0.324,0.328-0.65,0.654-0.982,0.97
			c0.254,0.233,0.511,0.46,0.767,0.686l0.269,0.237l-0.553,0.523L85.259,71.742z M84.537,5.454c-3.459,0-6.703,2.834-9.134,7.98
			c-2.793,5.911-4.27,14.373-4.27,24.472c0,12.107,4.027,22.441,11.969,30.714l0.318,0.325c0.351,0.357,0.701,0.711,1.057,1.053
			c0.332-0.315,0.66-0.643,0.984-0.97l0.326-0.321c8.1-8.298,12.205-18.661,12.205-30.801C97.993,15.609,91.02,5.454,84.537,5.454
			L84.537,5.454z"/>
	</g>
	<g>
		<path fill="#FFFFFF" d="M115.486,86.404l-0.082-0.018c-4.776-1.105-11.969-3.22-19.107-7.021
			c-3.316-1.767-6.389-3.787-9.134-6.004l-0.13-0.105l0.537-0.536l0.104,0.084c2.701,2.175,5.722,4.158,8.978,5.893
			c7.175,3.82,14.398,5.924,19.197,7.016l0.264,0.062L115.486,86.404L115.486,86.404z M87.482,73.234
			c2.695,2.164,5.707,4.137,8.955,5.868c7.069,3.764,14.193,5.867,18.953,6.972l0.129-0.127c-4.814-1.113-11.936-3.217-19.008-6.983
			c-3.229-1.721-6.229-3.686-8.92-5.84L87.482,73.234L87.482,73.234z"/>
	</g>
	<g>
		<path fill="#FFFFFF" d="M53.364,86.391l-0.629-0.632l0.264-0.062c4.84-1.108,12.126-3.239,19.356-7.089
			c3.26-1.734,6.292-3.72,9.011-5.902l0.106-0.085l0.533,0.541l-0.129,0.105c-2.762,2.221-5.85,4.245-9.177,6.016
			c-7.187,3.824-14.437,5.965-19.253,7.088L53.364,86.391L53.364,86.391z M53.329,85.93l0.129,0.131
			c4.799-1.125,11.981-3.255,19.099-7.042c3.258-1.735,6.285-3.713,9-5.881l-0.11-0.112c-2.707,2.16-5.718,4.127-8.952,5.848
			C65.367,82.669,58.185,84.8,53.329,85.93L53.329,85.93z"/>
	</g>
	<g>
		<path fill="#FFFFFF" d="M55.453,88.479l-0.613-0.613l0.248-0.068c6.034-1.67,11.642-3.85,16.668-6.48
			c4.034-2.113,7.725-4.555,10.968-7.259l0.103-0.085l0.557,0.521l-0.129,0.108c-3.302,2.757-7.057,5.244-11.16,7.391
			c-5.002,2.618-10.573,4.792-16.556,6.463L55.453,88.479L55.453,88.479z M55.416,88.018l0.125,0.125
			c5.931-1.662,11.453-3.823,16.414-6.417c4.03-2.109,7.721-4.546,10.975-7.246l-0.116-0.107c-3.235,2.684-6.909,5.109-10.919,7.209
			C66.919,84.187,61.375,86.352,55.416,88.018L55.416,88.018z"/>
	</g>
	<g>
		<path fill="#FFFFFF" d="M113.395,88.496l-0.084-0.023c-5.912-1.65-11.412-3.801-16.351-6.391c-4.112-2.16-7.864-4.66-11.151-7.433
			L85.68,74.54l0.561-0.517l0.102,0.086c3.236,2.724,6.928,5.182,10.971,7.304c4.957,2.602,10.492,4.756,16.446,6.401l0.247,0.068
			L113.395,88.496L113.395,88.496z M86.133,74.528c3.238,2.715,6.928,5.167,10.967,7.287c4.896,2.568,10.348,4.705,16.207,6.344
			l0.125-0.125c-5.883-1.646-11.352-3.782-16.26-6.357c-4.021-2.111-7.693-4.551-10.923-7.255L86.133,74.528L86.133,74.528z"/>
	</g>
	<g>
		<path fill="#FFFFFF" d="M85.46,74.345l0.099-0.114l-0.105,0.107c-0.314-0.269-0.63-0.537-0.941-0.815
			c-0.242,0.213-0.486,0.42-0.729,0.626l-0.279,0.237l-0.558-0.518l0.353-0.3c0.218-0.185,0.436-0.37,0.652-0.56
			c-0.238-0.222-0.473-0.451-0.708-0.679l-0.538-0.519c-0.363-0.358-0.718-0.729-1.073-1.102c-0.295,0.239-0.592,0.47-0.889,0.701
			l-0.109,0.085l-0.1-0.097l-0.417-0.457l0.26-0.204c0.245-0.191,0.489-0.382,0.731-0.58c-8.136-8.821-12.261-19.715-12.261-32.382
			c0-10.913,1.673-20.077,4.839-26.502C76.539,5.487,80.413,2.3,84.596,2.3c7.611,0,15.807,11.102,15.807,35.476
			c0,12.719-4.23,23.658-12.573,32.516c0.305,0.25,0.61,0.495,0.919,0.735l0.131,0.101l-0.52,0.557L88.25,71.6
			c-0.316-0.249-0.633-0.501-0.949-0.76c-0.334,0.346-0.669,0.689-1.012,1.022l-0.525,0.5c-0.229,0.218-0.457,0.437-0.688,0.649
			c0.27,0.239,0.54,0.471,0.811,0.703l0.235,0.201l-0.562,0.516L85.46,74.345z M82.209,70.217c0.346,0.364,0.693,0.726,1.047,1.076
			l0.511,0.491c0.248,0.241,0.495,0.481,0.747,0.715c0.252-0.232,0.502-0.472,0.752-0.711l0.469-0.447
			c0.334-0.323,0.66-0.657,0.984-0.991c-0.307-0.26-0.609-0.523-0.912-0.794l-0.117-0.105l0.537-0.538l0.107,0.096
			c0.303,0.271,0.605,0.536,0.911,0.795c8.228-8.723,12.397-19.498,12.397-32.027c0-23.855-7.801-34.721-15.05-34.721
			c-3.879,0-7.513,3.038-10.231,8.553c-3.116,6.322-4.763,15.371-4.763,26.167c0,12.477,4.067,23.207,12.086,31.892
			c0.291-0.244,0.581-0.491,0.867-0.747l0.108-0.097l0.532,0.543l-0.118,0.105C82.789,69.727,82.5,69.973,82.209,70.217
			L82.209,70.217z"/>
	</g>
	<g>
		<path fill="#FFFFFF" d="M111.396,90.376c-4.926-1.565-9.562-3.465-13.772-5.642c-4.888-2.524-9.286-5.479-13.078-8.779
			c-3.792,3.257-8.184,6.179-13.056,8.684c-4.29,2.207-9.012,4.133-14.035,5.725l-0.087,0.027l-0.604-0.602L57,89.716
			c5.077-1.598,9.84-3.532,14.155-5.753c4.782-2.46,9.094-5.324,12.819-8.514c-0.233-0.21-0.462-0.426-0.692-0.643l-0.565-0.527
			c-0.351-0.333-0.696-0.678-1.041-1.024l-0.325-0.328c-0.397-0.405-0.79-0.819-1.178-1.242l-0.309-0.342
			c-8.327-9.23-12.55-20.543-12.55-33.622c0-11.583,1.846-21.31,5.339-28.129c3.143-6.132,7.404-9.509,12-9.509
			c8.381,0,17.4,11.778,17.4,37.638c0,13.156-4.35,24.53-12.926,33.808l-0.311,0.339c-0.371,0.395-0.746,0.779-1.129,1.159
			l-0.324,0.325c-0.336,0.331-0.674,0.659-1.018,0.979l-0.572,0.527c-0.217,0.2-0.433,0.4-0.65,0.595
			c3.732,3.24,8.057,6.136,12.848,8.609c4.239,2.19,8.91,4.097,13.881,5.665l0.236,0.074l-0.604,0.602L111.396,90.376z M84.65,0.839
			c-4.297,0-8.32,3.231-11.325,9.098c-3.438,6.714-5.256,16.322-5.256,27.785c0,12.889,4.165,24.038,12.378,33.137l0.307,0.338
			c0.385,0.417,0.773,0.828,1.167,1.229l0.258,0.261c0.405,0.407,0.747,0.747,1.094,1.076l0.6,0.559
			c0.226,0.211,0.451,0.422,0.678,0.627c0.258-0.227,0.51-0.461,0.76-0.695l0.486-0.443c0.318-0.298,0.633-0.605,0.947-0.913
			l0.379-0.376c0.375-0.375,0.746-0.754,1.111-1.143c0.093-0.097,0.181-0.194,0.269-0.292c8.504-9.188,12.794-20.399,12.794-33.366
			C101.296,12.381,92.668,0.839,84.65,0.839L84.65,0.839z"/>
	</g>
</g>
</svg>
