<?xml version="1.0" encoding="utf-8"?>
<!-- Generator: Adobe Illustrator 14.0.0, SVG Export Plug-In . SVG Version: 6.00 Build 43363)  -->
<!DOCTYPE svg PUBLIC "-//W3C//DTD SVG 1.1 Basic//EN" "http://www.w3.org/Graphics/SVG/1.1/DTD/svg11-basic.dtd">
<svg version="1.1" baseProfile="basic" id="レイヤー_1のコピー"
	 xmlns="http://www.w3.org/2000/svg" xmlns:xlink="http://www.w3.org/1999/xlink" x="0px" y="0px" width="220px" height="75px"
	 viewBox="0 0 220 75" xml:space="preserve">
<g>
	<path fill="#20272F" d="M63.356,37.156c0.45-0.57,1.23-2.55,1.44-4.11c-0.12-0.21-0.57-0.27-0.78-0.12
		c-0.69,1.77-2.4,4.29-6.27,4.29c-4.92,0-8.91-3.48-8.91-9.78c0-6.209,3.9-9.12,8.49-9.12c4.35,0,5.7,2.34,6.149,4.38
		c0.21,0.18,0.66,0.15,0.81-0.06c-0.24-1.83-0.39-3.72-0.42-4.41c-0.27,0.03-0.48-0.03-0.84-0.12c-1.41-0.39-3.69-0.72-5.31-0.72
		c-3.12,0-5.91,0.84-8.1,2.55c-2.28,1.77-3.78,4.62-3.78,7.95c0,3.87,1.86,6.6,4.26,8.25c2.19,1.47,4.77,2.01,7.47,2.01
		c1.92,0,4.08-0.45,4.74-0.69C62.636,37.336,62.996,37.216,63.356,37.156z M84.026,31.636c0-3.69-2.73-6.209-6.089-6.209
		c-3.54,0-6.39,2.7-6.39,6.479c0,3.75,2.7,6.18,6.15,6.18C81.446,38.086,84.026,35.386,84.026,31.636z M77.996,37.186
		c-2.64,0-3.87-2.94-3.87-5.669c0-3.3,1.47-5.19,3.45-5.19c2.85,0,3.87,3.24,3.87,5.79C81.446,34.426,80.636,37.186,77.996,37.186z
		 M98.366,30.256l-6.99,0.66c-0.15,0.18-0.24,0.45-0.24,0.75c0,0.3,0.12,0.69,0.45,0.96l6.99-0.66c0.15-0.18,0.24-0.45,0.24-0.75
		C98.816,30.827,98.696,30.466,98.366,30.256z M108.626,37.666c1.05,0,1.92,0.03,2.91,0.09c0.209-0.09,0.27-0.6,0.06-0.75
		l-0.72-0.09c-1.08-0.15-1.14-0.45-1.14-2.61V20.117c0-1.32,0.06-2.82,0.09-3.72c-0.06-0.12-0.18-0.18-0.3-0.18
		c-1.08,0.57-2.49,1.02-3.24,1.26c-0.15,0.09-0.15,0.51,0,0.6l0.3,0.18c0.9,0.54,0.93,0.72,0.93,2.49v13.559
		c0,2.16-0.03,2.46-1.14,2.61l-0.69,0.09c-0.21,0.15-0.15,0.66,0.06,0.75C106.646,37.696,107.546,37.666,108.626,37.666z
		 M128.216,34.936c-0.93,1.17-1.77,1.47-2.76,1.47c-3.211,0-4.98-2.58-4.98-5.61c0-0.75,0.03-0.81,0.811-0.81h5.549
		c1.261,0,1.681-0.03,1.771-0.21c0.06-0.12,0.12-0.36,0.12-0.78c0-1.8-1.68-3.57-4.26-3.57c-3.6,0-6.029,3.09-6.029,6.78
		c0,1.32,0.359,2.729,1.26,3.9c0.869,1.14,2.399,1.979,4.35,1.979c1.56,0,3.72-0.75,4.709-2.79
		C128.726,35.026,128.516,34.846,128.216,34.936z M124.136,26.327c1.74,0,2.311,1.05,2.311,1.89c0,0.39-0.091,0.51-0.181,0.57
		c-0.24,0.18-0.899,0.3-3.12,0.3h-2.13c-0.21,0-0.21-0.09-0.21-0.15C120.836,27.946,122.366,26.327,124.136,26.327z M140.605,37.336
		c0.601-0.33,0.96-0.6,1.17-0.6c0.181,0,0.36,0.24,0.479,0.42c0.511,0.66,1.23,0.93,1.951,0.93c1.469,0,2.52-1.17,2.52-1.32
		c0-0.21-0.09-0.39-0.211-0.39c-0.09,0-0.239,0.12-0.389,0.209c-0.181,0.09-0.451,0.18-0.75,0.18c-1.17,0-1.44-1.23-1.381-2.61
		l0.18-5.22c0.091-2.25-0.959-3.51-3.119-3.51c-2.189,0-5.58,2.13-5.58,3.689c0,0.27,0.15,0.42,0.42,0.42
		c0.45,0,1.26-0.21,1.71-0.57c0.24-0.18,0.271-0.54,0.3-1.02c0.061-0.93,1.08-1.35,1.92-1.35c1.86,0,2.221,1.5,2.19,2.61l-0.03,1.38
		c0,0.45-0.061,0.72-0.51,0.87l-3.57,1.29c-1.92,0.69-2.489,1.38-2.489,2.55c0,0.84,0.36,1.59,0.93,2.1
		c0.51,0.45,1.229,0.69,2.101,0.69C139.286,38.086,139.946,37.696,140.605,37.336z M137.726,34.936c0-1.17,0.87-1.62,2.641-2.22
		c0.539-0.18,1.049-0.3,1.229-0.3c0.18,0,0.3,0.06,0.3,0.39l-0.061,1.77c-0.029,0.63-0.029,1.05-0.39,1.41
		c-0.3,0.3-1.229,0.75-1.829,0.75C138.086,36.736,137.726,35.446,137.726,34.936z M162.085,36.706c0.061,0.12,0.061,0.48,0.061,0.93
		v0.51c0,0.15,0.149,0.24,0.33,0.24c0.84-0.33,2.699-0.78,3.959-0.96c0.271-0.15,0.24-0.9,0.03-0.96c-0.45,0.15-0.96,0.3-1.29,0.3
		c-0.84,0-0.869-1.11-0.869-3.48V20.117c0-1.32,0.06-2.82,0.09-3.72c-0.061-0.12-0.181-0.18-0.301-0.18
		c-1.08,0.57-2.49,1.02-3.24,1.26c-0.149,0.09-0.149,0.51,0,0.6l0.301,0.18c0.9,0.54,0.93,0.72,0.93,2.49v4.53
		c0,0.24-0.029,0.42-0.18,0.42c-0.33-0.12-0.99-0.27-2.01-0.27c-4.08,0-7.26,2.7-7.26,6.899c0,3.15,2.22,5.76,5.55,5.76
		c1.439,0,2.46-0.48,3.779-1.38H162.085z M159.565,36.646c-2.939,0-4.471-2.58-4.471-5.31c0-2.61,1.41-4.98,4.141-4.98
		c1.17,0,2.07,0.63,2.52,1.26c0.21,0.3,0.33,0.57,0.33,1.17v5.91c0,0.48-0.029,0.93-0.21,1.11
		C161.396,36.286,160.375,36.646,159.565,36.646z M183.325,35.296c-0.03-0.27-0.24-0.45-0.541-0.36c-0.93,1.17-1.77,1.47-2.76,1.47
		c-3.209,0-4.979-2.58-4.979-5.61c0-0.75,0.03-0.81,0.81-0.81h5.551c1.26,0,1.68-0.03,1.77-0.21c0.061-0.12,0.12-0.36,0.12-0.78
		c0-1.8-1.681-3.57-4.261-3.57c-3.6,0-6.029,3.09-6.029,6.78c0,1.32,0.36,2.729,1.26,3.9c0.871,1.14,2.4,1.979,4.35,1.979
		C180.175,38.086,182.335,37.336,183.325,35.296z M178.705,26.327c1.739,0,2.31,1.05,2.31,1.89c0,0.39-0.09,0.51-0.18,0.57
		c-0.24,0.18-0.9,0.3-3.12,0.3h-2.13c-0.21,0-0.21-0.09-0.21-0.15C175.405,27.946,176.935,26.327,178.705,26.327z M197.485,25.427
		c-1.11,0-2.25,0.93-3.301,1.8c-0.06-0.03-0.09-0.12-0.09-0.27v-1.74c0-0.12-0.09-0.18-0.24-0.21c-0.75,0.45-2.34,1.23-3.029,1.47
		c-0.15,0.09-0.15,0.42-0.03,0.54l0.271,0.18c0.81,0.54,0.81,0.69,0.81,1.86v5.25c0,2.16-0.03,2.43-1.14,2.61l-0.57,0.09
		c-0.21,0.15-0.15,0.66,0.061,0.75c0.779-0.06,1.68-0.09,2.76-0.09c1.049,0,1.92,0.03,3.33,0.09c0.209-0.09,0.27-0.6,0.06-0.75
		l-1.08-0.09c-1.14-0.09-1.2-0.45-1.2-2.61v-4.08c0-1.02,0.09-1.89,0.391-2.31c0.239-0.33,0.6-0.6,1.08-0.6
		c0.42,0,0.869,0.18,1.319,0.48c0.21,0.12,0.36,0.21,0.66,0.21c0.479,0,1.29-0.39,1.29-1.38
		C198.835,25.907,198.235,25.427,197.485,25.427z M208.464,38.086c2.221,0,4.32-1.14,4.32-3.42c0-2.13-1.47-3.149-3.06-4.05
		c-1.05-0.6-2.31-1.26-2.31-2.49c0-1.08,0.75-1.83,1.92-1.83c1.229,0,2.129,0.87,2.639,2.19c0.15,0.18,0.601,0.12,0.721-0.09
		c0-0.81-0.21-1.77-0.48-2.43c-0.27-0.24-1.379-0.54-2.64-0.54c-2.28,0-4.079,1.23-4.079,3.42c0,1.65,1.229,2.7,2.969,3.689
		c1.11,0.63,2.311,1.38,2.311,2.76c0,1.29-0.93,1.92-2.01,1.92c-1.71,0-2.67-1.44-3.18-3.09c-0.15-0.18-0.541-0.15-0.69,0.03
		c-0.06,0.99,0.12,2.46,0.36,3.03C206.005,37.786,207.055,38.086,208.464,38.086z M48.522,51.885h1.005l0.383-4.054h-1.764
		L48.522,51.885z M45.651,51.885h1.012l0.403-4.054h-1.764L45.651,51.885z M71.115,49.355l0.027-1.873
		c0-0.068-0.007-0.111-0.021-0.13s-0.057-0.027-0.13-0.027l-1.572,0.027h-2.085l-1.552-0.027c-0.064,0-0.105,0.007-0.123,0.021
		c-0.019,0.014-0.027,0.06-0.027,0.137l0.027,1.189v1.723l-0.027,1.155c0,0.073,0.007,0.121,0.021,0.144
		c0.014,0.019,0.057,0.027,0.13,0.027l1.552-0.027h2.352v5.968c0,0.196-0.034,0.333-0.103,0.41c-0.082,0.087-0.244,0.13-0.485,0.13
		c-0.337,0-0.588-0.009-0.752-0.027c0.086-0.154,0.194-0.313,0.321-0.472c-1.167-0.342-2.017-0.79-2.55-1.347h0.8l1.805,0.027
		c0.068,0,0.11-0.008,0.126-0.023c0.016-0.016,0.024-0.059,0.024-0.127v-0.8c0-0.068-0.007-0.111-0.021-0.13
		c-0.014-0.018-0.057-0.027-0.13-0.027l-1.805,0.027h-1.162c0.032-0.182,0.055-0.455,0.068-0.82h0.882l1.736,0.027
		c0.073,0,0.119-0.007,0.137-0.021s0.027-0.06,0.027-0.137v-0.8c0-0.063-0.007-0.104-0.021-0.123
		c-0.014-0.018-0.062-0.027-0.144-0.027l-1.326,0.027l0.267-0.52c0.063-0.118,0.141-0.212,0.232-0.28
		c0.077-0.06,0.116-0.114,0.116-0.164c0-0.082-0.075-0.147-0.226-0.198c-0.296-0.086-0.679-0.176-1.148-0.267
		c-0.023,0.137-0.082,0.333-0.178,0.588c-0.168,0.392-0.296,0.673-0.383,0.841h-1.032c-0.219-0.474-0.451-0.9-0.697-1.278
		c-0.05-0.068-0.096-0.103-0.137-0.103c-0.023,0-0.071,0.012-0.144,0.034l-0.772,0.253c-0.105,0.037-0.157,0.078-0.157,0.123
		c0,0.032,0.018,0.07,0.055,0.116c0.168,0.237,0.333,0.522,0.492,0.854l-1.313-0.027c-0.073,0-0.119,0.007-0.137,0.021
		c-0.023,0.014-0.034,0.058-0.034,0.13v0.8c0,0.068,0.007,0.112,0.021,0.13c0.018,0.019,0.068,0.027,0.15,0.027l1.736-0.027h0.697
		c0,0.232-0.018,0.506-0.055,0.82h-0.896l-1.805-0.027c-0.068,0-0.112,0.007-0.13,0.021c-0.019,0.014-0.027,0.06-0.027,0.137v0.8
		c0,0.064,0.007,0.105,0.021,0.123c0.018,0.019,0.063,0.027,0.137,0.027l1.805-0.027h0.574c-0.41,0.803-1.354,1.395-2.83,1.777
		c0.269,0.251,0.479,0.518,0.629,0.8c0.091,0.169,0.171,0.253,0.239,0.253s0.18-0.031,0.335-0.096
		c1.285-0.487,2.188-1.207,2.707-2.16c0.588,0.789,1.383,1.391,2.386,1.805c0.146,0.064,0.253,0.096,0.321,0.096
		s0.148-0.096,0.239-0.287l0.068-0.171c0.096,0.183,0.175,0.448,0.239,0.8c0.032,0.205,0.07,0.326,0.116,0.362
		c0.045,0.046,0.208,0.068,0.485,0.068c0.838,0,1.399-0.126,1.682-0.376c0.26-0.273,0.39-0.709,0.39-1.306l-0.041-2.782V49.355z
		 M69.686,50.702h-2.659v-0.704h2.659V50.702z M69.686,49.062h-2.659v-0.684h2.659V49.062z M60.84,51.693h2.311l1.408,0.027
		c0.064,0,0.103-0.007,0.116-0.021c0.018-0.019,0.027-0.068,0.027-0.15l-0.027-1.271v-1.511l0.027-1.285
		c0-0.104-0.048-0.157-0.144-0.157l-1.408,0.027h-1.962l-1.647-0.027c-0.068,0-0.112,0.007-0.13,0.021
		c-0.019,0.014-0.027,0.06-0.027,0.137l0.027,3.035v6.063l-0.027,3.008c0,0.073,0.008,0.117,0.024,0.134
		c0.016,0.016,0.058,0.023,0.126,0.023h1.183c0.064,0,0.104-0.007,0.123-0.021c0.018-0.019,0.027-0.063,0.027-0.137l-0.027-3.008
		V51.693z M60.84,48.378h2.461v0.684H60.84V48.378z M60.84,49.998h2.461v0.704H60.84V49.998z M90.959,55.357
		c-0.032,0-0.071,0.012-0.116,0.034l-0.841,0.403c-0.105,0.055-0.157,0.105-0.157,0.15c0,0.027,0.011,0.066,0.034,0.116
		c0.52,1.135,1.107,2.101,1.764,2.898c0.137,0.178,0.23,0.267,0.28,0.267c0.05,0,0.152-0.07,0.308-0.212
		c0.296-0.251,0.613-0.465,0.95-0.643c-0.898-0.894-1.593-1.864-2.085-2.912C91.055,55.392,91.009,55.357,90.959,55.357z
		 M86.714,55.891c-0.506-0.241-0.923-0.412-1.251-0.513c-0.064,0.306-0.176,0.618-0.335,0.937c-0.378,0.738-0.9,1.447-1.565,2.126
		c0.346,0.159,0.64,0.347,0.882,0.561c0.15,0.15,0.253,0.226,0.308,0.226c0.059,0,0.157-0.089,0.294-0.267
		c0.615-0.747,1.091-1.481,1.429-2.201c0.104-0.224,0.198-0.366,0.28-0.431c0.104-0.072,0.157-0.148,0.157-0.226
		C86.912,56.034,86.846,55.964,86.714,55.891z M83.193,50.142c0.241-0.497,0.501-1.109,0.779-1.839
		c0.104-0.305,0.198-0.49,0.28-0.554c0.104-0.091,0.157-0.175,0.157-0.253c0-0.086-0.075-0.157-0.226-0.212
		c-0.355-0.146-0.809-0.284-1.36-0.417c-0.041,0.342-0.114,0.672-0.219,0.991c-0.611,1.8-1.429,3.279-2.454,4.437
		c0.141,0.242,0.28,0.652,0.417,1.23c0.041,0.16,0.093,0.239,0.157,0.239c0.059,0,0.144-0.062,0.253-0.185
		c0.337-0.4,0.608-0.75,0.813-1.046c-0.009,0.392-0.014,0.962-0.014,1.709v3.22l-0.027,2.126c0,0.073,0.004,0.118,0.014,0.137
		c0.014,0.022,0.055,0.034,0.123,0.034h1.176c0.068,0,0.109-0.007,0.123-0.021c0.022-0.019,0.034-0.068,0.034-0.15l-0.027-2.126
		V50.142z M91.472,52.145c-0.046-0.063-0.089-0.096-0.13-0.096c-0.032,0-0.087,0.016-0.164,0.048l-0.759,0.369
		c-0.101,0.046-0.15,0.094-0.15,0.144c0,0.032,0.018,0.073,0.055,0.123l0.547,0.779c-0.953,0.073-1.857,0.13-2.714,0.171
		c0.92-0.812,1.779-1.67,2.577-2.577c0.214-0.232,0.415-0.396,0.602-0.492c0.114-0.055,0.171-0.123,0.171-0.205
		s-0.053-0.157-0.157-0.226c-0.392-0.26-0.8-0.483-1.224-0.67c-0.078,0.196-0.194,0.396-0.349,0.602
		c-0.574,0.738-1.194,1.434-1.859,2.085l-0.8-0.731c0.292-0.314,0.665-0.757,1.121-1.326c0.155-0.191,0.294-0.319,0.417-0.383
		c0.096-0.036,0.144-0.101,0.144-0.191c0-0.063-0.057-0.134-0.171-0.212l-0.431-0.226c1.244-0.164,2.288-0.351,3.131-0.561
		c0.337-0.073,0.585-0.109,0.745-0.109c0.141,0,0.212-0.036,0.212-0.109c0-0.068-0.03-0.144-0.089-0.226
		c-0.219-0.332-0.483-0.67-0.793-1.012c-0.255,0.137-0.545,0.239-0.868,0.308c-1.855,0.415-3.96,0.668-6.316,0.759
		c0.205,0.283,0.346,0.59,0.424,0.923c0.036,0.142,0.066,0.228,0.089,0.26c0.036,0.05,0.109,0.075,0.219,0.075
		c0.045,0,0.123-0.004,0.232-0.014c0.702-0.041,1.39-0.096,2.064-0.164l-0.116,0.164c-0.337,0.475-0.659,0.891-0.964,1.251
		c-0.15-0.123-0.36-0.282-0.629-0.479c-0.055-0.036-0.101-0.055-0.137-0.055c-0.041,0-0.089,0.027-0.144,0.082l-0.629,0.643
		c-0.06,0.068-0.089,0.123-0.089,0.164s0.025,0.08,0.075,0.116c0.752,0.529,1.531,1.188,2.338,1.976
		c-0.037,0.027-0.144,0.121-0.321,0.28c-0.146,0.133-0.269,0.239-0.369,0.321c-0.242,0.009-0.602,0.014-1.08,0.014
		c-0.401,0-0.839-0.019-1.313-0.055c0.036,0.378,0.098,0.815,0.185,1.313c0.022,0.142,0.082,0.212,0.178,0.212
		c0.036,0,0.103-0.022,0.198-0.068c0.073-0.045,0.216-0.072,0.431-0.082c0.606-0.018,1.508-0.057,2.707-0.116v3.192l-0.027,1.483
		c0,0.068,0.007,0.112,0.021,0.13s0.062,0.027,0.144,0.027h1.176c0.068,0,0.109-0.007,0.123-0.021
		c0.022-0.019,0.034-0.063,0.034-0.137l-0.027-1.483v-3.288c1.167-0.082,2.005-0.147,2.516-0.198
		c0.045,0.082,0.104,0.193,0.178,0.335c0.118,0.237,0.191,0.378,0.219,0.424c0.032,0.077,0.073,0.116,0.123,0.116
		c0.036,0,0.082-0.016,0.137-0.048l0.841-0.431c0.109-0.055,0.164-0.109,0.164-0.164c0-0.027-0.012-0.062-0.034-0.103
		C92.652,53.787,92.091,52.91,91.472,52.145z M114.651,57.894l-1.914,0.027h-1.414v-2.755h0.758l1.777,0.027
		c0.068,0,0.111-0.008,0.127-0.023s0.023-0.061,0.023-0.134v-1.087c0-0.068-0.006-0.111-0.02-0.13s-0.058-0.027-0.131-0.027
		l-1.777,0.027h-0.758v-2.434h1.176l1.75,0.027c0.068,0,0.109-0.007,0.123-0.021c0.021-0.014,0.033-0.057,0.033-0.13v-1.08
		c0-0.068-0.006-0.111-0.02-0.13c-0.02-0.018-0.064-0.027-0.137-0.027l-1.75,0.027h-1.176v-1.046c0-0.843,0.033-1.36,0.102-1.552
		c0.046-0.168,0.068-0.262,0.068-0.28c0-0.082-0.074-0.13-0.225-0.144c-0.424-0.05-0.933-0.082-1.525-0.096
		c0.073,0.611,0.109,1.314,0.109,2.112v1.005h-1.285c0.091-0.351,0.173-0.699,0.246-1.046c0.032-0.183,0.089-0.328,0.171-0.438
		c0.055-0.068,0.082-0.132,0.082-0.191c0-0.073-0.08-0.139-0.239-0.198c-0.419-0.146-0.866-0.262-1.34-0.349
		c-0.014,0.351-0.046,0.687-0.096,1.005c-0.128,0.707-0.349,1.463-0.663,2.27c-0.087-0.396-0.269-0.971-0.547-1.723
		c-0.032-0.077-0.073-0.116-0.123-0.116c-0.027,0-0.068,0.012-0.123,0.034l-0.547,0.185c-0.114,0.032-0.171,0.071-0.171,0.116
		c0,0.023,0.009,0.062,0.027,0.116c0.223,0.565,0.392,1.171,0.506,1.818c0.014,0.087,0.043,0.13,0.089,0.13
		c0.027,0,0.082-0.014,0.164-0.041l0.588-0.212c-0.201,0.47-0.419,0.894-0.656,1.271c0.355,0.104,0.69,0.26,1.005,0.465
		c0.141,0.091,0.23,0.137,0.267,0.137c0.063,0,0.148-0.098,0.253-0.294c0.26-0.533,0.483-1.068,0.67-1.606h1.723v2.434h-0.841
		l-1.777-0.027c-0.068,0-0.109,0.007-0.123,0.021c-0.023,0.014-0.034,0.06-0.034,0.137v1.087c0,0.068,0.009,0.112,0.027,0.13
		c0.014,0.019,0.057,0.027,0.13,0.027l1.777-0.027h0.841v2.755h-1.764l-1.921-0.027c-0.068,0-0.111,0.009-0.126,0.024
		c-0.016,0.016-0.024,0.058-0.024,0.126v1.08c0,0.073,0.007,0.118,0.021,0.137c0.014,0.022,0.057,0.034,0.13,0.034l1.921-0.027
		h4.648l1.914,0.027c0.068,0,0.111-0.007,0.131-0.021c0.018-0.019,0.027-0.068,0.027-0.15v-1.08c0-0.063-0.008-0.104-0.021-0.123
		S114.729,57.894,114.651,57.894z M105.164,49.007c0-0.866,0.034-1.383,0.103-1.552c0.045-0.109,0.068-0.198,0.068-0.267
		c0-0.091-0.075-0.144-0.226-0.157c-0.419-0.05-0.909-0.082-1.47-0.096c0.073,0.511,0.109,1.215,0.109,2.112v8.107l-0.027,2.434
		c0,0.073,0.007,0.118,0.021,0.137c0.014,0.022,0.059,0.034,0.137,0.034h1.155c0.068,0,0.111-0.007,0.13-0.021
		c0.018-0.019,0.027-0.068,0.027-0.15l-0.027-2.447V49.007z M103.188,50.012l-0.656-0.137c-0.091-0.018-0.146-0.027-0.164-0.027
		c-0.041,0-0.062,0.039-0.062,0.116c-0.055,1.121-0.203,2.067-0.444,2.837c-0.014,0.046-0.021,0.08-0.021,0.103
		c0,0.073,0.057,0.132,0.171,0.178l0.704,0.28c0.082,0.027,0.13,0.041,0.144,0.041c0.032,0,0.059-0.034,0.082-0.103
		c0.232-0.725,0.383-1.745,0.451-3.063v-0.055C103.393,50.101,103.325,50.044,103.188,50.012z M124.063,51.885h1.012l0.404-4.054
		h-1.764L124.063,51.885z M126.936,51.885h1.005l0.383-4.054h-1.764L126.936,51.885z M144.011,50.627
		c-0.387,0-0.752,0.021-1.094,0.062c0.055-0.178,0.135-0.442,0.239-0.793c0.109-0.383,0.198-0.679,0.267-0.889
		c0.073-0.21,0.166-0.388,0.28-0.533c0.063-0.063,0.096-0.134,0.096-0.212c0-0.141-0.075-0.234-0.226-0.28
		c-0.433-0.159-0.991-0.312-1.675-0.458c0,0.475-0.048,0.991-0.144,1.552c-0.137,0.67-0.275,1.258-0.417,1.764
		c-0.597,0.091-1.148,0.162-1.654,0.212c-0.716,0.064-1.331,0.096-1.846,0.096c0.155,0.615,0.299,1.096,0.431,1.442
		c0.055,0.146,0.148,0.219,0.28,0.219c0.05,0,0.107-0.011,0.171-0.034c0.265-0.1,0.521-0.176,0.772-0.226
		c0.593-0.109,1.048-0.188,1.367-0.239c-0.602,1.741-1.456,3.57-2.563,5.489c-0.036,0.05-0.055,0.103-0.055,0.157
		c0,0.064,0.037,0.133,0.109,0.205c0.215,0.201,0.538,0.406,0.971,0.615c0.06,0.031,0.111,0.048,0.157,0.048
		c0.087,0,0.155-0.058,0.205-0.171c0.962-1.723,1.9-3.917,2.816-6.583c0.474-0.063,0.866-0.096,1.176-0.096
		c0.287,0,0.49,0.08,0.608,0.239c0.128,0.178,0.191,0.533,0.191,1.066c0,1.345-0.182,2.5-0.547,3.466
		c-0.104,0.269-0.214,0.458-0.328,0.567c-0.132,0.119-0.321,0.178-0.567,0.178c-0.483,0-0.995-0.103-1.538-0.308
		c0.123,0.292,0.21,0.725,0.26,1.299c0,0.205,0.084,0.335,0.253,0.39c0.323,0.105,0.786,0.157,1.388,0.157
		c0.861,0,1.49-0.438,1.887-1.313c0.219-0.46,0.396-1.077,0.533-1.853c0.15-0.856,0.226-1.738,0.226-2.646
		c0-0.788-0.152-1.401-0.458-1.839C145.241,50.878,144.718,50.627,144.011,50.627z M147.723,50.08
		c-0.063-0.063-0.12-0.096-0.171-0.096c-0.031,0-0.063,0.01-0.096,0.027c-0.232,0.123-0.61,0.362-1.135,0.718
		c0.953,0.897,1.719,2.105,2.297,3.623c0.027,0.101,0.087,0.15,0.178,0.15c0.046,0,0.094-0.014,0.144-0.041
		c0.438-0.214,0.788-0.446,1.053-0.697c0.06-0.05,0.089-0.103,0.089-0.157c0-0.031-0.012-0.072-0.034-0.123
		C149.56,52.213,148.784,51.078,147.723,50.08z M163.37,47.182c-0.06,0-0.119,0.029-0.178,0.089
		c-0.196,0.196-0.473,0.561-0.828,1.094c1.012,0.446,1.955,1.053,2.83,1.818c0.064,0.063,0.121,0.096,0.172,0.096
		c0.041,0,0.091-0.036,0.15-0.109c0.269-0.314,0.508-0.643,0.717-0.984c0.046-0.077,0.068-0.132,0.068-0.164
		c0-0.05-0.031-0.103-0.096-0.157c-0.834-0.72-1.75-1.275-2.748-1.668C163.427,47.187,163.397,47.182,163.37,47.182z
		 M167.062,52.363c-0.775,0-1.555,0.18-2.338,0.54c-0.844,0.388-1.625,0.946-2.346,1.675c0.064-0.861,0.178-1.711,0.342-2.55
		c0.055-0.255,0.148-0.501,0.281-0.738c0.045-0.077,0.068-0.147,0.068-0.212c0-0.109-0.076-0.198-0.227-0.267
		c-0.219-0.123-0.703-0.292-1.455-0.506c0,0.21-0.044,0.632-0.131,1.265c-0.214,1.604-0.357,3.11-0.43,4.519
		c0,0.137,0.065,0.23,0.197,0.28c0.242,0.119,0.559,0.244,0.951,0.376c0.068,0.019,0.118,0.027,0.15,0.027
		c0.063,0,0.12-0.041,0.17-0.123c0.169-0.278,0.369-0.535,0.602-0.772c0.615-0.619,1.254-1.114,1.914-1.483
		c0.762-0.429,1.468-0.643,2.119-0.643c0.529,0,0.941,0.128,1.238,0.383c0.296,0.26,0.443,0.613,0.443,1.06
		c0,0.935-0.551,1.639-1.654,2.112c-0.938,0.424-2.221,0.687-3.848,0.786c0.337,0.26,0.653,0.656,0.949,1.189
		c0.082,0.133,0.196,0.198,0.342,0.198c0.051,0,0.123-0.007,0.219-0.021c1.5-0.191,2.696-0.513,3.59-0.964
		c1.408-0.706,2.111-1.752,2.111-3.138c0-0.848-0.252-1.535-0.758-2.064C168.976,52.674,168.142,52.363,167.062,52.363z
		 M187.671,56.103c0-0.068-0.007-0.111-0.021-0.13c-0.019-0.018-0.063-0.027-0.137-0.027l-1.477,0.027h-1.695l-1.463-0.027
		c-0.063,0-0.104,0.007-0.123,0.021s-0.027,0.06-0.027,0.137l0.021,1.032v0.8l-0.021,1.654c0,0.068,0.005,0.112,0.014,0.13
		c0.019,0.018,0.062,0.027,0.13,0.027h1.012c0.064,0,0.105-0.007,0.123-0.021s0.027-0.06,0.027-0.137v-0.417h2.27v0.321
		c0,0.096,0.053,0.144,0.157,0.144h1.046c0.109,0,0.164-0.048,0.164-0.144l-0.034-1.641v-0.882L187.671,56.103z M186.304,58.146
		h-2.27v-1.148h2.27V58.146z M185.21,47.469c0.1-0.055,0.15-0.116,0.15-0.185c0-0.091-0.062-0.15-0.185-0.178
		c-0.429-0.096-0.858-0.175-1.292-0.239c-0.082,0.224-0.219,0.465-0.41,0.725c-0.789,1.094-1.88,1.962-3.274,2.604
		c0.21,0.255,0.383,0.55,0.52,0.882c0.101,0.215,0.181,0.321,0.239,0.321c0.041,0,0.148-0.046,0.321-0.137
		c0.569-0.319,1.162-0.749,1.777-1.292v0.588c0,0.068,0.007,0.111,0.021,0.13c0.018,0.019,0.068,0.027,0.15,0.027l0.95-0.027h0.813
		l0.95,0.027c0.063,0,0.104-0.007,0.123-0.021s0.027-0.059,0.027-0.137v-0.67c0.369,0.283,0.761,0.535,1.176,0.759
		c0.155,0.082,0.26,0.123,0.314,0.123c0.06,0,0.128-0.111,0.205-0.335c0.118-0.337,0.273-0.636,0.465-0.896
		c-0.651-0.282-1.169-0.547-1.552-0.793C186.177,48.419,185.679,47.993,185.21,47.469z M184.991,49.649h-0.813
		c-0.41,0-0.663-0.005-0.759-0.014c0.365-0.351,0.734-0.774,1.107-1.271c0.4,0.497,0.816,0.921,1.244,1.271
		C185.688,49.645,185.429,49.649,184.991,49.649z M185.641,55.234l1.593,0.027c0.068,0,0.109-0.007,0.123-0.021
		c0.023-0.014,0.034-0.057,0.034-0.13l-0.027-1.121v-1.511l0.027-1.142c0-0.063-0.007-0.104-0.021-0.123
		c-0.018-0.018-0.064-0.027-0.137-0.027l-1.593,0.027h-2.27l-1.613-0.027c-0.091,0-0.137,0.051-0.137,0.15l0.014,1.579
		c0,1.148-0.103,2.104-0.308,2.864c-0.215,0.853-0.592,1.659-1.135,2.42c0.277,0.183,0.549,0.439,0.813,0.772
		c0.142,0.169,0.235,0.253,0.28,0.253c0.059,0,0.139-0.084,0.239-0.253c0.46-0.788,0.782-1.526,0.964-2.215
		c0.109-0.41,0.212-0.918,0.308-1.524H185.641z M182.968,52.192h3.09v0.554h-3.09V52.192z M182.947,53.683h3.11v0.561h-3.151
		L182.947,53.683z M192.559,47.229c-0.442-0.05-0.938-0.084-1.49-0.103c0.077,0.502,0.116,1.169,0.116,2.003v8.401
		c0,0.205-0.041,0.349-0.123,0.431c-0.086,0.087-0.253,0.13-0.499,0.13c-0.538,0-1.042-0.022-1.511-0.068
		c0.191,0.256,0.342,0.608,0.451,1.06c0.045,0.21,0.086,0.335,0.123,0.376c0.045,0.051,0.178,0.075,0.396,0.075
		c0.592,0,1.037-0.022,1.333-0.068c0.301-0.046,0.561-0.14,0.779-0.28c0.183-0.127,0.312-0.291,0.39-0.492
		c0.078-0.2,0.116-0.494,0.116-0.882l-0.027-2.782v-5.927c0-0.829,0.027-1.301,0.082-1.415c0.05-0.164,0.075-0.267,0.075-0.308
		C192.771,47.293,192.7,47.243,192.559,47.229z M189.937,56.062c0.017-0.019,0.024-0.063,0.024-0.137l-0.014-1.853V50.21
		c0-0.866,0.014-1.364,0.041-1.497c0.055-0.195,0.082-0.299,0.082-0.308c0-0.091-0.062-0.144-0.185-0.157
		c-0.451-0.05-0.928-0.082-1.429-0.096c0.068,0.438,0.103,1.128,0.103,2.071v3.849l-0.027,1.853c0,0.068,0.004,0.114,0.014,0.137
		c0.014,0.019,0.055,0.027,0.123,0.027h1.148C189.882,56.089,189.921,56.08,189.937,56.062z M212.327,53.218
		c-0.651-0.697-1.526-1.046-2.625-1.046c-0.747,0-1.49,0.21-2.229,0.629l-0.014-0.041c0.374-0.359,0.851-0.829,1.43-1.408
		c0.774-0.779,1.305-1.311,1.592-1.593c0.251-0.219,0.456-0.366,0.615-0.444c0.16-0.072,0.24-0.185,0.24-0.335
		c0-0.109-0.053-0.224-0.158-0.342c-0.25-0.31-0.563-0.608-0.936-0.896c-0.105-0.072-0.213-0.109-0.322-0.109
		c-0.05,0-0.139,0.037-0.266,0.109c-0.123,0.064-0.379,0.135-0.766,0.212c-1.158,0.224-2.218,0.383-3.18,0.479
		c-0.178,0.014-0.357,0.021-0.539,0.021c-0.27,0-0.522-0.016-0.76-0.048c0.178,0.72,0.34,1.224,0.486,1.511
		c0.068,0.16,0.17,0.239,0.307,0.239c0.073,0,0.167-0.022,0.281-0.068c0.15-0.06,0.346-0.116,0.588-0.171
		c0.93-0.195,1.832-0.373,2.707-0.533c-0.497,0.615-1.222,1.415-2.174,2.399c-1.167,1.217-2.272,2.247-3.316,3.09
		c-0.077,0.077-0.115,0.146-0.115,0.205c0,0.041,0.016,0.08,0.047,0.116c0.292,0.388,0.565,0.693,0.82,0.916
		c0.087,0.082,0.158,0.123,0.213,0.123s0.134-0.053,0.238-0.157c0.634-0.629,1.039-1.025,1.217-1.189
		c1.162-0.989,2.356-1.483,3.582-1.483c0.611,0,1.115,0.169,1.512,0.506c0.46,0.393,0.689,0.928,0.689,1.606
		c0,0.492-0.1,0.902-0.301,1.23c-0.223,0.36-0.599,0.661-1.127,0.902c-0.16-0.62-0.449-1.104-0.869-1.456
		c-0.465-0.392-1.053-0.588-1.764-0.588c-0.506,0-0.947,0.148-1.326,0.444c-0.433,0.337-0.648,0.759-0.648,1.265
		c0,0.606,0.219,1.087,0.656,1.442c0.501,0.41,1.226,0.615,2.174,0.615c1.395,0,2.524-0.304,3.391-0.909
		c0.998-0.697,1.496-1.672,1.496-2.926C213.175,54.602,212.893,53.828,212.327,53.218z M208.034,58.051
		c-0.811,0-1.217-0.241-1.217-0.725c0-0.141,0.055-0.26,0.164-0.355c0.128-0.118,0.297-0.178,0.506-0.178
		c0.606,0,1.003,0.401,1.189,1.203C208.49,58.033,208.276,58.051,208.034,58.051z"/>
</g>
<g id="Logo_1_">
	<g>
		<path fill="#278D3A" d="M16.866,49.822l0.115-0.104c0.148-0.134,0.295-0.268,0.441-0.407c-4.034-4.099-6.079-9.269-6.079-15.369
			c0-4.89,0.681-8.999,1.97-11.883c1.175-2.628,2.783-4.075,4.529-4.075c3.142,0,6.522,4.994,6.522,15.958
			c0,6.095-2.079,11.266-6.18,15.373c0.159,0.152,0.595,0.553,0.595,0.553l-0.312,0.313l-0.172-0.03
			c-0.165-0.151-0.33-0.305-0.493-0.462c-0.151,0.144-0.303,0.282-0.457,0.421l-0.108,0.098L16.866,49.822z M17.841,18.517
			c-1.522,0-2.958,1.336-4.042,3.761c-1.258,2.814-1.923,6.848-1.923,11.665c0,5.955,1.994,10.999,5.929,14.997
			c4-4.006,6.027-9.05,6.027-14.997c0-4.805-0.668-8.835-1.933-11.655C20.809,19.856,19.368,18.517,17.841,18.517L17.841,18.517z"/>
	</g>
	<g>
		<path fill="#278D3A" d="M34.96,57.697l-0.076-0.012c-1.838-0.296-6.627-1.264-11.379-3.851c-1.285-0.7-2.495-1.485-3.596-2.331
			l-0.132-0.102l0.364-0.392l0.108,0.083c1.076,0.824,2.254,1.588,3.504,2.271c4.778,2.604,9.551,3.54,11.381,3.821l0.293,0.045
			L34.96,57.697L34.96,57.697z"/>
	</g>
	<g>
		<path fill="#278D3A" d="M0.652,57.679l-0.465-0.466l0.29-0.047c1.836-0.296,6.619-1.265,11.373-3.843
			c1.278-0.693,2.489-1.475,3.599-2.324l0.111-0.085l0.358,0.396l-0.131,0.101c-1.131,0.868-2.373,1.67-3.69,2.385
			c-4.729,2.564-9.525,3.561-11.368,3.869L0.652,57.679L0.652,57.679z"/>
	</g>
	<g>
		<path fill="#244D91" d="M19.088,52.192l-0.104-0.085c-0.182-0.148-0.363-0.298-0.542-0.453l-0.125-0.108l0.39-0.37l0.104,0.09
			c0.174,0.152,0.352,0.298,0.529,0.443l0.127,0.104L19.088,52.192L19.088,52.192z"/>
	</g>
	<g>
		<path fill="#244D91" d="M16.66,52.124l-0.123-0.075l0.106-0.105l-0.139,0.073l-0.248-0.254l0.126-0.104
			c0.186-0.152,0.347-0.283,0.506-0.42l0.105-0.09l0.384,0.374l-0.125,0.107c-0.161,0.138-0.325,0.272-0.488,0.406L16.66,52.124
			L16.66,52.124z"/>
	</g>
	<g>
		<path fill="#244D91" d="M18.267,51.496l0.099-0.112l-0.171,0.049c-0.12-0.105-0.24-0.211-0.358-0.319
			c-0.118,0.106-0.46,0.404-0.46,0.404l-0.149-0.05l-0.173-0.165l-0.112-0.114c0,0,0.389-0.339,0.505-0.443
			c-0.163-0.158-0.324-0.32-0.483-0.484l-0.166-0.169c-4.141-4.313-6.24-9.7-6.24-16.013c0-5.229,0.77-9.622,2.226-12.704
			c1.323-2.8,3.129-4.342,5.084-4.342c3.534,0,7.337,5.334,7.337,17.046c0,6.33-2.14,11.732-6.362,16.059
			c0,0-0.464,0.462-0.616,0.608c0.12,0.11,0.484,0.433,0.484,0.433l-0.073,0.152l-0.271,0.255L18.267,51.496z M17.87,17.566
			c-1.738,0-3.373,1.434-4.602,4.037c-1.423,3.011-2.175,7.325-2.175,12.477c0,6.169,2.051,11.434,6.097,15.647l0.163,0.167
			c0.161,0.163,0.323,0.327,0.487,0.486c0.152-0.146,0.302-0.295,0.451-0.445l0.166-0.164c4.126-4.228,6.219-9.507,6.219-15.691
			C24.674,22.733,21.147,17.566,17.87,17.566L17.87,17.566z"/>
	</g>
	<g>
		<path fill="#244D91" d="M33.711,58.947l-0.081-0.019c-2.443-0.564-6.125-1.646-9.785-3.594c-1.7-0.906-3.274-1.94-4.68-3.077
			l-0.131-0.105l0.377-0.374l0.108,0.081c1.377,1.109,2.917,2.12,4.577,3.004c3.66,1.95,7.346,3.022,9.794,3.579l0.265,0.061
			L33.711,58.947L33.711,58.947z"/>
	</g>
	<g>
		<path fill="#244D91" d="M1.914,58.94L1.47,58.495l0.264-0.061c2.472-0.566,6.191-1.654,9.875-3.617
			c1.661-0.883,3.207-1.896,4.594-3.009l0.106-0.085l0.335,0.34l-0.088,0.146c-1.412,1.135-2.994,2.172-4.703,3.083
			c-3.678,1.956-7.391,3.053-9.858,3.629L1.914,58.94L1.914,58.94z"/>
	</g>
	<g>
		<path fill="#278D3A" d="M2.983,60.01l-0.433-0.434l0.248-0.068c3.082-0.853,5.943-1.965,8.504-3.307
			c2.056-1.076,3.938-2.321,5.593-3.701l0.103-0.086l0.391,0.369l-0.129,0.107c-1.692,1.413-3.615,2.687-5.717,3.786
			c-2.561,1.34-5.413,2.453-8.476,3.31L2.983,60.01L2.983,60.01z"/>
	</g>
	<g>
		<path fill="#278D3A" d="M32.641,60.019l-0.085-0.023c-3.026-0.845-5.843-1.946-8.371-3.272c-2.108-1.106-4.03-2.388-5.712-3.809
			l-0.129-0.108l0.394-0.365l0.102,0.086c1.647,1.387,3.53,2.64,5.594,3.724c2.524,1.325,5.347,2.425,8.391,3.267l0.247,0.068
			L32.641,60.019L32.641,60.019z"/>
	</g>
	<g>
		<path fill="#278D3A" d="M16.945,52.456c0,0,0.417-0.354,0.515-0.438c-0.093-0.088-0.58-0.558-0.58-0.558
			c-0.17-0.168-0.336-0.341-0.503-0.516c-0.135,0.108-0.514,0.403-0.514,0.403l-0.361-0.394c0,0,0.407-0.318,0.508-0.399
			c-4.137-4.512-6.233-10.076-6.233-16.542c0-5.589,0.858-10.285,2.48-13.578c1.471-2.984,3.475-4.627,5.642-4.627
			c3.926,0,8.152,5.697,8.152,18.206c0,6.493-2.151,12.081-6.393,16.612c0.136,0.109,0.54,0.428,0.54,0.428l-0.308,0.328
			l-0.167-0.022c-0.145-0.114-0.29-0.229-0.434-0.348c-0.156,0.161-0.313,0.321-0.472,0.476c0,0-0.457,0.437-0.562,0.534
			c0.119,0.105,0.485,0.419,0.485,0.419l-0.072,0.155l-0.215,0.197l-0.158-0.033c-0.147-0.125-0.293-0.249-0.438-0.378
			c-0.111,0.097-0.517,0.44-0.517,0.44L16.945,52.456z M16.787,50.6c0.159,0.166,0.318,0.332,0.48,0.492
			c0,0,0.491,0.474,0.591,0.568c0.095-0.089,0.573-0.545,0.573-0.545c0.152-0.146,0.299-0.297,0.447-0.448
			c-0.138-0.117-0.526-0.463-0.526-0.463l0.378-0.378c0,0,0.38,0.337,0.518,0.455c4.16-4.436,6.27-9.908,6.27-16.269
			c0-12.143-3.949-17.673-7.619-17.673c-1.953,0-3.787,1.538-5.164,4.331c-1.587,3.221-2.427,7.834-2.427,13.342
			c0,6.334,2.056,11.783,6.11,16.198c0.13-0.109,0.496-0.432,0.496-0.432l0.309,0.317l-0.053,0.172
			C17.044,50.382,16.916,50.491,16.787,50.6L16.787,50.6z"/>
	</g>
	<g>
		<path fill="#244E91" d="M31.576,60.967c-2.521-0.802-4.894-1.773-7.051-2.888c-2.481-1.281-4.718-2.78-6.65-4.455
			c-1.933,1.652-4.166,3.135-6.64,4.407c-2.194,1.128-4.612,2.114-7.185,2.93l-0.087,0.028l-0.426-0.425l0.236-0.075
			c2.589-0.813,5.019-1.801,7.223-2.936c2.409-1.238,4.586-2.681,6.475-4.287c-0.108-0.099-0.583-0.543-0.583-0.543
			c-0.18-0.172-0.357-0.348-0.534-0.525l-0.167-0.168c-0.203-0.208-0.405-0.42-0.604-0.637l-0.158-0.176
			c-4.269-4.731-6.433-10.529-6.433-17.233c0-5.932,0.946-10.916,2.737-14.411c1.619-3.16,3.82-4.9,6.197-4.9
			c4.319,0,8.967,6.043,8.967,19.311c0,6.743-2.229,12.574-6.625,17.33l-0.16,0.174c-0.19,0.202-0.383,0.399-0.578,0.594
			l-0.166,0.167c-0.173,0.169-0.345,0.337-0.521,0.501c0,0-0.475,0.438-0.564,0.52c1.887,1.628,4.07,3.087,6.49,4.336
			c2.161,1.116,4.543,2.089,7.083,2.891l0.237,0.074l-0.427,0.425L31.576,60.967z M17.928,15.207c-2.167,0-4.2,1.637-5.723,4.61
			c-1.752,3.42-2.679,8.32-2.679,14.167c0,6.57,2.122,12.251,6.308,16.887l0.116,0.129c0.236,0.257,0.435,0.465,0.636,0.669
			l0.138,0.141c0.2,0.2,0.374,0.374,0.551,0.541c0,0,0.494,0.463,0.603,0.562c0.124-0.11,0.585-0.536,0.585-0.536
			c0.157-0.146,0.311-0.297,0.465-0.447l0.211-0.21c0.191-0.191,0.38-0.384,0.567-0.582l0.104-0.113
			c4.366-4.717,6.553-10.43,6.553-17.04C26.363,21.083,21.99,15.207,17.928,15.207L17.928,15.207z"/>
	</g>
</g>
</svg>
