<?xml version="1.0" encoding="utf-8"?>
<!-- Generator: Adobe Illustrator 14.0.0, SVG Export Plug-In . SVG Version: 6.00 Build 43363)  -->
<!DOCTYPE svg PUBLIC "-//W3C//DTD SVG 1.1 Basic//EN" "http://www.w3.org/Graphics/SVG/1.1/DTD/svg11-basic.dtd">
<svg version="1.1" baseProfile="basic" id="レイヤー_1"
	 xmlns="http://www.w3.org/2000/svg" xmlns:xlink="http://www.w3.org/1999/xlink" x="0px" y="0px" width="220px" height="75px"
	 viewBox="0 0 220 75" xml:space="preserve">
<g>
	<path fill="#FFFFFF" d="M63.356,37.156c0.45-0.57,1.23-2.55,1.44-4.11c-0.12-0.21-0.57-0.27-0.78-0.12
		c-0.69,1.77-2.4,4.29-6.27,4.29c-4.92,0-8.91-3.48-8.91-9.78c0-6.209,3.9-9.12,8.49-9.12c4.35,0,5.7,2.34,6.149,4.38
		c0.21,0.18,0.66,0.15,0.81-0.06c-0.24-1.83-0.39-3.72-0.42-4.41c-0.27,0.03-0.48-0.03-0.84-0.12c-1.41-0.39-3.69-0.72-5.31-0.72
		c-3.12,0-5.91,0.84-8.1,2.55c-2.28,1.77-3.78,4.62-3.78,7.95c0,3.87,1.86,6.6,4.26,8.25c2.19,1.47,4.77,2.01,7.47,2.01
		c1.92,0,4.08-0.45,4.74-0.69C62.636,37.336,62.996,37.216,63.356,37.156z M84.026,31.636c0-3.69-2.73-6.209-6.089-6.209
		c-3.54,0-6.39,2.7-6.39,6.479c0,3.75,2.7,6.18,6.15,6.18C81.446,38.086,84.026,35.386,84.026,31.636z M77.996,37.186
		c-2.64,0-3.87-2.94-3.87-5.669c0-3.3,1.47-5.19,3.45-5.19c2.85,0,3.87,3.24,3.87,5.79C81.446,34.426,80.636,37.186,77.996,37.186z
		 M98.366,30.256l-6.99,0.66c-0.15,0.18-0.24,0.45-0.24,0.75c0,0.3,0.12,0.69,0.45,0.96l6.99-0.66c0.15-0.18,0.24-0.45,0.24-0.75
		C98.816,30.827,98.696,30.466,98.366,30.256z M108.626,37.666c1.05,0,1.92,0.03,2.91,0.09c0.209-0.09,0.27-0.6,0.06-0.75
		l-0.72-0.09c-1.08-0.15-1.14-0.45-1.14-2.61V20.117c0-1.32,0.06-2.82,0.09-3.72c-0.06-0.12-0.18-0.18-0.3-0.18
		c-1.08,0.57-2.49,1.02-3.24,1.26c-0.15,0.09-0.15,0.51,0,0.6l0.3,0.18c0.9,0.54,0.93,0.72,0.93,2.49v13.559
		c0,2.16-0.03,2.46-1.14,2.61l-0.69,0.09c-0.21,0.15-0.15,0.66,0.06,0.75C106.646,37.696,107.546,37.666,108.626,37.666z
		 M128.216,34.936c-0.93,1.17-1.77,1.47-2.76,1.47c-3.211,0-4.98-2.58-4.98-5.61c0-0.75,0.03-0.81,0.811-0.81h5.549
		c1.261,0,1.681-0.03,1.771-0.21c0.06-0.12,0.12-0.36,0.12-0.78c0-1.8-1.68-3.57-4.26-3.57c-3.6,0-6.029,3.09-6.029,6.78
		c0,1.32,0.359,2.729,1.26,3.9c0.869,1.14,2.399,1.979,4.35,1.979c1.56,0,3.72-0.75,4.709-2.79
		C128.726,35.026,128.516,34.846,128.216,34.936z M124.136,26.327c1.74,0,2.311,1.05,2.311,1.89c0,0.39-0.091,0.51-0.181,0.57
		c-0.24,0.18-0.899,0.3-3.12,0.3h-2.13c-0.21,0-0.21-0.09-0.21-0.15C120.836,27.946,122.366,26.327,124.136,26.327z M140.605,37.336
		c0.601-0.33,0.96-0.6,1.17-0.6c0.181,0,0.36,0.24,0.479,0.42c0.511,0.66,1.23,0.93,1.951,0.93c1.469,0,2.52-1.17,2.52-1.32
		c0-0.21-0.09-0.39-0.211-0.39c-0.09,0-0.239,0.12-0.389,0.209c-0.181,0.09-0.451,0.18-0.75,0.18c-1.17,0-1.44-1.23-1.381-2.61
		l0.18-5.22c0.091-2.25-0.959-3.51-3.119-3.51c-2.189,0-5.58,2.13-5.58,3.689c0,0.27,0.15,0.42,0.42,0.42
		c0.45,0,1.26-0.21,1.71-0.57c0.24-0.18,0.271-0.54,0.3-1.02c0.061-0.93,1.08-1.35,1.92-1.35c1.86,0,2.221,1.5,2.19,2.61l-0.03,1.38
		c0,0.45-0.061,0.72-0.51,0.87l-3.57,1.29c-1.92,0.69-2.489,1.38-2.489,2.55c0,0.84,0.36,1.59,0.93,2.1
		c0.51,0.45,1.229,0.69,2.101,0.69C139.286,38.086,139.946,37.696,140.605,37.336z M137.726,34.936c0-1.17,0.87-1.62,2.641-2.22
		c0.539-0.18,1.049-0.3,1.229-0.3c0.18,0,0.3,0.06,0.3,0.39l-0.061,1.77c-0.029,0.63-0.029,1.05-0.39,1.41
		c-0.3,0.3-1.229,0.75-1.829,0.75C138.086,36.736,137.726,35.446,137.726,34.936z M162.085,36.706c0.061,0.12,0.061,0.48,0.061,0.93
		v0.51c0,0.15,0.149,0.24,0.33,0.24c0.84-0.33,2.699-0.78,3.959-0.96c0.271-0.15,0.24-0.9,0.03-0.96c-0.45,0.15-0.96,0.3-1.29,0.3
		c-0.84,0-0.869-1.11-0.869-3.48V20.117c0-1.32,0.06-2.82,0.09-3.72c-0.061-0.12-0.181-0.18-0.301-0.18
		c-1.08,0.57-2.49,1.02-3.24,1.26c-0.149,0.09-0.149,0.51,0,0.6l0.301,0.18c0.9,0.54,0.93,0.72,0.93,2.49v4.53
		c0,0.24-0.029,0.42-0.18,0.42c-0.33-0.12-0.99-0.27-2.01-0.27c-4.08,0-7.26,2.7-7.26,6.899c0,3.15,2.22,5.76,5.55,5.76
		c1.439,0,2.46-0.48,3.779-1.38H162.085z M159.565,36.646c-2.939,0-4.471-2.58-4.471-5.31c0-2.61,1.41-4.98,4.141-4.98
		c1.17,0,2.07,0.63,2.52,1.26c0.21,0.3,0.33,0.57,0.33,1.17v5.91c0,0.48-0.029,0.93-0.21,1.11
		C161.396,36.286,160.375,36.646,159.565,36.646z M183.325,35.296c-0.03-0.27-0.24-0.45-0.541-0.36c-0.93,1.17-1.77,1.47-2.76,1.47
		c-3.209,0-4.979-2.58-4.979-5.61c0-0.75,0.03-0.81,0.81-0.81h5.551c1.26,0,1.68-0.03,1.77-0.21c0.061-0.12,0.12-0.36,0.12-0.78
		c0-1.8-1.681-3.57-4.261-3.57c-3.6,0-6.029,3.09-6.029,6.78c0,1.32,0.36,2.729,1.26,3.9c0.871,1.14,2.4,1.979,4.35,1.979
		C180.175,38.086,182.335,37.336,183.325,35.296z M178.705,26.327c1.739,0,2.31,1.05,2.31,1.89c0,0.39-0.09,0.51-0.18,0.57
		c-0.24,0.18-0.9,0.3-3.12,0.3h-2.13c-0.21,0-0.21-0.09-0.21-0.15C175.405,27.946,176.935,26.327,178.705,26.327z M197.485,25.427
		c-1.11,0-2.25,0.93-3.301,1.8c-0.06-0.03-0.09-0.12-0.09-0.27v-1.74c0-0.12-0.09-0.18-0.24-0.21c-0.75,0.45-2.34,1.23-3.029,1.47
		c-0.15,0.09-0.15,0.42-0.03,0.54l0.271,0.18c0.81,0.54,0.81,0.69,0.81,1.86v5.25c0,2.16-0.03,2.43-1.14,2.61l-0.57,0.09
		c-0.21,0.15-0.15,0.66,0.061,0.75c0.779-0.06,1.68-0.09,2.76-0.09c1.049,0,1.92,0.03,3.33,0.09c0.209-0.09,0.27-0.6,0.06-0.75
		l-1.08-0.09c-1.14-0.09-1.2-0.45-1.2-2.61v-4.08c0-1.02,0.09-1.89,0.391-2.31c0.239-0.33,0.6-0.6,1.08-0.6
		c0.42,0,0.869,0.18,1.319,0.48c0.21,0.12,0.36,0.21,0.66,0.21c0.479,0,1.29-0.39,1.29-1.38
		C198.835,25.907,198.235,25.427,197.485,25.427z M208.464,38.086c2.221,0,4.32-1.14,4.32-3.42c0-2.13-1.47-3.149-3.06-4.05
		c-1.05-0.6-2.31-1.26-2.31-2.49c0-1.08,0.75-1.83,1.92-1.83c1.229,0,2.129,0.87,2.639,2.19c0.15,0.18,0.601,0.12,0.721-0.09
		c0-0.81-0.21-1.77-0.48-2.43c-0.27-0.24-1.379-0.54-2.64-0.54c-2.28,0-4.079,1.23-4.079,3.42c0,1.65,1.229,2.7,2.969,3.689
		c1.11,0.63,2.311,1.38,2.311,2.76c0,1.29-0.93,1.92-2.01,1.92c-1.71,0-2.67-1.44-3.18-3.09c-0.15-0.18-0.541-0.15-0.69,0.03
		c-0.06,0.99,0.12,2.46,0.36,3.03C206.005,37.786,207.055,38.086,208.464,38.086z M45.651,51.885h1.012l0.403-4.054h-1.764
		L45.651,51.885z M48.522,51.885h1.005l0.383-4.054h-1.764L48.522,51.885z M60.84,51.693h2.311l1.408,0.027
		c0.064,0,0.103-0.007,0.116-0.021c0.018-0.019,0.027-0.068,0.027-0.15l-0.027-1.271v-1.511l0.027-1.285
		c0-0.104-0.048-0.157-0.144-0.157l-1.408,0.027h-1.962l-1.647-0.027c-0.068,0-0.112,0.007-0.13,0.021
		c-0.019,0.014-0.027,0.06-0.027,0.137l0.027,3.035v6.063l-0.027,3.008c0,0.073,0.008,0.117,0.024,0.134
		c0.016,0.016,0.058,0.023,0.126,0.023h1.183c0.064,0,0.104-0.007,0.123-0.021c0.018-0.019,0.027-0.063,0.027-0.137l-0.027-3.008
		V51.693z M60.84,48.378h2.461v0.684H60.84V48.378z M60.84,49.998h2.461v0.704H60.84V49.998z M71.115,49.355l0.027-1.873
		c0-0.068-0.007-0.111-0.021-0.13s-0.057-0.027-0.13-0.027l-1.572,0.027h-2.085l-1.552-0.027c-0.064,0-0.105,0.007-0.123,0.021
		c-0.019,0.014-0.027,0.06-0.027,0.137l0.027,1.189v1.723l-0.027,1.155c0,0.073,0.007,0.121,0.021,0.144
		c0.014,0.019,0.057,0.027,0.13,0.027l1.552-0.027h2.352v5.968c0,0.196-0.034,0.333-0.103,0.41c-0.082,0.087-0.244,0.13-0.485,0.13
		c-0.337,0-0.588-0.009-0.752-0.027c0.086-0.154,0.194-0.313,0.321-0.472c-1.167-0.342-2.017-0.79-2.55-1.347h0.8l1.805,0.027
		c0.068,0,0.11-0.008,0.126-0.023c0.016-0.016,0.024-0.059,0.024-0.127v-0.8c0-0.068-0.007-0.111-0.021-0.13
		c-0.014-0.018-0.057-0.027-0.13-0.027l-1.805,0.027h-1.162c0.032-0.182,0.055-0.455,0.068-0.82h0.882l1.736,0.027
		c0.073,0,0.119-0.007,0.137-0.021s0.027-0.06,0.027-0.137v-0.8c0-0.063-0.007-0.104-0.021-0.123
		c-0.014-0.018-0.062-0.027-0.144-0.027l-1.326,0.027l0.267-0.52c0.063-0.118,0.141-0.212,0.232-0.28
		c0.077-0.06,0.116-0.114,0.116-0.164c0-0.082-0.075-0.147-0.226-0.198c-0.296-0.086-0.679-0.176-1.148-0.267
		c-0.023,0.137-0.082,0.333-0.178,0.588c-0.168,0.392-0.296,0.673-0.383,0.841h-1.032c-0.219-0.474-0.451-0.9-0.697-1.278
		c-0.05-0.068-0.096-0.103-0.137-0.103c-0.023,0-0.071,0.012-0.144,0.034l-0.772,0.253c-0.105,0.037-0.157,0.078-0.157,0.123
		c0,0.032,0.018,0.07,0.055,0.116c0.168,0.237,0.333,0.522,0.492,0.854l-1.313-0.027c-0.073,0-0.119,0.007-0.137,0.021
		c-0.023,0.014-0.034,0.058-0.034,0.13v0.8c0,0.068,0.007,0.112,0.021,0.13c0.018,0.019,0.068,0.027,0.15,0.027l1.736-0.027h0.697
		c0,0.232-0.018,0.506-0.055,0.82h-0.896l-1.805-0.027c-0.068,0-0.112,0.007-0.13,0.021c-0.019,0.014-0.027,0.06-0.027,0.137v0.8
		c0,0.064,0.007,0.105,0.021,0.123c0.018,0.019,0.063,0.027,0.137,0.027l1.805-0.027h0.574c-0.41,0.803-1.354,1.395-2.83,1.777
		c0.269,0.251,0.479,0.518,0.629,0.8c0.091,0.169,0.171,0.253,0.239,0.253s0.18-0.031,0.335-0.096
		c1.285-0.487,2.188-1.207,2.707-2.16c0.588,0.789,1.383,1.391,2.386,1.805c0.146,0.064,0.253,0.096,0.321,0.096
		s0.148-0.096,0.239-0.287l0.068-0.171c0.096,0.183,0.175,0.448,0.239,0.8c0.032,0.205,0.07,0.326,0.116,0.362
		c0.045,0.046,0.208,0.068,0.485,0.068c0.838,0,1.399-0.126,1.682-0.376c0.26-0.273,0.39-0.709,0.39-1.306l-0.041-2.782V49.355z
		 M69.686,50.702h-2.659v-0.704h2.659V50.702z M69.686,49.062h-2.659v-0.684h2.659V49.062z M90.959,55.357
		c-0.032,0-0.071,0.012-0.116,0.034l-0.841,0.403c-0.105,0.055-0.157,0.105-0.157,0.15c0,0.027,0.011,0.066,0.034,0.116
		c0.52,1.135,1.107,2.101,1.764,2.898c0.137,0.178,0.23,0.267,0.28,0.267c0.05,0,0.152-0.07,0.308-0.212
		c0.296-0.251,0.613-0.465,0.95-0.643c-0.898-0.894-1.593-1.864-2.085-2.912C91.055,55.392,91.009,55.357,90.959,55.357z
		 M91.472,52.145c-0.046-0.063-0.089-0.096-0.13-0.096c-0.032,0-0.087,0.016-0.164,0.048l-0.759,0.369
		c-0.101,0.046-0.15,0.094-0.15,0.144c0,0.032,0.018,0.073,0.055,0.123l0.547,0.779c-0.953,0.073-1.857,0.13-2.714,0.171
		c0.92-0.812,1.779-1.67,2.577-2.577c0.214-0.232,0.415-0.396,0.602-0.492c0.114-0.055,0.171-0.123,0.171-0.205
		s-0.053-0.157-0.157-0.226c-0.392-0.26-0.8-0.483-1.224-0.67c-0.078,0.196-0.194,0.396-0.349,0.602
		c-0.574,0.738-1.194,1.434-1.859,2.085l-0.8-0.731c0.292-0.314,0.665-0.757,1.121-1.326c0.155-0.191,0.294-0.319,0.417-0.383
		c0.096-0.036,0.144-0.101,0.144-0.191c0-0.063-0.057-0.134-0.171-0.212l-0.431-0.226c1.244-0.164,2.288-0.351,3.131-0.561
		c0.337-0.073,0.585-0.109,0.745-0.109c0.141,0,0.212-0.036,0.212-0.109c0-0.068-0.03-0.144-0.089-0.226
		c-0.219-0.332-0.483-0.67-0.793-1.012c-0.255,0.137-0.545,0.239-0.868,0.308c-1.855,0.415-3.96,0.668-6.316,0.759
		c0.205,0.283,0.346,0.59,0.424,0.923c0.036,0.142,0.066,0.228,0.089,0.26c0.036,0.05,0.109,0.075,0.219,0.075
		c0.045,0,0.123-0.004,0.232-0.014c0.702-0.041,1.39-0.096,2.064-0.164l-0.116,0.164c-0.337,0.475-0.659,0.891-0.964,1.251
		c-0.15-0.123-0.36-0.282-0.629-0.479c-0.055-0.036-0.101-0.055-0.137-0.055c-0.041,0-0.089,0.027-0.144,0.082l-0.629,0.643
		c-0.06,0.068-0.089,0.123-0.089,0.164s0.025,0.08,0.075,0.116c0.752,0.529,1.531,1.188,2.338,1.976
		c-0.037,0.027-0.144,0.121-0.321,0.28c-0.146,0.133-0.269,0.239-0.369,0.321c-0.242,0.009-0.602,0.014-1.08,0.014
		c-0.401,0-0.839-0.019-1.313-0.055c0.036,0.378,0.098,0.815,0.185,1.313c0.022,0.142,0.082,0.212,0.178,0.212
		c0.036,0,0.103-0.022,0.198-0.068c0.073-0.045,0.216-0.072,0.431-0.082c0.606-0.018,1.508-0.057,2.707-0.116v3.192l-0.027,1.483
		c0,0.068,0.007,0.112,0.021,0.13s0.062,0.027,0.144,0.027h1.176c0.068,0,0.109-0.007,0.123-0.021
		c0.022-0.019,0.034-0.063,0.034-0.137l-0.027-1.483v-3.288c1.167-0.082,2.005-0.147,2.516-0.198
		c0.045,0.082,0.104,0.193,0.178,0.335c0.118,0.237,0.191,0.378,0.219,0.424c0.032,0.077,0.073,0.116,0.123,0.116
		c0.036,0,0.082-0.016,0.137-0.048l0.841-0.431c0.109-0.055,0.164-0.109,0.164-0.164c0-0.027-0.012-0.062-0.034-0.103
		C92.652,53.787,92.091,52.91,91.472,52.145z M86.714,55.891c-0.506-0.241-0.923-0.412-1.251-0.513
		c-0.064,0.306-0.176,0.618-0.335,0.937c-0.378,0.738-0.9,1.447-1.565,2.126c0.346,0.159,0.64,0.347,0.882,0.561
		c0.15,0.15,0.253,0.226,0.308,0.226c0.059,0,0.157-0.089,0.294-0.267c0.615-0.747,1.091-1.481,1.429-2.201
		c0.104-0.224,0.198-0.366,0.28-0.431c0.104-0.072,0.157-0.148,0.157-0.226C86.912,56.034,86.846,55.964,86.714,55.891z
		 M83.193,50.142c0.241-0.497,0.501-1.109,0.779-1.839c0.104-0.305,0.198-0.49,0.28-0.554c0.104-0.091,0.157-0.175,0.157-0.253
		c0-0.086-0.075-0.157-0.226-0.212c-0.355-0.146-0.809-0.284-1.36-0.417c-0.041,0.342-0.114,0.672-0.219,0.991
		c-0.611,1.8-1.429,3.279-2.454,4.437c0.141,0.242,0.28,0.652,0.417,1.23c0.041,0.16,0.093,0.239,0.157,0.239
		c0.059,0,0.144-0.062,0.253-0.185c0.337-0.4,0.608-0.75,0.813-1.046c-0.009,0.392-0.014,0.962-0.014,1.709v3.22l-0.027,2.126
		c0,0.073,0.004,0.118,0.014,0.137c0.014,0.022,0.055,0.034,0.123,0.034h1.176c0.068,0,0.109-0.007,0.123-0.021
		c0.022-0.019,0.034-0.068,0.034-0.15l-0.027-2.126V50.142z M114.651,57.894l-1.914,0.027h-1.414v-2.755h0.758l1.777,0.027
		c0.068,0,0.111-0.008,0.127-0.023s0.023-0.061,0.023-0.134v-1.087c0-0.068-0.006-0.111-0.02-0.13s-0.058-0.027-0.131-0.027
		l-1.777,0.027h-0.758v-2.434h1.176l1.75,0.027c0.068,0,0.109-0.007,0.123-0.021c0.021-0.014,0.033-0.057,0.033-0.13v-1.08
		c0-0.068-0.006-0.111-0.02-0.13c-0.02-0.018-0.064-0.027-0.137-0.027l-1.75,0.027h-1.176v-1.046c0-0.843,0.033-1.36,0.102-1.552
		c0.046-0.168,0.068-0.262,0.068-0.28c0-0.082-0.074-0.13-0.225-0.144c-0.424-0.05-0.933-0.082-1.525-0.096
		c0.073,0.611,0.109,1.314,0.109,2.112v1.005h-1.285c0.091-0.351,0.173-0.699,0.246-1.046c0.032-0.183,0.089-0.328,0.171-0.438
		c0.055-0.068,0.082-0.132,0.082-0.191c0-0.073-0.08-0.139-0.239-0.198c-0.419-0.146-0.866-0.262-1.34-0.349
		c-0.014,0.351-0.046,0.687-0.096,1.005c-0.128,0.707-0.349,1.463-0.663,2.27c-0.087-0.396-0.269-0.971-0.547-1.723
		c-0.032-0.077-0.073-0.116-0.123-0.116c-0.027,0-0.068,0.012-0.123,0.034l-0.547,0.185c-0.114,0.032-0.171,0.071-0.171,0.116
		c0,0.023,0.009,0.062,0.027,0.116c0.223,0.565,0.392,1.171,0.506,1.818c0.014,0.087,0.043,0.13,0.089,0.13
		c0.027,0,0.082-0.014,0.164-0.041l0.588-0.212c-0.201,0.47-0.419,0.894-0.656,1.271c0.355,0.104,0.69,0.26,1.005,0.465
		c0.141,0.091,0.23,0.137,0.267,0.137c0.063,0,0.148-0.098,0.253-0.294c0.26-0.533,0.483-1.068,0.67-1.606h1.723v2.434h-0.841
		l-1.777-0.027c-0.068,0-0.109,0.007-0.123,0.021c-0.023,0.014-0.034,0.06-0.034,0.137v1.087c0,0.068,0.009,0.112,0.027,0.13
		c0.014,0.019,0.057,0.027,0.13,0.027l1.777-0.027h0.841v2.755h-1.764l-1.921-0.027c-0.068,0-0.111,0.009-0.126,0.024
		c-0.016,0.016-0.024,0.058-0.024,0.126v1.08c0,0.073,0.007,0.118,0.021,0.137c0.014,0.022,0.057,0.034,0.13,0.034l1.921-0.027
		h4.648l1.914,0.027c0.068,0,0.111-0.007,0.131-0.021c0.018-0.019,0.027-0.068,0.027-0.15v-1.08c0-0.063-0.008-0.104-0.021-0.123
		S114.729,57.894,114.651,57.894z M103.188,50.012l-0.656-0.137c-0.091-0.018-0.146-0.027-0.164-0.027
		c-0.041,0-0.062,0.039-0.062,0.116c-0.055,1.121-0.203,2.067-0.444,2.837c-0.014,0.046-0.021,0.08-0.021,0.103
		c0,0.073,0.057,0.132,0.171,0.178l0.704,0.28c0.082,0.027,0.13,0.041,0.144,0.041c0.032,0,0.059-0.034,0.082-0.103
		c0.232-0.725,0.383-1.745,0.451-3.063v-0.055C103.393,50.101,103.325,50.044,103.188,50.012z M105.164,49.007
		c0-0.866,0.034-1.383,0.103-1.552c0.045-0.109,0.068-0.198,0.068-0.267c0-0.091-0.075-0.144-0.226-0.157
		c-0.419-0.05-0.909-0.082-1.47-0.096c0.073,0.511,0.109,1.215,0.109,2.112v8.107l-0.027,2.434c0,0.073,0.007,0.118,0.021,0.137
		c0.014,0.022,0.059,0.034,0.137,0.034h1.155c0.068,0,0.111-0.007,0.13-0.021c0.018-0.019,0.027-0.068,0.027-0.15l-0.027-2.447
		V49.007z M124.063,51.885h1.012l0.404-4.054h-1.764L124.063,51.885z M126.936,51.885h1.005l0.383-4.054h-1.764L126.936,51.885z
		 M147.723,50.08c-0.063-0.063-0.12-0.096-0.171-0.096c-0.031,0-0.063,0.01-0.096,0.027c-0.232,0.123-0.61,0.362-1.135,0.718
		c0.953,0.897,1.719,2.105,2.297,3.623c0.027,0.101,0.087,0.15,0.178,0.15c0.046,0,0.094-0.014,0.144-0.041
		c0.438-0.214,0.788-0.446,1.053-0.697c0.06-0.05,0.089-0.103,0.089-0.157c0-0.031-0.012-0.072-0.034-0.123
		C149.56,52.213,148.784,51.078,147.723,50.08z M144.011,50.627c-0.387,0-0.752,0.021-1.094,0.062
		c0.055-0.178,0.135-0.442,0.239-0.793c0.109-0.383,0.198-0.679,0.267-0.889c0.073-0.21,0.166-0.388,0.28-0.533
		c0.063-0.063,0.096-0.134,0.096-0.212c0-0.141-0.075-0.234-0.226-0.28c-0.433-0.159-0.991-0.312-1.675-0.458
		c0,0.475-0.048,0.991-0.144,1.552c-0.137,0.67-0.275,1.258-0.417,1.764c-0.597,0.091-1.148,0.162-1.654,0.212
		c-0.716,0.064-1.331,0.096-1.846,0.096c0.155,0.615,0.299,1.096,0.431,1.442c0.055,0.146,0.148,0.219,0.28,0.219
		c0.05,0,0.107-0.011,0.171-0.034c0.265-0.1,0.521-0.176,0.772-0.226c0.593-0.109,1.048-0.188,1.367-0.239
		c-0.602,1.741-1.456,3.57-2.563,5.489c-0.036,0.05-0.055,0.103-0.055,0.157c0,0.064,0.037,0.133,0.109,0.205
		c0.215,0.201,0.538,0.406,0.971,0.615c0.06,0.031,0.111,0.048,0.157,0.048c0.087,0,0.155-0.058,0.205-0.171
		c0.962-1.723,1.9-3.917,2.816-6.583c0.474-0.063,0.866-0.096,1.176-0.096c0.287,0,0.49,0.08,0.608,0.239
		c0.128,0.178,0.191,0.533,0.191,1.066c0,1.345-0.182,2.5-0.547,3.466c-0.104,0.269-0.214,0.458-0.328,0.567
		c-0.132,0.119-0.321,0.178-0.567,0.178c-0.483,0-0.995-0.103-1.538-0.308c0.123,0.292,0.21,0.725,0.26,1.299
		c0,0.205,0.084,0.335,0.253,0.39c0.323,0.105,0.786,0.157,1.388,0.157c0.861,0,1.49-0.438,1.887-1.313
		c0.219-0.46,0.396-1.077,0.533-1.853c0.15-0.856,0.226-1.738,0.226-2.646c0-0.788-0.152-1.401-0.458-1.839
		C145.241,50.878,144.718,50.627,144.011,50.627z M163.37,47.182c-0.06,0-0.119,0.029-0.178,0.089
		c-0.196,0.196-0.473,0.561-0.828,1.094c1.012,0.446,1.955,1.053,2.83,1.818c0.064,0.063,0.121,0.096,0.172,0.096
		c0.041,0,0.091-0.036,0.15-0.109c0.269-0.314,0.508-0.643,0.717-0.984c0.046-0.077,0.068-0.132,0.068-0.164
		c0-0.05-0.031-0.103-0.096-0.157c-0.834-0.72-1.75-1.275-2.748-1.668C163.427,47.187,163.397,47.182,163.37,47.182z
		 M167.062,52.363c-0.775,0-1.555,0.18-2.338,0.54c-0.844,0.388-1.625,0.946-2.346,1.675c0.064-0.861,0.178-1.711,0.342-2.55
		c0.055-0.255,0.148-0.501,0.281-0.738c0.045-0.077,0.068-0.147,0.068-0.212c0-0.109-0.076-0.198-0.227-0.267
		c-0.219-0.123-0.703-0.292-1.455-0.506c0,0.21-0.044,0.632-0.131,1.265c-0.214,1.604-0.357,3.11-0.43,4.519
		c0,0.137,0.065,0.23,0.197,0.28c0.242,0.119,0.559,0.244,0.951,0.376c0.068,0.019,0.118,0.027,0.15,0.027
		c0.063,0,0.12-0.041,0.17-0.123c0.169-0.278,0.369-0.535,0.602-0.772c0.615-0.619,1.254-1.114,1.914-1.483
		c0.762-0.429,1.468-0.643,2.119-0.643c0.529,0,0.941,0.128,1.238,0.383c0.296,0.26,0.443,0.613,0.443,1.06
		c0,0.935-0.551,1.639-1.654,2.112c-0.938,0.424-2.221,0.687-3.848,0.786c0.337,0.26,0.653,0.656,0.949,1.189
		c0.082,0.133,0.196,0.198,0.342,0.198c0.051,0,0.123-0.007,0.219-0.021c1.5-0.191,2.696-0.513,3.59-0.964
		c1.408-0.706,2.111-1.752,2.111-3.138c0-0.848-0.252-1.535-0.758-2.064C168.976,52.674,168.142,52.363,167.062,52.363z
		 M189.937,56.062c0.017-0.019,0.024-0.063,0.024-0.137l-0.014-1.853V50.21c0-0.866,0.014-1.364,0.041-1.497
		c0.055-0.195,0.082-0.299,0.082-0.308c0-0.091-0.062-0.144-0.185-0.157c-0.451-0.05-0.928-0.082-1.429-0.096
		c0.068,0.438,0.103,1.128,0.103,2.071v3.849l-0.027,1.853c0,0.068,0.004,0.114,0.014,0.137c0.014,0.019,0.055,0.027,0.123,0.027
		h1.148C189.882,56.089,189.921,56.08,189.937,56.062z M192.559,47.229c-0.442-0.05-0.938-0.084-1.49-0.103
		c0.077,0.502,0.116,1.169,0.116,2.003v8.401c0,0.205-0.041,0.349-0.123,0.431c-0.086,0.087-0.253,0.13-0.499,0.13
		c-0.538,0-1.042-0.022-1.511-0.068c0.191,0.256,0.342,0.608,0.451,1.06c0.045,0.21,0.086,0.335,0.123,0.376
		c0.045,0.051,0.178,0.075,0.396,0.075c0.592,0,1.037-0.022,1.333-0.068c0.301-0.046,0.561-0.14,0.779-0.28
		c0.183-0.127,0.312-0.291,0.39-0.492c0.078-0.2,0.116-0.494,0.116-0.882l-0.027-2.782v-5.927c0-0.829,0.027-1.301,0.082-1.415
		c0.05-0.164,0.075-0.267,0.075-0.308C192.771,47.293,192.7,47.243,192.559,47.229z M185.21,47.469c0.1-0.055,0.15-0.116,0.15-0.185
		c0-0.091-0.062-0.15-0.185-0.178c-0.429-0.096-0.858-0.175-1.292-0.239c-0.082,0.224-0.219,0.465-0.41,0.725
		c-0.789,1.094-1.88,1.962-3.274,2.604c0.21,0.255,0.383,0.55,0.52,0.882c0.101,0.215,0.181,0.321,0.239,0.321
		c0.041,0,0.148-0.046,0.321-0.137c0.569-0.319,1.162-0.749,1.777-1.292v0.588c0,0.068,0.007,0.111,0.021,0.13
		c0.018,0.019,0.068,0.027,0.15,0.027l0.95-0.027h0.813l0.95,0.027c0.063,0,0.104-0.007,0.123-0.021s0.027-0.059,0.027-0.137v-0.67
		c0.369,0.283,0.761,0.535,1.176,0.759c0.155,0.082,0.26,0.123,0.314,0.123c0.06,0,0.128-0.111,0.205-0.335
		c0.118-0.337,0.273-0.636,0.465-0.896c-0.651-0.282-1.169-0.547-1.552-0.793C186.177,48.419,185.679,47.993,185.21,47.469z
		 M184.991,49.649h-0.813c-0.41,0-0.663-0.005-0.759-0.014c0.365-0.351,0.734-0.774,1.107-1.271c0.4,0.497,0.816,0.921,1.244,1.271
		C185.688,49.645,185.429,49.649,184.991,49.649z M187.671,56.103c0-0.068-0.007-0.111-0.021-0.13
		c-0.019-0.018-0.063-0.027-0.137-0.027l-1.477,0.027h-1.695l-1.463-0.027c-0.063,0-0.104,0.007-0.123,0.021
		s-0.027,0.06-0.027,0.137l0.021,1.032v0.8l-0.021,1.654c0,0.068,0.005,0.112,0.014,0.13c0.019,0.018,0.062,0.027,0.13,0.027h1.012
		c0.064,0,0.105-0.007,0.123-0.021s0.027-0.06,0.027-0.137v-0.417h2.27v0.321c0,0.096,0.053,0.144,0.157,0.144h1.046
		c0.109,0,0.164-0.048,0.164-0.144l-0.034-1.641v-0.882L187.671,56.103z M186.304,58.146h-2.27v-1.148h2.27V58.146z M185.641,55.234
		l1.593,0.027c0.068,0,0.109-0.007,0.123-0.021c0.023-0.014,0.034-0.057,0.034-0.13l-0.027-1.121v-1.511l0.027-1.142
		c0-0.063-0.007-0.104-0.021-0.123c-0.018-0.018-0.064-0.027-0.137-0.027l-1.593,0.027h-2.27l-1.613-0.027
		c-0.091,0-0.137,0.051-0.137,0.15l0.014,1.579c0,1.148-0.103,2.104-0.308,2.864c-0.215,0.853-0.592,1.659-1.135,2.42
		c0.277,0.183,0.549,0.439,0.813,0.772c0.142,0.169,0.235,0.253,0.28,0.253c0.059,0,0.139-0.084,0.239-0.253
		c0.46-0.788,0.782-1.526,0.964-2.215c0.109-0.41,0.212-0.918,0.308-1.524H185.641z M182.968,52.192h3.09v0.554h-3.09V52.192z
		 M182.947,53.683h3.11v0.561h-3.151L182.947,53.683z M212.327,53.218c-0.651-0.697-1.526-1.046-2.625-1.046
		c-0.747,0-1.49,0.21-2.229,0.629l-0.014-0.041c0.374-0.359,0.851-0.829,1.43-1.408c0.774-0.779,1.305-1.311,1.592-1.593
		c0.251-0.219,0.456-0.366,0.615-0.444c0.16-0.072,0.24-0.185,0.24-0.335c0-0.109-0.053-0.224-0.158-0.342
		c-0.25-0.31-0.563-0.608-0.936-0.896c-0.105-0.072-0.213-0.109-0.322-0.109c-0.05,0-0.139,0.037-0.266,0.109
		c-0.123,0.064-0.379,0.135-0.766,0.212c-1.158,0.224-2.218,0.383-3.18,0.479c-0.178,0.014-0.357,0.021-0.539,0.021
		c-0.27,0-0.522-0.016-0.76-0.048c0.178,0.72,0.34,1.224,0.486,1.511c0.068,0.16,0.17,0.239,0.307,0.239
		c0.073,0,0.167-0.022,0.281-0.068c0.15-0.06,0.346-0.116,0.588-0.171c0.93-0.195,1.832-0.373,2.707-0.533
		c-0.497,0.615-1.222,1.415-2.174,2.399c-1.167,1.217-2.272,2.247-3.316,3.09c-0.077,0.077-0.115,0.146-0.115,0.205
		c0,0.041,0.016,0.08,0.047,0.116c0.292,0.388,0.565,0.693,0.82,0.916c0.087,0.082,0.158,0.123,0.213,0.123s0.134-0.053,0.238-0.157
		c0.634-0.629,1.039-1.025,1.217-1.189c1.162-0.989,2.356-1.483,3.582-1.483c0.611,0,1.115,0.169,1.512,0.506
		c0.46,0.393,0.689,0.928,0.689,1.606c0,0.492-0.1,0.902-0.301,1.23c-0.223,0.36-0.599,0.661-1.127,0.902
		c-0.16-0.62-0.449-1.104-0.869-1.456c-0.465-0.392-1.053-0.588-1.764-0.588c-0.506,0-0.947,0.148-1.326,0.444
		c-0.433,0.337-0.648,0.759-0.648,1.265c0,0.606,0.219,1.087,0.656,1.442c0.501,0.41,1.226,0.615,2.174,0.615
		c1.395,0,2.524-0.304,3.391-0.909c0.998-0.697,1.496-1.672,1.496-2.926C213.175,54.602,212.893,53.828,212.327,53.218z
		 M208.034,58.051c-0.811,0-1.217-0.241-1.217-0.725c0-0.141,0.055-0.26,0.164-0.355c0.128-0.118,0.297-0.178,0.506-0.178
		c0.606,0,1.003,0.401,1.189,1.203C208.49,58.033,208.276,58.051,208.034,58.051z"/>
</g>
<g id="Logo">
	<g>
		<path fill="#FFFFFF" d="M17.803,49.859c-0.151,0.146-0.302,0.285-0.458,0.422l-0.11,0.097l-0.099-0.107
			c-0.053-0.057-0.1-0.104-0.154-0.15l-0.126-0.109c0,0,0.423-0.393,0.57-0.532c-4.036-4.1-6.082-9.271-6.082-15.369
			c0-4.882,0.682-8.99,1.971-11.88c1.178-2.625,2.785-4.071,4.525-4.071c3.145,0,6.529,4.992,6.529,15.952
			c0,6.09-2.08,11.262-6.183,15.375c0.158,0.157,0.317,0.309,0.479,0.457l0.115,0.105l-0.11,0.111
			c-0.092,0.085-0.124,0.112-0.15,0.146l-0.1,0.122C18.419,50.426,17.967,50.014,17.803,49.859z M17.84,18.686
			c-1.521,0-2.956,1.337-4.041,3.765c-1.255,2.815-1.918,6.847-1.918,11.659c0,5.95,1.993,10.997,5.924,15.003
			c4-4.018,6.028-9.064,6.028-15.003c0-4.8-0.667-8.829-1.929-11.653C20.808,20.025,19.365,18.686,17.84,18.686L17.84,18.686z"/>
	</g>
	<g>
		<path fill="#FFFFFF" d="M34.959,57.864l-0.073-0.011c-1.419-0.222-6.433-1.155-11.379-3.847c-1.277-0.689-2.488-1.475-3.599-2.335
			l-0.134-0.104l0.12-0.12c0.075-0.075,0.112-0.111,0.148-0.157l0.092-0.116l0.118,0.09c1.061,0.813,2.239,1.576,3.502,2.267
			c4.51,2.46,9.068,3.457,11.384,3.832l0.299,0.049L34.959,57.864L34.959,57.864z"/>
	</g>
	<g>
		<path fill="#FFFFFF" d="M0.65,57.855L0.194,57.38l0.282-0.046c1.845-0.3,6.646-1.273,11.375-3.84
			c1.348-0.74,2.526-1.501,3.6-2.325l0.116-0.089l0.092,0.113c0.048,0.06,0.092,0.108,0.143,0.157l0.127,0.121l-0.14,0.106
			c-1.185,0.904-2.428,1.707-3.694,2.385c-4.74,2.579-9.528,3.572-11.366,3.88L0.65,57.855L0.65,57.855z"/>
	</g>
	<g>
		<path fill="#FFFFFF" d="M19.084,52.369l-0.252-0.213c-0.129-0.109-0.258-0.218-0.386-0.32l-0.134-0.108l0.403-0.391l0.105,0.098
			c0.17,0.159,0.345,0.303,0.52,0.435l0.138,0.104L19.084,52.369L19.084,52.369z"/>
	</g>
	<g>
		<path fill="#FFFFFF" d="M16.638,52.324l-0.168-0.174c-0.03-0.033-0.06-0.065-0.093-0.096l-0.129-0.12l0.138-0.108
			c0.171-0.134,0.338-0.266,0.502-0.41l0.104-0.092l0.39,0.363L16.638,52.324L16.638,52.324z"/>
	</g>
	<g>
		<path fill="#FFFFFF" d="M18.271,51.666c-0.111-0.093-0.223-0.193-0.335-0.294l-0.097-0.087c-0.091,0.08-0.518,0.464-0.518,0.464
			s-0.238-0.254-0.27-0.292l-0.097-0.115l0.117-0.097c0.124-0.102,0.253-0.213,0.379-0.331c-0.155-0.147-0.308-0.305-0.46-0.461
			c-0.07-0.063-0.124-0.122-0.179-0.184c-4.149-4.316-6.249-9.704-6.249-16.024c0-5.226,0.769-9.617,2.225-12.699
			c1.328-2.8,3.133-4.342,5.084-4.342c3.534,0,7.337,5.333,7.337,17.041c0,6.33-2.141,11.733-6.362,16.06
			c-0.053,0.059-0.112,0.119-0.17,0.175l-0.449,0.435c0.072,0.068,0.531,0.485,0.531,0.485l-0.286,0.259l-0.097,0.095L18.271,51.666
			z M17.871,17.739c-1.741,0-3.375,1.433-4.602,4.034c-1.421,3.013-2.173,7.326-2.173,12.472c0,6.174,2.05,11.442,6.093,15.658
			c0.052,0.044,0.106,0.098,0.167,0.161c0.159,0.167,0.322,0.327,0.486,0.488c0.151-0.146,0.303-0.297,0.453-0.449
			c0.029-0.036,0.072-0.075,0.114-0.112c4.175-4.271,6.269-9.555,6.269-15.746C24.677,22.904,21.148,17.739,17.871,17.739
			L17.871,17.739z"/>
	</g>
	<g>
		<path fill="#FFFFFF" d="M33.712,59.116l-0.08-0.019c-2.448-0.564-6.132-1.646-9.783-3.597c-1.764-0.941-3.296-1.948-4.684-3.078
			l-0.144-0.117l0.144-0.116c0.056-0.045,0.103-0.092,0.158-0.147l0.096-0.097l0.105,0.086c1.363,1.104,2.902,2.117,4.575,3.009
			c3.644,1.938,7.335,3.016,9.791,3.578l0.268,0.062L33.712,59.116L33.712,59.116z"/>
	</g>
	<g>
		<path fill="#FFFFFF" d="M1.913,59.116l-0.439-0.449l0.261-0.06c2.451-0.561,6.154-1.644,9.878-3.614
			c1.656-0.88,3.2-1.895,4.589-3.016l0.107-0.086l0.095,0.1c0.071,0.076,0.107,0.115,0.148,0.146l0.157,0.115l-0.151,0.122
			c-1.401,1.136-2.94,2.145-4.705,3.087c-3.699,1.967-7.403,3.063-9.858,3.637L1.913,59.116L1.913,59.116z"/>
	</g>
	<g>
		<path fill="#FFFFFF" d="M2.985,60.183L2.55,59.745l0.247-0.068c3.105-0.859,5.966-1.972,8.504-3.304
			c2.089-1.098,3.971-2.341,5.594-3.696l0.095-0.079l0.096,0.077c0.066,0.054,0.124,0.101,0.184,0.16l0.12,0.115l-0.128,0.107
			c-1.692,1.418-3.615,2.691-5.715,3.783c-2.504,1.318-5.356,2.435-8.477,3.318L2.985,60.183L2.985,60.183z"/>
	</g>
	<g>
		<path fill="#FFFFFF" d="M32.644,60.197l-0.086-0.024c-3.047-0.858-5.863-1.964-8.37-3.285c-2.121-1.107-4.043-2.385-5.714-3.797
			l-0.126-0.105l0.118-0.116c0.093-0.089,0.131-0.125,0.165-0.162l0.097-0.107l0.11,0.094c1.631,1.38,3.462,2.601,5.597,3.731
			c2.534,1.322,5.357,2.421,8.391,3.265l0.243,0.067L32.644,60.197L32.644,60.197z"/>
	</g>
	<g>
		<path fill="#FFFFFF" d="M18.297,52.929l0.097-0.114l-0.125,0.091c-0.138-0.116-0.275-0.232-0.411-0.355l-0.516,0.446l-0.402-0.372
			c0,0,0.43-0.355,0.519-0.433c-0.095-0.089-0.188-0.183-0.282-0.276l-0.125-0.125l-0.171-0.154c0,0-0.399-0.409-0.505-0.521
			l-0.498,0.398l-0.095-0.086c-0.057-0.051-0.117-0.118-0.178-0.201l-0.086-0.116c0,0,0.417-0.328,0.49-0.387
			c-4.133-4.507-6.229-10.069-6.229-16.536c0-5.589,0.857-10.286,2.478-13.584c1.477-2.981,3.48-4.623,5.644-4.623
			c3.926,0,8.151,5.697,8.151,18.207c0,6.491-2.151,12.08-6.394,16.612l0.525,0.413l-0.094,0.117
			c-0.057,0.07-0.119,0.138-0.177,0.188l-0.092,0.081l-0.098-0.073c-0.146-0.11-0.291-0.221-0.437-0.341
			c-0.106,0.11-0.545,0.544-0.545,0.544l-0.487,0.463l0.538,0.477l-0.134,0.11c-0.068,0.057-0.116,0.095-0.157,0.139l-0.098,0.104
			L18.297,52.929z M16.826,50.81c0.145,0.151,0.294,0.307,0.442,0.442l0.176,0.187c0.132,0.126,0.275,0.258,0.419,0.392
			c0.133-0.124,0.266-0.253,0.399-0.386c0.037-0.036,0.074-0.068,0.111-0.1c0.198-0.189,0.356-0.352,0.504-0.508
			c-0.113-0.094-0.224-0.193-0.335-0.292l-0.12-0.106l0.045-0.175c0.052-0.051,0.106-0.104,0.157-0.163l0.102-0.117l0.114,0.106
			c0.133,0.125,0.264,0.236,0.395,0.348l0.014,0.012c4.162-4.436,6.272-9.906,6.272-16.263c0-12.146-3.949-17.678-7.618-17.678
			c-1.959,0-3.792,1.54-5.163,4.336c-1.591,3.219-2.433,7.833-2.433,13.342c0,6.334,2.056,11.785,6.11,16.203
			c0.132-0.112,0.259-0.227,0.391-0.346l0.112-0.103l0.11,0.123c0.048,0.054,0.093,0.105,0.144,0.149l0.132,0.114l-0.519,0.443
			L16.826,50.81z"/>
	</g>
	<g>
		<path fill="#FFFFFF" d="M31.58,61.138c-2.493-0.791-4.865-1.763-7.05-2.888c-2.475-1.278-4.713-2.775-6.652-4.449
			c-1.915,1.634-4.147,3.113-6.638,4.397c-2.222,1.145-4.642,2.131-7.19,2.932L3.96,61.157l-0.413-0.431l0.231-0.072
			c2.535-0.79,4.964-1.774,7.219-2.926c2.396-1.231,4.574-2.675,6.475-4.293c-0.107-0.096-0.411-0.386-0.411-0.386
			c-0.051-0.048-0.099-0.088-0.153-0.133c-0.202-0.193-0.377-0.374-0.552-0.555c-0.038-0.025-0.088-0.077-0.143-0.135
			c-0.218-0.216-0.41-0.427-0.597-0.634c-0.084-0.084-0.136-0.141-0.193-0.211c-4.262-4.732-6.426-10.53-6.426-17.228
			c0-5.929,0.945-10.912,2.732-14.41c1.625-3.16,3.826-4.9,6.198-4.9c4.319,0,8.968,6.042,8.968,19.31
			c0,6.74-2.23,12.571-6.627,17.33c-0.036,0.047-0.081,0.092-0.13,0.141c-0.146,0.162-0.27,0.287-0.394,0.412l-0.208,0.213
			c-0.066,0.066-0.12,0.119-0.184,0.173c-0.157,0.166-0.334,0.338-0.514,0.496c-0.027,0.031-0.07,0.072-0.112,0.113
			c0,0-0.379,0.347-0.445,0.405c1.908,1.646,4.09,3.106,6.488,4.345c2.191,1.129,4.574,2.099,7.083,2.88l0.235,0.073l-0.422,0.43
			L31.58,61.138z M17.93,15.381c-2.172,0-4.206,1.637-5.727,4.61c-1.752,3.43-2.678,8.328-2.678,14.164
			c0,6.581,2.124,12.261,6.313,16.881c0.057,0.076,0.103,0.13,0.146,0.167c0.207,0.233,0.401,0.435,0.602,0.636
			c0.034,0.031,0.068,0.068,0.104,0.106c0.236,0.24,0.408,0.411,0.583,0.573c0,0,0.464,0.433,0.609,0.568l0.409-0.381
			c0.043-0.047,0.1-0.094,0.151-0.136l0.532-0.51l0.17-0.177c0.186-0.181,0.378-0.374,0.562-0.579
			c0.061-0.053,0.108-0.106,0.152-0.162c4.318-4.661,6.504-10.373,6.504-16.987C26.361,21.256,21.99,15.381,17.93,15.381
			L17.93,15.381z"/>
	</g>
</g>
</svg>
