<?xml version="1.0" encoding="utf-8"?>
<!-- Generator: Adobe Illustrator 14.0.0, SVG Export Plug-In . SVG Version: 6.00 Build 43363)  -->
<!DOCTYPE svg PUBLIC "-//W3C//DTD SVG 1.1//EN" "http://www.w3.org/Graphics/SVG/1.1/DTD/svg11.dtd">
<svg version="1.1" id="レイヤー_1" xmlns="http://www.w3.org/2000/svg" xmlns:xlink="http://www.w3.org/1999/xlink" x="0px"
	 y="0px" width="477.875px" height="118.16px" viewBox="261.563 220.401 477.875 118.16"
	 enable-background="new 261.563 220.401 477.875 118.16" xml:space="preserve">
<title>white/logo</title>
<desc>Created with Sketch.</desc>
<g id="white_x2F_logo">
	<path id="Shape" fill="#FFFFFF" d="M539.182,251.652c21.707,0,38.091,15.878,38.091,36.823c0,20.946-16.384,36.825-38.091,36.825
		c-21.706,0-38.09-15.879-38.09-36.825C501.092,267.53,517.476,251.652,539.182,251.652z M705.229,251.99
		c23.479,0,34.208,18.243,34.208,38.176c0,1.309,0,2.576-0.13,3.885c-0.078,0.792-0.455,1.286-1.197,1.345l-0.153,0.006h-47.761
		c1.942,8.657,7.602,13.852,17.23,13.852c5.825,0,10.598-1.478,16.3-6.334c0.553-0.473,1.142-0.541,1.73-0.102l0.127,0.102
		l9.291,8.361c0.634,0.549,0.761,1.268,0.171,1.942c-6.97,7.98-16.051,12.078-27.874,12.078c-21.283,0-36.737-14.95-36.737-36.739
		C670.435,268.544,684.705,251.99,705.229,251.99z M627.358,235.266c0.845,0,1.351,0.507,1.351,1.351v16.724h15.202
		c0.845,0,1.351,0.507,1.351,1.353v14.189c0,0.844-0.506,1.351-1.351,1.351h-15.202v30.657c0,4.646,2.07,6.843,6.165,6.843
		c3.041,0,5.532-0.254,8.531-1.773c0.929-0.465,1.604-0.169,1.604,0.761v13.259c0,0.676-0.254,1.268-0.93,1.688
		c-3.674,2.282-8.53,3.633-14.864,3.633c-10.938,0-18.749-3.929-20.229-16.428c-0.159-1.346-0.203-3.138-0.208-5.479l-0.001-33.161
		h-7.097c-0.844,0-1.351-0.507-1.351-1.351v-14.189c0-0.846,0.507-1.353,1.351-1.353h7.097v-16.724c0-0.844,0.507-1.351,1.351-1.351
		H627.358z M451.599,251.652c12.71,0,20.902,7.137,23.185,19.087c0.421,2.197,0.632,4.814,0.632,8.151v43.369
		c0,0.845-0.507,1.353-1.351,1.353h-17.23c-0.844,0-1.351-0.508-1.351-1.353v-38.175c0-9.375-4.479-14.358-12.077-14.358
		c-7.604,0-12.418,4.897-12.418,14.358v38.175c0,0.845-0.504,1.353-1.351,1.353h-17.229c-0.844,0-1.353-0.508-1.353-1.353v-67.566
		c0-0.846,0.508-1.353,1.353-1.353h17.229c0.847,0,1.351,0.507,1.351,1.353v8.022C437.618,253.847,445.347,251.652,451.599,251.652z
		 M539.182,268.88c-11.316,0-18.411,9.122-18.411,19.595s7.095,19.596,18.411,19.596c11.319,0,18.412-9.123,18.412-19.596
		S550.501,268.88,539.182,268.88z M705.229,267.952c-7.941,0-13.099,5.403-15.353,14.6l-0.104,0.434h30.279
		C718.658,274.202,713.846,267.952,705.229,267.952z"/>
	<path id="Shape_1_" fill="#FFFFFF" d="M306.496,272.428h-13.937c-1.646,0-2.195-0.086-3.041-0.338
		c-2.278-0.675-4.054-2.955-4.054-5.658s1.776-4.983,4.054-5.658c0.846-0.255,1.395-0.338,3.041-0.338h9.037v-9.037
		c0-1.648,0.085-2.197,0.34-3.041c0.675-2.323,2.956-4.056,5.656-4.056c2.703,0,4.985,1.773,5.661,4.056
		c0.252,0.844,0.338,1.393,0.338,3.041v13.935c0,0.844,0,1.69-0.169,2.449c-0.465,2.113-2.366,4.012-4.477,4.477
		C308.186,272.428,307.34,272.428,306.496,272.428L306.496,272.428z M351.259,323.611h-74.747v-65.837
		c0-0.844,0.296-1.561,0.886-2.152l19.385-19.385c0.59-0.59,1.309-0.886,2.153-0.886h52.323V323.611z M265.196,246.711
		c-1.986,1.984-3.293,4.477-3.549,7.264c-0.042,0.465-0.083,1.14-0.083,1.815v74.45c0,0.971,0.042,1.478,0.083,1.859
		c0.34,3.165,3.209,6.037,6.377,6.375c0.381,0.042,0.888,0.086,1.859,0.086h88.006c0.971,0,1.478-0.044,1.859-0.086
		c3.166-0.338,6.038-3.21,6.376-6.375c0.043-0.382,0.083-0.889,0.083-1.859v-101.52c0-0.972-0.04-1.478-0.083-1.859
		c-0.338-3.166-3.21-6.038-6.376-6.375c-0.381-0.042-0.888-0.086-1.859-0.086h-60.937c-0.675,0-1.353,0.044-1.815,0.086
		c-2.789,0.252-5.279,1.561-7.266,3.547L265.196,246.711z"/>
</g>
</svg>
