<?xml version="1.0" encoding="utf-8"?>
<!-- Generator: Adobe Illustrator 14.0.0, SVG Export Plug-In . SVG Version: 6.00 Build 43363)  -->
<!DOCTYPE svg PUBLIC "-//W3C//DTD SVG 1.1 Basic//EN" "http://www.w3.org/Graphics/SVG/1.1/DTD/svg11-basic.dtd">
<svg version="1.1" baseProfile="basic" id="レイヤー_1"
	 xmlns="http://www.w3.org/2000/svg" xmlns:xlink="http://www.w3.org/1999/xlink" x="0px" y="0px" width="480px" height="320px"
	 viewBox="0 0 480 320" xml:space="preserve">
<path fill="#F6F1DF" d="M0,0h480v320H0V0z"/>
<g id="成功循環モデル">
	<path fill="#0D4482" d="M193.272,155.647c-0.038,0.371-0.097,0.642-0.176,0.81c-0.079,0.166-0.215,0.25-0.409,0.25
		c-0.492,0-1.248-0.818-2.268-2.453l0.114-0.148c1.184-1.553,2.197-3.335,3.041-5.345l-1.336-0.492
		c-0.574,1.67-1.383,3.247-2.426,4.729c-0.797-1.939-1.266-4.105-1.406-6.496h5.818v-1.1h-5.827v-3.031h-1.433v3.031h-7.471v4.605
		c0,1.589-0.145,3.007-0.435,4.255s-0.787,2.363-1.49,3.348l0.896,0.679c0.709-0.914,1.27-1.979,1.683-3.191s0.64-2.75,0.681-4.614
		h3.674l0.009,0.712c0,1.718-0.105,2.904-0.316,3.562c-0.211,0.657-0.621,0.984-1.23,0.984h-1.652l0.185,1.178h1.907
		c0.404,0,0.768-0.092,1.09-0.277c0.322-0.184,0.565-0.406,0.729-0.664s0.312-0.785,0.444-1.582s0.204-1.692,0.215-2.688v-2.269
		h-5.01v-2.936h6.161c0.211,3.11,0.826,5.66,1.846,7.646c-1.102,1.254-2.259,2.313-3.472,3.174l0.729,0.88
		c1.318-0.933,2.449-1.902,3.393-2.91c0.592,0.961,1.188,1.692,1.789,2.192c0.601,0.502,1.144,0.752,1.63,0.752h0.114
		c0.492-0.034,0.847-0.239,1.063-0.614s0.357-1.57,0.422-3.586l-1.151-0.187C193.353,154.675,193.31,155.274,193.272,155.647z
		 M192.828,144.277c-0.727-0.662-1.444-1.229-2.153-1.705l-0.861,0.791c1.213,0.984,1.91,1.57,2.092,1.759L192.828,144.277z
		 M212.129,145.895h-4.843v-3.523h-1.45v3.523h-2.681v1.116h2.672c-0.111,4.652-1.84,8.148-5.186,10.486l0.809,0.914
		c3.709-2.521,5.651-6.32,5.827-11.4h3.463v2.813c-0.018,1.594-0.081,2.897-0.189,3.911c-0.108,1.015-0.237,1.707-0.387,2.078
		c-0.149,0.373-0.346,0.644-0.589,0.81c-0.243,0.168-0.541,0.25-0.892,0.25h-2.136l0.22,1.248h2.294c0.527,0,0.99-0.117,1.389-0.355
		c0.398-0.236,0.694-0.524,0.888-0.865c0.194-0.34,0.371-1.106,0.532-2.303s0.25-2.713,0.268-4.554l-0.009-3.305V145.895
		L212.129,145.895z M203.208,153.031c-0.727,0.199-1.705,0.429-2.936,0.687V144.4h2.566v-1.115h-6.592v1.115h2.628v9.6
		c-1.324,0.252-2.347,0.428-3.067,0.526l0.299,1.222c4.008-0.773,6.413-1.33,7.216-1.67L203.208,153.031z M216.963,145.253
		c0.773-0.896,1.362-1.711,1.767-2.443l-1.283-0.387c-0.85,1.522-1.986,2.889-3.41,4.096l0.765,0.773
		C215.469,146.829,216.189,146.149,216.963,145.253z M219.134,146.791l-1.301-0.388c-0.264,0.65-0.81,1.616-1.639,2.896
		c-0.829,1.28-1.704,2.403-2.624,3.37l0.853,0.772c0.434-0.409,1.02-1.086,1.758-2.028v7.004h1.362v-8.411h-0.316
		C218.047,148.836,218.683,147.764,219.134,146.791z M226.596,144.005l0.149-0.019c1.412-0.146,2.549-0.313,3.41-0.501l-0.589-1.046
		c-0.938,0.211-2.423,0.416-4.456,0.615c-2.033,0.199-3.797,0.319-5.291,0.36v6.425c0,1.195-0.048,2.195-0.145,2.998
		c-0.097,0.803-0.253,1.619-0.47,2.451c-0.217,0.832-0.501,1.58-0.853,2.241l1.046,0.535c1.16-2.092,1.74-4.951,1.74-8.578v-2.653
		h4.113v1.651h-2.9v9.802h1.336l0.009-0.572h4.913v0.572h1.327v-9.802h-3.34v-1.651h4.184v-1.056h-4.184L226.596,144.005
		L226.596,144.005z M221.138,145.78v-1.405c1.406-0.06,2.777-0.142,4.113-0.246v1.651H221.138L221.138,145.78z M228.608,156.653
		h-4.913v-1.891h4.913V156.653z M228.608,153.771h-4.913v-1.74h4.913V153.771z M228.608,149.472v1.617h-4.913l-0.009-1.617H228.608z
		 M248.454,147.547h-10.811v0.967h10.811V147.547z M247.716,142.88h-9.58v3.472h9.58V142.88z M240.982,145.508h-1.713v-1.731h1.713
		V145.508z M243.664,145.508h-1.635v-1.731h1.635V145.508z M246.564,145.508h-1.838v-1.731h1.838V145.508z M248.691,154.156
		l-0.844-0.825c-0.539,0.45-1.438,1.01-2.699,1.678c-0.703-0.516-1.326-1.062-1.871-1.635v-0.193h3.98v-3.524h-8.868v3.524h3.357
		c-0.779,0.721-1.813,1.453-3.103,2.193c-1.289,0.742-2.443,1.28-3.463,1.621l0.457,0.905c2.355-0.809,4.453-1.975,6.293-3.498
		v3.955h1.344v-3.561c1.459,1.459,3.111,2.555,4.957,3.287l0.773-0.992c-1.037-0.398-2.02-0.889-2.943-1.469
		C246.768,155.272,247.643,154.784,248.691,154.156z M239.604,152.276v-1.724h6.442v1.724H239.604z M237.362,152.522
		c-0.469,0.135-1.172,0.318-2.109,0.554v-4.192h1.503v-1.028h-1.503v-3.762h1.802v-1.028h-4.975v1.028h1.89v3.762h-1.802v1.028
		h1.802v4.509c-0.791,0.183-1.521,0.338-2.188,0.467l0.202,1.179c2.479-0.558,4.304-1.066,5.476-1.529L237.362,152.522z
		 M257.331,145.297h7.884v-1.204H251.1v1.204h4.772v4.412h-5.36v1.222h5.291v3.297c0,0.756,0.059,1.31,0.176,1.656
		c0.117,0.35,0.315,0.643,0.598,0.883c0.281,0.24,0.64,0.422,1.076,0.541c0.437,0.121,0.953,0.18,1.552,0.18h6.284v-1.301h-6.215
		c-0.69,0-1.196-0.11-1.517-0.338c-0.319-0.225-0.479-0.719-0.479-1.479v-3.438h9.123v-1.222h-9.069V145.297z M282.802,144.559
		c-0.368-0.82-0.813-1.635-1.336-2.442l-0.948,0.431c0.428,0.686,0.853,1.506,1.273,2.461L282.802,144.559z M280.895,143.987h-11.75
		v1.223h11.75V143.987z M268.115,150.017h7.884v0.914c0,1.723-0.539,3.037-1.617,3.943c-1.077,0.903-2.536,1.553-4.377,1.944
		l0.466,1.24c1.641-0.34,2.989-0.832,4.047-1.477c1.06-0.646,1.83-1.429,2.316-2.353c0.486-0.922,0.729-2.131,0.729-3.626v-0.589
		h6.732v-1.283h-16.182v1.285H268.115z M282.941,142.001c0.457,0.721,0.879,1.532,1.267,2.435l1.002-0.413
		c-0.444-0.938-0.894-1.755-1.345-2.452L282.941,142.001z M302.313,150.412c-0.891,1.57-1.901,2.808-3.035,3.71
		c-1.135,0.901-2.186,1.496-3.151,1.782v-12.409h-1.478v13.686l0.643,0.598c1.529-0.422,3.077-1.227,4.645-2.411
		c1.567-1.188,2.728-2.58,3.478-4.181L302.313,150.412z M289.411,147.767c0,2.08-0.167,3.625-0.501,4.633
		c-0.334,1.009-0.813,1.881-1.434,2.619s-1.297,1.332-2.029,1.783l0.65,1.117c0.762-0.398,1.473-0.943,2.135-1.635
		c0.662-0.692,1.211-1.455,1.648-2.289c0.436-0.836,0.717-1.688,0.839-2.56c0.123-0.87,0.185-1.997,0.185-3.38v-3.999h-1.493
		V147.767L289.411,147.767z"/>
</g>
<path fill="#0D4482" d="M332.982,129.936h115v40h-115V129.936z"/>
<path fill="#C8DFF0" d="M183,28.995h115v40H183V28.995z"/>
<path fill="#C8DFF0" d="M183,230.994h115v40H183V230.994z"/>
<path fill="#C8DFF0" d="M33,129.995h115v40H33V129.995z"/>
<g id="関係性の質">
	<path fill="#FFFFFF" d="M357.557,143.174h-6.272v13.922h2.063v-9.055h4.211v-4.867H357.557z M353.346,145.206v-0.828h2.289v0.828
		H353.346z M353.346,146.94v-0.819h2.289v0.819H353.346z M361.174,156.471l0.492-0.742l0.148,1.228h1.633
		c0.479,0,0.89-0.138,1.23-0.41c0.34-0.273,0.512-0.613,0.512-1.021v-12.352h-6.398v4.867h4.352v6.688
		c0,0.125-0.052,0.23-0.156,0.316c-0.104,0.086-0.219,0.129-0.344,0.129h-0.602l0.125-0.188c-1.1-0.442-1.909-0.991-2.43-1.647h2.75
		v-1.422h-3.445l-0.008-0.836h3.195v-1.375h-1.556l0.673-1.023l-1.759-0.414l-0.728,1.438h-1.305l-0.641-1.422l-1.695,0.413
		l0.5,1.009h-1.492v1.375h3l-0.008,0.836h-3.281v1.422h2.773c-0.578,0.854-1.539,1.436-2.883,1.742l0.586,1.453
		c1.809-0.359,3.078-1.144,3.813-2.353C358.958,155.235,359.939,155.997,361.174,156.471L361.174,156.471z M360.736,144.377h2.406
		v0.828h-2.406V144.377z M363.143,146.94h-2.406v-0.819h2.406V146.94z"/>
	<path fill="#FFFFFF" d="M377.572,151.737c0.922-0.063,1.666-0.123,2.234-0.18c0.213,0.396,0.385,0.722,0.516,0.978l1.797-0.703
		c-0.526-1.13-1.247-2.317-2.164-3.563l-1.664,0.617c0.261,0.433,0.484,0.815,0.672,1.148c-0.719,0.047-1.536,0.088-2.453,0.125
		c1.803-1.703,3.053-3.011,3.75-3.923l-1.906-0.914c-0.483,0.734-1.324,1.729-2.522,2.984c-0.313-0.281-0.656-0.576-1.031-0.883
		c0.714-0.745,1.401-1.555,2.063-2.43c2.094-0.188,3.527-0.414,4.305-0.681l-0.813-1.569c-0.865,0.239-2.199,0.446-4.004,0.62
		c-1.806,0.175-3.244,0.263-4.316,0.263l0.195,1.633c0.453,0,1.18-0.029,2.18-0.086c-0.323,0.427-0.648,0.823-0.977,1.188
		c-0.178-0.125-0.34-0.23-0.484-0.319l-1.313,1.25c1.479,1.197,2.433,1.986,2.859,2.367c-0.156,0.155-0.362,0.352-0.617,0.586
		c-1.13,0.03-2.017,0.049-2.655,0.055l0.202,1.758l4.07-0.195v5.203h2.077V151.737L377.572,151.737z M370.838,147.338h-0.32
		c0.719-1.38,1.254-2.789,1.603-4.228l-2.164-0.305c-0.386,1.651-0.949,3.218-1.69,4.699c-0.742,1.481-1.369,2.556-1.88,3.223
		l1.375,1.148c0.354-0.463,0.669-0.911,0.945-1.344v6.577h2.133L370.838,147.338L370.838,147.338z M379.619,151.932l-1.773,0.617
		c0.637,1.547,1.387,2.936,2.25,4.164l1.813-0.992C380.866,154.231,380.104,152.969,379.619,151.932L379.619,151.932z
		 M373.283,152.151c-0.401,1.213-1.17,2.431-2.305,3.648l1.522,1.022c0.438-0.422,0.931-1.059,1.479-1.909
		c0.55-0.852,0.941-1.615,1.177-2.293L373.283,152.151z"/>
	<path fill="#FFFFFF" d="M387.025,142.885h-2.094v14.211h2.094V142.885z M397.799,155.002H394.4v-3.234h2.93v-1.789h-2.93v-2.469
		h3.172v-1.758H394.4v-2.844h-2.267v2.844h-0.93c0.136-0.604,0.247-1.356,0.336-2.258l-2.117-0.125
		c-0.125,1.942-0.608,3.755-1.452,5.438l1.68,0.914c0.416-0.672,0.766-1.409,1.047-2.211h1.438v2.469h-3.281v1.789h3.281v3.234
		h-3.984v1.805h9.648V155.002L397.799,155.002z M388.119,144.432l-1.055,0.297l0.508,2.478l1.109-0.297L388.119,144.432z
		 M382.979,145.51c-0.025,2.026-0.194,3.594-0.508,4.703l1.5,0.32c0.293-0.917,0.475-2.575,0.547-4.978L382.979,145.51z"/>
	<path fill="#FFFFFF" d="M411.826,154.901c1.367-1.141,2.051-2.719,2.051-4.733c0-1.838-0.679-3.293-2.035-4.363
		c-1.355-1.07-3.09-1.604-5.199-1.604h-0.32c-2.207,0.104-4.037,0.85-5.487,2.237c-1.45,1.389-2.176,2.983-2.176,4.785v0.195
		c0,1.178,0.3,2.223,0.897,3.137s1.383,1.371,2.353,1.371c1.489,0,2.726-0.904,3.707-2.715s1.526-4.173,1.637-7.09
		c1.328,0.125,2.367,0.551,3.117,1.276c0.75,0.727,1.125,1.691,1.125,2.896c0,1.438-0.521,2.519-1.563,3.242
		c-1.041,0.725-2.597,1.2-4.664,1.43l0.578,1.953C408.466,156.713,410.459,156.042,411.826,154.901z M403.994,151.596
		c-0.6,1.428-1.266,2.141-2,2.141c-0.364,0-0.648-0.25-0.852-0.75c-0.205-0.5-0.306-1.047-0.306-1.641
		c0-1.151,0.41-2.203,1.229-3.156c0.82-0.953,1.816-1.567,2.988-1.844C404.947,148.419,404.593,150.169,403.994,151.596z"/>
	<path fill="#FFFFFF" d="M419.9,154.698h4.522l-0.594,0.945c0.734,0.463,2.414,0.953,5.039,1.469l0.813-1.647
		c-1.275-0.172-2.511-0.428-3.703-0.767h2.375v-6.227h-5.116c0.672-0.495,1.12-1.141,1.344-1.938h1.375v1.555h1.938v-1.555h1.728
		v-1.406h-4.853v-0.508c2.156-0.083,3.684-0.245,4.578-0.484l-0.78-1.313c-1.345,0.298-3.254,0.47-5.728,0.517
		c0.005,0.219,0.008,0.43,0.008,0.633c0,0.828-0.026,1.408-0.082,1.738c-0.055,0.33-0.169,0.658-0.344,0.979
		c-0.175,0.323-0.426,0.642-0.754,0.953l1.188,0.828h-6.336c0.506-0.557,0.854-1.203,1.047-1.938h1.289v1.556h1.914v-1.556h1.664
		v-1.405h-4.672v-0.523c2.198-0.083,3.725-0.24,4.578-0.469l-0.781-1.313c-1.339,0.298-3.263,0.47-5.772,0.517
		c0.011,0.328,0.016,0.638,0.016,0.93c0,0.74-0.034,1.288-0.104,1.646c-0.07,0.356-0.213,0.724-0.426,1.102
		c-0.215,0.378-0.459,0.694-0.734,0.949l1.344,1.102c0.13-0.099,0.242-0.192,0.336-0.28v5.913h2.281
		c-1.203,0.423-2.391,0.728-3.563,0.914l0.516,1.517c0.738-0.088,1.648-0.292,2.729-0.609s1.876-0.638,2.388-0.961L419.9,154.698z
		 M418.354,150.346v-0.789h7.845v0.789H418.354z M418.354,151.174h7.845v0.742h-7.845V151.174z M426.197,153.542h-7.844v-0.797
		h7.844V153.542z"/>
</g>
<g id="テキスト">
	<path fill="#20272F" d="M212.444,56.01v-6.617c0.567-0.047,1.026-0.094,1.375-0.141c0.099,0.302,0.169,0.537,0.211,0.703
		l0.961-0.267c-0.359-1.104-0.664-1.99-0.914-2.655l-0.93,0.227l0.406,1.18c-0.813,0.068-1.729,0.127-2.75,0.181
		c1.276-1.517,2.443-3.089,3.5-4.72l-1.078-0.43c-0.323,0.63-0.852,1.469-1.586,2.516c-0.385-0.369-0.787-0.739-1.203-1.108
		c0.713-0.85,1.367-1.773,1.961-2.773l-1.109-0.375c-0.328,0.74-0.849,1.583-1.563,2.531l-0.313-0.281l-0.703,0.688l2.32,2.172
		c-0.479,0.656-0.943,1.266-1.391,1.828c-0.37,0.011-0.63,0.016-0.781,0.016h-0.18l0.109,0.961l2.516-0.164v6.531h1.142V56.01z
		 M223.397,48.432v-0.914h-3.508v-2.703h3.93v-0.938h-3.93v-1.969h-1.273v1.969h-3.508v0.938h3.508v2.703h-3.297v0.914H223.397z
		 M221.647,55.877h1.227v-5.875h-7.117v5.875h1.195V55.26h4.695V55.877L221.647,55.877z M216.952,50.917h4.695v3.405h-4.695V50.917z
		 M210.437,50.768l-1.078-0.133c-0.063,1.26-0.289,2.568-0.68,3.922l0.961,0.195C209.962,54.081,210.228,52.752,210.437,50.768
		L210.437,50.768z M213.374,50.752l0.359,2.906l1.016-0.134c-0.198-1.104-0.318-2.066-0.359-2.891L213.374,50.752z"/>
	<path fill="#20272F" d="M227.292,54.596c0.924-0.432,1.694-0.852,2.309-1.258c0.614-0.406,1.247-0.906,1.898-1.5v4.211h1.227
		v-4.266c0.781,0.771,1.801,1.508,3.059,2.211c1.258,0.702,2.483,1.219,3.676,1.547l0.555-1.023c-2.443-0.62-4.646-1.763-6.609-3.43
		h5.844v-0.978h-6.523v-1.405h5.477v-6.32H226.21v6.32h5.289v1.405h-6.547v0.978h5.805c-0.964,0.844-2.034,1.58-3.211,2.207
		c-1.177,0.628-2.216,1.072-3.117,1.332l0.414,0.897C225.551,55.338,226.367,55.029,227.292,54.596z M236.983,45.151h-4.258v-1.852
		h4.258V45.151z M231.499,45.151h-4.094v-1.852h4.094V45.151z M236.983,47.792h-4.258v-1.767h4.258V47.792z M231.499,47.792h-4.094
		v-1.767h4.094V47.792z"/>
	<path fill="#20272F" d="M253.702,53.542c1.297-1.037,1.944-2.534,1.944-4.492c0-1.719-0.644-3.074-1.93-4.066
		c-1.285-0.991-2.922-1.487-4.906-1.487c-2.108,0-3.935,0.712-5.477,2.137s-2.313,3.03-2.313,4.815c0,1.083,0.254,2.002,0.762,2.755
		s1.203,1.129,2.09,1.129c1.427,0,2.613-0.938,3.563-2.813s1.45-4.213,1.508-7.016c1.72,0.047,3.06,0.469,4.021,1.266
		s1.44,1.924,1.44,3.383c0,1.637-0.594,2.865-1.784,3.688s-2.624,1.31-4.302,1.461l0.306,1.055
		C250.713,55.182,252.404,54.578,253.702,53.542z M246.538,50.506c-0.724,1.82-1.573,2.729-2.547,2.729
		c-0.567,0-1.011-0.264-1.328-0.793c-0.317-0.527-0.478-1.173-0.478-1.934c0-1.432,0.545-2.717,1.633-3.855
		c1.09-1.138,2.389-1.82,3.898-2.051C247.654,46.719,247.262,48.686,246.538,50.506z"/>
	<path fill="#20272F" d="M271.171,42.643l-0.522-0.852c-1.375,0.28-3.219,0.461-5.531,0.539c0,0.489-0.004,0.965-0.008,1.426
		c-0.006,0.461-0.059,0.865-0.156,1.211s-0.247,0.672-0.445,0.977c-0.197,0.306-0.425,0.549-0.68,0.73l0.633,0.617
		c0.771-0.475,1.297-1.225,1.578-2.25h2.352v1.922h1.133v-1.922h2.25v-0.836h-5.578c0.012-0.104,0.017-0.19,0.017-0.259v-0.897
		C268.643,42.961,270.296,42.825,271.171,42.643L271.171,42.643z M263.921,42.643l-0.508-0.789c-1.167,0.234-2.95,0.394-5.353,0.478
		v0.608c0,0.833-0.031,1.444-0.098,1.832c-0.066,0.389-0.199,0.773-0.406,1.156c-0.205,0.383-0.478,0.707-0.815,0.973l0.655,0.634
		c0.809-0.573,1.345-1.404,1.609-2.492h2.172v1.922h1.125v-1.922h1.898v-0.836h-5.07l0.008-0.164V43.05
		C261.447,42.966,263.041,42.831,263.921,42.643L263.921,42.643z M270.171,53.674v-6.141h-11.555v6.141H270.171z M259.757,48.307
		h9.228v0.978h-9.228V48.307z M259.757,50.018h9.228v0.992h-9.228V50.018z M268.982,52.838h-9.227V51.76h9.227V52.838z
		 M260.025,55.42c0.998-0.289,1.785-0.577,2.363-0.863l-0.805-0.734c-0.475,0.234-1.182,0.487-2.121,0.759
		c-0.939,0.271-1.738,0.458-2.395,0.563l0.391,0.867C258.174,55.906,259.029,55.709,260.025,55.42z M271.563,55.057
		c-1.771-0.25-3.379-0.662-4.82-1.234l-0.711,0.767c1.047,0.505,2.699,0.979,4.961,1.422L271.563,55.057z"/>
	<path fill="#20272F" d="M222.124,252.361v-6.938h-11.867v6.938H222.124z M211.429,248.463v-2.156h4.148v2.156H211.429z
		 M220.913,246.307v2.156h-4.141v-2.156H220.913z M211.429,251.463v-2.125h4.148v2.125H211.429z M220.913,249.338v2.125h-4.141
		v-2.125H220.913z M217.702,255.033c-0.823-1.041-1.456-1.813-1.898-2.313l-0.977,0.586c0.849,1.016,1.469,1.801,1.859,2.353
		L217.702,255.033z M212.577,257.26c0,0.256,0.048,0.48,0.145,0.676c0.097,0.196,0.238,0.365,0.426,0.508
		c0.188,0.146,0.404,0.228,0.648,0.246c0.245,0.021,0.563,0.043,0.953,0.063c0.391,0.021,0.786,0.031,1.188,0.031
		c0.542,0,1.149-0.019,1.824-0.056c0.674-0.035,1.109-0.08,1.305-0.133c0.195-0.051,0.375-0.133,0.539-0.246
		c0.164-0.111,0.293-0.248,0.387-0.41c0.094-0.16,0.141-0.346,0.141-0.555v-1.758l-1.094-0.117v0.188
		c0,0.443-0.025,0.816-0.074,1.121c-0.05,0.306-0.134,0.517-0.254,0.629c-0.12,0.115-0.248,0.187-0.383,0.212
		c-0.135,0.026-0.437,0.055-0.902,0.082c-0.466,0.028-0.89,0.043-1.27,0.043c-1.026,0-1.664-0.05-1.914-0.148
		c-0.25-0.098-0.375-0.289-0.375-0.57v-3.711h-1.289L212.577,257.26L212.577,257.26z M223.851,257.439
		c-0.594-1.172-1.354-2.434-2.281-3.789l-1.078,0.539c0.833,1.277,1.567,2.551,2.203,3.82L223.851,257.439z M211.351,254.549
		l-1.141-0.228c-0.401,1.578-0.859,2.779-1.375,3.603l1.141,0.461C210.699,256.994,211.158,255.717,211.351,254.549L211.351,254.549
		z"/>
	<path fill="#20272F" d="M235.429,259.01c0.563,0,1.073-0.234,1.531-0.703s0.711-1.867,0.758-4.195h-7.93l0.344-1.516
		c4-0.229,6.685-0.486,8.055-0.773l-0.484-0.944c-1.552,0.334-3.76,0.604-6.625,0.813c0.802-0.473,1.799-1.108,2.992-1.905h5.703
		v-0.978h-4.234l0.023-0.016c0.969-0.724,1.932-1.599,2.891-2.625l-1.125-0.539c-0.688,0.85-1.87,1.91-3.547,3.18h-1.969v-1.875
		h3.641v-0.961h-3.641v-1.273h-1.273v1.273h-4.359v0.961h4.359v1.875h-5.32v0.978h6.914c-2.318,1.661-4.841,2.989-7.57,3.983
		l0.445,0.883c1.141-0.41,2.43-0.991,3.867-1.741l-0.625,2.688h1.242l0.148-0.57h6.758c0,0.953-0.097,1.672-0.289,2.152
		c-0.193,0.482-0.615,0.723-1.266,0.723h-2.086l0.211,1.109h2.461V259.01z"/>
	<path fill="#20272F" d="M253.702,256.541c1.297-1.035,1.944-2.533,1.944-4.492c0-1.719-0.644-3.074-1.93-4.066
		c-1.285-0.991-2.922-1.487-4.906-1.487c-2.108,0-3.935,0.713-5.477,2.137c-1.542,1.426-2.313,3.031-2.313,4.815
		c0,1.084,0.254,2.002,0.762,2.755c0.508,0.754,1.203,1.129,2.09,1.129c1.427,0,2.613-0.938,3.563-2.813s1.45-4.213,1.508-7.016
		c1.72,0.047,3.06,0.469,4.021,1.266s1.44,1.926,1.44,3.383c0,1.638-0.594,2.865-1.784,3.688c-1.19,0.824-2.624,1.311-4.302,1.461
		l0.306,1.055C250.713,258.182,252.404,257.578,253.702,256.541z M246.538,253.506c-0.724,1.82-1.573,2.729-2.547,2.729
		c-0.567,0-1.011-0.264-1.328-0.793c-0.317-0.526-0.478-1.172-0.478-1.934c0-1.432,0.545-2.717,1.633-3.855
		c1.09-1.137,2.389-1.819,3.898-2.051C247.654,249.719,247.262,251.686,246.538,253.506z"/>
	<path fill="#20272F" d="M271.171,245.643l-0.522-0.852c-1.375,0.28-3.219,0.461-5.531,0.539c0,0.489-0.004,0.965-0.008,1.426
		c-0.006,0.461-0.059,0.865-0.156,1.211c-0.1,0.348-0.247,0.672-0.445,0.977c-0.197,0.306-0.425,0.55-0.68,0.73l0.633,0.617
		c0.771-0.474,1.297-1.224,1.578-2.25h2.352v1.922h1.133v-1.922h2.25v-0.836h-5.578c0.012-0.104,0.017-0.189,0.017-0.259v-0.897
		C268.643,245.961,270.296,245.826,271.171,245.643L271.171,245.643z M263.921,245.643l-0.508-0.789
		c-1.167,0.234-2.95,0.396-5.353,0.478v0.608c0,0.834-0.031,1.445-0.098,1.832c-0.064,0.39-0.199,0.773-0.406,1.156
		c-0.205,0.383-0.478,0.707-0.815,0.973l0.655,0.634c0.809-0.572,1.345-1.402,1.609-2.492h2.172v1.922h1.125v-1.922h1.898v-0.836
		h-5.07l0.008-0.164v-0.992C261.447,245.967,263.041,245.83,263.921,245.643L263.921,245.643z M270.171,256.674v-6.141h-11.555
		v6.141H270.171z M259.757,251.307h9.228v0.978h-9.228V251.307z M259.757,253.018h9.228v0.992h-9.228V253.018z M268.982,255.838
		h-9.227v-1.078h9.227V255.838z M260.025,258.42c0.998-0.289,1.785-0.576,2.363-0.863l-0.805-0.734
		c-0.475,0.234-1.182,0.488-2.121,0.759s-1.738,0.459-2.395,0.563l0.391,0.867C258.174,258.906,259.029,258.709,260.025,258.42z
		 M271.563,258.057c-1.771-0.25-3.379-0.66-4.82-1.234l-0.711,0.767c1.047,0.506,2.699,0.979,4.961,1.422L271.563,258.057z"/>
	<path fill="#20272F" d="M62.409,146.565c0.727-0.745,1.342-1.489,1.848-2.233l-1.156-0.431c-0.958,1.484-2.063,2.667-3.313,3.547
		l0.664,0.781C61.03,147.865,61.683,147.31,62.409,146.565z M74.062,145.549v-0.992h-8.023v0.992H74.062z M63.405,158.042v-7.431
		H62.96c0.797-1.063,1.43-2.047,1.898-2.952l-1.172-0.328c-0.422,0.864-1.035,1.833-1.84,2.905
		c-0.805,1.073-1.619,1.958-2.441,2.656l0.758,0.703c0.641-0.521,1.31-1.185,2.008-1.992v6.438H63.405L63.405,158.042z
		 M71.425,157.506c0.268-0.211,0.402-0.491,0.402-0.84v-6.625h2.906v-0.978h-9.531v0.978h5.32v6.102
		c0,0.359-0.216,0.539-0.648,0.539h-1.945l0.133,1.141h2.43C70.845,157.823,71.156,157.717,71.425,157.506z"/>
	<path fill="#20272F" d="M88.452,157.745c0.203-0.042,0.391-0.116,0.563-0.224c0.172-0.106,0.316-0.235,0.434-0.387
		c0.118-0.151,0.204-0.32,0.262-0.508c0.104-0.354,0.194-0.99,0.27-1.906c0.075-0.917,0.124-1.977,0.145-3.18v-3.703v-0.603h-2.875
		v-3.366h-1.203v3.366h-1.484v0.945h1.484c-0.016,2.177-0.315,4.056-0.898,5.637s-1.313,2.765-2.188,3.552l0.766,0.633
		c1.099-0.979,1.952-2.307,2.559-3.98c0.606-1.674,0.928-3.621,0.965-5.84H88.9l0.016,3.07c0,1.76-0.051,3.021-0.152,3.785
		c-0.102,0.763-0.246,1.235-0.434,1.418c-0.188,0.182-0.482,0.272-0.883,0.272H86.21l0.125,1.063
		C87.611,157.786,88.317,157.771,88.452,157.745L88.452,157.745z M83.397,156.893v-0.875c-0.406,0.068-1.292,0.177-2.656,0.328
		v-1.211h3.18v-0.898h-3.18v-1.18h2.969v-4.781h-2.969v-1.039h3.25v-0.883h-3.25v-1.156c1.172-0.119,2.047-0.239,2.625-0.358
		l-0.406-0.883c-1.708,0.358-3.831,0.569-6.367,0.633l0.133,0.852h0.133c0.692,0,1.594-0.044,2.703-0.133v1.047h-3.375v0.883h3.375
		v1.039h-2.938v4.781h2.938v1.18h-3.359v0.898h3.359v1.344c-1.781,0.193-3.005,0.311-3.672,0.353l0.234,0.977
		C80.134,157.438,82.559,157.133,83.397,156.893L83.397,156.893z M82.632,150.284H80.71v-1.173h1.922V150.284z M79.601,150.284
		h-1.914v-1.173h1.914V150.284z M82.632,152.229H80.71v-1.172h1.922V152.229z M79.601,152.229h-1.914v-1.172h1.914V152.229z"/>
	<path fill="#20272F" d="M104.702,155.542c1.297-1.037,1.945-2.534,1.945-4.492c0-1.719-0.643-3.074-1.93-4.066
		c-1.287-0.991-2.922-1.487-4.906-1.487c-2.109,0-3.935,0.712-5.477,2.137c-1.542,1.424-2.313,3.03-2.313,4.815
		c0,1.083,0.254,2.002,0.762,2.755c0.508,0.753,1.204,1.129,2.09,1.129c1.427,0,2.614-0.938,3.563-2.813
		c0.948-1.875,1.451-4.213,1.508-7.016c1.719,0.047,3.059,0.469,4.02,1.266s1.441,1.924,1.441,3.383
		c0,1.637-0.595,2.865-1.785,3.688s-2.624,1.31-4.301,1.461l0.305,1.055C101.712,157.182,103.405,156.578,104.702,155.542z
		 M97.538,152.506c-0.724,1.82-1.573,2.729-2.547,2.729c-0.568,0-1.011-0.264-1.328-0.793c-0.318-0.527-0.477-1.173-0.477-1.934
		c0-1.432,0.544-2.717,1.633-3.855c1.088-1.138,2.388-1.821,3.898-2.051C98.655,148.719,98.262,150.686,97.538,152.506z"/>
	<path fill="#20272F" d="M122.171,144.643l-0.523-0.852c-1.375,0.28-3.219,0.461-5.531,0.539c0,0.489-0.003,0.965-0.008,1.426
		s-0.057,0.865-0.156,1.211c-0.099,0.346-0.248,0.672-0.445,0.977c-0.198,0.306-0.425,0.549-0.68,0.73l0.633,0.617
		c0.771-0.475,1.297-1.225,1.578-2.25h2.352v1.922h1.133v-1.922h2.25v-0.836h-5.578c0.01-0.104,0.016-0.19,0.016-0.259v-0.897
		C119.642,144.961,121.296,144.825,122.171,144.643L122.171,144.643z M114.921,144.643l-0.508-0.789
		c-1.167,0.234-2.951,0.394-5.352,0.478v0.608c0,0.833-0.033,1.444-0.098,1.832c-0.065,0.389-0.201,0.773-0.406,1.156
		c-0.206,0.383-0.478,0.707-0.816,0.973l0.656,0.634c0.807-0.573,1.344-1.404,1.609-2.492h2.172v1.922h1.125v-1.922h1.898v-0.836
		h-5.07l0.008-0.164v-0.992C112.447,144.966,114.041,144.831,114.921,144.643L114.921,144.643z M121.171,155.674v-6.141h-11.555
		v6.141H121.171z M110.757,150.307h9.227v0.978h-9.227V150.307z M110.757,152.018h9.227v0.992h-9.227V152.018z M119.983,154.838
		h-9.227v-1.078h9.227V154.838z M111.026,157.42c0.997-0.289,1.785-0.577,2.363-0.863l-0.805-0.734
		c-0.474,0.234-1.181,0.487-2.121,0.759c-0.94,0.271-1.738,0.458-2.395,0.563l0.391,0.867
		C109.173,157.906,110.029,157.709,111.026,157.42z M122.562,157.057c-1.771-0.25-3.378-0.661-4.82-1.234l-0.711,0.767
		c1.047,0.505,2.7,0.979,4.961,1.422L122.562,157.057z"/>
	<path fill="#20272F" d="M230.134,298.322v-1.332c0-0.665,0.034-1.09,0.103-1.271c0.037-0.129,0.055-0.203,0.055-0.227
		c0-0.056-0.052-0.091-0.157-0.109c-0.191-0.041-0.438-0.068-0.738-0.082c0.064,0.361,0.096,0.932,0.096,1.717v1.627l-0.027,1.135
		c0,0.063,0.032,0.097,0.096,0.097h0.479c0.064,0,0.096-0.033,0.096-0.097v-0.854h8.757v0.813c0,0.063,0.032,0.097,0.096,0.097
		h0.492c0.055,0,0.082-0.033,0.082-0.097l-0.027-1.176v-1.641c0-0.629,0.034-1.063,0.103-1.299c0.037-0.133,0.055-0.213,0.055-0.24
		c0-0.049-0.052-0.082-0.157-0.096c-0.196-0.045-0.444-0.074-0.745-0.088c0.068,0.368,0.103,0.942,0.103,1.723v1.399h-4.177v-4.913
		h3.794v0.711c0,0.067,0.034,0.102,0.103,0.102h0.472c0.064,0,0.096-0.033,0.096-0.102l-0.027-1.271v-1.859
		c0-0.62,0.034-1.061,0.103-1.319c0.037-0.113,0.055-0.187,0.055-0.219c0-0.06-0.052-0.099-0.157-0.115
		c-0.214-0.041-0.46-0.068-0.738-0.082c0.064,0.369,0.096,0.947,0.096,1.735v1.818h-3.794v-3.541c0-0.647,0.034-1.092,0.103-1.334
		c0.037-0.145,0.055-0.229,0.055-0.252c0-0.055-0.052-0.092-0.157-0.109c-0.269-0.036-0.52-0.061-0.752-0.067
		c0.064,0.358,0.096,0.957,0.096,1.791v3.514h-3.527v-1.736c0-0.717,0.027-1.147,0.082-1.299c0.037-0.115,0.055-0.188,0.055-0.227
		c0-0.06-0.045-0.099-0.137-0.115c-0.201-0.041-0.449-0.068-0.745-0.082c0.068,0.369,0.103,0.947,0.103,1.736v1.846l-0.027,1.223
		c0,0.064,0.032,0.097,0.096,0.097h0.479c0.063,0,0.096-0.031,0.096-0.097v-0.743h3.527v4.913h-3.935V298.322z"/>
	<path fill="#20272F" d="M246.068,289.791l-2.01-0.027c-0.063,0-0.097,0.033-0.097,0.096l0.026,1.695v4.566l-1.545-0.027
		c-0.063,0-0.096,0.033-0.096,0.096v0.451c0,0.064,0.032,0.096,0.096,0.096l1.832-0.026h8.483l1.839,0.026
		c0.063,0,0.096-0.03,0.096-0.096v-0.451c0-0.063-0.031-0.096-0.096-0.096l-1.441,0.027v-4.566l0.027-1.695
		c0-0.063-0.029-0.096-0.09-0.096l-2.01,0.027h-0.841v-0.813c0-0.465,0.022-0.768,0.067-0.91c0.047-0.164,0.068-0.252,0.068-0.266
		c0-0.061-0.048-0.096-0.145-0.109c-0.254-0.037-0.491-0.061-0.711-0.067c0.068,0.321,0.104,0.787,0.104,1.395v0.771h-2.201v-0.813
		c0-0.461,0.021-0.768,0.068-0.924c0.05-0.137,0.074-0.221,0.074-0.252c0-0.062-0.047-0.096-0.144-0.109
		c-0.251-0.037-0.489-0.061-0.718-0.067c0.068,0.321,0.104,0.787,0.104,1.395v0.771H246.068L246.068,289.791z M246.813,292.848
		h-2.193v-2.481h2.193V292.848z M249.63,290.365v2.482h-2.2v-2.482H249.63z M252.542,290.365v2.482h-2.297v-2.482H252.542z
		 M250.245,293.395h2.297v2.728h-2.297V293.395z M247.43,296.121v-2.728h2.2v2.728H247.43z M244.619,296.121v-2.728h2.193v2.728
		H244.619z M242.891,299.793c0.067,0.112,0.125,0.17,0.17,0.17c0.022,0,0.076-0.013,0.157-0.033
		c1.372-0.435,2.468-1.008,3.288-1.723c0.196-0.174,0.364-0.289,0.506-0.351c0.104-0.035,0.157-0.071,0.157-0.108
		c0-0.06-0.043-0.115-0.13-0.17c-0.132-0.093-0.318-0.193-0.561-0.31c-0.119,0.201-0.293,0.394-0.521,0.574
		c-0.938,0.752-2.073,1.283-3.403,1.594C242.7,299.54,242.813,299.659,242.891,299.793L242.891,299.793z M250.313,297.359
		c-0.031-0.026-0.055-0.041-0.067-0.041c-0.019,0-0.062,0.025-0.13,0.074l-0.205,0.158c-0.087,0.072-0.131,0.117-0.131,0.137
		c0,0.019,0.01,0.039,0.027,0.062c1.08,0.948,2.34,1.661,3.78,2.141c0.082,0.027,0.138,0.041,0.164,0.041
		c0.041,0,0.095-0.063,0.157-0.187c0.096-0.168,0.203-0.293,0.32-0.375C252.708,298.959,251.402,298.288,250.313,297.359
		L250.313,297.359z"/>
	<path fill="#20272F" d="M261.914,290.209c-0.191,0.172-0.287,0.391-0.287,0.656c0,0.231,0.073,0.43,0.219,0.594
		c0.174,0.196,0.396,0.295,0.67,0.295c0.229,0,0.424-0.076,0.588-0.228c0.191-0.178,0.287-0.397,0.287-0.661
		c0-0.229-0.074-0.425-0.226-0.589c-0.173-0.19-0.39-0.286-0.649-0.286C262.277,289.99,262.078,290.063,261.914,290.209
		L261.914,290.209z M261.914,295.943c-0.191,0.175-0.287,0.392-0.287,0.65c0,0.24,0.073,0.443,0.219,0.607
		c0.17,0.188,0.393,0.28,0.67,0.28c0.229,0,0.424-0.074,0.588-0.219c0.191-0.174,0.287-0.396,0.287-0.67
		c0-0.225-0.074-0.42-0.226-0.588c-0.173-0.191-0.39-0.287-0.649-0.287C262.277,295.719,262.078,295.793,261.914,295.943
		L261.914,295.943z"/>
	<path fill="#20272F" d="M279.264,288.52l-2.242,6.439c-0.146,0.405-0.479,1.391-1.004,2.953h-0.145
		c-0.307-0.957-0.641-1.955-1.005-2.994l-2.216-6.398h-1.551v10.207h0.84v-6.412l-0.021-2.42c0-0.215,0.002-0.42,0.007-0.615h0.15
		c0.322,1.029,0.65,2.019,0.984,2.968l2.263,6.479h1.188l2.297-6.479c0.506-1.515,0.828-2.502,0.965-2.968h0.156l-0.014,3.021v6.426
		h0.882V288.52H279.264z"/>
	<path fill="#20272F" d="M283.044,288.52v0.801h3.274v9.406h0.923v-9.406h3.288v-0.801H283.044z"/>
	<path fill="#20272F" d="M292.771,288.52v10.207h0.922V288.52H292.771z"/>
	<path fill="#20272F" d="M299.689,289.908h0.082l1.373,0.026c0.063,0,0.097-0.035,0.097-0.104v-0.39
		c0-0.063-0.032-0.096-0.097-0.096l-1.373,0.027h-0.082v-0.269c0-0.608,0.021-0.975,0.067-1.094c0.06-0.127,0.089-0.217,0.089-0.266
		c0-0.052-0.053-0.082-0.156-0.097c-0.184-0.041-0.41-0.067-0.685-0.082c0.063,0.281,0.097,0.8,0.097,1.552v0.254h-0.685
		l-1.374-0.027c-0.063,0-0.096,0.031-0.096,0.096v0.39c0,0.067,0.031,0.104,0.096,0.104l1.374-0.027h0.685v1.724h-1.006
		l-1.783-0.027c-0.063,0-0.097,0.031-0.097,0.096v0.39c0,0.063,0.032,0.096,0.097,0.096l1.783-0.027h1.524
		c-1.054,0.994-2.313,1.875-3.78,2.646c0.087,0.045,0.18,0.125,0.28,0.238c0.082,0.102,0.142,0.149,0.178,0.149
		c0.022,0,0.075-0.021,0.157-0.067c0.506-0.265,1.053-0.601,1.641-1.004h2.994c-0.287,0.354-0.688,0.737-1.203,1.147
		c-0.142-0.027-0.318-0.055-0.533-0.082c0.047,0.205,0.078,0.582,0.097,1.135c-0.788,0.15-1.367,0.252-1.736,0.308
		c-0.556,0.082-1.046,0.129-1.47,0.137c0.072,0.252,0.148,0.453,0.227,0.609c0.035,0.071,0.076,0.108,0.122,0.108
		c0.041,0,0.095-0.022,0.157-0.067c0.05-0.037,0.246-0.08,0.588-0.131c0.848-0.138,1.553-0.267,2.112-0.39v1.75
		c0,0.205-0.05,0.354-0.15,0.443c-0.101,0.088-0.272,0.131-0.52,0.131c-0.429,0-0.794-0.021-1.095-0.063
		c0.104,0.138,0.186,0.293,0.239,0.465c0.032,0.097,0.06,0.152,0.082,0.173c0.019,0.018,0.084,0.026,0.198,0.026
		c0.113,0,0.193,0,0.238,0c0.652,0,1.086-0.084,1.3-0.254c0.224-0.186,0.335-0.453,0.335-0.799l-0.014-1.621v-0.383
		c0.761-0.172,1.457-0.354,2.092-0.547c0.117-0.031,0.188-0.062,0.205-0.086c0.019-0.023,0.027-0.094,0.027-0.207
		c0-0.103,0.021-0.217,0.062-0.351c-0.752,0.226-1.547,0.425-2.386,0.603v-0.109c0-0.157,0.005-0.266,0.014-0.319
		c0.4-0.302,0.859-0.693,1.374-1.177c0.2-0.2,0.347-0.319,0.438-0.354c0.072-0.023,0.108-0.068,0.108-0.137
		c0-0.074-0.069-0.189-0.212-0.351c-0.118-0.131-0.207-0.197-0.268-0.197c-0.021,0-0.055,0.009-0.096,0.027
		c-0.068,0.027-0.148,0.041-0.238,0.041h-2.379c0.551-0.434,1.094-0.914,1.627-1.443h0.431l1.764,0.027
		c0.063,0,0.097-0.031,0.097-0.096v-0.39c0-0.063-0.033-0.096-0.097-0.096l-1.694,0.027c0.619-0.693,1.135-1.365,1.545-2.019
		c0.228-0.354,0.418-0.594,0.574-0.717c0.063-0.041,0.096-0.092,0.096-0.149c0-0.048-0.049-0.104-0.145-0.173
		c-0.154-0.1-0.347-0.202-0.574-0.307c-0.045,0.213-0.156,0.48-0.334,0.799c-0.589,0.978-1.235,1.83-1.941,2.564h-0.465V289.908
		L299.689,289.908z M308.467,291.057c0.068,0,0.104-0.033,0.104-0.096v-0.424c0-0.064-0.034-0.097-0.104-0.097l-1.47,0.027h-2.517
		c0.16-0.516,0.322-1.107,0.485-1.777c0.073-0.328,0.144-0.539,0.212-0.629c0.082-0.137,0.123-0.221,0.123-0.254
		c0-0.068-0.05-0.121-0.15-0.156c-0.231-0.078-0.445-0.137-0.643-0.178c0,0.314-0.043,0.715-0.13,1.203
		c-0.47,2.086-1.178,3.785-2.126,5.092c0.096,0.027,0.207,0.09,0.335,0.187c0.087,0.067,0.144,0.102,0.171,0.102
		c0.032,0,0.077-0.047,0.137-0.143c0.256-0.402,0.508-0.859,0.76-1.375c0.277,1.346,0.729,2.567,1.354,3.672
		c-0.936,1.344-2.306,2.426-4.115,3.245c0.15,0.082,0.273,0.189,0.369,0.322c0.073,0.096,0.129,0.144,0.164,0.144
		c0.021,0,0.084-0.025,0.186-0.074c1.621-0.84,2.873-1.865,3.752-3.076c0.63,0.935,1.574,1.916,2.838,2.945
		c0.082,0.063,0.137,0.096,0.164,0.096c0.035,0,0.084-0.055,0.144-0.164c0.087-0.168,0.205-0.299,0.354-0.389
		c-1.398-0.984-2.444-1.996-3.137-3.035c0.842-1.422,1.346-3.154,1.51-5.195L308.467,291.057z M305.363,295.65
		c-0.547-0.938-0.996-2.252-1.348-3.938c0.082-0.188,0.172-0.416,0.268-0.685h2.338C306.479,292.828,306.061,294.369,305.363,295.65
		L305.363,295.65z"/>
	<path fill="#20272F" d="M317.736,297.564c-1.086,0.76-2.56,1.361-4.424,1.805c0.119,0.082,0.222,0.209,0.309,0.384
		c0.063,0.122,0.121,0.184,0.171,0.184c0.026,0,0.077-0.012,0.149-0.033c1.813-0.512,3.235-1.149,4.267-1.922
		c0.907,0.73,2.167,1.332,3.78,1.805c0.082,0.027,0.142,0.041,0.178,0.041c0.068,0,0.132-0.063,0.191-0.19
		c0.072-0.164,0.176-0.293,0.308-0.39c-1.7-0.438-3.017-0.998-3.951-1.682c0.726-0.629,1.326-1.422,1.806-2.379
		c0.117-0.246,0.236-0.406,0.354-0.479c0.082-0.052,0.123-0.103,0.123-0.15c0-0.051-0.065-0.148-0.198-0.295
		c-0.137-0.15-0.248-0.225-0.335-0.225c-0.019,0-0.046,0.008-0.082,0.026c-0.073,0.035-0.18,0.056-0.321,0.056h-3.22l-1.723-0.027
		c-0.068,0-0.103,0.031-0.103,0.096v0.424c0,0.063,0.033,0.097,0.103,0.097l0.711-0.015
		C316.303,295.832,316.938,296.789,317.736,297.564L317.736,297.564z M320.02,294.68c-0.392,0.998-0.983,1.834-1.776,2.508
		c-0.757-0.66-1.353-1.496-1.784-2.508H320.02z M313.438,294.188c0.113-0.051,0.17-0.11,0.17-0.186c0-0.015-0.002-0.056-0.006-0.123
		c-0.006-0.045-0.008-0.086-0.008-0.123c0-0.104,0.012-0.207,0.034-0.307c-0.091,0.045-0.501,0.235-1.229,0.573v-3.057l1.176,0.027
		c0.063,0,0.096-0.031,0.096-0.097v-0.442c0-0.068-0.031-0.104-0.096-0.104l-1.176,0.027v-1.285c0-0.674,0.021-1.057,0.067-1.148
		c0.06-0.131,0.089-0.221,0.089-0.266c0-0.061-0.053-0.096-0.156-0.109c-0.27-0.036-0.512-0.063-0.726-0.075
		c0.063,0.307,0.097,0.844,0.097,1.612v1.271h-0.506l-1.189-0.027c-0.055,0-0.082,0.035-0.082,0.104v0.442
		c0,0.064,0.027,0.097,0.082,0.097l1.189-0.027h0.506v3.309c-0.092,0.041-0.201,0.084-0.328,0.131
		c-0.178,0.072-0.278,0.113-0.301,0.123c-0.416,0.154-0.82,0.271-1.218,0.349c0.091,0.278,0.171,0.487,0.239,0.629
		c0.031,0.063,0.076,0.096,0.137,0.096c0.046,0,0.104-0.031,0.171-0.096c0.063-0.063,0.239-0.152,0.526-0.267
		c0.255-0.102,0.513-0.206,0.771-0.321v3.541c0,0.241-0.033,0.415-0.103,0.52c-0.077,0.115-0.226,0.172-0.444,0.172
		c-0.424,0-0.768-0.021-1.031-0.063c0.096,0.143,0.168,0.297,0.219,0.465c0.035,0.104,0.066,0.172,0.089,0.199
		c0.032,0.026,0.104,0.041,0.219,0.041c0.104,0,0.179,0,0.22,0c0.555,0,0.932-0.076,1.127-0.228c0.123-0.096,0.211-0.203,0.26-0.32
		c0.061-0.149,0.09-0.391,0.09-0.719l-0.014-1.873v-2.002C312.645,294.547,312.99,294.393,313.438,294.188L313.438,294.188z
		 M316.096,291.877l-1.976-0.027c-0.063,0-0.097,0.031-0.097,0.096l0.027,0.63v0.383l-0.027,1.299c0,0.068,0.033,0.102,0.097,0.102
		h0.424c0.063,0,0.097-0.032,0.097-0.102v-1.818h7v1.818c0,0.068,0.031,0.102,0.096,0.102h0.451c0.063,0,0.096-0.032,0.096-0.102
		l-0.027-1.299v-0.451l0.027-0.562c0-0.063-0.032-0.096-0.096-0.096l-1.963,0.027c0.314-0.529,0.656-1.215,1.025-2.06
		c0.046-0.104,0.107-0.196,0.186-0.278c0.063-0.064,0.096-0.115,0.096-0.15c0-0.061-0.032-0.106-0.096-0.145
		c-0.17-0.068-0.381-0.132-0.637-0.191c-0.027,0.205-0.087,0.438-0.178,0.697c-0.311,0.803-0.656,1.512-1.039,2.127H316.096
		L316.096,291.877z M320.409,287.904c-2.063,0.41-4.136,0.636-6.214,0.671c0.104,0.108,0.178,0.229,0.219,0.354
		c0.061,0.15,0.143,0.227,0.246,0.227c0.027,0,0.063-0.002,0.109-0.008c2.019-0.096,4.09-0.342,6.213-0.737
		c0.188-0.035,0.341-0.056,0.459-0.056c0.132,0,0.197-0.039,0.197-0.114c0-0.056-0.031-0.115-0.096-0.179
		c-0.123-0.123-0.282-0.256-0.479-0.396C320.896,287.775,320.678,287.855,320.409,287.904L320.409,287.904z M315.494,289.49
		c-0.021,0-0.063,0.013-0.123,0.035l-0.171,0.088c-0.104,0.041-0.157,0.076-0.157,0.104c0,0.014,0.009,0.033,0.027,0.061
		c0.313,0.466,0.566,0.998,0.759,1.601c0.019,0.061,0.043,0.09,0.075,0.09c0.021,0,0.072-0.016,0.15-0.049l0.211-0.082
		c0.104-0.045,0.157-0.084,0.157-0.115c0-0.014-0.007-0.037-0.021-0.068c-0.27-0.661-0.545-1.198-0.827-1.612
		C315.549,289.506,315.521,289.49,315.494,289.49L315.494,289.49z M318.141,291.207c0.014,0.059,0.035,0.088,0.067,0.088
		c0.022,0,0.075-0.021,0.157-0.062l0.212-0.082c0.091-0.036,0.137-0.073,0.137-0.108c0-0.015-0.005-0.035-0.014-0.063
		c-0.179-0.614-0.401-1.16-0.671-1.633c-0.019-0.033-0.04-0.049-0.067-0.049c-0.014,0-0.053,0.012-0.116,0.035l-0.212,0.067
		c-0.096,0.035-0.144,0.068-0.144,0.097c0,0.014,0.007,0.032,0.021,0.061C317.771,290.037,317.98,290.586,318.141,291.207
		L318.141,291.207z"/>
	<path fill="#20272F" d="M335.318,290.209c0.031,0.041,0.062,0.061,0.089,0.061c0.022,0,0.046-0.008,0.067-0.026l0.336-0.279
		c0.026-0.027,0.041-0.051,0.041-0.068c0-0.02-0.01-0.039-0.027-0.063c-0.516-0.76-1.045-1.324-1.586-1.688
		c-0.02-0.014-0.036-0.021-0.055-0.021c-0.02,0-0.037,0.008-0.056,0.021l-0.417,0.293
		C334.313,288.875,334.85,289.465,335.318,290.209L335.318,290.209z M336.467,289.285c0.027,0.036,0.055,0.055,0.082,0.055
		c0.02,0,0.039-0.006,0.063-0.021l0.32-0.28c0.032-0.027,0.049-0.056,0.049-0.082c0-0.021-0.01-0.047-0.027-0.074
		c-0.419-0.607-0.945-1.144-1.579-1.607c-0.019-0.014-0.034-0.02-0.048-0.02c-0.02,0-0.043,0.012-0.075,0.033l-0.362,0.28
		C335.494,288.021,336.021,288.594,336.467,289.285L336.467,289.285z M333.902,291.18c0.061-0.123,0.166-0.244,0.322-0.363
		c0.076-0.059,0.115-0.123,0.115-0.19c0-0.049-0.021-0.099-0.063-0.144c-0.131-0.164-0.293-0.303-0.484-0.418
		c-0.063-0.035-0.123-0.055-0.178-0.055c-0.063,0-0.121,0.021-0.172,0.063c-0.104,0.072-0.348,0.115-0.73,0.13l-3.384,0.055
		c0.19-0.281,0.367-0.56,0.526-0.826c0.127-0.219,0.277-0.396,0.451-0.533c0.09-0.063,0.137-0.137,0.137-0.219
		c0-0.064-0.032-0.117-0.096-0.158c-0.283-0.182-0.563-0.319-0.842-0.416c-0.087,0.424-0.244,0.842-0.472,1.258
		c-0.957,1.744-2.283,3.261-3.979,4.546c0.174,0.063,0.348,0.172,0.521,0.321c0.046,0.035,0.089,0.056,0.13,0.056
		c0.046,0,0.104-0.033,0.178-0.097c1.244-1.09,2.266-2.182,3.063-3.274l4.26-0.082c-0.564,1.377-1.283,2.612-2.153,3.713
		c-0.651-0.476-1.376-0.928-2.174-1.361c-0.036-0.021-0.065-0.033-0.089-0.033s-0.061,0.021-0.109,0.062
		c-0.187,0.188-0.316,0.334-0.39,0.438c0.938,0.507,1.694,1,2.271,1.484c-1.391,1.635-3.137,2.941-5.236,3.916
		c0.265,0.104,0.47,0.229,0.615,0.377c0.041,0.045,0.086,0.067,0.137,0.067c0.046,0,0.098-0.016,0.156-0.049
		c2.028-1.11,3.672-2.405,4.93-3.883c0.568,0.461,1.113,0.992,1.634,1.595c0.032,0.04,0.06,0.061,0.082,0.061
		s0.058-0.016,0.103-0.047c0.174-0.133,0.299-0.258,0.377-0.377c0.031-0.041,0.047-0.074,0.047-0.103
		c0-0.032-0.016-0.063-0.047-0.096c-0.528-0.58-1.102-1.109-1.717-1.594C332.471,293.926,333.225,292.65,333.902,291.18
		L333.902,291.18z"/>
	<path fill="#20272F" d="M340.671,291.152c0.009,0.123,0.056,0.185,0.138,0.185c0.014,0,0.026,0,0.041,0
		c0.637-0.041,1.34-0.062,2.104-0.062h2.249c1.074,0,1.892,0.009,2.447,0.027c0.113,0,0.17-0.051,0.17-0.15v-0.52
		c0-0.092-0.057-0.137-0.17-0.137c-0.738,0.034-1.56,0.055-2.461,0.055h-2.235c-0.697,0-1.472-0.027-2.324-0.082
		C340.63,290.715,340.645,290.941,340.671,291.152L340.671,291.152z M339.018,297.018c0.014,0.123,0.071,0.185,0.178,0.185
		c0.014,0,0.029,0,0.048,0c0.875-0.05,1.716-0.074,2.522-0.074h4.627c1.377,0,2.387,0.008,3.028,0.026
		c0.142,0,0.212-0.061,0.212-0.178v-0.465c0-0.109-0.07-0.164-0.212-0.164c-0.848,0.035-1.866,0.055-3.056,0.055h-4.614
		c-1.094,0-2.019-0.022-2.774-0.067C338.998,296.697,339.012,296.926,339.018,297.018L339.018,297.018z"/>
	<path fill="#20272F" d="M359.805,291.049c1.025,0,1.832,0.014,2.42,0.041c0.104,0,0.157-0.049,0.157-0.15v-0.492
		c0-0.081-0.046-0.122-0.137-0.122c-0.894,0.026-1.711,0.041-2.454,0.041h-3.5c-0.989,0-1.745-0.019-2.27-0.056
		c0,0.226,0.009,0.431,0.026,0.615c0.022,0.119,0.075,0.178,0.157,0.178c0.609-0.035,1.314-0.055,2.111-0.055h1.457v5.481h-2.646
		c-1.018,0-1.818-0.021-2.406-0.067c0,0.143,0.014,0.356,0.041,0.649c0.022,0.123,0.094,0.185,0.213,0.185
		c1.103-0.045,1.819-0.068,2.152-0.068h6.036c0.369,0,0.918,0.01,1.647,0.027c0.351,0.006,0.621,0.01,0.813,0.014
		c0.123,0,0.186-0.053,0.186-0.156v-0.485c0-0.104-0.041-0.156-0.123-0.156c-0.022,0-0.043,0-0.063,0
		c-1.176,0.041-2.001,0.062-2.475,0.062h-2.592v-5.482h1.248V291.049z"/>
	<path fill="#20272F" d="M373.176,291.363c0-0.924,0.047-1.457,0.137-1.6c0.047-0.068,0.068-0.127,0.068-0.178
		c0-0.072-0.046-0.125-0.137-0.156c-0.246-0.074-0.567-0.119-0.965-0.137c0.092,0.373,0.138,1.067,0.138,2.084v4.52
		c0,0.65-0.019,1.033-0.056,1.148c-0.019,0.063-0.026,0.117-0.026,0.164c0,0.059,0.015,0.106,0.041,0.143
		c0.097,0.137,0.248,0.301,0.458,0.492c0.041,0.037,0.087,0.055,0.137,0.055c0.068,0,0.133-0.026,0.191-0.082
		c0.109-0.108,0.268-0.221,0.472-0.334c0.853-0.471,1.646-0.983,2.38-1.545c0.824-0.629,1.563-1.281,2.215-1.955
		c0.063-0.063,0.096-0.125,0.096-0.186c0-0.031-0.01-0.068-0.027-0.109c-0.082-0.205-0.132-0.442-0.15-0.717
		c-0.691,0.811-1.508,1.576-2.446,2.297c-0.779,0.596-1.62,1.119-2.522,1.564v-5.469H373.176z M369.45,291.486
		c0,1.474-0.263,2.724-0.786,3.754c-0.528,1.054-1.266,1.894-2.208,2.521c0.241,0.037,0.446,0.135,0.614,0.295
		c0.037,0.027,0.074,0.041,0.109,0.041c0.051,0,0.116-0.033,0.198-0.096c0.866-0.707,1.533-1.529,2.003-2.47
		c0.553-1.102,0.842-2.438,0.868-4.006c0.015-0.444,0.065-0.744,0.157-0.895c0.027-0.055,0.041-0.107,0.041-0.158
		c0-0.086-0.036-0.141-0.109-0.164c-0.205-0.067-0.547-0.129-1.025-0.184C369.404,290.459,369.45,290.912,369.45,291.486
		L369.45,291.486z"/>
	<path fill="#20272F" d="M385.542,292.889c-0.246,0.219-0.369,0.49-0.369,0.813c0,0.278,0.097,0.524,0.287,0.737
		c0.224,0.246,0.497,0.369,0.819,0.369c0.279,0,0.521-0.096,0.731-0.287c0.241-0.223,0.362-0.496,0.362-0.819
		c0-0.277-0.094-0.521-0.28-0.73c-0.219-0.242-0.489-0.363-0.813-0.363C385.998,292.607,385.752,292.701,385.542,292.889
		L385.542,292.889z"/>
	<path fill="#20272F" d="M397.621,291.248c-0.747,0.127-1.477,0.225-2.188,0.293c0.09,0.36,0.151,0.58,0.185,0.655
		c0.032,0.074,0.073,0.109,0.123,0.109c0.019,0,0.043-0.002,0.075-0.006c0.568-0.146,1.203-0.275,1.899-0.391l1.75-0.293
		l0.521,2.475l-2.394,0.438c-0.729,0.132-1.489,0.244-2.282,0.334c0.063,0.229,0.125,0.435,0.185,0.615
		c0.026,0.088,0.067,0.131,0.123,0.131c0.022,0,0.055-0.008,0.096-0.021c0.656-0.154,1.328-0.293,2.017-0.416l2.399-0.424
		l0.431,2.069c0.241,1.187,0.389,1.92,0.438,2.201c0.019,0.102,0.062,0.15,0.13,0.15c0.02,0,0.039-0.003,0.063-0.007
		c0.236-0.051,0.41-0.094,0.52-0.131c0.063-0.018,0.096-0.057,0.096-0.115c0-0.02-0.005-0.038-0.014-0.063
		c-0.178-0.76-0.348-1.494-0.506-2.201l-0.432-2.028l2.42-0.451c0.844-0.156,1.502-0.271,1.977-0.35
		c0.077-0.009,0.116-0.06,0.116-0.15c0-0.014,0-0.027,0-0.041c-0.041-0.209-0.08-0.359-0.116-0.451
		c-0.02-0.063-0.048-0.096-0.089-0.096c-0.019,0-0.043,0.006-0.075,0.014c-0.583,0.156-1.229,0.295-1.936,0.418l-2.434,0.451
		l-0.52-2.469l1.764-0.32c0.788-0.143,1.475-0.262,2.059-0.363c0.076-0.008,0.115-0.043,0.115-0.102
		c0-0.014-0.002-0.033-0.007-0.055c-0.041-0.211-0.077-0.363-0.108-0.459c-0.022-0.063-0.054-0.097-0.09-0.097
		c-0.014,0-0.035,0.006-0.067,0.015c-0.726,0.174-1.401,0.313-2.03,0.418l-1.777,0.319l-0.267-1.346
		c-0.056-0.283-0.082-0.531-0.082-0.746c0-0.109,0.009-0.223,0.026-0.342c0.006-0.027,0.008-0.049,0.008-0.068
		c0-0.086-0.063-0.139-0.191-0.155c-0.091-0.015-0.221-0.021-0.39-0.021c-0.214,0-0.41,0.012-0.588,0.035
		c0.187,0.346,0.342,0.813,0.465,1.399l0.294,1.354L397.621,291.248z"/>
	<path fill="#20272F" d="M413.262,290.297c-0.67,2.197-1.547,4.539-2.632,7.027c-0.36,0.022-0.668,0.034-0.923,0.034
		c-0.251,0-0.484-0.012-0.704-0.034c0.104,0.415,0.203,0.737,0.294,0.971c0.032,0.073,0.089,0.108,0.171,0.108
		c0.063,0,0.128-0.021,0.191-0.067c0.2-0.127,0.677-0.226,1.429-0.293c2.564-0.242,4.895-0.521,6.986-0.842
		c0.214,0.375,0.41,0.778,0.588,1.217c0.041,0.088,0.089,0.131,0.145,0.131c0.019,0,0.041-0.008,0.067-0.021
		c0.178-0.086,0.337-0.176,0.479-0.266c0.055-0.037,0.082-0.08,0.082-0.131c0-0.027-0.01-0.057-0.027-0.088
		c-0.84-1.732-1.725-3.146-2.659-4.246c-0.046-0.063-0.091-0.096-0.138-0.096c-0.031,0-0.069,0.014-0.115,0.041
		c-0.063,0.032-0.225,0.131-0.479,0.295c0.678,0.787,1.262,1.629,1.75,2.521c-1.914,0.301-4.028,0.529-6.345,0.685
		c0.998-2.229,1.89-4.558,2.673-6.986c0.155-0.469,0.328-0.801,0.521-0.998c0.073-0.076,0.108-0.15,0.108-0.219
		c0-0.06-0.026-0.107-0.082-0.144c-0.265-0.17-0.613-0.309-1.045-0.418C413.583,288.967,413.473,289.572,413.262,290.297
		L413.262,290.297z"/>
	<path fill="#20272F" d="M432.088,296.723l1.347,0.027c0.063,0,0.097-0.031,0.097-0.097v-0.424c0-0.063-0.032-0.096-0.097-0.096
		l-1.347,0.027h-1.538v-1.873h1.847l1.947,0.026c0.063,0,0.097-0.03,0.097-0.096v-0.424c0-0.072-0.032-0.109-0.097-0.109
		l-1.947,0.027h-3.958l-1.948-0.027c-0.063,0-0.097,0.037-0.097,0.109v0.424c0,0.064,0.032,0.096,0.097,0.096l1.948-0.026h1.496
		v4.266c-0.834-0.306-1.523-0.906-2.07-1.805c0.123-0.392,0.217-0.718,0.279-0.978c0.041-0.143,0.088-0.244,0.138-0.309
		c0.067-0.086,0.103-0.148,0.103-0.185c0-0.063-0.062-0.118-0.185-0.163c-0.173-0.064-0.369-0.121-0.588-0.173
		c0,0.271-0.022,0.519-0.068,0.746c-0.155,0.72-0.371,1.338-0.649,1.853c-0.419,0.771-1.021,1.409-1.805,1.922
		c0.118,0.045,0.23,0.129,0.335,0.252c0.082,0.102,0.145,0.149,0.186,0.149c0.035,0,0.094-0.03,0.171-0.096
		c0.843-0.684,1.468-1.504,1.873-2.461c0.486,0.793,1.126,1.367,1.914,1.723c0.834,0.375,2.058,0.584,3.671,0.629h1.094
		c0.101,0,0.162-0.008,0.185-0.026c0.032-0.021,0.061-0.095,0.082-0.211c0.041-0.16,0.102-0.295,0.179-0.404
		c-0.384,0.023-0.767,0.035-1.148,0.035c-0.146,0-0.289-0.002-0.431-0.008c-1.112-0.027-1.994-0.125-2.646-0.293v-2.031h1.536
		V296.723z M425.867,294.023c0.104-0.055,0.166-0.096,0.185-0.123c0.027-0.032,0.041-0.106,0.041-0.227
		c0-0.178,0.005-0.318,0.015-0.424c-0.483,0.272-1.006,0.535-1.565,0.787v-3.043h0.109l1.292,0.034c0.063,0,0.096-0.034,0.096-0.104
		v-0.443c0-0.067-0.032-0.104-0.096-0.104l-1.292,0.026h-0.109v-1.284c0-0.638,0.022-1.021,0.068-1.148
		c0.06-0.131,0.089-0.217,0.089-0.252c0-0.061-0.054-0.096-0.157-0.109c-0.21-0.041-0.453-0.067-0.731-0.082
		c0.068,0.314,0.104,0.851,0.104,1.605v1.271h-0.533l-1.299-0.026c-0.068,0-0.104,0.035-0.104,0.104v0.443
		c0,0.068,0.034,0.104,0.104,0.104l1.299-0.034h0.533v3.295c-0.282,0.108-0.54,0.203-0.772,0.28
		c-0.438,0.15-0.843,0.267-1.217,0.349c0.082,0.237,0.166,0.446,0.253,0.629c0.036,0.074,0.082,0.108,0.137,0.108
		c0.051,0,0.104-0.026,0.157-0.082c0.086-0.086,0.261-0.18,0.521-0.278c0.492-0.191,0.8-0.313,0.923-0.363v3.526
		c0,0.261-0.036,0.443-0.109,0.548c-0.082,0.123-0.236,0.186-0.465,0.186c-0.415,0-0.757-0.021-1.024-0.063
		c0.113,0.164,0.188,0.319,0.226,0.465c0.027,0.104,0.053,0.17,0.075,0.19c0.026,0.023,0.101,0.035,0.219,0.035
		c0.706,0,1.164-0.076,1.374-0.227c0.123-0.086,0.207-0.191,0.253-0.314c0.063-0.145,0.096-0.381,0.096-0.703l-0.014-1.895v-2.029
		C425.02,294.441,425.462,294.232,425.867,294.023L425.867,294.023z M427.412,288.055c-0.063,0-0.096,0.033-0.096,0.096l0.026,1.293
		v1.709l-0.026,1.291c0,0.064,0.031,0.097,0.096,0.097l1.682-0.027h2.312l1.688,0.027c0.068,0,0.104-0.031,0.104-0.097l-0.027-1.291
		v-1.709l0.027-1.293c0-0.063-0.034-0.096-0.104-0.096l-1.688,0.027h-2.312L427.412,288.055z M427.945,288.629h4.606v1.375h-4.606
		V288.629z M432.553,290.523v1.441h-4.606v-1.441H432.553z"/>
	<path fill="#20272F" d="M447.394,299.129v0.573c0,0.064,0.032,0.097,0.097,0.097h0.465c0.063,0,0.096-0.031,0.096-0.097
		l-0.026-2.563v-1.402l0.026-1.522c0-0.064-0.032-0.096-0.096-0.096l-1.907,0.026h-3.329l-1.907-0.026
		c-0.063,0-0.096,0.03-0.096,0.096l0.027,1.723v1.258l-0.027,2.59c0,0.068,0.032,0.104,0.096,0.104h0.466
		c0.063,0,0.096-0.035,0.096-0.104v-0.655L447.394,299.129L447.394,299.129z M441.371,294.707h6.021v1.592h-6.021V294.707z
		 M447.394,296.832v1.749h-6.021v-1.749H447.394z M441.61,288.158c-0.063,0-0.097,0.03-0.097,0.096l0.027,1.332v1.94l-0.027,1.349
		c0,0.063,0.032,0.096,0.097,0.096l1.653-0.027h2.194l1.668,0.027c0.063,0,0.096-0.033,0.096-0.096l-0.026-1.349v-1.94l0.026-1.332
		c0-0.064-0.031-0.096-0.096-0.096l-1.668,0.026h-2.194L441.61,288.158z M446.58,290.775v1.621h-4.423v-1.621H446.58z
		 M442.157,288.732h4.423v1.523h-4.423V288.732z M439.218,294.918v0.896c0,0.063,0.032,0.097,0.097,0.097h0.438
		c0.063,0,0.096-0.033,0.096-0.097l-0.026-3.008v-1.867l0.026-1.961c0-0.063-0.031-0.096-0.096-0.096l-1.039,0.027h-0.964
		l-1.053-0.027c-0.063,0-0.097,0.031-0.097,0.096l0.027,2.324v1.77l-0.027,3.222c0,0.063,0.032,0.096,0.097,0.096h0.45
		c0.063,0,0.097-0.033,0.097-0.096v-1.375H439.218z M437.242,289.471h1.976v4.873h-1.976V289.471z"/>
</g>
<path fill="#9F9F9F" d="M149.691,48.593c0.407-0.104,0.638,0.61,0.999,0.713c11.996-1.063,24.896-6.275,36.187-4.109
	c1.924,0.052,4.77-1.375,6.092-0.34c0.387,0.569-0.741,0.679-0.986,0.804c1.765,1.755,2.269-1.813,3.86-1.244
	c0.658,0.665-0.07,0.99,0.015,1.514c1.4,0.205,2.521-1.931,4.235-2.435c0.462,1.098-1.962,2.451-2.978,3.565
	c-0.343,0.51-0.372-0.417-0.658-0.165c-4.699,3.521-8.115,7.369-10.936,11.361c-2.74,2.678-9.059,6.555-10.91,10.197
	c-0.992,1.964-0.845,5.365-1.424,7.564c-0.372,1.422-1.13,3.039-2.234,3.873c0.376-3.44,2.486-6.445,2.53-9.969
	c-3.967,3.159-5.702,7.73-9.34,10.946c-0.172-0.276-0.343-0.553-0.513-0.826c-0.212,1.163-2.108,1.625-3.174,2.347
	c-0.342,1.993,3.396,3.862,3.41,6.098c-4.058-3.718-7.267-8.418-10.854-13.314c0.234-0.698,1.013-0.328,1.462-0.336
	c0.155-0.158-0.103-0.413-0.211-0.641c0.435-0.39,0.771-0.349,1.113-0.299c-1.082-2.113-3.175,0.396-4.583-0.22
	c-0.424,0.439-0.622,0.936-0.776,1.44c-6.88,4.166-12.207,9.613-17.312,15.123c0.198-1.155,1.956-1.92,2.394-3.014
	c-5.036,2.489-9.411,7.696-13.626,11.5c-0.245,0.369-0.569,0.711-0.594,1.136c-3.498,2.483-5.833,6.207-8.856,8.733
	c-2.375,2.053-2.512,5.271-4.103,7.129c-0.042-0.864,0.358-1.619,0.312-2.486c-4.29,6.073-6.791,12.595-10.37,18.842
	c0.147,0.775,0.25,1.541,0.089,2.238c1.564,1.072,2.449,2.049,4.049,2.642c-0.58,0.707-1.711-0.647-2.55-0.522
	c0.117,0.657,1.875,0.796,1.907,1.879c-1.745,1.095-3.421-2.234-5.727-0.269c-0.522-0.834-0.262-1.464-0.661-2.263
	c-0.979-0.021-2.155,0.175-3.021,1.104c-1.973-1.026-4.726-0.854-6.702-2.141c-1.218-0.794-2.145-2.192-3.65-2.895
	c-1.411-0.664-2.433,0.582-3.835,0.085c-0.372-0.715,0.914-1.014,1.482-1.489c-1.402-1.489-3.656-1.424-4.511-3.695
	c0.291-0.489,0.679-0.517,1.202-0.745c11.894-16.352,21.966-33.503,39.45-47.563c8.931-7.14,21.524-13.536,32.079-19.701
	c0.243-1.809-1.361-2.676-2.477-3.995c0.845-0.938-0.158-2.051-0.822-3.121c0.087-0.334,0.798-0.536,1.155-0.525
	C144.763,47.523,147.834,49.812,149.691,48.593z M148.221,51.598c1.421-0.502,3.227,0.067,4.287-0.556
	c-1.847-0.372-3.599-1.184-5.581-0.934C147.318,50.79,147.793,51.11,148.221,51.598z M151.999,52.314
	c-1.02,0.438-1.816-0.149-2.874,0.443C149.84,53.381,151.394,52.947,151.999,52.314z M182.406,50.838
	c-0.956,0.308-1.702-0.355-2.646-0.079c0.038,0.512,0.256,1.071-0.424,1.401c-0.61,0.331-0.986-0.412-1.437-0.821
	c-4.241-0.196-8.848,2.681-12.646-0.369c-4.699-0.048-9.995,2.668-14.835,3.275c2.059,2.761,7.003,4.867,5.353,8.332
	c0.035-1.333-1.203-3.665-2.616-3.918c0.382,1.416,1.369,2.985,0.492,4.085c-0.584-0.838-1.429-0.515-1.947-1.65
	c-0.475,0.15-0.401,0.443-0.718,0.633c-0.266-0.686,0.578-1.099-0.053-1.875c-1.313,0.819,0.293,2.079-0.496,2.786
	c-0.721,0.523-1.367-0.47-1.476-1.185c-0.909,1.024-2.074,0.913-3.057,0.751c-5.52,5.042-12.241,10.75-18.909,15.538
	c-0.544-0.492-1.235-0.325-1.789-0.8c2.695-3.363,6.676-5.408,9.295-8.624c-3.064,2.087-7.415,5.188-9.186,7.604
	c-0.345,0.153-0.487-0.602-0.877-0.217c-5.032,4.346-11.346,8.951-15.387,13.741c4.982-2.378,7.547-8.772,12.955-8.99
	c-5.49,2.29-7.793,7.952-12.723,10.562c-0.479,0.253-1.546,0.124-2.299,0.474c-2.133,0.995-5.076,4.981-6.401,7.021
	c-1.992,3.085-3.457,6.394-5.549,8.98c-0.5-0.011-0.883-0.55-1.451-0.25c-0.622,1.322-2.484,2.953-2.063,4.148
	c0.435-0.938,2.292-2.395,3.299-1.854c0.527-0.585,1.397-2.14,2.374-1.854c-4.501,5.746-10.02,11.24-12.946,17.384
	c0.14,0.223,0.418-0.153,0.571,0.022c-0.557,0.327-1.114,0.651-1.389,1.052c3.409,1.172,6.963,1.679,10.64,1.615
	c0.593-3.271-0.196-7.506,2.177-9.94c0.59,0.966-0.023,1.625,0.041,2.456c4.778-7.781,10.907-15.099,17.576-22.162
	c2.715-2.881,5.221-6.738,9.1-7.741c-0.142,0.272-0.108,0.59,0.245,0.988c7.809-7.159,18.796-15.188,28.849-21.321
	c-0.084-0.137-0.169-0.272-0.254-0.41c-0.484-0.444-0.19,0.853-0.671,0.416c-0.499-1.031-1.566-2.158-0.824-3.12
	c1.694-0.1,2.244,2.339,3.647,2.89c1.053,0.129,2.499-1.535,3.264-0.113c0.113,0.842-1.247,1.317-1.489,2.073
	c2.743,0.672,2.891,5.039,5.842,5.541c3.676-5.087,7.3-9.48,11.695-14.313c-0.319-2.761-1.057-5.626-1.514-8.421
	c-0.224-0.54-0.8,0.495-1.01-0.137c-0.569-1.849,1.368-1.738,2.283-1.988c-0.602,3.033,0.329,6.449,1.092,9.828
	c4.453-5.024,10.757-9.586,15.008-14.656c-1.994,0.119-3.948,0.063-6.003,0.479c-0.345,0.291,0.9,0.338,0.512,0.824
	c-0.171,0.153-0.089,0.37-0.233,0.526c-0.606,0.386-1.552-0.509-1.594,0.417C182.704,49.115,183.076,50.428,182.406,50.838z
	 M185.317,45.972c-7.217,0.302-13.747,0.699-21.296,2.709C170.885,48.483,178.497,47.728,185.317,45.972z M121.293,76.315
	c4.051-0.997,6.206-4.345,9.833-6.857C128.031,70.621,123.945,74.688,121.293,76.315z M117.645,80.297
	c1-0.905,2.657-1.906,3.005-2.625C119.573,78.082,118.11,79.35,117.645,80.297z M109.564,85.499c0.77-0.938,2.509-1.624,2.787-2.683
	C111.272,83.672,110.031,84.489,109.564,85.499z M106.779,88.178c0.842-0.566,1.58-1.158,1.799-1.88
	C107.549,86.815,107.028,87.465,106.779,88.178z M134.976,70.884c0.459-0.273,0.96-0.536,0.898-0.938
	C135.45,70.439,135.044,70.256,134.976,70.884z M110.203,86.823c-0.046,0.098,1.146-0.479,0.759-0.86
	C110.629,85.776,109.926,86.468,110.203,86.823z M133.543,72.16c0.354-0.221,0.727-0.527,1.022-0.442
	c-0.213-0.251,0.009-0.389,0.009-0.584C134.425,71.584,133.361,71.45,133.543,72.16z M173.778,50.075
	c-2.083,0.861-4.22-0.813-6.057,0.693C169.691,50.421,171.941,51.578,173.778,50.075z M106.878,89.834
	c0.998-1.033,2.2-1.31,2.521-2.514C108.592,87.76,107.385,88.95,106.878,89.834z M180.096,49.209
	c-0.465,0.124-0.035-0.454-0.427-0.688c-0.822,0.063-1.599-0.09-2.52,0.415C178.005,49.261,179.432,49.786,180.096,49.209z
	 M190.738,46.048c-0.54-0.117-2.294,0.094-2.167,0.386C189.196,46.428,190.451,46.297,190.738,46.048z M89.799,111.306
	c0.532-0.486,0.79-1.046,0.829-1.655C90.061,110.129,90.072,110.757,89.799,111.306z M106.496,107.447
	c4.545-5.168,11.465-10.303,15.03-15.813C115.726,95.828,110.433,102.027,106.496,107.447z M136.107,83.167
	c2.196-1.601,4.15-2.441,6.165-4.396C139.991,80.248,137.227,81.376,136.107,83.167z M187.681,51.575
	c1.941-1.075,4.996-2.492,4.974-4.231C191.342,49.029,188.61,49.723,187.681,51.575z M183.555,55.086
	c0.68-0.654,1.355-0.59,1.353-1.409C184.314,54.113,183.851,54.576,183.555,55.086z M86.549,119.814
	c2.29-3.12,5.078-6.104,7.014-9.31C90.648,113.302,88.246,116.47,86.549,119.814z M134.493,86.847
	c0.498,0.063,1.282-0.548,1.031-1.03C135.131,86.151,134.253,86.354,134.493,86.847z M185.654,56.075
	c0.577-0.44,0.861-0.948,1.133-1.464C186.203,55.047,185.332,55.411,185.654,56.075z M157.487,78.503
	c0.17-1.834-1.477-2.939-2.842-3.393C155.779,76.245,156.387,78.265,157.487,78.503z M116.186,103.349
	c4.042-3.962,7.669-7.319,11.236-11.169C122.628,95.641,118.771,99.338,116.186,103.349z M170.761,67.029
	c-1.876,2.148-3.985,4.811-5.287,6.709C168.164,72.212,170.141,68.643,170.761,67.029z M81.256,124.433
	c-0.014-0.432-0.002-0.854,0.156-1.243C80.948,123.477,80.392,124.528,81.256,124.433z M98.146,119.685
	c1.686-1.915,3.875-4.691,4.813-7.186C100.986,114.341,99.073,117.2,98.146,119.685z M158.746,79.63
	c0.267-0.165,0.534-0.332,0.803-0.498c-0.151-0.307-0.289-1.118-0.902-1.161C158.846,78.572,158.194,78.946,158.746,79.63z
	 M109.887,109.924c0.817-0.956,2.181-1.781,2.26-2.924C111.3,107.946,109.873,108.759,109.887,109.924z M78.789,128.824
	c-0.078-0.177-0.265-0.381-0.118-0.494c0.145-0.199,0.792-0.27,0.584-0.555C78.549,127.552,77.762,128.967,78.789,128.824z
	 M162.966,77.775c1.167,0.013,2.163-1.802,2.568-2.735C164.492,75.783,163.299,76.788,162.966,77.775z M162.012,79.517
	c0.332-0.227,0.587-0.476,0.63-0.772c-0.289,0.098-0.486-0.242-0.841,0.139C161.959,79.12,162.039,79.33,162.012,79.517z
	 M159.333,81.178c0.143,0.229,0.286,0.46,0.427,0.688c0.263-0.255,0.515-0.696,0.938-0.582c-0.102-0.334,0.089-0.6-0.247-0.991
	C159.816,80.164,159.714,80.879,159.333,81.178z M102.239,120.008c1.665-1.188,2.891-3.348,3.451-5.191
	C103.839,116.374,102.742,118.118,102.239,120.008z M97.04,122.091c0.56-0.294,0.656-1.303,0.428-1.408
	C97.516,121.197,97.009,121.582,97.04,122.091z M92.781,130.463c0.109-0.561,0.646-1.006,0.689-1.577
	c-2.468-0.353-4.924-0.755-7.477-0.706C88.164,129.341,90.403,130.223,92.781,130.463z M102.398,120.869
	c0.482-0.347,0.729-0.749,0.731-1.215C102.945,120.075,102.355,120.393,102.398,120.869z M87.046,132.87
	c-0.831-0.438-1.495-1.629-2.534-1.1C85.319,132.308,86.156,132.701,87.046,132.87z M95.646,125.817
	c-0.055-0.358,0.726-0.518,0.545-0.911C95.821,124.72,95.011,125.775,95.646,125.817z M101.536,122.166
	c-0.926,1.13-1.659,2.305-2.052,3.563C100.434,124.61,101.016,123.399,101.536,122.166z M90.375,134.054
	c-0.232-1.023-1.156-1.188-1.916-1.294C89.011,133.581,89.587,134.29,90.375,134.054z M91.543,135.042
	c0.293-0.1,0.487,0.251,0.846-0.133c-0.193-0.242-0.041-0.398-0.211-0.641C91.825,134.497,91.342,134.684,91.543,135.042z
	 M99.233,136.386c0.04-0.447-0.712-0.652-1.13-0.631C98.413,136.255,98.826,136.328,99.233,136.386z"/>
<path fill="#9F9F9F" d="M94.833,215.075c-0.221-0.357,0.389-0.792,0.377-1.169c-4.641-11.111-13.509-21.834-14.859-33.25
	c-0.533-1.849-2.753-4.13-2.166-5.703c0.425-0.54,0.87,0.502,1.063,0.696c1.139-2.213-2.414-1.613-2.353-3.303
	c0.435-0.829,0.966-0.231,1.439-0.473c-0.228-1.396-2.603-1.818-3.602-3.302c0.907-0.771,2.93,1.131,4.3,1.761
	c0.59,0.174-0.285,0.479,0.042,0.678c4.776,3.416,9.478,5.508,14.135,6.988c3.381,1.803,8.988,6.651,13.019,7.315
	c2.172,0.353,5.37-0.816,7.642-0.93c1.468-0.076,3.238,0.157,4.367,0.957c-3.393,0.684-6.895-0.42-10.268,0.604
	c4.211,2.826,9.094,3.099,13.258,5.595c-0.212,0.246-0.423,0.492-0.632,0.736c1.173-0.148,2.186,1.52,3.197,2.315
	c2.003-0.275,2.654-4.404,4.782-5.094c-2.317,4.992-5.827,9.472-9.411,14.371c-0.736-0.013-0.618-0.865-0.762-1.291
	c-0.198-0.102-0.363,0.223-0.546,0.395c-0.502-0.297-0.565-0.63-0.622-0.971c-1.688,1.67,1.336,2.906,1.176,4.435
	c0.547,0.271,1.08,0.311,1.608,0.306c6.051,5.298,12.855,8.728,19.649,11.928c-1.16,0.161-2.42-1.284-3.596-1.37
	c3.896,4.047,10.182,6.643,15.082,9.51c0.426,0.122,0.85,0.328,1.263,0.225c3.425,2.583,7.68,3.684,11.002,5.801
	c2.675,1.643,5.782,0.802,8.036,1.755c-0.812,0.302-1.651,0.147-2.465,0.455c7.086,2.253,14.059,2.665,21.095,4.188
	c0.695-0.375,1.394-0.705,2.107-0.763c0.55-1.815,1.212-2.953,1.293-4.658c0.849,0.34-0.1,1.827,0.273,2.589
	c0.591-0.311,0.191-2.027,1.214-2.386c1.57,1.333-1.097,3.938,1.476,5.54c-0.637,0.75-1.315,0.692-1.957,1.313
	c0.277,0.938,0.818,2.002,1.968,2.546c-0.383,2.189,0.614,4.763-0.014,7.035c-0.389,1.399-1.442,2.708-1.655,4.354
	c-0.206,1.545,1.291,2.143,1.24,3.63c-0.568,0.57-1.242-0.563-1.868-0.962c-0.995,1.786-0.251,3.915-2.158,5.417
	c-0.555-0.129-0.696-0.492-1.074-0.921c-19.182-6.393-38.576-10.808-57.265-23.222c-9.506-6.354-19.412-16.425-28.479-24.62
	c-1.797,0.314-2.138,2.106-3.059,3.568c-1.15-0.521-1.907,0.771-2.727,1.728c-0.344,0.019-0.751-0.599-0.85-0.941
	C95.303,220.096,96.556,216.476,94.833,215.075z M98.142,215.568c-0.909-1.203-0.912-3.096-1.826-3.919
	c0.204,1.872-0.04,3.788,0.799,5.603C97.645,216.673,97.806,216.123,98.142,215.568z M97.682,211.751
	c0.725,0.839,0.406,1.775,1.292,2.604C99.352,213.484,98.468,212.135,97.682,211.751z M87.081,183.213
	c0.583,0.817,0.176,1.729,0.725,2.547c0.477-0.191,0.943-0.568,1.464-0.021c0.5,0.481-0.095,1.064-0.349,1.617
	c1.096,4.103,5.23,7.623,3.472,12.165c1.375,4.493,5.566,8.722,7.608,13.149c2.01-2.797,2.522-8.146,6.323-7.621
	c-1.281,0.371-3.129,2.255-2.944,3.679c1.234-0.792,2.432-2.208,3.745-1.704c-0.621,0.812-0.058,1.519-0.983,2.355
	c0.287,0.407,0.543,0.248,0.82,0.492c-0.573,0.461-1.223-0.22-1.772,0.616c1.178,1.005,1.894-0.906,2.806-0.368
	c0.716,0.527-0.035,1.444-0.683,1.765c1.251,0.557,1.497,1.702,1.641,2.687c6.475,3.736,13.949,8.417,20.527,13.325
	c-0.304,0.668,0.063,1.275-0.221,1.946c-4.022-1.551-7.175-4.729-11.031-6.252c2.917,2.289,7.188,5.499,10.025,6.457
	c0.25,0.282-0.425,0.646,0.058,0.9c5.664,3.482,11.964,8.108,17.751,10.513c-3.772-4.03-10.645-4.542-12.487-9.63
	c3.843,4.541,9.937,5.023,13.914,8.934c0.386,0.381,0.586,1.438,1.146,2.049c1.596,1.732,6.284,3.332,8.628,3.979
	c3.543,0.966,7.139,1.361,10.238,2.572c0.142,0.48-0.257,1.009,0.2,1.46c1.449,0.191,3.566,1.475,4.578,0.712
	c-1.024-0.132-2.975-1.461-2.766-2.584c-0.718-0.326-2.461-0.686-2.484-1.702c6.838,2.553,13.743,6.151,20.484,7.085
	c0.169-0.201-0.273-0.354-0.151-0.552c0.48,0.433,0.959,0.863,1.423,1.006c0.086-3.604-0.506-7.146-1.678-10.63
	c-3.296,0.423-7.096,2.455-10.134,0.931c0.742-0.854,1.557-0.47,2.329-0.782c-8.861-2.2-17.689-5.83-26.439-10.052
	c-3.566-1.717-8.002-2.938-10.131-6.333c0.304,0.053,0.596-0.075,0.868-0.532c-9.184-5.278-20.161-13.324-29.046-21.052
	c-0.104,0.121-0.208,0.243-0.314,0.366c-0.276,0.596,0.871-0.077,0.599,0.513c-0.832,0.789-1.583,2.146-2.725,1.729
	c-0.606-1.586,1.551-2.848,1.652-4.352c-0.195-1.043-2.219-1.918-1.094-3.076c0.768-0.363,1.633,0.79,2.426,0.792
	c-0.188-2.816,3.93-4.277,3.515-7.243c-5.96-1.965-11.245-4.092-17.18-6.818c-2.535,1.139-5.043,2.708-7.569,3.988
	c-0.448,0.376,0.715,0.611,0.175,1.003c-1.59,1.103-2.071-0.777-2.586-1.574c3.074-0.345,6.049-2.265,9.04-4.014
	c-6.137-2.726-12.39-7.354-18.509-9.873c0.716,1.864,1.254,3.743,2.271,5.577c0.381,0.24,0.05-0.961,0.631-0.735
	c0.197,0.114,0.379-0.028,0.573,0.063c0.551,0.462-0.016,1.633,0.879,1.394C85.348,183.449,86.488,182.698,87.081,183.213z
	 M81.563,181.909c2.47,6.787,4.823,12.892,9.022,19.479C88.32,194.906,85.298,187.879,81.563,181.909z M129.844,233.762
	c-2.175-3.56-6.018-4.602-9.51-7.299C122.378,229.062,127.492,231.726,129.844,233.762z M134.743,236.035
	c-1.165-0.681-2.62-1.957-3.41-2.07C132.048,234.867,133.699,235.877,134.743,236.035z M142.144,242.164
	c-1.125-0.45-2.307-1.9-3.398-1.847C139.887,241.089,141.041,242.024,142.144,242.164z M145.541,244.009
	c-0.794-0.631-1.582-1.154-2.336-1.146C144.008,243.687,144.786,243.987,145.541,244.009z M120.53,222.361
	c-0.399-0.354-0.802-0.753-1.164-0.571C119.962,222.044,119.911,222.486,120.53,222.361z M143.213,241.155
	c0.105,0.017-0.805-0.945-1.051-0.462C142.086,241.065,142.959,241.526,143.213,241.155z M122.179,223.341
	c-0.317-0.271-0.722-0.533-0.73-0.84c-0.175,0.277-0.374,0.107-0.56,0.168C121.364,222.675,121.558,223.729,122.179,223.341z
	 M88.962,191.668c1.452,1.725,0.501,4.268,2.493,5.563C90.528,195.459,90.951,192.964,88.962,191.668z M147.089,243.414
	c-1.287-0.64-1.912-1.701-3.157-1.644C144.593,242.406,146.092,243.198,147.089,243.414z M86.226,185.906
	c0.259,0.406-0.422,0.173-0.527,0.615c0.309,0.767,0.397,1.552,1.158,2.275C86.909,187.884,86.977,186.365,86.226,185.906z
	 M79.996,176.719c0.051,0.551,0.783,2.158,1.022,1.949C80.824,178.074,80.32,176.918,79.996,176.719z M172.72,253.201
	c-0.625-0.36-1.236-0.438-1.828-0.29C171.519,253.308,172.114,253.106,172.72,253.201z M163.993,238.453
	c-6.3-2.771-13.287-7.813-19.616-9.547C150.126,233.168,157.635,236.339,163.993,238.453z M131.896,217.569
	c-2.189-1.609-3.581-3.218-6.054-4.548C127.938,214.75,129.851,217.044,131.896,217.569z M86.188,177.962
	c-1.612-1.526-3.886-4.009-5.537-3.462C82.654,175.242,84.142,177.637,86.188,177.962z M90.782,180.833
	c-0.829-0.45-0.973-1.113-1.752-0.862C89.625,180.404,90.207,180.705,90.782,180.833z M181.813,253.727
	c-3.667-1.239-7.354-2.994-10.996-3.871C174.366,251.788,178.112,253.12,181.813,253.727z M135.891,217.995
	c-0.091-0.493-0.909-1.057-1.293-0.672C135.035,217.597,135.495,218.373,135.891,217.995z M91.091,178.533
	c-0.595-0.416-1.165-0.534-1.738-0.638C89.945,178.32,90.555,179.041,91.091,178.533z M120.986,198.6
	c-1.8,0.394-2.355,2.297-2.375,3.735C119.35,200.911,121.091,199.721,120.986,198.6z M157.158,230.456
	c-4.999-2.655-9.296-5.099-14.044-7.334C147.861,226.645,152.552,229.205,157.158,230.456z M106.035,189.416
	c2.615,1.14,5.79,2.346,7.994,3.012C111.761,190.326,107.761,189.52,106.035,189.416z M187.816,257.375
	c-0.408,0.145-0.814,0.261-1.232,0.228C186.998,257.957,188.167,258.17,187.816,257.375z M178.183,242.711
	c-2.335-1.028-5.645-2.274-8.305-2.414C172.23,241.62,175.534,242.579,178.183,242.711z M121.68,197.06
	c-0.238-0.204-0.478-0.409-0.717-0.614c-0.246,0.236-0.978,0.613-0.833,1.211C120.64,197.283,121.194,197.793,121.68,197.06z
	 M165.329,234.472c-1.158-0.49-2.356-1.54-3.47-1.271C163.016,233.723,164.223,234.837,165.329,234.472z M192.747,258.399
	c-0.144,0.127-0.282,0.367-0.436,0.263c-0.233-0.078-0.495-0.675-0.704-0.392C191.608,259.013,193.194,259.335,192.747,258.399z
	 M118.634,193.598c-0.341-1.116-2.371-1.518-3.384-1.621C116.274,192.746,117.593,193.579,118.634,193.598z M120.584,193.98
	c-0.317-0.248-0.631-0.416-0.928-0.367c0.181,0.246-0.083,0.537,0.387,0.761C120.221,194.15,120.397,194.012,120.584,193.98z
	 M122.977,196.031c0.175-0.204,0.353-0.411,0.527-0.614c-0.322-0.174-0.819-0.279-0.838-0.72c-0.289,0.199-0.598,0.099-0.871,0.535
	C121.864,195.878,122.578,195.759,122.977,196.031z M177.253,238.712c-1.635-1.229-4.065-1.743-5.992-1.72
	C173.305,238.286,175.299,238.804,177.253,238.712z M180.811,243.038c-0.45-0.444-1.44-0.231-1.473,0.018
	C179.814,242.855,180.334,243.222,180.811,243.038z M190.079,244.566c-0.566,0.064-1.154-0.312-1.711-0.18
	c0.41,2.458,0.769,4.921,1.587,7.34C190.406,249.307,190.569,246.905,190.079,244.566z M178.025,238.3
	c-0.476-0.354-0.934-0.469-1.378-0.329C177.103,238.02,177.585,238.485,178.025,238.3z M194.106,249.306
	c-0.165,0.924-1.1,1.917-0.28,2.747C194.093,251.121,194.214,250.205,194.106,249.306z M184.784,243.241
	c-0.326,0.16-0.713-0.536-1.033-0.245C183.685,243.404,184.935,243.858,184.784,243.241z M179.522,238.73
	c1.357,0.541,2.699,0.885,4.017,0.878C182.185,239.041,180.855,238.853,179.522,238.73z M194.229,245.773
	c-0.905,0.531-0.782,1.462-0.654,2.219C194.19,247.218,194.692,246.453,194.229,245.773z M194.817,244.362
	c-0.183-0.25,0.092-0.54-0.382-0.767c-0.173,0.258-0.367,0.16-0.547,0.396C194.212,244.258,194.538,244.661,194.817,244.362z
	 M193.774,236.625c-0.438,0.098-0.406,0.877-0.26,1.269C193.897,237.447,193.84,237.031,193.774,236.625z"/>
<path fill="#9F9F9F" d="M335.906,253.255c-0.407,0.103-0.639-0.61-0.999-0.713c-11.996,1.063-24.896,6.273-36.187,4.108
	c-1.925-0.051-4.771,1.375-6.093,0.341c-0.386-0.569,0.742-0.679,0.985-0.804c-1.764-1.755-2.269,1.813-3.858,1.243
	c-0.657-0.665,0.07-0.99-0.017-1.514c-1.399-0.205-2.521,1.931-4.234,2.436c-0.462-1.099,1.963-2.452,2.979-3.565
	c0.344-0.512,0.371,0.416,0.658,0.165c4.699-3.521,8.114-7.37,10.936-11.361c2.74-2.678,9.059-6.556,10.91-10.197
	c0.992-1.964,0.846-5.365,1.424-7.564c0.372-1.423,1.131-3.038,2.234-3.872c-0.375,3.439-2.485,6.444-2.529,9.969
	c3.967-3.159,5.701-7.731,9.34-10.945c0.172,0.276,0.342,0.553,0.512,0.825c0.213-1.163,2.109-1.624,3.174-2.347
	c0.342-1.993-3.396-3.862-3.408-6.1c4.058,3.72,7.266,8.419,10.853,13.316c-0.233,0.698-1.012,0.327-1.461,0.335
	c-0.156,0.158,0.103,0.413,0.211,0.641c-0.435,0.39-0.771,0.349-1.112,0.3c1.082,2.112,3.174-0.396,4.582,0.22
	c0.424-0.439,0.622-0.937,0.776-1.44c6.879-4.166,12.206-9.613,17.312-15.123c-0.197,1.154-1.957,1.919-2.395,3.014
	c5.036-2.49,9.411-7.697,13.626-11.5c0.244-0.369,0.567-0.712,0.594-1.138c3.498-2.482,5.835-6.207,8.856-8.732
	c2.375-2.054,2.513-5.27,4.103-7.128c0.042,0.862-0.356,1.619-0.311,2.485c4.288-6.073,6.791-12.595,10.37-18.842
	c-0.147-0.774-0.252-1.541-0.09-2.238c-1.564-1.072-2.448-2.049-4.049-2.641c0.579-0.707,1.711,0.647,2.549,0.521
	c-0.117-0.657-1.875-0.796-1.906-1.88c1.744-1.094,3.421,2.236,5.727,0.271c0.523,0.834,0.264,1.463,0.661,2.263
	c0.979,0.02,2.155-0.175,3.021-1.105c1.974,1.026,4.727,0.854,6.703,2.141c1.217,0.794,2.145,2.193,3.648,2.896
	c1.41,0.663,2.434-0.583,3.835-0.086c0.372,0.715-0.913,1.014-1.481,1.49c1.401,1.488,3.656,1.423,4.512,3.694
	c-0.291,0.49-0.68,0.516-1.202,0.746c-11.894,16.352-21.966,33.502-39.45,47.563c-8.932,7.142-21.523,13.537-32.079,19.702
	c-0.241,1.81,1.362,2.675,2.478,3.995c-0.846,0.938,0.158,2.051,0.822,3.121c-0.088,0.334-0.798,0.536-1.154,0.525
	C340.834,254.325,337.764,252.036,335.906,253.255z M337.377,250.25c-1.422,0.502-3.227-0.066-4.287,0.556
	c1.846,0.372,3.598,1.183,5.581,0.933C338.279,251.058,337.805,250.737,337.377,250.25z M333.6,249.534
	c1.02-0.438,1.816,0.148,2.873-0.444C335.758,248.467,334.203,248.9,333.6,249.534z M303.191,251.01
	c0.957-0.309,1.703,0.354,2.646,0.079c-0.037-0.512-0.256-1.071,0.425-1.401c0.61-0.331,0.985,0.412,1.438,0.821
	c4.24,0.196,8.847-2.681,12.645,0.369c4.699,0.047,9.996-2.669,14.836-3.276c-2.059-2.761-7.004-4.867-5.354-8.331
	c-0.035,1.333,1.203,3.665,2.615,3.918c-0.381-1.416-1.367-2.984-0.491-4.085c0.585,0.837,1.429,0.515,1.948,1.65
	c0.475-0.15,0.399-0.443,0.717-0.633c0.266,0.685-0.577,1.099,0.053,1.875c1.313-0.819-0.292-2.079,0.496-2.786
	c0.721-0.522,1.367,0.47,1.477,1.185c0.908-1.024,2.074-0.913,3.058-0.752c5.52-5.042,12.239-10.75,18.907-15.537
	c0.545,0.491,1.235,0.325,1.789,0.799c-2.694,3.365-6.677,5.41-9.295,8.625c3.063-2.088,7.416-5.188,9.187-7.604
	c0.345-0.152,0.485,0.601,0.877,0.217c5.03-4.346,11.346-8.951,15.387-13.741c-4.981,2.378-7.548,8.772-12.954,8.99
	c5.489-2.289,7.793-7.952,12.723-10.562c0.479-0.252,1.547-0.123,2.299-0.474c2.134-0.996,5.076-4.981,6.4-7.021
	c1.992-3.085,3.459-6.394,5.549-8.98c0.502,0.012,0.884,0.55,1.451,0.25c0.621-1.322,2.484-2.954,2.063-4.148
	c-0.437,0.938-2.292,2.395-3.3,1.854c-0.527,0.586-1.397,2.141-2.373,1.854c4.501-5.746,10.02-11.24,12.945-17.383
	c-0.141-0.224-0.418,0.152-0.57-0.023c0.557-0.326,1.113-0.652,1.389-1.052c-3.408-1.171-6.963-1.68-10.64-1.614
	c-0.595,3.269,0.194,7.506-2.177,9.94c-0.59-0.967,0.022-1.626-0.041-2.456c-4.777,7.78-10.906,15.098-17.576,22.161
	c-2.715,2.881-5.221,6.738-9.1,7.742c0.142-0.272,0.106-0.591-0.246-0.989c-7.809,7.158-18.797,15.188-28.849,21.321
	c0.084,0.137,0.169,0.271,0.254,0.409c0.483,0.444,0.19-0.853,0.671-0.415c0.499,1.031,1.566,2.157,0.824,3.12
	c-1.695,0.098-2.244-2.34-3.646-2.891c-1.055-0.129-2.5,1.534-3.265,0.112c-0.114-0.842,1.247-1.316,1.489-2.072
	c-2.743-0.674-2.891-5.039-5.842-5.54c-3.676,5.087-7.301,9.479-11.695,14.313c0.318,2.761,1.057,5.626,1.514,8.421
	c0.223,0.541,0.801-0.496,1.01,0.138c0.568,1.849-1.368,1.737-2.282,1.987c0.602-3.034-0.33-6.45-1.093-9.829
	c-4.453,5.025-10.756,9.586-15.008,14.656c1.993-0.118,3.947-0.063,6.002-0.479c0.347-0.29-0.899-0.338-0.511-0.823
	c0.171-0.153,0.089-0.37,0.233-0.527c0.605-0.385,1.551,0.509,1.593-0.417C302.895,252.732,302.521,251.419,303.191,251.01z
	 M300.281,255.876c7.217-0.304,13.746-0.699,21.295-2.71C314.713,253.364,307.102,254.12,300.281,255.876z M364.305,225.531
	c-4.051,0.997-6.205,4.346-9.832,6.858C357.566,231.228,361.652,227.159,364.305,225.531z M367.953,221.55
	c-1.001,0.905-2.657,1.906-3.005,2.625C366.023,223.767,367.486,222.497,367.953,221.55z M376.033,216.349
	c-0.77,0.938-2.51,1.624-2.787,2.682C374.326,218.175,375.566,217.359,376.033,216.349z M378.818,213.67
	c-0.842,0.564-1.58,1.158-1.799,1.88C378.048,215.031,378.57,214.382,378.818,213.67z M350.622,230.964
	c-0.459,0.272-0.96,0.536-0.897,0.937C350.146,231.408,350.555,231.592,350.622,230.964z M375.395,215.024
	c0.047-0.096-1.146,0.481-0.758,0.862C374.968,216.072,375.672,215.379,375.395,215.024z M352.055,229.688
	c-0.354,0.221-0.728,0.527-1.021,0.442c0.213,0.251-0.01,0.389-0.01,0.585C351.173,230.264,352.236,230.397,352.055,229.688z
	 M311.82,251.773c2.082-0.861,4.219,0.813,6.057-0.693C315.906,251.427,313.656,250.27,311.82,251.773z M378.721,212.014
	c-0.998,1.033-2.201,1.309-2.521,2.512C377.006,214.088,378.213,212.898,378.721,212.014z M305.502,252.639
	c0.465-0.124,0.035,0.454,0.426,0.688c0.822-0.063,1.6,0.09,2.521-0.416C307.592,252.586,306.165,252.063,305.502,252.639z
	 M294.859,255.8c0.541,0.117,2.295-0.094,2.168-0.386C296.4,255.42,295.146,255.551,294.859,255.8z M395.799,190.541
	c-0.531,0.485-0.79,1.047-0.828,1.655C395.537,191.719,395.525,191.091,395.799,190.541z M379.104,194.4
	c-4.545,5.168-11.467,10.304-15.03,15.813C369.872,206.02,375.165,199.821,379.104,194.4z M349.49,218.681
	c-2.195,1.6-4.149,2.44-6.165,4.396C345.607,221.601,348.371,220.471,349.49,218.681z M297.916,250.272
	c-1.941,1.075-4.996,2.492-4.975,4.231C294.256,252.818,296.986,252.125,297.916,250.272z M302.043,246.762
	c-0.68,0.653-1.355,0.591-1.354,1.409C301.284,247.734,301.747,247.271,302.043,246.762z M399.049,182.033
	c-2.29,3.12-5.078,6.104-7.015,9.311C394.949,188.545,397.352,185.377,399.049,182.033z M351.105,215.001
	c-0.498-0.063-1.282,0.548-1.031,1.029C350.466,215.697,351.346,215.493,351.105,215.001z M299.943,245.772
	c-0.576,0.44-0.861,0.948-1.133,1.464C299.395,246.801,300.266,246.438,299.943,245.772z M328.111,223.345
	c-0.172,1.835,1.477,2.939,2.842,3.393C329.818,225.603,329.211,223.583,328.111,223.345z M369.412,198.498
	c-4.042,3.963-7.669,7.319-11.236,11.169C362.969,206.207,366.827,202.51,369.412,198.498z M314.836,234.818
	c1.877-2.146,3.986-4.81,5.287-6.709C317.436,229.636,315.457,233.204,314.836,234.818z M404.342,177.414
	c0.016,0.433,0.002,0.854-0.156,1.244C404.648,178.371,405.206,177.32,404.342,177.414z M387.451,182.162
	c-1.686,1.916-3.874,4.691-4.813,7.186C384.611,187.507,386.523,184.648,387.451,182.162z M326.852,222.218
	c-0.266,0.165-0.533,0.331-0.802,0.497c0.151,0.307,0.288,1.117,0.902,1.161C326.752,223.276,327.404,222.901,326.852,222.218z
	 M375.711,191.924c-0.816,0.955-2.182,1.781-2.26,2.924C374.298,193.902,375.727,193.088,375.711,191.924z M406.809,173.023
	c0.078,0.176,0.266,0.381,0.118,0.494c-0.145,0.199-0.792,0.271-0.585,0.554C407.049,174.295,407.836,172.881,406.809,173.023z
	 M322.631,224.073c-1.167-0.013-2.162,1.802-2.568,2.735C321.105,226.065,322.299,225.061,322.631,224.073z M323.586,222.331
	c-0.333,0.227-0.588,0.476-0.631,0.772c0.29-0.099,0.486,0.241,0.842-0.14C323.639,222.729,323.561,222.519,323.586,222.331z
	 M326.264,220.67c-0.142-0.229-0.285-0.461-0.426-0.688c-0.264,0.254-0.515,0.695-0.939,0.582c0.103,0.334-0.088,0.599,0.248,0.991
	C325.781,221.684,325.883,220.968,326.264,220.67z M383.357,181.839c-1.664,1.187-2.891,3.349-3.45,5.191
	C381.759,185.474,382.855,183.729,383.357,181.839z M388.559,179.756c-0.561,0.295-0.656,1.304-0.429,1.409
	C388.082,180.65,388.588,180.266,388.559,179.756z M392.816,171.385c-0.109,0.559-0.646,1.006-0.688,1.576
	c2.468,0.353,4.925,0.756,7.478,0.707C397.434,172.506,395.193,171.624,392.816,171.385z M383.199,180.979
	c-0.481,0.347-0.729,0.749-0.731,1.214C382.652,181.773,383.243,181.455,383.199,180.979z M398.552,168.979
	c0.831,0.438,1.495,1.629,2.534,1.099C400.277,169.539,399.441,169.146,398.552,168.979z M389.952,176.03
	c0.055,0.36-0.726,0.52-0.545,0.911C389.775,177.128,390.586,176.072,389.952,176.03z M384.063,179.683
	c0.927-1.13,1.66-2.306,2.053-3.563C385.164,177.238,384.582,178.449,384.063,179.683z M395.223,167.793
	c0.232,1.022,1.156,1.188,1.916,1.295C396.587,168.268,396.01,167.558,395.223,167.793z M394.055,166.807
	c-0.293,0.099-0.486-0.251-0.846,0.133c0.193,0.242,0.041,0.398,0.211,0.641C393.771,167.352,394.256,167.163,394.055,166.807z
	 M386.365,165.461c-0.04,0.447,0.712,0.651,1.13,0.631C387.186,165.593,386.771,165.521,386.365,165.461z"/>
<path fill="#9F9F9F" d="M387.035,84.771c0.223,0.357-0.387,0.792-0.377,1.168c4.643,11.113,13.51,21.834,14.859,33.25
	c0.532,1.851,2.752,4.131,2.166,5.704c-0.427,0.541-0.871-0.502-1.064-0.698c-1.139,2.214,2.414,1.616,2.354,3.304
	c-0.436,0.83-0.965,0.231-1.438,0.473c0.229,1.396,2.604,1.818,3.602,3.301c-0.905,0.771-2.93-1.129-4.299-1.76
	c-0.59-0.174,0.283-0.479-0.043-0.678c-4.774-3.416-9.478-5.506-14.135-6.988c-3.382-1.803-8.988-6.652-13.021-7.316
	c-2.172-0.353-5.369,0.817-7.641,0.932c-1.469,0.075-3.238-0.158-4.367-0.959c3.393-0.684,6.895,0.421,10.268-0.604
	c-4.211-2.825-9.094-3.098-13.258-5.594c0.211-0.247,0.422-0.493,0.633-0.737c-1.174,0.149-2.188-1.52-3.196-2.315
	c-2.004,0.276-2.654,4.405-4.781,5.095c2.315-4.992,5.826-9.472,9.41-14.372c0.735,0.013,0.619,0.866,0.762,1.292
	c0.199,0.102,0.363-0.223,0.548-0.395c0.502,0.297,0.563,0.63,0.62,0.971c1.688-1.67-1.336-2.906-1.176-4.435
	c-0.547-0.271-1.08-0.311-1.606-0.306c-6.052-5.298-12.855-8.728-19.65-11.928c1.16-0.161,2.42,1.285,3.596,1.371
	c-3.896-4.047-10.182-6.644-15.082-9.511c-0.426-0.122-0.85-0.327-1.262-0.224c-3.426-2.583-7.682-3.684-11.004-5.801
	c-2.674-1.643-5.781-0.802-8.035-1.755c0.813-0.302,1.652-0.149,2.465-0.456c-7.086-2.252-14.059-2.665-21.095-4.188
	c-0.695,0.375-1.394,0.706-2.106,0.764c-0.551,1.814-1.213,2.953-1.293,4.658c-0.85-0.34,0.1-1.827-0.273-2.589
	c-0.592,0.311-0.191,2.028-1.215,2.387c-1.569-1.333,1.098-3.938-1.476-5.54c0.638-0.75,1.315-0.692,1.957-1.314
	c-0.278-0.938-0.817-2.001-1.968-2.545c0.383-2.19-0.615-4.763,0.014-7.035c0.389-1.4,1.442-2.708,1.655-4.354
	c0.206-1.545-1.291-2.144-1.24-3.63c0.568-0.57,1.241,0.563,1.868,0.962c0.995-1.787,0.25-3.916,2.158-5.417
	c0.555,0.129,0.697,0.492,1.074,0.92c19.182,6.393,38.576,10.808,57.266,23.222c9.506,6.354,19.41,16.424,28.479,24.62
	c1.797-0.315,2.14-2.107,3.06-3.569c1.149,0.522,1.907-0.771,2.728-1.727c0.346-0.019,0.752,0.598,0.852,0.942
	C386.566,79.751,385.313,83.371,387.035,84.771z M383.727,84.279c0.908,1.203,0.912,3.096,1.826,3.918
	c-0.203-1.871,0.041-3.787-0.799-5.602C384.225,83.174,384.063,83.724,383.727,84.279z M384.188,88.096
	c-0.727-0.839-0.408-1.776-1.293-2.604C382.518,86.361,383.4,87.712,384.188,88.096z M394.787,116.634
	c-0.582-0.818-0.176-1.73-0.725-2.547c-0.478,0.19-0.943,0.566-1.463,0.02c-0.5-0.48,0.094-1.063,0.348-1.617
	c-1.096-4.102-5.23-7.621-3.471-12.164c-1.377-4.493-5.566-8.722-7.609-13.149c-2.01,2.796-2.521,8.146-6.322,7.62
	c1.281-0.369,3.129-2.254,2.943-3.678c-1.234,0.792-2.432,2.207-3.744,1.703c0.621-0.811,0.057-1.517,0.982-2.354
	c-0.285-0.407-0.543-0.248-0.82-0.493c0.574-0.46,1.223,0.219,1.771-0.617c-1.178-1.003-1.893,0.908-2.805,0.37
	c-0.718-0.527,0.034-1.444,0.685-1.765c-1.253-0.558-1.498-1.701-1.642-2.688c-6.478-3.735-13.949-8.417-20.527-13.324
	c0.304-0.668-0.063-1.276,0.222-1.947c4.021,1.551,7.174,4.728,11.031,6.252c-2.918-2.29-7.188-5.5-10.025-6.457
	c-0.25-0.283,0.426-0.646-0.059-0.901c-5.664-3.481-11.964-8.107-17.752-10.512c3.772,4.03,10.645,4.542,12.487,9.63
	c-3.842-4.541-9.937-5.023-13.914-8.934c-0.387-0.38-0.586-1.438-1.146-2.048c-1.594-1.732-6.283-3.333-8.627-3.979
	c-3.543-0.966-7.14-1.363-10.238-2.574c-0.141-0.479,0.257-1.008-0.2-1.458c-1.448-0.191-3.567-1.475-4.579-0.712
	c1.025,0.131,2.977,1.46,2.768,2.584c0.717,0.326,2.461,0.686,2.483,1.702c-6.838-2.553-13.743-6.152-20.483-7.084
	c-0.17,0.201,0.271,0.352,0.15,0.551c-0.48-0.432-0.959-0.863-1.423-1.006c-0.086,3.604,0.505,7.146,1.678,10.63
	c3.296-0.423,7.095-2.456,10.134-0.931c-0.742,0.854-1.557,0.469-2.328,0.782c8.861,2.2,17.688,5.831,26.438,10.052
	c3.566,1.718,8.003,2.938,10.132,6.333c-0.304-0.053-0.595,0.075-0.868,0.532c9.184,5.278,20.16,13.323,29.047,21.052
	c0.104-0.121,0.207-0.243,0.313-0.366c0.276-0.596-0.871,0.076-0.601-0.514c0.832-0.787,1.584-2.146,2.728-1.729
	c0.604,1.586-1.554,2.849-1.651,4.353c0.194,1.042,2.219,1.917,1.094,3.076c-0.769,0.362-1.633-0.79-2.426-0.792
	c0.188,2.816-3.931,4.277-3.517,7.242c5.961,1.966,11.244,4.093,17.183,6.819c2.532-1.139,5.043-2.707,7.567-3.988
	c0.446-0.377-0.715-0.612-0.176-1.004c1.59-1.102,2.071,0.778,2.586,1.575c-3.074,0.344-6.05,2.265-9.039,4.013
	c6.137,2.726,12.391,7.354,18.51,9.873c-0.717-1.863-1.256-3.743-2.271-5.576c-0.381-0.24-0.051,0.961-0.631,0.736
	c-0.197-0.117-0.379,0.027-0.572-0.063c-0.551-0.462,0.014-1.634-0.881-1.394C396.52,116.397,395.381,117.148,394.787,116.634z
	 M400.307,117.938c-2.471-6.788-4.824-12.893-9.022-19.479C393.549,104.94,396.57,111.968,400.307,117.938z M352.023,66.085
	c2.176,3.56,6.018,4.602,9.512,7.299C359.49,70.786,354.377,68.122,352.023,66.085z M347.125,63.812
	c1.166,0.681,2.621,1.956,3.412,2.07C349.82,64.98,348.17,63.969,347.125,63.812z M339.725,57.682
	c1.125,0.451,2.308,1.901,3.398,1.846C341.98,58.758,340.828,57.822,339.725,57.682z M336.328,55.837
	c0.794,0.631,1.582,1.155,2.336,1.146C337.859,56.16,337.082,55.859,336.328,55.837z M361.338,77.485
	c0.4,0.355,0.803,0.752,1.166,0.573C361.906,77.803,361.957,77.36,361.338,77.485z M338.654,58.691
	c-0.104-0.015,0.807,0.947,1.051,0.462C339.782,58.781,338.91,58.32,338.654,58.691z M359.689,76.506
	c0.315,0.271,0.723,0.533,0.729,0.84c0.174-0.279,0.373-0.108,0.562-0.168C360.506,77.172,360.311,76.117,359.689,76.506z
	 M392.906,108.179c-1.451-1.725-0.502-4.268-2.492-5.563C391.34,104.388,390.918,106.883,392.906,108.179z M334.779,56.433
	c1.287,0.639,1.912,1.701,3.156,1.644C337.275,57.439,335.775,56.648,334.779,56.433z M395.643,113.939
	c-0.26-0.404,0.422-0.171,0.527-0.613c-0.309-0.766-0.398-1.553-1.158-2.276C394.961,111.963,394.893,113.481,395.643,113.939z
	 M401.873,123.128c-0.051-0.551-0.783-2.158-1.023-1.949C401.045,121.772,401.549,122.929,401.873,123.128z M309.148,46.646
	c0.625,0.36,1.235,0.438,1.828,0.29C310.35,46.539,309.755,46.74,309.148,46.646z M317.876,61.394
	c6.3,2.771,13.287,7.813,19.616,9.546C331.742,66.679,324.232,63.508,317.876,61.394z M349.973,82.278
	c2.189,1.609,3.582,3.218,6.055,4.548C353.93,85.097,352.018,82.803,349.973,82.278z M395.68,121.885
	c1.611,1.526,3.887,4.008,5.537,3.461C399.215,124.604,397.727,122.211,395.68,121.885z M391.086,119.014
	c0.828,0.45,0.973,1.113,1.752,0.863C392.244,119.442,391.662,119.142,391.086,119.014z M300.057,46.12
	c3.666,1.238,7.354,2.994,10.994,3.87C307.503,48.059,303.756,46.727,300.057,46.12z M345.977,81.852
	c0.092,0.493,0.91,1.057,1.295,0.671C346.834,82.25,346.374,81.474,345.977,81.852z M390.777,121.313
	c0.594,0.416,1.166,0.534,1.738,0.638C391.924,121.525,391.314,120.806,390.777,121.313z M360.883,101.246
	c1.801-0.394,2.355-2.296,2.375-3.734C362.52,98.936,360.777,100.126,360.883,101.246z M324.711,69.391
	c5,2.655,9.297,5.097,14.044,7.333C334.008,73.202,329.316,70.642,324.711,69.391z M375.834,110.43
	c-2.615-1.139-5.789-2.345-7.994-3.011C370.107,109.521,374.107,110.327,375.834,110.43z M294.053,42.472
	c0.408-0.145,0.814-0.261,1.232-0.227C294.871,41.889,293.701,41.677,294.053,42.472z M303.686,57.136
	c2.336,1.028,5.646,2.274,8.306,2.414C309.639,58.227,306.336,57.268,303.686,57.136z M360.189,102.787
	c0.237,0.204,0.477,0.408,0.717,0.613c0.246-0.235,0.979-0.611,0.834-1.211C361.229,102.563,360.674,102.055,360.189,102.787z
	 M316.54,65.375c1.158,0.489,2.356,1.541,3.47,1.27C318.854,66.124,317.646,65.009,316.54,65.375z M289.121,41.448
	c0.145-0.127,0.283-0.366,0.436-0.262c0.234,0.078,0.496,0.674,0.705,0.391C290.261,40.834,288.675,40.512,289.121,41.448z
	 M363.234,106.25c0.342,1.114,2.371,1.516,3.383,1.62C365.594,107.101,364.275,106.268,363.234,106.25z M361.285,105.866
	c0.316,0.248,0.631,0.415,0.928,0.366c-0.182-0.247,0.084-0.537-0.387-0.76C361.648,105.696,361.471,105.835,361.285,105.866z
	 M358.893,103.815c-0.176,0.205-0.354,0.411-0.526,0.614c0.321,0.175,0.817,0.28,0.838,0.719c0.289-0.196,0.598-0.096,0.871-0.535
	C360.004,103.969,359.291,104.088,358.893,103.815z M304.615,61.135c1.635,1.228,4.064,1.743,5.992,1.72
	C308.563,61.561,306.568,61.043,304.615,61.135z M301.059,56.809c0.449,0.444,1.439,0.231,1.471-0.018
	C302.055,56.992,301.534,56.625,301.059,56.809z M291.789,55.281c0.566-0.064,1.154,0.313,1.713,0.18
	c-0.411-2.458-0.77-4.921-1.588-7.34C291.463,50.54,291.299,52.941,291.789,55.281z M303.844,61.546
	c0.477,0.354,0.934,0.469,1.379,0.33C304.766,61.827,304.283,61.361,303.844,61.546z M287.762,50.541
	c0.166-0.924,1.102-1.917,0.281-2.747C287.775,48.726,287.654,49.642,287.762,50.541z M297.084,56.606
	c0.327-0.161,0.714,0.536,1.034,0.244C298.184,56.442,296.934,55.989,297.084,56.606z M302.348,61.116
	c-1.357-0.541-2.699-0.885-4.018-0.879C299.684,60.805,301.014,60.994,302.348,61.116z M287.639,54.073
	c0.906-0.53,0.783-1.462,0.654-2.217C287.68,52.629,287.177,53.394,287.639,54.073z M287.052,55.485
	c0.183,0.249-0.092,0.54,0.382,0.767c0.174-0.257,0.367-0.16,0.547-0.396C287.656,55.588,287.331,55.185,287.052,55.485z
	 M288.096,63.221c0.438-0.097,0.406-0.876,0.26-1.268C287.973,62.399,288.027,62.815,288.096,63.221z"/>
</svg>
