<?xml version="1.0" encoding="utf-8"?>
<!-- Generator: Adobe Illustrator 14.0.0, SVG Export Plug-In . SVG Version: 6.00 Build 43363)  -->
<!DOCTYPE svg PUBLIC "-//W3C//DTD SVG 1.1 Basic//EN" "http://www.w3.org/Graphics/SVG/1.1/DTD/svg11-basic.dtd">
<svg version="1.1" baseProfile="basic" id="レイヤー_1"
	 xmlns="http://www.w3.org/2000/svg" xmlns:xlink="http://www.w3.org/1999/xlink" x="0px" y="0px" width="432px" height="410px"
	 viewBox="0 0 432 410" xml:space="preserve">
<g id="レイヤー_1_1_">
	<path fill="#28B6F6" d="M0.007,0h431.986v410H0.007V0z"/>
	<path fill="#B3E5FC" d="M0.007,131.813h431.986V410H0.007V131.813z"/>
	<path fill="#E1F5FE" d="M0.007,0h431.986v131.803H0.007V0z"/>
	<g>
		<g>
			<defs>
				<rect id="SVGID_1_" x="46.2" y="35.2" width="339.6" height="339.6"/>
			</defs>
			<clipPath id="SVGID_2_">
				<use xlink:href="#SVGID_1_"  overflow="visible"/>
			</clipPath>
			<path clip-path="url(#SVGID_2_)" fill="#FFFFFF" d="M203.111,100.714h162.253c14.905,0-3.396-1.509-7.452-1.887
				c-4.057-0.378-21.413-2.265-24.811-1.698c-3.396,0.565-5.66-0.943-9.056-0.943s-3.396-0.942-9.812,0
				c-6.414,0.943-12.829-2.453-16.979-1.319c0,0,2.075-5.66-5.282-8.68c-7.357-3.019-18.111-1.132-21.131,1.888
				c-3.02,3.019-5.849,2.243-11.132,4.611c-5.282,2.368-11.131-1.027-13.396,0.859s-7.547,0.755-7.547,1.698
				c0,0.942-11.887,2.641-12.074,2.641C226.505,97.884,206.507,97.695,203.111,100.714"/>
		</g>
		<g>
			<defs>
				<rect id="SVGID_3_" x="46.2" y="35.2" width="339.6" height="339.6"/>
			</defs>
			<clipPath id="SVGID_4_">
				<use xlink:href="#SVGID_3_"  overflow="visible"/>
			</clipPath>
			<path clip-path="url(#SVGID_4_)" fill="#FFFFFF" d="M162.432,76.121H93.605c-20.518,0-9.09-1.104-4.025-1.688
				c5.064-0.584,4.87-2.338,7.597-1.753c2.727,0.585-1.813,0.155,6.886-0.118c8.698-0.271,4.997-1.051,11.035-2.024
				c0,0-0.195-5.908,11.493-2.468c0,0,3.117-2.467,6.623,0c3.506,2.468,6.818,3.478,6.818,3.478s1.559,0.418,5.454,2.497
				C149.382,76.121,156.588,73.719,162.432,76.121"/>
		</g>
		<g>
			<defs>
				<rect id="SVGID_5_" x="46.2" y="35.2" width="339.6" height="339.6"/>
			</defs>
			<clipPath id="SVGID_6_">
				<use xlink:href="#SVGID_5_"  overflow="visible"/>
			</clipPath>
			<polygon clip-path="url(#SVGID_6_)" fill="#FFFFFF" points="207.494,57.692 198.719,74.511 192.869,76.338 141.682,191.509 
				141.682,203.94 135.101,225.512 131.81,266.096 133.272,282.549 147.166,295.345 151.554,308.872 162.522,326.787 196.16,360.06 
				204.203,360.06 219.193,353.845 238.938,346.897 251.368,342.876 272.208,328.251 310.964,252.202 310.964,241.233 
				312.792,229.533 294.877,205.768 288.296,168.109 235.279,76.338 230.527,73.414 224.678,63.542 219.559,61.713 			"/>
		</g>
		<g>
			<defs>
				<rect id="SVGID_7_" x="46.2" y="35.2" width="339.6" height="339.6"/>
			</defs>
			<clipPath id="SVGID_8_">
				<use xlink:href="#SVGID_7_"  overflow="visible"/>
			</clipPath>
			<polygon clip-path="url(#SVGID_8_)" fill="#B3E5FC" points="198.719,74.511 192.869,76.338 215.844,120.824 202.13,80.373 
				201.706,74.509 208.206,61.346 207.821,57.801 207.493,57.692 			"/>
		</g>
		<g>
			<defs>
				<rect id="SVGID_9_" x="46.2" y="35.2" width="339.6" height="339.6"/>
			</defs>
			<clipPath id="SVGID_10_">
				<use xlink:href="#SVGID_9_"  overflow="visible"/>
			</clipPath>
			<polygon clip-path="url(#SVGID_10_)" fill="#B3E5FC" points="179.809,124.846 191.568,110.95 205.906,107.365 197.511,111.893 
				171.304,163.374 192.713,114.73 			"/>
		</g>
		<g>
			<defs>
				<rect id="SVGID_11_" x="46.2" y="35.2" width="339.6" height="339.6"/>
			</defs>
			<clipPath id="SVGID_12_">
				<use xlink:href="#SVGID_11_"  overflow="visible"/>
			</clipPath>
			<polygon clip-path="url(#SVGID_12_)" fill="#B3E5FC" points="260.167,119.418 235.279,76.338 230.527,73.413 224.678,63.542 
				211.755,62.368 220.34,66.425 235.508,119.361 234.771,103.403 270.607,164.863 257.221,120.824 247.318,107.648 			"/>
		</g>
		<g>
			<defs>
				<rect id="SVGID_13_" x="46.2" y="35.2" width="339.6" height="339.6"/>
			</defs>
			<clipPath id="SVGID_14_">
				<use xlink:href="#SVGID_13_"  overflow="visible"/>
			</clipPath>
			<rect x="46.2" y="133.5" clip-path="url(#SVGID_14_)" fill="#B3E5FC" width="339.6" height="241.3"/>
		</g>
		<g>
			<defs>
				<rect id="SVGID_15_" x="46.2" y="35.2" width="339.6" height="339.6"/>
			</defs>
			<clipPath id="SVGID_16_">
				<use xlink:href="#SVGID_15_"  overflow="visible"/>
			</clipPath>
			<polygon clip-path="url(#SVGID_16_)" fill="#4FC3F7" points="141.682,191.509 141.682,203.94 135.101,225.512 131.81,266.096 
				133.272,282.549 147.166,295.345 151.554,308.872 162.522,326.787 196.16,360.06 204.203,360.06 217.415,357.159 
				238.596,352.255 251.368,342.876 272.208,328.251 310.964,252.202 310.964,241.233 312.792,229.533 294.877,205.768 
				288.296,168.109 269.287,135.204 166.707,135.204 			"/>
		</g>
		<g>
			<defs>
				<rect id="SVGID_17_" x="46.2" y="35.2" width="339.6" height="339.6"/>
			</defs>
			<clipPath id="SVGID_18_">
				<use xlink:href="#SVGID_17_"  overflow="visible"/>
			</clipPath>
			<polygon clip-path="url(#SVGID_18_)" fill="#29B6F6" points="294.877,205.768 288.296,168.109 282.552,158.167 265.242,150.522 
				281.171,184.363 289.134,199.812 297.098,226.615 			"/>
		</g>
		<g>
			<defs>
				<rect id="SVGID_19_" x="46.2" y="35.2" width="339.6" height="339.6"/>
			</defs>
			<clipPath id="SVGID_20_">
				<use xlink:href="#SVGID_19_"  overflow="visible"/>
			</clipPath>
			<polygon clip-path="url(#SVGID_20_)" fill="#29B6F6" points="269.542,330.121 272.208,328.251 310.964,252.202 310.964,241.233 
				312.792,229.533 305.428,241.507 306.717,252.574 284.495,297.305 238.596,341.689 278.118,309.568 			"/>
		</g>
		<g>
			<defs>
				<rect id="SVGID_21_" x="46.2" y="35.2" width="339.6" height="339.6"/>
			</defs>
			<clipPath id="SVGID_22_">
				<use xlink:href="#SVGID_21_"  overflow="visible"/>
			</clipPath>
			<polygon clip-path="url(#SVGID_22_)" fill="#29B6F6" points="300.021,231.328 294.668,258.991 282.393,289.741 299.296,259.242 
				301.973,239.243 			"/>
		</g>
		<g>
			<defs>
				<rect id="SVGID_23_" x="46.2" y="35.2" width="339.6" height="339.6"/>
			</defs>
			<clipPath id="SVGID_24_">
				<use xlink:href="#SVGID_23_"  overflow="visible"/>
			</clipPath>
			<polygon clip-path="url(#SVGID_24_)" fill="#29B6F6" points="173.268,297.305 196.19,316.855 207.133,336.406 203.923,322.094 
				248.545,320.394 208.532,316.969 196.285,306.785 187.893,306.893 			"/>
		</g>
		<g>
			<defs>
				<rect id="SVGID_25_" x="46.2" y="35.2" width="339.6" height="339.6"/>
			</defs>
			<clipPath id="SVGID_26_">
				<use xlink:href="#SVGID_25_"  overflow="visible"/>
			</clipPath>
			<polygon clip-path="url(#SVGID_26_)" fill="#29B6F6" points="210.157,351.906 169.855,325.094 153.28,306.893 136.866,256.679 
				142.229,233.44 136.866,247.74 136.866,226.127 141.904,212.64 144.179,212.64 180.743,279.917 146.854,202.265 165.63,161.125 
				170.682,138.614 169.384,138.614 161.405,161.775 148.892,180.951 148.637,175.859 141.682,191.509 141.682,203.94 
				135.101,225.512 131.81,266.096 133.272,282.549 147.166,295.345 151.554,308.872 162.522,326.787 196.16,360.06 204.203,360.06 
				219.193,353.845 224.699,351.906 			"/>
		</g>
		<g>
			<defs>
				<rect id="SVGID_27_" x="46.2" y="35.2" width="339.6" height="339.6"/>
			</defs>
			<clipPath id="SVGID_28_">
				<use xlink:href="#SVGID_27_"  overflow="visible"/>
			</clipPath>
			<path clip-path="url(#SVGID_28_)" fill="#81D4FA" d="M279.298,188.115l-8.688,23.504l5.084-28.409l-29.352-44.596h-9.871
				l-50.75,52.521l39.155-52.521h-41.311l-30.913,65.327l37.659,88.48l12.431,12.431l7.313,8.217h34.734l32.681-25.188l19.629-54.69
				L279.298,188.115z M224.699,278.099l-11.529,24.536l6.51-24.536l21.502-17.913L224.699,278.099z"/>
		</g>
		<g>
			<defs>
				<rect id="SVGID_29_" x="46.2" y="35.2" width="339.6" height="339.6"/>
			</defs>
			<clipPath id="SVGID_30_">
				<use xlink:href="#SVGID_29_"  overflow="visible"/>
			</clipPath>
			<path clip-path="url(#SVGID_30_)" fill="#81D4FA" d="M139.954,253.754v4.225l15.113,46.314l16.413,17.226l-3.087-8.45
				l19.664,21.288l22.913,14.788l-16.088-30.714l-25.514-21.126l0.093-6.836l-16.81-50.801l18.829,43.662
				c0,0,19.989,20.476,20.151,19.987c0.162-0.487-42.089-76.703-42.089-76.703L139.954,253.754z"/>
		</g>
		<g>
			<defs>
				<rect id="SVGID_31_" x="46.2" y="35.2" width="339.6" height="339.6"/>
			</defs>
			<clipPath id="SVGID_32_">
				<use xlink:href="#SVGID_31_"  overflow="visible"/>
			</clipPath>
			<path clip-path="url(#SVGID_32_)" fill="#FFFFFF" d="M357.032,138.614c0,0-63.212,1.705-141.188,1.705
				s-141.188-1.705-141.188-1.705s63.212-1.704,141.188-1.704S357.032,138.614,357.032,138.614"/>
		</g>
	</g>
</g>
<g id="レイヤー_2">
	<g id="見えにくい">
		<path fill="#0D4482" d="M50.217,277.065c-0.074,0.457-0.176,0.771-0.305,0.943s-0.275,0.285-0.439,0.34s-0.57,0.1-1.219,0.135
			s-1.035,0.054-1.16,0.054c-1.289,0-2.068-0.076-2.338-0.229s-0.404-0.399-0.404-0.744v-4.651h5.039v-13.349H33.137v13.349h3.996
			c-0.172,1.844-0.922,3.256-2.25,4.235c-1.328,0.98-2.977,1.601-4.945,1.857l0.434,1.348c1.805-0.227,3.354-0.705,4.646-1.436
			c1.292-0.731,2.234-1.552,2.824-2.461c0.59-0.91,0.975-2.093,1.154-3.545h3.574v4.969c0,0.367,0.064,0.688,0.193,0.961
			c0.129,0.272,0.305,0.494,0.527,0.662s0.438,0.274,0.645,0.321c0.207,0.048,0.703,0.087,1.488,0.117
			c0.785,0.031,1.408,0.047,1.869,0.047c0.672,0,1.402-0.026,2.191-0.082c0.789-0.055,1.383-0.245,1.781-0.573
			s0.598-0.789,0.598-1.384v-2.836l-1.535-0.246C50.329,275.876,50.292,276.608,50.217,277.065z M34.883,260.911h12.773v2.672
			H34.883V260.911z M34.883,264.884h12.773v2.613H34.883V264.884z M34.883,271.587v-2.836h12.773v2.836H34.883z M70.543,277.675
			c-0.695-0.051-1.125-0.162-1.289-0.334s-0.275-0.332-0.334-0.48c-0.059-0.147-0.123-0.575-0.193-1.282s-0.105-1.279-0.105-1.718
			c-0.047-1.703-0.648-2.555-1.805-2.555c-0.32,0-0.68,0.051-1.078,0.152c1.969-1.556,4.059-3.138,6.27-4.746l-0.938-1.277H56.282
			v1.535l12.703-0.047c-0.742,0.625-1.977,1.59-3.703,2.895c-1.625,1.22-2.855,2.191-3.691,2.918
			c-3.25,2.648-5.707,4.605-7.371,5.871l1.254,1.254c4.766-3.883,7.488-6.09,8.168-6.621c0.68-0.53,1.387-0.797,2.121-0.797
			c0.352,0,0.613,0.119,0.785,0.357c0.172,0.238,0.273,0.606,0.305,1.106c0.086,1.634,0.176,2.726,0.27,3.275
			c0.094,0.55,0.326,0.994,0.697,1.33c0.371,0.336,0.891,0.57,1.559,0.703s1.861,0.199,3.58,0.199c1.172,0,2.199-0.027,3.082-0.082
			l0.023-1.688c-1.055,0.07-2.145,0.105-3.27,0.105C71.989,277.751,71.239,277.726,70.543,277.675z M71.317,261.38
			c-3.969-0.531-8.473-0.797-13.512-0.797v1.535c5.148,0.063,9.563,0.358,13.242,0.891L71.317,261.38z M95.329,263.595
			c1.102,0,2.273,0.012,3.516,0.035c-0.039-0.642-0.059-1.142-0.059-1.5v-0.105c-0.414-0.022-1.246-0.035-2.496-0.035
			c-2.516,0-5.785,0.117-9.809,0.353c0.047,0.703,0.07,1.229,0.07,1.582C90.786,263.704,93.711,263.595,95.329,263.595z
			 M81.7,260.513c-1.07,3.797-1.605,7.336-1.605,10.617c0,3.008,0.402,5.797,1.207,8.367l1.676-0.388
			c-0.727-2.483-1.09-5.112-1.09-7.887c0-3.375,0.539-6.84,1.617-10.395L81.7,260.513z M90.588,277.007
			c-0.871-0.121-1.566-0.369-2.086-0.744s-0.779-0.867-0.779-1.477c0-1.228,0.48-2.367,1.441-3.423l-1.359-0.727
			c-1.172,1.492-1.758,2.91-1.758,4.254c0,0.922,0.277,1.676,0.832,2.262c0.555,0.586,1.369,1.007,2.443,1.261
			c1.074,0.254,2.697,0.381,4.869,0.381c1.563,0,3.16-0.086,4.793-0.258v-1.629c-1.5,0.188-3.063,0.28-4.688,0.28
			C92.696,277.188,91.459,277.128,90.588,277.007z M109.168,270.72c-0.836-0.547-1.311-0.875-1.424-0.984
			c-0.113-0.108-0.17-0.258-0.17-0.444c0-0.211,0.09-0.396,0.27-0.552c0.18-0.155,0.633-0.44,1.359-0.854
			c3.719-2.359,6.977-4.711,9.773-7.055l-1.441-1.207c-1.367,1.227-2.746,2.354-4.137,3.381c-1.391,1.026-3.477,2.432-6.258,4.213
			c-0.961,0.68-1.441,1.387-1.441,2.121c0,0.297,0.08,0.59,0.24,0.879s0.371,0.547,0.633,0.773c0.262,0.226,0.904,0.678,1.928,1.354
			s1.805,1.182,2.344,1.518c2.945,1.962,5.617,4.066,8.016,6.316l1.465-1.441c-1.234-1.094-2.617-2.194-4.148-3.305
			C114.646,274.323,112.309,272.751,109.168,270.72z M141.395,263.372c1.391,1.719,2.461,3.672,3.211,5.858
			c0.75,2.188,1.125,4.438,1.125,6.75v0.211l1.969-0.059c-0.055-5.469-1.676-10.027-4.863-13.676L141.395,263.372z M133.684,275.542
			c-0.688,1.112-1.234,1.67-1.641,1.67c-0.25,0-0.646-0.392-1.189-1.172c-0.543-0.781-0.957-1.713-1.242-2.795
			c-0.285-1.082-0.428-2.304-0.428-3.662c0-0.906,0.098-2.142,0.293-3.703c0.219-1.75,0.344-2.978,0.375-3.68h-1.969
			c-0.016,0.772-0.117,2-0.305,3.68c-0.18,1.602-0.27,2.84-0.27,3.715c0,0.977,0.098,1.98,0.293,3.012
			c0.195,1.032,0.498,2.019,0.908,2.959c0.41,0.941,0.861,1.683,1.354,2.222c0.493,0.539,0.891,0.901,1.195,1.09
			c0.304,0.188,0.652,0.281,1.043,0.281c0.641,0,1.26-0.357,1.857-1.072s1.184-1.607,1.758-2.678c0.574-1.071,0.994-1.978,1.26-2.72
			l-1.441-0.75C134.989,273.228,134.372,274.429,133.684,275.542z M271.813,220.774v-1.727h-10.733v1.727h2.78v1.906h-2.655v9.922
			h1.938v-0.608h6.077v0.608h1.97v-9.922h-2.797v-1.906H271.813z M265.734,220.774h0.767v1.906h-0.767V220.774z M263.971,230.329
			h-0.828v-6.078h0.828V230.329z M266.548,230.329h-0.875v-6.078h0.875V230.329z M269.221,224.251v6.078h-0.945v-6.078H269.221z
			 M259.063,218.548c-0.146,1.13-0.479,2.409-1.004,3.836c-0.523,1.427-1.119,2.703-1.785,3.828l1.203,1.188
			c0.313-0.375,0.582-0.777,0.813-1.211v6.556h1.953v-9.586h-0.5c0.676-1.631,1.11-3.081,1.305-4.353L259.063,218.548z
			 M281.971,218.587v1.086h-5.009v1.563h5.009v0.789h-1.853v8.063h6.75v-8.063h-2.789v-0.789h3.478v-1.563h-3.478v-1.086H281.971z
			 M284.854,228.649h-2.767v-0.992h2.767V228.649z M284.854,226.423h-2.767v-0.961h2.767V226.423z M284.854,223.384v0.883h-2.767
			v-0.883H284.854z M274.359,225.946v6.798h1.931v-9.587h-0.492c0.625-1.5,1.058-2.939,1.297-4.319l-1.983-0.289
			c-0.209,1.156-0.584,2.452-1.125,3.887c-0.543,1.436-1.129,2.663-1.758,3.685l1.188,1.266
			C273.773,226.941,274.089,226.462,274.359,225.946z M287.634,230.743h-8.352v-8.492h-1.97v10.477h1.97v-0.461h8.352V230.743z
			 M300.333,232.228c0.272,0.239,0.836,0.359,1.69,0.359c0.875,0,1.435-0.145,1.681-0.431c0.244-0.285,0.366-0.63,0.366-1.03v-1.867
			l-1.43-0.18c0,0.438-0.016,0.854-0.043,1.25c-0.029,0.396-0.076,0.622-0.141,0.68c-0.066,0.058-0.143,0.086-0.23,0.086h-0.305
			c-0.168,0-0.25-0.086-0.25-0.258v-3.023h1.359v-8.844h-6.289v8.844h0.859c-0.09,1.422-0.531,2.512-1.328,3.267v-0.32h-1.594
			v-0.898h1.375v-1.194h-1.375v-0.836h1.375v-1.211h-1.375v-0.82h1.711v-1.266h-1.478c0.176-0.37,0.319-0.678,0.431-0.923h1.063
			v-1.477h-3.117c0.156-0.359,0.277-0.675,0.367-0.945h2.523v-1.422h-4.359c0.197-0.349,0.338-0.647,0.422-0.897l-1.695-0.353
			c-0.188,0.442-0.484,0.956-0.891,1.539c-0.407,0.583-0.771,1.031-1.094,1.344l1.078,0.734h-0.836v1.477h1.608
			c-0.584,0.823-1.313,1.612-2.188,2.367l1.008,1.344c0.15-0.108,0.313-0.241,0.484-0.397v5.695h1.898v-0.517h4.414l0.563,0.688
			c1.781-0.928,2.715-2.586,2.805-4.978h0.523v3.375C299.923,231.642,300.061,231.988,300.333,232.228z M291.29,222.134h-1.267
			c0.261-0.25,0.541-0.565,0.845-0.945h0.827C291.587,221.49,291.45,221.806,291.29,222.134z M292.837,230.759h-1.219v-0.898h1.219
			V230.759z M292.837,228.665h-1.219v-0.836h1.219V228.665z M292.837,226.618h-1.219v-0.82h1.219V226.618z M293.126,224.531h-1.203
			c0.244-0.313,0.457-0.619,0.642-0.922h0.953C293.411,223.871,293.282,224.178,293.126,224.531z M298.729,220.438h2.367v1.117
			h-2.367V220.438z M298.729,222.79h2.367v1.203h-2.367V222.79z M298.729,226.423v-1.188h2.367v1.188H298.729z M251.439,250.689
			c-0.771-0.706-1.391-1.536-1.858-2.487c-0.574-1.162-0.86-2.406-0.86-3.732c0-1.313,0.286-2.55,0.86-3.712
			c0.469-0.957,1.088-1.786,1.858-2.488v-0.149h-2.104c-1.596,1.892-2.394,4.008-2.394,6.351c0,1.294,0.213,2.473,0.644,3.534
			c0.369,0.93,0.951,1.875,1.75,2.837h2.104V250.689z M259.868,243.184c1.489-0.729,2.353-1.146,2.584-1.251
			c0.231-0.104,0.53-0.218,0.894-0.338c0.362-0.121,0.69-0.207,0.987-0.257l-0.637-1.688c-0.373-0.005-0.979-0.007-1.818-0.007
			c-3.637,0-6.103,0.022-7.396,0.068l0.055,1.694c2.703-0.096,4.729-0.149,6.078-0.163c-0.885,0.419-1.414,0.664-1.586,0.737
			L259.868,243.184z M254.939,249.623c0.916,0.482,2.584,0.725,5.004,0.725c1.449,0,3.08-0.109,4.896-0.328l-0.301-1.825
			c-1.654,0.246-3.236,0.369-4.744,0.369h-0.5c-0.86-0.005-1.571-0.048-2.133-0.13s-0.945-0.187-1.158-0.313
			c-0.211-0.128-0.346-0.254-0.399-0.379c-0.056-0.127-0.082-0.27-0.082-0.429c0-0.527,0.434-1.205,1.299-2.029l-1.359-1.02
			c-1.264,0.957-1.895,2.03-1.895,3.22C253.564,248.427,254.023,249.14,254.939,249.623z M275.641,238.542
			c0.239,0.46,0.551,1.16,0.93,2.099l1.004-0.376c-0.277-0.706-0.6-1.406-0.963-2.099L275.641,238.542z M271.954,249.452
			c0.405,0.388,0.963,0.635,1.672,0.741s1.533,0.16,2.472,0.16c1.209,0,2.289-0.075,3.239-0.226l-0.096-1.765
			c-1.007,0.179-2.029,0.268-3.068,0.268c-0.629,0-1.19-0.028-1.688-0.086c-0.496-0.058-0.826-0.135-0.99-0.235
			c-0.164-0.1-0.246-0.231-0.246-0.396c0-0.333,0.225-0.774,0.676-1.326l-1.455-0.685c-0.748,0.747-1.121,1.473-1.121,2.175
			C271.348,248.606,271.55,249.064,271.954,249.452z M272.323,244.448c2.282-0.21,4.196-0.313,5.741-0.313
			c0.283,0,0.556,0.007,0.814,0.021l0.096-1.627c-0.283-0.014-0.643-0.021-1.08-0.021c-1.905,0-3.803,0.104-5.694,0.313
			L272.323,244.448z M266.566,249.849l1.586,0.938c0.763-0.979,1.457-2.346,2.086-4.096c0.63-1.75,1.007-3.382,1.136-4.895h4.703
			v-1.642h-4.521c0.021-0.296,0.027-0.6,0.027-0.908c0-0.415-0.006-0.706-0.02-0.875h-1.955c0,0.456-0.021,1.051-0.055,1.783h-2.511
			v1.642h2.394c-0.164,1.39-0.51,2.836-1.039,4.337C267.872,247.635,267.261,248.873,266.566,249.849z M278.538,237.824
			l-0.938,0.349c0.308,0.605,0.617,1.306,0.938,2.099l0.983-0.361C279.239,239.234,278.911,238.54,278.538,237.824z
			 M283.104,250.607h1.935v-6.166c1.34-1.648,2.801-2.475,4.383-2.475c0.711,0,1.271,0.271,1.683,0.815
			c0.41,0.546,0.614,1.229,0.614,2.049v0.156c-0.006,0.569-0.104,1.079-0.297,1.527c-0.194,0.449-0.487,0.842-0.883,1.176
			c-0.396,0.336-0.867,0.592-1.418,0.771c-0.554,0.178-1.354,0.318-2.406,0.424l0.425,1.605c1.563-0.055,2.836-0.36,3.819-0.92
			c0.983-0.558,1.679-1.264,2.078-2.117c0.401-0.854,0.603-1.729,0.603-2.622c0-1.313-0.396-2.382-1.187-3.206
			c-0.791-0.825-1.826-1.237-3.106-1.237c-1.484,0-2.921,0.595-4.308,1.784v-3.842h-1.935v2.234h-2.352v1.545h2.352v1.553
			c-1.227,1.896-2.18,3.239-2.856,4.032l1.053,1.497c0.5-0.609,1.103-1.431,1.806-2.461v3.877H283.104z M305.346,240.47
			c-0.632-0.962-1.554-1.442-2.767-1.442c-0.957,0-1.847,0.273-2.666,0.82s-1.394,1.162-1.715,1.846
			c0.235-1.436,0.424-2.511,0.561-3.227l-1.963-0.171c-0.313,1.632-0.471,3.293-0.471,4.982c0,1.382,0.104,2.666,0.313,3.855
			l1.812-0.116c-0.041-0.313-0.062-0.617-0.062-0.909c0-0.983,0.213-1.927,0.639-2.827c0.427-0.898,0.962-1.539,1.605-1.921
			c0.646-0.38,1.275-0.569,1.891-0.569c1.158,0,1.736,1.271,1.736,3.813c0,1.454-0.404,2.515-1.213,3.18
			c-0.809,0.664-2.346,1.13-4.611,1.395l0.377,1.695c2.482-0.191,4.351-0.781,5.603-1.771s1.877-2.552,1.877-4.688
			C306.292,242.746,305.977,241.432,305.346,240.47z M308.923,250.689v0.15h2.101c0.797-0.962,1.381-1.907,1.75-2.837
			c0.428-1.063,0.643-2.24,0.643-3.534c0-2.343-0.799-4.459-2.393-6.351h-2.101v0.149c0.767,0.702,1.384,1.531,1.854,2.488
			c0.574,1.162,0.861,2.398,0.861,3.712c0,1.326-0.287,2.57-0.861,3.731C310.313,249.153,309.693,249.983,308.923,250.689z
			 M239.204,158.118h-5.056v3.313h5.056V158.118z M237.461,160.313h-1.617v-1.141h1.617V160.313z M243.938,162.61l-1.852,0.625
			c0.203,0.25,0.784,1.345,1.742,3.281l2.016-0.594c-0.224-0.505-0.542-1.117-0.953-1.836
			C244.48,163.367,244.162,162.876,243.938,162.61z M233.57,156.603v-1.108h5.609c0.114,1.792,0.62,3.319,1.516,4.586
			c-0.447,0.53-0.977,1.047-1.586,1.547l1.234,1.227c0.547-0.422,1.055-0.906,1.523-1.453c0.542,0.49,0.958,0.806,1.25,0.945
			s0.604,0.211,0.938,0.211c0.34,0,0.621-0.067,0.848-0.203c0.228-0.135,0.397-0.34,0.513-0.612c0.114-0.273,0.194-0.743,0.242-1.41
			l0.094-1.281l-1.492-0.305c-0.077,0.839-0.14,1.34-0.184,1.504s-0.126,0.246-0.246,0.246c-0.146,0-0.411-0.201-0.797-0.603
			c0.776-1.12,1.352-2.377,1.727-3.772l-1.827-0.367c-0.229,0.906-0.574,1.766-1.031,2.578c-0.375-0.703-0.603-1.648-0.68-2.836
			h4.047v-1.423h-0.97l0.203-0.094c-0.161-0.26-0.636-0.736-1.422-1.43l-1.267,0.641l0.859,0.892l-1.469,0.008v-1.57h-2.047
			l-0.008,1.492l-7.594-0.016v2.641c0,0.755-0.031,1.402-0.095,1.941s-0.188,1.112-0.375,1.723s-0.419,1.141-0.694,1.594
			l1.664,0.867C233.066,161.217,233.57,159.165,233.57,156.603z M236.137,166.528c0.617,0.039,1.262,0.06,1.934,0.06
			c0.834,0,1.552-0.026,2.152-0.078c0.603-0.052,1.053-0.205,1.353-0.457s0.448-0.551,0.448-0.896v-1.663l-1.75-0.234
			c0,0.724-0.023,1.158-0.073,1.301c-0.05,0.145-0.134,0.244-0.255,0.301c-0.119,0.058-0.367,0.104-0.745,0.138
			c-0.378,0.033-0.702,0.051-0.974,0.051c-0.203,0-0.515-0.014-0.934-0.043s-0.677-0.049-0.773-0.063
			c-0.097-0.013-0.174-0.052-0.233-0.116c-0.06-0.065-0.091-0.158-0.091-0.277v-2.32h-2.063v2.853c0,0.292,0.061,0.539,0.18,0.741
			c0.121,0.203,0.301,0.362,0.539,0.478C235.091,166.415,235.52,166.489,236.137,166.528z M239.157,156.212h-5.234v1.188h5.234
			V156.212z M239.672,163.556l-1.602-1.852l-1.445,0.733c0.786,0.938,1.3,1.609,1.539,2.017L239.672,163.556z M230.407,166.118
			l1.952,0.483c0.631-1.057,1.074-2.195,1.328-3.414l-1.922-0.25C231.527,163.788,231.074,164.847,230.407,166.118z
			 M255.648,155.204h-3.18v1.25h3.18v0.608h-3.805v1.344h9.711v-1.344h-3.742v-0.608h3.181v-1.25h-3.181v-0.586h3.603v-1.234h-3.603
			v-0.82h-2.164v0.82h-3.516v1.234h3.516V155.204L255.648,155.204z M252.384,156.618l-0.625-2.478l-1.03,0.297l0.569,2.478
			L252.384,156.618z M250.682,152.563h-1.953v14.211h1.953V152.563z M252.626,166.696h2.069v-2.883l4.078-0.016v0.608
			c0,0.104-0.051,0.197-0.147,0.277c-0.101,0.081-0.207,0.121-0.319,0.121h-1.211l0.155,1.828h1.97c0.422,0,0.805-0.133,1.147-0.398
			c0.343-0.265,0.516-0.613,0.516-1.047v-6.141h-8.258V166.696z M254.695,160.228h4.078v0.695h-4.078V160.228L254.695,160.228z
			 M254.695,161.962h4.078v0.75h-4.078V161.962L254.695,161.962z M248.32,155.235l-1.516-0.047
			c-0.027,1.984-0.209,3.552-0.547,4.703l1.493,0.32C248.018,159.415,248.206,157.756,248.32,155.235z M270.07,161.688
			c0.441,0,0.82-0.156,1.134-0.469c0.313-0.313,0.469-0.69,0.469-1.133s-0.155-0.82-0.469-1.133c-0.313-0.313-0.69-0.47-1.134-0.47
			c-0.442,0-0.819,0.156-1.133,0.47c-0.313,0.313-0.469,0.689-0.469,1.133c0,0.442,0.156,0.819,0.469,1.133
			C269.251,161.531,269.628,161.688,270.07,161.688z M286.618,163.063c0.729-0.608,1.36-1.221,1.897-1.836l-1.742-1.164
			c-0.573,0.684-1.219,1.313-1.938,1.892c-1.271-0.755-2.438-1.389-3.5-1.898l-1.109,1.563c0.566,0.229,1.508,0.75,2.82,1.563
			c-1.365,0.787-2.867,1.398-4.508,1.836l0.641,1.767c1.984-0.443,3.885-1.256,5.703-2.438c1.191,0.776,2.066,1.388,2.625,1.836
			l1.391-1.555C288.243,164.142,287.48,163.621,286.618,163.063z M291.966,163.571c-0.051,0.521-0.09,0.807-0.116,0.855
			c-0.029,0.049-0.072,0.074-0.129,0.074c-0.063,0-0.13-0.031-0.199-0.095c-0.07-0.063-0.166-0.284-0.285-0.668
			c-0.121-0.383-0.215-0.978-0.281-1.784c-0.068-0.808-0.102-1.581-0.102-2.32c0-0.37,0.004-0.805,0.016-1.305h-11.516v1.664h9.344
			c0.041,4.452,1.074,6.68,3.102,6.68c0.438,0,0.805-0.115,1.102-0.344c0.297-0.229,0.488-0.549,0.578-0.957
			c0.088-0.409,0.158-1.413,0.211-3.013l-1.647-0.305C292.04,162.545,292.016,163.051,291.966,163.571z M281.782,156.415v1.194
			h9.647v-1.555h-9.344c0.176-0.219,0.367-0.463,0.57-0.734h10.102v-1.633h-9.063c0.145-0.271,0.301-0.586,0.469-0.944l-2.211-0.445
			c-0.178,0.495-0.609,1.229-1.297,2.203c-0.688,0.974-1.422,1.823-2.203,2.547l1.359,1.266
			C280.458,157.819,281.114,157.186,281.782,156.415z M294.454,160.118l0.397,1.827c0.525-0.13,1.111-0.283,1.758-0.461v2.953
			c0,0.309-0.176,0.461-0.522,0.461h-1.28l0.241,1.828h1.82c0.524,0,0.961-0.137,1.309-0.41c0.347-0.272,0.521-0.66,0.521-1.16
			v-4.297c0.551-0.177,0.961-0.322,1.227-0.438l-0.203-1.617c-0.219,0.078-0.561,0.185-1.023,0.32v-2.188h1.242v-1.617h-1.242
			v-2.672h-2.086v2.672h-1.836v1.617h1.836v2.734C295.609,159.913,294.893,160.061,294.454,160.118z M306.07,159.993h-5.875v1.647
			h1.781l-1.43,0.797c0.729,0.969,1.385,1.901,1.969,2.797l1.859-0.969c-0.496-0.802-1.162-1.677-2-2.625h3.695v2.57
			c0,0.313-0.168,0.469-0.5,0.469h-1.758l0.258,1.953h2.063c0.635,0,1.137-0.154,1.508-0.461c0.369-0.308,0.555-0.737,0.555-1.289
			v-3.242h1.234v-1.647h-1.234v-1.22h1.556v-1.727h-3.905v-1.281h3.344v-1.664h-3.344v-1.539h-2.173v1.539h-3.188v1.664h3.188v1.281
			h-3.664v1.727h6.063v1.22H306.07z M325.221,157.056v-1.906h-8.056c0.071-0.983,0.117-1.729,0.133-2.233l-2.305-0.017
			c0,0.928-0.039,1.678-0.117,2.25h-3.914v1.906h3.57c-0.412,1.62-1.125,3.063-2.142,4.328l1.344,1.359
			c0.738-0.708,1.638-1.271,2.691-1.685c1.055-0.414,2.109-0.621,3.168-0.621c0.832,0,1.488,0.171,1.969,0.513
			c0.479,0.341,0.72,0.831,0.72,1.473c0,0.74-0.423,1.306-1.267,1.699s-1.881,0.59-3.108,0.59c-1.162,0-2.404-0.056-3.728-0.164
			l0.164,1.983c0.938,0.1,1.773,0.148,2.508,0.148h0.672c2.177,0,3.906-0.371,5.191-1.113c1.283-0.742,1.926-1.834,1.926-3.276
			c0-1.161-0.473-2.069-1.418-2.724c-0.945-0.653-2.141-0.979-3.582-0.979c-1.151,0-2.371,0.222-3.656,0.664
			c0.386-0.828,0.648-1.561,0.789-2.195H325.221L325.221,157.056z M144.508,191.781h-6.125v-7.491h5.055v-2.095h-12.766v2.095h5.211
			v7.491h-6.188v2.156h14.813V191.781L144.508,191.781z M154.282,188.438c-0.636-1.672-1.052-2.73-1.25-3.18
			c-0.198-0.448-0.544-1.117-1.039-2.008l-1.758,0.688c0.958,1.85,1.659,3.573,2.102,5.172L154.282,188.438z M150.602,189.204
			c-0.641-1.692-1.103-2.841-1.387-3.441c-0.284-0.602-0.577-1.186-0.879-1.754l-1.781,0.688c0.932,1.792,1.625,3.504,2.078,5.134
			L150.602,189.204z M148.25,193.142l0.531,1.633c3.026-0.396,5.329-1.483,6.91-3.266c1.581-1.781,2.514-4.311,2.801-7.586l-2-0.203
			c-0.24,2.912-1.013,5.116-2.32,6.613C152.865,191.831,150.891,192.767,148.25,193.142z M174.766,185.509
			c-1.38,2.313-3.03,3.979-4.949,5c-1.919,1.021-4.212,1.669-6.879,1.945l0.516,2.094c3.099-0.287,5.754-1.083,7.965-2.392
			c2.211-1.308,3.978-3.192,5.301-5.655L174.766,185.509z M168.665,189.079l1.063-1.97c-1.63-0.63-2.892-1.087-3.785-1.371
			c-0.894-0.283-1.884-0.537-2.973-0.762l-0.891,1.844c1.74,0.49,2.983,0.862,3.73,1.117
			C166.556,188.194,167.508,188.574,168.665,189.079z M174.047,183.97c-0.302-0.76-0.672-1.56-1.109-2.398l-1.102,0.438
			c0.297,0.563,0.653,1.362,1.07,2.398L174.047,183.97z M176.266,183.524c-0.349-0.822-0.722-1.617-1.117-2.383l-1.07,0.398
			c0.349,0.688,0.706,1.486,1.07,2.397L176.266,183.524z M168.383,184.478c0.604,0.25,1.19,0.502,1.758,0.758l1.102-1.952
			c-2.807-1.109-5.042-1.85-6.703-2.22l-0.914,1.806l3.281,1.055C167.287,184.042,167.779,184.228,168.383,184.478z M98.942,206.469
			c0,1.294,0.214,2.473,0.643,3.534c0.369,0.93,0.953,1.875,1.75,2.837h2.105v-0.15c-0.77-0.706-1.39-1.536-1.859-2.487
			c-0.574-1.162-0.861-2.406-0.861-3.732c0-1.313,0.287-2.55,0.861-3.712c0.469-0.957,1.089-1.787,1.859-2.488v-0.149h-2.105
			C99.739,202.009,98.942,204.126,98.942,206.469z M107.23,204.746c0.549-0.634,0.917-1.179,1.104-1.635l-1.552-0.472
			c-0.579,0.98-1.411,1.884-2.495,2.714l1.224,0.964C106.108,205.903,106.681,205.38,107.23,204.746z M106.222,206.141l0.841,1.189
			c0.789-0.314,1.47-0.729,2.044-1.244c0.574-0.516,0.985-1.04,1.234-1.576s0.411-1.172,0.489-1.911h1.107v2.071
			c0,0.214-0.123,0.321-0.369,0.321h-1.005l0.28,1.496h1.285c0.46,0,0.837-0.12,1.131-0.361c0.294-0.241,0.441-0.562,0.441-0.957
			v-2.57h3.849v-1.442h-5.517v-1.024h-1.894v1.024h-5.305v1.442h4.204C108.906,204.104,107.968,205.284,106.222,206.141z
			 M111.479,211.377c1.577,0.643,3.361,1.058,5.353,1.244l0.786-1.627c-1.855-0.184-3.274-0.405-4.259-0.67
			c1.025-0.702,1.839-1.499,2.44-2.394l-0.841-0.771h-4.327c0.119-0.138,0.23-0.295,0.335-0.473l-1.62-0.574
			c-0.406,0.538-1.062,1.1-1.969,1.683c-0.907,0.583-1.773,1.021-2.598,1.313l0.718,1.271c0.934-0.296,1.807-0.687,2.618-1.169
			c0.419,0.424,0.9,0.813,1.442,1.169c-1.281,0.4-2.928,0.686-4.942,0.854l0.417,1.415c2.848-0.205,4.977-0.62,6.385-1.244
			L111.479,211.377z M109.647,208.547h3.281c-0.442,0.405-0.973,0.773-1.593,1.106C110.707,209.345,110.144,208.976,109.647,208.547
			z M115.492,202.88l-1.627,0.574c0.246,0.515,0.622,1.07,1.128,1.668c0.506,0.597,0.998,1.058,1.477,1.381l1.456-1.066
			C116.768,204.507,115.957,203.655,115.492,202.88z M130.35,212.365c0.367-0.065,0.684-0.233,0.95-0.503
			c0.266-0.269,0.4-0.607,0.4-1.019v-2.42l-1.709-0.268c-0.05,1.239-0.102,1.965-0.154,2.175c-0.052,0.21-0.202,0.318-0.448,0.328
			c-0.674,0.026-1.053,0.041-1.135,0.041c-0.875,0-1.395-0.027-1.559-0.082c-0.164-0.056-0.246-0.189-0.246-0.403v-4.013
			c2.297-1.071,4.061-2.097,5.291-3.076l-1.367-1.483c-0.738,0.679-2.046,1.534-3.924,2.563v-3.862h-1.887v10.473
			c0,0.434,0.098,0.778,0.294,1.036c0.196,0.257,0.478,0.424,0.844,0.498c0.367,0.076,1.218,0.113,2.553,0.113
			C129.284,212.464,129.983,212.431,130.35,212.365z M121.651,200.104c-0.374,1.413-0.932,2.807-1.675,4.181
			s-1.315,2.305-1.716,2.792l1.217,1.094c0.378-0.46,0.697-0.882,0.957-1.266v5.757h1.9v-8.497h-0.294
			c0.629-1.145,1.137-2.387,1.524-3.727L121.651,200.104z M145.112,211.623l1.039-2.011c-1.212-0.91-2.281-1.818-3.206-2.724
			c-0.925-0.905-1.85-1.914-2.775-3.025l-0.677-0.826c-0.219-0.27-0.466-0.479-0.742-0.629c-0.276-0.15-0.578-0.227-0.906-0.227
			c-0.36,0-0.679,0.073-0.957,0.219c-0.278,0.146-0.507,0.346-0.687,0.599c-0.18,0.253-0.418,0.616-0.714,1.09
			c-0.287,0.433-0.821,1.178-1.603,2.235c-0.782,1.058-1.346,1.74-1.692,2.051l1.135,1.511c0.674-0.697,1.334-1.462,1.979-2.293
			c0.645-0.832,1.459-1.984,2.444-3.456c0.027-0.037,0.059-0.055,0.096-0.055c0.041,0,0.075,0.018,0.103,0.055
			c0.998,1.335,1.78,2.332,2.345,2.99c0.565,0.659,1.269,1.387,2.112,2.185C143.249,210.11,144.15,210.88,145.112,211.623z
			 M158.035,202.781c-1.187-0.937-2.704-1.404-4.549-1.404h-0.28c-1.932,0.091-3.533,0.744-4.802,1.958s-1.904,2.609-1.904,4.187
			v0.171c0,1.03,0.262,1.944,0.786,2.744s1.21,1.2,2.058,1.2c1.303,0,2.385-0.792,3.244-2.375c0.859-1.584,1.336-3.652,1.432-6.204
			c1.162,0.109,2.071,0.482,2.728,1.118c0.657,0.636,0.984,1.479,0.984,2.533c0,1.258-0.456,2.203-1.367,2.837
			c-0.912,0.634-2.272,1.051-4.081,1.251l0.506,1.709c2.292-0.178,4.037-0.767,5.233-1.764c1.196-0.998,1.794-2.38,1.794-4.144
			C159.816,204.99,159.222,203.717,158.035,202.781z M151.168,207.85c-0.524,1.249-1.107,1.873-1.75,1.873
			c-0.319,0-0.567-0.219-0.745-0.656c-0.178-0.437-0.267-0.916-0.267-1.436c0-1.007,0.359-1.928,1.077-2.762
			c0.718-0.834,1.589-1.372,2.615-1.613C152.002,205.07,151.692,206.601,151.168,207.85z M164.963,212.327h5.086v-1.497h-5.086
			V212.327z M172.442,210.215c-0.018,0.214-0.08,0.319-0.185,0.313c-0.15,0-0.392-0.419-0.725-1.258s-0.551-2.032-0.656-3.582h2.604
			v-1.456l-2.673,0.007c-0.027-0.67-0.041-1.301-0.041-1.894V202.1c1.167-0.19,1.973-0.367,2.42-0.525l-0.854-1.415
			c-0.638,0.231-1.698,0.459-3.179,0.68s-2.764,0.368-3.849,0.44v7.521l-0.957,0.164l0.355,1.545
			c2.475-0.465,4.129-0.834,4.963-1.107c0.228,0.799,0.607,1.518,1.138,2.156c0.531,0.642,1.083,0.961,1.658,0.961
			c0.319,0.005,0.599-0.091,0.841-0.287c0.242-0.195,0.4-0.432,0.475-0.708c0.075-0.274,0.133-1.259,0.174-2.948l-1.381-0.254
			C172.503,209.369,172.46,210.001,172.442,210.215z M167.124,202.565c0.542-0.045,1.135-0.108,1.777-0.19
			c0.004,0.748,0.014,1.37,0.027,1.865l-1.805,0.008L167.124,202.565L167.124,202.565z M167.124,208.451v-2.763h1.88
			c0.068,0.854,0.167,1.606,0.294,2.264C168.764,208.094,168.04,208.26,167.124,208.451z M164.95,205.689
			c-0.214,0.077-0.567,0.186-1.06,0.321v-1.955h0.964v-1.415h-0.964v-2.338h-1.764v2.338h-1.429v1.415h1.429v2.406
			c-0.748,0.178-1.317,0.303-1.709,0.376l0.349,1.6c0.314-0.077,0.768-0.203,1.36-0.376v2.599c0,0.272-0.155,0.409-0.465,0.409
			h-1.046l0.205,1.553h1.524c0.451,0,0.821-0.119,1.111-0.359c0.29-0.238,0.434-0.577,0.434-1.015v-3.739
			c0.551-0.188,0.957-0.335,1.217-0.444L164.95,205.689z M186.428,209.9c-0.018,0.384-0.034,0.615-0.048,0.697
			c-0.014,0.082-0.043,0.145-0.089,0.185c-0.046,0.041-0.107,0.063-0.185,0.063h-0.28c-0.178,0-0.267-0.094-0.267-0.28v-6.187
			h-5.797v2.311c0,1.276-0.15,2.253-0.451,2.93c-0.301,0.678-0.725,1.281-1.271,1.814l1.107,1.203
			c0.547-0.451,1.004-0.985,1.371-1.603c0.367-0.618,0.629-1.23,0.786-1.84c0.157-0.608,0.236-1.305,0.236-2.089v-1.229h2.229v5.182
			c0,0.405,0.105,0.723,0.314,0.95c0.209,0.227,0.457,0.358,0.742,0.393c0.285,0.034,0.687,0.053,1.207,0.053
			c0.501,0,0.873-0.05,1.114-0.147s0.425-0.259,0.55-0.484c0.125-0.225,0.188-0.515,0.188-0.864v-2.167l-1.429-0.227
			C186.456,209.071,186.446,209.518,186.428,209.9z M179.025,205.689c-0.196,0.068-0.538,0.173-1.025,0.314v-1.948h1.148v-0.561
			h8.176v-1.601l-3.609-0.007v-1.675h-1.853v1.675l-2.851-0.007v0.759H178v-2.338h-1.818v2.338h-1.483v1.415h1.483v2.427
			c-0.789,0.188-1.376,0.307-1.764,0.355l0.349,1.6c0.383-0.096,0.854-0.224,1.415-0.383v2.563c0,0.27-0.155,0.403-0.465,0.403
			h-1.06l0.205,1.601h1.545c0.46,0,0.841-0.119,1.142-0.359c0.301-0.238,0.451-0.577,0.451-1.015v-3.753
			c0.501-0.17,0.893-0.313,1.176-0.432L179.025,205.689z M191.145,203.762v-0.971h4.908c0.1,1.567,0.542,2.904,1.326,4.013
			c-0.392,0.465-0.854,0.916-1.388,1.354l1.08,1.072c0.479-0.369,0.923-0.793,1.333-1.271c0.474,0.429,0.838,0.704,1.094,0.827
			s0.529,0.185,0.82,0.185c0.296,0,0.543-0.06,0.742-0.178c0.199-0.118,0.348-0.298,0.448-0.536c0.1-0.24,0.171-0.651,0.212-1.234
			l0.082-1.121l-1.306-0.267c-0.068,0.733-0.122,1.173-0.161,1.315c-0.039,0.145-0.111,0.216-0.215,0.216
			c-0.127,0-0.36-0.176-0.697-0.526c0.679-0.979,1.183-2.081,1.511-3.302l-1.6-0.321c-0.201,0.793-0.501,1.545-0.902,2.256
			c-0.328-0.614-0.526-1.441-0.595-2.48h3.541v-1.244h-0.848l0.178-0.082c-0.142-0.229-0.556-0.646-1.244-1.251l-1.107,0.561
			l0.752,0.779l-1.285,0.007v-1.374h-1.791l-0.007,1.307l-6.645-0.015v2.312c0,0.661-0.027,1.227-0.082,1.698
			c-0.055,0.473-0.164,0.975-0.328,1.508c-0.164,0.532-0.367,0.998-0.608,1.395l1.456,0.759
			C190.703,207.8,191.145,206.004,191.145,203.762z M200.216,209.019l-1.62,0.547c0.178,0.22,0.686,1.177,1.524,2.871l1.764-0.52
			c-0.196-0.442-0.474-0.979-0.834-1.606C200.69,209.683,200.412,209.251,200.216,209.019z M196.033,203.42h-4.58v1.039h4.58V203.42
			z M196.945,210.724c-0.043,0.126-0.117,0.214-0.222,0.264c-0.105,0.051-0.322,0.091-0.653,0.12
			c-0.331,0.029-0.614,0.044-0.851,0.044c-0.178,0-0.45-0.013-0.817-0.037c-0.367-0.024-0.592-0.044-0.677-0.055
			c-0.084-0.012-0.153-0.046-0.205-0.103c-0.052-0.059-0.079-0.14-0.079-0.243v-2.03h-1.805v2.495c0,0.255,0.052,0.472,0.157,0.649
			c0.105,0.177,0.262,0.315,0.472,0.417c0.21,0.101,0.584,0.167,1.125,0.2c0.54,0.035,1.104,0.053,1.692,0.053
			c0.729,0,1.357-0.022,1.883-0.068c0.526-0.046,0.92-0.179,1.183-0.398c0.262-0.223,0.393-0.482,0.393-0.783v-1.456l-1.531-0.205
			C197.01,210.22,196.989,210.599,196.945,210.724z M196.484,209.846l-1.401-1.62l-1.265,0.644c0.688,0.819,1.137,1.407,1.347,1.764
			L196.484,209.846z M196.074,205.088h-4.423v2.897h4.423V205.088z M194.549,207.009h-1.415v-0.998h1.415V207.009z M188.376,212.088
			l1.709,0.424c0.551-0.925,0.939-1.921,1.162-2.987l-1.682-0.219C189.356,210.049,188.96,210.976,188.376,212.088z
			 M206.772,210.003c0.428-1.063,0.643-2.24,0.643-3.534c0-2.342-0.798-4.459-2.393-6.351h-2.099v0.149
			c0.766,0.702,1.383,1.531,1.853,2.488c0.574,1.162,0.861,2.398,0.861,3.712c0,1.326-0.287,2.57-0.861,3.732
			c-0.465,0.951-1.083,1.781-1.853,2.487v0.15h2.099C205.819,211.878,206.403,210.933,206.772,210.003z M215.415,302.235
			l-2.453-0.272c-0.297,1.875-0.992,3.714-2.086,5.516c-1.359-0.864-2.977-1.784-4.852-2.758l-1.383,1.664
			c2.391,1.349,4.023,2.325,4.898,2.93c-0.906,1.021-1.97,1.935-3.191,2.742c-1.221,0.807-2.439,1.386-3.652,1.733l0.992,1.938
			c3.13-0.901,5.736-2.558,7.82-4.969c1.588,1.188,2.763,2.197,3.523,3.03l1.727-1.875c-1.307-1.141-2.592-2.16-3.852-3.063
			C214.182,306.837,215.018,304.631,215.415,302.235z M229.73,309.138c-0.627,0.638-1.388,1.266-2.28,1.883
			c-0.894,0.617-1.935,1.116-3.121,1.496s-2.672,0.651-4.453,0.813l0.531,2.188c3.261-0.317,5.956-1.117,8.086-2.398
			c2.13-1.28,3.856-3.144,5.18-5.586l-1.875-1.25C231.047,307.548,230.359,308.5,229.73,309.138z M225.907,307.563l1.43-1.938
			c-2.558-1.479-4.653-2.545-6.289-3.195l-1.233,1.789c2.099,1.058,3.445,1.755,4.043,2.094
			C224.454,306.652,225.137,307.068,225.907,307.563z M242.579,301.946l-2.397-0.305c-0.418,1.401-1.108,2.742-2.074,4.022
			c-0.967,1.281-2.152,2.356-3.56,3.228l1.281,1.633c2.224-1.302,3.987-3.042,5.289-5.219h5.188c-0.271,1.469-0.703,2.7-1.298,3.695
			c-1.661-0.792-3.185-1.414-4.569-1.867l-1.086,1.789c1.604,0.589,3.033,1.191,4.289,1.813c-1.559,1.526-3.703,2.555-6.438,3.086
			l0.78,2.031c1.678-0.375,3.156-0.891,4.438-1.547s2.341-1.426,3.177-2.31c0.836-0.883,1.49-1.843,1.965-2.879
			c0.473-1.036,0.819-2.167,1.039-3.391c0.112-0.667,0.182-1.461,0.203-2.383h-6.728
			C242.193,303.059,242.359,302.592,242.579,301.946z M253.751,306.478c0,2.239-0.31,3.907-0.922,5.004
			c-0.615,1.097-1.492,1.923-2.634,2.48l0.914,1.905c1.691-0.792,2.947-1.882,3.767-3.27c0.815-1.388,1.222-3.306,1.211-5.754
			v-4.047h-2.336V306.478L253.751,306.478z M260.29,312.531v-10.194h-2.336v12.477l0.93,0.766c1.552-0.38,2.959-1.115,4.224-2.207
			c1.262-1.091,2.271-2.429,3.026-4.012l-1.813-1.414C263.23,310.217,261.889,311.745,260.29,312.531z M273.721,304.72h6.202v-2
			h-12.569v2h3.944v2.922h-4.43v2.022h4.414v2.281c0,1.167,0.231,2.008,0.698,2.523c0.465,0.516,1.336,0.772,2.613,0.772h5.711
			v-2.078h-5.531c-0.469,0-0.772-0.105-0.914-0.319c-0.141-0.214-0.211-0.565-0.211-1.056v-2.125h7.414v-2.022h-7.344v-2.921
			H273.721z M295.846,303.438c-0.313-0.781-0.681-1.586-1.103-2.414l-1.056,0.445c0.488,0.941,0.836,1.742,1.039,2.397
			L295.846,303.438z M295.876,301.164c0.349,0.688,0.705,1.487,1.069,2.398l1.095-0.414c-0.324-0.771-0.699-1.564-1.125-2.383
			L295.876,301.164z M283.234,304.703h10.978v-1.983h-10.978V304.703z M282.376,308.767h6.306v0.352c0,1.203-0.431,2.21-1.285,3.021
			c-0.857,0.81-2.082,1.382-3.676,1.715l0.702,1.953c2.146-0.434,3.791-1.216,4.938-2.353c1.145-1.136,1.719-2.544,1.719-4.227
			l-0.008-0.461h5.625v-2.016h-14.32L282.376,308.767L282.376,308.767z M301.751,306.478c0,2.239-0.31,3.907-0.922,5.004
			c-0.615,1.097-1.492,1.923-2.634,2.48l0.914,1.905c1.691-0.792,2.947-1.882,3.767-3.27c0.815-1.388,1.222-3.306,1.211-5.754
			v-4.047h-2.336V306.478z M308.29,312.531v-10.194h-2.336v12.477l0.93,0.766c1.552-0.38,2.959-1.115,4.224-2.207
			c1.262-1.091,2.271-2.429,3.026-4.012l-1.813-1.414C311.23,310.217,309.889,311.745,308.29,312.531z"/>
	</g>
	<g id="見えやすい">
		<path fill="#083E00" d="M253.988,95.93c0.478-0.846,0.902-1.934,1.277-3.262l-0.641-0.617h-10.266v2.047l7.916,0.008
			c-0.9,1.984-2.295,3.808-4.185,5.47c-1.888,1.661-3.827,2.917-5.817,3.766l1.142,1.844c2.563-1.072,5-2.727,7.313-4.961
			c2.641,2.271,4.422,3.909,5.344,4.914l1.758-1.68c-1.516-1.438-3.398-3.07-5.648-4.898
			C252.911,97.652,253.514,96.776,253.988,95.93z M273.523,97.762l-6.108,0.656l-0.233-2.742l5.241-0.461l-0.194-2.047l-5.228,0.453
			l-0.228-2.563l-2.366,0.203l0.219,2.563l-5.375,0.461l0.147,2.086l5.398-0.484l0.242,2.781l-6.344,0.641l0.219,2.086l6.305-0.647
			l0.383,4.547l2.406-0.188l-0.406-4.602l6.133-0.633L273.523,97.762z M288.32,97.324c-1.088,2.271-2.432,3.8-4.03,4.586V91.715
			h-2.336v12.477l0.93,0.767c1.554-0.381,2.962-1.115,4.224-2.207c1.264-1.092,2.272-2.429,3.026-4.013L288.32,97.324z
			 M277.751,95.855c0,2.24-0.308,3.908-0.922,5.004c-0.613,1.098-1.492,1.925-2.634,2.48l0.914,1.906
			c1.693-0.792,2.949-1.882,3.767-3.271c0.817-1.388,1.224-3.307,1.211-5.754v-4.047h-2.336V95.855z M50.217,73.443
			c-0.074,0.457-0.176,0.771-0.305,0.943s-0.275,0.285-0.439,0.34s-0.57,0.101-1.219,0.135c-0.649,0.035-1.035,0.054-1.16,0.054
			c-1.289,0-2.068-0.076-2.338-0.229s-0.404-0.399-0.404-0.744v-4.651h5.039V55.941H33.137v13.349h3.996
			c-0.172,1.844-0.922,3.256-2.25,4.235c-1.328,0.98-2.977,1.601-4.945,1.857l0.434,1.348c1.805-0.227,3.354-0.705,4.646-1.436
			c1.292-0.731,2.234-1.551,2.824-2.461c0.59-0.91,0.975-2.092,1.154-3.545h3.574v4.969c0,0.367,0.064,0.688,0.193,0.961
			c0.129,0.273,0.305,0.494,0.527,0.662s0.438,0.274,0.645,0.322c0.207,0.047,0.703,0.086,1.488,0.116
			c0.785,0.031,1.408,0.048,1.869,0.048c0.672,0,1.402-0.027,2.191-0.082c0.789-0.056,1.383-0.246,1.781-0.574
			s0.598-0.789,0.598-1.383v-2.836l-1.535-0.246C50.329,72.254,50.292,72.986,50.217,73.443z M34.883,57.289h12.773v2.672H34.883
			V57.289z M34.883,61.262h12.773v2.613H34.883V61.262z M34.883,67.965v-2.836h12.773v2.836H34.883z M71.317,57.758
			c-3.969-0.531-8.473-0.797-13.512-0.797v1.535c5.148,0.063,9.563,0.358,13.242,0.891L71.317,57.758z M70.543,74.053
			c-0.695-0.051-1.125-0.162-1.289-0.334s-0.275-0.332-0.334-0.48c-0.059-0.147-0.123-0.575-0.193-1.282s-0.105-1.279-0.105-1.718
			c-0.047-1.702-0.648-2.555-1.805-2.555c-0.32,0-0.68,0.051-1.078,0.152c1.969-1.556,4.059-3.138,6.27-4.746l-0.938-1.277H56.282
			v1.535l12.703-0.047c-0.742,0.625-1.977,1.59-3.703,2.895c-1.625,1.22-2.855,2.191-3.691,2.918
			c-3.25,2.648-5.707,4.605-7.371,5.871l1.254,1.254c4.766-3.883,7.488-6.09,8.168-6.62c0.68-0.531,1.387-0.798,2.121-0.798
			c0.352,0,0.613,0.119,0.785,0.357c0.172,0.238,0.273,0.607,0.305,1.107c0.086,1.633,0.176,2.725,0.27,3.274
			c0.094,0.55,0.326,0.994,0.697,1.33c0.371,0.336,0.891,0.57,1.559,0.703s1.861,0.199,3.58,0.199c1.172,0,2.199-0.027,3.082-0.082
			l0.023-1.688c-1.055,0.07-2.145,0.105-3.27,0.105C71.989,74.129,71.239,74.104,70.543,74.053z M94.661,59.387
			c-0.789,0-1.887,0.125-3.293,0.375c-1.078-1.586-1.859-2.664-2.344-3.234l-1.465,0.773c0.617,0.805,1.285,1.742,2.004,2.813
			c-1.648,0.353-3.574,0.82-5.777,1.406l-1.43-5.319l-1.875,0.409c0.445,1.461,0.949,3.259,1.512,5.392l-4.207,1.207l0.316,1.604
			c1.375-0.414,2.809-0.828,4.301-1.242c1.5,5.828,2.547,10.06,3.141,12.691l1.852-0.363l-3.211-12.819
			c2.438-0.656,4.531-1.177,6.281-1.56c0.766,1.228,1.277,2.156,1.535,2.789l1.699-0.715c-0.422-0.82-0.887-1.633-1.395-2.438
			c1.016-0.18,1.797-0.27,2.344-0.27c1.141,0.008,2.029,0.34,2.666,0.996c0.637,0.656,0.955,1.555,0.955,2.695
			c0,0.625-0.133,1.188-0.398,1.688s-0.643,0.91-1.131,1.23c-0.488,0.319-1.012,0.528-1.57,0.627
			c-0.558,0.098-1.205,0.146-1.939,0.146c-0.945,0-1.82-0.07-2.625-0.211l-0.047,1.512c0.992,0.195,2.039,0.293,3.141,0.293
			c2.031,0,3.613-0.495,4.746-1.487c1.133-0.992,1.699-2.281,1.699-3.867c0-1.555-0.504-2.797-1.512-3.728
			C97.626,59.85,96.301,59.387,94.661,59.387z M116.692,56.129h-1.887v2.801h-11.742v1.535h11.742v2.824
			c-0.758-0.57-1.621-0.855-2.59-0.855c-1.289,0-2.377,0.42-3.264,1.26c-0.887,0.841-1.33,1.89-1.33,3.146
			c0,1.094,0.395,2.002,1.184,2.725c0.789,0.724,1.754,1.084,2.895,1.084c1.008,0,1.871-0.26,2.59-0.778
			c0.719-0.52,1.176-1.232,1.371-2.14c0.031,0.234,0.047,0.496,0.047,0.785c0,1.711-0.639,3.146-1.916,4.301
			c-1.277,1.156-2.854,1.802-4.729,1.935l0.48,1.465c2.234-0.141,4.111-0.912,5.631-2.314c1.52-1.401,2.283-3.135,2.291-5.196
			c0-1.578-0.258-2.82-0.773-3.728v-4.512h7.395V58.93h-7.395V56.129L116.692,56.129z M114.829,65.891
			c-0.023,0.978-0.311,1.766-0.861,2.367c-0.55,0.601-1.287,0.902-2.209,0.902c-0.727,0-1.301-0.23-1.723-0.691
			c-0.422-0.461-0.633-1.07-0.633-1.828c-0.008-0.695,0.258-1.324,0.797-1.887c0.539-0.563,1.152-0.849,1.84-0.855
			c1.414,0,2.344,0.441,2.789,1.324V65.891z M141.395,59.75c1.391,1.719,2.461,3.672,3.211,5.858c0.75,2.188,1.125,4.438,1.125,6.75
			v0.211l1.969-0.059c-0.055-5.469-1.676-10.027-4.863-13.676L141.395,59.75z M133.684,71.92c-0.688,1.113-1.234,1.67-1.641,1.67
			c-0.25,0-0.646-0.392-1.189-1.172c-0.543-0.781-0.957-1.713-1.242-2.795c-0.285-1.082-0.428-2.304-0.428-3.662
			c0-0.906,0.098-2.142,0.293-3.703c0.219-1.75,0.344-2.978,0.375-3.68h-1.969c-0.016,0.772-0.117,2-0.305,3.68
			c-0.18,1.602-0.27,2.84-0.27,3.715c0,0.978,0.098,1.98,0.293,3.012c0.195,1.032,0.498,2.019,0.908,2.959
			c0.41,0.941,0.861,1.683,1.354,2.222c0.493,0.539,0.891,0.901,1.195,1.09c0.304,0.188,0.652,0.281,1.043,0.281
			c0.641,0,1.26-0.357,1.857-1.072s1.184-1.607,1.758-2.678c0.574-1.071,0.994-1.978,1.26-2.72l-1.441-0.75
			C134.989,69.605,134.372,70.807,133.684,71.92z M213.672,44.523c-0.031,0.123-0.094,0.185-0.188,0.185
			c-0.193,0-0.565-0.403-1.117-1.211c0.953-1.239,1.856-3.002,2.711-5.289l-2.18-0.656c-0.422,1.375-0.943,2.57-1.563,3.586
			c-0.303-1.047-0.523-2.401-0.664-4.063h4.578v-1.694h-1.164l0.625-0.578c-0.672-0.62-1.479-1.266-2.422-1.938l-1.297,1.234
			c0.666,0.568,1.174,0.995,1.523,1.281h-1.945l-0.008-2.517h-2.258c0,1.203,0.008,2.042,0.023,2.517h-6.344v4.258
			c0,2.761-0.561,4.898-1.68,6.414l1.57,1.086c1.411-1.776,2.182-4.016,2.313-6.719h1.836c0.005,0.177,0.008,0.349,0.008,0.516
			c0,0.88-0.041,1.57-0.121,2.07c-0.08,0.5-0.199,0.797-0.355,0.891c-0.156,0.094-0.336,0.142-0.539,0.142h-1.313l0.266,1.883h1.648
			c0.281,0,0.551-0.049,0.809-0.148c0.258-0.099,0.489-0.233,0.695-0.406c0.205-0.172,0.363-0.361,0.473-0.569
			c0.109-0.208,0.217-0.609,0.324-1.203c0.106-0.594,0.166-1.137,0.18-1.629c0.013-0.492,0.02-1.577,0.02-3.254h-3.906v-1.633h4.227
			c0.219,2.505,0.689,4.542,1.414,6.108c-0.787,0.927-1.639,1.745-2.555,2.453l1.219,1.406c0.916-0.651,1.729-1.315,2.438-1.992
			c0.516,0.682,0.99,1.199,1.426,1.551c0.436,0.353,0.91,0.527,1.426,0.527c0.4,0,0.727-0.087,0.977-0.262
			c0.25-0.176,0.426-0.432,0.527-0.771s0.17-0.932,0.207-1.781l0.086-1.805l-1.727-0.305
			C213.771,43.629,213.704,44.401,213.672,44.523z M231.234,42.77v-1.694h-6.125v-0.992h5.25V33.52h-12.452v6.563h5.022v0.992
			h-5.883v1.694h4.305c-1.608,1.063-3.242,1.826-4.897,2.289l0.719,1.664c2.214-0.641,4.144-1.57,5.789-2.789v3.125h2.117v-3.18
			c1.589,1.297,3.491,2.245,5.711,2.844l1.086-1.891c-1.864-0.396-3.583-1.083-5.155-2.063L231.234,42.77L231.234,42.77z
			 M225.109,35.059h3.086v1.103h-3.086V35.059z M225.109,37.441h3.086v1.086h-3.086V37.441z M222.93,38.527h-2.906v-1.086h2.906
			V38.527z M222.93,36.16h-2.906v-1.103h2.906V36.16z M166.047,91.551h-8.32v1.859h8.32V91.551z M156.508,91.41l-2.016-0.625
			c-0.787,1.563-1.81,2.911-3.07,4.047l1.328,1.344C154.511,94.728,155.764,93.14,156.508,91.41z M156.985,97.777h4.898v4.828
			c0,0.101-0.047,0.197-0.141,0.293c-0.094,0.098-0.201,0.146-0.32,0.146h-1.953l0.242,2.016h2.672c0.453,0,0.862-0.149,1.227-0.449
			c0.364-0.3,0.547-0.688,0.547-1.168v-5.664h2.492v-1.922h-9.664V97.777L156.985,97.777z M157.165,95.184l-1.859-0.75
			c-0.156,0.448-0.642,1.294-1.457,2.539s-1.634,2.24-2.457,2.984l1.148,1.453c0.359-0.298,0.745-0.666,1.156-1.109v4.867h2.203
			v-7.195h-0.305C156.407,96.827,156.93,95.897,157.165,95.184z M179.454,91.043h-2.133v3.164h-1.039v1.711h1.07
			c-0.042,2.136-0.294,3.879-0.758,5.229c-0.464,1.352-0.818,2.215-1.063,2.59v-0.905c-0.302,0.058-1.133,0.123-2.492,0.194v-0.594
			h2.875v-1.406h-2.875v-0.641h2.797v-5.055h-2.797v-0.609h2.938v-1.344h-2.938v-0.617c1.078-0.099,1.893-0.219,2.445-0.359
			l-0.688-1.491c-1.422,0.339-3.599,0.572-6.531,0.702l0.211,1.384c0.906-0.021,1.771-0.053,2.594-0.095v0.478h-3.172v1.344h3.172
			v0.609h-2.82v5.055h2.82v0.641h-3.156v1.406h3.156v0.688c-1.724,0.072-2.873,0.108-3.445,0.108l0.289,1.734
			c4.594-0.297,7.125-0.537,7.594-0.719l1.242,0.797c0.604-0.859,1.098-1.826,1.48-2.902c0.383-1.075,0.642-2.004,0.777-2.785
			c0.135-0.78,0.231-1.927,0.289-3.438h0.797l0.008,2.766c0,1.006-0.046,1.924-0.137,2.758c-0.091,0.834-0.217,1.338-0.379,1.513
			s-0.378,0.262-0.648,0.262h-1.07l0.211,1.766h1.664c0.448,0,0.836-0.114,1.164-0.344c0.328-0.229,0.556-0.516,0.684-0.859
			c0.127-0.344,0.241-0.981,0.34-1.914c0.099-0.932,0.148-1.836,0.148-2.711v-4.944h-2.625L179.454,91.043L179.454,91.043z
			 M173.04,96.527h1.023v0.898h-1.023V96.527z M173.04,98.27h1.023v0.883h-1.023V98.27z M171.071,99.152h-1.023V98.27h1.023V99.152z
			 M171.071,97.426h-1.023v-0.898h1.023V97.426z"/>
	</g>
</g>
</svg>
