<?xml version="1.0" encoding="utf-8"?>
<!-- Generator: Adobe Illustrator 14.0.0, SVG Export Plug-In . SVG Version: 6.00 Build 43363)  -->
<!DOCTYPE svg PUBLIC "-//W3C//DTD SVG 1.1 Basic//EN" "http://www.w3.org/Graphics/SVG/1.1/DTD/svg11-basic.dtd">
<svg version="1.1" baseProfile="basic" id="レイヤー_2"
	 xmlns="http://www.w3.org/2000/svg" xmlns:xlink="http://www.w3.org/1999/xlink" x="0px" y="0px" width="286.382px"
	 height="302.76px" viewBox="1.801 81.234 286.382 302.76" xml:space="preserve">
<g>
	<path fill="#0D4482" d="M274.308,105.733c2.25,0.047,4.148,0.508,5.695,1.383c1.797,1.047,2.695,1.961,2.695,2.742
		c0,0.281-0.195,0.5-0.586,0.656c-0.359,0.156-1.797,0.609-4.313,1.359c-0.391,0.109-0.586,0.313-0.586,0.609
		c0,0.266,0.195,0.398,0.586,0.398c0.063,0,0.125,0,0.188,0c0.563-0.031,1.281-0.078,2.156-0.141
		c0.953-0.063,1.609-0.102,1.969-0.117c0.313-0.016,0.563-0.023,0.75-0.023c0.641,0,1.063,0.063,1.266,0.188
		c0.328,0.25,0.75,0.375,1.266,0.375c0.828,0,1.242-0.609,1.242-1.828c0-0.875-0.336-1.789-1.008-2.742
		c-0.719-1.016-1.617-1.828-2.695-2.438c-2.328-1.313-4.984-1.969-7.969-1.969c-2.359,0-4.648,0.367-6.867,1.102
		c-2.016-2.688-3.195-4.297-3.539-4.828c-0.734-1.156-1.102-2.281-1.102-3.375c0-1.172,0.602-2.336,1.805-3.492
		c1.281-1.25,2.422-1.875,3.422-1.875c0.5,0,0.898,0.047,1.195,0.141c0.344,0.094,0.648,0.141,0.914,0.141
		c0.797,0,1.195-0.398,1.195-1.195c0-0.766-0.398-1.438-1.195-2.016c-0.922-0.703-2.102-1.297-3.539-1.781
		c-2.938-1-4.492-2.469-4.664-4.406c-0.047-0.453-0.266-0.68-0.656-0.68s-0.586,0.352-0.586,1.055c0,1.266,0.414,2.453,1.242,3.563
		c0.656,0.891,2.047,2.008,4.172,3.352c-1.828,1.609-3.109,3.008-3.844,4.195c-0.734,1.172-1.102,2.461-1.102,3.867
		c0,1.156,0.445,2.516,1.336,4.078c0.594,1.031,1.508,2.391,2.742,4.078c-4.219,1.859-8.82,4.43-13.805,7.711
		c-0.859,0.578-1.508,0.867-1.945,0.867c-0.547,0-1-0.242-1.359-0.727c-0.266-0.313-0.398-0.742-0.398-1.289
		c0-0.094,0-0.234,0-0.422c0-0.031,0-0.07,0-0.117c0-0.266-0.133-0.398-0.398-0.398c-0.188,0-0.375,0.164-0.563,0.492
		c-0.422,0.625-0.633,1.211-0.633,1.758c0,0.656,0.32,1.438,0.961,2.344c0.297,0.422,0.68,0.82,1.148,1.195
		c0.625,0.484,1.156,0.727,1.594,0.727c0.547,0,1.023-0.211,1.43-0.633c1.609-1.547,2.969-2.789,4.078-3.727
		c3.313,1.25,5.602,2.141,6.867,2.672c1.469,0.641,2.297,1.031,2.484,1.172c0.422,0.281,0.953,0.422,1.594,0.422
		c1.219,0,2.289-0.391,3.211-1.172c1.188-1.016,1.781-2.445,1.781-4.289c0-1.625-1.008-3.711-3.023-6.258
		C270.558,105.921,272.355,105.686,274.308,105.733L274.308,105.733z M269.058,112.694c0,1.625-0.734,2.438-2.203,2.438
		c-1,0-2.359-0.156-4.078-0.469c-1.688-0.344-3.563-0.891-5.625-1.641c3.313-2.375,6.5-4.281,9.563-5.719
		C268.277,109.413,269.058,111.21,269.058,112.694L269.058,112.694z"/>
	<path fill="#0D4482" d="M264.136,140.606c0.375-0.844,0.711-1.383,1.008-1.617c0.453-0.344,0.68-0.797,0.68-1.359
		c0-0.484-0.273-0.945-0.82-1.383c-0.516-0.422-1.188-0.797-2.016-1.125c-0.859-0.344-1.531-0.516-2.016-0.516
		c-0.328,0-0.758,0.078-1.289,0.234c-0.453,0.203-0.68,0.414-0.68,0.633c0,0.203,0.273,0.359,0.82,0.469
		c1.531,0.328,2.297,1.055,2.297,2.18c0,0.531-0.156,1.359-0.469,2.484c-0.344,1.281-0.797,2.711-1.359,4.289
		c-2.672,0.828-4.844,1.242-6.516,1.242c-1.641,0-3.008-0.367-4.102-1.102c-0.453-0.297-0.75-0.445-0.891-0.445
		c-0.359,0-0.539,0.18-0.539,0.539c0,0.531,0.461,1.125,1.383,1.781c1.203,0.891,2.758,1.336,4.664,1.336
		c1.391,0,3.102-0.242,5.133-0.727c-2.844,7.891-5.914,15.094-9.211,21.609c-0.156,0.375-0.234,0.695-0.234,0.961
		c0,0.391,0.109,0.75,0.328,1.078c0.266,0.313,0.633,0.469,1.102,0.469c0.672,0,1.188-0.398,1.547-1.195
		c1.781-4.094,4.742-11.938,8.883-23.531c2.75-0.75,5.367-1.586,7.852-2.508c1.125-0.438,1.688-0.984,1.688-1.641
		c0-0.344-0.148-0.633-0.445-0.867c-0.281-0.219-0.625-0.328-1.031-0.328c-0.453,0-1.227,0.258-2.32,0.773
		c-1.563,0.734-3.18,1.375-4.852,1.922C263.496,142.184,263.964,140.965,264.136,140.606L264.136,140.606z M266.925,161.16
		c0-0.25-0.109-0.375-0.328-0.375c-0.328,0-0.617,0.289-0.867,0.867c-0.578,1.266-0.867,2.445-0.867,3.539
		c0,0.906,0.25,1.797,0.75,2.672c0.547,0.984,1.305,1.773,2.273,2.367c1.938,1.188,4.898,1.781,8.883,1.781
		c1.953,0,3.695-0.109,5.227-0.328c0.766-0.109,1.297-0.273,1.594-0.492c0.313-0.219,0.469-0.57,0.469-1.055
		c0-0.625-0.32-1.07-0.961-1.336c-0.484-0.188-0.977-0.281-1.477-0.281c-0.609,0-1.266,0.094-1.969,0.281
		c-1.375,0.313-2.844,0.469-4.406,0.469c-2.984,0-5.117-0.336-6.398-1.008c-1.625-0.844-2.438-2.156-2.438-3.938
		c0-0.844,0.102-1.625,0.305-2.344C266.855,161.481,266.925,161.207,266.925,161.16L266.925,161.16z M271.777,154.879
		c-0.297,0.281-0.445,0.484-0.445,0.609c0,0.266,0.109,0.398,0.328,0.398c0.234,0,0.492-0.078,0.773-0.234
		c2.656-1.797,4.273-2.82,4.852-3.07c0.625-0.297,1.172-0.445,1.641-0.445c0.078,0,0.156,0,0.234,0c0.266,0,0.695,0.094,1.289,0.281
		c0.422,0.156,0.773,0.234,1.055,0.234c0.719,0.063,1.102-0.273,1.148-1.008c0.047-0.719-0.398-1.305-1.336-1.758
		c-1.094-0.516-2.602-0.828-4.523-0.938c-0.297-0.016-0.57-0.023-0.82-0.023c-3.531,0-6.555,0.93-9.07,2.789
		c-0.25,0.203-0.375,0.43-0.375,0.68c0,0.219,0.133,0.328,0.398,0.328c0.156,0,0.328-0.039,0.516-0.117
		c2.063-1.109,4.617-1.664,7.664-1.664c0.281,0,0.531,0.008,0.75,0.023s0.328,0.063,0.328,0.141s-0.094,0.195-0.281,0.352
		C273.542,153.395,272.167,154.535,271.777,154.879L271.777,154.879z"/>
	<path fill="#0D4482" d="M259.707,207.443c-0.188-0.781-0.281-1.711-0.281-2.789c0-3.578,0.609-6.875,1.828-9.891
		c0.219-0.563,0.477-1.07,0.773-1.523c0.219-0.406,0.328-0.844,0.328-1.313c0-1.031-0.289-2.023-0.867-2.977
		c-0.359-0.594-0.828-1.133-1.406-1.617c-0.625-0.547-1.102-0.82-1.43-0.82c-0.391,0-0.586,0.125-0.586,0.375
		c0,0.266,0.094,0.492,0.281,0.68c0.656,0.688,0.984,1.743,0.984,3.164c0,1.031-0.242,2.695-0.727,4.992
		c-0.672,3.375-1.008,6.336-1.008,8.883c0,2.453,0.211,4.438,0.633,5.953c0.234,0.844,0.563,1.539,0.984,2.086
		c0.469,0.625,0.938,0.938,1.406,0.938c0.734,0,1.102-0.398,1.102-1.195c0-0.313-0.047-0.711-0.141-1.195
		c-0.063-0.563-0.094-0.984-0.094-1.266c0-1.281,0.305-2.992,0.914-5.133c1.297-4.453,2.703-7.82,4.219-10.102
		c0.766-1.219,1.531-1.828,2.297-1.828c1.125,0,2.063,0.859,2.813,2.578c0.938,2.125,1.406,5.148,1.406,9.07
		c0,4.563-1.047,8.555-3.141,11.977c-2.328,3.797-5.742,6.641-10.242,8.531c-0.484,0.203-0.727,0.406-0.727,0.609
		c0,0.453,0.164,0.68,0.492,0.68c0.188,0,0.523-0.078,1.008-0.234c4.625-1.531,8.25-3.906,10.875-7.125
		c3.109-3.828,4.664-8.703,4.664-14.625c0-3.469-0.578-6.414-1.734-8.836c-1.328-2.781-3.055-4.172-5.18-4.172
		c-1.094,0-2.164,0.656-3.211,1.969c-1.406,1.734-2.828,4.649-4.266,8.742c-0.094,0.313-0.383,1.157-0.867,2.531
		c-0.391,1.157-0.695,2.118-0.914,2.883H259.707z"/>
	<path fill="#0D4482" d="M280.449,252.326c0,0.234,0.063,0.391,0.188,0.469c1.781,1.078,3.094,2.367,3.938,3.867
		c0.516,0.859,1.039,1.289,1.57,1.289c0.313,0,0.574-0.125,0.785-0.375s0.316-0.555,0.316-0.914c0-1.063-0.719-2.094-2.156-3.094
		c-1.094-0.75-2.227-1.281-3.398-1.594c-0.328-0.094-0.586-0.141-0.773-0.141C280.605,251.834,280.449,251.998,280.449,252.326
		L280.449,252.326z M276.371,255.326c0,0.188,0.094,0.352,0.281,0.492c1.641,1.203,2.828,2.5,3.563,3.891
		c0.547,1.047,1.07,1.57,1.57,1.57c0.797,0,1.195-0.461,1.195-1.383c0-0.969-0.688-2.008-2.063-3.117
		c-0.922-0.766-2.102-1.406-3.539-1.922c-0.094-0.031-0.258-0.047-0.492-0.047C276.542,254.81,276.371,254.982,276.371,255.326
		L276.371,255.326z M278.269,244.592c-0.531,0.297-1.281,0.547-2.25,0.75c-2.359,0.609-5.734,1.477-10.125,2.602
		c-4.969,1.266-8.539,2.172-10.711,2.719c-1.406,0.359-2.43,0.539-3.07,0.539c-0.609,0.016-1.148-0.094-1.617-0.328
		c-0.438-0.219-0.969-0.672-1.594-1.359c-0.281-0.281-0.492-0.422-0.633-0.422c-0.313,0-0.469,0.305-0.469,0.914
		c0,0.719,0.43,1.633,1.289,2.742c1.125,1.313,2.18,1.969,3.164,1.969c0.563,0,1.109-0.18,1.641-0.539
		c1.031-0.594,2.219-1.133,3.563-1.617c3.375-1.219,7.664-2.594,12.867-4.125l0.094,0.141c-2.578,1.438-4.664,3.359-6.258,5.766
		c-1.875,2.797-2.813,5.805-2.813,9.023c0,3.797,1.391,6.852,4.172,9.164c1.375,1.188,3.203,2.148,5.484,2.883
		s4.453,1.102,6.516,1.102c1.469,0,2.203-0.414,2.203-1.242c0-0.75-0.383-1.328-1.148-1.734c-0.875-0.469-2.094-0.742-3.656-0.82
		c-1.313-0.016-2.656-0.242-4.031-0.68c-1.719-0.547-3.156-1.313-4.313-2.297c-2.172-1.734-3.258-4.328-3.258-7.781
		c0-2.547,0.906-5.055,2.719-7.523c1.969-2.672,4.289-4.469,6.961-5.391c2.625-0.953,5.734-1.484,9.328-1.594
		c1.047-0.047,1.57-0.477,1.57-1.289c0-0.656-0.43-1.133-1.289-1.43c-1-0.422-1.914-0.633-2.742-0.633
		C279.285,244.099,278.753,244.263,278.269,244.592L278.269,244.592z"/>
	<path fill="#0D4482" d="M276.511,291.908c3.328,1.875,5.797,4.664,7.406,8.367c0.516,1.156,1.25,1.734,2.203,1.734
		c0.547,0,1.008-0.195,1.383-0.586c0.453-0.469,0.68-1.07,0.68-1.805c0-1.688-1.055-3.391-3.164-5.109
		c-2.109-1.688-4.734-2.891-7.875-3.609c-0.094-0.016-0.195-0.023-0.305-0.023c-0.469,0-0.703,0.141-0.703,0.422
		C276.136,291.564,276.261,291.767,276.511,291.908L276.511,291.908z"/>
	<path fill="#0D4482" d="M168.191,110.765c-0.219,0.344-0.328,0.727-0.328,1.148c0,0.359,0.109,0.672,0.328,0.938
		c0.266,0.328,0.586,0.492,0.961,0.492c0.766,0,1.297-0.32,1.594-0.961c2.375-4.703,5.398-11.273,9.07-19.711
		c2.609-0.563,5.117-1.234,7.523-2.016c1.063-0.375,1.594-0.891,1.594-1.547c0-0.359-0.156-0.656-0.469-0.891
		c-0.313-0.266-0.672-0.398-1.078-0.398c-0.547,0-1.359,0.258-2.438,0.773c-1.438,0.656-2.797,1.164-4.078,1.523
		c0.219-0.484,0.461-1.047,0.727-1.688c0.406-0.938,0.625-1.445,0.656-1.523c0.5-1.094,0.914-1.75,1.242-1.969
		c0.391-0.266,0.586-0.633,0.586-1.102c0-0.516-0.516-1.016-1.547-1.5c-1.531-0.734-2.773-1.102-3.727-1.102
		c-1.094,0-1.641,0.289-1.641,0.867c0,0.125,0.125,0.219,0.375,0.281c0.594,0.094,1.203,0.336,1.828,0.727
		c0.578,0.359,0.867,0.758,0.867,1.195c0,0.531-0.078,1.094-0.234,1.688c-0.563,1.781-1.125,3.352-1.688,4.711
		c-2.688,0.563-4.828,0.82-6.422,0.773c-1.516,0-2.797-0.375-3.844-1.125c-0.297-0.188-0.539-0.281-0.727-0.281
		c-0.25,0-0.375,0.125-0.375,0.375c0,0.141,0.063,0.336,0.188,0.586c0.391,0.719,1.008,1.305,1.852,1.758
		c0.938,0.5,1.938,0.75,3,0.75c1.719,0,3.508-0.164,5.367-0.492C174.621,99.343,171.566,105.249,168.191,110.765L168.191,110.765z
		 M194.511,96.656c0,0.094-0.078,0.172-0.234,0.234c-1.797,0.516-3.117,1.219-3.961,2.109c-1.016,1.063-1.523,2.563-1.523,4.5
		c0,0.531,0.258,3.094,0.773,7.688c-0.984-0.219-2.383-0.328-4.195-0.328c-1.781,0-3.32,0.391-4.617,1.172
		c-1.594,0.969-2.391,2.258-2.391,3.867c0,1.172,0.5,2.172,1.5,3c1.219,1.031,2.914,1.547,5.086,1.547
		c2.672,0,4.594-0.609,5.766-1.828c0.938-1.016,1.461-2.469,1.57-4.359c1.969,0.766,4.242,2.156,6.82,4.172
		c0.406,0.313,0.828,0.492,1.266,0.539c0.953,0,1.43-0.461,1.43-1.383c0-0.656-0.273-1.219-0.82-1.688
		c-1.531-1.391-4.492-2.781-8.883-4.172c-0.078-0.453-0.211-1.117-0.398-1.992c-0.25-1.156-0.43-2.016-0.539-2.578
		c-0.359-1.953-0.539-3.57-0.539-4.852c0-1.156,0.398-2.141,1.195-2.953c0.906-0.906,2.039-1.359,3.398-1.359
		c1.375,0,2.688,0.617,3.938,1.852c0.516,0.516,1.047,0.773,1.594,0.773c0.328,0,0.609-0.109,0.844-0.328
		c0.234-0.25,0.352-0.539,0.352-0.867c0-0.922-0.672-1.836-2.016-2.742c-0.938-0.625-2.133-1.141-3.586-1.547
		c-1.594-0.438-3.164-0.656-4.711-0.656c-1.484,0-2.844,0.18-4.078,0.539c-0.453,0.125-0.68,0.359-0.68,0.703
		c0,0.266,0.203,0.398,0.609,0.398c0.016,0,0.055,0,0.117,0c0.828-0.141,1.672-0.211,2.531-0.211c1.672,0,3.063,0.195,4.172,0.586
		C194.441,96.538,194.511,96.593,194.511,96.656L194.511,96.656z M188.441,117.093c-0.844,0.797-2.172,1.195-3.984,1.195
		c-1.391,0-2.492-0.219-3.305-0.656c-0.875-0.469-1.313-1.109-1.313-1.922c0-0.891,0.477-1.609,1.43-2.156
		c1.047-0.578,2.43-0.867,4.148-0.867c1.563,0,3.008,0.234,4.336,0.703C189.691,115.124,189.253,116.359,188.441,117.093
		L188.441,117.093z"/>
	<path fill="#0D4482" d="M174.777,143.255c-1.188,0.703-1.781,1.523-1.781,2.461l0.164,2.016c0,0.797-0.094,1.696-0.281,2.695
		c-0.813,4.61-1.219,8.188-1.219,10.734c0,1.157,0.211,2.055,0.633,2.695c0.422,0.735,0.852,1.102,1.289,1.102
		c0.688,0,1.18-0.367,1.477-1.102c0.203-0.5,1.023-1.539,2.461-3.117c1.672-1.89,3.516-3.46,5.531-4.711
		c2.609-1.641,5.07-2.461,7.383-2.461c1.594,0,2.961,0.438,4.102,1.313c1.359,1.047,2.039,2.453,2.039,4.219
		c0,1.688-0.43,3.149-1.289,4.383c-0.891,1.281-2.414,2.54-4.57,3.773c-3.594,2.063-8.086,3.438-13.477,4.125
		c-0.484,0.063-0.727,0.29-0.727,0.68c0,0.422,0.234,0.633,0.703,0.633c0.016,0,0.055,0,0.117,0
		c6.141-0.359,11.148-1.484,15.023-3.375c4.953-2.359,7.43-5.492,7.43-9.398c0-2.265-0.844-4.109-2.531-5.531
		c-1.797-1.5-4.109-2.25-6.938-2.25c-2.141,0-4.453,0.618-6.938,1.852c-2.297,1.125-5.195,3.04-8.695,5.742
		c-0.203,0.125-0.352,0.188-0.445,0.188s-0.141-0.195-0.141-0.586c0.125-3.171,0.352-5.726,0.68-7.664
		c0.328-2.016,0.492-3.203,0.492-3.563c0-0.563-0.133-1.132-0.398-1.711c-0.188-0.39-0.281-0.781-0.281-1.172
		c0-0.312,0.305-0.609,0.914-0.891c0.906-0.453,2-0.828,3.281-1.125c1.328-0.313,2.461-0.469,3.398-0.469
		c0.609,0,1.18,0.079,1.711,0.234c0.5,0.156,0.969,0.234,1.406,0.234c0.859,0,1.289-0.445,1.289-1.336
		c0-0.484-0.336-1.063-1.008-1.734c-0.641-0.593-1.5-1.086-2.578-1.477c-1.281-0.453-2.305-0.945-3.07-1.477
		c-1.078-0.75-1.961-1.781-2.648-3.094c-0.156-0.312-0.344-0.469-0.563-0.469c-0.297,0-0.445,0.172-0.445,0.516
		c0,0.032,0,0.07,0,0.117c0.094,1.266,0.719,2.602,1.875,4.008c0.641,0.813,1.594,1.602,2.859,2.367v0.141
		C178.496,141.505,176.417,142.333,174.777,143.255L174.777,143.255z"/>
	<path fill="#0D4482" d="M105.504,82.252c0,0.204,0.211,0.398,0.633,0.586c0.953,0.485,1.43,0.899,1.43,1.242
		c0,0.188-0.258,0.415-0.773,0.68c-4.203,2.266-9.992,4.359-17.367,6.281c-0.672,0.188-1.008,0.407-1.008,0.656
		c0,0.422,0.172,0.633,0.516,0.633c0.031,0,0.07,0,0.117,0c6.594-0.968,13.297-2.773,20.109-5.414
		c0.391-0.141,0.906-0.273,1.547-0.398c0.891-0.203,1.336-0.617,1.336-1.242c0-0.687-0.719-1.484-2.156-2.391
		c-1.203-0.734-2.281-1.102-3.234-1.102C105.887,81.783,105.504,81.94,105.504,82.252L105.504,82.252z M105.457,94.862
		c0-0.312,0.094-0.601,0.281-0.867c0.266-0.343,0.398-0.71,0.398-1.102c0-0.546-0.43-0.992-1.289-1.336
		c-1.188-0.484-2.203-0.727-3.047-0.727c-0.578,0-1.148,0.11-1.711,0.328c-0.359,0.157-0.539,0.336-0.539,0.539
		c0,0.157,0.156,0.281,0.469,0.375c0.859,0.204,1.484,0.415,1.875,0.633c0.484,0.234,0.727,0.75,0.727,1.547
		c0,0.407,0,1.289,0,2.648c-2.234,0.204-5.734,0.571-10.5,1.102c-1.984,0.188-3.188,0.281-3.609,0.281c-0.969,0-2.008-0.5-3.117-1.5
		c-0.328-0.281-0.555-0.422-0.68-0.422c-0.281,0-0.422,0.305-0.422,0.914c0,0.485,0.43,1.188,1.289,2.109
		c1.078,1.188,2.07,1.781,2.977,1.781c0.453,0,0.875-0.125,1.266-0.375c0.453-0.265,1.328-0.507,2.625-0.727
		c3.797-0.593,7.172-1.015,10.125-1.266c-0.219,4.25-1.063,7.907-2.531,10.969c-1.781,3.703-4.609,6.836-8.484,9.398
		c-0.484,0.313-0.727,0.547-0.727,0.703c0,0.484,0.172,0.727,0.516,0.727c0.234,0,0.609-0.125,1.125-0.375
		c4-2.125,7.023-4.789,9.07-7.992c2.234-3.5,3.523-8.039,3.867-13.617c2.859-0.156,5.508-0.234,7.945-0.234
		c1.578,0,3.039,0.032,4.383,0.094c1.344,0.063,2.148,0.094,2.414,0.094c0.797,0,1.195-0.335,1.195-1.008
		c0-0.703-0.445-1.273-1.336-1.711c-1.031-0.516-1.961-0.773-2.789-0.773c-0.438,0-0.922,0.141-1.453,0.422
		c-0.594,0.344-1.18,0.539-1.758,0.586c-4.516,0.328-7.367,0.532-8.555,0.609C105.457,96.44,105.457,95.831,105.457,94.862
		L105.457,94.862z"/>
	<path fill="#0D4482" d="M105.199,144.357c-0.094-0.5-0.141-0.836-0.141-1.008c0-0.234,0.102-0.477,0.305-0.727
		c0.188-0.25,0.281-0.508,0.281-0.773c0-0.406-0.398-0.82-1.195-1.242c-1.328-0.703-2.32-1.055-2.977-1.055
		c-0.453,0-0.945,0.156-1.477,0.469c-0.516,0.344-0.773,0.656-0.773,0.938c0,0.156,0.172,0.234,0.516,0.234
		c1.047,0,1.734,0.141,2.063,0.422c0.281,0.203,0.555,0.828,0.82,1.875c0.391,1.297,0.82,3.063,1.289,5.297
		c-2.188,0.656-4.438,1.313-6.75,1.969c-1,0.25-1.867,0.375-2.602,0.375c-0.609,0-1.266-0.43-1.969-1.289
		c-0.203-0.297-0.398-0.445-0.586-0.445c-0.281,0-0.422,0.336-0.422,1.008c0,0.719,0.492,1.539,1.477,2.461
		c0.906,0.859,1.711,1.289,2.414,1.289c0.375,0,0.664-0.125,0.867-0.375c0.219-0.313,0.727-0.617,1.523-0.914
		c1.344-0.516,3.523-1.258,6.539-2.227c0.406,1.875,0.664,3.016,0.773,3.422c0.266,1.172,1.141,5.266,2.625,12.281
		c0.156,0.859,0.703,1.289,1.641,1.289c0.281,0,0.523-0.117,0.727-0.352c0.219-0.25,0.328-0.531,0.328-0.844
		c0-0.25-0.109-0.875-0.328-1.875c-0.578-2-1.539-5.664-2.883-10.992c-0.531-2.281-0.805-3.461-0.82-3.539
		c4.766-1.5,8.352-2.539,10.758-3.117c0.156,0,0.234,0.063,0.234,0.188c-1.703,2.531-3.883,5.125-6.539,7.781
		c-0.219,0.219-0.328,0.43-0.328,0.633c0,0.281,0.156,0.422,0.469,0.422c0.172,0,0.367-0.078,0.586-0.234
		c2.453-1.906,5-4.211,7.641-6.914c0.344-0.359,0.82-0.539,1.43-0.539c0.672,0,1.008-0.273,1.008-0.82
		c0-0.484-0.461-1.141-1.383-1.969s-1.664-1.242-2.227-1.242c-0.328,0-0.664,0.195-1.008,0.586c-0.359,0.406-0.758,0.656-1.195,0.75
		c-2.672,0.688-5.969,1.586-9.891,2.695C105.66,146.685,105.387,145.388,105.199,144.357L105.199,144.357z"/>
	<path fill="#0D4482" d="M91.348,215.432c0,0.906-0.078,1.516-0.234,1.828c-0.219,0.375-0.328,0.68-0.328,0.914
		c0,0.469,0.305,1.141,0.914,2.016c0.781,1.219,1.422,1.828,1.922,1.828c0.391,0,0.742-0.227,1.055-0.68
		c0.391-0.516,1.172-1.023,2.344-1.523c4.797-2.016,8.844-4.109,12.141-6.281c4.781-3.141,8.625-6.266,11.531-9.375
		c0.219-0.281,0.328-0.469,0.328-0.563c0-0.453-0.211-0.68-0.633-0.68c-0.203,0-0.453,0.125-0.75,0.375
		c-3.625,3.047-7.484,5.758-11.578,8.133c-4.188,2.438-8.586,4.469-13.195,6.094c-0.375,0.094-0.594,0.141-0.656,0.141
		c-0.156,0-0.234-0.164-0.234-0.492c-0.016-0.891-0.023-1.914-0.023-3.07c0-4.547,0.07-9.148,0.211-13.805
		c0.031-1.453,0.266-2.445,0.703-2.977c0.313-0.422,0.469-0.844,0.469-1.266c0-0.578-0.609-1.234-1.828-1.969
		c-0.531-0.313-1.195-0.617-1.992-0.914c-0.984-0.344-1.758-0.516-2.32-0.516c-0.734,0-1.102,0.227-1.102,0.68
		c0,0.203,0.18,0.391,0.539,0.563c0.859,0.391,1.57,0.875,2.133,1.453c0.422,0.406,0.633,1.234,0.633,2.484
		C91.395,206.221,91.379,212.088,91.348,215.432L91.348,215.432z"/>
	<path fill="#0D4482" d="M90.762,268.734c-0.25-0.249-0.461-0.375-0.633-0.375c-0.281,0-0.422,0.321-0.422,0.962
		c0,0.796,0.656,1.851,1.969,3.163c1.266,1.22,2.305,1.828,3.117,1.828c0.563,0,0.977-0.272,1.242-0.82
		c0.156-0.39,0.555-0.82,1.195-1.288c5.063-3.813,9.156-7.289,12.281-10.43c4.328-4.266,7.789-8.539,10.383-12.82
		c0.188-0.329,0.281-0.609,0.281-0.845c0-0.358-0.242-0.538-0.727-0.538c-0.203,0-0.422,0.141-0.656,0.421
		c-3.25,4.22-6.836,8.126-10.758,11.72c-4.375,4.016-8.547,7.234-12.516,9.655c-1.031,0.61-1.75,0.915-2.156,0.915
		C92.801,270.282,91.934,269.766,90.762,268.734L90.762,268.734z M94.746,253.992c0.5,0.97,1.109,1.438,1.828,1.407
		c1.016,0,1.523-0.609,1.523-1.828c0-1.375-0.813-2.703-2.438-3.984c-1.688-1.297-3.453-2.133-5.297-2.508
		c-0.266-0.063-0.531-0.095-0.797-0.095c-0.359,0-0.539,0.181-0.539,0.54c0,0.234,0.141,0.438,0.422,0.609
		C91.621,249.477,93.387,251.43,94.746,253.992L94.746,253.992z"/>
	<path fill="#0D4482" d="M116.824,291.986c0,0.234,0.063,0.398,0.188,0.492c1.781,1.078,3.094,2.359,3.938,3.844
		c0.531,0.859,1.063,1.289,1.594,1.289c0.266,0,0.5-0.102,0.703-0.305c0.266-0.25,0.398-0.578,0.398-0.984
		c0-1.047-0.719-2.07-2.156-3.07c-1.094-0.75-2.234-1.281-3.422-1.594c-0.328-0.094-0.586-0.141-0.773-0.141
		C116.98,291.517,116.824,291.674,116.824,291.986L116.824,291.986z M112.746,295.01c0,0.188,0.094,0.352,0.281,0.492
		c1.656,1.203,2.844,2.5,3.563,3.891c0.547,1.047,1.078,1.57,1.594,1.57c0.797,0,1.195-0.461,1.195-1.383
		c0-0.969-0.688-2.008-2.063-3.117c-0.922-0.766-2.109-1.406-3.563-1.922c-0.094-0.031-0.25-0.047-0.469-0.047
		C112.926,294.494,112.746,294.666,112.746,295.01L112.746,295.01z M96.715,303.424c0.469,0.672,0.969,1.008,1.5,1.008
		c0.422,0,0.789-0.141,1.102-0.422c0.406-0.344,0.609-0.813,0.609-1.406c0-1.219-0.961-2.367-2.883-3.445
		c-1.781-1.031-3.328-1.547-4.641-1.547c-0.484,0-0.727,0.164-0.727,0.492c0,0.188,0.125,0.383,0.375,0.586
		C94.02,300.064,95.574,301.642,96.715,303.424L96.715,303.424z M91.254,323.955c-0.516-0.422-0.922-0.859-1.219-1.313
		c-0.281-0.484-0.547-0.727-0.797-0.727c-0.328,0-0.492,0.414-0.492,1.242c0,1.125,0.609,2.32,1.828,3.586
		c1.188,1.25,2.133,1.875,2.836,1.875c0.563,0,1.039-0.32,1.43-0.961c0.25-0.375,0.57-0.68,0.961-0.914
		c5.25-3.281,9.859-6.602,13.828-9.961c4.625-3.953,7.984-7.438,10.078-10.453c0.359-0.5,0.539-0.836,0.539-1.008
		c0-0.156-0.078-0.297-0.234-0.422c-0.156-0.141-0.32-0.211-0.492-0.211c-0.125,0-0.461,0.305-1.008,0.914
		c-2.859,3-6.188,5.984-9.984,8.953c-4.766,3.703-9.469,6.789-14.109,9.258c-0.891,0.484-1.547,0.727-1.969,0.727
		C92.137,324.541,91.738,324.345,91.254,323.955L91.254,323.955z M90.762,312.447c0.656,0.922,1.281,1.383,1.875,1.383
		c1.125,0,1.688-0.641,1.688-1.922c0-1.266-1.133-2.398-3.398-3.398c-1.672-0.734-3.18-1.102-4.523-1.102
		c-0.484,0-0.727,0.156-0.727,0.469c0,0.297,0.156,0.523,0.469,0.68C88.051,309.572,89.59,310.869,90.762,312.447L90.762,312.447z"
		/>
	<path fill="#0D4482" d="M27.98,116.469c3.703-1.859,6.773-4.367,9.211-7.523c0.219-0.281,0.328-0.516,0.328-0.703
		c0-0.328-0.156-0.492-0.469-0.492c-0.266,0-0.508,0.109-0.727,0.328c-2.453,2.313-5.086,4.188-7.898,5.625
		c-3.516,1.813-6.891,2.719-10.125,2.719c-1.813,0-3.078-0.336-3.797-1.008c-0.891-0.75-1.336-2.234-1.336-4.453
		c0-2.563,0.148-6.305,0.445-11.227c0.219-3.781,0.492-6.938,0.82-9.469c0.063-0.828,0.266-1.414,0.609-1.758
		c0.453-0.453,0.68-0.922,0.68-1.406c0-0.844-0.656-1.758-1.969-2.742c-1.344-0.984-2.461-1.477-3.352-1.477
		c-0.516,0-0.906,0.063-1.172,0.188c-0.313,0.188-0.469,0.383-0.469,0.586c0,0.234,0.227,0.406,0.68,0.516
		c1.484,0.438,2.203,1.625,2.156,3.563c-0.125,5.203-0.258,9.156-0.398,11.859c-0.25,5.688-0.375,9.672-0.375,11.953
		c0,4.984,2.43,7.477,7.289,7.477C21.348,119.024,24.637,118.172,27.98,116.469L27.98,116.469z"/>
	<path fill="#0D4482" d="M32.27,138.854c-0.531,0.297-1.281,0.547-2.25,0.75l-20.836,5.32c-1.406,0.36-2.43,0.539-3.07,0.539
		c-0.609,0.016-1.148-0.094-1.617-0.328c-0.438-0.219-0.969-0.671-1.594-1.359c-0.281-0.281-0.492-0.422-0.633-0.422
		c-0.313,0-0.469,0.305-0.469,0.914c0,0.719,0.43,1.633,1.289,2.742c1.125,1.313,2.18,1.969,3.164,1.969
		c0.563,0,1.109-0.179,1.641-0.539c1.031-0.594,2.219-1.133,3.563-1.617c3.406-1.234,7.695-2.609,12.867-4.125l0.094,0.141
		c-2.578,1.438-4.664,3.36-6.258,5.766c-1.875,2.797-2.813,5.805-2.813,9.023c0,3.797,1.391,6.852,4.172,9.164
		c1.375,1.188,3.203,2.149,5.484,2.883c2.281,0.735,4.453,1.102,6.516,1.102c1.469,0,2.203-0.414,2.203-1.242
		c0-0.75-0.383-1.328-1.148-1.734c-0.875-0.469-2.094-0.742-3.656-0.82c-1.313-0.015-2.656-0.242-4.031-0.68
		c-1.719-0.546-3.156-1.313-4.313-2.297c-2.172-1.734-3.258-4.328-3.258-7.781c0-2.546,0.906-5.054,2.719-7.523
		c1.969-2.656,4.289-4.453,6.961-5.391c2.625-0.953,5.734-1.484,9.328-1.594c1.047-0.047,1.57-0.477,1.57-1.289
		c0-0.656-0.43-1.133-1.289-1.43c-1-0.422-1.914-0.633-2.742-0.633C33.285,138.362,32.754,138.526,32.27,138.854L32.27,138.854z"/>
	<path fill="#0D4482" d="M32.879,204.749c0.109-0.359,0.367-0.742,0.773-1.148c0.344-0.359,0.516-0.695,0.516-1.008
		c0-0.719-0.563-1.531-1.688-2.438c-1.391-1.094-2.633-1.641-3.727-1.641c-0.703,0-1.055,0.227-1.055,0.68
		c0,0.141,0.141,0.281,0.422,0.422c1.531,0.688,2.297,1.617,2.297,2.789c0,1.438-0.445,3.656-1.336,6.656
		c-3.641-1.516-7.781-2.43-12.422-2.742c0.438-0.859,1.664-3.461,3.68-7.805c1.766-3.781,2.875-6.039,3.328-6.773
		c0.406-0.469,0.609-0.875,0.609-1.219c0-0.469-0.383-0.914-1.148-1.336c-0.828-0.516-1.516-0.773-2.063-0.773
		c-0.297,0-0.602,0.18-0.914,0.539c-0.422,0.469-0.883,0.79-1.383,0.961c-3.016,0.953-5.227,1.43-6.633,1.43
		c-0.719,0-1.422-0.656-2.109-1.969c-0.156-0.313-0.313-0.469-0.469-0.469S9.27,189.03,9.16,189.28
		c-0.125,0.266-0.188,0.57-0.188,0.914c0,0.531,0.305,1.367,0.914,2.507c0.609,1.016,1.25,1.524,1.922,1.524
		c0.344,0,0.625-0.094,0.844-0.281c0.375-0.297,1.063-0.609,2.063-0.938c1.75-0.609,3.461-1.125,5.133-1.547
		c0.078-0.016,0.164-0.023,0.258-0.023c0.188,0,0.281,0.078,0.281,0.234c0,0.078-0.016,0.172-0.047,0.281
		c-1.438,4.297-3.422,9.102-5.953,14.415c-3.391,0.063-6.398,1.063-9.023,3c-2.172,1.578-3.258,3.445-3.258,5.602
		c0,1.141,0.305,2.031,0.914,2.671c0.609,0.657,1.391,0.985,2.344,0.985c1.391,0,2.672-0.414,3.844-1.242
		c1.734-1.188,3.945-4.297,6.633-9.328c4.641,0.328,8.766,1.398,12.375,3.21c-1.266,3.11-2.68,5.665-4.242,7.665
		c-1.797,2.297-4.203,4.375-7.219,6.234c-0.422,0.25-0.633,0.453-0.633,0.609c0,0.156,0.055,0.312,0.164,0.469
		c0.109,0.171,0.234,0.258,0.375,0.258c0.25,0,0.438-0.032,0.563-0.094c5.906-2.516,10.375-7.18,13.406-13.992
		c2.547,1.313,4.656,2.672,6.328,4.078c0.656,0.547,1.219,0.82,1.688,0.82c0.297,0,0.563-0.117,0.797-0.352
		c0.328-0.281,0.492-0.672,0.492-1.172c0-0.688-0.398-1.406-1.195-2.156c-1.25-1.078-3.656-2.344-7.219-3.797
		C31.723,209.147,32.176,207.452,32.879,204.749L32.879,204.749z M9.488,214.076c-1.438,1.438-2.68,2.157-3.727,2.157
		c-1.063,0-1.594-0.625-1.594-1.875c0-1.469,0.781-2.813,2.344-4.032c1.766-1.375,4.117-2.117,7.055-2.226
		C12.191,210.741,10.832,212.733,9.488,214.076L9.488,214.076z"/>
	<path fill="#0D4482" d="M21.301,252.549c0.641,0.422,1.391,0.633,2.25,0.633c1.063-0.063,2.539-0.352,4.43-0.867
		c2.453-0.766,3.813-1.195,4.078-1.289c0.766-0.297,1.148-0.766,1.148-1.406c0-0.859-0.734-1.289-2.203-1.289
		c-0.938,0-1.789,0.289-2.555,0.867c-0.656,0.453-1.695,0.898-3.117,1.336c-1.453,0.453-2.461,0.68-3.023,0.68
		c-0.391,0-0.641-0.031-0.75-0.094c-0.141-0.078-0.211-0.258-0.211-0.539c0-1.313,0.047-2.688,0.141-4.125
		c0.047-0.656,0.242-1.219,0.586-1.688c0.281-0.422,0.422-0.836,0.422-1.242c0-0.547-0.578-1.156-1.734-1.828
		c-1.328-0.734-2.547-1.102-3.656-1.102c-0.422,0-0.883,0.125-1.383,0.375c-0.609,0.297-0.914,0.602-0.914,0.914
		c0,0.266,0.211,0.398,0.633,0.398c1.094,0.047,1.969,0.398,2.625,1.055c0.406,0.359,0.648,1.461,0.727,3.305
		c0.172,8.484,0.43,15.539,0.773,21.164c-1.203-0.25-2.563-0.375-4.078-0.375c-2.344,0-4.297,0.367-5.859,1.102
		c-1.984,0.922-2.977,2.266-2.977,4.031c0,1.469,0.641,2.641,1.922,3.516c1.359,0.953,3.195,1.43,5.508,1.43
		c5.531,0,8.242-2.258,8.133-6.773c3.719,1.391,7.063,3.25,10.031,5.578c0.75,0.609,1.336,0.914,1.758,0.914
		c1.094,0,1.641-0.547,1.641-1.641c0-0.719-0.563-1.422-1.688-2.109c-3.797-2.344-7.727-4.086-11.789-5.227
		C21.715,264.58,21.426,259.345,21.301,252.549L21.301,252.549z M18.23,273.97c-1,0.984-2.57,1.477-4.711,1.477
		c-1.453,0-2.648-0.195-3.586-0.586c-1.203-0.5-1.805-1.266-1.805-2.297c0-0.875,0.617-1.609,1.852-2.203
		c1.266-0.609,2.75-0.914,4.453-0.914c1.594,0,3.289,0.227,5.086,0.68C19.551,271.736,19.121,273.017,18.23,273.97L18.23,273.97z"/>
	<path fill="#0D4482" d="M15.676,299.637c-0.281,0.204-0.422,0.398-0.422,0.586c0,0.328,0.203,0.492,0.609,0.492
		c0.141,0,0.289-0.038,0.445-0.117c1.703-0.905,3.211-1.601,4.523-2.086c0.969-0.358,2.219-0.539,3.75-0.539h0.984
		c1.031,0,1.547-0.429,1.547-1.289c0-0.656-0.352-1.125-1.055-1.406c-0.969-0.375-2.328-0.563-4.078-0.563
		c-2.656,0-4.836-0.804-6.539-2.414c-0.219-0.155-0.414-0.234-0.586-0.234c-0.25,0-0.375,0.141-0.375,0.422
		c0,0.141,0.047,0.305,0.141,0.492c0.984,1.798,2.859,3.079,5.625,3.844C18.574,297.888,17.051,298.826,15.676,299.637
		L15.676,299.637z M24.652,323.333c-2.109,3.063-5.117,5.54-9.023,7.43c-0.578,0.281-0.867,0.578-0.867,0.891
		c0,0.328,0.211,0.492,0.633,0.492c0.188,0,0.523-0.078,1.008-0.234c4.016-1.391,7.266-3.476,9.75-6.258
		c3.063-3.405,4.594-7.421,4.594-12.047c0-2.312-0.539-4.304-1.617-5.977c-1.406-2.218-3.461-3.328-6.164-3.328
		c-1.156,0-2.32,0.204-3.492,0.609c-1.031,0.375-2.648,1.157-4.852,2.344c-0.938,0.516-1.734,0.773-2.391,0.773
		c-0.25,0-0.5-0.188-0.75-0.563c-0.297-0.405-0.516-0.891-0.656-1.453c-0.047-0.343-0.172-0.516-0.375-0.516
		s-0.391,0.126-0.563,0.375c-0.203,0.298-0.305,0.68-0.305,1.148c0,1.188,0.516,2.376,1.547,3.563
		c0.563,0.673,1.133,1.008,1.711,1.008c0.625,0,1.203-0.335,1.734-1.008c0.172-0.202,0.547-0.554,1.125-1.055
		c0.281-0.249,0.5-0.437,0.656-0.563c2.469-2.016,4.594-3.023,6.375-3.023c1.672,0,2.945,0.712,3.82,2.133
		c0.813,1.313,1.219,3.063,1.219,5.25C27.77,317.013,26.73,320.349,24.652,323.333L24.652,323.333z"/>
	<path fill="#0D4482" d="M17.973,348.252c0,0.594,0.141,1.992,0.422,4.195c0.422,3.281,0.664,5.32,0.727,6.117
		c0.453,5.547,0.68,9.367,0.68,11.461c0,1.063-0.047,2.055-0.141,2.977c0,0.359,0.18,0.539,0.539,0.539
		c0.859,0,1.289-0.273,1.289-0.82c-0.094-0.969-0.141-2.023-0.141-3.164c0-3.313,0.234-7.07,0.703-11.273
		c0.703-6.281,1.055-9.625,1.055-10.031c0-0.906-0.164-1.57-0.492-1.992c-0.391-0.5-1.07-0.75-2.039-0.75
		C18.84,345.51,17.973,346.424,17.973,348.252L17.973,348.252z M18.629,379.119c-0.594,0.531-0.891,1.234-0.891,2.109
		c0,0.734,0.234,1.359,0.703,1.875c0.531,0.593,1.234,0.891,2.109,0.891c0.766,0,1.398-0.234,1.898-0.703
		c0.578-0.516,0.867-1.203,0.867-2.063c0-0.766-0.227-1.406-0.68-1.922c-0.516-0.594-1.211-0.891-2.086-0.891
		C19.785,378.416,19.145,378.65,18.629,379.119L18.629,379.119z"/>
</g>
</svg>
