<?xml version="1.0" encoding="utf-8"?>
<!-- Generator: Adobe Illustrator 14.0.0, SVG Export Plug-In . SVG Version: 6.00 Build 43363)  -->
<!DOCTYPE svg PUBLIC "-//W3C//DTD SVG 1.1 Basic//EN" "http://www.w3.org/Graphics/SVG/1.1/DTD/svg11-basic.dtd">
<svg version="1.1" baseProfile="basic" id="レイヤー_1"
	 xmlns="http://www.w3.org/2000/svg" xmlns:xlink="http://www.w3.org/1999/xlink" x="0px" y="0px" width="294.665px"
	 height="294.149px" viewBox="0 0 294.665 294.149" xml:space="preserve">
<g>
	<path fill="#083E00" d="M270.009,12.368c-2.031,1.422-3.891,2.922-5.578,4.5c-0.25,0.25-0.375,0.492-0.375,0.727
		c0,0.25,0.141,0.375,0.422,0.375c0.297,0,0.555-0.078,0.773-0.234c2.141-1.625,4.031-2.906,5.672-3.844
		c1.188-0.672,2.438-1.148,3.75-1.43c2.047-0.453,3.789-0.742,5.227-0.867c1.281-0.109,1.922-0.586,1.922-1.43
		c0-0.719-0.352-1.219-1.055-1.5c-0.484-0.188-0.984-0.281-1.5-0.281c-0.531,0-1.039,0.078-1.523,0.234
		c-1.375,0.453-3.039,0.828-4.992,1.125c-1.984,0.25-3.492,0.375-4.523,0.375c-2.688,0-4.719-0.5-6.094-1.5
		c-0.297-0.219-0.539-0.328-0.727-0.328c-0.281,0-0.422,0.141-0.422,0.422c0,0.234,0.047,0.414,0.141,0.539
		c1.625,2.047,4.219,3.07,7.781,3.07c0.344,0,0.695-0.016,1.055-0.047L270.009,12.368z M259.556,24.368
		c-0.641,1.234-0.961,2.5-0.961,3.797c0,5.984,4.672,8.977,14.016,8.977c3.156,0,6.531-0.273,10.125-0.82
		c1.063-0.172,1.77-0.391,2.121-0.656s0.527-0.719,0.527-1.359c0-0.453-0.242-0.82-0.727-1.102s-1.125-0.422-1.922-0.422
		c-0.484,0-1.359,0.172-2.625,0.516c-2.016,0.578-4.992,0.867-8.93,0.867c-2.906,0-5.289-0.398-7.148-1.195
		c-2.563-1.109-3.844-2.891-3.844-5.344c0-0.844,0.188-1.805,0.563-2.883l0.234-0.609c0-0.328-0.227-0.492-0.68-0.492
		C260.04,23.641,259.79,23.883,259.556,24.368L259.556,24.368z"/>
	<path fill="#083E00" d="M272.54,68.182c2.594-2.203,4.547-3.305,5.859-3.305c1.25,0,1.875,1.07,1.875,3.211
		c0,1.579-0.188,4.023-0.563,7.336c-0.422,3.75-0.633,7.016-0.633,9.797c0,3.547,1.742,5.32,5.227,5.32
		c2.063,0,3.984-0.828,5.766-2.484c1.859-1.718,3.344-3.852,4.453-6.398c0.094-0.234,0.141-0.406,0.141-0.516
		c0-0.39-0.227-0.586-0.68-0.586c-0.188,0-0.406,0.227-0.656,0.68c-1.016,1.766-2.297,3.29-3.844,4.57
		c-1.875,1.532-3.633,2.297-5.273,2.297c-0.906,0-1.563-0.195-1.969-0.586c-0.484-0.469-0.727-1.359-0.727-2.672
		c0-2.234,0.273-5.289,0.82-9.164c0.578-4.031,0.867-6.625,0.867-7.781c0-1.078-0.313-2.063-0.938-2.953
		c-0.859-1.234-2.07-1.852-3.633-1.852c-1.469,0-3.594,1.133-6.375,3.398c-1.953,1.594-4.688,4.219-8.203,7.875l0.094-1.641
		c0.672-1.515,1.344-2.719,2.016-3.609c0.313-0.375,0.469-0.664,0.469-0.867c0-0.281-0.141-0.563-0.422-0.844
		c-0.359-0.359-0.68-0.539-0.961-0.539c-0.219,0-0.477,0.055-0.773,0.164c0.094-2.265,0.242-4,0.445-5.203
		c0.141-0.844,0.391-1.414,0.75-1.711c0.328-0.234,0.492-0.57,0.492-1.008c0-0.625-0.547-1.344-1.641-2.156
		c-1.328-1-2.531-1.5-3.609-1.5c-0.891,0-1.336,0.211-1.336,0.633c0,0.344,0.195,0.563,0.586,0.656
		c1.563,0.454,2.344,1.532,2.344,3.234c0,2.406-0.047,4.992-0.141,7.758c-1.422,0.735-2.813,1.359-4.172,1.875
		c-0.766,0.25-1.297,0.375-1.594,0.375c-0.719,0-1.422-0.539-2.109-1.617c-0.234-0.359-0.414-0.539-0.539-0.539
		c-0.313,0-0.469,0.29-0.469,0.867c0,0.829,0.383,1.696,1.148,2.602c0.719,0.891,1.375,1.336,1.969,1.336
		c0.469,0,0.852-0.125,1.148-0.375c0.141-0.141,0.461-0.352,0.961-0.633c0.547-0.328,1.734-0.938,3.563-1.828
		c-0.094,1.984-0.156,3.156-0.188,3.516c-2.141,4.078-4.43,7.485-6.867,10.219c-0.938,1.063-1.578,1.766-1.922,2.109
		c-0.609,0.609-0.914,1.25-0.914,1.922c0,0.829,0.367,1.242,1.102,1.242c0.438,0,0.836-0.226,1.195-0.68
		c0.094-0.109,0.359-0.445,0.797-1.008c0.438-0.578,0.813-1.07,1.125-1.477c1.625,1.672,2.891,3.211,3.797,4.617
		c0.688,1.078,1.133,2.086,1.336,3.023c0.172,0.672,0.492,1.008,0.961,1.008c1.125,0,1.688-1.133,1.688-3.398
		c0-0.469-0.031-1.016-0.094-1.641c-0.078-0.906-0.125-1.531-0.141-1.875c-0.125-3.141-0.188-6.625-0.188-10.453
		C266.837,73.565,269.696,70.651,272.54,68.182L272.54,68.182z M262.04,78.026v3.305c0,1.579,0,3.977,0,7.195
		c0,0.156-0.07,0.234-0.211,0.234c-0.078,0-0.156-0.023-0.234-0.07c-1.859-1.594-3.313-2.914-4.359-3.961
		C259.345,81.792,260.946,79.558,262.04,78.026L262.04,78.026z"/>
	<path fill="#083E00" d="M254.728,139.671c-1.078,0.281-2.195,0.508-3.352,0.68c0.688,1.844,1.188,3.07,1.5,3.68
		c0.297,0.547,0.594,0.82,0.891,0.82c0.469,0,0.742-0.609,0.82-1.828c8.25-3,15.023-6.507,20.32-10.523
		c0.063-0.047,0.094-0.109,0.094-0.188c0-0.281-0.109-0.422-0.328-0.422c-0.031,0-0.063,0.008-0.094,0.023
		c-4.844,2.5-9.711,4.555-14.602,6.164l-0.445-27.211c1.094-0.609,1.641-1.07,1.641-1.383c0-0.25-0.234-0.453-0.703-0.609
		c-0.672-0.219-2.086-0.453-4.242-0.703c0.156,1.297,0.281,4.422,0.375,9.375l0.352,21.492
		C256.595,139.164,255.853,139.375,254.728,139.671L254.728,139.671z M285.384,123.617c0.688-3.531,1.141-7.977,1.359-13.336
		c1.063-0.453,1.594-0.835,1.594-1.148c0-0.313-0.313-0.554-0.938-0.727c-0.672-0.188-2.023-0.375-4.055-0.563
		c0.094,0.641,0.141,1.477,0.141,2.508c0,10.719-1.891,19.047-5.672,24.984c-1.563,2.469-3.383,4.641-5.461,6.516
		c-2.422,2.188-5.641,4.352-9.656,6.492c-0.063,0.031-0.094,0.094-0.094,0.188c0,0.297,0.117,0.445,0.352,0.445
		c0.031,0,0.055,0,0.07,0c7.328-2.891,12.758-6.555,16.289-10.992c0.609-0.781,1.234-1.68,1.875-2.695
		c2.672,2.391,4.977,5.774,6.914,10.148c0.391,0.875,0.688,1.461,0.891,1.758c0.281,0.391,0.641,0.586,1.078,0.586
		c1.219,0,1.828-0.688,1.828-2.063c0-1.453-0.805-3.156-2.414-5.109c-1.969-2.375-4.563-4.445-7.781-6.211
		C283.345,131.383,284.571,127.789,285.384,123.617L285.384,123.617z M270.149,121.765c0.188,0.859,0.406,1.461,0.656,1.805
		c0.25,0.328,0.617,0.492,1.102,0.492c0.469,0,0.875-0.179,1.219-0.539c0.375-0.422,0.563-0.961,0.563-1.617
		c0-1.344-0.586-2.797-1.758-4.359c-1.391-1.875-3.18-3.336-5.367-4.383c-0.047-0.031-0.086-0.047-0.117-0.047
		c-0.219,0-0.328,0.109-0.328,0.328c0,0.047,0.016,0.094,0.047,0.141C268.056,115.679,269.384,118.406,270.149,121.765
		L270.149,121.765z"/>
	<path fill="#083E00" d="M254.845,197.794c-1.516,0-2.906-0.108-4.172-0.328l0.469,1.758c1.547-0.156,2.797-0.234,3.75-0.234h37.641
		c0.422,0,0.633-0.141,0.633-0.421c0-0.266-0.438-0.781-1.313-1.548c-1.609-1.374-2.555-2.063-2.836-2.063
		c-0.266,0-1.211,0.946-2.836,2.836h-14.531v-20.063h16.641c0.453,0,0.68-0.141,0.68-0.422c0-0.234-0.398-0.703-1.195-1.406
		c-1.656-1.406-2.617-2.109-2.883-2.109s-1.164,0.914-2.695,2.742h-10.547v-14.25c1.188-0.483,1.781-0.938,1.781-1.359
		c0-0.265-0.242-0.483-0.727-0.656c-0.703-0.249-2.172-0.492-4.406-0.727c0.188,1.532,0.281,5.243,0.281,11.133v27.117H254.845z"/>
	<path fill="#083E00" d="M187.165,21.875h-14.25c-1.391,0-2.734-0.094-4.031-0.281l0.469,1.758c1.344-0.188,2.531-0.281,3.563-0.281
		h14.016c-0.797,3.547-2.109,6.539-3.938,8.977c-1.672,2.203-3.438,4.047-5.297,5.531c-2.469,1.984-5.555,3.718-9.258,5.203
		c-0.094,0.031-0.141,0.102-0.141,0.211c0,0.312,0.102,0.469,0.305,0.469c0.031,0,0.055,0,0.07,0
		c3.844-1.063,7.055-2.383,9.633-3.961c2.828-1.703,5.352-4,7.57-6.891c1.938-2.516,3.297-5.516,4.078-9
		c1.719,5.016,4.281,9.172,7.688,12.469c2.922,2.875,6.109,5.109,9.563,6.703c0.797,0.39,1.367,0.586,1.711,0.586
		c0.375,0,0.648-0.243,0.82-0.727c0.453-1.172,1.18-1.844,2.18-2.016c0.172-0.032,0.258-0.133,0.258-0.305
		c0-0.125-0.055-0.195-0.164-0.211c-4.766-1.281-8.883-3.203-12.352-5.766c-3.891-2.797-6.805-6.555-8.742-11.273h19.617
		c0.422,0,0.633-0.141,0.633-0.422s-0.383-0.734-1.148-1.359c-1.594-1.344-2.523-2.016-2.789-2.016s-1.148,0.867-2.648,2.602
		h-14.297c0.438-2.609,0.711-5.875,0.82-9.797h14.883c0.406,0,0.609-0.141,0.609-0.422c0-0.344-0.383-0.813-1.148-1.406
		c-1.516-1.281-2.391-1.922-2.625-1.922c-0.281,0-1.133,0.852-2.555,2.555h-9.164l0.047-1.594V3.335
		c1.031-0.453,1.547-0.898,1.547-1.336c0-0.281-0.219-0.492-0.656-0.633c-0.563-0.172-1.977-0.406-4.242-0.703
		c0.219,1.422,0.328,3.773,0.328,7.055l-0.047,3.164h-8.883c0.844-1.422,1.711-3.18,2.602-5.273
		c1.172-0.188,1.758-0.523,1.758-1.008c0-0.531-1.5-1.188-4.5-1.969c-0.141,0.984-0.383,2.039-0.727,3.164
		c-0.672,2.219-1.602,4.438-2.789,6.656c-1.391,2.609-2.922,4.813-4.594,6.609c-0.031,0.031-0.047,0.07-0.047,0.117
		c0,0.266,0.133,0.398,0.398,0.398c0.047,0,0.094-0.016,0.141-0.047c2.813-2.172,5.141-4.656,6.984-7.453h9.656
		C188.032,15.5,187.728,18.765,187.165,21.875L187.165,21.875z"/>
	<path fill="#083E00" d="M185.079,62.477c-0.281,0.203-0.422,0.398-0.422,0.586c0,0.328,0.203,0.492,0.609,0.492
		c0.141,0,0.289-0.039,0.445-0.117c1.703-0.906,3.211-1.602,4.523-2.086c0.969-0.359,2.219-0.539,3.75-0.539h0.984
		c1.031,0,1.547-0.43,1.547-1.289c0-0.656-0.352-1.125-1.055-1.406c-0.969-0.375-2.328-0.563-4.078-0.563
		c-2.656,0-4.836-0.805-6.539-2.414c-0.219-0.156-0.414-0.234-0.586-0.234c-0.25,0-0.375,0.141-0.375,0.422
		c0,0.141,0.047,0.305,0.141,0.492c0.984,1.797,2.859,3.079,5.625,3.844C187.978,60.727,186.454,61.665,185.079,62.477
		L185.079,62.477z M194.056,86.172c-2.109,3.063-5.117,5.54-9.023,7.43c-0.578,0.281-0.867,0.578-0.867,0.891
		c0,0.328,0.211,0.492,0.633,0.492c0.188,0,0.523-0.078,1.008-0.234c4.016-1.391,7.266-3.477,9.75-6.258
		c3.063-3.406,4.594-7.421,4.594-12.047c0-2.312-0.539-4.304-1.617-5.977c-1.406-2.218-3.461-3.328-6.164-3.328
		c-1.156,0-2.32,0.203-3.492,0.609c-1.031,0.375-2.648,1.157-4.852,2.344c-0.938,0.516-1.734,0.773-2.391,0.773
		c-0.25,0-0.5-0.188-0.75-0.563c-0.297-0.406-0.516-0.891-0.656-1.453c-0.047-0.343-0.172-0.516-0.375-0.516
		s-0.391,0.125-0.563,0.375c-0.203,0.297-0.305,0.68-0.305,1.148c0,1.188,0.516,2.375,1.547,3.563
		c0.563,0.672,1.133,1.008,1.711,1.008c0.625,0,1.203-0.336,1.734-1.008c0.172-0.203,0.547-0.554,1.125-1.055
		c0.281-0.25,0.5-0.437,0.656-0.563c2.469-2.016,4.594-3.023,6.375-3.023c1.672,0,2.945,0.711,3.82,2.133
		c0.813,1.313,1.219,3.063,1.219,5.25C197.173,79.852,196.134,83.188,194.056,86.172L194.056,86.172z"/>
	<path fill="#083E00" d="M188.946,135.353c0.969,0,1.688-0.063,2.156-0.188c0.734-0.156,1.102-0.594,1.102-1.313
		c0-0.859-0.75-1.258-2.25-1.195c-0.313,0.031-0.656,0.047-1.031,0.047c-0.813,0-1.672-0.047-2.578-0.141
		c0.953-5.671,2.148-11.421,3.586-17.25c0.25-0.968,0.555-1.578,0.914-1.828c0.422-0.25,0.633-0.648,0.633-1.195
		c0-0.844-0.5-1.703-1.5-2.578c-1.172-1.063-2.32-1.594-3.445-1.594c-0.406,0-0.805,0.086-1.195,0.257
		c-0.453,0.204-0.68,0.422-0.68,0.657c0,0.203,0.273,0.359,0.82,0.468c0.797,0.157,1.352,0.445,1.664,0.868
		c0.328,0.406,0.492,1.094,0.492,2.063c0,0.25-0.047,0.719-0.141,1.406c-0.047,0.359-0.078,0.648-0.094,0.867
		c-0.234,1.578-0.602,3.641-1.102,6.188c-0.266-0.75-1.055-1.18-2.367-1.289c-1.125-0.078-2.227-0.398-3.305-0.961
		c-1.313-0.688-2.305-1.5-2.977-2.438c-0.328-0.453-0.586-0.68-0.773-0.68c-0.25,0-0.375,0.195-0.375,0.586
		c0,0.781,0.43,1.672,1.289,2.672c0.906,1.078,2.156,1.945,3.75,2.601c-2.781,2.297-4.172,4.532-4.172,6.704
		c0,1.703,0.5,3.07,1.5,4.101c0.953,0.969,2.625,1.844,5.016,2.625c-0.125,1.188-0.188,2.485-0.188,3.891
		c0,2.797,0.734,4.953,2.203,6.469c1.453,1.484,3.453,2.227,6,2.227s4.781-0.704,6.703-2.109c2.391-1.766,3.586-4.117,3.586-7.055
		c0-2.219-0.664-4.477-1.992-6.773c-1.453-2.516-3.383-4.602-5.789-6.258c-0.375-0.25-0.609-0.375-0.703-0.375
		c-0.453,0-0.68,0.18-0.68,0.539c0,0.219,0.125,0.453,0.375,0.703c3.875,3.875,5.813,7.797,5.813,11.766
		c0,2.078-0.625,3.82-1.875,5.226c-1.438,1.579-3.313,2.368-5.625,2.368c-4.063,0-6.094-2.117-6.094-6.352
		c0-1.422,0.063-2.75,0.188-3.984C186.884,135.267,187.931,135.353,188.946,135.353L188.946,135.353z M178.751,127.899
		c0-1.578,1.039-3.094,3.117-4.547c0.859-0.609,1.773-0.945,2.742-1.008c0.75,0,1.25-0.148,1.5-0.445
		c-0.547,2.891-1.125,6.344-1.734,10.359C180.626,131.587,178.751,130.134,178.751,127.899L178.751,127.899z"/>
	<path fill="#083E00" d="M190.61,168.248c0.453,0,0.883,0.016,1.289,0.046c3.469,0.173,6.344,1.235,8.625,3.188
		c2.703,2.313,4.055,5.392,4.055,9.234c0,4.017-1.648,7.376-4.945,10.078c-3.078,2.517-7.164,4.212-12.258,5.086
		c-0.547,0.126-0.82,0.384-0.82,0.773c0,0.36,0.234,0.539,0.703,0.539c0.031,0,0.07,0,0.117,0c5.047-0.281,9.406-1.53,13.078-3.75
		c4.859-2.921,7.289-6.891,7.289-11.906c0-4.046-1.344-7.444-4.031-10.195c-3.109-3.188-7.242-4.78-12.398-4.78
		c-5.594,0-10.234,1.727-13.922,5.179c-3.484,3.281-5.227,7.251-5.227,11.906c0,2.438,0.563,4.547,1.688,6.328
		c1.109,1.673,2.391,2.508,3.844,2.508c1.406,0,2.984-1.069,4.734-3.211c2.953-3.733,5.258-7.976,6.914-12.727
		c0.609-1.952,0.914-3.522,0.914-4.711c0-1.359-0.32-2.538-0.961-3.539C189.704,168.263,190.142,168.248,190.61,168.248
		L190.61,168.248z M188.384,170.498c0,1-0.227,2.148-0.68,3.444c-1.484,4.532-3.688,8.728-6.609,12.586
		c-1.406,1.86-2.531,2.789-3.375,2.789c-0.906,0-1.656-0.546-2.25-1.641c-0.766-1.483-1.148-3.101-1.148-4.852
		c0-3.687,1.297-6.851,3.891-9.492c2.531-2.593,5.734-4.21,9.609-4.852C188.196,168.856,188.384,169.529,188.384,170.498
		L188.384,170.498z"/>
	<path fill="#083E00" d="M200.29,228.511c2.469-0.483,4.617-1.046,6.445-1.688c0.922-0.343,1.383-0.812,1.383-1.406
		c0-0.328-0.164-0.601-0.492-0.82c-0.328-0.218-0.727-0.328-1.195-0.328c-0.969,0-1.766,0.181-2.391,0.539
		c-0.75,0.407-1.227,0.649-1.43,0.727c-0.719,0.234-1.508,0.438-2.367,0.609c0-1.515,0.055-3.062,0.164-4.641
		c0.047-0.999,0.25-1.655,0.609-1.969c0.391-0.328,0.586-0.68,0.586-1.055c0-0.75-0.672-1.438-2.016-2.063
		c-1.156-0.577-2.258-0.867-3.305-0.867c-0.453,0-0.867,0.103-1.242,0.305c-0.422,0.234-0.633,0.485-0.633,0.75
		c0,0.328,0.203,0.492,0.609,0.492c0.953,0,1.711,0.188,2.273,0.563c0.375,0.281,0.578,0.891,0.609,1.828
		c0.125,2.751,0.188,5.118,0.188,7.102c-3,0.485-5.586,0.727-7.758,0.727c-1.609,0-2.859-0.609-3.75-1.828
		c-0.266-0.39-0.508-0.586-0.727-0.586c-0.281,0-0.422,0.149-0.422,0.445c0,0.188,0.047,0.422,0.141,0.703
		c0.922,2.25,2.602,3.375,5.039,3.375c2.516,0,5.023-0.179,7.523-0.539l0.141,13.406c-1.406-0.358-2.922-0.539-4.547-0.539
		c-2,0-3.602,0.384-4.805,1.148c-1.313,0.813-1.969,1.915-1.969,3.305c0,1.313,0.563,2.391,1.688,3.234
		c1.266,0.954,2.945,1.43,5.039,1.43c2.156,0,3.859-0.516,5.109-1.547c1.234-0.984,1.852-2.227,1.852-3.727
		c1.828,1.017,3.648,2.235,5.461,3.656c0.5,0.375,0.977,0.563,1.43,0.563c0.094,0,0.18-0.007,0.258-0.023
		c0.75-0.171,1.102-0.671,1.055-1.5c-0.063-0.5-0.336-0.944-0.82-1.336c-1.672-1.359-4.117-2.655-7.336-3.891
		C200.423,239.051,200.29,234.2,200.29,228.511L200.29,228.511z M197.032,247.589c-0.844,0.813-2.094,1.219-3.75,1.219
		c-3.234,0-4.852-0.914-4.852-2.742c0-0.75,0.391-1.359,1.172-1.828c0.797-0.469,1.836-0.703,3.117-0.703
		c1.828,0,3.648,0.352,5.461,1.055C198.181,245.872,197.798,246.872,197.032,247.589L197.032,247.589z M176.478,232.402
		c0.531-2.797,1.258-5.358,2.18-7.688c0.219-0.75,0.469-1.289,0.75-1.617c0.453-0.516,0.68-1.046,0.68-1.594
		c0-1.125-0.32-2.163-0.961-3.117c-0.609-0.969-1.281-1.711-2.016-2.227c-0.406-0.312-0.727-0.469-0.961-0.469
		c-0.375,0-0.563,0.157-0.563,0.469c0,0.126,0.078,0.32,0.234,0.586c0.734,1.204,1.102,2.337,1.102,3.398
		c0,1.031-0.258,2.446-0.773,4.242c-1.563,6-2.344,11.118-2.344,15.352c0,5.048,0.609,8.735,1.828,11.063
		c0.422,0.828,0.969,1.242,1.641,1.242c0.734,0,1.102-0.43,1.102-1.289l-0.047-2.883c0-0.281,0.141-1.102,0.422-2.461
		c0.094-0.422,0.992-3.64,2.695-9.656c0.063-0.188,0.094-0.343,0.094-0.469c0-0.422-0.141-0.633-0.422-0.633
		c-0.297,0-0.508,0.181-0.633,0.539c-1.297,3.141-2.5,6.375-3.609,9.703c-0.063,0.188-0.188,0.281-0.375,0.281
		c-0.172,0-0.32-0.288-0.445-0.867c-0.188-0.999-0.281-2.819-0.281-5.461C175.774,236.958,176.009,234.809,176.478,232.402
		L176.478,232.402z"/>
	<path fill="#083E00" d="M112.548,30.281c0,0.438,0.078,0.734,0.234,0.891c0.156,0.188,0.477,0.281,0.961,0.281
		c1.156,0,1.734-0.461,1.734-1.383l-0.188-10.195v-3.938c0.859-0.5,1.289-0.93,1.289-1.289c0-0.297-0.242-0.656-0.727-1.078
		c-1.063-0.891-1.703-1.336-1.922-1.336c-0.188,0-0.773,0.531-1.758,1.594h-7.172c-0.984-0.656-2.102-1.266-3.352-1.828
		c0.125,1.859,0.188,5.156,0.188,9.891l-0.141,9.398c0,0.672,0.398,1.008,1.195,1.008c1.188,0,1.781-0.445,1.781-1.336v-3.023h7.875
		V30.281z M104.673,26.742V15.023h7.875v11.719H104.673z M98.861,2.93c1.25-0.172,1.875-0.492,1.875-0.961
		c0-0.422-1.578-1.078-4.734-1.969c-0.156,1.688-0.656,3.891-1.5,6.609c-2.188,7.016-5.211,12.766-9.07,17.25
		c-0.031,0.016-0.047,0.047-0.047,0.094c0,0.281,0.148,0.422,0.445,0.422c0.047,0,0.086-0.016,0.117-0.047
		c2.5-2.25,4.695-4.813,6.586-7.688c0,2.063-0.031,5.008-0.094,8.836c-0.063,5.984-0.133,11.016-0.211,15.094
		c-0.016,1.125-0.023,1.781-0.023,1.969c0,0.797,0.445,1.195,1.336,1.195c1.219,0,1.828-0.485,1.828-1.453l-0.047-16.945v-8.25
		c0.984-0.406,1.477-0.789,1.477-1.148c0-0.266-0.164-0.469-0.492-0.609c-0.391-0.172-1.266-0.367-2.625-0.586
		C95.572,11.586,97.298,7.648,98.861,2.93L98.861,2.93z M128.978,6c0.406,0,0.609-0.141,0.609-0.422s-0.367-0.727-1.102-1.336
		c-1.484-1.25-2.344-1.875-2.578-1.875c-0.281,0-1.102,0.813-2.461,2.438h-19.43c-1.313,0-2.547-0.094-3.703-0.281l0.422,1.758
		C101.783,6.094,102.876,6,104.017,6h17.32v32.742c0,0.563-0.273,0.844-0.82,0.844c-1.609,0-3.656-0.109-6.141-0.328
		c-0.156-0.031-0.234,0.086-0.234,0.352c0,0.188,0.063,0.297,0.188,0.328c1.875,0.359,3.195,0.734,3.961,1.125
		c0.734,0.375,1.156,0.891,1.266,1.547c0.063,0.312,0.141,0.516,0.234,0.609c0.078,0.078,0.258,0.117,0.539,0.117
		c0.906,0,1.703-0.227,2.391-0.68c1.156-0.672,1.734-1.711,1.734-3.117l-0.141-15.023V6H128.978z"/>
	<path fill="#083E00" d="M106.947,82.552c0.969,0,1.688-0.062,2.156-0.188c0.734-0.156,1.102-0.594,1.102-1.313
		c0-0.859-0.75-1.257-2.25-1.195c-0.313,0.032-0.656,0.047-1.031,0.047c-0.813,0-1.672-0.047-2.578-0.141
		c0.953-5.672,2.148-11.422,3.586-17.25c0.25-0.969,0.555-1.578,0.914-1.828c0.422-0.25,0.633-0.648,0.633-1.195
		c0-0.844-0.5-1.703-1.5-2.578c-1.172-1.063-2.32-1.594-3.445-1.594c-0.406,0-0.805,0.086-1.195,0.258
		c-0.453,0.203-0.68,0.422-0.68,0.656c0,0.203,0.273,0.36,0.82,0.469c0.797,0.156,1.352,0.445,1.664,0.867
		c0.328,0.407,0.492,1.094,0.492,2.063c0,0.25-0.047,0.719-0.141,1.406c-0.047,0.36-0.078,0.648-0.094,0.867
		c-0.234,1.579-0.602,3.641-1.102,6.188c-0.266-0.75-1.055-1.18-2.367-1.289c-1.125-0.078-2.227-0.398-3.305-0.961
		c-1.313-0.688-2.305-1.5-2.977-2.438c-0.328-0.453-0.586-0.68-0.773-0.68c-0.25,0-0.375,0.196-0.375,0.586
		c0,0.782,0.43,1.672,1.289,2.672c0.906,1.078,2.156,1.945,3.75,2.602c-2.781,2.297-4.172,4.532-4.172,6.703
		c0,1.703,0.5,3.07,1.5,4.102c0.953,0.969,2.625,1.844,5.016,2.625c-0.125,1.188-0.188,2.484-0.188,3.891
		c0,2.797,0.734,4.954,2.203,6.469c1.453,1.484,3.453,2.227,6,2.227s4.781-0.703,6.703-2.109c2.391-1.766,3.586-4.117,3.586-7.055
		c0-2.218-0.664-4.477-1.992-6.773c-1.453-2.516-3.383-4.602-5.789-6.258c-0.375-0.25-0.609-0.375-0.703-0.375
		c-0.453,0-0.68,0.18-0.68,0.539c0,0.219,0.125,0.454,0.375,0.703c3.875,3.875,5.813,7.797,5.813,11.766
		c0,2.078-0.625,3.82-1.875,5.227c-1.438,1.579-3.313,2.367-5.625,2.367c-4.063,0-6.094-2.117-6.094-6.352
		c0-1.421,0.063-2.75,0.188-3.984C104.884,82.467,105.931,82.552,106.947,82.552L106.947,82.552z M96.751,75.099
		c0-1.578,1.039-3.094,3.117-4.547c0.859-0.609,1.773-0.945,2.742-1.008c0.75,0,1.25-0.148,1.5-0.445
		c-0.547,2.891-1.125,6.344-1.734,10.359C98.626,78.787,96.751,77.334,96.751,75.099L96.751,75.099z"/>
	<path fill="#083E00" d="M91.595,137.604c-0.219,0.344-0.328,0.727-0.328,1.149c0,0.359,0.109,0.672,0.328,0.938
		c0.266,0.328,0.586,0.492,0.961,0.492c0.766,0,1.297-0.32,1.594-0.961c2.375-4.703,5.398-11.273,9.07-19.71
		c2.609-0.563,5.117-1.234,7.523-2.016c1.063-0.375,1.594-0.891,1.594-1.547c0-0.359-0.156-0.657-0.469-0.891
		c-0.313-0.266-0.672-0.399-1.078-0.399c-0.547,0-1.359,0.258-2.438,0.774c-1.438,0.656-2.797,1.164-4.078,1.523
		c0.219-0.484,0.461-1.047,0.727-1.688c0.406-0.938,0.625-1.445,0.656-1.523c0.5-1.094,0.914-1.75,1.242-1.969
		c0.391-0.265,0.586-0.632,0.586-1.101c0-0.516-0.516-1.016-1.547-1.5c-1.531-0.734-2.773-1.102-3.727-1.102
		c-1.094,0-1.641,0.289-1.641,0.867c0,0.125,0.125,0.219,0.375,0.281c0.594,0.094,1.203,0.336,1.828,0.727
		c0.578,0.359,0.867,0.758,0.867,1.195c0,0.531-0.078,1.094-0.234,1.688c-0.563,1.781-1.125,3.352-1.688,4.71
		c-2.688,0.563-4.828,0.821-6.422,0.774c-1.516,0-2.797-0.375-3.844-1.125c-0.297-0.188-0.539-0.282-0.727-0.282
		c-0.25,0-0.375,0.125-0.375,0.375c0,0.141,0.063,0.336,0.188,0.586c0.391,0.719,1.008,1.305,1.852,1.758
		c0.938,0.5,1.938,0.75,3,0.75c1.719,0,3.508-0.165,5.367-0.492C98.025,126.182,94.97,132.088,91.595,137.604L91.595,137.604z
		 M117.916,123.495c0,0.093-0.078,0.172-0.234,0.234c-1.797,0.516-3.117,1.219-3.961,2.109c-1.016,1.063-1.523,2.563-1.523,4.5
		c0,0.532,0.258,3.094,0.773,7.688c-0.984-0.218-2.383-0.328-4.195-0.328c-1.781,0-3.32,0.391-4.617,1.172
		c-1.594,0.969-2.391,2.258-2.391,3.867c0,1.171,0.5,2.172,1.5,3c1.219,1.031,2.914,1.546,5.086,1.546
		c2.672,0,4.594-0.609,5.766-1.828c0.938-1.016,1.461-2.469,1.57-4.36c1.969,0.766,4.242,2.157,6.82,4.172
		c0.406,0.313,0.828,0.492,1.266,0.539c0.953,0,1.43-0.461,1.43-1.383c0-0.656-0.273-1.219-0.82-1.688
		c-1.531-1.391-4.492-2.781-8.883-4.172c-0.078-0.453-0.211-1.117-0.398-1.992c-0.25-1.156-0.43-2.016-0.539-2.578
		c-0.359-1.953-0.539-3.57-0.539-4.852c0-1.156,0.398-2.141,1.195-2.953c0.906-0.906,2.039-1.359,3.398-1.359
		c1.375,0,2.688,0.617,3.938,1.852c0.516,0.516,1.047,0.773,1.594,0.773c0.328,0,0.609-0.109,0.844-0.328
		c0.234-0.25,0.352-0.54,0.352-0.867c0-0.922-0.672-1.836-2.016-2.742c-0.938-0.625-2.133-1.141-3.586-1.547
		c-1.594-0.437-3.164-0.656-4.711-0.656c-1.484,0-2.844,0.18-4.078,0.539c-0.453,0.125-0.68,0.36-0.68,0.704
		c0,0.266,0.203,0.398,0.609,0.398c0.016,0,0.055,0,0.117,0c0.828-0.141,1.672-0.211,2.531-0.211c1.672,0,3.063,0.195,4.172,0.586
		C117.845,123.377,117.916,123.432,117.916,123.495L117.916,123.495z M111.845,143.932c-0.844,0.796-2.172,1.195-3.984,1.195
		c-1.391,0-2.492-0.219-3.305-0.657c-0.875-0.468-1.313-1.109-1.313-1.921c0-0.891,0.477-1.609,1.43-2.156
		c1.047-0.578,2.43-0.868,4.148-0.868c1.563,0,3.008,0.235,4.336,0.703C113.095,141.963,112.658,143.198,111.845,143.932
		L111.845,143.932z"/>
	<path fill="#083E00" d="M115.806,173.131c1.891,1.063,3.578,2.625,5.063,4.688c1.656,2.297,2.484,4.313,2.484,6.047
		c0,0.5-0.242,0.789-0.727,0.867c-0.563,0.078-1.781,0.227-3.656,0.445c-0.484,0.047-0.727,0.188-0.727,0.422
		c0,0.375,0.211,0.586,0.633,0.633c1.422,0.172,2.461,0.375,3.117,0.609c0.688,0.25,1.219,0.633,1.594,1.148
		c0.297,0.422,0.711,0.633,1.242,0.633c1.219,0,1.828-1.055,1.828-3.164c0-2.531-0.891-4.992-2.672-7.383
		c-1.969-2.641-4.523-4.609-7.664-5.906c-0.156-0.078-0.313-0.117-0.469-0.117c-0.359,0-0.539,0.117-0.539,0.352
		C115.314,172.702,115.478,172.944,115.806,173.131L115.806,173.131z M101.837,194.249c0-0.563-0.102-1.063-0.305-1.5
		c-0.125-0.297-0.188-0.664-0.188-1.102c0-0.219,0.164-0.813,0.492-1.781c0.891-2.594,2.156-5.313,3.797-8.156
		c0.188-0.375,0.281-0.656,0.281-0.844c0-0.328-0.18-0.492-0.539-0.492c-0.313,0-0.578,0.18-0.797,0.539
		c-2.188,3.453-3.938,6.359-5.25,8.719c-0.281,0.516-0.602,0.773-0.961,0.773c-0.75,0-1.539-0.867-2.367-2.602
		c-0.859-1.844-1.289-4.578-1.289-8.203c0-2.719,0.18-4.609,0.539-5.672c0.297-0.859,0.445-1.547,0.445-2.063
		c0-1.063-0.75-2.227-2.25-3.492c-1.203-1.031-2.164-1.547-2.883-1.547c-0.453,0-0.68,0.141-0.68,0.422
		c0,0.141,0.148,0.352,0.445,0.633c0.797,0.75,1.344,1.43,1.641,2.039c0.313,0.641,0.469,1.5,0.469,2.578l-0.07,3.938
		c0,3.75,0.258,6.805,0.773,9.164c0.734,3.328,2.094,5.984,4.078,7.969c1.281,1.281,2.359,1.922,3.234,1.922
		C101.376,195.491,101.837,195.077,101.837,194.249L101.837,194.249z"/>
	<path fill="#083E00" d="M21.117,30.815l0.047-0.258c0-0.109-0.094-0.211-0.281-0.305c-0.203-0.109-0.414-0.164-0.633-0.164
		c-0.156,0-0.281,0.11-0.375,0.328c-0.781,1.797-1.648,3.047-2.602,3.75c-0.484,0.375-1.055,0.625-1.711,0.75
		c-0.813,0.172-2.273,0.258-4.383,0.258H3.211c2.016-3.266,5.125-6.789,9.328-10.57l1.477-1.336c2.25-2.031,3.797-3.742,4.641-5.133
		c0.906-1.468,1.359-3.234,1.359-5.297c0-2.344-0.805-4.266-2.414-5.766c-1.781-1.656-4.125-2.484-7.031-2.484
		c-2.375,0-4.555,0.782-6.539,2.344c-2.203,1.75-3.305,3.641-3.305,5.672c0,1.125,0.492,1.688,1.477,1.688
		c0.844,0,1.57-0.188,2.18-0.563c0.734-0.422,1.102-0.953,1.102-1.594c0-1.594,0.156-2.727,0.469-3.398
		c0.891-1.766,2.429-2.648,4.617-2.648c1.438,0,2.609,0.477,3.516,1.43c1.109,1.172,1.664,2.883,1.664,5.133
		c0,1.469-0.289,2.836-0.867,4.102c-0.75,1.672-2.289,3.875-4.617,6.609l-0.914,1.055c-2.797,3.36-5.805,7.406-9.023,12.141
		C0.109,36.901,0,37.299,0,37.752c0,0.609,0.195,0.914,0.586,0.914c3-0.094,6.008-0.141,9.023-0.141
		c3.063,0,6.117,0.047,9.164,0.141C19.555,36.401,20.336,33.784,21.117,30.815L21.117,30.815z"/>
	<path fill="#083E00" d="M31.448,12.862v0.094c0,0.25,0.258,0.375,0.774,0.375c0.265,0,0.437-0.141,0.515-0.422
		c0.391-1.468,0.953-2.523,1.688-3.164c0.734-0.641,2.172-0.961,4.313-0.961h9.985c-4.735,8.641-7.665,14.25-8.79,16.828
		c-1.25,2.891-2.109,5.125-2.578,6.703c-0.516,1.766-0.774,3.531-0.774,5.297c0,1.25,0.704,1.875,2.109,1.875
		c0.734,0,1.375-0.188,1.922-0.563c0.641-0.437,0.961-0.968,0.961-1.594l-0.047-3.469c0-1.796,0.32-3.859,0.961-6.188
		c1.422-5.016,4.32-11.789,8.695-20.32c0.125-0.313,0.188-0.703,0.188-1.172c0-0.641-0.125-0.961-0.375-0.961
		c-3.906,0.063-6.938,0.094-9.094,0.094c-2.296,0-5.398-0.031-9.304-0.094C32.315,7.252,31.933,9.8,31.448,12.862L31.448,12.862z"/>
	<path fill="#083E00" d="M11.845,70.344c-1.281-0.781-2.492-1.391-3.633-1.828c0.203,1.5,0.305,3.305,0.305,5.414
		c0,4.047-0.305,7.875-0.914,11.484c-0.641,3.609-1.992,7.125-4.055,10.547c-0.016,0.031-0.023,0.063-0.023,0.094
		c0,0.234,0.148,0.352,0.445,0.352c0.063,0,0.117-0.016,0.164-0.047c2.922-3.188,4.875-6.594,5.859-10.219
		c0.906-3.234,1.383-7.125,1.43-11.672v-2.93h19.055c0.438,4.984,1.414,9.29,2.93,12.914l0.586,1.266
		c-3.094,4.141-7.078,7.445-11.953,9.914c-0.063,0.031-0.094,0.102-0.094,0.211c0,0.281,0.109,0.422,0.328,0.422
		c0.016,0,0.039,0,0.07,0c5.375-2.063,9.672-4.859,12.891-8.391c1.797,2.766,4.07,5.047,6.82,6.844
		c1.594,1.063,2.828,1.594,3.703,1.594c1.094,0,1.641-0.492,1.641-1.477c0-0.422-0.211-0.836-0.633-1.242
		c-0.313-0.297-0.469-0.664-0.469-1.102c0-0.891,0.125-2.539,0.375-4.945c0.016-0.125-0.047-0.211-0.188-0.258
		c-0.172-0.047-0.289,0.008-0.352,0.164c-0.469,1.469-0.922,2.664-1.359,3.586c-0.438,0.891-0.75,1.336-0.938,1.336
		c-0.281,0-0.734-0.226-1.359-0.68c-2.125-1.531-3.93-3.539-5.414-6.023c1.719-2.375,3.266-5.258,4.641-8.648
		c1.109-0.125,1.664-0.383,1.664-0.773c0-0.266-0.211-0.531-0.633-0.797c-0.469-0.296-1.563-0.805-3.281-1.523
		c-0.328,1.641-0.805,3.18-1.43,4.617c-0.703,1.641-1.477,3.164-2.32,4.57c-1.313-2.938-2.172-6.797-2.578-11.578h13.008
		c0.453,0,0.68-0.141,0.68-0.422c0-0.296-0.305-0.695-0.914-1.195c-1.297-1.063-2.086-1.594-2.367-1.594
		c-0.266,0-0.922,0.672-1.969,2.016h-8.531c-0.078-0.891-0.117-1.609-0.117-2.156c0.984-0.453,1.477-0.852,1.477-1.195
		c0-0.266-0.203-0.469-0.609-0.609c-0.547-0.188-1.844-0.39-3.891-0.609c0.219,0.922,0.367,2.188,0.445,3.797l0.047,0.773H11.845z
		 M29.306,77.352c0.406,0,0.609-0.156,0.609-0.469c0-0.281-0.227-0.586-0.68-0.914c-1.297-1.063-2.078-1.594-2.344-1.594
		c-0.234,0-0.852,0.594-1.852,1.781h-8.813c-1.188,0-2.32-0.094-3.398-0.281l0.422,1.711c1.125-0.156,2.133-0.234,3.023-0.234h3.656
		v12.234c0,0.531-0.242,0.797-0.727,0.797c-0.891,0-2.203-0.102-3.938-0.305c-0.156-0.031-0.234,0.07-0.234,0.305
		c0,0.188,0.063,0.297,0.188,0.328c1.313,0.281,2.227,0.578,2.742,0.891c0.5,0.313,0.805,0.782,0.914,1.406
		c0.078,0.359,0.25,0.539,0.516,0.539c0.734,0,1.445-0.242,2.133-0.727c0.797-0.609,1.195-1.421,1.195-2.438l-0.141-6.398v-6.633
		H29.306z M17.822,64.063v-6.258c1.063-0.422,1.594-0.835,1.594-1.242c0-0.266-0.219-0.469-0.656-0.609
		c-0.625-0.203-1.977-0.414-4.055-0.633c0.125,0.891,0.188,2.344,0.188,4.359v4.383H8.611c-0.969,0-2.156-0.109-3.563-0.328
		l0.492,1.758c1.109-0.156,2.133-0.234,3.07-0.234H46.72c0.406,0,0.609-0.141,0.609-0.422s-0.336-0.703-1.008-1.266
		c-1.406-1.187-2.219-1.781-2.438-1.781s-0.977,0.758-2.273,2.273h-13.57v-4.43h13.523c0.391,0,0.586-0.141,0.586-0.422
		c0-0.266-0.289-0.648-0.867-1.148c-1.25-1.125-2.031-1.688-2.344-1.688c-0.281,0-1,0.688-2.156,2.063h-8.742v-2.789
		c1.047-0.406,1.57-0.805,1.57-1.195c0-0.266-0.219-0.469-0.656-0.609c-0.609-0.203-1.953-0.414-4.031-0.633
		c0.156,1.11,0.234,2.711,0.234,4.805v6.047H17.822z M38.166,69.008c0.281,0.531,0.633,0.797,1.055,0.797
		c0.781,0,1.172-0.383,1.172-1.148c0-1.594-1.555-2.539-4.664-2.836c-0.188,0-0.281,0.086-0.281,0.258
		c0,0.063,0.023,0.109,0.07,0.141C36.673,66.907,37.556,67.836,38.166,69.008L38.166,69.008z M27.056,86.047
		c0.234,1.094,0.641,1.641,1.219,1.641c1,0,1.5-0.578,1.5-1.734c0-0.797-0.383-1.711-1.148-2.742
		c-0.969-1.281-2.172-2.25-3.609-2.906c-0.031-0.015-0.063-0.023-0.094-0.023c-0.188,0-0.281,0.094-0.281,0.281
		c0,0.047,0.008,0.086,0.023,0.117C25.775,81.915,26.572,83.704,27.056,86.047L27.056,86.047z M16.931,82.485
		c1.078-0.156,1.617-0.437,1.617-0.844c0-0.203-0.172-0.39-0.516-0.563c-0.406-0.188-1.461-0.531-3.164-1.031
		c-0.188,1.266-0.539,2.594-1.055,3.984c-0.938,2.781-2.227,5.289-3.867,7.523C9.916,91.587,9.9,91.625,9.9,91.672
		C9.9,91.892,10.025,92,10.275,92c0.047,0,0.094-0.015,0.141-0.047C13.15,89.485,15.322,86.329,16.931,82.485L16.931,82.485z"/>
	<path fill="#083E00" d="M39.853,120.765c0,0.234,0.063,0.391,0.188,0.469c1.781,1.078,3.094,2.367,3.938,3.867
		c0.516,0.859,1.039,1.289,1.57,1.289c0.313,0,0.574-0.125,0.785-0.375c0.211-0.25,0.316-0.554,0.316-0.914
		c0-1.063-0.719-2.094-2.156-3.094c-1.094-0.75-2.227-1.281-3.398-1.594c-0.328-0.094-0.586-0.141-0.773-0.141
		C40.009,120.272,39.853,120.437,39.853,120.765L39.853,120.765z M35.775,123.765c0,0.188,0.094,0.352,0.281,0.492
		c1.641,1.204,2.828,2.5,3.563,3.891c0.547,1.047,1.07,1.57,1.57,1.57c0.797,0,1.195-0.46,1.195-1.383
		c0-0.969-0.688-2.007-2.063-3.117c-0.922-0.765-2.102-1.406-3.539-1.922c-0.094-0.031-0.258-0.047-0.492-0.047
		C35.947,123.249,35.775,123.421,35.775,123.765L35.775,123.765z M37.673,113.03c-0.531,0.297-1.281,0.547-2.25,0.75
		c-2.359,0.609-5.734,1.477-10.125,2.602c-4.969,1.266-8.539,2.172-10.711,2.719c-1.406,0.36-2.43,0.539-3.07,0.539
		c-0.609,0.016-1.148-0.094-1.617-0.328c-0.438-0.219-0.969-0.671-1.594-1.359c-0.281-0.281-0.492-0.422-0.633-0.422
		c-0.313,0-0.469,0.305-0.469,0.914c0,0.719,0.43,1.633,1.289,2.742c1.125,1.313,2.18,1.969,3.164,1.969
		c0.563,0,1.109-0.18,1.641-0.539c1.031-0.594,2.219-1.133,3.563-1.617c3.375-1.219,7.664-2.593,12.867-4.125l0.094,0.141
		c-2.578,1.438-4.664,3.359-6.258,5.766c-1.875,2.797-2.813,5.805-2.813,9.023c0,3.797,1.391,6.852,4.172,9.164
		c1.375,1.188,3.203,2.148,5.484,2.883c2.281,0.735,4.453,1.102,6.516,1.102c1.469,0,2.203-0.414,2.203-1.242
		c0-0.75-0.383-1.328-1.148-1.734c-0.875-0.469-2.094-0.742-3.656-0.82c-1.313-0.015-2.656-0.242-4.031-0.68
		c-1.719-0.547-3.156-1.313-4.313-2.297c-2.172-1.734-3.258-4.328-3.258-7.781c0-2.547,0.906-5.054,2.719-7.523
		c1.969-2.672,4.289-4.468,6.961-5.391c2.625-0.953,5.734-1.484,9.328-1.594c1.047-0.047,1.57-0.477,1.57-1.289
		c0-0.656-0.43-1.133-1.289-1.43c-1-0.422-1.914-0.633-2.742-0.633C38.689,112.538,38.158,112.702,37.673,113.03L37.673,113.03z"/>
	<path fill="#083E00" d="M11.259,187.574c-0.047,4.281-0.109,8.18-0.188,11.695c-0.031,1.109-0.047,1.695-0.047,1.758
		c0,0.828,0.398,1.242,1.195,1.242c1.281,0,1.922-0.501,1.922-1.5v-20.484c2.438,1.641,4.18,3.516,5.227,5.625
		c0.438,0.891,0.953,1.336,1.547,1.336c0.359,0,0.672-0.133,0.938-0.398c0.328-0.313,0.492-0.742,0.492-1.289
		c0-2.297-2.656-4.344-7.969-6.141c2.344-2.547,4.359-5.461,6.047-8.742c1.094-0.219,1.641-0.507,1.641-0.867
		c0-0.281-0.273-0.695-0.82-1.242c-1.156-1.125-1.828-1.688-2.016-1.688c-0.203,0-0.742,0.5-1.617,1.5h-3.516v-7.102
		c1.125-0.469,1.688-0.891,1.688-1.266c0-0.266-0.211-0.477-0.633-0.633c-0.625-0.234-2.016-0.484-4.172-0.75
		c0.188,1.5,0.281,2.969,0.281,4.406v5.344H8.47c-1.406,0-2.797-0.117-4.172-0.352l0.492,1.875c0.969-0.219,2.195-0.328,3.68-0.328
		h9.281c-3.344,6.906-8.242,12.617-14.695,17.133c-0.063,0.031-0.094,0.086-0.094,0.164c0,0.281,0.133,0.422,0.398,0.422
		c0.016,0,0.039,0,0.07,0c3.016-1.391,5.656-3.055,7.922-4.992C11.353,183.457,11.322,185.214,11.259,187.574L11.259,187.574z
		 M21.97,198.378c-1.438,0-2.813-0.109-4.125-0.328l0.469,1.805c1.406-0.188,2.656-0.281,3.75-0.281h25.055
		c0.453,0,0.68-0.156,0.68-0.469c0-0.281-0.43-0.781-1.289-1.5c-1.609-1.375-2.555-2.063-2.836-2.063s-1.195,0.945-2.742,2.836
		h-7.055v-21.141h12.188c0.422,0,0.633-0.141,0.633-0.422c0-0.313-0.383-0.781-1.148-1.406c-1.594-1.313-2.492-1.969-2.695-1.969
		c-0.234,0-1.102,0.867-2.602,2.602h-6.375v-14.109c1.156-0.469,1.734-0.898,1.734-1.289c0-0.297-0.234-0.531-0.703-0.703
		c-0.656-0.234-2.086-0.484-4.289-0.75c0.156,1.609,0.234,5.353,0.234,11.227v5.625H24.9c-1.328,0-2.609-0.109-3.844-0.328
		l0.539,1.805c1.297-0.188,2.414-0.281,3.352-0.281h5.906v21.141H21.97z"/>
	<path fill="#083E00" d="M35.189,226.69c3,2.625,5.852,4.61,8.555,5.953c1,0.485,1.57,0.727,1.711,0.727
		c0.328,0,0.555-0.211,0.68-0.633c0.266-0.718,0.547-1.242,0.844-1.57c0.313-0.343,0.75-0.554,1.313-0.633
		c0.203-0.03,0.305-0.155,0.305-0.375c0-0.108-0.055-0.171-0.164-0.188c-3.625-0.827-7.32-2.492-11.086-4.992
		c-4-2.702-7.492-6.288-10.477-10.758c0.969-0.218,1.453-0.492,1.453-0.82c0-0.483-1.602-1.202-4.805-2.156
		c-0.5,1.5-1.219,3.063-2.156,4.688c-1.719,3-3.906,5.899-6.563,8.695c-3.25,3.438-6.867,6.375-10.852,8.813
		c-0.063,0.047-0.094,0.11-0.094,0.188c0,0.313,0.117,0.469,0.352,0.469c0.016,0,0.039-0.007,0.07-0.023
		c9.469-4.483,16.688-10.945,21.656-19.383C28.666,219.706,31.751,223.707,35.189,226.69L35.189,226.69z M37.533,252.049
		c0.328,0.859,0.625,1.453,0.891,1.781c0.266,0.344,0.609,0.516,1.031,0.516c0.453,0,0.828-0.18,1.125-0.539
		c0.344-0.391,0.516-0.898,0.516-1.523c0-1.468-0.828-3.132-2.484-4.992c-1.969-2.218-4.477-4.008-7.523-5.367
		c-0.031-0.015-0.063-0.023-0.094-0.023c-0.266,0-0.398,0.126-0.398,0.375c0,0.047,0.023,0.094,0.07,0.141
		c2.063,1.767,3.773,3.806,5.133,6.117c-3.453,0.313-6.055,0.539-7.805,0.68c-3.688,0.281-7.422,0.469-11.203,0.563
		c2.719-3.703,4.992-7.46,6.82-11.273h21.75c0.422,0,0.633-0.141,0.633-0.422c0-0.343-0.383-0.804-1.148-1.383
		c-1.563-1.249-2.492-1.875-2.789-1.875c-0.266,0-1.117,0.829-2.555,2.484h-29.32c-1.344,0-2.609-0.094-3.797-0.281l0.469,1.758
		c1.297-0.188,2.406-0.281,3.328-0.281h9.352c-0.969,3.595-2.438,7.368-4.406,11.32l-3.797,0.047c-1.219,0-2.422-0.047-3.609-0.141
		c0.516,2.172,0.875,3.57,1.078,4.195s0.438,0.938,0.703,0.938c0.391,0,0.758-0.555,1.102-1.664
		c5.188-0.453,9.422-0.906,12.703-1.359c3.797-0.53,8.156-1.313,13.078-2.344C36.806,250.292,37.189,251.144,37.533,252.049
		L37.533,252.049z M18.572,230.44h15.938c0.453,0,0.68-0.141,0.68-0.422c0-0.249-0.352-0.664-1.055-1.242
		c-1.406-1.187-2.242-1.781-2.508-1.781c-0.203,0-0.953,0.75-2.25,2.25H18.572c-1.234,0-2.43-0.108-3.586-0.328l0.469,1.805
		C16.751,230.534,17.791,230.44,18.572,230.44L18.572,230.44z"/>
	<path fill="#083E00" d="M14.517,282.618c-1.766,1.328-2.938,2.18-3.516,2.555c-0.75,0.531-1.328,0.797-1.734,0.797
		c-0.672,0-1.406-0.445-2.203-1.336c-0.234-0.281-0.445-0.422-0.633-0.422c-0.281,0-0.422,0.195-0.422,0.586
		c0,0.688,0.32,1.438,0.961,2.25c0.516,0.641,1.117,1.195,1.805,1.664c0.781,0.547,1.445,0.82,1.992,0.82
		c0.594,0,1.07-0.305,1.43-0.914c0.516-0.813,1.016-1.484,1.5-2.016c1.703-1.813,3.352-3.359,4.945-4.641
		c1.141-0.891,2.227-1.336,3.258-1.336c0.984,0,2.023,0.477,3.117,1.43c2.625,2.063,5.664,4.258,9.117,6.586
		c2.25,1.484,5.055,3.047,8.414,4.688c1.094,0.547,1.891,0.82,2.391,0.82c0.484,0,0.887-0.156,1.207-0.469s0.48-0.703,0.48-1.172
		c0-0.797-0.414-1.367-1.242-1.711c-3.922-1.609-7.141-3.117-9.656-4.523c-1.828-1-4.914-2.914-9.258-5.742
		c-1.781-1.125-3.258-1.688-4.43-1.688c-1.359,0-2.828,0.508-4.406,1.523C16.978,280.79,15.939,281.54,14.517,282.618
		L14.517,282.618z"/>
</g>
</svg>
