<?xml version="1.0" encoding="utf-8"?>
<!-- Generator: Adobe Illustrator 14.0.0, SVG Export Plug-In . SVG Version: 6.00 Build 43363)  -->
<!DOCTYPE svg PUBLIC "-//W3C//DTD SVG 1.1 Basic//EN" "http://www.w3.org/Graphics/SVG/1.1/DTD/svg11-basic.dtd">
<svg version="1.1" baseProfile="basic" id="レイヤー_2"
	 xmlns="http://www.w3.org/2000/svg" xmlns:xlink="http://www.w3.org/1999/xlink" x="0px" y="0px" width="290.882px"
	 height="355.799px" viewBox="-1.683 27.819 290.882 355.799" xml:space="preserve">
<g>
	<path fill="#083E00" d="M286.715,36.465c0.452,0,0.679-0.156,0.679-0.469c0-0.25-0.351-0.672-1.054-1.266
		c-1.563-1.25-2.446-1.875-2.648-1.875c-0.267,0-1.078,0.805-2.438,2.414h-9.352c1.358-1.234,2.702-2.664,4.031-4.289
		c0.797-0.031,1.327-0.102,1.594-0.211c0.249-0.094,0.375-0.273,0.375-0.539c0-0.438-1.415-1.211-4.242-2.32
		c-0.142,0.766-0.462,1.742-0.962,2.93c-0.766,1.781-1.5,3.258-2.202,4.43h-19.57c-1.125,0-2.36-0.109-3.703-0.328l0.421,1.805
		c1.344-0.188,2.438-0.281,3.282-0.281h10.405v11.859h-12.188c-1.375,0-2.641-0.109-3.796-0.328l0.469,1.805
		c1.296-0.188,2.405-0.281,3.327-0.281h39.165c0.422,0,0.633-0.156,0.633-0.469c0-0.25-0.368-0.688-1.102-1.313
		c-1.5-1.281-2.384-1.922-2.648-1.922c-0.235,0-1.071,0.836-2.508,2.508h-10.313V36.465H286.715z M264.215,48.324V36.465h5.227
		v11.859H264.215z M276.942,70.684c0,0.766,0.429,1.148,1.289,1.148c1.249,0,1.875-0.461,1.875-1.383l-0.188-10.313v-4.219
		c0.858-0.547,1.288-0.977,1.288-1.289c0-0.25-0.289-0.617-0.866-1.102c-1.063-0.938-1.72-1.406-1.969-1.406
		c-0.188,0-0.806,0.563-1.853,1.688h-19.288c-1.345-0.766-2.571-1.375-3.68-1.828c0.188,2.047,0.28,4.977,0.28,8.789l-0.233,10.031
		c0,0.766,0.413,1.148,1.242,1.148c1.28,0,1.921-0.469,1.921-1.406v-1.195h20.181V70.684z M256.761,68.153v-6.281h20.181v6.281
		H256.761z M256.761,60.676v-5.672h20.181v5.672H256.761z M259.692,33.535c0.218,0.938,0.687,1.406,1.406,1.406
		c1.108,0,1.663-0.594,1.663-1.781c0-0.844-0.461-1.742-1.382-2.695c-1.095-1.094-2.508-1.945-4.243-2.555
		c-0.031-0.016-0.063-0.023-0.093-0.023c-0.188,0-0.282,0.086-0.282,0.258c0,0.047,0.016,0.086,0.048,0.117
		C258.23,29.793,259.191,31.551,259.692,33.535L259.692,33.535z M254.278,44.762c0.202,1.188,0.663,1.781,1.383,1.781
		c0.469,0,0.851-0.164,1.148-0.492c0.327-0.375,0.492-0.867,0.492-1.477c0-0.953-0.375-1.945-1.125-2.977
		c-1.017-1.375-2.493-2.5-4.43-3.375c-0.032-0.016-0.063-0.023-0.094-0.023c-0.204,0-0.305,0.078-0.305,0.234
		c0,0.063,0.015,0.109,0.046,0.141C252.957,40.371,253.917,42.434,254.278,44.762L254.278,44.762z M281.769,41.129
		c0.688-0.047,1.149-0.109,1.384-0.188c0.233-0.094,0.352-0.273,0.352-0.539c0-0.516-1.376-1.266-4.125-2.25
		c-0.173,0.969-0.493,2.023-0.961,3.164c-0.907,2.219-1.892,4.164-2.953,5.836c-0.017,0.031-0.023,0.07-0.023,0.117
		c0,0.25,0.14,0.375,0.422,0.375c0.062,0,0.117-0.016,0.164-0.047C278.261,45.676,280.176,43.52,281.769,41.129L281.769,41.129z"/>
	<path fill="#083E00" d="M282.473,107.315v6.047c0,0.516-0.274,0.773-0.82,0.773c-1.001,0-2.384-0.063-4.148-0.188
		c-0.141,0-0.211,0.094-0.211,0.281c0,0.172,0.07,0.266,0.211,0.281c1.202,0.234,2.063,0.477,2.577,0.727
		c0.563,0.297,0.883,0.711,0.962,1.242c0.077,0.609,0.288,0.914,0.633,0.914c0.671,0,1.289-0.141,1.852-0.422
		c1.249-0.656,1.875-1.586,1.875-2.789l-0.142-13.266v-6.164c0.922-0.547,1.383-0.945,1.383-1.195c0-0.219-0.289-0.57-0.866-1.055
		c-1.063-0.906-1.72-1.359-1.969-1.359c-0.235,0-0.79,0.516-1.665,1.547h-7.991c0.328-0.313,0.491-0.727,0.491-1.242
		c0-0.266-0.046-0.492-0.14-0.68c2.921-1.547,5.655-3.359,8.202-5.438c1.548-0.094,2.321-0.383,2.321-0.867
		c0-0.219-0.29-0.617-0.867-1.195c-1.188-1.109-1.892-1.664-2.109-1.664c-0.267,0-0.891,0.492-1.875,1.477h-16.758
		c-1.485,0-2.899-0.094-4.242-0.281l0.492,1.805c1.078-0.219,2.327-0.328,3.75-0.328h16.313c-1.485,1.813-3.392,3.688-5.72,5.625
		c-1.109-1.375-3.266-2.531-6.468-3.469c-0.017,0-0.032,0-0.047,0c-0.204,0-0.305,0.086-0.305,0.258
		c0,0.047,0.023,0.094,0.069,0.141c2.234,1.688,3.798,3.43,4.688,5.227c0.172,0.328,0.306,0.539,0.399,0.633h-9.094
		c-1.063-0.625-2.196-1.203-3.398-1.734c0.124,1.5,0.188,5.063,0.188,10.688l-0.188,14.789c0,0.703,0.398,1.055,1.195,1.055
		c1.187,0,1.78-0.43,1.78-1.289v-8.883h8.157l-0.141,8.742c0,0.672,0.382,1.008,1.148,1.008c1.219,0,1.827-0.414,1.827-1.242
		c0-0.297-0.016-1.203-0.046-2.719c-0.047-2.172-0.079-4.102-0.094-5.789H282.473z M262.832,106.119v-5.578h8.157v5.578H262.832z
		 M273.684,100.541h8.789v5.578h-8.789V100.541z M282.473,93.885v5.461h-8.789v-5.461H282.473z M270.989,99.346h-8.157v-5.461h8.157
		V99.346z M251.747,89.596c0.155,0.656,0.327,1.109,0.515,1.359c0.219,0.313,0.57,0.469,1.056,0.469
		c0.469,0,0.858-0.172,1.172-0.516c0.375-0.406,0.563-0.984,0.563-1.734c0-0.969-0.47-1.953-1.407-2.953
		c-1.188-1.281-3.016-2.43-5.483-3.445c-0.032-0.016-0.063-0.023-0.094-0.023c-0.204,0-0.306,0.094-0.306,0.281
		c0,0.047,0.016,0.094,0.048,0.141C249.839,85.158,251.152,87.299,251.747,89.596L251.747,89.596z M273.731,120.323
		c-6.767,0-11.501-0.563-14.203-1.688c-2.001-0.859-3.634-2.297-4.898-4.313v-11.391c0.89-0.531,1.336-0.945,1.336-1.242
		c0-0.234-0.274-0.586-0.821-1.055c-1.094-0.922-1.733-1.383-1.921-1.383s-0.79,0.539-1.805,1.617h-2.742
		c-1.626,0-2.953-0.094-3.984-0.281l0.469,1.828c0.827-0.219,1.999-0.328,3.516-0.328h3.022v12.375
		c-1.546,1.391-3.117,2.531-4.71,3.422c-0.595,0.328-1.329,0.602-2.203,0.82c0.968,1.859,1.617,3.055,1.945,3.586
		c0.312,0.516,0.586,0.773,0.82,0.773c0.422,0,0.633-0.57,0.633-1.711c0.015-0.094,0.022-0.242,0.022-0.445
		c2.188-2.297,3.992-4.508,5.415-6.633c1.202,2.703,2.913,4.766,5.133,6.188c1.265,0.828,2.93,1.438,4.992,1.828
		c2.843,0.547,7.022,0.82,12.539,0.82c4.202,0,7.671-0.172,10.406-0.516c0.469-0.094,0.727-0.367,0.773-0.82
		c0.046-0.609,0.147-1.039,0.304-1.289c0.188-0.281,0.61-0.586,1.267-0.914c0.108-0.063,0.163-0.164,0.163-0.305
		c0-0.219-0.086-0.313-0.257-0.281C283.816,119.877,278.747,120.323,273.731,120.323L273.731,120.323z"/>
	<path fill="#083E00" d="M250.668,165.629c-0.22,0.344-0.328,0.727-0.328,1.148c0,0.359,0.108,0.672,0.328,0.938
		c0.265,0.328,0.586,0.492,0.961,0.492c0.765,0,1.296-0.32,1.594-0.961c2.374-4.703,5.397-11.273,9.07-19.711
		c2.608-0.563,5.116-1.234,7.523-2.016c1.062-0.375,1.594-0.891,1.594-1.547c0-0.359-0.157-0.656-0.469-0.891
		c-0.313-0.266-0.673-0.398-1.078-0.398c-0.548,0-1.359,0.258-2.438,0.773c-1.438,0.656-2.798,1.164-4.078,1.523
		c0.218-0.484,0.46-1.047,0.726-1.688c0.406-0.938,0.625-1.445,0.657-1.523c0.499-1.094,0.913-1.75,1.242-1.969
		c0.39-0.266,0.586-0.633,0.586-1.102c0-0.516-0.516-1.016-1.548-1.5c-1.531-0.734-2.773-1.102-3.726-1.102
		c-1.095,0-1.642,0.289-1.642,0.867c0,0.125,0.125,0.219,0.375,0.281c0.594,0.094,1.203,0.336,1.829,0.727
		c0.577,0.359,0.867,0.758,0.867,1.195c0,0.531-0.079,1.094-0.234,1.688c-0.563,1.781-1.125,3.352-1.688,4.711
		c-2.688,0.563-4.828,0.82-6.422,0.773c-1.517,0-2.798-0.375-3.844-1.125c-0.298-0.188-0.539-0.281-0.727-0.281
		c-0.251,0-0.375,0.125-0.375,0.375c0,0.141,0.062,0.336,0.188,0.586c0.39,0.719,1.008,1.305,1.852,1.758
		c0.938,0.5,1.937,0.75,3,0.75c1.718,0,3.507-0.164,5.366-0.492C257.097,154.207,254.043,160.114,250.668,165.629L250.668,165.629z
		 M276.989,151.52c0,0.094-0.079,0.172-0.234,0.234c-1.798,0.516-3.118,1.219-3.961,2.109c-1.017,1.063-1.524,2.563-1.524,4.5
		c0,0.531,0.259,3.094,0.774,7.688c-0.984-0.219-2.384-0.328-4.195-0.328c-1.781,0-3.321,0.391-4.617,1.172
		c-1.595,0.969-2.391,2.258-2.391,3.867c0,1.172,0.499,2.172,1.5,3c1.219,1.031,2.913,1.547,5.086,1.547
		c2.672,0,4.593-0.609,5.766-1.828c0.938-1.016,1.46-2.469,1.569-4.359c1.97,0.766,4.243,2.156,6.82,4.172
		c0.406,0.313,0.828,0.492,1.267,0.539c0.952,0,1.43-0.461,1.43-1.383c0-0.656-0.274-1.219-0.821-1.688
		c-1.531-1.391-4.492-2.781-8.883-4.172c-0.078-0.453-0.21-1.117-0.397-1.992c-0.251-1.156-0.431-2.016-0.54-2.578
		c-0.359-1.953-0.538-3.57-0.538-4.852c0-1.156,0.398-2.141,1.195-2.953c0.905-0.906,2.038-1.359,3.398-1.359
		c1.374,0,2.687,0.617,3.938,1.852c0.515,0.516,1.046,0.773,1.594,0.773c0.328,0,0.608-0.109,0.844-0.328
		c0.234-0.25,0.352-0.539,0.352-0.867c0-0.922-0.673-1.836-2.016-2.742c-0.938-0.625-2.134-1.141-3.586-1.547
		c-1.594-0.438-3.164-0.656-4.711-0.656c-1.485,0-2.845,0.18-4.078,0.539c-0.454,0.125-0.68,0.359-0.68,0.703
		c0,0.266,0.202,0.398,0.608,0.398c0.016,0,0.055,0,0.117,0c0.828-0.141,1.672-0.211,2.532-0.211c1.671,0,3.062,0.195,4.172,0.586
		C276.918,151.403,276.989,151.457,276.989,151.52L276.989,151.52z M270.918,171.957c-0.845,0.797-2.173,1.195-3.984,1.195
		c-1.392,0-2.493-0.219-3.305-0.656c-0.876-0.469-1.313-1.109-1.313-1.922c0-0.891,0.476-1.609,1.43-2.156
		c1.046-0.578,2.429-0.867,4.147-0.867c1.563,0,3.008,0.234,4.337,0.703C272.167,169.989,271.73,171.223,270.918,171.957
		L270.918,171.957z"/>
	<path fill="#083E00" d="M256.199,212.203c0.438-0.766,1.891-3.367,4.36-7.805c1.718-3.078,3.202-5.57,4.452-7.477
		c0.406-0.563,0.704-0.93,0.892-1.102s0.469-0.297,0.844-0.375c0.577-0.125,0.867-0.477,0.867-1.055
		c0-0.828-0.595-1.836-1.782-3.023c-1.156-1.219-2.305-1.828-3.445-1.828c-0.796,0-1.194,0.18-1.194,0.539
		c0,0.156,0.124,0.297,0.375,0.422c1.249,0.641,1.875,1.438,1.875,2.391c0,0.5-0.196,1.219-0.586,2.156
		c-1.125,2.469-2.751,5.75-4.875,9.844c-1.063,2.016-2.484,4.672-4.266,7.969c-2.923,5.406-4.594,8.492-5.017,9.258
		c-0.25,0.516-0.375,0.961-0.375,1.336c0,1.031,0.517,1.547,1.548,1.547c0.671,0,1.132-0.305,1.383-0.914
		c2.015-4.766,3.694-8.063,5.039-9.891c1.608-2.078,3.53-3.117,5.766-3.117c1.202,0,2.063,0.516,2.577,1.547
		c0.517,1,0.852,2.93,1.008,5.789c0.142,2.547,0.641,4.414,1.5,5.602c0.953,1.328,2.539,1.992,4.759,1.992
		c3.968,0,7.406-2.047,10.313-6.141c1.828-2.547,3.155-5.891,3.983-10.031c0.063-0.375,0.095-0.625,0.095-0.75
		c0-0.391-0.181-0.586-0.539-0.586c-0.267,0-0.469,0.227-0.61,0.68c-1.188,3.875-2.835,7.086-4.945,9.633
		c-1.077,1.281-2.343,2.32-3.796,3.117c-1.563,0.859-3.032,1.289-4.406,1.289c-1.266,0-2.212-0.43-2.836-1.289
		c-0.642-0.922-1.024-2.508-1.149-4.758c-0.125-2.109-0.585-3.797-1.382-5.063c-1.001-1.609-2.461-2.414-4.383-2.414
		c-2.329,0-4.298,0.852-5.906,2.555L256.199,212.203z"/>
	<path fill="#083E00" d="M278.747,246.518c-0.532,0.298-1.282,0.548-2.25,0.75l-20.836,5.32c-1.406,0.36-2.431,0.54-3.07,0.54
		c-0.609,0.016-1.148-0.095-1.617-0.328c-0.438-0.219-0.97-0.672-1.594-1.359c-0.281-0.282-0.493-0.423-0.633-0.423
		c-0.313,0-0.469,0.305-0.469,0.915c0,0.719,0.429,1.633,1.289,2.742c1.125,1.313,2.18,1.968,3.164,1.968
		c0.563,0,1.108-0.179,1.641-0.539c1.031-0.593,2.218-1.132,3.563-1.616c3.405-1.234,7.694-2.609,12.867-4.125l0.093,0.141
		c-2.577,1.438-4.663,3.359-6.258,5.765c-1.875,2.798-2.813,5.806-2.813,9.023c0,3.797,1.391,6.853,4.173,9.164
		c1.374,1.188,3.202,2.149,5.484,2.883c2.28,0.735,4.453,1.103,6.516,1.103c1.468,0,2.202-0.414,2.202-1.243
		c0-0.75-0.383-1.327-1.147-1.734c-0.876-0.468-2.095-0.741-3.657-0.82c-1.313-0.015-2.656-0.241-4.03-0.68
		c-1.72-0.546-3.157-1.313-4.313-2.297c-2.173-1.733-3.258-4.327-3.258-7.781c0-2.546,0.905-5.054,2.718-7.522
		c1.97-2.656,4.29-4.454,6.962-5.392c2.625-0.952,5.733-1.483,9.328-1.593c1.046-0.048,1.57-0.477,1.57-1.29
		c0-0.655-0.431-1.132-1.29-1.43c-1-0.421-1.914-0.633-2.741-0.633C279.761,246.026,279.23,246.191,278.747,246.518L278.747,246.518
		z"/>
	<path fill="#083E00" d="M257.747,294.84c0.765-0.125,1.28-0.25,1.547-0.375c0.28-0.141,0.422-0.352,0.422-0.633
		c0-0.375-1.423-1.016-4.267-1.922c-0.233,0.938-0.594,1.898-1.077,2.883c-1.875,4.172-4.704,7.969-8.485,11.391
		c-0.031,0.047-0.046,0.094-0.046,0.141c0,0.25,0.124,0.375,0.375,0.375c0.03,0,0.07-0.008,0.116-0.023
		c2.673-1.672,4.923-3.469,6.75-5.391v8.742h-3.655c-1.235,0-2.431-0.094-3.586-0.281l0.469,1.758
		c0.968-0.188,2.007-0.281,3.117-0.281h3.655v10.125h-2.976c-1.313,0-2.548-0.109-3.703-0.328l0.445,1.805
		c1.296-0.188,2.382-0.281,3.258-0.281h36.891c0.405,0,0.609-0.141,0.609-0.422s-0.384-0.727-1.149-1.336
		c-1.391-1.188-2.226-1.781-2.508-1.781c-0.266,0-1.063,0.781-2.39,2.344h-2.063v-10.125h8.344c0.452,0,0.679-0.141,0.679-0.422
		c0-0.313-0.351-0.758-1.054-1.336c-1.454-1.188-2.321-1.781-2.602-1.781c-0.234,0-1.032,0.781-2.391,2.344h-2.977v-9.938h6.422
		c0.452,0,0.68-0.141,0.68-0.422c0-0.25-0.352-0.672-1.055-1.266c-1.5-1.219-2.353-1.828-2.555-1.828
		c-0.267,0-1.048,0.773-2.345,2.32h-25.546C255.942,297.785,256.824,296.434,257.747,294.84L257.747,294.84z M271.434,321.348
		v-10.125h5.272v10.125H271.434z M271.434,310.028v-9.938h5.272v9.938H271.434z M263.606,321.348v-10.125h5.18v10.125H263.606z
		 M263.606,310.028v-9.938h5.18v9.938H263.606z M255.778,321.348v-10.125h5.179v10.125H255.778z M255.778,310.028v-9.938h5.179
		v9.938H255.778z M282.028,332.715c0.249,0.828,0.476,1.383,0.679,1.664c0.235,0.313,0.602,0.469,1.103,0.469
		c1.155,0,1.734-0.719,1.734-2.156c0-1.141-0.609-2.367-1.828-3.68c-1.406-1.547-3.274-2.813-5.602-3.797
		c-0.032-0.016-0.063-0.023-0.095-0.023c-0.203,0-0.304,0.094-0.304,0.281c0,0.063,0.015,0.109,0.046,0.141
		C279.949,327.895,281.372,330.262,282.028,332.715L282.028,332.715z M270.379,332.34c0.124,1.438,0.616,2.156,1.477,2.156
		c0.516,0,0.944-0.203,1.288-0.609c0.391-0.454,0.587-1.031,0.587-1.734c0-1-0.415-2.109-1.242-3.328
		c-0.97-1.453-2.228-2.617-3.773-3.492c-0.047-0.031-0.103-0.047-0.164-0.047c-0.204,0-0.305,0.086-0.305,0.258
		c0,0.047,0.022,0.086,0.07,0.117C269.536,327.66,270.222,329.887,270.379,332.34L270.379,332.34z M260.114,330.184l-0.258,3.047
		c0,1.046,0.429,1.57,1.288,1.57c0.672,0,1.203-0.243,1.595-0.727c0.452-0.516,0.68-1.251,0.68-2.203
		c0-2.219-1.102-4.359-3.305-6.422c-0.095-0.094-0.211-0.133-0.353-0.117c-0.156,0.016-0.219,0.102-0.188,0.258
		C259.933,326.949,260.114,328.481,260.114,330.184L260.114,330.184z M247.997,331.004c-1.157,0.422-1.735,1.141-1.735,2.156
		c0,0.422,0.156,0.797,0.47,1.125c0.358,0.375,0.797,0.563,1.313,0.563c1.374,0,2.593-0.703,3.655-2.109
		c1.281-1.703,1.923-3.875,1.923-6.516c0-0.297-0.009-0.594-0.023-0.891c0-0.188-0.126-0.281-0.375-0.281
		c-0.157,0-0.251,0.063-0.281,0.188C252.269,328.098,250.622,330.02,247.997,331.004L247.997,331.004z"/>
	<path fill="#083E00" d="M274.879,359.556c1.89,1.063,3.577,2.625,5.063,4.688c1.655,2.297,2.484,4.313,2.484,6.047
		c0,0.501-0.243,0.789-0.728,0.867c-0.563,0.079-1.78,0.228-3.655,0.445c-0.485,0.047-0.727,0.188-0.727,0.422
		c0,0.375,0.211,0.586,0.632,0.633c1.422,0.173,2.462,0.375,3.118,0.609c0.687,0.25,1.219,0.633,1.594,1.148
		c0.296,0.422,0.71,0.633,1.242,0.633c1.219,0,1.828-1.055,1.828-3.164c0-2.531-0.891-4.992-2.672-7.383
		c-1.969-2.64-4.523-4.608-7.665-5.906c-0.156-0.078-0.313-0.117-0.468-0.117c-0.36,0-0.54,0.117-0.54,0.352
		C274.386,359.127,274.551,359.368,274.879,359.556L274.879,359.556z M260.911,380.673c0-0.563-0.103-1.062-0.305-1.5
		c-0.126-0.296-0.188-0.663-0.188-1.102c0-0.219,0.163-0.812,0.492-1.781c0.891-2.593,2.156-5.312,3.796-8.156
		c0.188-0.375,0.282-0.656,0.282-0.844c0-0.328-0.181-0.492-0.54-0.492c-0.313,0-0.578,0.18-0.796,0.539
		c-2.188,3.454-3.938,6.36-5.25,8.719c-0.281,0.516-0.603,0.773-0.961,0.773c-0.75,0-1.54-0.867-2.368-2.602
		c-0.859-1.843-1.288-4.578-1.288-8.203c0-2.719,0.179-4.608,0.538-5.672c0.297-0.858,0.445-1.547,0.445-2.063
		c0-1.063-0.75-2.227-2.25-3.492c-1.203-1.031-2.164-1.547-2.883-1.547c-0.453,0-0.68,0.141-0.68,0.422
		c0,0.141,0.148,0.352,0.446,0.633c0.796,0.75,1.343,1.43,1.641,2.039c0.312,0.642,0.468,1.5,0.468,2.578l-0.069,3.938
		c0,3.75,0.257,6.806,0.773,9.164c0.733,3.328,2.093,5.985,4.078,7.969c1.28,1.281,2.358,1.922,3.234,1.922
		C260.449,381.915,260.911,381.502,260.911,380.673L260.911,380.673z"/>
	<path fill="#083E00" d="M184.699,42.55h2.649c1.14,6.954,3.202,12.618,6.188,16.992c2.344,3.375,5.077,6.181,8.203,8.414
		c0.78,0.547,1.313,0.82,1.593,0.82c0.25,0,0.477-0.227,0.68-0.68c0.282-0.671,0.547-1.148,0.798-1.43
		c0.249-0.296,0.624-0.522,1.125-0.68c0.218-0.077,0.327-0.194,0.327-0.352c0-0.094-0.046-0.155-0.14-0.188
		c-3.876-1.437-7.306-3.835-10.29-7.195c-1.234-1.343-2.336-2.836-3.304-4.477c2.483-1.374,5.14-3.288,7.969-5.742
		c0.124,0,0.305,0,0.539,0c0.952,0,1.43-0.211,1.43-0.633c0-0.546-1.219-1.491-3.656-2.836c-0.36,0.86-0.931,1.805-1.711,2.836
		c-1.423,1.892-3.117,3.735-5.087,5.531c-1.609-3-2.781-6.46-3.515-10.383h11.859c0.452,0,0.68-0.141,0.68-0.422
		c0-0.312-0.368-0.757-1.102-1.336c-1.532-1.219-2.415-1.828-2.648-1.828c-0.267,0-1.087,0.797-2.462,2.391h-21.444
		c-1.329,0-2.595-0.108-3.798-0.328l0.492,1.805c1.032-0.188,2.133-0.281,3.306-0.281h7.336c-3.813,3.86-9.142,6.978-15.984,9.352
		c-0.095,0.032-0.141,0.103-0.141,0.211c0,0.345,0.124,0.501,0.375,0.469c6.108-1.359,11.054-3.328,14.836-5.906
		c0.843,0.891,1.57,1.821,2.18,2.789c-4.907,4.219-10.813,7.579-17.72,10.078c-0.093,0.032-0.14,0.11-0.14,0.234
		c0,0.298,0.108,0.431,0.327,0.398c7.188-1.5,13.492-4.233,18.915-8.203c0.546,1.345,0.96,2.555,1.242,3.633
		c-5.657,5.203-12.665,9.234-21.024,12.094c-0.093,0.032-0.14,0.117-0.14,0.258c0,0.313,0.108,0.453,0.327,0.422
		c8.703-1.905,15.845-5.109,21.423-9.609c0.124,0.984,0.188,2.109,0.188,3.375c0,2.47-0.196,4.063-0.586,4.781
		c-0.345,0.642-0.867,0.961-1.57,0.961c-1.063,0-2.938-0.171-5.625-0.516c-0.188-0.03-0.281,0.094-0.281,0.375
		c0,0.173,0.054,0.274,0.164,0.305c1.718,0.453,2.921,0.883,3.609,1.289c0.703,0.406,1.108,0.961,1.219,1.664
		c0.062,0.422,0.265,0.633,0.609,0.633c0.687,0,1.397-0.18,2.133-0.539c0.905-0.453,1.593-1.055,2.063-1.805
		c0.858-1.249,1.289-3.312,1.289-6.188c0-3.077-0.532-5.96-1.594-8.648c-1.329-3.375-3.392-6.155-6.188-8.344
		C181.949,45.145,183.308,43.956,184.699,42.55L184.699,42.55z M169.394,31.98c-0.031-0.155-0.156-0.234-0.375-0.234
		c-0.172,0-0.258,0.063-0.258,0.188c-0.046,2.751-1.203,4.734-3.468,5.953c-0.923,0.516-1.383,1.172-1.383,1.969
		c0,1.125,0.563,1.688,1.688,1.688c1.015,0,1.882-0.476,2.601-1.43c0.859-1.108,1.337-2.616,1.431-4.523h30.961
		c-0.375,1.219-0.86,2.461-1.454,3.727c-0.016,0.032-0.022,0.07-0.022,0.117c0,0.188,0.108,0.281,0.328,0.281
		c0.077,0,0.14-0.023,0.188-0.07c0.905-0.624,1.882-1.406,2.93-2.344c0.452-0.343,1.015-0.516,1.688-0.516
		c1.187,0,1.781-0.258,1.781-0.773c0-0.312-0.337-0.788-1.009-1.43c-1.391-1.313-2.242-1.969-2.554-1.969
		c-0.234,0-0.907,0.595-2.017,1.781h-14.25v-3.609c1.079-0.405,1.618-0.82,1.618-1.242c0-0.249-0.235-0.452-0.703-0.609
		c-0.657-0.218-2.032-0.445-4.125-0.68c0.124,1.235,0.188,2.29,0.188,3.164v2.977h-13.5
		C169.629,33.597,169.536,32.793,169.394,31.98L169.394,31.98z"/>
	<path fill="#083E00" d="M190.769,107.455h-6.633c-0.922,0-2.102-0.094-3.538-0.281l0.469,1.758
		c0.999-0.188,2.022-0.281,3.069-0.281h6.399v0.094c-0.673,3.125-1.938,5.82-3.797,8.086c-2.095,2.531-5.142,4.766-9.141,6.703
		c-0.063,0.031-0.094,0.102-0.094,0.211c0,0.281,0.108,0.422,0.327,0.422c0.016,0,0.039,0,0.071,0
		c8.218-2.531,13.257-7.172,15.116-13.922c0.031-0.094,0.071-0.227,0.117-0.398c0.048-0.188,0.086-0.328,0.118-0.422
		c0.999,3.734,2.522,6.727,4.569,8.977c1.688,1.922,3.484,3.422,5.392,4.5c0.78,0.484,1.374,0.727,1.781,0.727
		c0.312,0,0.539-0.172,0.68-0.516c0.218-0.625,0.445-1.063,0.68-1.313c0.249-0.25,0.68-0.438,1.288-0.563
		c0.156-0.031,0.235-0.133,0.235-0.305c0-0.141-0.063-0.234-0.188-0.281c-3.281-0.859-6.087-2.25-8.414-4.172
		c-2.329-1.906-4.079-4.516-5.25-7.828h11.32c0.437,0,0.656-0.141,0.656-0.422c0-0.266-0.352-0.695-1.056-1.289
		c-1.438-1.219-2.289-1.828-2.555-1.828c-0.219,0-1.008,0.781-2.366,2.344h-6.375c0.281-1.75,0.452-4.406,0.516-7.969h9.655
		c0.423,0,0.633-0.141,0.633-0.422s-0.336-0.68-1.008-1.195c-1.593-1.281-2.46-1.922-2.601-1.922c-0.204,0-0.954,0.781-2.25,2.344
		h-10.524c0.625-1.125,1.156-2.164,1.595-3.117c1.125-0.172,1.688-0.477,1.688-0.914c0-0.422-1.353-0.984-4.055-1.688
		c-0.157,1.188-0.516,2.5-1.078,3.938c-1.204,3.172-2.735,5.938-4.594,8.297c-0.032,0.047-0.048,0.094-0.048,0.141
		c0,0.234,0.125,0.352,0.375,0.352c0.063,0,0.109-0.016,0.142-0.047c2.14-1.844,3.874-3.766,5.203-5.766h3.984
		C191.222,103.033,191.051,105.69,190.769,107.455L190.769,107.455z M188.942,84.323c1.14-0.25,1.711-0.57,1.711-0.961
		c0-0.484-1.47-1.078-4.406-1.781c-0.094,1.453-0.462,3.086-1.103,4.898c-1.265,3.844-3,7.234-5.202,10.172
		c-0.032,0.047-0.048,0.094-0.048,0.141c0,0.234,0.125,0.352,0.375,0.352c0.063,0,0.109-0.016,0.142-0.047
		c2.218-1.938,4.055-4.102,5.508-6.492h19.968c0.438,0,0.657-0.141,0.657-0.422c0-0.344-0.368-0.813-1.102-1.406
		c-1.594-1.281-2.501-1.922-2.719-1.922c-0.251,0-1.102,0.852-2.555,2.555h-13.524C187.519,87.877,188.286,86.182,188.942,84.323
		L188.942,84.323z M168.528,95.948c-0.126,6.078-0.642,11.203-1.547,15.375c-1.017,4.547-2.672,8.633-4.97,12.258
		c-0.016,0.031-0.022,0.063-0.022,0.094c0,0.203,0.141,0.305,0.422,0.305c0.077,0,0.141-0.023,0.188-0.07
		c2.546-2.734,4.46-5.734,5.742-9c1.5-3.781,2.452-8.727,2.858-14.836h5.133c-0.344,7.672-0.898,13.227-1.663,16.664
		c-0.251,1.203-0.516,2.039-0.797,2.508s-0.68,0.703-1.195,0.703c-1.017,0-2.36-0.148-4.032-0.445
		c-0.188-0.031-0.28,0.086-0.28,0.352c0,0.172,0.054,0.281,0.164,0.328c1.14,0.359,1.945,0.703,2.414,1.031
		c0.546,0.375,0.867,0.891,0.961,1.547c0.046,0.422,0.319,0.633,0.82,0.633c0.78,0,1.476-0.211,2.086-0.633
		c0.938-0.703,1.718-2.234,2.344-4.594c0.905-3.547,1.577-9.289,2.016-17.227c0.78-0.484,1.172-0.836,1.172-1.055
		c0-0.266-0.274-0.648-0.821-1.148c-1.03-0.922-1.688-1.383-1.968-1.383c-0.173,0-0.72,0.508-1.641,1.523h-4.664
		c0.062-1.563,0.132-3.977,0.21-7.242h9.446c0.452,0,0.679-0.141,0.679-0.422c0-0.297-0.304-0.727-0.913-1.289
		c-1.266-1.125-2.016-1.688-2.25-1.688c-0.251,0-0.962,0.734-2.133,2.203h-3.492v-6.234c1.093-0.516,1.641-0.938,1.641-1.266
		c0-0.266-0.22-0.477-0.656-0.633c-0.626-0.234-1.962-0.469-4.009-0.703c0.125,1.094,0.188,2.406,0.188,3.938v4.898h-3.351
		c-1.251,0-2.454-0.117-3.609-0.352l0.469,1.828c1.296-0.188,2.344-0.281,3.141-0.281h1.922V95.948z"/>
	<path fill="#083E00" d="M195.364,150.937c2.468-0.484,4.617-1.047,6.445-1.688c0.921-0.344,1.383-0.813,1.383-1.406
		c0-0.328-0.164-0.602-0.493-0.82c-0.327-0.219-0.726-0.328-1.194-0.328c-0.97,0-1.767,0.18-2.391,0.539
		c-0.75,0.406-1.228,0.648-1.43,0.727c-0.72,0.234-1.509,0.438-2.367,0.609c0-1.516,0.054-3.063,0.164-4.641
		c0.047-1,0.249-1.656,0.609-1.969c0.39-0.328,0.586-0.68,0.586-1.055c0-0.75-0.673-1.438-2.016-2.063
		c-1.157-0.578-2.259-0.867-3.305-0.867c-0.454,0-0.867,0.102-1.242,0.305c-0.422,0.234-0.633,0.484-0.633,0.75
		c0,0.328,0.202,0.492,0.609,0.492c0.952,0,1.711,0.188,2.273,0.563c0.375,0.281,0.577,0.891,0.609,1.828
		c0.124,2.75,0.188,5.117,0.188,7.102c-3,0.484-5.587,0.727-7.758,0.727c-1.61,0-2.859-0.609-3.75-1.828
		c-0.267-0.391-0.509-0.586-0.727-0.586c-0.282,0-0.422,0.148-0.422,0.445c0,0.188,0.047,0.422,0.14,0.703
		c0.922,2.25,2.603,3.375,5.04,3.375c2.515,0,5.022-0.18,7.522-0.539l0.142,13.406c-1.406-0.359-2.923-0.539-4.547-0.539
		c-2.001,0-3.603,0.383-4.805,1.148c-1.313,0.813-1.969,1.914-1.969,3.305c0,1.313,0.563,2.391,1.688,3.234
		c1.266,0.953,2.944,1.43,5.039,1.43c2.156,0,3.858-0.516,5.109-1.547c1.233-0.984,1.852-2.227,1.852-3.727
		c1.828,1.016,3.647,2.234,5.461,3.656c0.499,0.375,0.976,0.563,1.43,0.563c0.093,0,0.179-0.008,0.258-0.023
		c0.75-0.172,1.102-0.672,1.055-1.5c-0.063-0.5-0.337-0.945-0.82-1.336c-1.673-1.359-4.118-2.656-7.337-3.891
		C195.496,161.476,195.364,156.624,195.364,150.937L195.364,150.937z M192.106,170.015c-0.845,0.813-2.095,1.219-3.75,1.219
		c-3.234,0-4.852-0.914-4.852-2.742c0-0.75,0.39-1.359,1.172-1.828c0.797-0.469,1.835-0.703,3.117-0.703
		c1.828,0,3.647,0.352,5.461,1.055C193.254,168.296,192.871,169.296,192.106,170.015L192.106,170.015z M171.551,154.827
		c0.53-2.797,1.257-5.359,2.18-7.688c0.218-0.75,0.468-1.289,0.75-1.617c0.452-0.516,0.68-1.047,0.68-1.594
		c0-1.125-0.321-2.164-0.962-3.117c-0.608-0.969-1.281-1.711-2.015-2.227c-0.407-0.313-0.728-0.469-0.961-0.469
		c-0.375,0-0.563,0.156-0.563,0.469c0,0.125,0.077,0.32,0.233,0.586c0.734,1.203,1.103,2.336,1.103,3.398
		c0,1.031-0.258,2.445-0.773,4.242c-1.563,6-2.344,11.117-2.344,15.352c0,5.047,0.609,8.734,1.827,11.063
		c0.423,0.827,0.969,1.242,1.642,1.242c0.733,0,1.101-0.431,1.101-1.289l-0.046-2.883c0-0.281,0.141-1.102,0.421-2.461
		c0.095-0.422,0.992-3.641,2.695-9.656c0.063-0.188,0.095-0.344,0.095-0.469c0-0.422-0.141-0.633-0.422-0.633
		c-0.298,0-0.509,0.18-0.633,0.539c-1.298,3.141-2.501,6.375-3.61,9.703c-0.063,0.188-0.188,0.281-0.375,0.281
		c-0.172,0-0.32-0.289-0.444-0.867c-0.188-1-0.281-2.82-0.281-5.461C170.848,159.382,171.082,157.234,171.551,154.827
		L171.551,154.827z"/>
	<path fill="#083E00" d="M92.551,35.553c-0.984-0.578-2.25-1.188-3.797-1.828c0.155,1.891,0.234,7.203,0.234,15.938l-0.234,21.141
		c0,0.734,0.445,1.102,1.336,1.102c1.249,0,1.875-0.453,1.875-1.359v-2.297h21.984v2.109c0,0.734,0.445,1.102,1.336,1.102
		c1.249,0,1.875-0.445,1.875-1.336l-0.188-21.469V37.85c0.891-0.641,1.336-1.102,1.336-1.383c0-0.234-0.29-0.602-0.867-1.102
		c-1.095-0.938-1.767-1.406-2.016-1.406c-0.22,0-0.837,0.531-1.852,1.594H99.747c0.999-1.078,2.227-2.711,3.68-4.898
		c1.187-0.219,1.781-0.539,1.781-0.961c0-0.266-0.274-0.516-0.82-0.75c-0.609-0.25-1.884-0.625-3.82-1.125
		c-0.047,0.891-0.305,2.109-0.773,3.656c-0.438,1.469-0.938,2.828-1.5,4.078H92.551z M91.965,67.053V57.022h21.984v10.031H91.965z
		 M91.965,55.826v-8.953h21.984v8.953H91.965z M91.965,45.678v-8.93h21.984v8.93H91.965z"/>
	<path fill="#083E00" d="M93.629,114.199c-2.438,3.719-6.407,6.93-11.906,9.633c-0.063,0.031-0.094,0.094-0.094,0.188
		c0,0.359,0.124,0.539,0.375,0.539c0.015,0,0.03,0,0.047,0c5.578-1.781,9.851-4.305,12.82-7.57c3.39-3.734,5.382-8.797,5.977-15.188
		h11.555c-0.392,6.703-0.993,11.617-1.805,14.742c-0.579,2.203-1.477,3.305-2.695,3.305c-1.517,0-3.82-0.273-6.914-0.82
		c-0.173-0.031-0.258,0.125-0.258,0.469c0,0.219,0.054,0.336,0.164,0.352c1.858,0.453,3.211,0.914,4.055,1.383
		s1.319,1.047,1.43,1.734c0.047,0.297,0.108,0.484,0.188,0.563c0.077,0.078,0.265,0.117,0.563,0.117
		c1.608,0,2.843-0.383,3.703-1.148c0.984-0.828,1.796-2.289,2.438-4.383c0.938-2.969,1.641-8.055,2.109-15.258
		c0.827-0.531,1.242-0.914,1.242-1.148c0-0.297-0.258-0.68-0.773-1.148c-1.157-1.063-1.852-1.594-2.086-1.594
		c-0.204,0-0.813,0.547-1.828,1.641H92.879c-1.5,0-2.906-0.148-4.219-0.445l0.469,1.922c1.046-0.188,2.312-0.281,3.797-0.281h4.664
		C97.089,106.817,95.769,110.949,93.629,114.199L93.629,114.199z M115.239,93.692c-2.906-2.688-5.109-5.953-6.609-9.797
		c-0.173-0.375-0.258-0.648-0.258-0.82l0.188-0.773c0-0.25-0.141-0.375-0.422-0.375c-0.204,0-0.516,0.086-0.938,0.258
		c-0.532,0.234-0.797,0.422-0.797,0.563c0,0.188,0.155,0.391,0.469,0.609c0.234,0.188,0.429,0.461,0.586,0.82
		c1.812,5.063,4.008,9.078,6.586,12.047c1.765,2.156,3.938,4.109,6.516,5.859c0.858,0.578,1.483,0.867,1.875,0.867
		c0.281,0,0.483-0.242,0.609-0.727c0.265-0.703,0.516-1.195,0.75-1.477c0.296-0.328,0.718-0.508,1.266-0.539
		c0.188-0.031,0.281-0.148,0.281-0.352c0-0.141-0.056-0.227-0.164-0.258C121.597,98.473,118.286,96.504,115.239,93.692
		L115.239,93.692z M90.84,96.551c2.937-3.109,5.421-6.898,7.453-11.367c1.359-0.156,2.039-0.477,2.039-0.961
		c0-0.531-1.587-1.328-4.758-2.391c-0.234,1.203-0.72,2.688-1.453,4.453c-2.798,6.609-7.195,12.234-13.195,16.875
		c-0.047,0.047-0.07,0.102-0.07,0.164c0,0.328,0.141,0.492,0.422,0.492c0.015,0,0.038,0,0.07,0
		C85.051,101.739,88.215,99.317,90.84,96.551L90.84,96.551z"/>
	<path fill="#083E00" d="M100.614,142.67c0.375-0.844,0.71-1.383,1.008-1.617c0.452-0.344,0.68-0.797,0.68-1.359
		c0-0.484-0.274-0.945-0.82-1.383c-0.516-0.422-1.188-0.797-2.016-1.125c-0.86-0.344-1.532-0.516-2.016-0.516
		c-0.328,0-0.759,0.078-1.289,0.234c-0.454,0.203-0.68,0.414-0.68,0.633c0,0.203,0.272,0.359,0.82,0.469
		c1.53,0.328,2.297,1.055,2.297,2.18c0,0.531-0.157,1.359-0.469,2.484c-0.345,1.281-0.797,2.711-1.359,4.289
		c-2.672,0.828-4.845,1.242-6.516,1.242c-1.641,0-3.009-0.367-4.102-1.102c-0.454-0.297-0.75-0.445-0.891-0.445
		c-0.36,0-0.539,0.18-0.539,0.539c0,0.531,0.46,1.125,1.383,1.781c1.202,0.891,2.757,1.336,4.664,1.336
		c1.39,0,3.101-0.242,5.133-0.727c-2.845,7.891-5.915,15.094-9.211,21.609c-0.157,0.375-0.234,0.695-0.234,0.961
		c0,0.391,0.108,0.75,0.328,1.078c0.265,0.313,0.633,0.469,1.102,0.469c0.671,0,1.187-0.398,1.547-1.195
		c1.781-4.094,4.741-11.938,8.883-23.531c2.749-0.75,5.367-1.586,7.852-2.508c1.125-0.438,1.688-0.984,1.688-1.641
		c0-0.344-0.149-0.633-0.445-0.867c-0.281-0.219-0.626-0.328-1.031-0.328c-0.454,0-1.228,0.258-2.32,0.773
		c-1.563,0.734-3.181,1.375-4.852,1.922C99.972,144.248,100.441,143.03,100.614,142.67L100.614,142.67z M103.403,163.225
		c0-0.25-0.11-0.375-0.328-0.375c-0.328,0-0.618,0.289-0.867,0.867c-0.579,1.266-0.867,2.445-0.867,3.539
		c0,0.906,0.249,1.797,0.75,2.672c0.546,0.984,1.304,1.773,2.273,2.367c1.937,1.188,4.898,1.781,8.883,1.781
		c1.952,0,3.694-0.11,5.227-0.328c0.765-0.109,1.296-0.273,1.594-0.492c0.312-0.219,0.469-0.57,0.469-1.055
		c0-0.625-0.321-1.07-0.961-1.336c-0.485-0.188-0.978-0.281-1.477-0.281c-0.609,0-1.266,0.094-1.969,0.281
		c-1.376,0.313-2.845,0.469-4.406,0.469c-2.985,0-5.118-0.336-6.398-1.008c-1.626-0.844-2.438-2.156-2.438-3.938
		c0-0.844,0.101-1.625,0.305-2.344C103.333,163.545,103.403,163.272,103.403,163.225L103.403,163.225z M108.254,156.944
		c-0.298,0.281-0.445,0.484-0.445,0.609c0,0.266,0.108,0.398,0.328,0.398c0.234,0,0.492-0.078,0.773-0.234
		c2.655-1.797,4.272-2.82,4.852-3.07c0.624-0.297,1.172-0.445,1.641-0.445c0.077,0,0.155,0,0.234,0c0.265,0,0.694,0.094,1.289,0.281
		c0.422,0.156,0.773,0.234,1.055,0.234c0.718,0.063,1.102-0.273,1.148-1.008c0.047-0.719-0.398-1.305-1.336-1.758
		c-1.095-0.516-2.602-0.828-4.523-0.938c-0.298-0.016-0.571-0.023-0.82-0.023c-3.532,0-6.556,0.93-9.07,2.789
		c-0.251,0.203-0.375,0.43-0.375,0.68c0,0.219,0.132,0.328,0.398,0.328c0.155,0,0.328-0.039,0.516-0.117
		c2.063-1.109,4.617-1.664,7.664-1.664c0.281,0,0.53,0.008,0.75,0.023c0.218,0.016,0.328,0.063,0.328,0.141
		s-0.094,0.195-0.281,0.352C110.019,155.459,108.644,156.6,108.254,156.944L108.254,156.944z"/>
	<path fill="#083E00" d="M93.536,212.141c-0.094,0.359-0.305,0.891-0.633,1.594c-0.188,0.422-0.281,0.852-0.281,1.289
		c0,0.859,0.155,1.578,0.469,2.156c0.328,0.609,0.733,0.914,1.219,0.914c0.546,0,0.914-0.242,1.102-0.727
		c0.343-0.813,0.891-1.609,1.641-2.391c3.858-3.984,7.679-5.977,11.461-5.977c1.843,0,3.335,0.406,4.477,1.219
		c1.343,0.953,2.016,2.336,2.016,4.148c0,1.547-0.532,3.016-1.594,4.406c-1.063,1.422-2.548,2.641-4.453,3.656
		c-3.984,2.125-8.484,3.547-13.5,4.266c-0.548,0.063-0.82,0.25-0.82,0.563c0,0.453,0.272,0.68,0.82,0.68c0.03,0,0.077,0,0.141,0
		c5.344-0.375,10.046-1.445,14.109-3.211c5.578-2.422,8.367-5.594,8.367-9.516c0-2.281-0.844-4.125-2.531-5.531
		c-1.813-1.484-4.204-2.227-7.172-2.227c-3.422,0-7.649,1.742-12.68,5.227c0.141-0.734,0.469-2.516,0.984-5.344
		c0.437-2.484,0.812-4.523,1.125-6.117c3.328-0.672,6.164-1.461,8.508-2.367c1.155-0.438,1.734-0.984,1.734-1.641
		c0-0.859-0.75-1.289-2.25-1.289c-0.813,0-1.485,0.227-2.016,0.68c-1.11,0.844-2.923,1.594-5.438,2.25
		c0.375-1.891,0.694-3.266,0.961-4.125c0.265-0.828,0.522-1.367,0.773-1.617c0.312-0.328,0.469-0.727,0.469-1.195
		c0-0.563-0.478-1.133-1.43-1.711c-1.078-0.656-2.086-0.984-3.023-0.984s-1.649,0.141-2.133,0.422
		c-0.313,0.203-0.469,0.445-0.469,0.727c0,0.219,0.258,0.352,0.773,0.398c1.734,0.156,2.578,0.758,2.531,1.805
		c-0.047,2.031-0.281,4.289-0.703,6.773c-2.079,0.438-3.86,0.656-5.344,0.656c-1.798,0-3.234-0.578-4.313-1.734
		c-0.157-0.156-0.337-0.234-0.539-0.234c-0.281,0-0.422,0.156-0.422,0.469c0,0.172,0.062,0.352,0.188,0.539
		c0.703,1,1.46,1.734,2.273,2.203c0.921,0.516,2.101,0.773,3.539,0.773c1.233,0,2.608-0.109,4.125-0.328
		C94.769,206.422,94.082,209.906,93.536,212.141L93.536,212.141z"/>
	<path fill="#083E00" d="M116.926,254.39c0,0.234,0.062,0.391,0.188,0.469c1.781,1.078,3.094,2.367,3.938,3.867
		c0.516,0.859,1.038,1.289,1.57,1.289c0.312,0,0.574-0.125,0.785-0.375s0.316-0.555,0.316-0.914c0-1.063-0.72-2.094-2.156-3.094
		c-1.095-0.75-2.227-1.281-3.398-1.594c-0.328-0.094-0.586-0.141-0.773-0.141C117.082,253.898,116.926,254.062,116.926,254.39
		L116.926,254.39z M112.848,257.39c0,0.188,0.094,0.352,0.281,0.492c1.641,1.203,2.827,2.5,3.563,3.891
		c0.546,1.047,1.069,1.57,1.57,1.57c0.797,0,1.195-0.461,1.195-1.383c0-0.969-0.688-2.008-2.063-3.117
		c-0.923-0.766-2.103-1.406-3.539-1.922c-0.094-0.031-0.258-0.047-0.492-0.047C113.019,256.874,112.848,257.046,112.848,257.39
		L112.848,257.39z M114.747,246.656c-0.532,0.297-1.282,0.547-2.25,0.75c-2.36,0.609-5.735,1.477-10.125,2.602
		c-4.969,1.266-8.54,2.172-10.711,2.719c-1.406,0.359-2.431,0.539-3.07,0.539c-0.609,0.016-1.148-0.094-1.617-0.328
		c-0.438-0.219-0.97-0.672-1.594-1.359c-0.281-0.281-0.492-0.422-0.633-0.422c-0.313,0-0.469,0.305-0.469,0.914
		c0,0.719,0.429,1.633,1.289,2.742c1.125,1.313,2.18,1.969,3.164,1.969c0.563,0,1.108-0.18,1.641-0.539
		c1.031-0.594,2.218-1.133,3.563-1.617c3.375-1.219,7.664-2.594,12.867-4.125l0.094,0.141c-2.578,1.438-4.664,3.359-6.258,5.766
		c-1.875,2.797-2.813,5.805-2.813,9.023c0,3.797,1.39,6.852,4.172,9.164c1.374,1.188,3.202,2.148,5.484,2.883
		c2.28,0.734,4.453,1.102,6.516,1.102c1.468,0,2.203-0.414,2.203-1.242c0-0.75-0.384-1.328-1.148-1.734
		c-0.876-0.469-2.095-0.742-3.656-0.82c-1.313-0.016-2.657-0.242-4.031-0.68c-1.72-0.547-3.157-1.313-4.313-2.297
		c-2.173-1.734-3.258-4.328-3.258-7.781c0-2.547,0.905-5.055,2.719-7.523c1.969-2.672,4.289-4.469,6.961-5.391
		c2.625-0.953,5.733-1.484,9.328-1.594c1.046-0.047,1.57-0.477,1.57-1.289c0-0.656-0.431-1.133-1.289-1.43
		c-1.001-0.422-1.915-0.633-2.742-0.633C115.761,246.163,115.23,246.327,114.747,246.656L114.747,246.656z"/>
	<path fill="#083E00" d="M13.997,30.811c1.327-0.141,1.992-0.398,1.992-0.773s-1.383-1-4.148-1.875
		c-0.438,1.172-1.274,2.625-2.508,4.359c-2.719,3.75-6.267,7.016-10.641,9.797c-0.063,0.031-0.094,0.094-0.094,0.188
		c0,0.328,0.124,0.492,0.375,0.492c0.015,0,0.03,0,0.047,0c6.077-2.609,10.905-6.453,14.484-11.531
		c3.155,1.656,5.836,3.781,8.039,6.375c0.858,1,1.5,1.5,1.922,1.5c0.765,0,1.148-0.477,1.148-1.43c0-2.516-3.571-4.852-10.711-7.008
		L13.997,30.811z M19.692,54.74v0.422c0,0.609,0.405,0.914,1.219,0.914c1.093,0,1.641-0.383,1.641-1.148l-0.164-6.703v-2.93
		c0.78-0.547,1.172-0.945,1.172-1.195c0-0.328-0.243-0.68-0.727-1.055c-0.97-0.797-1.579-1.195-1.828-1.195
		c-0.234,0-0.782,0.461-1.641,1.383H7.411c-1.001-0.609-2.133-1.172-3.398-1.688c0.171,1.672,0.258,3.414,0.258,5.227
		c0,5.156-0.368,9.156-1.102,12c-1.017,3.875-2.625,7.313-4.828,10.313c-0.017,0.031-0.023,0.062-0.023,0.094
		c0,0.234,0.132,0.352,0.398,0.352c0.062,0,0.117-0.016,0.164-0.047c3.249-3.078,5.468-6.492,6.656-10.242
		c0.437-1.344,0.773-2.844,1.008-4.5H19.692z M19.692,49.561v3.984H6.731c0.155-1.359,0.258-2.688,0.305-3.984H19.692z
		 M7.083,48.365v-3.938h12.609v3.938H7.083z M20.301,70.069c0,0.609,0.398,0.914,1.195,0.914c1.093,0,1.641-0.384,1.641-1.148
		l-0.094-4.641c0-0.328,0-0.883,0-1.664v-2.25c0.733-0.516,1.102-0.914,1.102-1.195c0-0.234-0.243-0.57-0.727-1.008
		c-1.017-0.797-1.626-1.195-1.828-1.195c-0.204,0-0.743,0.477-1.617,1.43H9.262C8.214,58.67,7.16,58.123,6.098,57.67
		c0.094,1.031,0.141,3.055,0.141,6.07l-0.094,6.961c0,0.609,0.382,0.914,1.148,0.914c1.093,0,1.641-0.384,1.641-1.148v-1.594h11.367
		V70.069z M8.934,67.678v-7.172h11.367v7.172H8.934z M32.208,33.764c0-0.297-0.234-0.523-0.703-0.68
		c-0.563-0.188-1.852-0.391-3.867-0.609c0.188,1.594,0.281,5.781,0.281,12.563l-0.188,14.414c0,0.766,0.398,1.148,1.195,1.148
		c1.249,0,1.875-0.461,1.875-1.383l-0.188-16.383v-7.875C31.675,34.506,32.208,34.108,32.208,33.764L32.208,33.764z M41.09,30.225
		c0-0.281-0.211-0.492-0.633-0.633c-0.548-0.172-1.892-0.375-4.031-0.609c0.188,1.5,0.281,4.875,0.281,10.125v27.656
		c0,0.594-0.274,0.891-0.82,0.891c-1.11,0-3.063-0.156-5.859-0.469c-0.157-0.031-0.234,0.094-0.234,0.375
		c0,0.203,0.062,0.32,0.188,0.352c1.796,0.406,3.038,0.797,3.727,1.172c0.718,0.375,1.14,0.905,1.266,1.594
		c0.047,0.328,0.108,0.539,0.188,0.633c0.062,0.094,0.226,0.141,0.492,0.141c0.952,0,1.749-0.227,2.391-0.68
		c1.125-0.656,1.688-1.711,1.688-3.164l-0.188-19.711V31.514C40.575,31.061,41.09,30.631,41.09,30.225L41.09,30.225z M10.926,39.717
		h8.672c0.437,0,0.656-0.156,0.656-0.469c0-0.25-0.29-0.625-0.867-1.125c-1.172-1.016-1.884-1.523-2.133-1.523
		c-0.267,0-0.907,0.641-1.922,1.922h-4.406c-1.095,0-2.103-0.117-3.023-0.352l0.469,1.828C9.292,39.811,10.144,39.717,10.926,39.717
		L10.926,39.717z"/>
	<path fill="#083E00" d="M22.575,95.648c-0.298,0.141-2.821,1.375-7.57,3.703c-0.673,0.328-1.235,0.492-1.688,0.492
		c-0.079,0-0.157,0-0.234,0c-0.501-0.063-1.031-0.516-1.594-1.359c-0.298-0.422-0.524-0.633-0.68-0.633
		c-0.281,0-0.422,0.305-0.422,0.914c0,0.656,0.366,1.477,1.102,2.461c1.031,1.281,1.976,1.922,2.836,1.922
		c0.53,0,0.976-0.242,1.336-0.727c0.312-0.359,0.812-0.805,1.5-1.336c2.702-1.875,4.828-3.203,6.375-3.984
		c2.358-1.156,4.664-1.734,6.914-1.734c2.156,0,3.867,0.656,5.133,1.969c1.155,1.188,1.734,2.805,1.734,4.852
		c0,2.875-1.649,5.336-4.945,7.383c-2.845,1.734-6.556,2.906-11.133,3.516c-0.485,0.047-0.727,0.25-0.727,0.609
		c0,0.453,0.288,0.68,0.867,0.68c0.546,0,0.976-0.016,1.289-0.047c4.53-0.328,8.405-1.383,11.625-3.164c3.999-2.266,6-5.18,6-8.742
		c0-2.422-0.914-4.469-2.742-6.141c-1.828-1.734-4.212-2.602-7.148-2.602C28.074,93.679,25.464,94.335,22.575,95.648L22.575,95.648z
		"/>
	<path fill="#083E00" d="M32.747,140.918c-0.532,0.297-1.282,0.547-2.25,0.75l-20.836,5.32c-1.406,0.359-2.431,0.539-3.07,0.539
		c-0.609,0.016-1.148-0.094-1.617-0.328c-0.438-0.219-0.97-0.672-1.594-1.359c-0.281-0.281-0.492-0.422-0.633-0.422
		c-0.313,0-0.469,0.305-0.469,0.914c0,0.719,0.429,1.633,1.289,2.742c1.125,1.313,2.18,1.969,3.164,1.969
		c0.563,0,1.108-0.18,1.641-0.539c1.031-0.594,2.218-1.133,3.563-1.617c3.405-1.234,7.694-2.609,12.867-4.125l0.094,0.141
		c-2.578,1.438-4.664,3.359-6.258,5.766c-1.875,2.797-2.813,5.805-2.813,9.023c0,3.797,1.39,6.852,4.172,9.164
		c1.374,1.188,3.202,2.148,5.484,2.883c2.28,0.734,4.453,1.102,6.516,1.102c1.468,0,2.203-0.414,2.203-1.242
		c0-0.75-0.384-1.328-1.148-1.734c-0.876-0.469-2.095-0.742-3.656-0.82c-1.313-0.016-2.657-0.242-4.031-0.68
		c-1.72-0.547-3.157-1.313-4.313-2.297c-2.173-1.734-3.258-4.328-3.258-7.781c0-2.547,0.905-5.055,2.719-7.523
		c1.969-2.656,4.289-4.453,6.961-5.391c2.625-0.953,5.733-1.484,9.328-1.594c1.046-0.047,1.57-0.477,1.57-1.289
		c0-0.656-0.431-1.133-1.289-1.43c-1.001-0.422-1.915-0.633-2.742-0.633C33.761,140.426,33.23,140.59,32.747,140.918L32.747,140.918
		z"/>
	<path fill="#083E00" d="M28.879,201.156c1.89,1.063,3.577,2.625,5.063,4.688c1.655,2.297,2.484,4.313,2.484,6.047
		c0,0.5-0.243,0.789-0.727,0.867c-0.563,0.078-1.781,0.227-3.656,0.445c-0.485,0.047-0.727,0.188-0.727,0.422
		c0,0.375,0.211,0.586,0.633,0.633c1.421,0.172,2.461,0.375,3.117,0.609c0.687,0.25,1.219,0.633,1.594,1.148
		c0.296,0.422,0.71,0.633,1.242,0.633c1.219,0,1.828-1.055,1.828-3.164c0-2.531-0.891-4.992-2.672-7.383
		c-1.969-2.641-4.523-4.609-7.664-5.906c-0.157-0.078-0.313-0.117-0.469-0.117c-0.36,0-0.539,0.117-0.539,0.352
		C28.387,200.727,28.551,200.969,28.879,201.156L28.879,201.156z M14.911,222.274c0-0.563-0.103-1.063-0.305-1.5
		c-0.126-0.297-0.188-0.664-0.188-1.102c0-0.219,0.164-0.813,0.492-1.781c0.891-2.594,2.156-5.313,3.797-8.156
		c0.188-0.375,0.281-0.656,0.281-0.844c0-0.328-0.181-0.492-0.539-0.492c-0.313,0-0.579,0.18-0.797,0.539
		c-2.188,3.453-3.938,6.359-5.25,8.719c-0.281,0.516-0.603,0.773-0.961,0.773c-0.75,0-1.54-0.867-2.367-2.602
		c-0.86-1.844-1.289-4.578-1.289-8.203c0-2.719,0.179-4.609,0.539-5.672c0.296-0.859,0.445-1.547,0.445-2.063
		c0-1.063-0.75-2.227-2.25-3.492c-1.204-1.031-2.165-1.547-2.883-1.547c-0.454,0-0.68,0.141-0.68,0.422
		c0,0.141,0.147,0.352,0.445,0.633c0.797,0.75,1.343,1.43,1.641,2.039c0.312,0.641,0.469,1.5,0.469,2.578l-0.07,3.938
		c0,3.75,0.258,6.805,0.773,9.164c0.733,3.328,2.093,5.984,4.078,7.969c1.28,1.281,2.358,1.922,3.234,1.922
		C14.449,223.516,14.911,223.102,14.911,222.274L14.911,222.274z"/>
	<path fill="#083E00" d="M20.958,242.167c0,0.125,0.155,0.305,0.469,0.539c1.187,0.844,1.781,1.625,1.781,2.344
		c0,0.516-0.415,1.242-1.242,2.18c-3.204,3.516-6.516,7.352-9.938,11.508c-0.767,0.953-1.148,1.852-1.148,2.695
		c0,0.906,0.546,1.852,1.641,2.836c6.296,5.734,10.577,10.836,12.844,15.305c0.563,1.125,1.155,1.688,1.781,1.688
		c0.422,0,0.788-0.141,1.102-0.422c0.39-0.344,0.586-0.813,0.586-1.406c0-0.922-0.767-2.391-2.297-4.406
		c-2.829-3.656-7.024-7.805-12.586-12.445c-0.609-0.516-0.914-1.008-0.914-1.477c0-0.359,0.211-0.797,0.633-1.313
		c3.546-4.188,7.21-7.914,10.992-11.18c0.577-0.5,1.069-0.836,1.477-1.008c0.733-0.266,1.102-0.727,1.102-1.383
		c0-0.703-0.595-1.617-1.781-2.742c-1.282-1.219-2.461-1.828-3.539-1.828C21.277,241.652,20.958,241.823,20.958,242.167
		L20.958,242.167z"/>
	<path fill="#083E00" d="M20.02,321.778c0.968,0,1.688-0.063,2.156-0.188c0.733-0.156,1.102-0.594,1.102-1.313
		c0-0.859-0.75-1.258-2.25-1.195c-0.313,0.031-0.656,0.047-1.031,0.047c-0.813,0-1.673-0.047-2.578-0.141
		c0.952-5.672,2.147-11.422,3.586-17.25c0.249-0.969,0.554-1.578,0.914-1.828c0.422-0.25,0.633-0.648,0.633-1.195
		c0-0.844-0.501-1.703-1.5-2.578c-1.172-1.063-2.32-1.594-3.445-1.594c-0.407,0-0.806,0.086-1.195,0.258
		c-0.454,0.203-0.68,0.422-0.68,0.656c0,0.203,0.272,0.359,0.82,0.469c0.797,0.156,1.351,0.445,1.664,0.867
		c0.328,0.406,0.492,1.094,0.492,2.063c0,0.25-0.047,0.719-0.141,1.406c-0.047,0.359-0.079,0.648-0.094,0.867
		c-0.234,1.578-0.603,3.641-1.102,6.188c-0.267-0.75-1.055-1.18-2.367-1.289c-1.125-0.078-2.227-0.398-3.305-0.961
		c-1.313-0.688-2.306-1.5-2.977-2.438c-0.328-0.453-0.586-0.68-0.773-0.68c-0.251,0-0.375,0.195-0.375,0.586
		c0,0.781,0.429,1.672,1.289,2.672c0.905,1.078,2.156,1.945,3.75,2.602c-2.782,2.297-4.172,4.531-4.172,6.703
		c0,1.703,0.499,3.07,1.5,4.102c0.952,0.969,2.625,1.844,5.016,2.625c-0.126,1.188-0.188,2.484-0.188,3.891
		c0,2.797,0.733,4.953,2.203,6.469c1.453,1.484,3.452,2.227,6,2.227c2.546,0,4.781-0.703,6.703-2.109
		c2.391-1.766,3.586-4.117,3.586-7.055c0-2.219-0.665-4.477-1.992-6.773c-1.453-2.516-3.384-4.602-5.789-6.258
		c-0.375-0.25-0.609-0.375-0.703-0.375c-0.454,0-0.68,0.18-0.68,0.539c0,0.219,0.124,0.453,0.375,0.703
		c3.874,3.875,5.813,7.797,5.813,11.766c0,2.078-0.626,3.82-1.875,5.227c-1.438,1.578-3.313,2.367-5.625,2.367
		c-4.063,0-6.094-2.117-6.094-6.352c0-1.422,0.062-2.75,0.188-3.984C17.958,321.692,19.003,321.778,20.02,321.778L20.02,321.778z
		 M9.825,314.324c0-1.578,1.038-3.094,3.117-4.547c0.858-0.609,1.772-0.945,2.742-1.008c0.75,0,1.249-0.148,1.5-0.445
		c-0.548,2.891-1.125,6.344-1.734,10.359C11.7,318.012,9.825,316.559,9.825,314.324L9.825,314.324z"/>
	<path fill="#083E00" d="M21.684,354.672c0.452,0,0.882,0.016,1.289,0.047c3.469,0.172,6.343,1.234,8.625,3.188
		c2.702,2.313,4.055,5.391,4.055,9.234c0,4.016-1.649,7.375-4.945,10.078c-3.079,2.516-7.165,4.211-12.258,5.086
		c-0.548,0.125-0.82,0.383-0.82,0.773c0,0.359,0.234,0.539,0.703,0.539c0.03,0,0.07,0,0.117,0c5.046-0.281,9.405-1.531,13.078-3.75
		c4.858-2.922,7.289-6.891,7.289-11.906c0-4.047-1.345-7.445-4.031-10.195c-3.11-3.188-7.242-4.781-12.398-4.781
		c-5.595,0-10.235,1.727-13.922,5.18c-3.485,3.281-5.227,7.25-5.227,11.906c0,2.438,0.563,4.547,1.688,6.328
		c1.108,1.672,2.391,2.508,3.844,2.508c1.406,0,2.983-1.07,4.734-3.211c2.953-3.734,5.257-7.977,6.914-12.727
		c0.609-1.953,0.914-3.523,0.914-4.711c0-1.359-0.321-2.539-0.961-3.539C20.777,354.688,21.215,354.672,21.684,354.672
		L21.684,354.672z M19.458,356.922c0,1-0.228,2.148-0.68,3.445c-1.485,4.531-3.688,8.727-6.609,12.586
		c-1.406,1.859-2.531,2.789-3.375,2.789c-0.907,0-1.657-0.547-2.25-1.641c-0.767-1.484-1.148-3.102-1.148-4.852
		c0-3.688,1.296-6.852,3.891-9.492c2.531-2.594,5.733-4.211,9.609-4.852C19.27,355.281,19.458,355.953,19.458,356.922
		L19.458,356.922z"/>
</g>
</svg>
