<?xml version="1.0" encoding="utf-8"?>
<!-- Generator: Adobe Illustrator 14.0.0, SVG Export Plug-In . SVG Version: 6.00 Build 43363)  -->
<!DOCTYPE svg PUBLIC "-//W3C//DTD SVG 1.1 Basic//EN" "http://www.w3.org/Graphics/SVG/1.1/DTD/svg11-basic.dtd">
<svg version="1.1" baseProfile="basic" id="レイヤー_3"
	 xmlns="http://www.w3.org/2000/svg" xmlns:xlink="http://www.w3.org/1999/xlink" x="0px" y="0px" width="288.234px"
	 height="357.297px" viewBox="-0.504 26.979 288.234 357.297" xml:space="preserve">
<g>
	<path fill="#083E00" d="M255.316,32.346c-1.406-0.875-2.648-1.531-3.727-1.969c0.188,1.704,0.281,5.414,0.281,11.133
		c0,2.969-0.094,5.563-0.281,7.781c-1.688,0.984-3.773,1.898-6.258,2.742c-0.656,0.234-1.273,0.391-1.852,0.469
		c1.094,2.75,1.859,4.125,2.297,4.125c0.391,0,0.633-0.656,0.727-1.969c1.906-1.297,3.555-2.593,4.945-3.891
		c-0.156,1.75-0.461,3.719-0.914,5.906c-0.922,4.266-2.945,8.5-6.07,12.703c-0.016,0.031-0.023,0.063-0.023,0.094
		c0,0.266,0.156,0.398,0.469,0.398c0.047,0,0.094-0.016,0.141-0.047c4.094-4.046,6.75-8.227,7.969-12.539
		c1.219-4.297,1.828-10.226,1.828-17.789v-5.953h32.203c0.453,0,0.68-0.156,0.68-0.469c0-0.296-0.352-0.727-1.055-1.289
		c-1.453-1.156-2.32-1.734-2.602-1.734c-0.234,0-1.016,0.766-2.344,2.297h-11.484v-2.789c1.063-0.453,1.594-0.867,1.594-1.242
		c0-0.266-0.227-0.484-0.68-0.656c-0.641-0.218-2-0.445-4.078-0.68c0.125,1.204,0.188,2.29,0.188,3.258v2.109H255.316z
		 M281.496,60.283v6.281c0,0.531-0.273,0.797-0.82,0.797c-0.969,0-2.492-0.086-4.57-0.258c-0.156,0-0.234,0.11-0.234,0.328
		c0,0.172,0.063,0.273,0.188,0.305c1.453,0.281,2.461,0.57,3.023,0.867c0.563,0.313,0.883,0.773,0.961,1.383
		c0.078,0.547,0.289,0.82,0.633,0.82c0.844,0,1.594-0.211,2.25-0.633c1.031-0.625,1.547-1.531,1.547-2.719l-0.188-13.43v-5.977
		c0.797-0.5,1.195-0.929,1.195-1.289c0-0.296-0.258-0.664-0.773-1.102c-1.016-0.844-1.641-1.266-1.875-1.266
		c-0.203,0-0.758,0.516-1.664,1.547h-7.688c0.125-0.266,0.188-0.507,0.188-0.727c0-0.406-0.125-0.844-0.375-1.313
		c3.063-1.39,5.641-2.875,7.734-4.453c1.406-0.141,2.109-0.382,2.109-0.727c0-0.296-0.242-0.648-0.727-1.055
		c-1.266-1.109-2.016-1.664-2.25-1.664c-0.188,0-0.75,0.445-1.688,1.336h-16.289c-1.406,0-2.766-0.094-4.078-0.281l0.492,1.805
		c1-0.218,2.195-0.328,3.586-0.328h15.914c-1.734,1.86-3.531,3.43-5.391,4.711c-1.313-1.266-3.492-2.164-6.539-2.695
		c-0.188-0.031-0.281,0.055-0.281,0.258c0,0.079,0.031,0.133,0.094,0.164c2.203,1.359,3.852,2.953,4.945,4.781l0.117,0.188h-9.773
		c-1.141-0.641-2.258-1.187-3.352-1.641c0.125,1.625,0.188,6.109,0.188,13.453l-0.234,12.141c0,0.734,0.414,1.102,1.242,1.102
		c1.188,0,1.781-0.469,1.781-1.406v-9.305h8.789v0.094l-0.188,8.93c0,0.734,0.43,1.102,1.289,1.102c1.188,0,1.781-0.445,1.781-1.336
		c0-0.219-0.023-1.141-0.07-2.766c-0.063-2.156-0.102-4.164-0.117-6.023H281.496z M281.496,47.135v5.367h-9.117v-5.367H281.496z
		 M269.683,52.502h-8.789v-5.367h8.789V52.502z M260.894,59.088v-5.391h8.789v5.391H260.894z M272.378,53.698h9.117v5.391h-9.117
		V53.698z M246.785,44.088c0.109,1,0.492,1.5,1.148,1.5c0.469,0,0.867-0.172,1.195-0.516c0.391-0.437,0.586-1.055,0.586-1.852
		c0-0.844-0.352-1.789-1.055-2.836c-0.844-1.25-2-2.335-3.469-3.258c-0.047-0.031-0.094-0.047-0.141-0.047
		c-0.219,0-0.328,0.086-0.328,0.258c0,0.032,0.016,0.063,0.047,0.094C245.816,39.026,246.488,41.245,246.785,44.088L246.785,44.088z
		"/>
	<path fill="#083E00" d="M278.355,100.213c0.109-0.359,0.367-0.742,0.773-1.148c0.344-0.359,0.516-0.695,0.516-1.008
		c0-0.718-0.563-1.531-1.688-2.438c-1.391-1.093-2.633-1.641-3.727-1.641c-0.703,0-1.055,0.227-1.055,0.68
		c0,0.141,0.141,0.281,0.422,0.422c1.531,0.688,2.297,1.617,2.297,2.789c0,1.438-0.445,3.656-1.336,6.656
		c-3.641-1.515-7.781-2.429-12.422-2.742c0.438-0.859,1.664-3.46,3.68-7.805c1.766-3.781,2.875-6.039,3.328-6.773
		c0.406-0.469,0.609-0.875,0.609-1.219c0-0.469-0.383-0.914-1.148-1.336c-0.828-0.516-1.516-0.773-2.063-0.773
		c-0.297,0-0.602,0.18-0.914,0.539c-0.422,0.469-0.883,0.79-1.383,0.961c-3.016,0.954-5.227,1.43-6.633,1.43
		c-0.719,0-1.422-0.656-2.109-1.969c-0.156-0.313-0.313-0.469-0.469-0.469s-0.289,0.125-0.398,0.375
		c-0.125,0.266-0.188,0.571-0.188,0.914c0,0.531,0.305,1.368,0.914,2.508c0.609,1.016,1.25,1.523,1.922,1.523
		c0.344,0,0.625-0.094,0.844-0.281c0.375-0.296,1.063-0.609,2.063-0.938c1.75-0.609,3.461-1.125,5.133-1.547
		c0.078-0.015,0.164-0.023,0.258-0.023c0.188,0,0.281,0.079,0.281,0.234c0,0.079-0.016,0.172-0.047,0.281
		c-1.438,4.297-3.422,9.102-5.953,14.414c-3.391,0.063-6.398,1.063-9.023,3c-2.172,1.579-3.258,3.445-3.258,5.602
		c0,1.141,0.305,2.031,0.914,2.672c0.609,0.656,1.391,0.984,2.344,0.984c1.391,0,2.672-0.414,3.844-1.242
		c1.734-1.187,3.945-4.297,6.633-9.328c4.641,0.328,8.766,1.398,12.375,3.211c-1.266,3.109-2.68,5.664-4.242,7.664
		c-1.797,2.297-4.203,4.375-7.219,6.234c-0.422,0.25-0.633,0.453-0.633,0.609s0.055,0.313,0.164,0.469
		c0.109,0.172,0.234,0.258,0.375,0.258c0.25,0,0.438-0.031,0.563-0.094c5.906-2.516,10.375-7.18,13.406-13.992
		c2.547,1.313,4.656,2.672,6.328,4.078c0.656,0.547,1.219,0.82,1.688,0.82c0.297,0,0.563-0.117,0.797-0.352
		c0.328-0.281,0.492-0.671,0.492-1.172c0-0.688-0.398-1.406-1.195-2.156c-1.25-1.078-3.656-2.344-7.219-3.797
		C277.199,104.611,277.652,102.916,278.355,100.213L278.355,100.213z M254.964,109.541c-1.438,1.438-2.68,2.156-3.727,2.156
		c-1.063,0-1.594-0.625-1.594-1.875c0-1.468,0.781-2.813,2.344-4.031c1.766-1.375,4.117-2.117,7.055-2.227
		C257.667,106.205,256.308,108.197,254.964,109.541L254.964,109.541z"/>
	<path fill="#083E00" d="M253.628,164.868c0,2.719,1.211,4.688,3.633,5.906c2.141,1.063,5.414,1.594,9.82,1.594
		c3.563,0,6.422-0.164,8.578-0.492c0.984-0.125,1.664-0.289,2.039-0.492c0.438-0.219,0.656-0.586,0.656-1.102
		s-0.289-0.961-0.867-1.336c-0.625-0.422-1.344-0.633-2.156-0.633c-0.438,0-0.969,0.102-1.594,0.305
		c-2.188,0.672-5.227,1.008-9.117,1.008c-6.016,0-9.023-1.695-9.023-5.086c0-1.796,0.859-3.461,2.578-4.992
		c1.344-1.187,3.813-2.68,7.406-4.477c1.797-0.891,5.102-2.203,9.914-3.938c1-0.359,1.5-0.805,1.5-1.336
		c0-0.547-0.43-1.281-1.289-2.203c-1.281-1.281-2.508-1.922-3.68-1.922c-0.578,0-0.867,0.141-0.867,0.422
		c0,0.219,0.125,0.414,0.375,0.586c0.984,0.672,1.477,1.234,1.477,1.688c0,0.297-0.336,0.641-1.008,1.031
		c-1.906,1.109-3.945,2.18-6.117,3.211c-0.453,0.203-0.836,0.305-1.148,0.305c-0.047,0-0.094,0-0.141,0
		c-0.672-0.047-1.07-0.671-1.195-1.875c-0.172-2.156-0.258-4.281-0.258-6.375c0-1.094,0.016-2.219,0.047-3.375
		c0-0.406,0.109-0.773,0.328-1.102c0.344-0.453,0.516-0.82,0.516-1.102c0-0.516-0.32-1.039-0.961-1.57
		c-1.328-1.093-2.57-1.641-3.727-1.641c-0.422,0-0.844,0.102-1.266,0.305c-0.5,0.25-0.75,0.516-0.75,0.797
		c0,0.219,0.078,0.328,0.234,0.328c0.781,0.047,1.5,0.32,2.156,0.82c0.406,0.281,0.633,0.891,0.68,1.828
		c0.156,4.297,0.328,7.625,0.516,9.984c0.188,2.188,0.891,3.594,2.109,4.219C256.761,157.361,253.628,160.931,253.628,164.868
		L253.628,164.868z"/>
	<path fill="#083E00" d="M177.886,39.311v-8.93c1.156-0.5,1.734-0.914,1.734-1.242c0-0.296-0.234-0.523-0.703-0.68
		c-0.625-0.203-2.023-0.422-4.195-0.656c0.156,1.172,0.234,3.829,0.234,7.969v3.539h-6.82c-0.984,0-2.148-0.109-3.492-0.328
		l0.469,1.758c1.047-0.156,2.055-0.234,3.023-0.234h6.82v13.359h-8.742c-1.297,0-2.523-0.109-3.68-0.328l0.469,1.805
		c1.297-0.188,2.367-0.281,3.211-0.281h38.789c0.422,0,0.633-0.156,0.633-0.469c0-0.312-0.367-0.765-1.102-1.359
		c-1.609-1.343-2.539-2.016-2.789-2.016s-1.133,0.883-2.648,2.648h-7.148V40.507h11.086c0.453,0,0.68-0.156,0.68-0.469
		c0-0.313-0.352-0.75-1.055-1.313c-1.609-1.343-2.539-2.016-2.789-2.016c-0.234,0-1.055,0.867-2.461,2.602h-5.461v-8.93
		c1.125-0.469,1.688-0.898,1.688-1.289c0-0.265-0.234-0.477-0.703-0.633c-0.641-0.203-2.039-0.422-4.195-0.656
		c0.125,1.172,0.188,3.805,0.188,7.898v3.609H177.886z M177.886,53.866V40.507h11.039v13.359H177.886z M197.386,68.21
		c0.781,1.438,1.594,2.156,2.438,2.156c0.422,0,0.773-0.172,1.055-0.516c0.328-0.375,0.492-0.844,0.492-1.406
		c0-1.578-1.094-3.281-3.281-5.109c-2.609-2.171-5.992-3.882-10.148-5.133c-0.031-0.015-0.055-0.023-0.07-0.023
		c-0.219,0-0.328,0.125-0.328,0.375c0,0.094,0.031,0.164,0.094,0.211C192.246,61.64,195.496,64.788,197.386,68.21L197.386,68.21z
		 M178.332,61.014c0.266,0.032,0.516,0.047,0.75,0.047c0.969,0,1.453-0.218,1.453-0.656c0-0.281-0.211-0.563-0.633-0.844
		c-0.484-0.312-1.664-0.921-3.539-1.828c-0.5,1.219-1.398,2.57-2.695,4.055c-3.203,3.688-6.742,6.547-10.617,8.578
		c-0.063,0.031-0.094,0.094-0.094,0.188c0,0.297,0.125,0.445,0.375,0.445c0.016,0,0.039,0,0.07,0
		C169.48,69.03,174.457,65.702,178.332,61.014L178.332,61.014z"/>
	<path fill="#083E00" d="M185.48,95.818c-0.188,0.25-0.281,0.477-0.281,0.68c0,0.25,0.172,0.375,0.516,0.375
		c0.172,0,0.383-0.125,0.633-0.375c1.984-1.843,3.453-3.008,4.406-3.492c0.938-0.516,1.93-0.773,2.977-0.773l3.375,0.141
		c0.984,0,1.477-0.43,1.477-1.289c0-1.219-1.281-1.828-3.844-1.828c-5.281,0-9.773,1.172-13.477,3.516
		c-0.391,0.234-0.586,0.508-0.586,0.82c0,0.313,0.18,0.469,0.539,0.469c0.125,0,0.313-0.062,0.563-0.188
		c2.719-1.203,5.07-1.945,7.055-2.227c0.047,0,0.086,0,0.117,0c0.125,0,0.188,0.032,0.188,0.094c0,0.063-0.047,0.149-0.141,0.258
		C187.746,93.185,186.574,94.459,185.48,95.818L185.48,95.818z M180.816,103.318c-0.594,1.375-0.891,2.774-0.891,4.195
		c0,2.578,0.898,4.563,2.695,5.953c2.047,1.656,5.625,2.484,10.734,2.484c3.109,0,5.383-0.211,6.82-0.633
		c0.828-0.25,1.242-0.711,1.242-1.383c0-1.063-0.961-1.594-2.883-1.594c-0.688,0-1.328,0.079-1.922,0.234
		c-1.609,0.391-3.477,0.586-5.602,0.586c-3.219,0-5.672-0.547-7.359-1.641c-1.531-1.031-2.297-2.64-2.297-4.828
		c0-0.859,0.117-1.898,0.352-3.117c0.016-0.094,0.023-0.164,0.023-0.211c0-0.281-0.133-0.422-0.398-0.422
		C181.113,102.943,180.941,103.069,180.816,103.318L180.816,103.318z M171.371,111.474c-0.094,0.266-0.234,0.398-0.422,0.398
		c-0.172,0-0.305-0.226-0.398-0.68c-0.188-0.906-0.281-2.156-0.281-3.75c0-1.937,0.242-4.133,0.727-6.586
		c0.484-2.5,1.055-4.594,1.711-6.281c0.297-0.765,0.602-1.304,0.914-1.617c0.453-0.453,0.68-1.063,0.68-1.828
		c0-1.078-0.398-2.133-1.195-3.164c-1.297-1.703-2.406-2.555-3.328-2.555c-0.281,0-0.422,0.141-0.422,0.422
		c0,0.234,0.125,0.477,0.375,0.727c1,1,1.5,2.024,1.5,3.07c0,0.516-0.227,1.641-0.68,3.375c-1.531,5.797-2.297,10.579-2.297,14.344
		c0,3.578,0.563,6.75,1.688,9.516c0.484,1.157,1.109,1.734,1.875,1.734c0.703,0,1.055-0.414,1.055-1.242l-0.164-2.742
		c0-0.547,0.211-1.648,0.633-3.305c0.578-2.406,1.383-5.32,2.414-8.742c0.063-0.25,0.094-0.414,0.094-0.492
		c0-0.281-0.18-0.422-0.539-0.422c-0.281,0-0.492,0.188-0.633,0.563C174.019,103.951,172.917,107.037,171.371,111.474
		L171.371,111.474z"/>
	<path fill="#083E00" d="M191.878,147.356c1.891,1.063,3.578,2.625,5.063,4.688c1.656,2.297,2.484,4.313,2.484,6.047
		c0,0.5-0.242,0.789-0.727,0.867c-0.563,0.079-1.781,0.227-3.656,0.445c-0.484,0.047-0.727,0.188-0.727,0.422
		c0,0.375,0.211,0.586,0.633,0.633c1.422,0.172,2.461,0.375,3.117,0.609c0.688,0.25,1.219,0.633,1.594,1.148
		c0.297,0.422,0.711,0.633,1.242,0.633c1.219,0,1.828-1.055,1.828-3.164c0-2.531-0.891-4.992-2.672-7.383
		c-1.969-2.64-4.523-4.609-7.664-5.906c-0.156-0.078-0.313-0.117-0.469-0.117c-0.359,0-0.539,0.117-0.539,0.352
		C191.386,146.927,191.55,147.169,191.878,147.356L191.878,147.356z M177.91,168.473c0-0.563-0.102-1.063-0.305-1.5
		c-0.125-0.296-0.188-0.664-0.188-1.102c0-0.219,0.164-0.812,0.492-1.781c0.891-2.593,2.156-5.312,3.797-8.156
		c0.188-0.375,0.281-0.656,0.281-0.844c0-0.328-0.18-0.492-0.539-0.492c-0.313,0-0.578,0.18-0.797,0.539
		c-2.188,3.454-3.938,6.36-5.25,8.719c-0.281,0.516-0.602,0.773-0.961,0.773c-0.75,0-1.539-0.867-2.367-2.602
		c-0.859-1.843-1.289-4.578-1.289-8.203c0-2.719,0.18-4.609,0.539-5.672c0.297-0.859,0.445-1.547,0.445-2.063
		c0-1.063-0.75-2.227-2.25-3.492c-1.203-1.031-2.164-1.547-2.883-1.547c-0.453,0-0.68,0.141-0.68,0.422
		c0,0.141,0.148,0.352,0.445,0.633c0.797,0.75,1.344,1.43,1.641,2.039c0.313,0.641,0.469,1.5,0.469,2.578l-0.07,3.938
		c0,3.75,0.258,6.805,0.773,9.164c0.734,3.328,2.094,5.985,4.078,7.969c1.281,1.281,2.359,1.922,3.234,1.922
		C177.449,169.716,177.91,169.302,177.91,168.473L177.91,168.473z"/>
	<path fill="#083E00" d="M186.019,219.83c-1.672-1.703-3.609-2.555-5.813-2.555c-1.234,0-2.258,0.305-3.07,0.914
		c-0.953,0.703-1.43,1.664-1.43,2.883c0,1.406,0.695,2.586,2.086,3.539c1.672,1.125,3.984,1.688,6.938,1.688
		c3.219,0,6.039-0.836,8.461-2.508c3.031-2.094,4.547-4.922,4.547-8.484c0-2.344-0.695-4.352-2.086-6.023
		c-1.906-2.297-4.797-3.445-8.672-3.445c-3.141,0-6.5,1.234-10.078,3.703l-0.094-0.047c7.984-8.906,12.102-13.484,12.352-13.734
		c0.938-0.953,1.734-1.516,2.391-1.688c0.609-0.156,0.914-0.492,0.914-1.008c0-0.64-0.547-1.328-1.641-2.063
		c-0.953-0.703-1.734-1.054-2.344-1.054c-0.391,0-0.727,0.14-1.008,0.421c-0.391,0.391-0.789,0.649-1.195,0.774
		c-2.922,0.859-5.07,1.445-6.445,1.757c-1.188,0.25-2.094,0.375-2.719,0.375c-0.781,0-1.555-0.5-2.32-1.5
		c-0.313-0.422-0.586-0.632-0.82-0.632c-0.281,0-0.422,0.257-0.422,0.773c0,0.86,0.43,1.821,1.289,2.883
		c0.922,1.125,1.82,1.688,2.695,1.688c0.313,0,0.711-0.211,1.195-0.633c0.219-0.188,0.633-0.398,1.242-0.633
		c2.531-0.968,5.109-1.89,7.734-2.765c0.141-0.047,0.258-0.07,0.352-0.07c0.156,0,0.234,0.055,0.234,0.164
		c0,0.079-0.055,0.196-0.164,0.352c-4.859,6.422-10.664,13.211-17.414,20.367c-0.641,0.703-0.961,1.313-0.961,1.828
		c0,0.406,0.156,0.758,0.469,1.055c0.328,0.328,0.703,0.492,1.125,0.492c0.5,0,0.883-0.18,1.148-0.539
		c1.313-1.672,2.43-2.93,3.352-3.773c3.672-3.297,7.461-4.945,11.367-4.945c1.891,0,3.5,0.508,4.828,1.523
		c1.813,1.391,2.719,3.477,2.719,6.258c0,1.563-0.523,3.094-1.57,4.594c-1.266,1.813-2.922,3.031-4.969,3.656
		C187.878,222.182,187.144,220.987,186.019,219.83L186.019,219.83z M183.769,224.096c-2.016,0-3.617-0.328-4.805-0.984
		c-1.141-0.641-1.711-1.406-1.711-2.297c0-0.563,0.18-1.031,0.539-1.406c0.453-0.5,1.133-0.75,2.039-0.75
		c1.016,0,2.07,0.461,3.164,1.383c1.297,1.078,2.164,2.359,2.602,3.844C185.207,224.026,184.597,224.096,183.769,224.096
		L183.769,224.096z"/>
	<path fill="#083E00" d="M198.488,264.323v1.781c0,0.734,0.43,1.102,1.289,1.102c1.281,0,1.922-0.43,1.922-1.289l-0.141-10.242
		v-3.938c0.922-0.594,1.383-1.039,1.383-1.336s-0.273-0.68-0.82-1.148c-1.125-0.969-1.828-1.453-2.109-1.453
		c-0.25,0-0.867,0.563-1.852,1.688h-12.961v-8.156c1.125-0.5,1.688-0.93,1.688-1.289c0-0.328-0.234-0.563-0.703-0.703
		c-0.547-0.156-1.992-0.359-4.336-0.609c0.156,1.703,0.25,5.289,0.281,10.758h-12.258c-0.688-0.453-1.914-1.094-3.68-1.922
		c0.156,1.594,0.234,4.445,0.234,8.555l-0.188,10.453c0,0.734,0.43,1.102,1.289,1.102c1.281,0,1.922-0.43,1.922-1.289v-2.063h12.68
		c-0.016,5.703-0.078,10.461-0.188,14.273c-0.031,1.28-0.047,1.983-0.047,2.109c0,0.797,0.477,1.195,1.43,1.195
		c1.375,0,2.063-0.492,2.063-1.477c0-0.203-0.008-0.555-0.023-1.055c-0.031-1.484-0.047-2.367-0.047-2.648
		c-0.063-3.344-0.102-7.477-0.117-12.398H198.488z M185.199,250.682h13.289v12.445h-13.289V250.682z M169.449,263.127v-12.445h12.68
		v12.445H169.449z"/>
	<path fill="#083E00" d="M197.925,306.19c0,0.234,0.063,0.391,0.188,0.469c1.781,1.078,3.094,2.367,3.938,3.867
		c0.516,0.859,1.039,1.289,1.57,1.289c0.313,0,0.574-0.125,0.785-0.375s0.316-0.555,0.316-0.914c0-1.063-0.719-2.094-2.156-3.094
		c-1.094-0.75-2.227-1.281-3.398-1.594c-0.328-0.094-0.586-0.141-0.773-0.141C198.082,305.698,197.925,305.862,197.925,306.19
		L197.925,306.19z M193.847,309.19c0,0.188,0.094,0.352,0.281,0.492c1.641,1.203,2.828,2.5,3.563,3.891
		c0.547,1.047,1.07,1.57,1.57,1.57c0.797,0,1.195-0.461,1.195-1.383c0-0.969-0.688-2.008-2.063-3.117
		c-0.922-0.766-2.102-1.406-3.539-1.922c-0.094-0.031-0.258-0.047-0.492-0.047C194.019,308.674,193.847,308.846,193.847,309.19
		L193.847,309.19z M195.746,298.455c-0.531,0.297-1.281,0.547-2.25,0.75c-2.359,0.609-5.734,1.477-10.125,2.602
		c-4.969,1.266-8.539,2.172-10.711,2.719c-1.406,0.359-2.43,0.539-3.07,0.539c-0.609,0.016-1.148-0.094-1.617-0.328
		c-0.438-0.219-0.969-0.672-1.594-1.359c-0.281-0.281-0.492-0.422-0.633-0.422c-0.313,0-0.469,0.305-0.469,0.914
		c0,0.719,0.43,1.633,1.289,2.742c1.125,1.313,2.18,1.969,3.164,1.969c0.563,0,1.109-0.18,1.641-0.539
		c1.031-0.594,2.219-1.133,3.563-1.617c3.375-1.219,7.664-2.594,12.867-4.125l0.094,0.141c-2.578,1.438-4.664,3.359-6.258,5.766
		c-1.875,2.797-2.813,5.805-2.813,9.023c0,3.797,1.391,6.852,4.172,9.164c1.375,1.188,3.203,2.148,5.484,2.883
		s4.453,1.102,6.516,1.102c1.469,0,2.203-0.414,2.203-1.242c0-0.75-0.383-1.328-1.148-1.734c-0.875-0.469-2.094-0.742-3.656-0.82
		c-1.313-0.016-2.656-0.242-4.031-0.68c-1.719-0.547-3.156-1.313-4.313-2.297c-2.172-1.734-3.258-4.328-3.258-7.781
		c0-2.547,0.906-5.055,2.719-7.523c1.969-2.672,4.289-4.469,6.961-5.391c2.625-0.953,5.734-1.484,9.328-1.594
		c1.047-0.047,1.57-0.477,1.57-1.289c0-0.656-0.43-1.133-1.289-1.43c-1-0.422-1.914-0.633-2.742-0.633
		C196.761,297.963,196.23,298.127,195.746,298.455L195.746,298.455z"/>
	<path fill="#083E00" d="M193.988,345.772c3.328,1.875,5.797,4.664,7.406,8.367c0.516,1.156,1.25,1.734,2.203,1.734
		c0.547,0,1.008-0.195,1.383-0.586c0.453-0.469,0.68-1.07,0.68-1.805c0-1.688-1.055-3.391-3.164-5.109
		c-2.109-1.688-4.734-2.891-7.875-3.609c-0.094-0.016-0.195-0.023-0.305-0.023c-0.469,0-0.703,0.141-0.703,0.422
		C193.613,345.428,193.738,345.631,193.988,345.772L193.988,345.772z"/>
	<path fill="#083E00" d="M116.301,29.05c0,0.234,0.063,0.398,0.188,0.492c1.781,1.078,3.094,2.36,3.938,3.844
		c0.531,0.859,1.063,1.289,1.594,1.289c0.266,0,0.5-0.101,0.703-0.305c0.266-0.25,0.398-0.578,0.398-0.984
		c0-1.046-0.719-2.07-2.156-3.07c-1.094-0.75-2.234-1.281-3.422-1.594c-0.328-0.094-0.586-0.141-0.773-0.141
		C116.457,28.581,116.301,28.738,116.301,29.05L116.301,29.05z M112.223,32.073c0,0.188,0.094,0.352,0.281,0.492
		c1.656,1.204,2.844,2.5,3.563,3.891c0.547,1.047,1.078,1.57,1.594,1.57c0.797,0,1.195-0.46,1.195-1.383
		c0-0.969-0.688-2.007-2.063-3.117c-0.922-0.765-2.109-1.406-3.563-1.922c-0.094-0.031-0.25-0.047-0.469-0.047
		C112.402,31.558,112.223,31.73,112.223,32.073L112.223,32.073z M96.191,40.488c0.469,0.672,0.969,1.008,1.5,1.008
		c0.422,0,0.789-0.141,1.102-0.422c0.406-0.343,0.609-0.812,0.609-1.406c0-1.219-0.961-2.367-2.883-3.445
		c-1.781-1.031-3.328-1.547-4.641-1.547c-0.484,0-0.727,0.164-0.727,0.492c0,0.188,0.125,0.383,0.375,0.586
		C93.496,37.128,95.051,38.706,96.191,40.488L96.191,40.488z M90.73,61.019c-0.516-0.422-0.922-0.859-1.219-1.313
		c-0.281-0.484-0.547-0.727-0.797-0.727c-0.328,0-0.492,0.415-0.492,1.242c0,1.125,0.609,2.32,1.828,3.586
		c1.188,1.25,2.133,1.875,2.836,1.875c0.563,0,1.039-0.32,1.43-0.961c0.25-0.375,0.57-0.68,0.961-0.914
		c5.25-3.281,9.859-6.601,13.828-9.961c4.625-3.953,7.984-7.437,10.078-10.453c0.359-0.5,0.539-0.835,0.539-1.008
		c0-0.156-0.078-0.296-0.234-0.422c-0.156-0.141-0.32-0.211-0.492-0.211c-0.125,0-0.461,0.305-1.008,0.914
		c-2.859,3-6.188,5.985-9.984,8.953c-4.766,3.703-9.469,6.79-14.109,9.258c-0.891,0.484-1.547,0.727-1.969,0.727
		C91.613,61.605,91.215,61.41,90.73,61.019L90.73,61.019z M90.238,49.511c0.656,0.922,1.281,1.383,1.875,1.383
		c1.125,0,1.688-0.641,1.688-1.922c0-1.266-1.133-2.398-3.398-3.398c-1.672-0.734-3.18-1.102-4.523-1.102
		c-0.484,0-0.727,0.156-0.727,0.469c0,0.297,0.156,0.524,0.469,0.68C87.527,46.636,89.066,47.933,90.238,49.511L90.238,49.511z"/>
	<path fill="#083E00" d="M104.676,92.621c-0.094-0.5-0.141-0.836-0.141-1.008c0-0.234,0.102-0.477,0.305-0.727
		c0.188-0.25,0.281-0.508,0.281-0.773c0-0.406-0.398-0.82-1.195-1.242c-1.328-0.703-2.32-1.055-2.977-1.055
		c-0.453,0-0.945,0.156-1.477,0.469c-0.516,0.344-0.773,0.656-0.773,0.938c0,0.156,0.172,0.234,0.516,0.234
		c1.047,0,1.734,0.141,2.063,0.422c0.281,0.203,0.555,0.828,0.82,1.875c0.391,1.297,0.82,3.063,1.289,5.297
		c-2.188,0.656-4.438,1.313-6.75,1.969c-1,0.25-1.867,0.375-2.602,0.375c-0.609,0-1.266-0.43-1.969-1.289
		c-0.203-0.297-0.398-0.445-0.586-0.445c-0.281,0-0.422,0.336-0.422,1.008c0,0.719,0.492,1.539,1.477,2.461
		c0.906,0.859,1.711,1.289,2.414,1.289c0.375,0,0.664-0.125,0.867-0.375c0.219-0.313,0.727-0.617,1.523-0.914
		c1.344-0.516,3.523-1.258,6.539-2.227c0.406,1.875,0.664,3.016,0.773,3.422c0.266,1.172,1.141,5.266,2.625,12.281
		c0.156,0.859,0.703,1.289,1.641,1.289c0.281,0,0.523-0.117,0.727-0.352c0.219-0.25,0.328-0.531,0.328-0.844
		c0-0.25-0.109-0.875-0.328-1.875c-0.578-2-1.539-5.664-2.883-10.992c-0.531-2.281-0.805-3.461-0.82-3.539
		c4.766-1.5,8.352-2.539,10.758-3.117c0.156,0,0.234,0.063,0.234,0.188c-1.703,2.531-3.883,5.125-6.539,7.781
		c-0.219,0.219-0.328,0.43-0.328,0.633c0,0.281,0.156,0.422,0.469,0.422c0.172,0,0.367-0.078,0.586-0.234
		c2.453-1.906,5-4.211,7.641-6.914c0.344-0.359,0.82-0.539,1.43-0.539c0.672,0,1.008-0.273,1.008-0.82
		c0-0.484-0.461-1.141-1.383-1.969s-1.664-1.242-2.227-1.242c-0.328,0-0.664,0.195-1.008,0.586c-0.359,0.406-0.758,0.656-1.195,0.75
		c-2.672,0.688-5.969,1.586-9.891,2.695C105.137,94.949,104.863,93.653,104.676,92.621L104.676,92.621z"/>
	<path fill="#083E00" d="M90.238,164.199c-0.25-0.25-0.461-0.375-0.633-0.375c-0.281,0-0.422,0.32-0.422,0.961
		c0,0.797,0.656,1.852,1.969,3.164c1.266,1.219,2.305,1.828,3.117,1.828c0.563,0,0.977-0.273,1.242-0.82
		c0.156-0.391,0.555-0.82,1.195-1.289c5.063-3.812,9.156-7.289,12.281-10.43c4.328-4.266,7.789-8.539,10.383-12.82
		c0.188-0.328,0.281-0.609,0.281-0.844c0-0.359-0.242-0.539-0.727-0.539c-0.203,0-0.422,0.141-0.656,0.422
		c-3.25,4.219-6.836,8.125-10.758,11.719c-4.375,4.016-8.547,7.234-12.516,9.656c-1.031,0.609-1.75,0.914-2.156,0.914
		C92.277,165.746,91.41,165.23,90.238,164.199L90.238,164.199z M94.223,149.457c0.5,0.969,1.109,1.438,1.828,1.406
		c1.016,0,1.523-0.609,1.523-1.828c0-1.375-0.813-2.703-2.438-3.984c-1.688-1.297-3.453-2.133-5.297-2.508
		c-0.266-0.062-0.531-0.094-0.797-0.094c-0.359,0-0.539,0.18-0.539,0.539c0,0.234,0.141,0.438,0.422,0.609
		C91.098,144.941,92.863,146.894,94.223,149.457L94.223,149.457z"/>
	<path fill="#083E00" d="M117.543,187.728c-0.922,0.828-1.383,1.859-1.383,3.094c0,1.063,0.359,1.992,1.078,2.789
		c0.828,0.922,1.859,1.383,3.094,1.383c1.063,0,1.992-0.359,2.789-1.078c0.922-0.828,1.383-1.859,1.383-3.094
		c0-1.063-0.359-1.992-1.078-2.789c-0.828-0.922-1.859-1.383-3.094-1.383C119.27,186.65,118.34,187.009,117.543,187.728
		L117.543,187.728z M122.113,188.829c0.609,0.547,0.914,1.211,0.914,1.992c0,0.672-0.234,1.266-0.703,1.781
		c-0.547,0.609-1.211,0.914-1.992,0.914c-0.672,0-1.266-0.234-1.781-0.703c-0.609-0.547-0.914-1.211-0.914-1.992
		c0-0.672,0.234-1.266,0.703-1.781c0.547-0.609,1.211-0.914,1.992-0.914C121.004,188.126,121.598,188.361,122.113,188.829
		L122.113,188.829z M89.324,196.54c-0.531-0.281-1.141-0.82-1.828-1.617c-0.281-0.328-0.508-0.492-0.68-0.492
		c-0.313,0-0.469,0.258-0.469,0.773c0,0.735,0.367,1.609,1.102,2.625c1.125,1.609,2.195,2.414,3.211,2.414
		c0.359,0,0.789-0.125,1.289-0.375c0.391-0.219,1.164-0.414,2.32-0.586c4.328-0.688,9.398-1.328,15.211-1.922
		c1.156-0.094,1.781-0.141,1.875-0.141c0.313,0,0.469,0.102,0.469,0.305c0,0.125-0.047,0.297-0.141,0.516
		c-5.109,11.938-12.5,20.383-22.172,25.336c-0.484,0.234-0.727,0.484-0.727,0.75c0,0.453,0.211,0.68,0.633,0.68
		c0.328,0,0.742-0.109,1.242-0.328c5.094-2.25,9.484-5.227,13.172-8.93c3.906-3.922,7.406-9.086,10.5-15.492
		c0.281-0.594,0.727-1.023,1.336-1.289c0.672-0.281,1.008-0.641,1.008-1.078c0-0.578-0.492-1.281-1.477-2.109
		c-1.125-0.953-1.914-1.43-2.367-1.43c-0.281,0-0.648,0.18-1.102,0.539c-0.391,0.297-0.898,0.469-1.523,0.516
		c-0.641,0.063-2.93,0.297-6.867,0.703c-3.203,0.313-5.813,0.563-7.828,0.75c-2.156,0.188-3.609,0.281-4.359,0.281
		C90.449,196.939,89.84,196.806,89.324,196.54L89.324,196.54z"/>
	<path fill="#083E00" d="M109.457,275.933c3.703-1.858,6.773-4.366,9.211-7.523c0.219-0.281,0.328-0.516,0.328-0.703
		c0-0.328-0.156-0.492-0.469-0.492c-0.266,0-0.508,0.11-0.727,0.328c-2.453,2.313-5.086,4.188-7.898,5.625
		c-3.516,1.813-6.891,2.719-10.125,2.719c-1.813,0-3.078-0.335-3.797-1.008c-0.891-0.75-1.336-2.233-1.336-4.453
		c0-2.562,0.148-6.305,0.445-11.227c0.219-3.78,0.492-6.938,0.82-9.469c0.063-0.827,0.266-1.413,0.609-1.758
		c0.453-0.452,0.68-0.921,0.68-1.406c0-0.844-0.656-1.758-1.969-2.742c-1.344-0.984-2.461-1.477-3.352-1.477
		c-0.516,0-0.906,0.063-1.172,0.188c-0.313,0.188-0.469,0.384-0.469,0.586c0,0.234,0.227,0.407,0.68,0.516
		c1.484,0.438,2.203,1.626,2.156,3.563c-0.125,5.203-0.258,9.157-0.398,11.859c-0.25,5.688-0.375,9.673-0.375,11.953
		c0,4.985,2.43,7.477,7.289,7.477C102.824,278.488,106.113,277.637,109.457,275.933L109.457,275.933z"/>
	<path fill="#083E00" d="M113.746,298.319c-0.531,0.297-1.281,0.547-2.25,0.75l-20.836,5.32c-1.406,0.359-2.43,0.539-3.07,0.539
		c-0.609,0.016-1.148-0.094-1.617-0.328c-0.438-0.219-0.969-0.672-1.594-1.359c-0.281-0.281-0.492-0.422-0.633-0.422
		c-0.313,0-0.469,0.305-0.469,0.914c0,0.719,0.43,1.633,1.289,2.742c1.125,1.313,2.18,1.969,3.164,1.969
		c0.563,0,1.109-0.18,1.641-0.539c1.031-0.594,2.219-1.133,3.563-1.617c3.406-1.234,7.695-2.609,12.867-4.125l0.094,0.141
		c-2.578,1.438-4.664,3.359-6.258,5.766c-1.875,2.797-2.813,5.805-2.813,9.023c0,3.797,1.391,6.852,4.172,9.164
		c1.375,1.188,3.203,2.148,5.484,2.883s4.453,1.102,6.516,1.102c1.469,0,2.203-0.414,2.203-1.242c0-0.75-0.383-1.328-1.148-1.734
		c-0.875-0.469-2.094-0.742-3.656-0.82c-1.313-0.016-2.656-0.242-4.031-0.68c-1.719-0.547-3.156-1.313-4.313-2.297
		c-2.172-1.734-3.258-4.328-3.258-7.781c0-2.547,0.906-5.055,2.719-7.523c1.969-2.656,4.289-4.453,6.961-5.391
		c2.625-0.953,5.734-1.484,9.328-1.594c1.047-0.047,1.57-0.477,1.57-1.289c0-0.656-0.43-1.133-1.289-1.43
		c-1-0.422-1.914-0.633-2.742-0.633C114.762,297.826,114.23,297.99,113.746,298.319L113.746,298.319z"/>
	<path fill="#083E00" d="M32.355,47.413c0.109-0.359,0.367-0.742,0.773-1.148c0.344-0.359,0.516-0.695,0.516-1.008
		c0-0.719-0.563-1.531-1.688-2.438c-1.391-1.094-2.633-1.641-3.727-1.641c-0.703,0-1.055,0.227-1.055,0.68
		c0,0.141,0.141,0.281,0.422,0.422c1.531,0.688,2.297,1.617,2.297,2.789c0,1.438-0.445,3.656-1.336,6.656
		c-3.641-1.516-7.781-2.43-12.422-2.742c0.438-0.859,1.664-3.461,3.68-7.805c1.766-3.781,2.875-6.039,3.328-6.773
		c0.406-0.469,0.609-0.875,0.609-1.219c0-0.469-0.383-0.914-1.148-1.336c-0.828-0.516-1.516-0.773-2.063-0.773
		c-0.297,0-0.602,0.18-0.914,0.539c-0.422,0.469-0.883,0.789-1.383,0.961c-3.016,0.953-5.227,1.43-6.633,1.43
		c-0.719,0-1.422-0.656-2.109-1.969c-0.156-0.313-0.313-0.469-0.469-0.469s-0.289,0.125-0.398,0.375
		c-0.125,0.266-0.188,0.57-0.188,0.914c0,0.531,0.305,1.367,0.914,2.508c0.609,1.016,1.25,1.523,1.922,1.523
		c0.344,0,0.625-0.094,0.844-0.281c0.375-0.297,1.063-0.609,2.063-0.938c1.75-0.609,3.461-1.125,5.133-1.547
		c0.078-0.016,0.164-0.023,0.258-0.023c0.188,0,0.281,0.078,0.281,0.234c0,0.078-0.016,0.172-0.047,0.281
		c-1.438,4.297-3.422,9.102-5.953,14.414c-3.391,0.063-6.398,1.063-9.023,3c-2.172,1.578-3.258,3.445-3.258,5.602
		c0,1.141,0.305,2.031,0.914,2.672c0.609,0.656,1.391,0.984,2.344,0.984c1.391,0,2.672-0.414,3.844-1.242
		c1.734-1.188,3.945-4.297,6.633-9.328c4.641,0.328,8.766,1.398,12.375,3.211c-1.266,3.109-2.68,5.664-4.242,7.664
		c-1.797,2.297-4.203,4.375-7.219,6.234c-0.422,0.25-0.633,0.453-0.633,0.609c0,0.156,0.055,0.312,0.164,0.469
		c0.109,0.172,0.234,0.258,0.375,0.258c0.25,0,0.438-0.032,0.563-0.094c5.906-2.516,10.375-7.18,13.406-13.992
		c2.547,1.313,4.656,2.672,6.328,4.078c0.656,0.547,1.219,0.82,1.688,0.82c0.297,0,0.563-0.117,0.797-0.352
		c0.328-0.281,0.492-0.672,0.492-1.172c0-0.688-0.398-1.406-1.195-2.156c-1.25-1.078-3.656-2.344-7.219-3.797
		C31.199,51.811,31.652,50.116,32.355,47.413L32.355,47.413z M8.965,56.741c-1.438,1.438-2.68,2.156-3.727,2.156
		c-1.063,0-1.594-0.625-1.594-1.875c0-1.469,0.781-2.813,2.344-4.031c1.766-1.375,4.117-2.117,7.055-2.227
		C11.668,53.405,10.309,55.397,8.965,56.741L8.965,56.741z"/>
	<path fill="#083E00" d="M20.777,95.213c0.641,0.422,1.391,0.633,2.25,0.633c1.063-0.063,2.539-0.352,4.43-0.867
		c2.453-0.766,3.813-1.195,4.078-1.289c0.766-0.297,1.148-0.766,1.148-1.406c0-0.859-0.734-1.289-2.203-1.289
		c-0.938,0-1.789,0.289-2.555,0.867c-0.656,0.453-1.695,0.898-3.117,1.336c-1.453,0.453-2.461,0.68-3.023,0.68
		c-0.391,0-0.641-0.031-0.75-0.094c-0.141-0.078-0.211-0.258-0.211-0.539c0-1.313,0.047-2.688,0.141-4.125
		c0.047-0.656,0.242-1.219,0.586-1.688c0.281-0.422,0.422-0.836,0.422-1.242c0-0.547-0.578-1.156-1.734-1.828
		c-1.328-0.734-2.547-1.102-3.656-1.102c-0.422,0-0.883,0.125-1.383,0.375c-0.609,0.297-0.914,0.602-0.914,0.914
		c0,0.266,0.211,0.398,0.633,0.398c1.094,0.047,1.969,0.398,2.625,1.055c0.406,0.359,0.648,1.461,0.727,3.305
		c0.172,8.484,0.43,15.539,0.773,21.164c-1.203-0.25-2.563-0.375-4.078-0.375c-2.344,0-4.297,0.367-5.859,1.102
		c-1.984,0.922-2.977,2.266-2.977,4.031c0,1.469,0.641,2.641,1.922,3.516c1.359,0.953,3.195,1.43,5.508,1.43
		c5.531,0,8.242-2.258,8.133-6.773c3.719,1.391,7.063,3.25,10.031,5.578c0.75,0.609,1.336,0.914,1.758,0.914
		c1.094,0,1.641-0.547,1.641-1.641c0-0.719-0.563-1.422-1.688-2.109c-3.797-2.344-7.727-4.086-11.789-5.227
		C21.191,107.244,20.902,102.01,20.777,95.213L20.777,95.213z M17.707,116.635c-1,0.984-2.57,1.477-4.711,1.477
		c-1.453,0-2.648-0.195-3.586-0.586c-1.203-0.5-1.805-1.266-1.805-2.297c0-0.875,0.617-1.609,1.852-2.203
		c1.266-0.609,2.75-0.914,4.453-0.914c1.594,0,3.289,0.227,5.086,0.68C19.027,114.4,18.598,115.681,17.707,116.635L17.707,116.635z"
		/>
	<path fill="#083E00" d="M15.152,142.302c-0.281,0.203-0.422,0.398-0.422,0.585c0,0.328,0.203,0.492,0.609,0.492
		c0.141,0,0.289-0.039,0.445-0.117c1.703-0.906,3.211-1.601,4.523-2.085c0.969-0.359,2.219-0.54,3.75-0.54h0.984
		c1.031,0,1.547-0.429,1.547-1.289c0-0.657-0.352-1.125-1.055-1.407c-0.969-0.375-2.328-0.563-4.078-0.563
		c-2.656,0-4.836-0.804-6.539-2.414c-0.219-0.156-0.414-0.234-0.586-0.234c-0.25,0-0.375,0.141-0.375,0.421
		c0,0.141,0.047,0.305,0.141,0.492c0.984,1.797,2.859,3.079,5.625,3.844C18.051,140.552,16.527,141.49,15.152,142.302
		L15.152,142.302z M24.129,165.997c-2.109,3.063-5.117,5.539-9.023,7.43c-0.578,0.281-0.867,0.578-0.867,0.89
		c0,0.328,0.211,0.493,0.633,0.493c0.188,0,0.523-0.079,1.008-0.235c4.016-1.391,7.266-3.476,9.75-6.258
		c3.063-3.406,4.594-7.421,4.594-12.047c0-2.312-0.539-4.304-1.617-5.976c-1.406-2.219-3.461-3.329-6.164-3.329
		c-1.156,0-2.32,0.204-3.492,0.609c-1.031,0.375-2.648,1.157-4.852,2.344c-0.938,0.516-1.734,0.773-2.391,0.773
		c-0.25,0-0.5-0.188-0.75-0.563c-0.297-0.406-0.516-0.89-0.656-1.453c-0.047-0.344-0.172-0.516-0.375-0.516
		s-0.391,0.125-0.563,0.375c-0.203,0.297-0.305,0.679-0.305,1.148c0,1.188,0.516,2.375,1.547,3.563
		c0.563,0.672,1.133,1.007,1.711,1.007c0.625,0,1.203-0.335,1.734-1.007c0.172-0.203,0.547-0.555,1.125-1.055
		c0.281-0.25,0.5-0.437,0.656-0.563c2.469-2.015,4.594-3.023,6.375-3.023c1.672,0,2.945,0.711,3.82,2.133
		c0.813,1.313,1.219,3.063,1.219,5.25C27.246,159.677,26.207,163.013,24.129,165.997L24.129,165.997z"/>
	<path fill="#083E00" d="M7.629,217.668c0,2.719,1.211,4.688,3.633,5.906c2.141,1.063,5.414,1.594,9.82,1.594
		c3.563,0,6.422-0.164,8.578-0.492c0.984-0.125,1.664-0.289,2.039-0.492c0.438-0.219,0.656-0.586,0.656-1.102
		s-0.289-0.961-0.867-1.336c-0.625-0.422-1.344-0.633-2.156-0.633c-0.438,0-0.969,0.102-1.594,0.305
		c-2.188,0.672-5.227,1.008-9.117,1.008c-6.016,0-9.023-1.695-9.023-5.086c0-1.797,0.859-3.461,2.578-4.992
		c1.344-1.188,3.813-2.68,7.406-4.477c1.797-0.891,5.102-2.203,9.914-3.938c1-0.359,1.5-0.804,1.5-1.336
		c0-0.546-0.43-1.281-1.289-2.203c-1.281-1.281-2.508-1.922-3.68-1.922c-0.578,0-0.867,0.141-0.867,0.422
		c0,0.219,0.125,0.415,0.375,0.586c0.984,0.672,1.477,1.235,1.477,1.688c0,0.297-0.336,0.641-1.008,1.031
		c-1.906,1.11-3.945,2.18-6.117,3.211c-0.453,0.203-0.836,0.305-1.148,0.305c-0.047,0-0.094,0-0.141,0
		c-0.672-0.047-1.07-0.671-1.195-1.875c-0.172-2.156-0.258-4.281-0.258-6.375c0-1.093,0.016-2.218,0.047-3.375
		c0-0.406,0.109-0.773,0.328-1.101c0.344-0.453,0.516-0.821,0.516-1.102c0-0.516-0.32-1.039-0.961-1.57
		c-1.328-1.093-2.57-1.64-3.727-1.64c-0.422,0-0.844,0.102-1.266,0.304c-0.5,0.25-0.75,0.516-0.75,0.797
		c0,0.219,0.078,0.328,0.234,0.328c0.781,0.047,1.5,0.321,2.156,0.821c0.406,0.281,0.633,0.89,0.68,1.828
		c0.156,4.297,0.328,7.625,0.516,9.985c0.188,2.188,0.891,3.593,2.109,4.218C10.762,210.16,7.629,213.731,7.629,217.668
		L7.629,217.668z"/>
	<path fill="#083E00" d="M32.145,260.731v0.727c0,0.703,0.414,1.055,1.242,1.055c1.25,0,1.875-0.43,1.875-1.289l-0.188-12.305
		v-5.086c0.859-0.547,1.289-0.977,1.289-1.289c0-0.281-0.273-0.641-0.82-1.078c-1.109-0.891-1.766-1.336-1.969-1.336
		c-0.188,0-0.773,0.516-1.758,1.547H8.262c-1.25-0.703-2.43-1.266-3.539-1.688c0.188,1.547,0.281,4.289,0.281,8.227l-0.188,13.383
		c0,0.703,0.398,1.055,1.195,1.055c1.25,0,1.875-0.445,1.875-1.336v-0.586H32.145z M7.887,242.871H18.41v7.594H7.887V242.871z
		 M18.41,251.66v7.875H7.887v-7.875H18.41z M21.199,259.535v-7.875h10.945v7.875H21.199z M21.199,250.465v-7.594h10.945v7.594
		H21.199z M37.043,275.145c0.188,0.781,0.383,1.32,0.586,1.617c0.219,0.328,0.547,0.492,0.984,0.492
		c1.125,0,1.688-0.766,1.688-2.297c0-1.203-0.57-2.477-1.711-3.82c-1.391-1.641-3.258-2.984-5.602-4.031
		c-0.031-0.016-0.063-0.023-0.094-0.023c-0.188,0-0.281,0.094-0.281,0.281c0,0.031,0.016,0.063,0.047,0.094
		C34.816,269.614,36.277,272.176,37.043,275.145L37.043,275.145z M21.621,269.285c0.25,0.734,0.477,1.242,0.68,1.523
		c0.234,0.328,0.555,0.492,0.961,0.492c0.422,0,0.781-0.188,1.078-0.563s0.445-0.844,0.445-1.406c0-1.047-0.547-2.07-1.641-3.07
		c-1.266-1.141-2.984-2.023-5.156-2.648c-0.016,0-0.031,0-0.047,0c-0.203,0-0.305,0.086-0.305,0.258
		c0,0.063,0.016,0.109,0.047,0.141C19.605,265.778,20.918,267.535,21.621,269.285L21.621,269.285z M4.043,271.324
		c-0.797,1.297-1.719,2.219-2.766,2.766c-1.188,0.594-1.781,1.266-1.781,2.016c0,0.453,0.141,0.859,0.422,1.219
		c0.313,0.391,0.711,0.586,1.195,0.586c1.188,0,2.25-0.719,3.188-2.156c1.109-1.719,1.664-3.859,1.664-6.422
		c0-0.641-0.016-1.125-0.047-1.453c0-0.156-0.102-0.234-0.305-0.234c-0.156,0-0.242,0.063-0.258,0.188
		C5.168,269.035,4.73,270.199,4.043,271.324L4.043,271.324z M29.004,274.91c-0.359,0.766-0.82,1.352-1.383,1.758
		c-0.547,0.391-1.25,0.656-2.109,0.797c-0.984,0.172-2.617,0.258-4.898,0.258c-2.766,0-4.578-0.133-5.438-0.398
		c-0.984-0.297-1.477-1.023-1.477-2.18v-8.32c1.063-0.438,1.594-0.852,1.594-1.242c0-0.25-0.195-0.438-0.586-0.563
		c-0.5-0.156-1.844-0.383-4.031-0.68c0.125,1.406,0.188,3.648,0.188,6.727l-0.094,4.266c0,1.844,0.516,3.109,1.547,3.797
		c1.219,0.797,3.805,1.195,7.758,1.195c4.609,0,7.797-0.258,9.563-0.773c1.563-0.516,2.344-1.188,2.344-2.016
		c0-0.531-0.188-0.883-0.563-1.055c-0.516-0.188-0.773-0.57-0.773-1.148c0-0.359,0.031-0.938,0.094-1.734
		c0.078-1.125,0.125-1.844,0.141-2.156c0-0.188-0.102-0.281-0.305-0.281c-0.141,0-0.227,0.063-0.258,0.188
		C29.77,273.051,29.332,274.239,29.004,274.91L29.004,274.91z"/>
	<path fill="#083E00" d="M16.723,300.248c-1.359,0.859-2.305,1.453-2.836,1.781c-0.219,0.141-0.328,0.336-0.328,0.586
		c0,0.328,0.18,0.492,0.539,0.492c0.094,0,0.188-0.023,0.281-0.07c3.219-1.563,5.031-2.422,5.438-2.578
		c0.797-0.313,1.516-0.469,2.156-0.469l1.805,0.094c0.938,0,1.406-0.414,1.406-1.242c0-0.578-0.273-1.047-0.82-1.406
		c-0.375-0.234-1.508-0.453-3.398-0.656c-2.813-0.328-4.906-1.344-6.281-3.047c-0.141-0.188-0.32-0.281-0.539-0.281
		c-0.25,0-0.375,0.195-0.375,0.586c0,0.531,0.383,1.25,1.148,2.156c0.844,0.969,2.266,1.797,4.266,2.484
		C18.746,298.959,17.926,299.483,16.723,300.248L16.723,300.248z M15.691,320.053c6.047-6.281,9.273-9.625,9.68-10.031
		c0.266-0.266,0.633-0.43,1.102-0.492c1.125-0.109,1.688-0.477,1.688-1.102c0-0.438-0.656-1.125-1.969-2.063
		c-0.969-0.703-1.781-1.055-2.438-1.055c-0.359,0-0.727,0.195-1.102,0.586c-0.453,0.484-1.109,0.883-1.969,1.195
		c-2.641,1.031-5.617,2.164-8.93,3.398c-0.469,0.188-1,0.281-1.594,0.281c-0.734,0-1.453-0.609-2.156-1.828
		c-0.234-0.375-0.406-0.563-0.516-0.563c-0.391,0-0.586,0.367-0.586,1.102c0,0.828,0.336,1.703,1.008,2.625
		c0.828,1.156,1.711,1.734,2.648,1.734c0.531,0,0.945-0.141,1.242-0.422c0.469-0.422,0.992-0.789,1.57-1.102
		c3.047-1.641,6.133-2.992,9.258-4.055c0.047-0.016,0.094-0.023,0.141-0.023c0.141,0,0.211,0.07,0.211,0.211
		c0,0.047-0.023,0.094-0.07,0.141c-5.688,7.234-11.586,13.906-17.695,20.016c-0.703,0.703-1.055,1.328-1.055,1.875
		c0,0.406,0.117,0.75,0.352,1.031c0.266,0.297,0.594,0.445,0.984,0.445c0.609,0,1.063-0.195,1.359-0.586
		c1.875-2.469,3.875-4.836,6-7.102c1.438-1.438,2.18-2.18,2.227-2.227c1.063-0.922,2.047-1.383,2.953-1.383
		c1,0,1.719,0.414,2.156,1.242c0.375,0.719,0.984,2.5,1.828,5.344c0.781,2.656,2.367,4.195,4.758,4.617
		c0.922,0.156,2.469,0.234,4.641,0.234c1.188,0,2.742-0.094,4.664-0.281c1.344-0.156,2.016-0.656,2.016-1.5
		c0-0.531-0.281-0.969-0.844-1.313c-0.578-0.375-1.289-0.563-2.133-0.563c-0.453,0-1.32,0.125-2.602,0.375
		c-1.406,0.297-2.633,0.445-3.68,0.445c-0.094,0-0.242,0-0.445,0c-1.125-0.031-1.953-0.18-2.484-0.445
		c-0.594-0.313-1.094-0.945-1.5-1.898c-0.125-0.297-0.281-0.688-0.469-1.172c-0.359-0.922-0.578-1.492-0.656-1.711
		c-0.563-1.391-1.078-2.414-1.547-3.07c-0.844-1.156-1.953-1.734-3.328-1.734c-1.016,0-1.891,0.32-2.625,0.961L15.691,320.053z"/>
	<path fill="#083E00" d="M17.613,352.869c0.375-0.844,0.711-1.383,1.008-1.617c0.453-0.344,0.68-0.797,0.68-1.359
		c0-0.484-0.273-0.945-0.82-1.383c-0.516-0.422-1.188-0.797-2.016-1.125c-0.859-0.344-1.531-0.516-2.016-0.516
		c-0.328,0-0.758,0.078-1.289,0.234c-0.453,0.203-0.68,0.414-0.68,0.633c0,0.203,0.273,0.359,0.82,0.469
		c1.531,0.328,2.297,1.055,2.297,2.18c0,0.531-0.156,1.359-0.469,2.484c-0.344,1.281-0.797,2.711-1.359,4.289
		c-2.672,0.828-4.844,1.242-6.516,1.242c-1.641,0-3.008-0.367-4.102-1.102c-0.453-0.297-0.75-0.445-0.891-0.445
		c-0.359,0-0.539,0.18-0.539,0.539c0,0.531,0.461,1.125,1.383,1.781c1.203,0.891,2.758,1.336,4.664,1.336
		c1.391,0,3.102-0.242,5.133-0.727c-2.844,7.891-5.914,15.094-9.211,21.609c-0.156,0.375-0.234,0.695-0.234,0.961
		c0,0.391,0.109,0.75,0.328,1.078c0.266,0.313,0.633,0.469,1.102,0.469c0.672,0,1.188-0.398,1.547-1.195
		c1.781-4.094,4.742-11.938,8.883-23.531c2.75-0.75,5.367-1.586,7.852-2.508c1.125-0.438,1.688-0.984,1.688-1.641
		c0-0.344-0.148-0.633-0.445-0.867c-0.281-0.219-0.625-0.328-1.031-0.328c-0.453,0-1.227,0.258-2.32,0.773
		c-1.563,0.734-3.18,1.375-4.852,1.922C16.973,354.448,17.441,353.229,17.613,352.869L17.613,352.869z M20.402,373.424
		c0-0.25-0.109-0.375-0.328-0.375c-0.328,0-0.617,0.289-0.867,0.867c-0.578,1.266-0.867,2.445-0.867,3.539
		c0,0.906,0.25,1.797,0.75,2.672c0.547,0.984,1.305,1.773,2.273,2.367c1.938,1.188,4.898,1.781,8.883,1.781
		c1.953,0,3.695-0.109,5.227-0.328c0.766-0.109,1.297-0.273,1.594-0.492c0.313-0.219,0.469-0.57,0.469-1.055
		c0-0.625-0.32-1.07-0.961-1.336c-0.484-0.188-0.977-0.281-1.477-0.281c-0.609,0-1.266,0.094-1.969,0.281
		c-1.375,0.313-2.844,0.469-4.406,0.469c-2.984,0-5.117-0.336-6.398-1.008c-1.625-0.844-2.438-2.156-2.438-3.938
		c0-0.844,0.102-1.625,0.305-2.344C20.332,373.744,20.402,373.471,20.402,373.424L20.402,373.424z M25.254,367.143
		c-0.297,0.281-0.445,0.484-0.445,0.609c0,0.266,0.109,0.398,0.328,0.398c0.234,0,0.492-0.078,0.773-0.234
		c2.656-1.797,4.273-2.82,4.852-3.07c0.625-0.297,1.172-0.445,1.641-0.445c0.078,0,0.156,0,0.234,0c0.266,0,0.695,0.094,1.289,0.281
		c0.422,0.156,0.773,0.234,1.055,0.234c0.719,0.063,1.102-0.273,1.148-1.008c0.047-0.719-0.398-1.305-1.336-1.758
		c-1.094-0.516-2.602-0.828-4.523-0.938c-0.297-0.016-0.57-0.023-0.82-0.023c-3.531,0-6.555,0.93-9.07,2.789
		c-0.25,0.203-0.375,0.43-0.375,0.68c0,0.219,0.133,0.328,0.398,0.328c0.156,0,0.328-0.039,0.516-0.117
		c2.063-1.109,4.617-1.664,7.664-1.664c0.281,0,0.531,0.008,0.75,0.023s0.328,0.063,0.328,0.141s-0.094,0.195-0.281,0.352
		C27.02,365.658,25.645,366.799,25.254,367.143L25.254,367.143z"/>
</g>
</svg>
