<?xml version="1.0" encoding="utf-8"?>
<!-- Generator: Adobe Illustrator 14.0.0, SVG Export Plug-In . SVG Version: 6.00 Build 43363)  -->
<!DOCTYPE svg PUBLIC "-//W3C//DTD SVG 1.1 Basic//EN" "http://www.w3.org/Graphics/SVG/1.1/DTD/svg11-basic.dtd">
<svg version="1.1" baseProfile="basic" id="レイヤー_2"
	 xmlns="http://www.w3.org/2000/svg" xmlns:xlink="http://www.w3.org/1999/xlink" x="0px" y="0px" width="287.366px"
	 height="410.008px" viewBox="0 0 287.366 410.008" xml:space="preserve">
<g>
	<path fill="#083E00" d="M272.695,28.749c-4.829,0.454-9.274,0.868-13.337,1.243c-2.202,0.188-3.563,0.28-4.077,0.28
		c-1.048,0-2.173-0.522-3.375-1.57c-0.375-0.39-0.642-0.585-0.798-0.585c-0.391,0-0.585,0.21-0.585,0.632
		c0,0.328,0.141,0.759,0.422,1.289c0.312,0.626,0.703,1.148,1.171,1.57c1.267,1.188,2.157,1.781,2.673,1.781
		c0.422,0,0.804-0.108,1.148-0.328c0.296-0.188,0.78-0.319,1.453-0.398c3.812-0.452,7.444-0.82,10.898-1.102
		c1.999-0.155,3.773-0.234,5.319-0.234l3.07,0.141c0.61,0,0.915-0.351,0.915-1.055c0-0.703-0.767-1.327-2.298-1.875
		c0.313-1.39,0.719-3.249,1.22-5.578c0.703-3.218,1.155-5.297,1.359-6.234c0.062-0.405,0.319-0.703,0.773-0.891
		c0.609-0.312,0.914-0.616,0.914-0.914c0-0.516-0.509-1.289-1.523-2.32c-0.876-0.858-1.556-1.289-2.039-1.289
		c-0.345,0-0.773,0.258-1.289,0.773c-0.298,0.298-0.837,0.478-1.617,0.539c-2.485,0.157-7.125,0.509-13.923,1.056
		c-1.452,0.125-2.797,0.188-4.03,0.188c-1.423,0-2.578-0.446-3.47-1.337c-0.359-0.358-0.602-0.538-0.726-0.538
		c-0.251,0-0.375,0.257-0.375,0.772c0,0.72,0.351,1.453,1.055,2.203c1.249,1.376,2.32,2.063,3.211,2.063
		c0.296,0,0.554-0.062,0.772-0.188c0.359-0.218,0.906-0.382,1.642-0.492c5.438-0.796,11.351-1.319,17.741-1.57
		C274.429,19.233,273.663,23.891,272.695,28.749L272.695,28.749z"/>
	<path fill="#083E00" d="M266.086,65.131c0-0.516,0.03-1.352,0.093-2.508c0.063-0.719,0.273-1.281,0.634-1.688
		c0.405-0.484,0.608-0.93,0.608-1.336c0-0.922-1.039-1.961-3.117-3.117c-1.016-0.547-1.758-0.82-2.226-0.82
		c-0.454,0-0.79,0.063-1.008,0.188c-0.281,0.141-0.422,0.289-0.422,0.445c0,0.125,0.155,0.281,0.468,0.469
		c0.672,0.406,1.188,0.805,1.548,1.195c0.546,0.625,0.819,1.891,0.819,3.797V71.6c0,5.906-0.046,10.18-0.14,12.82
		c-0.079,1.297-0.181,2.125-0.305,2.484c-0.188,0.484-0.281,0.938-0.281,1.359c0,1.016,0.241,2.008,0.726,2.977
		c0.453,0.859,0.969,1.289,1.548,1.289c0.733,0,1.102-0.672,1.102-2.016l-0.024-3.023c-0.016-1.516-0.022-3.227-0.022-5.133v-8.742
		V65.131z"/>
	<path fill="#083E00" d="M267.703,108.656c0,0.203,0.211,0.398,0.633,0.586c0.952,0.484,1.43,0.898,1.43,1.242
		c0,0.188-0.258,0.414-0.774,0.68c-4.203,2.266-9.992,4.359-17.366,6.281c-0.673,0.188-1.009,0.406-1.009,0.656
		c0,0.422,0.172,0.633,0.517,0.633c0.03,0,0.07,0,0.117,0c6.593-0.969,13.296-2.773,20.108-5.414
		c0.391-0.141,0.906-0.273,1.548-0.398c0.89-0.203,1.335-0.617,1.335-1.242c0-0.688-0.719-1.484-2.155-2.391
		c-1.204-0.734-2.282-1.102-3.234-1.102C268.085,108.188,267.703,108.344,267.703,108.656L267.703,108.656z M267.656,121.266
		c0-0.313,0.094-0.602,0.281-0.867c0.265-0.344,0.398-0.711,0.398-1.102c0-0.547-0.431-0.992-1.29-1.336
		c-1.188-0.484-2.202-0.727-3.046-0.727c-0.579,0-1.148,0.109-1.711,0.328c-0.36,0.156-0.539,0.336-0.539,0.539
		c0,0.156,0.155,0.281,0.469,0.375c0.858,0.203,1.483,0.414,1.875,0.633c0.483,0.234,0.727,0.75,0.727,1.547
		c0,0.406,0,1.289,0,2.648c-2.235,0.203-5.735,0.57-10.5,1.102c-1.985,0.188-3.188,0.281-3.609,0.281c-0.97,0-2.009-0.5-3.117-1.5
		c-0.328-0.281-0.556-0.422-0.68-0.422c-0.281,0-0.423,0.305-0.423,0.914c0,0.484,0.43,1.188,1.29,2.109
		c1.077,1.188,2.069,1.781,2.977,1.781c0.452,0,0.874-0.125,1.266-0.375c0.452-0.266,1.327-0.508,2.625-0.727
		c3.797-0.594,7.172-1.016,10.125-1.266c-0.22,4.25-1.063,7.906-2.532,10.969c-1.78,3.703-4.609,6.836-8.483,9.398
		c-0.485,0.313-0.727,0.547-0.727,0.703c0,0.484,0.171,0.727,0.515,0.727c0.235,0,0.61-0.125,1.125-0.375
		c4-2.125,7.023-4.789,9.07-7.992c2.234-3.5,3.523-8.039,3.867-13.617c2.86-0.156,5.508-0.234,7.945-0.234
		c1.578,0,3.039,0.031,4.384,0.094c1.343,0.063,2.147,0.094,2.414,0.094c0.797,0,1.194-0.336,1.194-1.008
		c0-0.703-0.444-1.273-1.335-1.711c-1.032-0.516-1.962-0.773-2.79-0.773c-0.438,0-0.922,0.141-1.452,0.422
		c-0.595,0.344-1.181,0.539-1.758,0.586c-4.517,0.328-7.368,0.531-8.555,0.609C267.656,122.844,267.656,122.234,267.656,121.266
		L267.656,121.266z"/>
	<path fill="#083E00" d="M252.961,189.539c-0.251-0.25-0.462-0.375-0.633-0.375c-0.282,0-0.422,0.32-0.422,0.961
		c0,0.797,0.656,1.852,1.969,3.164c1.266,1.219,2.304,1.828,3.116,1.828c0.563,0,0.977-0.273,1.242-0.82
		c0.156-0.391,0.555-0.82,1.195-1.289c5.063-3.813,9.156-7.289,12.282-10.43c4.327-4.266,7.788-8.539,10.383-12.82
		c0.188-0.328,0.281-0.609,0.281-0.844c0-0.359-0.243-0.539-0.727-0.539c-0.204,0-0.422,0.141-0.657,0.422
		c-3.25,4.219-6.836,8.125-10.758,11.719c-4.375,4.016-8.547,7.234-12.515,9.656c-1.031,0.609-1.751,0.914-2.156,0.914
		C255,191.086,254.133,190.57,252.961,189.539L252.961,189.539z M256.945,174.797c0.499,0.969,1.108,1.438,1.828,1.406
		c1.015,0,1.522-0.609,1.522-1.828c0-1.375-0.813-2.703-2.438-3.984c-1.688-1.297-3.453-2.133-5.296-2.508
		c-0.267-0.063-0.532-0.094-0.797-0.094c-0.36,0-0.539,0.18-0.539,0.539c0,0.234,0.14,0.438,0.422,0.609
		C253.819,170.281,255.586,172.234,256.945,174.797L256.945,174.797z"/>
	<path fill="#083E00" d="M280.546,213.135c0,0.22,0.063,0.375,0.188,0.469c1.782,1.078,3.095,2.359,3.938,3.844
		c0.531,0.859,1.063,1.289,1.595,1.289c0.265,0,0.499-0.102,0.703-0.305c0.265-0.249,0.397-0.577,0.397-0.984
		c0-1.047-0.719-2.07-2.155-3.07c-1.095-0.75-2.235-1.281-3.422-1.594c-0.328-0.094-0.579-0.141-0.75-0.141
		C280.711,212.643,280.546,212.807,280.546,213.135L280.546,213.135z M276.469,216.135c0,0.173,0.094,0.328,0.281,0.469
		c1.641,1.204,2.827,2.5,3.563,3.891c0.546,1.063,1.078,1.594,1.594,1.594c0.797,0,1.195-0.469,1.195-1.406
		c0-0.952-0.688-1.992-2.063-3.117c-0.923-0.765-2.11-1.406-3.563-1.922c-0.094-0.031-0.251-0.047-0.469-0.047
		C276.647,215.596,276.469,215.775,276.469,216.135L276.469,216.135z M264.633,224.619c0.718,0,1.711-0.125,2.976-0.375
		c2.954-0.577,4.766-0.867,5.438-0.867c0.188,0,0.282,0.078,0.282,0.234s-0.032,0.305-0.095,0.445
		c-2.219,4.594-5.18,9.141-8.882,13.641c-3.907,4.75-8.774,8.93-14.602,12.539c-0.329,0.188-0.492,0.454-0.492,0.797
		c0,0.391,0.241,0.586,0.726,0.586c0.266,0,0.57-0.094,0.915-0.281c5.843-3.141,11.03-7.227,15.563-12.258
		c3.452-3.813,6.569-8.344,9.352-13.594c0.171-0.313,0.522-0.617,1.054-0.914c0.61-0.328,0.915-0.68,0.915-1.055
		c0-0.516-0.431-1.109-1.29-1.781c-1.141-0.858-1.93-1.289-2.366-1.289c-0.392,0-0.727,0.141-1.009,0.422
		c-0.406,0.406-0.866,0.648-1.383,0.727c-3.359,0.547-5.296,0.852-5.813,0.914c-1.03,0.125-1.773,0.188-2.226,0.188
		c-0.281,0-0.485-0.015-0.609-0.047c1.125-1.516,1.858-2.358,2.203-2.531c0.577-0.297,0.867-0.711,0.867-1.242
		c0-0.672-0.492-1.374-1.478-2.109c-1.281-0.969-2.336-1.453-3.163-1.453c-1.063,0-1.595,0.18-1.595,0.539
		c0,0.219,0.195,0.422,0.587,0.609c1.108,0.595,1.663,1.204,1.663,1.828c0,0.454-0.273,1.141-0.819,2.063
		c-3.469,5.625-7.289,10.344-11.461,14.156c-0.454,0.391-0.68,0.695-0.68,0.914c0,0.422,0.21,0.633,0.633,0.633
		c0.249,0,0.53-0.094,0.844-0.281c4.266-3.108,8.093-7.016,11.483-11.719C263.203,224.432,264.023,224.619,264.633,224.619
		L264.633,224.619z"/>
	<path fill="#083E00" d="M278.648,278.729c0,0.234,0.062,0.391,0.188,0.469c1.78,1.078,3.093,2.367,3.938,3.867
		c0.516,0.859,1.038,1.289,1.57,1.289c0.312,0,0.574-0.125,0.785-0.375s0.316-0.555,0.316-0.914c0-1.063-0.72-2.094-2.156-3.094
		c-1.095-0.75-2.227-1.281-3.398-1.594c-0.328-0.094-0.587-0.141-0.774-0.141C278.804,278.237,278.648,278.401,278.648,278.729
		L278.648,278.729z M274.57,281.729c0,0.188,0.094,0.352,0.281,0.492c1.64,1.203,2.827,2.5,3.563,3.891
		c0.546,1.047,1.069,1.57,1.569,1.57c0.798,0,1.195-0.461,1.195-1.383c0-0.969-0.688-2.008-2.063-3.117
		c-0.922-0.766-2.102-1.406-3.538-1.922c-0.095-0.031-0.258-0.047-0.492-0.047C274.741,281.214,274.57,281.386,274.57,281.729
		L274.57,281.729z M276.469,270.995c-0.532,0.297-1.282,0.547-2.25,0.75c-2.36,0.609-5.735,1.477-10.125,2.602
		c-4.969,1.266-8.54,2.172-10.711,2.719c-1.406,0.359-2.431,0.539-3.07,0.539c-0.609,0.016-1.148-0.094-1.617-0.328
		c-0.438-0.219-0.97-0.672-1.594-1.359c-0.281-0.281-0.493-0.422-0.633-0.422c-0.313,0-0.469,0.305-0.469,0.914
		c0,0.719,0.429,1.633,1.289,2.742c1.125,1.313,2.18,1.969,3.164,1.969c0.563,0,1.108-0.18,1.641-0.539
		c1.031-0.594,2.218-1.133,3.563-1.617c3.375-1.219,7.664-2.594,12.867-4.125l0.093,0.141c-2.577,1.438-4.663,3.359-6.258,5.766
		c-1.875,2.797-2.813,5.805-2.813,9.023c0,3.797,1.391,6.852,4.173,9.164c1.374,1.188,3.202,2.148,5.484,2.883
		c2.28,0.734,4.453,1.102,6.516,1.102c1.468,0,2.202-0.414,2.202-1.242c0-0.75-0.383-1.328-1.147-1.734
		c-0.876-0.469-2.095-0.742-3.657-0.82c-1.313-0.016-2.656-0.242-4.03-0.68c-1.72-0.547-3.157-1.313-4.313-2.297
		c-2.173-1.734-3.258-4.328-3.258-7.781c0-2.547,0.905-5.055,2.718-7.523c1.97-2.672,4.29-4.469,6.962-5.391
		c2.625-0.953,5.733-1.484,9.328-1.594c1.046-0.047,1.57-0.477,1.57-1.289c0-0.656-0.431-1.133-1.29-1.43
		c-1-0.422-1.914-0.633-2.741-0.633C277.483,270.503,276.952,270.667,276.469,270.995L276.469,270.995z"/>
	<path fill="#083E00" d="M187.929,15.445c-1.313-0.766-2.46-1.359-3.445-1.781c0.156,1.813,0.235,4.328,0.235,7.547l-0.094,8.555
		c0,1.531,0.507,2.617,1.523,3.258c1.202,0.766,3.577,1.148,7.125,1.148c4.062,0,6.874-0.242,8.438-0.727
		c1.405-0.438,2.109-1.031,2.109-1.781c0-0.578-0.22-0.945-0.656-1.102c-0.485-0.203-0.727-0.508-0.727-0.914
		c0-0.578,0.094-2.086,0.281-4.523c0-0.188-0.11-0.281-0.328-0.281c-0.126,0-0.212,0.055-0.258,0.164
		c-1.017,3.094-1.907,4.961-2.672,5.602c-0.407,0.328-0.915,0.547-1.523,0.656c-0.75,0.141-2.196,0.211-4.336,0.211
		c-2.344,0-3.923-0.148-4.735-0.445c-0.906-0.328-1.358-1.063-1.358-2.203V16.641h10.406v1.383c0,0.672,0.398,1.008,1.194,1.008
		c1.25,0,1.875-0.414,1.875-1.242l-0.14-8.484V5.93c0.827-0.578,1.242-0.992,1.242-1.242c0-0.297-0.258-0.664-0.773-1.102
		c-1.063-0.906-1.734-1.359-2.017-1.359c-0.219,0-0.805,0.531-1.757,1.594h-10.453c-1.407,0-2.704-0.125-3.891-0.375l0.469,1.898
		c0.938-0.219,2.093-0.328,3.469-0.328h10.781v10.43H187.929z M167,27.328c0.312-1.844,0.522-3.375,0.633-4.594
		c0.983-0.281,1.476-0.617,1.476-1.008c0-0.266-0.227-0.492-0.68-0.68c-0.563-0.234-1.758-0.539-3.585-0.914v0.914
		c0,0.828-0.07,2.063-0.211,3.703c-0.656,6.875-2.196,12.57-4.617,17.086c-0.017,0.031-0.024,0.062-0.024,0.094
		c0,0.219,0.142,0.328,0.423,0.328c0.077,0,0.14-0.032,0.188-0.094c2.952-3.766,4.976-8.133,6.069-13.102
		c1.173,3.297,3.07,6.148,5.695,8.555c1.578,1.406,3.578,2.414,6,3.023c2.922,0.734,7.313,1.102,13.173,1.102
		c4.077,0,7.788-0.094,11.132-0.281c0.578-0.047,0.915-0.352,1.008-0.914c0.063-0.548,0.18-0.953,0.353-1.219
		c0.202-0.297,0.609-0.594,1.219-0.891c0.094-0.063,0.141-0.164,0.141-0.305c0-0.25-0.095-0.359-0.282-0.328
		c-4.391,0.641-9.608,0.961-15.655,0.961c-3.876,0-6.978-0.188-9.305-0.563c-2.407-0.391-4.392-1.055-5.953-1.992V26.086h7.781
		c0.405,0,0.609-0.141,0.609-0.422c0-0.297-0.258-0.68-0.773-1.148c-1.298-1.125-2.063-1.688-2.297-1.688
		c-0.22,0-0.876,0.688-1.97,2.063h-3.351v-7.875h8.296c0.453,0,0.68-0.156,0.68-0.469c0-0.281-0.289-0.664-0.867-1.148
		c-1.265-1.094-2.015-1.641-2.25-1.641c-0.25,0-0.906,0.688-1.968,2.063h-4.407V8.625h7.899c0.422,0,0.633-0.156,0.633-0.469
		c0-0.281-0.305-0.664-0.915-1.148c-1.234-1.063-1.984-1.594-2.25-1.594c-0.25,0-0.906,0.672-1.968,2.016h-3.399V2.484
		c1.079-0.438,1.617-0.852,1.617-1.242c0-0.266-0.219-0.477-0.655-0.633c-0.609-0.203-1.938-0.406-3.984-0.609
		c0.155,1.469,0.234,3.398,0.234,5.789V7.43h-4.664c-1.031,0-2.133-0.109-3.306-0.328l0.493,1.805
		c0.999-0.188,1.937-0.281,2.813-0.281h4.664v7.195h-6.095c-0.983,0-2.172-0.125-3.563-0.375l0.493,1.852
		c1.155-0.188,2.18-0.281,3.069-0.281h6.657v17.039C169.655,32.336,168.171,30.094,167,27.328L167,27.328z"/>
	<path fill="#083E00" d="M165.383,81.072c-1.063,0-2.243-0.109-3.539-0.328l0.469,1.805c1.078-0.188,2.116-0.281,3.116-0.281h12.774
		c-3.626,4.75-9.352,8.75-17.18,12c-0.079,0.031-0.117,0.094-0.117,0.188c0,0.328,0.117,0.492,0.352,0.492c0.015,0,0.03,0,0.046,0
		c8.25-2.156,14.703-5.906,19.36-11.25c-0.032,1.469-0.118,3.727-0.258,6.773c-0.032,0.906-0.079,1.961-0.141,3.164
		c-0.047,1.031-0.07,1.672-0.07,1.922c0,0.765,0.437,1.148,1.313,1.148c1.28,0,1.921-0.461,1.921-1.383
		c0-0.25-0.008-0.853-0.022-1.805c-0.048-2.188-0.07-3.461-0.07-3.82l-0.188-6.656c2.218,2.828,4.538,5.063,6.96,6.703
		c2.875,1.969,5.883,3.476,9.024,4.523c0.874,0.281,1.5,0.422,1.875,0.422c0.343,0,0.601-0.227,0.773-0.68
		c0.312-0.656,0.601-1.11,0.867-1.359c0.265-0.281,0.71-0.5,1.335-0.656c0.142-0.016,0.212-0.102,0.212-0.258
		c0-0.125-0.056-0.195-0.164-0.211c-4.532-0.594-8.517-1.711-11.953-3.352c-3.173-1.563-5.923-3.531-8.25-5.906h18.82
		c0.39,0,0.585-0.164,0.585-0.492c0-0.297-0.336-0.711-1.007-1.242c-1.392-1.156-2.235-1.734-2.531-1.734
		c-0.267,0-1.048,0.758-2.344,2.273h-14.063v-4.43h14.367c0.39,0,0.585-0.156,0.585-0.469c0-0.344-0.304-0.75-0.913-1.219
		c-1.407-1.125-2.235-1.688-2.484-1.688c-0.235,0-0.978,0.727-2.228,2.18h-9.327v-4.336h17.531c0.405,0,0.608-0.141,0.608-0.422
		c0-0.313-0.336-0.727-1.008-1.242c-1.391-1.125-2.202-1.688-2.438-1.688c-0.266,0-1.063,0.719-2.39,2.156h-9.235
		c1-0.906,2.234-2.219,3.704-3.938c1.266-0.078,1.898-0.336,1.898-0.773c0-0.406-1.336-1.125-4.008-2.156
		c-0.126,0.688-0.431,1.602-0.914,2.742c-0.516,1.281-1.204,2.656-2.063,4.125h-17.273c-1.251,0-2.454-0.094-3.609-0.281
		l0.445,1.758c1.062-0.188,2.147-0.281,3.257-0.281h12.61v4.336h-10.078c-0.984,0-2.149-0.109-3.492-0.328l0.468,1.852
		c1.267-0.219,2.289-0.328,3.071-0.328h10.031v4.43H165.383z M179.141,61.666v-6.82c0.984-0.438,1.476-0.82,1.476-1.148
		c0-0.25-0.21-0.445-0.633-0.586c-0.608-0.188-1.897-0.391-3.867-0.609c0.125,0.984,0.188,2.281,0.188,3.891v5.273h-11.46
		c-1.11,0-2.36-0.109-3.75-0.328l0.469,1.805c1.078-0.188,2.187-0.281,3.328-0.281h38.578c0.422,0,0.633-0.156,0.633-0.469
		c0-0.281-0.352-0.695-1.056-1.242c-1.358-1.125-2.188-1.688-2.483-1.688c-0.251,0-1.024,0.734-2.321,2.203h-6.327
		c1.313-1.203,2.813-2.867,4.5-4.992c1.313,0,1.969-0.258,1.969-0.773c0-0.219-0.22-0.461-0.656-0.727
		c-0.485-0.297-1.641-0.836-3.469-1.617c-0.267,1.031-0.633,2.07-1.102,3.117c-0.907,2.063-1.774,3.727-2.603,4.992h-3.445v-6.82
		c1.032-0.438,1.548-0.82,1.548-1.148c0-0.25-0.22-0.445-0.656-0.586c-0.626-0.188-1.931-0.391-3.914-0.609
		c0.124,0.984,0.188,2.281,0.188,3.891v5.273H179.141z M169.414,59.51c0.265,0.859,0.702,1.289,1.313,1.289
		c0.375,0,0.718-0.164,1.031-0.492c0.375-0.375,0.563-0.82,0.563-1.336c0-0.859-0.454-1.734-1.359-2.625
		c-1.078-1.063-2.478-1.852-4.195-2.367c-0.032,0-0.056,0-0.07,0c-0.22,0-0.329,0.086-0.329,0.258c0,0.047,0.024,0.094,0.071,0.141
		C167.921,55.752,168.913,57.463,169.414,59.51L169.414,59.51z M174.945,68.182c0.218,0.969,0.616,1.453,1.195,1.453
		c0.422,0,0.788-0.141,1.101-0.422c0.375-0.359,0.563-0.859,0.563-1.5c0-0.781-0.375-1.547-1.125-2.297
		c-0.875-0.844-2.125-1.547-3.75-2.109c-0.031-0.016-0.055-0.023-0.07-0.023c-0.188,0-0.28,0.094-0.28,0.281
		c0,0.063,0.023,0.117,0.07,0.164C173.788,64.963,174.554,66.447,174.945,68.182L174.945,68.182z"/>
	<path fill="#083E00" d="M166.391,137.169c-0.22,0.344-0.328,0.727-0.328,1.148c0,0.359,0.108,0.672,0.328,0.938
		c0.265,0.328,0.586,0.492,0.961,0.492c0.765,0,1.296-0.32,1.594-0.961c2.374-4.703,5.397-11.273,9.07-19.711
		c2.608-0.563,5.116-1.234,7.523-2.016c1.062-0.375,1.594-0.891,1.594-1.547c0-0.359-0.157-0.656-0.469-0.891
		c-0.313-0.266-0.673-0.398-1.078-0.398c-0.548,0-1.359,0.258-2.438,0.773c-1.438,0.656-2.798,1.164-4.078,1.523
		c0.218-0.484,0.46-1.047,0.726-1.688c0.406-0.938,0.625-1.445,0.657-1.523c0.499-1.094,0.913-1.75,1.242-1.969
		c0.39-0.266,0.586-0.633,0.586-1.102c0-0.516-0.516-1.016-1.548-1.5c-1.531-0.734-2.773-1.102-3.726-1.102
		c-1.095,0-1.642,0.289-1.642,0.867c0,0.125,0.125,0.219,0.375,0.281c0.594,0.094,1.203,0.336,1.829,0.727
		c0.577,0.359,0.867,0.758,0.867,1.195c0,0.531-0.079,1.094-0.234,1.688c-0.563,1.781-1.125,3.352-1.688,4.711
		c-2.688,0.563-4.828,0.82-6.422,0.773c-1.517,0-2.798-0.375-3.844-1.125c-0.298-0.188-0.539-0.281-0.727-0.281
		c-0.251,0-0.375,0.125-0.375,0.375c0,0.141,0.062,0.336,0.188,0.586c0.39,0.719,1.008,1.305,1.852,1.758
		c0.938,0.5,1.937,0.75,3,0.75c1.718,0,3.507-0.164,5.366-0.492C172.819,125.747,169.766,131.653,166.391,137.169L166.391,137.169z
		 M192.711,123.06c0,0.094-0.079,0.172-0.234,0.234c-1.798,0.516-3.118,1.219-3.961,2.109c-1.017,1.063-1.524,2.563-1.524,4.5
		c0,0.531,0.259,3.094,0.774,7.688c-0.984-0.219-2.384-0.328-4.195-0.328c-1.781,0-3.321,0.391-4.617,1.172
		c-1.595,0.969-2.391,2.258-2.391,3.867c0,1.172,0.499,2.172,1.5,3c1.219,1.031,2.913,1.547,5.086,1.547
		c2.672,0,4.593-0.609,5.766-1.828c0.938-1.016,1.46-2.469,1.569-4.359c1.97,0.766,4.243,2.156,6.82,4.172
		c0.406,0.313,0.828,0.492,1.267,0.539c0.952,0,1.43-0.461,1.43-1.383c0-0.656-0.274-1.219-0.821-1.688
		c-1.531-1.391-4.492-2.781-8.883-4.172c-0.078-0.453-0.21-1.117-0.397-1.992c-0.251-1.156-0.431-2.016-0.54-2.578
		c-0.359-1.953-0.538-3.57-0.538-4.852c0-1.156,0.398-2.141,1.195-2.953c0.905-0.906,2.038-1.359,3.398-1.359
		c1.374,0,2.687,0.617,3.938,1.852c0.515,0.516,1.046,0.773,1.594,0.773c0.328,0,0.608-0.109,0.844-0.328
		c0.234-0.25,0.352-0.539,0.352-0.867c0-0.922-0.673-1.836-2.016-2.742c-0.938-0.625-2.134-1.141-3.586-1.547
		c-1.594-0.438-3.164-0.656-4.711-0.656c-1.485,0-2.845,0.18-4.078,0.539c-0.454,0.125-0.68,0.359-0.68,0.703
		c0,0.266,0.202,0.398,0.608,0.398c0.016,0,0.055,0,0.117,0c0.828-0.141,1.672-0.211,2.532-0.211c1.671,0,3.062,0.195,4.172,0.586
		C192.641,122.942,192.711,122.997,192.711,123.06L192.711,123.06z M186.641,143.497c-0.845,0.797-2.173,1.195-3.984,1.195
		c-1.392,0-2.493-0.219-3.305-0.656c-0.876-0.469-1.313-1.109-1.313-1.922c0-0.891,0.476-1.609,1.43-2.156
		c1.046-0.578,2.429-0.867,4.147-0.867c1.563,0,3.008,0.234,4.337,0.703C187.89,141.528,187.452,142.763,186.641,143.497
		L186.641,143.497z"/>
	<path fill="#083E00" d="M171.921,183.743c0.438-0.766,1.891-3.367,4.36-7.805c1.718-3.078,3.202-5.57,4.452-7.477
		c0.406-0.563,0.704-0.93,0.892-1.102s0.469-0.297,0.844-0.375c0.577-0.125,0.867-0.477,0.867-1.055
		c0-0.828-0.595-1.836-1.782-3.023c-1.156-1.219-2.305-1.828-3.445-1.828c-0.796,0-1.194,0.18-1.194,0.539
		c0,0.156,0.124,0.297,0.375,0.422c1.249,0.641,1.875,1.438,1.875,2.391c0,0.5-0.196,1.219-0.586,2.156
		c-1.125,2.469-2.751,5.75-4.875,9.844c-1.063,2.016-2.484,4.672-4.266,7.969c-2.923,5.406-4.594,8.492-5.017,9.258
		c-0.25,0.516-0.375,0.961-0.375,1.336c0,1.031,0.517,1.547,1.548,1.547c0.671,0,1.132-0.305,1.383-0.914
		c2.015-4.766,3.694-8.063,5.039-9.891c1.608-2.078,3.53-3.117,5.766-3.117c1.202,0,2.063,0.516,2.577,1.547
		c0.517,1,0.852,2.93,1.008,5.789c0.142,2.547,0.641,4.414,1.5,5.602c0.953,1.328,2.539,1.992,4.759,1.992
		c3.968,0,7.406-2.047,10.313-6.141c1.828-2.547,3.155-5.891,3.983-10.031c0.063-0.375,0.095-0.625,0.095-0.75
		c0-0.391-0.181-0.586-0.539-0.586c-0.267,0-0.469,0.227-0.61,0.68c-1.188,3.875-2.835,7.086-4.945,9.633
		c-1.077,1.281-2.343,2.32-3.796,3.117c-1.563,0.859-3.032,1.289-4.406,1.289c-1.266,0-2.212-0.43-2.836-1.289
		c-0.642-0.922-1.024-2.508-1.149-4.758c-0.125-2.109-0.585-3.797-1.382-5.063c-1.001-1.609-2.461-2.414-4.383-2.414
		c-2.329,0-4.298,0.852-5.906,2.555L171.921,183.743z"/>
	<path fill="#083E00" d="M194.469,218.058c-0.532,0.298-1.282,0.548-2.25,0.75l-20.836,5.32c-1.406,0.36-2.431,0.54-3.07,0.54
		c-0.609,0.016-1.148-0.095-1.617-0.328c-0.438-0.219-0.97-0.672-1.594-1.359c-0.281-0.282-0.493-0.423-0.633-0.423
		c-0.313,0-0.469,0.306-0.469,0.915c0,0.719,0.429,1.633,1.289,2.742c1.125,1.313,2.18,1.968,3.164,1.968
		c0.563,0,1.108-0.179,1.641-0.539c1.031-0.593,2.218-1.132,3.563-1.616c3.405-1.234,7.694-2.609,12.867-4.125l0.093,0.141
		c-2.577,1.438-4.663,3.359-6.258,5.765c-1.875,2.798-2.813,5.806-2.813,9.023c0,3.797,1.391,6.853,4.173,9.164
		c1.374,1.188,3.202,2.149,5.484,2.883c2.28,0.735,4.453,1.103,6.516,1.103c1.468,0,2.202-0.414,2.202-1.242
		c0-0.75-0.383-1.328-1.147-1.735c-0.876-0.468-2.095-0.741-3.657-0.82c-1.313-0.015-2.656-0.241-4.03-0.68
		c-1.72-0.546-3.157-1.313-4.313-2.297c-2.173-1.733-3.258-4.327-3.258-7.78c0-2.547,0.905-5.055,2.718-7.523
		c1.97-2.656,4.29-4.454,6.962-5.392c2.625-0.952,5.733-1.483,9.328-1.593c1.046-0.048,1.57-0.477,1.57-1.29
		c0-0.655-0.431-1.132-1.29-1.43c-1-0.421-1.914-0.633-2.741-0.633C195.483,217.565,194.952,217.73,194.469,218.058L194.469,218.058
		z"/>
	<path fill="#083E00" d="M192.711,265.512c3.328,1.875,5.796,4.664,7.405,8.367c0.517,1.156,1.25,1.734,2.204,1.734
		c0.546,0,1.008-0.195,1.383-0.586c0.452-0.469,0.68-1.07,0.68-1.805c0-1.688-1.055-3.391-3.164-5.109
		c-2.11-1.688-4.735-2.891-7.875-3.609c-0.094-0.016-0.196-0.023-0.305-0.023c-0.469,0-0.703,0.141-0.703,0.422
		C192.336,265.168,192.46,265.371,192.711,265.512L192.711,265.512z"/>
	<path fill="#083E00" d="M93.414,20.918c-0.032,0.5-0.11,0.977-0.234,1.43c-0.126,0.391-0.188,0.813-0.188,1.266
		c0,0.859,0.194,1.641,0.586,2.344c0.422,0.766,0.897,1.148,1.43,1.148c0.733,0,1.102-0.656,1.102-1.969
		c0-6.047,0.047-10.508,0.141-13.383c0.047-1.141,0.211-1.852,0.492-2.133c0.312-0.313,0.469-0.633,0.469-0.961
		c0-0.578-0.673-1.313-2.016-2.203c-1.329-0.859-2.454-1.289-3.375-1.289c-0.204,0-0.422,0.07-0.656,0.211
		c-0.328,0.203-0.492,0.422-0.492,0.656c0,0.188,0.211,0.359,0.633,0.516c0.874,0.375,1.5,0.844,1.875,1.406
		c0.281,0.391,0.422,1.266,0.422,2.625C93.602,13.988,93.538,17.434,93.414,20.918L93.414,20.918z M106.188,11.59
		c0,3.563-0.087,6.484-0.258,8.766c-0.313,3.969-1.148,7.148-2.508,9.539c-1.142,2.031-2.883,3.984-5.227,5.859
		c-2.672,2.125-5.517,3.695-8.531,4.711c-0.313,0.094-0.469,0.296-0.469,0.609c0,0.39,0.226,0.586,0.68,0.586
		c0.108,0,0.413-0.047,0.914-0.141c6.546-1.953,11.374-5.156,14.484-9.609c1.796-2.578,2.913-6.016,3.352-10.313
		c0.202-1.75,0.366-5.945,0.492-12.586c0.03-1.281,0.202-2.078,0.516-2.391c0.296-0.328,0.445-0.648,0.445-0.961
		c0-0.781-0.782-1.516-2.344-2.203c-1.438-0.641-2.578-0.961-3.422-0.961c-0.407,0-0.79,0.078-1.148,0.234
		c-0.422,0.203-0.633,0.43-0.633,0.68c0,0.313,0.211,0.516,0.633,0.609c1.219,0.344,2.016,0.727,2.391,1.148
		c0.422,0.453,0.633,1.242,0.633,2.367V11.59z"/>
	<path fill="#083E00" d="M110.078,66.614c0.375-0.624,0.874-1.055,1.5-1.289c0.797-0.328,1.195-0.68,1.195-1.055
		c0-0.563-0.445-1.172-1.336-1.828c-1.063-0.733-1.852-1.102-2.367-1.102c-0.251,0-0.548,0.181-0.891,0.539
		c-0.454,0.438-1.078,0.712-1.875,0.82l-10.992,1.148c-2.203,0.188-3.415,0.281-3.633,0.281c-1.188,0-2.391-0.609-3.609-1.828
		c-0.251-0.266-0.462-0.398-0.633-0.398c-0.281,0-0.422,0.243-0.422,0.727c0,0.891,0.398,1.743,1.195,2.555
		c1.296,1.345,2.397,2.016,3.305,2.016c0.405,0,0.804-0.108,1.195-0.328c0.343-0.219,0.891-0.398,1.641-0.539
		c6.593-1.219,10.992-1.828,13.195-1.828c0.155,0,0.234,0.032,0.234,0.094c0,0.079-0.079,0.258-0.234,0.539
		c-2.344,4.172-5.243,8.086-8.695,11.742c-4.125,4.392-9.454,8.376-15.984,11.953c-0.251,0.141-0.375,0.345-0.375,0.609
		c0,0.328,0.194,0.492,0.586,0.492c0.296,0,0.727-0.124,1.289-0.375c6.874-2.906,12.921-7.163,18.141-12.773
		c4.359,2.079,8.344,5.602,11.953,10.57c0.593,0.859,1.266,1.289,2.016,1.289c0.921,0,1.383-0.593,1.383-1.781
		c0-0.952-0.75-2.218-2.25-3.797c-2.813-2.844-6.813-5.32-12-7.43C106.249,72.389,108.405,69.38,110.078,66.614L110.078,66.614z"/>
	<path fill="#083E00" d="M102.438,124.556c-0.328-1.578-0.579-2.867-0.75-3.867c3.077-0.781,5.484-1.359,7.219-1.734
		c1.828-0.359,2.977-0.578,3.445-0.656c0.577-0.109,0.867-0.469,0.867-1.078s-0.415-1.023-1.242-1.242
		c-0.609-0.156-1.282-0.234-2.016-0.234c-0.595,0-1.142,0.195-1.641,0.586c-0.407,0.313-0.806,0.531-1.195,0.656
		c-2.829,0.875-4.767,1.438-5.813,1.688c-0.485-3-0.727-4.844-0.727-5.531c0-0.563,0.094-0.961,0.281-1.195
		c0.296-0.344,0.445-0.617,0.445-0.82c0-0.563-0.501-1.055-1.5-1.477c-1.345-0.578-2.642-0.867-3.891-0.867
		c-0.532,0-1.04,0.195-1.523,0.586c-0.422,0.328-0.633,0.563-0.633,0.703c0,0.266,0.164,0.398,0.492,0.398
		c0.952,0,1.671,0.109,2.156,0.328c0.563,0.281,0.929,0.813,1.102,1.594c0.624,2.641,1.102,4.922,1.43,6.844
		c-2.391,0.547-4.392,0.984-6,1.313c-1.078,0.25-1.985,0.375-2.719,0.375c-0.876,0-1.884-0.352-3.023-1.055
		c-0.313-0.188-0.509-0.281-0.586-0.281c-0.281,0-0.422,0.242-0.422,0.727c0,0.422,0.492,1.094,1.477,2.016
		c1.031,0.922,2.007,1.383,2.93,1.383c0.358,0,0.78-0.125,1.266-0.375c0.328-0.188,0.976-0.43,1.945-0.727
		c2.297-0.656,4.14-1.141,5.531-1.453c0.343,1.578,0.804,4,1.383,7.266c-1.376,0.328-3.009,0.734-4.898,1.219
		c-2.719,0.688-4.399,1.117-5.039,1.289c-1.125,0.25-2.103,0.375-2.93,0.375c-0.782,0-1.547-0.18-2.297-0.539
		c-0.267-0.125-0.462-0.188-0.586-0.188c-0.251,0-0.375,0.125-0.375,0.375c0,0.531,0.179,0.953,0.539,1.266
		c0.53,0.516,1.195,0.969,1.992,1.359c0.891,0.438,1.617,0.656,2.18,0.656c0.624,0,1.195-0.242,1.711-0.727
		c0.171-0.172,0.75-0.414,1.734-0.727c2.672-0.891,5.461-1.672,8.367-2.344c0.343,1.859,1.093,6.406,2.25,13.641
		c0.202,1.406,0.71,2.109,1.523,2.109c0.999,0,1.5-0.531,1.5-1.594c0-0.438-0.149-1.281-0.445-2.531
		c-0.97-4.469-1.798-8.539-2.484-12.211c4.155-0.859,7.304-1.406,9.445-1.641c0.671-0.094,1.647-0.141,2.93-0.141
		c1.062,0,1.594-0.398,1.594-1.195c0-0.516-0.352-0.961-1.055-1.336c-0.703-0.359-1.57-0.539-2.602-0.539
		c-0.642,0-1.165,0.164-1.57,0.492c-0.298,0.234-0.797,0.453-1.5,0.656c-1.969,0.547-4.493,1.141-7.57,1.781
		C103,127.259,102.766,126.134,102.438,124.556L102.438,124.556z"/>
	<path fill="#083E00" d="M102.086,170.731c0-0.516,0.03-1.352,0.094-2.508c0.062-0.719,0.272-1.281,0.633-1.688
		c0.405-0.484,0.609-0.93,0.609-1.336c0-0.922-1.04-1.961-3.117-3.117c-1.017-0.547-1.758-0.82-2.227-0.82
		c-0.454,0-0.79,0.063-1.008,0.188c-0.281,0.141-0.422,0.289-0.422,0.445c0,0.125,0.155,0.281,0.469,0.469
		c0.671,0.406,1.187,0.805,1.547,1.195c0.546,0.625,0.82,1.891,0.82,3.797v9.844c0,5.906-0.047,10.18-0.141,12.82
		c-0.079,1.297-0.181,2.125-0.305,2.484c-0.188,0.484-0.281,0.938-0.281,1.359c0,1.016,0.241,2.008,0.727,2.977
		c0.452,0.859,0.968,1.289,1.547,1.289c0.733,0,1.102-0.672,1.102-2.016l-0.023-3.023c-0.017-1.516-0.023-3.227-0.023-5.133v-8.742
		V170.731z"/>
	<path fill="#083E00" d="M84.391,242.769c-0.22,0.344-0.328,0.727-0.328,1.148c0,0.359,0.108,0.672,0.328,0.938
		c0.265,0.328,0.586,0.492,0.961,0.492c0.765,0,1.296-0.32,1.594-0.961c2.374-4.703,5.397-11.273,9.07-19.711
		c2.608-0.563,5.116-1.234,7.523-2.016c1.062-0.375,1.594-0.891,1.594-1.547c0-0.359-0.157-0.656-0.469-0.891
		c-0.313-0.266-0.673-0.398-1.078-0.398c-0.548,0-1.359,0.258-2.438,0.773c-1.438,0.656-2.798,1.164-4.078,1.523
		c0.218-0.484,0.46-1.047,0.727-1.688c0.405-0.938,0.624-1.445,0.656-1.523c0.499-1.094,0.914-1.75,1.242-1.969
		c0.39-0.266,0.586-0.633,0.586-1.102c0-0.516-0.516-1.016-1.547-1.5c-1.532-0.734-2.774-1.102-3.727-1.102
		c-1.095,0-1.641,0.289-1.641,0.867c0,0.125,0.124,0.219,0.375,0.281c0.593,0.094,1.202,0.336,1.828,0.727
		c0.577,0.359,0.867,0.758,0.867,1.195c0,0.531-0.079,1.094-0.234,1.688c-0.563,1.781-1.125,3.352-1.688,4.711
		c-2.688,0.563-4.828,0.82-6.422,0.773c-1.517,0-2.798-0.375-3.844-1.125c-0.298-0.188-0.539-0.281-0.727-0.281
		c-0.251,0-0.375,0.125-0.375,0.375c0,0.141,0.062,0.336,0.188,0.586c0.39,0.719,1.008,1.305,1.852,1.758
		c0.938,0.5,1.937,0.75,3,0.75c1.718,0,3.507-0.164,5.367-0.492C90.819,231.347,87.766,237.253,84.391,242.769L84.391,242.769z
		 M110.711,228.659c0,0.094-0.079,0.172-0.234,0.234c-1.798,0.516-3.117,1.219-3.961,2.109c-1.017,1.063-1.523,2.563-1.523,4.5
		c0,0.531,0.258,3.094,0.773,7.688c-0.984-0.219-2.384-0.328-4.195-0.328c-1.781,0-3.321,0.391-4.617,1.172
		c-1.594,0.969-2.391,2.258-2.391,3.867c0,1.172,0.499,2.172,1.5,3c1.219,1.031,2.913,1.547,5.086,1.547
		c2.672,0,4.594-0.609,5.766-1.828c0.938-1.016,1.46-2.469,1.57-4.359c1.969,0.766,4.242,2.156,6.82,4.172
		c0.405,0.313,0.827,0.492,1.266,0.539c0.952,0,1.43-0.461,1.43-1.383c0-0.656-0.274-1.219-0.82-1.688
		c-1.532-1.391-4.493-2.781-8.883-4.172c-0.079-0.453-0.211-1.117-0.398-1.992c-0.251-1.156-0.431-2.016-0.539-2.578
		c-0.36-1.953-0.539-3.57-0.539-4.852c0-1.156,0.398-2.141,1.195-2.953c0.905-0.906,2.039-1.359,3.398-1.359
		c1.374,0,2.687,0.617,3.938,1.852c0.516,0.516,1.046,0.773,1.594,0.773c0.328,0,0.609-0.109,0.844-0.328
		c0.234-0.25,0.352-0.539,0.352-0.867c0-0.922-0.673-1.836-2.016-2.742c-0.938-0.625-2.133-1.141-3.586-1.547
		c-1.594-0.438-3.164-0.656-4.711-0.656c-1.485,0-2.845,0.18-4.078,0.539c-0.454,0.125-0.68,0.359-0.68,0.703
		c0,0.266,0.202,0.398,0.609,0.398c0.015,0,0.054,0,0.117,0c0.827-0.141,1.671-0.211,2.531-0.211c1.671,0,3.062,0.195,4.172,0.586
		C110.641,228.542,110.711,228.597,110.711,228.659L110.711,228.659z M104.641,249.097c-0.844,0.797-2.173,1.195-3.984,1.195
		c-1.392,0-2.493-0.219-3.305-0.656c-0.876-0.469-1.313-1.109-1.313-1.922c0-0.891,0.476-1.609,1.43-2.156
		c1.046-0.578,2.429-0.867,4.148-0.867c1.562,0,3.007,0.234,4.336,0.703C105.89,247.128,105.452,248.362,104.641,249.097
		L104.641,249.097z"/>
	<path fill="#083E00" d="M98.805,275.933c-2.032,1.422-3.891,2.922-5.578,4.5c-0.251,0.25-0.375,0.492-0.375,0.727
		c0,0.25,0.141,0.375,0.422,0.375c0.296,0,0.554-0.078,0.773-0.234c2.14-1.625,4.031-2.906,5.672-3.844
		c1.187-0.672,2.438-1.148,3.75-1.43c2.046-0.453,3.788-0.742,5.227-0.867c1.28-0.109,1.922-0.586,1.922-1.43
		c0-0.719-0.352-1.219-1.055-1.5c-0.485-0.188-0.984-0.281-1.5-0.281c-0.532,0-1.04,0.078-1.523,0.234
		c-1.376,0.453-3.04,0.828-4.992,1.125c-1.985,0.25-3.492,0.375-4.523,0.375c-2.688,0-4.72-0.5-6.094-1.5
		c-0.298-0.219-0.539-0.328-0.727-0.328c-0.281,0-0.422,0.141-0.422,0.422c0,0.234,0.047,0.414,0.141,0.539
		c1.624,2.047,4.219,3.07,7.781,3.07c0.343,0,0.694-0.016,1.055-0.047L98.805,275.933z M88.352,287.933
		c-0.642,1.234-0.961,2.5-0.961,3.797c0,5.984,4.671,8.977,14.016,8.977c3.155,0,6.53-0.273,10.125-0.82
		c1.062-0.172,1.77-0.391,2.121-0.656s0.527-0.719,0.527-1.359c0-0.453-0.243-0.82-0.727-1.102
		c-0.485-0.281-1.125-0.422-1.922-0.422c-0.485,0-1.359,0.172-2.625,0.516c-2.016,0.578-4.992,0.867-8.93,0.867
		c-2.906,0-5.29-0.398-7.148-1.195c-2.563-1.109-3.844-2.891-3.844-5.344c0-0.844,0.188-1.805,0.563-2.883l0.234-0.609
		c0-0.328-0.228-0.492-0.68-0.492C88.835,287.206,88.586,287.448,88.352,287.933L88.352,287.933z"/>
	<path fill="#083E00" d="M88.352,348.608c0,2.719,1.21,4.688,3.633,5.906c2.14,1.063,5.414,1.594,9.82,1.594
		c3.563,0,6.422-0.164,8.578-0.492c0.984-0.125,1.664-0.289,2.039-0.492c0.437-0.219,0.656-0.586,0.656-1.102
		s-0.29-0.961-0.867-1.336c-0.626-0.422-1.345-0.633-2.156-0.633c-0.438,0-0.97,0.102-1.594,0.305
		c-2.188,0.672-5.227,1.008-9.117,1.008c-6.017,0-9.023-1.695-9.023-5.086c0-1.797,0.858-3.461,2.578-4.992
		c1.343-1.188,3.812-2.68,7.406-4.477c1.796-0.891,5.101-2.203,9.914-3.938c0.999-0.359,1.5-0.805,1.5-1.336
		c0-0.547-0.431-1.281-1.289-2.203c-1.282-1.281-2.508-1.922-3.68-1.922c-0.579,0-0.867,0.141-0.867,0.422
		c0,0.219,0.124,0.414,0.375,0.586c0.984,0.672,1.477,1.234,1.477,1.688c0,0.297-0.337,0.641-1.008,1.031
		c-1.907,1.109-3.946,2.18-6.117,3.211c-0.454,0.203-0.837,0.305-1.148,0.305c-0.047,0-0.094,0-0.141,0
		c-0.673-0.047-1.071-0.672-1.195-1.875c-0.173-2.156-0.258-4.281-0.258-6.375c0-1.094,0.015-2.219,0.047-3.375
		c0-0.406,0.108-0.773,0.328-1.102c0.343-0.453,0.516-0.82,0.516-1.102c0-0.516-0.321-1.039-0.961-1.57
		c-1.329-1.094-2.571-1.641-3.727-1.641c-0.422,0-0.844,0.102-1.266,0.305c-0.501,0.25-0.75,0.516-0.75,0.797
		c0,0.219,0.077,0.328,0.234,0.328c0.78,0.047,1.5,0.32,2.156,0.82c0.405,0.281,0.633,0.891,0.68,1.828
		c0.155,4.297,0.328,7.625,0.516,9.984c0.188,2.188,0.891,3.594,2.109,4.219C91.483,341.101,88.352,344.671,88.352,348.608
		L88.352,348.608z"/>
	<path fill="#083E00" d="M111.086,386.477c2.468-0.484,4.617-1.047,6.445-1.688c0.921-0.344,1.383-0.813,1.383-1.406
		c0-0.328-0.164-0.602-0.492-0.82s-0.727-0.328-1.195-0.328c-0.97,0-1.767,0.18-2.391,0.539c-0.75,0.406-1.228,0.648-1.43,0.727
		c-0.72,0.234-1.509,0.438-2.367,0.609c0-1.516,0.054-3.063,0.164-4.641c0.047-1,0.249-1.656,0.609-1.969
		c0.39-0.328,0.586-0.68,0.586-1.055c0-0.75-0.673-1.438-2.016-2.063c-1.157-0.578-2.259-0.867-3.305-0.867
		c-0.454,0-0.867,0.102-1.242,0.305c-0.422,0.234-0.633,0.484-0.633,0.75c0,0.328,0.202,0.492,0.609,0.492
		c0.952,0,1.711,0.188,2.273,0.563c0.375,0.281,0.577,0.891,0.609,1.828c0.124,2.75,0.188,5.117,0.188,7.102
		c-3,0.484-5.587,0.727-7.758,0.727c-1.61,0-2.859-0.609-3.75-1.828c-0.267-0.391-0.509-0.586-0.727-0.586
		c-0.281,0-0.422,0.148-0.422,0.445c0,0.188,0.047,0.422,0.141,0.703c0.921,2.25,2.602,3.375,5.039,3.375
		c2.515,0,5.022-0.18,7.523-0.539l0.141,13.406c-1.406-0.359-2.923-0.539-4.547-0.539c-2.001,0-3.603,0.383-4.805,1.148
		c-1.313,0.813-1.969,1.914-1.969,3.305c0,1.313,0.563,2.391,1.688,3.234c1.266,0.953,2.944,1.43,5.039,1.43
		c2.156,0,3.858-0.516,5.109-1.547c1.233-0.984,1.852-2.227,1.852-3.727c1.828,1.016,3.647,2.234,5.461,3.656
		c0.499,0.375,0.976,0.563,1.43,0.563c0.094,0,0.179-0.008,0.258-0.023c0.75-0.172,1.102-0.672,1.055-1.5
		c-0.063-0.5-0.337-0.945-0.82-1.336c-1.673-1.359-4.118-2.656-7.336-3.891C111.218,397.016,111.086,392.164,111.086,386.477
		L111.086,386.477z M107.828,405.555c-0.844,0.813-2.095,1.219-3.75,1.219c-3.234,0-4.852-0.914-4.852-2.742
		c0-0.75,0.39-1.359,1.172-1.828c0.797-0.469,1.835-0.703,3.117-0.703c1.828,0,3.647,0.352,5.461,1.055
		C108.977,403.836,108.593,404.836,107.828,405.555L107.828,405.555z M87.273,390.367c0.53-2.797,1.257-5.359,2.18-7.688
		c0.218-0.75,0.469-1.289,0.75-1.617c0.452-0.516,0.68-1.047,0.68-1.594c0-1.125-0.321-2.164-0.961-3.117
		c-0.609-0.969-1.282-1.711-2.016-2.227c-0.407-0.313-0.727-0.469-0.961-0.469c-0.375,0-0.563,0.156-0.563,0.469
		c0,0.125,0.077,0.32,0.234,0.586c0.733,1.203,1.102,2.336,1.102,3.398c0,1.031-0.258,2.445-0.773,4.242
		c-1.563,6-2.344,11.117-2.344,15.352c0,5.047,0.609,8.734,1.828,11.063c0.422,0.827,0.968,1.242,1.641,1.242
		c0.733,0,1.102-0.431,1.102-1.289l-0.047-2.883c0-0.281,0.141-1.102,0.422-2.461c0.094-0.422,0.991-3.641,2.695-9.656
		c0.062-0.188,0.094-0.344,0.094-0.469c0-0.422-0.141-0.633-0.422-0.633c-0.298,0-0.509,0.18-0.633,0.539
		c-1.298,3.141-2.501,6.375-3.609,9.703c-0.063,0.188-0.188,0.281-0.375,0.281c-0.173,0-0.321-0.289-0.445-0.867
		c-0.188-1-0.281-2.82-0.281-5.461C86.57,394.922,86.805,392.773,87.273,390.367L87.273,390.367z"/>
	<path fill="#083E00" d="M32.648,14.729c0,0.234,0.062,0.391,0.188,0.469c1.781,1.078,3.094,2.367,3.938,3.867
		c0.516,0.859,1.038,1.289,1.57,1.289c0.312,0,0.574-0.125,0.785-0.375s0.316-0.555,0.316-0.914c0-1.063-0.72-2.094-2.156-3.094
		c-1.095-0.75-2.227-1.281-3.398-1.594c-0.328-0.094-0.586-0.141-0.773-0.141C32.804,14.237,32.648,14.401,32.648,14.729
		L32.648,14.729z M28.57,17.729c0,0.188,0.094,0.352,0.281,0.492c1.641,1.203,2.827,2.5,3.563,3.891
		c0.546,1.047,1.069,1.57,1.57,1.57c0.797,0,1.195-0.461,1.195-1.383c0-0.969-0.688-2.008-2.063-3.117
		c-0.923-0.766-2.103-1.406-3.539-1.922c-0.094-0.031-0.258-0.047-0.492-0.047C28.741,17.214,28.57,17.386,28.57,17.729
		L28.57,17.729z M30.469,6.995c-0.532,0.297-1.282,0.547-2.25,0.75c-2.36,0.609-5.735,1.477-10.125,2.602
		c-4.969,1.266-8.54,2.172-10.711,2.719c-1.406,0.359-2.431,0.539-3.07,0.539c-0.609,0.016-1.148-0.094-1.617-0.328
		c-0.438-0.219-0.97-0.672-1.594-1.359c-0.281-0.281-0.492-0.422-0.633-0.422C0.155,11.495,0,11.8,0,12.409
		c0,0.719,0.429,1.633,1.289,2.742c1.125,1.313,2.18,1.969,3.164,1.969c0.563,0,1.108-0.18,1.641-0.539
		c1.031-0.594,2.218-1.133,3.563-1.617c3.375-1.219,7.664-2.594,12.867-4.125l0.094,0.141c-2.578,1.438-4.664,3.359-6.258,5.766
		c-1.875,2.797-2.813,5.805-2.813,9.023c0,3.797,1.39,6.852,4.172,9.164c1.374,1.188,3.202,2.148,5.484,2.883
		c2.28,0.734,4.453,1.102,6.516,1.102c1.468,0,2.203-0.414,2.203-1.242c0-0.75-0.384-1.328-1.148-1.734
		c-0.876-0.469-2.095-0.742-3.656-0.82c-1.313-0.016-2.657-0.242-4.031-0.68c-1.72-0.547-3.157-1.313-4.313-2.297
		c-2.173-1.734-3.258-4.328-3.258-7.781c0-2.547,0.905-5.055,2.719-7.523c1.969-2.672,4.289-4.469,6.961-5.391
		c2.625-0.953,5.733-1.484,9.328-1.594c1.046-0.047,1.57-0.477,1.57-1.289c0-0.656-0.431-1.133-1.289-1.43
		c-1.001-0.422-1.915-0.633-2.742-0.633C31.483,6.503,30.952,6.667,30.469,6.995L30.469,6.995z"/>
	<path fill="#083E00" d="M27.117,61.034c0.516-0.25,0.773-0.695,0.773-1.336c0-0.281-0.094-0.531-0.281-0.75
		c-0.251-0.266-0.571-0.398-0.961-0.398c-0.345,0-0.79,0.109-1.336,0.328c-0.703,0.266-1.282,0.602-1.734,1.008
		c-0.267,0.219-0.735,0.508-1.406,0.867c-0.938,0.5-1.978,0.961-3.117,1.383c-0.157-0.719-0.321-1.609-0.492-2.672
		c-0.11-0.688-0.164-1.148-0.164-1.383c0-0.219,0.038-0.43,0.117-0.633c0.171-0.438,0.258-0.789,0.258-1.055
		c0-0.5-0.492-0.93-1.477-1.289c-1.095-0.422-2.282-0.633-3.563-0.633c-0.642,0-1.219,0.203-1.734,0.609
		c-0.251,0.203-0.375,0.406-0.375,0.609c0,0.266,0.141,0.398,0.422,0.398c0.015,0,0.047,0,0.094,0
		c0.124,0.016,0.305,0.023,0.539,0.023c1.483,0,2.429,0.578,2.836,1.734c0.171,0.531,0.437,1.328,0.797,2.391
		c0.39,1.141,0.68,2.016,0.867,2.625c-3.36,1.219-6.157,1.828-8.391,1.828c-1.359,0-2.657-0.289-3.891-0.867
		c-0.313-0.125-0.524-0.188-0.633-0.188c-0.281,0-0.422,0.172-0.422,0.516c0,0.234,0.124,0.477,0.375,0.727
		c1.359,1.219,3.171,1.828,5.438,1.828c2.016,0,4.749-0.578,8.203-1.734c1.421,3.828,2.273,6.07,2.555,6.727
		c-3.11,1.047-5.915,1.57-8.414,1.57c-1.626,0-2.438-0.469-2.438-1.406c0-0.531,0.047-0.992,0.141-1.383
		c0.094-0.281,0.141-0.492,0.141-0.633c0-0.25-0.181-0.375-0.539-0.375c-0.188,0-0.392,0.195-0.609,0.586
		c-0.454,0.797-0.68,1.547-0.68,2.25c0,2.047,1.507,3.07,4.523,3.07c2.64,0,5.585-0.57,8.836-1.711
		c1.359,2.813,2.616,5.164,3.773,7.055c-2.079-0.359-4.556-0.539-7.43-0.539c-2.782,0-5.109,0.391-6.984,1.172
		c-2.735,1.125-4.102,2.922-4.102,5.391c0,2.531,1.477,4.492,4.43,5.883c2.625,1.233,5.789,1.852,9.492,1.852
		c1.53,0,2.578-0.087,3.141-0.258c0.656-0.22,0.984-0.68,0.984-1.383c0-1.078-0.813-1.617-2.438-1.617l-3.234,0.141
		c-2.313,0-4.313-0.219-6-0.656c-3.032-0.797-4.547-2.211-4.547-4.242c0-1.594,0.844-2.781,2.531-3.563
		c1.406-0.656,3.188-0.984,5.344-0.984c1.999,0,4.266,0.273,6.797,0.82c1.53,0.328,2.719,0.984,3.563,1.969
		c0.265,0.313,0.616,0.469,1.055,0.469c0.765,0,1.148-0.672,1.148-2.016c0-0.969-0.462-2.055-1.383-3.258
		c-1.767-2.297-3.243-4.602-4.43-6.914c2.953-1.156,5.578-2.563,7.875-4.219c0.516-0.359,0.773-0.82,0.773-1.383
		c0-0.219-0.134-0.422-0.398-0.609c-0.313-0.203-0.656-0.289-1.031-0.258c-0.141,0.016-0.368,0.039-0.68,0.07
		c-0.281,0.047-0.509,0.07-0.68,0.07c-0.313,0-0.773-0.117-1.383-0.352c-0.72-0.281-1.329-0.57-1.828-0.867
		c-0.328-0.156-0.571-0.234-0.727-0.234c-0.281,0-0.422,0.109-0.422,0.328c0,0.188,0.155,0.398,0.469,0.633
		c0.718,0.578,1.359,1.172,1.922,1.781c0.124,0.125,0.188,0.25,0.188,0.375c0,0.094-0.094,0.211-0.281,0.352
		c-1.188,0.781-2.759,1.578-4.711,2.391c-1.063-2.344-1.907-4.586-2.531-6.727C22.453,63.323,24.944,62.222,27.117,61.034
		L27.117,61.034z"/>
	<path fill="#083E00" d="M2.391,137.169c-0.22,0.344-0.328,0.727-0.328,1.148c0,0.359,0.108,0.672,0.328,0.938
		c0.265,0.328,0.586,0.492,0.961,0.492c0.765,0,1.296-0.32,1.594-0.961c2.374-4.703,5.397-11.273,9.07-19.711
		c2.608-0.563,5.116-1.234,7.523-2.016c1.062-0.375,1.594-0.891,1.594-1.547c0-0.359-0.157-0.656-0.469-0.891
		c-0.313-0.266-0.673-0.398-1.078-0.398c-0.548,0-1.359,0.258-2.438,0.773c-1.438,0.656-2.798,1.164-4.078,1.523
		c0.218-0.484,0.46-1.047,0.727-1.688c0.405-0.938,0.624-1.445,0.656-1.523c0.499-1.094,0.914-1.75,1.242-1.969
		c0.39-0.266,0.586-0.633,0.586-1.102c0-0.516-0.516-1.016-1.547-1.5c-1.532-0.734-2.774-1.102-3.727-1.102
		c-1.095,0-1.641,0.289-1.641,0.867c0,0.125,0.124,0.219,0.375,0.281c0.593,0.094,1.202,0.336,1.828,0.727
		c0.577,0.359,0.867,0.758,0.867,1.195c0,0.531-0.079,1.094-0.234,1.688c-0.563,1.781-1.125,3.352-1.688,4.711
		c-2.688,0.563-4.828,0.82-6.422,0.773c-1.517,0-2.798-0.375-3.844-1.125c-0.298-0.188-0.539-0.281-0.727-0.281
		c-0.251,0-0.375,0.125-0.375,0.375c0,0.141,0.062,0.336,0.188,0.586c0.39,0.719,1.008,1.305,1.852,1.758
		c0.938,0.5,1.937,0.75,3,0.75c1.718,0,3.507-0.164,5.367-0.492C8.819,125.747,5.766,131.653,2.391,137.169L2.391,137.169z
		 M28.711,123.06c0,0.094-0.079,0.172-0.234,0.234c-1.798,0.516-3.117,1.219-3.961,2.109c-1.017,1.063-1.523,2.563-1.523,4.5
		c0,0.531,0.258,3.094,0.773,7.688c-0.984-0.219-2.384-0.328-4.195-0.328c-1.781,0-3.321,0.391-4.617,1.172
		c-1.594,0.969-2.391,2.258-2.391,3.867c0,1.172,0.499,2.172,1.5,3c1.219,1.031,2.913,1.547,5.086,1.547
		c2.672,0,4.594-0.609,5.766-1.828c0.938-1.016,1.46-2.469,1.57-4.359c1.969,0.766,4.242,2.156,6.82,4.172
		c0.405,0.313,0.827,0.492,1.266,0.539c0.952,0,1.43-0.461,1.43-1.383c0-0.656-0.274-1.219-0.82-1.688
		c-1.532-1.391-4.493-2.781-8.883-4.172c-0.079-0.453-0.211-1.117-0.398-1.992c-0.251-1.156-0.431-2.016-0.539-2.578
		c-0.36-1.953-0.539-3.57-0.539-4.852c0-1.156,0.398-2.141,1.195-2.953c0.905-0.906,2.039-1.359,3.398-1.359
		c1.374,0,2.687,0.617,3.938,1.852c0.516,0.516,1.046,0.773,1.594,0.773c0.328,0,0.609-0.109,0.844-0.328
		c0.234-0.25,0.352-0.539,0.352-0.867c0-0.922-0.673-1.836-2.016-2.742c-0.938-0.625-2.133-1.141-3.586-1.547
		c-1.594-0.438-3.164-0.656-4.711-0.656c-1.485,0-2.845,0.18-4.078,0.539c-0.454,0.125-0.68,0.359-0.68,0.703
		c0,0.266,0.202,0.398,0.609,0.398c0.015,0,0.054,0,0.117,0c0.827-0.141,1.671-0.211,2.531-0.211c1.671,0,3.062,0.195,4.172,0.586
		C28.641,122.942,28.711,122.997,28.711,123.06L28.711,123.06z M22.641,143.497c-0.844,0.797-2.173,1.195-3.984,1.195
		c-1.392,0-2.493-0.219-3.305-0.656c-0.876-0.469-1.313-1.109-1.313-1.922c0-0.891,0.476-1.609,1.43-2.156
		c1.046-0.578,2.429-0.867,4.148-0.867c1.562,0,3.007,0.234,4.336,0.703C23.89,141.528,23.452,142.763,22.641,143.497
		L22.641,143.497z"/>
	<path fill="#083E00" d="M26.602,172.696c1.89,1.063,3.577,2.625,5.063,4.688c1.655,2.297,2.484,4.313,2.484,6.047
		c0,0.5-0.243,0.789-0.727,0.867c-0.563,0.078-1.781,0.227-3.656,0.445c-0.485,0.047-0.727,0.188-0.727,0.422
		c0,0.375,0.211,0.586,0.633,0.633c1.421,0.172,2.461,0.375,3.117,0.609c0.687,0.25,1.219,0.633,1.594,1.148
		c0.296,0.422,0.71,0.633,1.242,0.633c1.219,0,1.828-1.055,1.828-3.164c0-2.531-0.891-4.992-2.672-7.383
		c-1.969-2.641-4.523-4.609-7.664-5.906c-0.157-0.078-0.313-0.117-0.469-0.117c-0.36,0-0.539,0.117-0.539,0.352
		C26.109,172.267,26.273,172.509,26.602,172.696L26.602,172.696z M12.633,193.813c0-0.563-0.103-1.063-0.305-1.5
		c-0.126-0.297-0.188-0.664-0.188-1.102c0-0.219,0.164-0.813,0.492-1.781c0.891-2.594,2.156-5.313,3.797-8.156
		c0.188-0.375,0.281-0.656,0.281-0.844c0-0.328-0.181-0.492-0.539-0.492c-0.313,0-0.579,0.18-0.797,0.539
		c-2.188,3.453-3.938,6.359-5.25,8.719c-0.281,0.516-0.603,0.773-0.961,0.773c-0.75,0-1.54-0.867-2.367-2.602
		c-0.86-1.844-1.289-4.578-1.289-8.203c0-2.719,0.179-4.609,0.539-5.672c0.296-0.859,0.445-1.547,0.445-2.063
		c0-1.063-0.75-2.227-2.25-3.492c-1.204-1.031-2.165-1.547-2.883-1.547c-0.454,0-0.68,0.141-0.68,0.422
		c0,0.141,0.147,0.352,0.445,0.633c0.797,0.75,1.343,1.43,1.641,2.039c0.312,0.641,0.469,1.5,0.469,2.578l-0.07,3.938
		c0,3.75,0.258,6.805,0.773,9.164c0.733,3.328,2.093,5.984,4.078,7.969c1.28,1.281,2.358,1.922,3.234,1.922
		C12.171,195.056,12.633,194.642,12.633,193.813L12.633,193.813z"/>
</g>
</svg>
