<?xml version="1.0" encoding="utf-8"?>
<!-- Generator: Adobe Illustrator 14.0.0, SVG Export Plug-In . SVG Version: 6.00 Build 43363)  -->
<!DOCTYPE svg PUBLIC "-//W3C//DTD SVG 1.1 Basic//EN" "http://www.w3.org/Graphics/SVG/1.1/DTD/svg11-basic.dtd">
<svg version="1.1" baseProfile="basic" id="レイヤー_2"
	 xmlns="http://www.w3.org/2000/svg" xmlns:xlink="http://www.w3.org/1999/xlink" x="0px" y="0px" width="290.203px"
	 height="357.644px" viewBox="0 0 290.203 357.644" xml:space="preserve">
<g>
	<path fill="#083E00" d="M283.031,4.134c0,0.234,0.063,0.398,0.188,0.492c1.781,1.078,3.094,2.359,3.938,3.844
		c0.531,0.859,1.063,1.289,1.594,1.289c0.266,0,0.5-0.102,0.703-0.305c0.266-0.25,0.398-0.578,0.398-0.984
		c0-1.047-0.719-2.07-2.156-3.07c-1.094-0.75-2.234-1.281-3.422-1.594c-0.328-0.094-0.578-0.141-0.75-0.141
		C283.195,3.665,283.031,3.821,283.031,4.134L283.031,4.134z M278.953,7.181c0,0.172,0.094,0.328,0.281,0.469
		c1.656,1.203,2.844,2.5,3.563,3.891c0.547,1.063,1.078,1.594,1.594,1.594c0.797,0,1.195-0.461,1.195-1.383
		c0-0.969-0.688-2.016-2.063-3.141c-0.922-0.766-2.109-1.406-3.563-1.922c-0.094-0.031-0.25-0.047-0.469-0.047
		C279.132,6.642,278.953,6.821,278.953,7.181L278.953,7.181z M255.82,32.61c0,2.719,1.211,4.688,3.633,5.906
		c2.141,1.063,5.414,1.594,9.82,1.594c3.578,0,6.438-0.156,8.578-0.469c0.984-0.141,1.664-0.305,2.039-0.492
		c0.438-0.234,0.656-0.602,0.656-1.102c0-0.531-0.289-0.977-0.867-1.336c-0.625-0.422-1.344-0.633-2.156-0.633
		c-0.438,0-0.969,0.094-1.594,0.281c-2.188,0.672-5.227,1.008-9.117,1.008c-6.016,0-9.023-1.695-9.023-5.086
		c0-1.797,0.859-3.461,2.578-4.992c1.344-1.188,3.813-2.68,7.406-4.477c1.781-0.891,5.086-2.203,9.914-3.938
		c1-0.359,1.5-0.805,1.5-1.336c0-0.547-0.43-1.281-1.289-2.203c-1.281-1.281-2.508-1.922-3.68-1.922
		c-0.578,0-0.867,0.141-0.867,0.422c0,0.219,0.125,0.414,0.375,0.586c0.984,0.672,1.477,1.227,1.477,1.664
		c0,0.313-0.336,0.664-1.008,1.055c-1.906,1.109-3.945,2.18-6.117,3.211c-0.453,0.203-0.836,0.305-1.148,0.305
		c-0.047,0-0.094,0-0.141,0c-0.672-0.047-1.07-0.672-1.195-1.875c-0.172-2.141-0.258-4.266-0.258-6.375
		c0-1.094,0.016-2.219,0.047-3.375c0-0.406,0.109-0.773,0.328-1.102c0.344-0.453,0.516-0.82,0.516-1.102
		c0-0.516-0.32-1.039-0.961-1.57c-1.328-1.094-2.57-1.641-3.727-1.641c-0.422,0-0.844,0.102-1.266,0.305
		c-0.5,0.25-0.75,0.516-0.75,0.797c0,0.219,0.078,0.328,0.234,0.328c0.781,0.047,1.5,0.32,2.156,0.82
		c0.406,0.281,0.633,0.891,0.68,1.828c0.156,4.297,0.328,7.625,0.516,9.984c0.188,2.188,0.891,3.602,2.109,4.242
		C258.953,25.126,255.82,28.688,255.82,32.61L255.82,32.61z"/>
	<path fill="#083E00" d="M263.695,62.478c-0.281,0.203-0.422,0.398-0.422,0.586c0,0.328,0.203,0.492,0.609,0.492
		c0.141,0,0.289-0.039,0.445-0.117c1.703-0.906,3.211-1.602,4.523-2.086c0.969-0.359,2.219-0.539,3.75-0.539h0.984
		c1.031,0,1.547-0.43,1.547-1.289c0-0.656-0.352-1.125-1.055-1.406c-0.969-0.375-2.328-0.563-4.078-0.563
		c-2.656,0-4.836-0.805-6.539-2.414c-0.219-0.156-0.414-0.234-0.586-0.234c-0.25,0-0.375,0.141-0.375,0.422
		c0,0.141,0.047,0.305,0.141,0.492c0.984,1.797,2.859,3.078,5.625,3.844C266.593,60.728,265.07,61.665,263.695,62.478
		L263.695,62.478z M272.671,86.173c-2.109,3.063-5.117,5.539-9.023,7.43c-0.578,0.281-0.867,0.577-0.867,0.891
		c0,0.328,0.211,0.492,0.633,0.492c0.188,0,0.523-0.079,1.008-0.234c4.016-1.392,7.266-3.477,9.75-6.258
		c3.063-3.406,4.594-7.422,4.594-12.047c0-2.313-0.539-4.305-1.617-5.977c-1.406-2.219-3.461-3.328-6.164-3.328
		c-1.156,0-2.32,0.203-3.492,0.609c-1.031,0.375-2.648,1.156-4.852,2.344c-0.938,0.516-1.734,0.773-2.391,0.773
		c-0.25,0-0.5-0.188-0.75-0.563c-0.297-0.406-0.516-0.891-0.656-1.453c-0.047-0.344-0.172-0.516-0.375-0.516
		s-0.391,0.125-0.563,0.375c-0.203,0.297-0.305,0.68-0.305,1.148c0,1.188,0.516,2.375,1.547,3.563
		c0.563,0.672,1.133,1.008,1.711,1.008c0.625,0,1.203-0.336,1.734-1.008c0.172-0.203,0.547-0.555,1.125-1.055
		c0.281-0.25,0.5-0.438,0.656-0.563c2.469-2.016,4.594-3.023,6.375-3.023c1.672,0,2.945,0.711,3.82,2.133
		c0.813,1.313,1.219,3.063,1.219,5.25C275.789,79.853,274.75,83.188,272.671,86.173L272.671,86.173z"/>
	<path fill="#083E00" d="M259.804,120.292c-0.516-0.906-0.773-1.773-0.773-2.602c0-0.719,0.508-1.273,1.523-1.664
		c0.859-0.328,1.852-0.492,2.977-0.492c1.266,0,2.516,0.125,3.75,0.375c1.109,0.25,1.844,0.57,2.203,0.961
		c0.438,0.516,0.906,0.773,1.406,0.773c0.766,0,1.148-0.547,1.148-1.641c0-0.984-0.477-1.961-1.43-2.93
		c-1.906-1.891-2.984-3.484-3.234-4.781c-0.047-0.359-0.242-0.539-0.586-0.539s-0.516,0.398-0.516,1.195
		c0,0.656,0.164,1.438,0.492,2.344c0.391,1.063,0.883,1.961,1.477,2.695c-3.094,0.047-5.602,0.242-7.523,0.586
		c-1.031,0.188-1.883,0.695-2.555,1.523c-0.703,0.891-1.055,1.898-1.055,3.023c0,0.609,0.094,1.141,0.281,1.594
		c0.094,0.234,0.367,0.695,0.82,1.383c0.188,0.297,0.43,0.68,0.727,1.148c0.422,0.703,0.711,1.172,0.867,1.406
		c-1.594,0.844-2.844,1.469-3.75,1.875c-1.516,0.734-2.68,1.102-3.492,1.102c-0.969,0-1.805-0.43-2.508-1.289
		c-0.203-0.266-0.398-0.398-0.586-0.398c-0.281,0-0.422,0.227-0.422,0.68c0,0.422,0.148,0.891,0.445,1.406
		c0.359,0.656,0.836,1.195,1.43,1.617c1,0.828,2.023,1.242,3.07,1.242c0.516,0,0.977-0.227,1.383-0.68
		c0.063-0.063,0.672-0.492,1.828-1.289c0.594-0.375,1.813-1.141,3.656-2.297c3.047,5.797,5.594,12.313,7.641,19.547
		c0.234,0.891,0.727,1.336,1.477,1.336c1.063,0,1.594-0.578,1.594-1.734c0-0.703-0.398-2.141-1.195-4.313
		c-1.969-4.953-4.531-10.281-7.688-15.984c2.813-1.781,5.094-3.109,6.844-3.984c4.859-2.391,8.492-3.586,10.898-3.586
		c1.297,0,2.406,0.273,3.328,0.82c1.172,0.719,1.758,1.742,1.758,3.07c0,1.844-0.945,3.359-2.836,4.547
		c-2.094,1.375-4.656,2.063-7.688,2.063c-2.344,0-4.484-0.195-6.422-0.586c-0.125-0.031-0.25-0.047-0.375-0.047
		c-0.453,0-0.68,0.172-0.68,0.516c0,0.281,0.18,0.508,0.539,0.68c2.422,1.063,5.508,1.594,9.258,1.594c2.5,0,4.773-0.563,6.82-1.688
		c1.047-0.547,1.922-1.289,2.625-2.227c0.875-1.203,1.313-2.523,1.313-3.961c0-1.828-0.688-3.328-2.063-4.5
		c-1.438-1.219-3.266-1.828-5.484-1.828c-2.828,0-7.32,1.531-13.477,4.594c-1.563,0.75-3.336,1.664-5.32,2.742
		C261.07,122.581,260.429,121.448,259.804,120.292L259.804,120.292z"/>
	<path fill="#083E00" d="M258.796,170.094c-1.188,0.703-1.781,1.523-1.781,2.461l0.164,2.016c0,0.797-0.094,1.696-0.281,2.695
		c-0.813,4.61-1.219,8.188-1.219,10.734c0,1.157,0.211,2.056,0.633,2.695c0.422,0.735,0.852,1.102,1.289,1.102
		c0.688,0,1.18-0.366,1.477-1.102c0.203-0.499,1.023-1.538,2.461-3.117c1.672-1.89,3.516-3.46,5.531-4.711
		c2.609-1.641,5.07-2.461,7.383-2.461c1.594,0,2.961,0.438,4.102,1.313c1.359,1.048,2.039,2.454,2.039,4.219
		c0,1.688-0.43,3.149-1.289,4.383c-0.891,1.282-2.414,2.54-4.57,3.773c-3.594,2.063-8.086,3.438-13.477,4.125
		c-0.484,0.063-0.727,0.29-0.727,0.68c0,0.422,0.234,0.633,0.703,0.633c0.016,0,0.055,0,0.117,0
		c6.141-0.359,11.148-1.483,15.023-3.375c4.953-2.358,7.43-5.491,7.43-9.398c0-2.265-0.844-4.108-2.531-5.531
		c-1.797-1.5-4.109-2.25-6.938-2.25c-2.141,0-4.453,0.618-6.938,1.852c-2.297,1.125-5.195,3.04-8.695,5.742
		c-0.203,0.126-0.352,0.188-0.445,0.188s-0.141-0.194-0.141-0.586c0.125-3.171,0.352-5.726,0.68-7.664
		c0.328-2.016,0.492-3.202,0.492-3.563c0-0.563-0.133-1.132-0.398-1.711c-0.188-0.39-0.281-0.78-0.281-1.172
		c0-0.312,0.305-0.609,0.914-0.891c0.906-0.452,2-0.827,3.281-1.125c1.328-0.312,2.461-0.469,3.398-0.469
		c0.609,0,1.18,0.079,1.711,0.234c0.5,0.157,0.969,0.234,1.406,0.234c0.859,0,1.289-0.445,1.289-1.336
		c0-0.483-0.336-1.062-1.008-1.734c-0.641-0.593-1.5-1.085-2.578-1.477c-1.281-0.452-2.305-0.944-3.07-1.477
		c-1.078-0.75-1.961-1.781-2.648-3.094c-0.156-0.312-0.344-0.469-0.563-0.469c-0.297,0-0.445,0.173-0.445,0.516
		c0,0.032,0,0.07,0,0.117c0.094,1.266,0.719,2.602,1.875,4.008c0.641,0.813,1.594,1.603,2.859,2.367v0.141
		C262.515,168.345,260.437,169.173,258.796,170.094L258.796,170.094z"/>
	<path fill="#083E00" d="M278.531,213.147c3.328,1.875,5.797,4.664,7.406,8.367c0.516,1.156,1.25,1.734,2.203,1.734
		c0.547,0,1.008-0.195,1.383-0.586c0.453-0.469,0.68-1.07,0.68-1.805c0-1.688-1.055-3.391-3.164-5.109
		c-2.109-1.688-4.734-2.891-7.875-3.609c-0.094-0.016-0.195-0.023-0.305-0.023c-0.469,0-0.703,0.141-0.703,0.422
		C278.156,212.804,278.281,213.007,278.531,213.147L278.531,213.147z"/>
	<path fill="#083E00" d="M184.625,12.368c-2.031,1.422-3.891,2.922-5.578,4.5c-0.25,0.25-0.375,0.492-0.375,0.727
		c0,0.25,0.141,0.375,0.422,0.375c0.297,0,0.555-0.078,0.773-0.234c2.141-1.625,4.031-2.906,5.672-3.844
		c1.188-0.672,2.438-1.148,3.75-1.43c2.047-0.453,3.789-0.742,5.227-0.867c1.281-0.109,1.922-0.586,1.922-1.43
		c0-0.719-0.352-1.219-1.055-1.5c-0.484-0.188-0.984-0.281-1.5-0.281c-0.531,0-1.039,0.078-1.523,0.234
		c-1.375,0.453-3.039,0.828-4.992,1.125c-1.984,0.25-3.492,0.375-4.523,0.375c-2.688,0-4.719-0.5-6.094-1.5
		c-0.297-0.219-0.539-0.328-0.727-0.328c-0.281,0-0.422,0.141-0.422,0.422c0,0.234,0.047,0.414,0.141,0.539
		c1.625,2.047,4.219,3.07,7.781,3.07c0.344,0,0.695-0.016,1.055-0.047L184.625,12.368z M174.171,24.368
		c-0.641,1.234-0.961,2.5-0.961,3.797c0,5.984,4.672,8.977,14.016,8.977c3.156,0,6.531-0.273,10.125-0.82
		c1.063-0.172,1.77-0.391,2.121-0.656S200,34.946,200,34.306c0-0.453-0.242-0.82-0.727-1.102s-1.125-0.422-1.922-0.422
		c-0.484,0-1.359,0.172-2.625,0.516c-2.016,0.578-4.992,0.867-8.93,0.867c-2.906,0-5.289-0.398-7.148-1.195
		c-2.563-1.109-3.844-2.891-3.844-5.344c0-0.844,0.188-1.805,0.563-2.883l0.234-0.609c0-0.328-0.227-0.492-0.68-0.492
		C174.656,23.642,174.406,23.884,174.171,24.368L174.171,24.368z"/>
	<path fill="#083E00" d="M187.226,62.647c0.453,0,0.883,0.016,1.289,0.047c3.469,0.172,6.344,1.234,8.625,3.188
		c2.703,2.313,4.055,5.391,4.055,9.234c0,4.016-1.648,7.375-4.945,10.078c-3.078,2.516-7.164,4.211-12.258,5.086
		c-0.547,0.125-0.82,0.383-0.82,0.773c0,0.359,0.234,0.539,0.703,0.539c0.031,0,0.07,0,0.117,0c5.047-0.281,9.406-1.531,13.078-3.75
		c4.859-2.922,7.289-6.891,7.289-11.906c0-4.047-1.344-7.445-4.031-10.195c-3.109-3.188-7.242-4.781-12.398-4.781
		c-5.594,0-10.234,1.727-13.922,5.18c-3.484,3.281-5.227,7.25-5.227,11.906c0,2.438,0.563,4.547,1.688,6.328
		c1.109,1.672,2.391,2.508,3.844,2.508c1.406,0,2.984-1.07,4.734-3.211c2.953-3.734,5.258-7.977,6.914-12.727
		c0.609-1.953,0.914-3.523,0.914-4.711c0-1.359-0.32-2.539-0.961-3.539C186.32,62.663,186.757,62.647,187.226,62.647L187.226,62.647
		z M185,64.897c0,1-0.227,2.148-0.68,3.445c-1.484,4.531-3.688,8.727-6.609,12.586c-1.406,1.859-2.531,2.789-3.375,2.789
		c-0.906,0-1.656-0.547-2.25-1.641c-0.766-1.484-1.148-3.102-1.148-4.852c0-3.688,1.297-6.852,3.891-9.492
		c2.531-2.594,5.734-4.211,9.609-4.852C184.812,63.257,185,63.929,185,64.897L185,64.897z"/>
	<path fill="#083E00" d="M169.226,126.607c-1.125,0-2.398-0.108-3.82-0.328l0.469,1.805c1.031-0.188,2.172-0.281,3.422-0.281h9.445
		c-0.156,4.345-0.781,7.767-1.875,10.266c-0.953,2.203-2.297,4.094-4.031,5.672c-1.953,1.813-4.602,3.406-7.945,4.781
		c-0.078,0.031-0.117,0.094-0.117,0.188c0,0.375,0.133,0.539,0.398,0.492c6.797-1.703,11.445-4.805,13.945-9.305
		c1.672-3.047,2.602-7.078,2.789-12.094h7.242v10.266l-0.094,5.672c0,1.641,0.5,2.781,1.5,3.422c1.172,0.75,3.633,1.125,7.383,1.125
		c3.531,0,6-0.195,7.406-0.586c1.625-0.313,2.438-1,2.438-2.063c0-0.594-0.242-0.977-0.727-1.148
		c-0.563-0.203-0.859-0.633-0.891-1.289c-0.016-0.219-0.023-0.477-0.023-0.773c0-0.469,0.031-1.805,0.094-4.008
		c0-0.172-0.102-0.258-0.305-0.258c-0.141,0-0.234,0.056-0.281,0.164c-1,3.625-1.828,5.742-2.484,6.352
		c-0.594,0.516-2.352,0.773-5.273,0.773c-2.297,0-3.828-0.141-4.594-0.422c-0.75-0.266-1.125-0.875-1.125-1.828v-15.398h14.977
		c0.422,0,0.633-0.141,0.633-0.422c0-0.313-0.414-0.812-1.242-1.5c-1.594-1.313-2.523-1.969-2.789-1.969s-1.18,0.899-2.742,2.695
		h-13.242v-9.656h14.859c0.453,0,0.68-0.156,0.68-0.469c0-0.281-0.383-0.727-1.148-1.336c-1.5-1.219-2.383-1.828-2.648-1.828
		c-0.234,0-1.047,0.813-2.438,2.438h-9.305v-6.867c1.109-0.406,1.664-0.82,1.664-1.242c0-0.297-0.234-0.531-0.703-0.703
		c-0.656-0.219-2.063-0.453-4.219-0.703c0.156,1.25,0.234,3.571,0.234,6.961v2.555h-9.07c0.984-1.813,1.766-3.523,2.344-5.133
		c1.156-0.188,1.734-0.508,1.734-0.961c0-0.516-1.484-1.125-4.453-1.828c-0.266,1.734-0.703,3.445-1.313,5.133
		c-1.547,4.172-3.789,7.82-6.727,10.945c-0.031,0.047-0.047,0.094-0.047,0.141c0,0.25,0.125,0.375,0.375,0.375
		c0.047,0,0.086-0.008,0.117-0.023c2.844-1.875,5.258-4.359,7.242-7.453h9.797v9.656H169.226z"/>
	<path fill="#083E00" d="M187.226,168.248c0.453,0,0.883,0.016,1.289,0.047c3.469,0.172,6.344,1.234,8.625,3.188
		c2.703,2.313,4.055,5.391,4.055,9.234c0,4.016-1.648,7.375-4.945,10.078c-3.078,2.516-7.164,4.211-12.258,5.086
		c-0.547,0.125-0.82,0.383-0.82,0.773c0,0.359,0.234,0.539,0.703,0.539c0.031,0,0.07,0,0.117,0c5.047-0.281,9.406-1.531,13.078-3.75
		c4.859-2.922,7.289-6.891,7.289-11.906c0-4.047-1.344-7.445-4.031-10.195c-3.109-3.188-7.242-4.781-12.398-4.781
		c-5.594,0-10.234,1.727-13.922,5.18c-3.484,3.281-5.227,7.25-5.227,11.906c0,2.438,0.563,4.547,1.688,6.328
		c1.109,1.672,2.391,2.508,3.844,2.508c1.406,0,2.984-1.07,4.734-3.211c2.953-3.734,5.258-7.977,6.914-12.727
		c0.609-1.953,0.914-3.523,0.914-4.711c0-1.359-0.32-2.539-0.961-3.539C186.32,168.264,186.757,168.248,187.226,168.248
		L187.226,168.248z M185,170.498c0,1-0.227,2.148-0.68,3.445c-1.484,4.531-3.688,8.727-6.609,12.586
		c-1.406,1.859-2.531,2.789-3.375,2.789c-0.906,0-1.656-0.547-2.25-1.641c-0.766-1.484-1.148-3.102-1.148-4.852
		c0-3.688,1.297-6.852,3.891-9.492c2.531-2.594,5.734-4.211,9.609-4.852C184.812,168.857,185,169.529,185,170.498L185,170.498z"/>
	<path fill="#083E00" d="M191.468,240.079c3.219,5.578,7.219,9.852,12,12.82c1.063,0.672,1.75,1.008,2.063,1.008
		c0.344,0,0.609-0.242,0.797-0.727c0.25-0.656,0.516-1.117,0.797-1.383c0.281-0.281,0.719-0.492,1.313-0.633
		c0.188-0.031,0.281-0.141,0.281-0.328c0-0.125-0.055-0.203-0.164-0.234c-5.797-2.047-10.523-5.523-14.18-10.43
		c-2.031-2.703-3.602-5.508-4.711-8.414c-1.438-3.719-2.281-7.945-2.531-12.68c0.016-0.375,0.023-0.914,0.023-1.617
		c0.016-0.828,0.031-1.445,0.047-1.852c1.141-0.453,1.711-0.852,1.711-1.195c0-0.359-0.281-0.625-0.844-0.797
		c-0.641-0.188-2.094-0.383-4.359-0.586c0.141,1.078,0.211,2.281,0.211,3.609c0,2.016-0.141,4.297-0.422,6.844
		c-0.688,6.344-2.328,11.828-4.922,16.453c-2.922,5.234-7.344,9.805-13.266,13.711c-0.047,0.031-0.07,0.086-0.07,0.164
		c0,0.328,0.125,0.492,0.375,0.492c0.031,0,0.063-0.008,0.094-0.023c6-2.953,10.633-6.547,13.898-10.781
		c3.766-4.875,6.125-11.148,7.078-18.82C187.39,230.603,188.984,235.735,191.468,240.079L191.468,240.079z"/>
	<path fill="#083E00" d="M169.976,303.755c-1.578,0-3.063-0.094-4.453-0.281l0.469,1.805c1.344-0.219,2.672-0.328,3.984-0.328
		h37.008c0.453,0,0.68-0.141,0.68-0.422s-0.469-0.797-1.406-1.547c-1.672-1.375-2.633-2.063-2.883-2.063
		c-0.234,0-1.18,0.945-2.836,2.836h-12.516v-13.219h14.789c0.406,0,0.609-0.141,0.609-0.422c0-0.313-0.383-0.781-1.148-1.406
		c-1.625-1.344-2.555-2.016-2.789-2.016s-1.109,0.883-2.625,2.648h-8.836v-11.18h16.172c0.422,0,0.633-0.141,0.633-0.422
		c0-0.313-0.414-0.813-1.242-1.5c-1.656-1.375-2.602-2.063-2.836-2.063c-0.219,0-1.117,0.93-2.695,2.789h-10.031v-9.445
		c1.188-0.469,1.781-0.922,1.781-1.359c0-0.297-0.242-0.523-0.727-0.68c-0.672-0.219-2.125-0.438-4.359-0.656
		c0.188,1.5,0.281,5.227,0.281,11.18v0.961h-9.75c0.953-2.016,1.758-3.938,2.414-5.766c1.25-0.297,1.875-0.617,1.875-0.961
		c0-0.281-0.25-0.539-0.75-0.773c-0.484-0.234-1.789-0.68-3.914-1.336c-0.203,1.469-0.539,2.992-1.008,4.57
		c-1.922,5.984-4.563,11.016-7.922,15.094c-0.031,0.047-0.047,0.086-0.047,0.117c0,0.25,0.141,0.375,0.422,0.375
		c0.063,0,0.109-0.016,0.141-0.047c3.391-2.875,6.117-6.234,8.18-10.078H185v11.18h-9.469c-1.406,0-2.766-0.094-4.078-0.281
		l0.492,1.758c1.156-0.188,2.375-0.281,3.656-0.281H185v13.219H169.976z"/>
	<path fill="#083E00" d="M196.906,334.112c2.469-0.484,4.617-1.047,6.445-1.688c0.922-0.344,1.383-0.813,1.383-1.406
		c0-0.328-0.164-0.602-0.492-0.82s-0.727-0.328-1.195-0.328c-0.969,0-1.766,0.18-2.391,0.538c-0.75,0.407-1.227,0.649-1.43,0.728
		c-0.719,0.234-1.508,0.438-2.367,0.609c0-1.516,0.055-3.063,0.164-4.641c0.047-1,0.25-1.656,0.609-1.969
		c0.391-0.328,0.586-0.68,0.586-1.055c0-0.75-0.672-1.438-2.016-2.063c-1.156-0.578-2.258-0.867-3.305-0.867
		c-0.453,0-0.867,0.102-1.242,0.305c-0.422,0.234-0.633,0.484-0.633,0.75c0,0.327,0.203,0.492,0.609,0.492
		c0.953,0,1.711,0.188,2.273,0.563c0.375,0.281,0.578,0.891,0.609,1.828c0.125,2.75,0.188,5.117,0.188,7.102
		c-3,0.484-5.586,0.727-7.758,0.727c-1.609,0-2.859-0.609-3.75-1.828c-0.266-0.391-0.508-0.586-0.727-0.586
		c-0.281,0-0.422,0.148-0.422,0.445c0,0.188,0.047,0.422,0.141,0.703c0.922,2.25,2.602,3.375,5.039,3.375
		c2.516,0,5.023-0.18,7.523-0.539l0.141,13.406c-1.406-0.359-2.922-0.539-4.547-0.539c-2,0-3.602,0.383-4.805,1.148
		c-1.313,0.813-1.969,1.914-1.969,3.305c0,1.313,0.563,2.391,1.688,3.234c1.266,0.953,2.945,1.429,5.039,1.429
		c2.156,0,3.859-0.515,5.109-1.546c1.234-0.984,1.852-2.227,1.852-3.727c1.828,1.016,3.648,2.234,5.461,3.656
		c0.5,0.375,0.977,0.563,1.43,0.563c0.094,0,0.18-0.008,0.258-0.023c0.75-0.172,1.102-0.672,1.055-1.5
		c-0.063-0.5-0.336-0.945-0.82-1.336c-1.672-1.359-4.117-2.656-7.336-3.891C197.039,344.651,196.906,339.8,196.906,334.112
		L196.906,334.112z M193.648,353.19c-0.844,0.813-2.094,1.218-3.75,1.218c-3.234,0-4.852-0.913-4.852-2.741
		c0-0.75,0.391-1.359,1.172-1.828c0.797-0.469,1.836-0.703,3.117-0.703c1.828,0,3.648,0.352,5.461,1.055
		C194.796,351.472,194.414,352.472,193.648,353.19L193.648,353.19z M173.093,338.003c0.531-2.797,1.258-5.359,2.18-7.688
		c0.219-0.75,0.469-1.289,0.75-1.617c0.453-0.516,0.68-1.047,0.68-1.594c0-1.125-0.32-2.164-0.961-3.117
		c-0.609-0.969-1.281-1.711-2.016-2.227c-0.406-0.313-0.727-0.469-0.961-0.469c-0.375,0-0.563,0.156-0.563,0.469
		c0,0.125,0.078,0.32,0.234,0.585c0.734,1.204,1.102,2.337,1.102,3.399c0,1.031-0.258,2.445-0.773,4.242
		c-1.563,6-2.344,11.117-2.344,15.352c0,5.047,0.609,8.734,1.828,11.063c0.422,0.827,0.969,1.242,1.641,1.242
		c0.734,0,1.102-0.431,1.102-1.289l-0.047-2.884c0-0.28,0.141-1.101,0.422-2.46c0.094-0.422,0.992-3.641,2.695-9.656
		c0.063-0.188,0.094-0.344,0.094-0.469c0-0.422-0.141-0.633-0.422-0.633c-0.297,0-0.508,0.18-0.633,0.539
		c-1.297,3.141-2.5,6.375-3.609,9.703c-0.063,0.188-0.188,0.281-0.375,0.281c-0.172,0-0.32-0.289-0.445-0.868
		c-0.188-0.999-0.281-2.819-0.281-5.46C172.39,342.558,172.625,340.409,173.093,338.003L173.093,338.003z"/>
	<path fill="#083E00" d="M91.586,3.199c1.156-0.265,1.734-0.601,1.734-1.008c0-0.249-0.195-0.469-0.586-0.656
		c-0.516-0.218-1.781-0.57-3.797-1.055c-0.078,1.047-0.289,2.406-0.633,4.078c-0.469,1.984-1.156,4.023-2.063,6.117
		c-1.031,2.438-2.156,4.469-3.375,6.094c-0.016,0.032-0.023,0.07-0.023,0.117c0,0.25,0.133,0.375,0.398,0.375
		c0.063,0,0.117-0.015,0.164-0.047c2.141-1.905,3.969-4.272,5.484-7.102h2.742c0,3.923-0.125,7.462-0.375,10.617h-4.664
		c-1.078,0-2.297-0.108-3.656-0.328l0.492,1.805c1-0.188,2.055-0.281,3.164-0.281h4.547l-0.234,1.875
		c-0.516,3.548-1.344,6.633-2.484,9.258c-1.297,2.969-3.188,5.759-5.672,8.367c-0.031,0.031-0.047,0.07-0.047,0.117
		c0,0.297,0.141,0.445,0.422,0.445c0.031,0,0.07-0.008,0.117-0.023c2.422-1.781,4.383-3.734,5.883-5.859
		c1.688-2.375,2.953-5.211,3.797-8.508c1.938,1.75,3.43,4.134,4.477,7.148c0.438,1.313,0.961,1.969,1.57,1.969
		c0.469,0,0.852-0.184,1.148-0.551c0.297-0.366,0.445-0.823,0.445-1.371c0-1.125-0.563-2.367-1.688-3.727
		c-1.406-1.719-3.328-3.148-5.766-4.289c0.25-1.093,0.43-2.007,0.539-2.742c0.063-0.453,0.156-1.155,0.281-2.109h7.406
		c0.406,0,0.609-0.155,0.609-0.469c0-0.281-0.336-0.718-1.008-1.313c-1.328-1.125-2.125-1.688-2.391-1.688
		c-0.281,0-1.016,0.759-2.203,2.273H94.07c0.234-2.344,0.383-5.883,0.445-10.617h6.328c0.422,0,0.633-0.155,0.633-0.469
		c0-0.234-0.32-0.647-0.961-1.242c-1.297-1.093-2.063-1.641-2.297-1.641c-0.313,0-1.039,0.719-2.18,2.156h-6.563
		C90.32,7.012,91.023,5.106,91.586,3.199L91.586,3.199z M119.031,25.465c0,0.672,0.414,1.008,1.242,1.008
		c1.125,0,1.688-0.413,1.688-1.242l-0.141-7.547v-2.766c0.828-0.563,1.242-0.991,1.242-1.289c0-0.265-0.273-0.633-0.82-1.102
		c-1.047-0.828-1.672-1.242-1.875-1.242c-0.156,0-0.727,0.492-1.711,1.477h-12.164c-0.953-0.53-2.086-1.093-3.398-1.688
		c0.156,1.438,0.234,3.759,0.234,6.961l-0.141,7.758c0,0.672,0.398,1.008,1.195,1.008c1.156,0,1.734-0.413,1.734-1.242v-0.82h12.914
		V25.465z M106.117,23.543v-9.586h12.914v9.586H106.117z M102.133,40.395c-1.063,0-2.289-0.109-3.68-0.328l0.422,1.805
		c1.047-0.188,2.133-0.281,3.258-0.281h24.164c0.438,0,0.656-0.156,0.656-0.469c0-0.281-0.383-0.75-1.148-1.406
		c-1.547-1.313-2.43-1.969-2.648-1.969c-0.266,0-1.109,0.884-2.531,2.648h-6.375c1.906-2.78,3.695-5.93,5.367-9.445
		c1.047-0.172,1.57-0.46,1.57-0.867c0-0.249-0.352-0.563-1.055-0.938c-0.844-0.437-1.945-0.827-3.305-1.172
		c-0.063,0.642-0.289,1.774-0.68,3.398c-0.578,2.329-1.633,5.336-3.164,9.023H102.133z M107.57,35.988
		c0.047,1.345,0.508,2.016,1.383,2.016c0.484,0,0.883-0.188,1.195-0.563c0.359-0.437,0.539-1.031,0.539-1.781
		c0-1.063-0.359-2.211-1.078-3.445c-0.875-1.515-2.047-2.742-3.516-3.68c-0.047-0.03-0.094-0.047-0.141-0.047
		c-0.203,0-0.305,0.086-0.305,0.258v0.094C106.82,30.996,107.461,33.38,107.57,35.988L107.57,35.988z M104.828,5.824h20.461
		c0.406,0,0.609-0.155,0.609-0.469c0-0.281-0.383-0.727-1.148-1.336c-1.531-1.219-2.414-1.828-2.648-1.828
		c-0.266,0-1.078,0.813-2.438,2.438h-14.836c-1.078,0-2.313-0.108-3.703-0.328l0.492,1.805
		C102.617,5.918,103.688,5.824,104.828,5.824L104.828,5.824z"/>
	<path fill="#083E00" d="M112.422,67.531c1.891,1.063,3.578,2.625,5.063,4.688c1.656,2.297,2.484,4.313,2.484,6.047
		c0,0.501-0.242,0.789-0.727,0.867c-0.563,0.079-1.781,0.227-3.656,0.445c-0.484,0.047-0.727,0.188-0.727,0.422
		c0,0.375,0.211,0.586,0.633,0.633c1.422,0.173,2.461,0.375,3.117,0.609c0.688,0.25,1.219,0.633,1.594,1.148
		c0.297,0.422,0.711,0.633,1.242,0.633c1.219,0,1.828-1.055,1.828-3.164c0-2.531-0.891-4.992-2.672-7.383
		c-1.969-2.64-4.523-4.608-7.664-5.906c-0.156-0.078-0.313-0.117-0.469-0.117c-0.359,0-0.539,0.117-0.539,0.352
		C111.93,67.102,112.094,67.344,112.422,67.531L112.422,67.531z M98.453,88.648c0-0.563-0.102-1.063-0.305-1.5
		c-0.125-0.296-0.188-0.664-0.188-1.102c0-0.219,0.164-0.812,0.492-1.781c0.891-2.593,2.156-5.312,3.797-8.156
		c0.188-0.375,0.281-0.656,0.281-0.844c0-0.328-0.18-0.492-0.539-0.492c-0.313,0-0.578,0.18-0.797,0.539
		c-2.188,3.454-3.938,6.36-5.25,8.719c-0.281,0.516-0.602,0.773-0.961,0.773c-0.75,0-1.539-0.867-2.367-2.602
		c-0.859-1.843-1.289-4.578-1.289-8.203c0-2.719,0.18-4.608,0.539-5.672c0.297-0.858,0.445-1.547,0.445-2.063
		c0-1.063-0.75-2.227-2.25-3.492c-1.203-1.031-2.164-1.547-2.883-1.547c-0.453,0-0.68,0.141-0.68,0.422
		c0,0.141,0.148,0.352,0.445,0.633c0.797,0.75,1.344,1.43,1.641,2.039c0.313,0.642,0.469,1.5,0.469,2.578l-0.07,3.938
		c0,3.75,0.258,6.806,0.773,9.164c0.734,3.328,2.094,5.985,4.078,7.969c1.281,1.281,2.359,1.922,3.234,1.922
		C97.992,89.891,98.453,89.478,98.453,88.648L98.453,88.648z"/>
	<path fill="#083E00" d="M94.797,117.294c-1.188,0.703-1.781,1.523-1.781,2.461l0.164,2.016c0,0.797-0.094,1.695-0.281,2.695
		c-0.813,4.609-1.219,8.188-1.219,10.734c0,1.156,0.211,2.055,0.633,2.695c0.422,0.734,0.852,1.102,1.289,1.102
		c0.688,0,1.18-0.367,1.477-1.102c0.203-0.5,1.023-1.539,2.461-3.117c1.672-1.891,3.516-3.461,5.531-4.711
		c2.609-1.641,5.07-2.461,7.383-2.461c1.594,0,2.961,0.438,4.102,1.313c1.359,1.047,2.039,2.453,2.039,4.219
		c0,1.688-0.43,3.148-1.289,4.383c-0.891,1.281-2.414,2.539-4.57,3.773c-3.594,2.063-8.086,3.438-13.477,4.125
		c-0.484,0.063-0.727,0.289-0.727,0.68c0,0.422,0.234,0.633,0.703,0.633c0.016,0,0.055,0,0.117,0
		c6.141-0.359,11.148-1.484,15.023-3.375c4.953-2.359,7.43-5.492,7.43-9.398c0-2.266-0.844-4.109-2.531-5.531
		c-1.797-1.5-4.109-2.25-6.938-2.25c-2.141,0-4.453,0.617-6.938,1.852c-2.297,1.125-5.195,3.039-8.695,5.742
		c-0.203,0.125-0.352,0.188-0.445,0.188s-0.141-0.195-0.141-0.586c0.125-3.172,0.352-5.727,0.68-7.664
		c0.328-2.016,0.492-3.203,0.492-3.563c0-0.563-0.133-1.133-0.398-1.711c-0.188-0.391-0.281-0.781-0.281-1.172
		c0-0.313,0.305-0.609,0.914-0.891c0.906-0.453,2-0.828,3.281-1.125c1.328-0.313,2.461-0.469,3.398-0.469
		c0.609,0,1.18,0.078,1.711,0.234c0.5,0.156,0.969,0.234,1.406,0.234c0.859,0,1.289-0.445,1.289-1.336
		c0-0.484-0.336-1.063-1.008-1.734c-0.641-0.594-1.5-1.086-2.578-1.477c-1.281-0.453-2.305-0.945-3.07-1.477
		c-1.078-0.75-1.961-1.781-2.648-3.094c-0.156-0.313-0.344-0.469-0.563-0.469c-0.297,0-0.445,0.172-0.445,0.516
		c0,0.031,0,0.07,0,0.117c0.094,1.266,0.719,2.602,1.875,4.008c0.641,0.813,1.594,1.602,2.859,2.367v0.141
		C98.516,115.544,96.438,116.372,94.797,117.294L94.797,117.294z"/>
	<path fill="#083E00" d="M112,196.108c3.703-1.859,6.773-4.367,9.211-7.523c0.219-0.281,0.328-0.516,0.328-0.703
		c0-0.328-0.156-0.492-0.469-0.492c-0.266,0-0.508,0.109-0.727,0.328c-2.453,2.313-5.086,4.188-7.898,5.625
		c-3.516,1.813-6.891,2.719-10.125,2.719c-1.813,0-3.078-0.336-3.797-1.008c-0.891-0.75-1.336-2.234-1.336-4.453
		c0-2.563,0.148-6.305,0.445-11.227c0.219-3.781,0.492-6.938,0.82-9.469c0.063-0.828,0.266-1.414,0.609-1.758
		c0.453-0.453,0.68-0.922,0.68-1.406c0-0.844-0.656-1.758-1.969-2.742c-1.344-0.984-2.461-1.477-3.352-1.477
		c-0.516,0-0.906,0.063-1.172,0.188c-0.313,0.188-0.469,0.383-0.469,0.586c0,0.234,0.227,0.406,0.68,0.516
		c1.484,0.438,2.203,1.625,2.156,3.563c-0.125,5.203-0.258,9.156-0.398,11.859c-0.25,5.688-0.375,9.672-0.375,11.953
		c0,4.984,2.43,7.477,7.289,7.477C105.367,198.663,108.656,197.812,112,196.108L112,196.108z"/>
	<path fill="#083E00" d="M112.422,225.932c1.891,1.063,3.578,2.625,5.063,4.688c1.656,2.297,2.484,4.313,2.484,6.047
		c0,0.5-0.242,0.789-0.727,0.867c-0.563,0.078-1.781,0.227-3.656,0.445c-0.484,0.047-0.727,0.188-0.727,0.422
		c0,0.375,0.211,0.586,0.633,0.633c1.422,0.172,2.461,0.375,3.117,0.609c0.688,0.25,1.219,0.633,1.594,1.148
		c0.297,0.422,0.711,0.633,1.242,0.633c1.219,0,1.828-1.055,1.828-3.164c0-2.531-0.891-4.992-2.672-7.383
		c-1.969-2.641-4.523-4.609-7.664-5.906c-0.156-0.078-0.313-0.117-0.469-0.117c-0.359,0-0.539,0.117-0.539,0.352
		C111.93,225.502,112.094,225.744,112.422,225.932L112.422,225.932z M98.453,247.049c0-0.563-0.102-1.063-0.305-1.5
		c-0.125-0.297-0.188-0.664-0.188-1.102c0-0.219,0.164-0.813,0.492-1.781c0.891-2.594,2.156-5.313,3.797-8.156
		c0.188-0.375,0.281-0.656,0.281-0.844c0-0.328-0.18-0.492-0.539-0.492c-0.313,0-0.578,0.18-0.797,0.539
		c-2.188,3.453-3.938,6.359-5.25,8.719c-0.281,0.516-0.602,0.773-0.961,0.773c-0.75,0-1.539-0.867-2.367-2.602
		c-0.859-1.844-1.289-4.578-1.289-8.203c0-2.719,0.18-4.609,0.539-5.672c0.297-0.859,0.445-1.547,0.445-2.063
		c0-1.063-0.75-2.227-2.25-3.492c-1.203-1.031-2.164-1.547-2.883-1.547c-0.453,0-0.68,0.141-0.68,0.422
		c0,0.141,0.148,0.352,0.445,0.633c0.797,0.75,1.344,1.43,1.641,2.039c0.313,0.641,0.469,1.5,0.469,2.578l-0.07,3.938
		c0,3.75,0.258,6.805,0.773,9.164c0.734,3.328,2.094,5.984,4.078,7.969c1.281,1.281,2.359,1.922,3.234,1.922
		C97.992,248.291,98.453,247.877,98.453,247.049L98.453,247.049z"/>
	<path fill="#083E00" d="M27.164,30.281c0,0.438,0.078,0.735,0.234,0.891c0.156,0.188,0.477,0.281,0.961,0.281
		c1.156,0,1.734-0.46,1.734-1.383l-0.188-10.195v-3.938c0.859-0.499,1.289-0.929,1.289-1.289c0-0.296-0.242-0.656-0.727-1.078
		c-1.063-0.891-1.703-1.336-1.922-1.336c-0.188,0-0.773,0.531-1.758,1.594h-7.172c-0.984-0.656-2.102-1.266-3.352-1.828
		c0.125,1.86,0.188,5.156,0.188,9.891l-0.141,9.398c0,0.672,0.398,1.008,1.195,1.008c1.188,0,1.781-0.445,1.781-1.336v-3.023h7.875
		V30.281z M19.289,26.742V15.023h7.875v11.719H19.289z M13.477,2.93c1.25-0.172,1.875-0.492,1.875-0.961
		c0-0.422-1.578-1.078-4.734-1.969c-0.156,1.688-0.656,3.891-1.5,6.609c-2.188,7.017-5.211,12.767-9.07,17.25
		C0.016,23.876,0,23.906,0,23.953c0,0.281,0.148,0.422,0.445,0.422c0.047,0,0.086-0.015,0.117-0.047
		c2.5-2.25,4.695-4.813,6.586-7.688c0,2.063-0.031,5.008-0.094,8.836C6.992,31.462,6.922,36.492,6.844,40.57
		c-0.016,1.125-0.023,1.781-0.023,1.969c0,0.797,0.445,1.195,1.336,1.195c1.219,0,1.828-0.484,1.828-1.453L9.938,25.336v-8.25
		c0.984-0.406,1.477-0.788,1.477-1.148c0-0.266-0.164-0.469-0.492-0.609c-0.391-0.172-1.266-0.366-2.625-0.586
		C10.188,11.587,11.914,7.649,13.477,2.93L13.477,2.93z M43.594,6C44,6,44.203,5.859,44.203,5.578s-0.367-0.727-1.102-1.336
		c-1.484-1.25-2.344-1.875-2.578-1.875c-0.281,0-1.102,0.813-2.461,2.438h-19.43c-1.313,0-2.547-0.094-3.703-0.281l0.422,1.758
		C16.398,6.094,17.492,6,18.633,6h17.32v32.742c0,0.563-0.273,0.844-0.82,0.844c-1.609,0-3.656-0.108-6.141-0.328
		c-0.156-0.031-0.234,0.086-0.234,0.352c0,0.188,0.063,0.297,0.188,0.328c1.875,0.359,3.195,0.734,3.961,1.125
		c0.734,0.375,1.156,0.891,1.266,1.547c0.063,0.313,0.141,0.516,0.234,0.609c0.078,0.078,0.258,0.117,0.539,0.117
		c0.906,0,1.703-0.227,2.391-0.68c1.156-0.672,1.734-1.711,1.734-3.117L38.93,24.516V6H43.594z"/>
	<path fill="#083E00" d="M40.266,73.444c-2.063-2.609-4.555-4.516-7.477-5.719c-0.188-0.094-0.414-0.141-0.68-0.141
		c-0.281,0-0.422,0.172-0.422,0.516c0,0.219,0.094,0.398,0.281,0.539c1.938,1.219,3.594,2.656,4.969,4.313
		c1.516,1.828,2.273,3.383,2.273,4.664c0,0.344-0.227,0.578-0.68,0.703c-1.094,0.328-2.977,0.75-5.648,1.266
		c-0.359,0.078-0.539,0.266-0.539,0.563c0,0.391,0.188,0.586,0.563,0.586c0.031,0,0.07,0,0.117,0
		c1.828-0.125,3.688-0.188,5.578-0.188c0.672,0,1.195,0.125,1.57,0.375c0.359,0.219,0.781,0.328,1.266,0.328
		c0.953,0,1.43-0.609,1.43-1.828C42.867,77.624,42,75.632,40.266,73.444L40.266,73.444z M21.258,62.921
		c0.406-0.859,0.805-1.391,1.195-1.594c0.453-0.203,0.68-0.523,0.68-0.961c0-0.844-0.57-1.617-1.711-2.32
		c-1.188-0.719-2.344-1.078-3.469-1.078c-0.859,0-1.469,0.125-1.828,0.375c-0.25,0.172-0.375,0.336-0.375,0.492
		c0,0.234,0.18,0.375,0.539,0.422c0.75,0.047,1.422,0.234,2.016,0.563c0.688,0.391,1.031,0.828,1.031,1.313
		c0,0.547-0.125,1.203-0.375,1.969c-0.625,1.922-1.359,3.82-2.203,5.695c-0.563,0.172-2.484,0.703-5.766,1.594
		c-1.453,0.422-2.578,0.633-3.375,0.633c-0.938,0-1.719-0.547-2.344-1.641c-0.188-0.328-0.328-0.492-0.422-0.492
		c-0.359,0-0.539,0.367-0.539,1.102c0.047,1,0.641,2.047,1.781,3.141c0.656,0.609,1.328,0.914,2.016,0.914
		c0.313,0,0.648-0.125,1.008-0.375c0.5-0.328,1.109-0.617,1.828-0.867c2.109-0.844,3.742-1.453,4.898-1.828
		c-2.641,5.625-6.391,12.211-11.25,19.758c-0.281,0.422-0.422,0.844-0.422,1.266c0,0.797,0.461,1.195,1.383,1.195
		c0.594,0,1.031-0.258,1.313-0.773c3.813-6.453,7.648-13.828,11.508-22.125c1.484-0.531,2.75-0.797,3.797-0.797
		c1.891,0,2.836,1.438,2.836,4.313c0,2.547-0.445,5.359-1.336,8.438c-1.047,3.375-2.203,5.758-3.469,7.148
		c-0.516,0.516-1.109,0.773-1.781,0.773c-0.516,0-0.93-0.078-1.242-0.234c-1.078-0.547-2.422-1.398-4.031-2.555
		c-0.219-0.156-0.383-0.234-0.492-0.234c-0.281,0-0.422,0.156-0.422,0.469c0,0.172,0.063,0.32,0.188,0.445
		c1.344,1.266,2.242,2.195,2.695,2.789c0.375,0.453,0.617,0.914,0.727,1.383c0.219,0.938,0.789,1.406,1.711,1.406
		c1.375,0,2.703-0.641,3.984-1.922c1.594-1.438,2.906-3.711,3.938-6.82c0.484-1.344,0.914-2.961,1.289-4.852
		c0.422-2.141,0.633-3.914,0.633-5.32c0-4.516-1.664-6.773-4.992-6.773c-0.859,0-1.883,0.109-3.07,0.328
		C19.602,66.702,20.242,65.249,21.258,62.921L21.258,62.921z"/>
	<path fill="#083E00" d="M13.078,124.294c-1.359,1.953-2.977,3.891-4.852,5.813c-0.922,0.969-1.383,1.758-1.383,2.367
		c0,0.391,0.117,0.727,0.352,1.008c0.266,0.313,0.578,0.469,0.938,0.469c0.484,0,0.891-0.242,1.219-0.727
		c1.453-2.047,2.891-3.766,4.313-5.156c2.234-2.109,4.273-3.164,6.117-3.164c0.734,0,1.289,0.242,1.664,0.727
		c0.484,0.641,0.711,1.797,0.68,3.469c0,0.375,0,1.047,0,2.016c-2.609,1.578-4.469,2.891-5.578,3.938
		c-1.859,1.766-2.789,3.703-2.789,5.813c0,3.906,3.328,5.859,9.984,5.859c3.703,0,6.727-0.094,9.07-0.281
		c1.859-0.172,2.789-0.688,2.789-1.547c0-0.469-0.242-0.883-0.727-1.242c-0.578-0.453-1.313-0.68-2.203-0.68
		c-0.375,0-0.984,0.094-1.828,0.281c-0.906,0.219-1.781,0.383-2.625,0.492c-2.156,0.25-4.578,0.375-7.266,0.375
		c-3.703,0-5.555-1.188-5.555-3.563c0-1.422,0.68-2.781,2.039-4.078c0.922-0.859,2.469-1.898,4.641-3.117
		c-0.016,0.844-0.047,1.93-0.094,3.258c-0.047,1.313-0.07,2.234-0.07,2.766c0,0.344,0.125,0.641,0.375,0.891
		c0.266,0.266,0.586,0.398,0.961,0.398c0.875,0,1.313-0.609,1.313-1.828l-0.047-6.914c0.344-0.203,1.016-0.586,2.016-1.148
		c0.969-0.563,1.703-0.984,2.203-1.266c3.313-1.766,6.227-3.172,8.742-4.219c0.406-0.172,0.883-0.297,1.43-0.375
		c0.641-0.063,0.961-0.398,0.961-1.008c0-0.703-0.656-1.461-1.969-2.273c-1.25-0.766-2.43-1.148-3.539-1.148
		c-0.484,0-0.906,0.063-1.266,0.188c-0.438,0.156-0.656,0.352-0.656,0.586c0,0.141,0.141,0.234,0.422,0.281
		c0.688,0.094,1.25,0.289,1.688,0.586c0.281,0.188,0.422,0.391,0.422,0.609c0,0.313-0.172,0.586-0.516,0.82
		c-2.031,1.359-5.344,3.414-9.938,6.164c0-0.547-0.031-1.203-0.094-1.969c-0.141-2.859-1.563-4.289-4.266-4.289
		c-1.859,0-3.813,0.805-5.859,2.414l-0.094-0.094c1.266-1.813,2.844-4.375,4.734-7.688c2.766-0.625,5.523-1.477,8.273-2.555
		c0.563-0.219,0.945-0.422,1.148-0.609c0.25-0.203,0.375-0.492,0.375-0.867c0-0.297-0.125-0.563-0.375-0.797
		c-0.313-0.266-0.711-0.398-1.195-0.398c-0.609,0-1.43,0.289-2.461,0.867c-1.219,0.672-2.688,1.273-4.406,1.805
		c0.547-1.016,0.914-1.703,1.102-2.063c0.344-0.703,0.758-1.211,1.242-1.523c0.391-0.234,0.586-0.586,0.586-1.055
		c0-0.781-0.703-1.5-2.109-2.156c-1.094-0.516-2.047-0.773-2.859-0.773c-0.703,0-1.289,0.141-1.758,0.422
		c-0.359,0.234-0.539,0.477-0.539,0.727c0,0.156,0.18,0.234,0.539,0.234c1.984,0,2.977,0.438,2.977,1.313
		c0,0.438-0.109,1.023-0.328,1.758c-0.438,1.313-0.922,2.531-1.453,3.656c-2.234,0.516-4.219,0.773-5.953,0.773
		c-0.906,0-1.609-0.07-2.109-0.211c-0.656-0.188-1.297-0.578-1.922-1.172c-0.281-0.297-0.539-0.445-0.773-0.445
		c-0.281,0-0.422,0.211-0.422,0.633c0,0.172,0.078,0.391,0.234,0.656c0.625,0.922,1.289,1.578,1.992,1.969
		c0.781,0.422,1.844,0.633,3.188,0.633c0.875,0,2.414-0.133,4.617-0.398C15.328,120.825,14.172,122.747,13.078,124.294
		L13.078,124.294z"/>
	<path fill="#083E00" d="M21.539,193.203c-5.422,3.828-12.125,6.593-20.109,8.297c-0.094,0.015-0.141,0.094-0.141,0.234
		c0,0.328,0.109,0.476,0.328,0.445c8.969-1.157,16.281-3.609,21.938-7.359c1.156,0.859,2.516,1.695,4.078,2.508
		c4,2.14,8.133,3.499,12.398,4.078c0.25,0.03,0.539,0.047,0.867,0.047c0.453,0,0.773-0.258,0.961-0.773
		c0.438-1.219,1.156-1.938,2.156-2.156c0.156-0.047,0.234-0.156,0.234-0.328c0-0.125-0.063-0.188-0.188-0.188
		c-6.422-0.234-11.5-1.148-15.234-2.742c-1-0.422-2.164-0.984-3.492-1.688c2.734-2.094,5.195-4.461,7.383-7.102
		c1.313-0.234,1.969-0.57,1.969-1.008c0-0.25-0.242-0.602-0.727-1.055c-1.328-1.078-2.094-1.617-2.297-1.617
		c-0.188,0-0.766,0.477-1.734,1.43H17.742c0.547-0.672,1.094-1.406,1.641-2.203c1.313-0.047,1.969-0.289,1.969-0.727
		c0-0.484-1.297-1.156-3.891-2.016c-0.484,1.266-1.219,2.625-2.203,4.078c-1.344,1.922-3.125,3.844-5.344,5.766
		c-2.359,2.047-4.852,3.789-7.477,5.227c-0.063,0.047-0.094,0.117-0.094,0.211c0,0.281,0.109,0.422,0.328,0.422
		c0.016,0,0.039,0,0.07,0c5.234-2.016,9.578-4.852,13.031-8.508C17.648,189.195,19.57,191.438,21.539,193.203L21.539,193.203z
		 M16.734,185.422h13.102c-2.016,2.563-4.289,4.805-6.82,6.727c-2.594-1.828-4.781-3.961-6.563-6.398L16.734,185.422z
		 M15.117,175.227c-1.297,2.484-3.93,4.836-7.898,7.055c-0.063,0.031-0.094,0.094-0.094,0.188c0,0.297,0.117,0.445,0.352,0.445
		c0.031,0,0.055,0,0.07,0c4.297-1.578,7.344-3.5,9.141-5.766c2.016-2.547,3.039-6.367,3.07-11.461h6.469v10.219
		c0,0.547-0.258,0.82-0.773,0.82c-1.125,0-2.531-0.102-4.219-0.305c-0.156-0.031-0.234,0.086-0.234,0.352
		c0,0.188,0.063,0.297,0.188,0.328c1.297,0.266,2.195,0.547,2.695,0.844c0.547,0.328,0.852,0.828,0.914,1.5
		c0.031,0.359,0.203,0.539,0.516,0.539c0.641,0,1.344-0.195,2.109-0.586c1.156-0.547,1.734-1.453,1.734-2.719l-0.141-5.672v-5.32
		h14.297c0.422,0,0.633-0.141,0.633-0.422s-0.383-0.75-1.148-1.406c-1.594-1.313-2.523-1.969-2.789-1.969s-1.164,0.867-2.695,2.602
		H23.672v-3.398c1.125-0.438,1.688-0.875,1.688-1.313c0-0.25-0.234-0.453-0.703-0.609c-0.672-0.219-2.07-0.445-4.195-0.68
		c0.156,1.047,0.234,2.117,0.234,3.211v2.789H5.203c-1.406,0-2.688-0.109-3.844-0.328l0.492,1.805c1-0.188,2.117-0.281,3.352-0.281
		h11.719C16.875,169.828,16.273,173.008,15.117,175.227L15.117,175.227z M38.156,177.875c0.531,1.156,1.133,1.734,1.805,1.734
		c0.406,0,0.75-0.156,1.031-0.469c0.313-0.344,0.469-0.813,0.469-1.406c0-1.188-0.711-2.531-2.133-4.031
		c-1.688-1.766-3.984-3.375-6.891-4.828c-0.031-0.016-0.07-0.023-0.117-0.023c-0.25,0-0.375,0.133-0.375,0.398
		c0,0.047,0.016,0.094,0.047,0.141C34.695,171.891,36.75,174.719,38.156,177.875L38.156,177.875z M6.773,177.336
		c1.625-1.594,3.094-3.57,4.406-5.93c1.203-0.141,1.805-0.414,1.805-0.82s-1.313-1.078-3.938-2.016
		c-0.266,1.031-0.742,2.219-1.43,3.563c-1.828,3.547-4.117,6.469-6.867,8.766c-0.031,0.047-0.047,0.094-0.047,0.141
		c0,0.281,0.133,0.422,0.398,0.422c0.031,0,0.063-0.008,0.094-0.023C3.43,180.156,5.289,178.789,6.773,177.336L6.773,177.336z"/>
	<path fill="#083E00" d="M19.266,220.424c-1.359,0.859-2.305,1.453-2.836,1.781c-0.219,0.141-0.328,0.336-0.328,0.586
		c0,0.328,0.18,0.492,0.539,0.492c0.094,0,0.188-0.023,0.281-0.07c3.219-1.563,5.031-2.422,5.438-2.578
		c0.797-0.313,1.516-0.469,2.156-0.469l1.805,0.094c0.938,0,1.406-0.414,1.406-1.242c0-0.578-0.273-1.047-0.82-1.406
		c-0.375-0.234-1.508-0.453-3.398-0.656c-2.813-0.328-4.906-1.344-6.281-3.047c-0.141-0.188-0.32-0.281-0.539-0.281
		c-0.25,0-0.375,0.195-0.375,0.586c0,0.531,0.383,1.25,1.148,2.156c0.844,0.969,2.266,1.797,4.266,2.484
		C21.289,219.135,20.469,219.658,19.266,220.424L19.266,220.424z M18.234,240.229c6.047-6.281,9.273-9.625,9.68-10.031
		c0.266-0.266,0.633-0.43,1.102-0.492c1.125-0.109,1.688-0.477,1.688-1.102c0-0.438-0.656-1.125-1.969-2.063
		c-0.969-0.703-1.781-1.055-2.438-1.055c-0.359,0-0.727,0.195-1.102,0.586c-0.453,0.484-1.109,0.883-1.969,1.195
		c-2.641,1.031-5.617,2.164-8.93,3.398c-0.469,0.188-1,0.281-1.594,0.281c-0.734,0-1.453-0.609-2.156-1.828
		c-0.234-0.375-0.406-0.563-0.516-0.563c-0.391,0-0.586,0.367-0.586,1.102c0,0.828,0.336,1.703,1.008,2.625
		c0.828,1.156,1.711,1.734,2.648,1.734c0.531,0,0.945-0.141,1.242-0.422c0.469-0.422,0.992-0.789,1.57-1.102
		c3.047-1.641,6.133-2.992,9.258-4.055c0.047-0.016,0.094-0.023,0.141-0.023c0.141,0,0.211,0.07,0.211,0.211
		c0,0.047-0.023,0.094-0.07,0.141c-5.688,7.234-11.586,13.906-17.695,20.016c-0.703,0.703-1.055,1.328-1.055,1.875
		c0,0.406,0.117,0.75,0.352,1.031c0.266,0.297,0.594,0.445,0.984,0.445c0.609,0,1.063-0.195,1.359-0.586
		c1.875-2.469,3.875-4.836,6-7.102c1.438-1.438,2.18-2.18,2.227-2.227c1.063-0.922,2.047-1.383,2.953-1.383
		c1,0,1.719,0.414,2.156,1.242c0.375,0.719,0.984,2.5,1.828,5.344c0.781,2.656,2.367,4.195,4.758,4.617
		c0.922,0.155,2.469,0.234,4.641,0.234c1.188,0,2.742-0.094,4.664-0.281c1.344-0.156,2.016-0.656,2.016-1.5
		c0-0.531-0.281-0.969-0.844-1.313c-0.578-0.375-1.289-0.563-2.133-0.563c-0.453,0-1.32,0.125-2.602,0.375
		c-1.406,0.297-2.633,0.445-3.68,0.445c-0.094,0-0.242,0-0.445,0c-1.125-0.031-1.953-0.18-2.484-0.445
		c-0.594-0.313-1.094-0.945-1.5-1.898c-0.125-0.297-0.281-0.688-0.469-1.172c-0.359-0.922-0.578-1.492-0.656-1.711
		c-0.563-1.391-1.078-2.414-1.547-3.07c-0.844-1.156-1.953-1.734-3.328-1.734c-1.016,0-1.891,0.32-2.625,0.961L18.234,240.229z"/>
	<path fill="#083E00" d="M20.156,273.045c0.375-0.844,0.711-1.383,1.008-1.617c0.453-0.344,0.68-0.797,0.68-1.359
		c0-0.484-0.273-0.945-0.82-1.383c-0.516-0.422-1.188-0.797-2.016-1.125c-0.859-0.344-1.531-0.516-2.016-0.516
		c-0.328,0-0.758,0.078-1.289,0.234c-0.453,0.203-0.68,0.414-0.68,0.633c0,0.203,0.273,0.359,0.82,0.469
		c1.531,0.328,2.297,1.055,2.297,2.18c0,0.531-0.156,1.359-0.469,2.484c-0.344,1.281-0.797,2.711-1.359,4.289
		c-2.672,0.828-4.844,1.242-6.516,1.242c-1.641,0-3.008-0.367-4.102-1.102c-0.453-0.297-0.75-0.445-0.891-0.445
		c-0.359,0-0.539,0.18-0.539,0.539c0,0.531,0.461,1.125,1.383,1.781c1.203,0.891,2.758,1.336,4.664,1.336
		c1.391,0,3.102-0.242,5.133-0.727c-2.844,7.891-5.914,15.094-9.211,21.609C6.078,301.943,6,302.264,6,302.529
		c0,0.391,0.109,0.75,0.328,1.078c0.266,0.313,0.633,0.469,1.102,0.469c0.672,0,1.188-0.398,1.547-1.195
		c1.781-4.094,4.742-11.938,8.883-23.531c2.75-0.75,5.367-1.586,7.852-2.508c1.125-0.438,1.688-0.984,1.688-1.641
		c0-0.344-0.148-0.633-0.445-0.867c-0.281-0.219-0.625-0.328-1.031-0.328c-0.453,0-1.227,0.258-2.32,0.773
		c-1.563,0.734-3.18,1.375-4.852,1.922C19.516,274.623,19.984,273.404,20.156,273.045L20.156,273.045z M22.945,293.6
		c0-0.25-0.109-0.375-0.328-0.375c-0.328,0-0.617,0.289-0.867,0.867c-0.578,1.266-0.867,2.445-0.867,3.539
		c0,0.906,0.25,1.797,0.75,2.672c0.547,0.984,1.305,1.773,2.273,2.367c1.938,1.188,4.898,1.781,8.883,1.781
		c1.953,0,3.695-0.109,5.227-0.328c0.766-0.109,1.297-0.273,1.594-0.492c0.313-0.219,0.469-0.57,0.469-1.055
		c0-0.625-0.32-1.07-0.961-1.336c-0.484-0.188-0.977-0.281-1.477-0.281c-0.609,0-1.266,0.094-1.969,0.281
		c-1.375,0.313-2.844,0.469-4.406,0.469c-2.984,0-5.117-0.336-6.398-1.008c-1.625-0.844-2.438-2.156-2.438-3.938
		c0-0.844,0.102-1.625,0.305-2.344C22.875,293.92,22.945,293.646,22.945,293.6L22.945,293.6z M27.797,287.318
		c-0.297,0.281-0.445,0.484-0.445,0.609c0,0.266,0.109,0.398,0.328,0.398c0.234,0,0.492-0.078,0.773-0.234
		c2.656-1.797,4.273-2.82,4.852-3.07c0.625-0.297,1.172-0.445,1.641-0.445c0.078,0,0.156,0,0.234,0c0.266,0,0.695,0.094,1.289,0.281
		c0.422,0.156,0.773,0.234,1.055,0.234c0.719,0.063,1.102-0.273,1.148-1.008c0.047-0.719-0.398-1.305-1.336-1.758
		c-1.094-0.516-2.602-0.828-4.523-0.938c-0.297-0.016-0.57-0.023-0.82-0.023c-3.531,0-6.555,0.93-9.07,2.789
		c-0.25,0.203-0.375,0.43-0.375,0.68c0,0.219,0.133,0.328,0.398,0.328c0.156,0,0.328-0.039,0.516-0.117
		c2.063-1.109,4.617-1.664,7.664-1.664c0.281,0,0.531,0.008,0.75,0.023s0.328,0.063,0.328,0.141s-0.094,0.195-0.281,0.352
		C29.563,285.834,28.188,286.975,27.797,287.318L27.797,287.318z"/>
	<path fill="#083E00" d="M30.422,331.531c1.891,1.063,3.578,2.625,5.063,4.688c1.656,2.297,2.484,4.313,2.484,6.047
		c0,0.501-0.242,0.789-0.727,0.867c-0.563,0.079-1.781,0.227-3.656,0.445c-0.484,0.047-0.727,0.188-0.727,0.422
		c0,0.375,0.211,0.586,0.633,0.633c1.422,0.173,2.461,0.375,3.117,0.609c0.688,0.25,1.219,0.633,1.594,1.148
		c0.297,0.422,0.711,0.633,1.242,0.633c1.219,0,1.828-1.055,1.828-3.164c0-2.531-0.891-4.992-2.672-7.383
		c-1.969-2.64-4.523-4.608-7.664-5.906c-0.156-0.078-0.313-0.117-0.469-0.117c-0.359,0-0.539,0.117-0.539,0.352
		C29.93,331.102,30.094,331.344,30.422,331.531L30.422,331.531z M16.453,352.648c0-0.563-0.102-1.063-0.305-1.5
		c-0.125-0.296-0.188-0.664-0.188-1.102c0-0.219,0.164-0.812,0.492-1.781c0.891-2.593,2.156-5.312,3.797-8.156
		c0.188-0.375,0.281-0.656,0.281-0.844c0-0.328-0.18-0.492-0.539-0.492c-0.313,0-0.578,0.18-0.797,0.539
		c-2.188,3.454-3.938,6.36-5.25,8.719c-0.281,0.516-0.602,0.773-0.961,0.773c-0.75,0-1.539-0.867-2.367-2.602
		c-0.859-1.843-1.289-4.578-1.289-8.203c0-2.719,0.18-4.608,0.539-5.672c0.297-0.858,0.445-1.547,0.445-2.063
		c0-1.063-0.75-2.227-2.25-3.492c-1.203-1.031-2.164-1.547-2.883-1.547c-0.453,0-0.68,0.141-0.68,0.422
		c0,0.141,0.148,0.352,0.445,0.633c0.797,0.75,1.344,1.43,1.641,2.039c0.313,0.642,0.469,1.5,0.469,2.578l-0.07,3.938
		c0,3.75,0.258,6.806,0.773,9.164c0.734,3.328,2.094,5.985,4.078,7.969c1.281,1.281,2.359,1.922,3.234,1.922
		C15.992,353.891,16.453,353.478,16.453,352.648L16.453,352.648z"/>
</g>
</svg>
