<?xml version="1.0" encoding="utf-8"?>
<!-- Generator: Adobe Illustrator 14.0.0, SVG Export Plug-In . SVG Version: 6.00 Build 43363)  -->
<!DOCTYPE svg PUBLIC "-//W3C//DTD SVG 1.1 Basic//EN" "http://www.w3.org/Graphics/SVG/1.1/DTD/svg11-basic.dtd">
<svg version="1.1" baseProfile="basic" id="レイヤー_3"
	 xmlns="http://www.w3.org/2000/svg" xmlns:xlink="http://www.w3.org/1999/xlink" x="0px" y="0px" width="290.413px"
	 height="358.553px" viewBox="0.497 52.691 290.413 358.553" xml:space="preserve">
<g>
	<path fill="#0D4482" d="M251.208,73.768c-1.125,0-2.399-0.109-3.82-0.328l0.468,1.805c1.032-0.188,2.172-0.281,3.423-0.281h9.444
		c-0.156,4.344-0.781,7.766-1.875,10.266c-0.953,2.203-2.296,4.094-4.03,5.672c-1.954,1.813-4.603,3.406-7.945,4.781
		c-0.079,0.031-0.117,0.094-0.117,0.188c0,0.375,0.132,0.539,0.398,0.492c6.797-1.703,11.444-4.805,13.944-9.305
		c1.672-3.047,2.603-7.078,2.79-12.094h7.242v10.266l-0.095,5.672c0,1.641,0.5,2.78,1.5,3.422c1.173,0.75,3.633,1.125,7.383,1.125
		c3.531,0,6-0.196,7.407-0.586c1.624-0.313,2.438-1,2.438-2.063c0-0.594-0.243-0.977-0.728-1.148
		c-0.563-0.203-0.859-0.633-0.89-1.289c-0.017-0.219-0.023-0.477-0.023-0.773c0-0.469,0.03-1.805,0.094-4.008
		c0-0.172-0.103-0.258-0.306-0.258c-0.14,0-0.233,0.055-0.28,0.164c-1.001,3.625-1.828,5.742-2.484,6.352
		c-0.595,0.516-2.353,0.773-5.273,0.773c-2.297,0-3.829-0.141-4.594-0.422c-0.75-0.266-1.125-0.875-1.125-1.828V74.964h14.977
		c0.422,0,0.633-0.141,0.633-0.422c0-0.313-0.415-0.813-1.242-1.5c-1.594-1.313-2.524-1.969-2.79-1.969s-1.18,0.898-2.741,2.695
		h-13.242v-9.656h14.858c0.453,0,0.68-0.156,0.68-0.469c0-0.281-0.383-0.727-1.147-1.336c-1.5-1.219-2.384-1.828-2.648-1.828
		c-0.234,0-1.048,0.813-2.438,2.438h-9.305V56.05c1.108-0.406,1.663-0.82,1.663-1.242c0-0.297-0.233-0.531-0.702-0.703
		c-0.656-0.219-2.063-0.453-4.219-0.703c0.155,1.25,0.233,3.57,0.233,6.961v2.555h-9.069c0.984-1.813,1.765-3.523,2.344-5.133
		c1.155-0.188,1.733-0.508,1.733-0.961c0-0.516-1.484-1.125-4.452-1.828c-0.267,1.734-0.703,3.445-1.313,5.133
		c-1.548,4.172-3.79,7.82-6.727,10.945c-0.032,0.047-0.047,0.094-0.047,0.141c0,0.25,0.124,0.375,0.375,0.375
		c0.047,0,0.085-0.008,0.117-0.023c2.843-1.875,5.257-4.359,7.242-7.453h9.796v9.656H251.208z"/>
	<path fill="#0D4482" d="M260.77,119.853c1.406,0,2.109-0.258,2.109-0.773c0-0.359-1.376-1.188-4.125-2.484
		c-0.485,1.297-1.204,2.734-2.157,4.313c-2.547,4.25-5.742,7.953-9.585,11.109c-0.047,0.047-0.07,0.102-0.07,0.164
		c0,0.297,0.132,0.445,0.398,0.445c0.047,0,0.077-0.008,0.094-0.023c2.358-1.391,4.562-3.016,6.608-4.875
		c0,1.375-0.031,3.328-0.093,5.859c-0.157,8.75-0.234,13.602-0.234,14.555c0,0.828,0.444,1.242,1.336,1.242
		c1.249,0,1.875-0.492,1.875-1.477l-0.047-13.945v-6.328c0.984-0.375,1.476-0.758,1.476-1.148c0-0.422-0.702-0.742-2.108-0.961
		C257.747,123.885,259.253,121.994,260.77,119.853L260.77,119.853z M289.785,122.736c0.423,0,0.633-0.141,0.633-0.422
		s-0.383-0.727-1.147-1.336c-1.5-1.25-2.367-1.875-2.603-1.875c-0.266,0-1.109,0.813-2.53,2.438h-18.141
		c-1.345,0-2.61-0.109-3.797-0.328l0.468,1.805c1.344-0.188,2.453-0.281,3.329-0.281h11.32v21.492c0,0.609-0.321,0.914-0.962,0.914
		c-1.094,0-3.227-0.156-6.397-0.469c-0.157-0.031-0.235,0.086-0.235,0.352c0,0.188,0.063,0.297,0.188,0.328
		c2.047,0.422,3.477,0.836,4.29,1.242c0.75,0.391,1.179,0.93,1.289,1.617c0.077,0.484,0.304,0.727,0.679,0.727
		c1.094,0,2-0.258,2.72-0.773c1.093-0.688,1.641-1.664,1.641-2.93l-0.188-10.922v-11.578H289.785z M268.129,111.299h19.242
		c0.437,0,0.656-0.156,0.656-0.469c0-0.281-0.368-0.711-1.102-1.289c-1.517-1.25-2.392-1.875-2.625-1.875
		c-0.234,0-1.063,0.813-2.484,2.438h-13.688c-1.078,0-2.313-0.109-3.703-0.328l0.539,1.805
		C266.214,111.392,267.269,111.299,268.129,111.299L268.129,111.299z M260.114,109.095c0.108,0,0.249,0,0.421,0
		c1.173,0,1.758-0.211,1.758-0.633c0-0.484-1.367-1.391-4.101-2.719c-0.47,1.266-1.266,2.742-2.391,4.43
		c-2.642,3.828-5.524,6.945-8.648,9.352c-0.048,0.047-0.07,0.102-0.07,0.164c0,0.297,0.14,0.445,0.422,0.445
		c0.03,0,0.062-0.016,0.093-0.047C252.379,117.588,256.551,113.924,260.114,109.095L260.114,109.095z"/>
	<path fill="#0D4482" d="M276.917,167.03c0.517-0.25,0.774-0.695,0.774-1.336c0-0.281-0.095-0.531-0.282-0.75
		c-0.25-0.266-0.57-0.398-0.96-0.398c-0.345,0-0.79,0.109-1.336,0.328c-0.704,0.266-1.282,0.602-1.734,1.008
		c-0.267,0.219-0.735,0.508-1.407,0.867c-0.938,0.5-1.977,0.961-3.117,1.383c-0.156-0.719-0.32-1.609-0.491-2.672
		c-0.11-0.688-0.164-1.148-0.164-1.383c0-0.219,0.038-0.43,0.117-0.633c0.171-0.438,0.258-0.789,0.258-1.055
		c0-0.5-0.492-0.93-1.478-1.289c-1.094-0.422-2.281-0.633-3.563-0.633c-0.641,0-1.218,0.203-1.733,0.609
		c-0.251,0.203-0.375,0.406-0.375,0.609c0,0.266,0.141,0.398,0.421,0.398c0.016,0,0.048,0,0.095,0
		c0.124,0.016,0.305,0.023,0.538,0.023c1.484,0,2.43,0.578,2.837,1.734c0.171,0.531,0.437,1.328,0.797,2.391
		c0.39,1.141,0.679,2.016,0.866,2.625c-3.359,1.219-6.156,1.828-8.39,1.828c-1.36,0-2.657-0.289-3.891-0.867
		c-0.313-0.125-0.524-0.188-0.633-0.188c-0.282,0-0.422,0.172-0.422,0.516c0,0.234,0.124,0.477,0.375,0.727
		c1.359,1.219,3.171,1.828,5.438,1.828c2.015,0,4.749-0.578,8.202-1.734c1.422,3.828,2.274,6.07,2.556,6.727
		c-3.11,1.047-5.915,1.57-8.414,1.57c-1.626,0-2.438-0.469-2.438-1.406c0-0.531,0.046-0.992,0.141-1.383
		c0.093-0.281,0.141-0.492,0.141-0.633c0-0.25-0.181-0.375-0.54-0.375c-0.188,0-0.391,0.195-0.608,0.586
		c-0.454,0.797-0.68,1.547-0.68,2.25c0,2.047,1.507,3.07,4.523,3.07c2.64,0,5.585-0.57,8.836-1.711
		c1.358,2.813,2.616,5.164,3.773,7.055c-2.079-0.359-4.556-0.539-7.43-0.539c-2.782,0-5.11,0.391-6.985,1.172
		c-2.734,1.125-4.101,2.922-4.101,5.391c0,2.531,1.476,4.492,4.43,5.883c2.625,1.233,5.789,1.852,9.491,1.852
		c1.531,0,2.579-0.086,3.142-0.258c0.656-0.22,0.983-0.68,0.983-1.383c0-1.078-0.813-1.617-2.438-1.617l-3.233,0.141
		c-2.313,0-4.313-0.219-6-0.656c-3.032-0.797-4.547-2.211-4.547-4.242c0-1.594,0.843-2.781,2.53-3.563
		c1.407-0.656,3.188-0.984,5.345-0.984c1.999,0,4.266,0.273,6.797,0.82c1.53,0.328,2.719,0.984,3.563,1.969
		c0.265,0.313,0.616,0.469,1.055,0.469c0.765,0,1.148-0.672,1.148-2.016c0-0.969-0.462-2.055-1.383-3.258
		c-1.767-2.297-3.243-4.602-4.43-6.914c2.953-1.156,5.578-2.563,7.875-4.219c0.516-0.359,0.772-0.82,0.772-1.383
		c0-0.219-0.133-0.422-0.397-0.609c-0.313-0.203-0.657-0.289-1.032-0.258c-0.14,0.016-0.367,0.039-0.679,0.07
		c-0.281,0.047-0.509,0.07-0.68,0.07c-0.313,0-0.774-0.117-1.383-0.352c-0.72-0.281-1.329-0.57-1.829-0.867
		c-0.327-0.156-0.57-0.234-0.726-0.234c-0.281,0-0.422,0.109-0.422,0.328c0,0.188,0.155,0.398,0.468,0.633
		c0.719,0.578,1.36,1.172,1.923,1.781c0.124,0.125,0.188,0.25,0.188,0.375c0,0.094-0.094,0.211-0.281,0.352
		c-1.188,0.781-2.759,1.578-4.712,2.391c-1.063-2.344-1.906-4.586-2.53-6.727C272.254,169.319,274.746,168.218,276.917,167.03
		L276.917,167.03z"/>
	<path fill="#0D4482" d="M266.09,235.809l-0.188,17.391c0,0.827,0.476,1.242,1.43,1.242c1.343,0,2.015-0.501,2.015-1.5
		l-0.188-16.219v-7.922c1.032-0.406,1.548-0.82,1.548-1.242c0-0.438-1.204-0.805-3.61-1.102c1.703-2.141,3.242-4.461,4.618-6.961
		c1.313-0.172,1.969-0.445,1.969-0.82c0-0.391-1.267-1.109-3.797-2.156h19.147c0.453,0,0.681-0.156,0.681-0.469
		c0-0.219-0.469-0.719-1.406-1.5c-1.688-1.375-2.649-2.063-2.883-2.063c-0.267,0-1.228,0.945-2.884,2.836H251.98
		c-1.719,0-3.172-0.109-4.358-0.328l0.421,1.805c1.109-0.188,2.422-0.281,3.938-0.281h17.321c-0.829,2.047-2.048,4.305-3.656,6.773
		c-4.47,6.719-10.821,12.445-19.055,17.18c-0.063,0.031-0.094,0.094-0.094,0.188c0,0.328,0.124,0.492,0.375,0.492
		c0.015,0,0.03,0,0.046,0c7.891-3.359,14.266-7.859,19.125-13.5C266.074,229.419,266.09,232.137,266.09,235.809L266.09,235.809z
		 M284.417,239.184c0.845,1.313,1.595,1.969,2.25,1.969c0.423,0,0.774-0.18,1.055-0.539c0.329-0.406,0.493-0.898,0.493-1.477
		c0-1.563-1.321-3.414-3.961-5.555c-3.079-2.484-6.867-4.516-11.367-6.094c-0.017-0.016-0.04-0.023-0.07-0.023
		c-0.234,0-0.352,0.133-0.352,0.398c0,0.078,0.03,0.141,0.094,0.188C277.746,231.255,281.7,234.966,284.417,239.184L284.417,239.184
		z"/>
	<path fill="#0D4482" d="M262.622,273.084c-1.048,0-2.267-0.109-3.656-0.329l0.492,1.759c1.077-0.156,2.133-0.234,3.164-0.234h7.195
		c-3.438,3.891-7.524,6.93-12.258,9.117c-0.079,0.031-0.117,0.102-0.117,0.211c0,0.281,0.101,0.422,0.305,0.422
		c0.015,0,0.03,0,0.046,0c5.406-1.563,10.103-4.337,14.087-8.32c-0.017,0.469-0.063,1.602-0.141,3.398
		c-0.079,1.422-0.117,2.359-0.117,2.813c0,0.702,0.39,1.055,1.171,1.055c1.156,0,1.735-0.43,1.735-1.29
		c0-1.64-0.103-3.999-0.306-7.077c1.563,2.015,3.531,3.875,5.907,5.577c1.688,1.188,3.726,2.196,6.117,3.024
		c0.858,0.281,1.383,0.421,1.57,0.421c0.343,0,0.601-0.241,0.773-0.726c0.218-0.563,0.437-0.953,0.656-1.172
		c0.233-0.235,0.624-0.414,1.171-0.54c0.125-0.03,0.188-0.108,0.188-0.233c0-0.109-0.063-0.18-0.188-0.212
		c-3.438-0.327-6.5-1.125-9.188-2.39c-2.438-1.173-4.5-2.531-6.188-4.078h13.875c0.423,0,0.634-0.141,0.634-0.422
		c0-0.313-0.36-0.766-1.079-1.36c-1.344-1.155-2.155-1.733-2.438-1.733c-0.233,0-1,0.773-2.296,2.32h-9.398v-4.57
		c2.297-0.344,4.898-0.922,7.805-1.734c0.624,0.125,1.132,0.188,1.522,0.188c0.625,0,0.938-0.164,0.938-0.492
		c0-0.391-0.992-1.313-2.976-2.766c-1.078,0.672-2.235,1.219-3.47,1.641c-4.484,1.516-10.422,2.617-17.813,3.305
		c-0.109,0.016-0.163,0.109-0.163,0.28c0,0.267,0.085,0.399,0.258,0.399c4.577,0,8.358-0.164,11.343-0.492v4.242H262.622z
		 M265.105,293.567c-1.125,2.267-3.156,4.392-6.093,6.375c-0.047,0.032-0.07,0.079-0.07,0.142c0,0.266,0.124,0.398,0.375,0.398
		c0.03,0,0.062-0.008,0.093-0.023c3.266-1.344,5.673-3.008,7.22-4.992c1.765-2.281,2.796-5.555,3.093-9.82h5.813
		c-0.344,1.656-0.819,3.258-1.43,4.805c-0.125,0.313-0.188,0.57-0.188,0.773c0,0.453,0.555,0.68,1.665,0.68
		c0.563,0,0.944-0.273,1.147-0.82c0.125-0.313,0.203-0.555,0.235-0.727h5.25c-0.313,2.625-0.656,4.516-1.031,5.672
		c-0.36,1.156-1.017,1.734-1.969,1.734c-0.938,0-2.728-0.18-5.368-0.539c-0.156-0.031-0.233,0.078-0.233,0.328
		c0,0.188,0.062,0.305,0.188,0.352c1.562,0.438,2.632,0.82,3.211,1.148c0.593,0.359,0.944,0.836,1.055,1.43
		c0.077,0.391,0.288,0.585,0.633,0.585c1.03,0,1.96-0.194,2.789-0.585c0.952-0.453,1.702-1.555,2.25-3.305
		c0.483-1.609,0.866-3.594,1.148-5.953c0.874-0.547,1.313-0.93,1.313-1.148c0-0.329-0.243-0.695-0.728-1.102
		c-1-0.875-1.609-1.313-1.827-1.313c-0.22,0-0.813,0.5-1.781,1.5h-4.5c0.155-0.484,0.413-1.445,0.773-2.883
		c0.858-0.359,1.289-0.68,1.289-0.962c0-0.249-0.243-0.616-0.727-1.101c-0.829-0.797-1.376-1.195-1.641-1.195
		c-0.22,0-0.774,0.477-1.664,1.43h-10.478c-1.281,0-2.594-0.109-3.938-0.329l0.446,1.758c0.874-0.155,2.039-0.233,3.491-0.233h1.97
		C266.636,289.006,266.042,291.646,265.105,293.567L265.105,293.567z M252.917,272.545c0.188,0.688,0.375,1.156,0.563,1.406
		c0.235,0.281,0.578,0.421,1.032,0.421c1.14,0,1.71-0.733,1.71-2.202c0-1-0.538-2.078-1.617-3.235
		c-1.313-1.421-3.022-2.515-5.133-3.28c-0.031-0.016-0.063-0.024-0.093-0.024c-0.204,0-0.305,0.071-0.305,0.212
		c0,0.047,0.022,0.093,0.07,0.141C250.988,267.826,252.246,270.013,252.917,272.545L252.917,272.545z M273.379,303.599
		c-6.328,0-10.805-0.672-13.43-2.016c-1.782-0.922-3.188-2.188-4.22-3.797v-11.813c0.892-0.563,1.337-0.977,1.337-1.242
		c0-0.359-0.258-0.742-0.774-1.148c-1.109-0.922-1.78-1.383-2.015-1.383c-0.204,0-0.829,0.555-1.875,1.664h-2.156
		c-1.188,0-2.501-0.109-3.938-0.328l0.492,1.875c1.155-0.234,2.32-0.353,3.491-0.353h2.462v12.845
		c-1.266,1.172-2.618,2.164-4.055,2.976c-0.735,0.423-1.563,0.79-2.484,1.103c1.406,2.813,2.351,4.219,2.836,4.219
		c0.39,0,0.586-0.517,0.586-1.547c-0.017-0.11-0.023-0.282-0.023-0.516c1.983-2.094,3.647-4.242,4.991-6.446
		c0.985,2.313,2.462,4.22,4.43,5.72c1.22,0.921,2.828,1.601,4.829,2.039c2.608,0.593,6.328,0.891,11.156,0.891
		c4.858,0,9.288-0.11,13.289-0.328c0.343-0.047,0.569-0.126,0.68-0.234c0.141-0.141,0.233-0.438,0.281-0.891
		c0.062-0.438,0.171-0.758,0.327-0.961c0.172-0.266,0.54-0.516,1.103-0.75c0.141-0.048,0.21-0.164,0.21-0.352
		c0-0.25-0.086-0.359-0.257-0.329C284.761,303.232,279.004,303.599,273.379,303.599L273.379,303.599z"/>
	<path fill="#0D4482" d="M284.465,343.093v12.445c0,0.594-0.29,0.89-0.868,0.89c-1.578,0-3.547-0.094-5.905-0.281
		c-0.157,0-0.234,0.11-0.234,0.329c0,0.172,0.062,0.273,0.188,0.305c1.905,0.405,3.218,0.788,3.938,1.147
		c0.718,0.375,1.132,0.898,1.242,1.57c0.077,0.453,0.319,0.68,0.727,0.68c0.921,0,1.702-0.227,2.344-0.68
		c1.155-0.703,1.734-1.742,1.734-3.117l-0.234-23.038v-11.087c0.827-0.563,1.242-0.976,1.242-1.242c0-0.296-0.243-0.647-0.728-1.055
		c-1.094-0.938-1.766-1.406-2.015-1.406c-0.22,0-0.837,0.548-1.853,1.641h-10.945c-1.328-0.843-2.539-1.483-3.632-1.922
		c0.218,2.204,0.327,5.789,0.327,10.759c0,5-0.148,8.961-0.445,11.883c-0.344,3.313-0.96,6.022-1.851,8.132
		c-1.579,3.75-4.353,7.306-8.32,10.664c-0.032,0.047-0.047,0.094-0.047,0.142c0,0.312,0.132,0.468,0.398,0.468
		c0.03,0,0.062-0.008,0.094-0.023c4.781-2.844,8.233-6.272,10.358-10.289c0.938-1.858,1.609-4.163,2.017-6.913H284.465z
		 M272.77,331.093v-9.704h11.695v9.704H272.77z M284.465,332.288v9.608h-12.281c0.296-2.421,0.476-5.625,0.538-9.608H284.465z
		 M260.77,348.013c0,0.673,0.413,1.008,1.242,1.008c1.155,0,1.734-0.413,1.734-1.241l-0.142-16.853v-7.522
		c0.798-0.547,1.196-0.985,1.196-1.313c0-0.235-0.274-0.587-0.821-1.055c-1.016-0.798-1.64-1.195-1.875-1.195
		c-0.219,0-0.805,0.515-1.758,1.546h-7.71c-0.673-0.437-1.853-1.031-3.54-1.781c0.188,2.282,0.282,6.649,0.282,13.102l-0.188,15.984
		c0,0.673,0.398,1.008,1.195,1.008c1.249,0,1.875-0.413,1.875-1.242v-2.836h8.508V348.013z M252.262,344.427v-10.805h8.508v10.805
		H252.262z M252.262,332.427v-9.844h8.508v9.844H252.262z"/>
	<path fill="#0D4482" d="M252.192,401.564c-0.22,0.345-0.328,0.727-0.328,1.148c0,0.36,0.108,0.673,0.328,0.938
		c0.265,0.328,0.586,0.492,0.961,0.492c0.765,0,1.296-0.319,1.594-0.961c2.374-4.702,5.397-11.273,9.07-19.711
		c2.608-0.563,5.116-1.233,7.523-2.016c1.062-0.375,1.594-0.891,1.594-1.547c0-0.359-0.157-0.656-0.469-0.891
		c-0.313-0.265-0.673-0.398-1.078-0.398c-0.548,0-1.359,0.258-2.438,0.773c-1.438,0.656-2.798,1.165-4.078,1.523
		c0.218-0.483,0.46-1.046,0.726-1.688c0.406-0.938,0.625-1.444,0.657-1.523c0.499-1.093,0.913-1.749,1.242-1.969
		c0.39-0.265,0.586-0.633,0.586-1.102c0-0.516-0.516-1.015-1.548-1.5c-1.531-0.733-2.773-1.102-3.726-1.102
		c-1.095,0-1.642,0.29-1.642,0.867c0,0.126,0.125,0.22,0.375,0.281c0.594,0.094,1.203,0.337,1.829,0.727
		c0.577,0.36,0.867,0.759,0.867,1.195c0,0.532-0.079,1.095-0.234,1.688c-0.563,1.781-1.125,3.352-1.688,4.711
		c-2.688,0.563-4.828,0.82-6.422,0.773c-1.517,0-2.798-0.375-3.844-1.125c-0.298-0.188-0.539-0.281-0.727-0.281
		c-0.251,0-0.375,0.126-0.375,0.375c0,0.141,0.062,0.337,0.188,0.586c0.39,0.719,1.008,1.306,1.852,1.758
		c0.938,0.501,1.937,0.75,3,0.75c1.718,0,3.507-0.164,5.366-0.492C258.621,390.143,255.567,396.049,252.192,401.564L252.192,401.564
		z M278.512,387.455c0,0.094-0.079,0.173-0.234,0.234c-1.798,0.516-3.118,1.219-3.961,2.109c-1.017,1.063-1.524,2.563-1.524,4.5
		c0,0.532,0.259,3.094,0.774,7.688c-0.984-0.218-2.384-0.328-4.195-0.328c-1.781,0-3.321,0.391-4.617,1.172
		c-1.595,0.97-2.391,2.259-2.391,3.867c0,1.172,0.499,2.173,1.5,3c1.219,1.031,2.913,1.547,5.086,1.547
		c2.672,0,4.593-0.609,5.766-1.828c0.938-1.015,1.46-2.468,1.569-4.359c1.97,0.767,4.243,2.156,6.82,4.172
		c0.406,0.313,0.828,0.492,1.267,0.539c0.952,0,1.43-0.46,1.43-1.383c0-0.656-0.274-1.219-0.821-1.688
		c-1.531-1.39-4.492-2.78-8.883-4.172c-0.078-0.452-0.21-1.116-0.397-1.992c-0.251-1.155-0.431-2.016-0.54-2.578
		c-0.359-1.952-0.538-3.569-0.538-4.852c0-1.155,0.398-2.14,1.195-2.953c0.905-0.905,2.038-1.359,3.398-1.359
		c1.374,0,2.687,0.618,3.938,1.852c0.515,0.516,1.046,0.773,1.594,0.773c0.328,0,0.608-0.108,0.844-0.328
		c0.234-0.249,0.352-0.539,0.352-0.867c0-0.922-0.673-1.835-2.016-2.742c-0.938-0.624-2.134-1.14-3.586-1.547
		c-1.594-0.437-3.164-0.656-4.711-0.656c-1.485,0-2.845,0.181-4.078,0.539c-0.454,0.126-0.68,0.36-0.68,0.703
		c0,0.267,0.202,0.398,0.608,0.398c0.016,0,0.055,0,0.117,0c0.828-0.141,1.672-0.211,2.532-0.211c1.671,0,3.062,0.196,4.172,0.586
		C278.442,387.338,278.512,387.393,278.512,387.455L278.512,387.455z M272.442,407.892c-0.845,0.797-2.173,1.195-3.984,1.195
		c-1.392,0-2.493-0.218-3.305-0.656c-0.876-0.469-1.313-1.108-1.313-1.922c0-0.891,0.476-1.608,1.43-2.156
		c1.046-0.577,2.429-0.867,4.147-0.867c1.563,0,3.008,0.234,4.337,0.703C273.691,405.924,273.253,407.159,272.442,407.892
		L272.442,407.892z"/>
	<path fill="#0D4482" d="M184.7,66.777c-0.782-0.516-1.931-1.109-3.445-1.781c0.155,1.922,0.234,5.742,0.234,11.461l-0.188,12.117
		c0,0.734,0.429,1.102,1.289,1.102c1.125,0,1.688-0.43,1.688-1.289v-0.773h15.398v0.727c0,0.734,0.429,1.102,1.289,1.102
		c1.219,0,1.827-0.445,1.827-1.336l-0.233-13.523V68.84c0.796-0.516,1.195-0.945,1.195-1.289c0-0.313-0.243-0.664-0.727-1.055
		c-1.078-0.906-1.704-1.359-1.875-1.359c-0.235,0-0.82,0.547-1.758,1.641h-9.258c1.296-1.641,2.444-3.375,3.445-5.203h13.969
		c0.452,0,0.679-0.156,0.679-0.469c0-0.281-0.367-0.711-1.101-1.289c-1.5-1.188-2.367-1.781-2.602-1.781
		c-0.281,0-1.048,0.781-2.298,2.344h-7.054c1.594-1.594,2.897-3.133,3.914-4.617c1.359-0.078,2.039-0.359,2.039-0.844
		c0-0.422-1.477-1.164-4.43-2.227c-0.095,0.719-0.305,1.523-0.633,2.414c-0.657,1.859-1.376,3.617-2.157,5.273h-13.147
		c-1.235,0-2.431-0.109-3.586-0.328l0.469,1.758c0.89-0.156,1.929-0.234,3.117-0.234h9.28c-0.359,1.891-0.813,3.625-1.358,5.203
		H184.7z M199.676,74.207v5.227h-15.398v-5.227H199.676z M184.278,73.011v-5.039h15.398v5.039H184.278z M199.676,80.629v5.789
		h-15.398v-5.789H199.676z M186.387,58.082c0.155,0.594,0.335,1.008,0.539,1.242c0.218,0.234,0.546,0.352,0.983,0.352
		c0.423,0,0.774-0.148,1.056-0.445c0.327-0.359,0.492-0.852,0.492-1.477c0-0.813-0.392-1.609-1.173-2.391
		c-0.969-0.969-2.43-1.781-4.382-2.438c-0.032-0.016-0.063-0.023-0.094-0.023c-0.204,0-0.305,0.094-0.305,0.281
		c0,0.047,0.015,0.094,0.047,0.141C185.004,54.824,185.949,56.41,186.387,58.082L186.387,58.082z M171.458,61.246
		c0.202,0.75,0.397,1.258,0.585,1.523c0.235,0.328,0.587,0.492,1.055,0.492c1.173,0,1.758-0.719,1.758-2.156
		c0-1-0.555-2.078-1.663-3.234c-1.345-1.391-3.134-2.508-5.367-3.352c-0.032-0.016-0.063-0.023-0.095-0.023
		c-0.203,0-0.304,0.086-0.304,0.258c0,0.047,0.015,0.086,0.046,0.117C169.472,56.777,170.801,58.902,171.458,61.246L171.458,61.246z
		 M192.247,92.394c-6.079,0-10.485-0.578-13.219-1.734c-1.735-0.734-3.204-2.055-4.406-3.961V74.933
		c0.827-0.563,1.242-0.984,1.242-1.266c0-0.313-0.259-0.695-0.773-1.148c-1.031-0.891-1.673-1.336-1.923-1.336
		c-0.188,0-0.805,0.539-1.851,1.617h-2.93c-1.47,0-2.782-0.125-3.938-0.375l0.468,1.922c1.032-0.219,2.188-0.328,3.47-0.328h3.305
		v12.375c-1.423,1.219-2.93,2.227-4.524,3.023c-0.796,0.438-1.64,0.773-2.53,1.008c1.343,3.047,2.257,4.57,2.742,4.57
		c0.468,0,0.703-0.719,0.703-2.156c2.405-2.344,4.187-4.445,5.344-6.305c1.233,2.703,2.813,4.703,4.733,6
		c2.625,1.766,7.859,2.648,15.704,2.648c4.249,0,8.444-0.125,12.586-0.375c0.343-0.047,0.569-0.125,0.68-0.234
		c0.124-0.141,0.218-0.438,0.28-0.891c0.031-0.438,0.142-0.773,0.329-1.008c0.171-0.234,0.569-0.516,1.195-0.844
		c0.094-0.063,0.141-0.156,0.141-0.281c0-0.234-0.095-0.336-0.282-0.305C203.542,92.011,198.027,92.394,192.247,92.394
		L192.247,92.394z"/>
	<path fill="#0D4482" d="M187.208,115.408c0.452,0,0.882,0.016,1.289,0.047c3.469,0.172,6.343,1.234,8.625,3.188
		c2.702,2.313,4.055,5.391,4.055,9.234c0,4.016-1.649,7.375-4.946,10.078c-3.078,2.516-7.164,4.211-12.258,5.086
		c-0.547,0.125-0.819,0.383-0.819,0.773c0,0.359,0.234,0.539,0.702,0.539c0.031,0,0.071,0,0.117,0
		c5.047-0.281,9.406-1.531,13.079-3.75c4.858-2.922,7.289-6.891,7.289-11.906c0-4.047-1.345-7.445-4.031-10.195
		c-3.11-3.188-7.242-4.781-12.399-4.781c-5.594,0-10.234,1.727-13.921,5.18c-3.485,3.281-5.227,7.25-5.227,11.906
		c0,2.438,0.563,4.547,1.688,6.328c1.108,1.672,2.391,2.508,3.843,2.508c1.407,0,2.984-1.07,4.735-3.211
		c2.952-3.734,5.257-7.977,6.914-12.727c0.609-1.953,0.913-3.523,0.913-4.711c0-1.359-0.32-2.539-0.96-3.539
		C186.3,115.424,186.739,115.408,187.208,115.408L187.208,115.408z M184.98,117.658c0,1-0.227,2.148-0.679,3.445
		c-1.485,4.531-3.688,8.727-6.609,12.586c-1.407,1.859-2.532,2.789-3.375,2.789c-0.907,0-1.657-0.547-2.25-1.641
		c-0.767-1.484-1.149-3.102-1.149-4.852c0-3.688,1.297-6.852,3.892-9.492c2.531-2.594,5.733-4.211,9.608-4.852
		C184.792,116.017,184.98,116.689,184.98,117.658L184.98,117.658z"/>
	<path fill="#0D4482" d="M179.708,181.443c-0.188-0.781-0.281-1.711-0.281-2.789c0-3.578,0.608-6.875,1.828-9.891
		c0.218-0.563,0.476-1.07,0.773-1.523c0.218-0.406,0.327-0.844,0.327-1.313c0-1.031-0.289-2.023-0.866-2.977
		c-0.36-0.594-0.829-1.133-1.406-1.617c-0.626-0.547-1.103-0.82-1.43-0.82c-0.392,0-0.586,0.125-0.586,0.375
		c0,0.266,0.093,0.492,0.28,0.68c0.657,0.688,0.985,1.742,0.985,3.164c0,1.031-0.243,2.695-0.728,4.992
		c-0.672,3.375-1.008,6.336-1.008,8.883c0,2.453,0.212,4.438,0.633,5.953c0.235,0.844,0.563,1.539,0.985,2.086
		c0.469,0.625,0.938,0.938,1.406,0.938c0.733,0,1.101-0.398,1.101-1.195c0-0.313-0.046-0.711-0.14-1.195
		c-0.063-0.563-0.094-0.984-0.094-1.266c0-1.281,0.304-2.992,0.914-5.133c1.296-4.453,2.702-7.82,4.219-10.102
		c0.765-1.219,1.53-1.828,2.296-1.828c1.125,0,2.063,0.859,2.813,2.578c0.938,2.125,1.407,5.148,1.407,9.07
		c0,4.563-1.048,8.555-3.141,11.977c-2.329,3.797-5.742,6.641-10.242,8.531c-0.485,0.203-0.727,0.406-0.727,0.609
		c0,0.453,0.164,0.68,0.492,0.68c0.188,0,0.522-0.078,1.008-0.234c4.624-1.531,8.25-3.906,10.875-7.125
		c3.108-3.828,4.664-8.703,4.664-14.625c0-3.469-0.579-6.414-1.734-8.836c-1.329-2.781-3.056-4.172-5.18-4.172
		c-1.095,0-2.165,0.656-3.211,1.969c-1.407,1.734-2.829,4.648-4.266,8.742c-0.094,0.313-0.384,1.156-0.867,2.531
		c-0.392,1.156-0.696,2.117-0.914,2.883H179.708z"/>
	<path fill="#0D4482" d="M177.059,229.854c-1.359,1.954-2.977,3.891-4.852,5.813c-0.923,0.97-1.383,1.758-1.383,2.367
		c0,0.391,0.117,0.727,0.352,1.008c0.265,0.313,0.577,0.469,0.938,0.469c0.483,0,0.891-0.242,1.219-0.727
		c1.452-2.047,2.89-3.765,4.313-5.156c2.233-2.109,4.272-3.164,6.117-3.164c0.733,0,1.289,0.243,1.664,0.727
		c0.483,0.642,0.71,1.797,0.679,3.469c0,0.375,0,1.047,0,2.016c-2.609,1.579-4.469,2.892-5.577,3.938
		c-1.86,1.767-2.789,3.703-2.789,5.813c0,3.906,3.328,5.859,9.983,5.859c3.704,0,6.728-0.094,9.07-0.281
		c1.859-0.172,2.79-0.688,2.79-1.547c0-0.469-0.243-0.882-0.728-1.242c-0.578-0.453-1.313-0.68-2.202-0.68
		c-0.375,0-0.985,0.094-1.828,0.281c-0.907,0.22-1.782,0.384-2.625,0.492c-2.157,0.25-4.579,0.375-7.266,0.375
		c-3.704,0-5.555-1.187-5.555-3.563c0-1.421,0.68-2.78,2.038-4.078c0.922-0.858,2.469-1.898,4.642-3.117
		c-0.017,0.844-0.047,1.931-0.094,3.258c-0.048,1.313-0.07,2.235-0.07,2.766c0,0.344,0.124,0.642,0.375,0.891
		c0.265,0.267,0.585,0.398,0.96,0.398c0.875,0,1.313-0.609,1.313-1.828l-0.046-6.914c0.343-0.202,1.015-0.586,2.016-1.148
		c0.968-0.563,1.702-0.984,2.203-1.266c3.312-1.766,6.226-3.172,8.742-4.219c0.405-0.172,0.882-0.296,1.43-0.375
		c0.64-0.062,0.96-0.398,0.96-1.008c0-0.703-0.655-1.461-1.968-2.273c-1.251-0.765-2.431-1.148-3.539-1.148
		c-0.485,0-0.907,0.063-1.266,0.188c-0.438,0.156-0.657,0.352-0.657,0.586c0,0.141,0.142,0.234,0.423,0.281
		c0.687,0.094,1.249,0.29,1.688,0.586c0.281,0.188,0.422,0.391,0.422,0.609c0,0.313-0.173,0.586-0.516,0.82
		c-2.032,1.359-5.344,3.414-9.938,6.164c0-0.547-0.032-1.203-0.094-1.969c-0.141-2.859-1.563-4.289-4.266-4.289
		c-1.86,0-3.813,0.806-5.859,2.414l-0.094-0.094c1.266-1.813,2.843-4.374,4.733-7.688c2.767-0.624,5.523-1.477,8.274-2.555
		c0.563-0.219,0.944-0.422,1.148-0.609c0.249-0.202,0.375-0.492,0.375-0.867c0-0.296-0.126-0.563-0.375-0.797
		c-0.313-0.266-0.712-0.398-1.195-0.398c-0.61,0-1.43,0.29-2.461,0.867c-1.219,0.672-2.688,1.274-4.406,1.805
		c0.546-1.016,0.914-1.702,1.102-2.063c0.343-0.703,0.757-1.21,1.242-1.523c0.39-0.234,0.586-0.586,0.586-1.055
		c0-0.781-0.703-1.5-2.11-2.156c-1.094-0.516-2.047-0.773-2.858-0.773c-0.704,0-1.289,0.141-1.759,0.422
		c-0.359,0.234-0.538,0.478-0.538,0.727c0,0.156,0.179,0.234,0.538,0.234c1.984,0,2.978,0.438,2.978,1.313
		c0,0.438-0.11,1.023-0.328,1.758c-0.438,1.313-0.923,2.531-1.453,3.656c-2.235,0.516-4.219,0.773-5.954,0.773
		c-0.906,0-1.609-0.07-2.108-0.211c-0.656-0.188-1.298-0.577-1.922-1.172c-0.282-0.296-0.539-0.445-0.774-0.445
		c-0.28,0-0.421,0.211-0.421,0.633c0,0.173,0.077,0.391,0.233,0.656c0.625,0.923,1.29,1.579,1.992,1.969
		c0.781,0.422,1.844,0.633,3.188,0.633c0.875,0,2.415-0.132,4.618-0.398C179.309,226.385,178.152,228.307,177.059,229.854
		L177.059,229.854z"/>
	<path fill="#0D4482" d="M196.512,265.908c3.328,1.875,5.796,4.664,7.405,8.367c0.517,1.156,1.25,1.734,2.204,1.734
		c0.546,0,1.008-0.195,1.383-0.586c0.452-0.469,0.68-1.07,0.68-1.805c0-1.688-1.055-3.391-3.164-5.109
		c-2.11-1.688-4.735-2.891-7.875-3.609c-0.094-0.016-0.196-0.023-0.305-0.023c-0.469,0-0.703,0.141-0.703,0.422
		C196.137,265.564,196.261,265.767,196.512,265.908L196.512,265.908z"/>
	<path fill="#0D4482" d="M96.653,68.58c-0.532,2.938-1.142,5.352-1.828,7.242c-2.156-2.688-4.751-5.391-7.781-8.109
		c-0.047-0.031-0.094-0.047-0.141-0.047c-0.267,0-0.398,0.133-0.398,0.398c0,0.047,0.015,0.094,0.047,0.141
		c2.719,3.156,5.156,6.531,7.313,10.125c-2.501,5.922-6.321,10.992-11.461,15.211c-0.047,0.047-0.07,0.094-0.07,0.141
		c0,0.313,0.147,0.469,0.445,0.469c0.03,0,0.062-0.008,0.094-0.023c5.499-3.313,9.687-7.633,12.563-12.961
		c0.905,1.719,1.679,3.445,2.32,5.18c0.405,1.266,0.71,2.078,0.914,2.438c0.234,0.391,0.586,0.586,1.055,0.586
		c0.891,0,1.336-0.688,1.336-2.063c0-1.875-1.423-4.852-4.266-8.93c1.796-4.156,2.93-8.828,3.398-14.016h4.664
		c0.405,0,0.609-0.141,0.609-0.422c0-0.313-0.321-0.727-0.961-1.242c-1.329-1.156-2.109-1.734-2.344-1.734
		c-0.281,0-1.017,0.734-2.203,2.203h-4.852v-6.633c1.062-0.453,1.594-0.867,1.594-1.242c0-0.266-0.22-0.477-0.656-0.633
		c-0.609-0.203-1.962-0.422-4.055-0.656c0.155,1.391,0.234,2.734,0.234,4.031v5.133h-5.766c-1.251,0-2.414-0.109-3.492-0.328
		l0.422,1.805c1.296-0.188,2.335-0.281,3.117-0.281h10.711C97.152,65.345,96.964,66.752,96.653,68.58L96.653,68.58z M107.95,65.533
		c-1.329,0-2.587-0.109-3.773-0.328l0.422,1.805c1.39-0.188,2.531-0.281,3.422-0.281h8.438v24.703c0,0.578-0.274,0.867-0.82,0.867
		c-1.5,0-3.563-0.094-6.188-0.281c-0.157,0-0.234,0.125-0.234,0.375c0,0.203,0.062,0.32,0.188,0.352
		c1.952,0.391,3.312,0.773,4.078,1.148c0.75,0.391,1.163,0.93,1.242,1.617c0.077,0.516,0.288,0.773,0.633,0.773
		c0.952,0,1.898-0.305,2.836-0.914c0.952-0.656,1.43-1.695,1.43-3.117l-0.188-18.141v-7.383h6.375c0.452,0,0.68-0.141,0.68-0.422
		c0-0.266-0.321-0.711-0.961-1.336c-1.251-1.188-2.001-1.781-2.25-1.781c-0.281,0-1.001,0.781-2.156,2.344h-1.688v-9.117
		c1.093-0.469,1.641-0.898,1.641-1.289c0-0.313-0.234-0.539-0.703-0.68c-0.563-0.172-1.962-0.383-4.195-0.633
		c0.188,1.219,0.281,4.836,0.281,10.852v0.867H107.95z M109.333,80.978c0.296,1.438,0.835,2.156,1.617,2.156
		c1.046,0,1.57-0.734,1.57-2.203c0-1.328-0.516-2.836-1.547-4.523c-1.313-2.094-3.11-3.922-5.391-5.484
		c-0.047-0.031-0.103-0.047-0.164-0.047c-0.251,0-0.375,0.102-0.375,0.305c0,0.047,0.015,0.094,0.047,0.141
		C107.167,74.041,108.583,77.26,109.333,80.978L109.333,80.978z"/>
	<path fill="#0D4482" d="M106.848,132.534c-1.063-0.625-2.259-1.188-3.586-1.688c0.188,1.578,0.281,4.305,0.281,8.18l-0.141,9.352
		c0,0.671,0.429,1.008,1.289,1.008c1.155,0,1.734-0.414,1.734-1.242v-1.781h13.688v1.828c0,0.671,0.413,1.008,1.242,1.008
		c1.219,0,1.828-0.431,1.828-1.289l-0.188-9.516v-3.75c0.858-0.578,1.289-0.992,1.289-1.242c0-0.313-0.274-0.68-0.82-1.102
		c-1.031-0.875-1.673-1.313-1.922-1.313c-0.22,0-0.79,0.516-1.711,1.547h-5.391v-9.703h12.305c0.405,0,0.609-0.156,0.609-0.469
		c0-0.266-0.368-0.719-1.102-1.359c-1.5-1.25-2.399-1.875-2.695-1.875c-0.234,0-1.063,0.836-2.484,2.508h-6.633v-10.242
		c2.25-0.594,4.538-1.375,6.867-2.344c0.624,0.156,1.132,0.234,1.523,0.234c0.563,0,0.844-0.172,0.844-0.516
		c0-0.375-1.11-1.398-3.328-3.07c-0.735,0.734-1.938,1.516-3.609,2.344c-3.844,1.891-8.618,3.422-14.32,4.594
		c-0.11,0.031-0.164,0.133-0.164,0.305c0,0.281,0.094,0.422,0.281,0.422c2.968-0.219,5.977-0.648,9.023-1.289v9.563h-7.289
		c-1.298,0-2.563-0.125-3.797-0.375l0.445,1.852c0.952-0.188,2.069-0.281,3.352-0.281h7.289v9.703H106.848z M106.426,145.167
		v-11.438h13.688v11.438H106.426z M95.528,147.745c0,0.641,0.382,0.961,1.148,0.961c1.187,0,1.781-0.398,1.781-1.195l-0.141-8.063
		v-3.023c0.765-0.516,1.148-0.914,1.148-1.195c0-0.297-0.274-0.664-0.82-1.102c-0.954-0.766-1.532-1.148-1.734-1.148
		c-0.188,0-0.743,0.492-1.664,1.477h-6.773c-1.251-0.703-2.353-1.234-3.305-1.594c0.155,1.516,0.234,4,0.234,7.453l-0.141,8.016
		c0,0.641,0.398,0.961,1.195,0.961c1.155,0,1.734-0.414,1.734-1.242v-1.641h7.336V147.745z M88.192,145.214v-9.563h7.336v9.563
		H88.192z M88.098,110.151h10.617c0.405,0,0.609-0.141,0.609-0.422c0-0.266-0.305-0.664-0.914-1.195
		c-1.298-1.094-2.079-1.641-2.344-1.641c-0.204,0-0.907,0.688-2.109,2.063h-5.859c-1.11,0-2.243-0.109-3.398-0.328l0.422,1.805
		C86.042,110.245,87.035,110.151,88.098,110.151L88.098,110.151z M86.411,116.432h14.367c0.405,0,0.609-0.141,0.609-0.422
		c0-0.344-0.29-0.742-0.867-1.195c-1.329-1.094-2.109-1.641-2.344-1.641c-0.267,0-0.984,0.688-2.156,2.063h-9.609
		c-1.125,0-2.273-0.109-3.445-0.328l0.469,1.805C84.214,116.526,85.207,116.432,86.411,116.432L86.411,116.432z M88.004,122.878
		h10.711c0.405,0,0.609-0.141,0.609-0.422c0-0.313-0.258-0.664-0.773-1.055c-1.251-1.094-2.001-1.641-2.25-1.641
		c-0.281,0-0.923,0.641-1.922,1.922h-6.375c-1.031,0-2.103-0.125-3.211-0.375l0.422,1.852
		C86.34,122.971,87.269,122.878,88.004,122.878L88.004,122.878z M88.145,129.065h10.711c0.422,0,0.633-0.141,0.633-0.422
		c0-0.344-0.274-0.711-0.82-1.102c-1.266-1.063-2.016-1.594-2.25-1.594c-0.281,0-0.961,0.641-2.039,1.922h-6.234
		c-1.063,0-2.149-0.125-3.258-0.375l0.516,1.852C86.511,129.159,87.425,129.065,88.145,129.065L88.145,129.065z"/>
	<path fill="#0D4482" d="M122.247,179.005c-2.063-2.609-4.556-4.515-7.477-5.719c-0.188-0.094-0.415-0.141-0.68-0.141
		c-0.281,0-0.422,0.173-0.422,0.516c0,0.22,0.094,0.398,0.281,0.539c1.937,1.219,3.593,2.657,4.969,4.313
		c1.515,1.828,2.273,3.384,2.273,4.664c0,0.344-0.228,0.578-0.68,0.703c-1.095,0.328-2.977,0.75-5.648,1.266
		c-0.36,0.079-0.539,0.267-0.539,0.563c0,0.392,0.188,0.586,0.563,0.586c0.03,0,0.07,0,0.117,0c1.828-0.124,3.687-0.188,5.578-0.188
		c0.671,0,1.195,0.126,1.57,0.375c0.358,0.22,0.78,0.328,1.266,0.328c0.952,0,1.43-0.609,1.43-1.828
		C124.848,183.185,123.981,181.193,122.247,179.005L122.247,179.005z M103.239,168.481c0.405-0.858,0.804-1.391,1.195-1.594
		c0.452-0.202,0.68-0.522,0.68-0.961c0-0.844-0.571-1.617-1.711-2.32c-1.188-0.718-2.344-1.078-3.469-1.078
		c-0.86,0-1.47,0.126-1.828,0.375c-0.251,0.173-0.375,0.337-0.375,0.492c0,0.234,0.179,0.375,0.539,0.422
		c0.75,0.047,1.421,0.234,2.016,0.563c0.687,0.391,1.031,0.829,1.031,1.313c0,0.548-0.126,1.204-0.375,1.969
		c-0.626,1.922-1.359,3.82-2.203,5.695c-0.563,0.173-2.484,0.703-5.766,1.594c-1.453,0.422-2.578,0.633-3.375,0.633
		c-0.938,0-1.72-0.546-2.344-1.641c-0.188-0.328-0.328-0.492-0.422-0.492c-0.36,0-0.539,0.367-0.539,1.102
		c0.047,1.001,0.64,2.048,1.781,3.141c0.656,0.609,1.327,0.914,2.016,0.914c0.312,0,0.647-0.124,1.008-0.375
		c0.499-0.328,1.108-0.616,1.828-0.867c2.109-0.844,3.741-1.453,4.898-1.828c-2.642,5.625-6.392,12.211-11.25,19.758
		c-0.281,0.422-0.422,0.844-0.422,1.266c0,0.797,0.46,1.195,1.383,1.195c0.593,0,1.031-0.258,1.313-0.773
		c3.812-6.453,7.647-13.828,11.508-22.125c1.483-0.53,2.749-0.797,3.797-0.797c1.89,0,2.836,1.438,2.836,4.313
		c0,2.548-0.445,5.36-1.336,8.438c-1.048,3.375-2.203,5.758-3.469,7.148c-0.516,0.516-1.11,0.773-1.781,0.773
		c-0.516,0-0.931-0.078-1.242-0.234c-1.078-0.547-2.423-1.397-4.031-2.555c-0.22-0.155-0.384-0.234-0.492-0.234
		c-0.281,0-0.422,0.157-0.422,0.469c0,0.173,0.062,0.32,0.188,0.445c1.343,1.266,2.241,2.195,2.695,2.789
		c0.375,0.454,0.616,0.914,0.727,1.383c0.218,0.938,0.788,1.406,1.711,1.406c1.374,0,2.702-0.641,3.984-1.922
		c1.594-1.438,2.906-3.711,3.938-6.82c0.483-1.343,0.914-2.961,1.289-4.852c0.422-2.141,0.633-3.914,0.633-5.32
		c0-4.515-1.664-6.773-4.992-6.773c-0.86,0-1.884,0.109-3.07,0.328C101.582,172.263,102.222,170.81,103.239,168.481L103.239,168.481
		z"/>
	<path fill="#0D4482" d="M94.778,222.855c-1.188,0.703-1.781,1.523-1.781,2.461l0.164,2.016c0,0.797-0.094,1.695-0.281,2.695
		c-0.813,4.609-1.219,8.188-1.219,10.734c0,1.156,0.211,2.055,0.633,2.695c0.422,0.734,0.851,1.102,1.289,1.102
		c0.687,0,1.179-0.367,1.477-1.102c0.202-0.5,1.022-1.539,2.461-3.117c1.671-1.891,3.516-3.461,5.531-4.711
		c2.608-1.641,5.069-2.461,7.383-2.461c1.594,0,2.96,0.438,4.102,1.313c1.359,1.047,2.039,2.453,2.039,4.219
		c0,1.688-0.431,3.148-1.289,4.383c-0.891,1.281-2.414,2.539-4.57,3.773c-3.595,2.063-8.086,3.438-13.477,4.125
		c-0.485,0.063-0.727,0.289-0.727,0.68c0,0.422,0.234,0.633,0.703,0.633c0.015,0,0.054,0,0.117,0
		c6.141-0.36,11.147-1.484,15.023-3.375c4.952-2.359,7.43-5.492,7.43-9.398c0-2.266-0.844-4.109-2.531-5.531
		c-1.798-1.5-4.11-2.25-6.938-2.25c-2.142,0-4.453,0.617-6.938,1.852c-2.297,1.125-5.196,3.039-8.695,5.742
		c-0.204,0.125-0.352,0.188-0.445,0.188s-0.141-0.195-0.141-0.586c0.124-3.172,0.352-5.727,0.68-7.664
		c0.328-2.016,0.492-3.203,0.492-3.563c0-0.563-0.134-1.133-0.398-1.711c-0.188-0.391-0.281-0.781-0.281-1.172
		c0-0.313,0.305-0.609,0.914-0.891c0.905-0.453,1.999-0.828,3.281-1.125c1.327-0.313,2.461-0.469,3.398-0.469
		c0.609,0,1.179,0.078,1.711,0.234c0.499,0.156,0.968,0.234,1.406,0.234c0.858,0,1.289-0.445,1.289-1.336
		c0-0.484-0.337-1.063-1.008-1.734c-0.642-0.594-1.5-1.086-2.578-1.477c-1.282-0.453-2.306-0.945-3.07-1.477
		c-1.078-0.75-1.962-1.781-2.648-3.094c-0.157-0.313-0.345-0.469-0.563-0.469c-0.298,0-0.445,0.172-0.445,0.516
		c0,0.031,0,0.07,0,0.117c0.094,1.266,0.718,2.602,1.875,4.008c0.64,0.813,1.594,1.602,2.859,2.367v0.141
		C98.496,221.105,96.418,221.933,94.778,222.855L94.778,222.855z"/>
	<path fill="#0D4482" d="M17.629,91.501c0,0.563-0.243,0.844-0.727,0.844c-0.984,0-2.508-0.078-4.57-0.234
		c-0.157,0-0.234,0.109-0.234,0.328c0,0.172,0.062,0.273,0.188,0.305c1.468,0.313,2.499,0.648,3.094,1.008
		c0.593,0.344,0.938,0.836,1.031,1.477c0.077,0.484,0.272,0.727,0.586,0.727c0.844,0,1.664-0.258,2.461-0.773
		c0.797-0.531,1.195-1.445,1.195-2.742l-0.141-15.539v-7.453c0.827-0.563,1.242-0.969,1.242-1.219c0-0.266-0.258-0.617-0.773-1.055
		c-1.078-0.859-1.72-1.289-1.922-1.289c-0.157,0-0.727,0.516-1.711,1.547H8.254c-1.172-0.734-2.29-1.313-3.352-1.734
		c0.094,1.703,0.141,6.141,0.141,13.313L4.809,95.18c0,0.766,0.413,1.148,1.242,1.148c1.249,0,1.875-0.445,1.875-1.336V83.087h9.703
		V91.501z M7.926,81.891v-6.094h9.703v6.094H7.926z M7.926,74.602v-5.977h9.703v5.977H7.926z M5.348,61.29
		c-1.298,0-2.563-0.094-3.797-0.281l0.469,1.805c1.015-0.219,2.14-0.328,3.375-0.328h38.063c0.422,0,0.633-0.141,0.633-0.422
		c0-0.25-0.384-0.694-1.148-1.336c-1.61-1.25-2.508-1.875-2.695-1.875c-0.234,0-1.087,0.813-2.555,2.438H27.098
		c1.437-1.406,3-3.18,4.688-5.32c1.343-0.047,2.016-0.336,2.016-0.867c0-0.391-1.517-1.141-4.547-2.25
		c-0.141,0.813-0.415,1.703-0.82,2.672c-0.72,1.672-1.664,3.595-2.836,5.766H5.348z M14.7,59.18c0.218,1,0.718,1.5,1.5,1.5
		c1.202,0,1.805-0.656,1.805-1.969c0-0.905-0.462-1.836-1.383-2.789c-1.078-1.125-2.517-2-4.313-2.625
		c-0.032-0.016-0.07-0.023-0.117-0.023c-0.22,0-0.328,0.086-0.328,0.258c0,0.047,0.015,0.094,0.047,0.141
		C13.238,55.079,14.167,56.915,14.7,59.18L14.7,59.18z M31.715,68.555c0-0.281-0.243-0.5-0.727-0.656
		c-0.579-0.188-1.922-0.422-4.031-0.703c0.155,1.531,0.234,4.031,0.234,7.5l-0.188,11.367c0,0.422,0.077,0.719,0.234,0.891
		c0.171,0.203,0.522,0.305,1.055,0.305c1.28,0,1.922-0.477,1.922-1.43l-0.141-11.227v-4.805
		C31.167,69.329,31.715,68.915,31.715,68.555L31.715,68.555z M41.161,67.102c0-0.313-0.228-0.539-0.68-0.68
		c-0.579-0.203-1.954-0.422-4.125-0.656c0.155,1.219,0.234,3.742,0.234,7.57V91.43c0,0.578-0.305,0.867-0.914,0.867
		c-1.313,0-3.087-0.094-5.32-0.281c-0.157-0.031-0.234,0.086-0.234,0.352c0,0.188,0.062,0.297,0.188,0.328
		c1.688,0.359,2.874,0.727,3.563,1.102c0.64,0.359,1.008,0.82,1.102,1.383c0.062,0.547,0.296,0.82,0.703,0.82
		c0.905,0,1.772-0.273,2.602-0.82c0.984-0.703,1.477-1.633,1.477-2.789L39.52,78.868V68.391
		C40.613,67.938,41.161,67.509,41.161,67.102L41.161,67.102z"/>
	<path fill="#0D4482" d="M24.004,121.554c-0.188,0.25-0.281,0.477-0.281,0.68c0,0.25,0.171,0.375,0.516,0.375
		c0.171,0,0.382-0.125,0.633-0.375c1.983-1.844,3.452-3.008,4.406-3.492c0.938-0.516,1.929-0.773,2.977-0.773l3.375,0.141
		c0.984,0,1.477-0.43,1.477-1.289c0-1.219-1.282-1.828-3.844-1.828c-5.282,0-9.773,1.172-13.477,3.516
		c-0.392,0.234-0.586,0.508-0.586,0.82s0.179,0.469,0.539,0.469c0.124,0,0.312-0.063,0.563-0.188
		c2.719-1.203,5.069-1.945,7.055-2.227c0.047,0,0.085,0,0.117,0c0.124,0,0.188,0.031,0.188,0.094s-0.047,0.148-0.141,0.258
		C26.269,118.922,25.097,120.195,24.004,121.554L24.004,121.554z M19.34,129.054c-0.595,1.375-0.891,2.773-0.891,4.195
		c0,2.578,0.897,4.563,2.695,5.953c2.046,1.656,5.625,2.484,10.734,2.484c3.108,0,5.382-0.211,6.82-0.633
		c0.827-0.25,1.242-0.711,1.242-1.383c0-1.063-0.961-1.594-2.883-1.594c-0.688,0-1.329,0.078-1.922,0.234
		c-1.61,0.391-3.478,0.586-5.602,0.586c-3.22,0-5.672-0.547-7.359-1.641c-1.532-1.031-2.297-2.641-2.297-4.828
		c0-0.859,0.117-1.898,0.352-3.117c0.015-0.094,0.023-0.164,0.023-0.211c0-0.281-0.134-0.422-0.398-0.422
		C19.636,128.679,19.464,128.804,19.34,129.054L19.34,129.054z M9.895,137.211c-0.094,0.266-0.234,0.398-0.422,0.398
		c-0.173,0-0.305-0.227-0.398-0.68c-0.188-0.906-0.281-2.156-0.281-3.75c0-1.938,0.241-4.133,0.727-6.586
		c0.483-2.5,1.055-4.594,1.711-6.281c0.296-0.766,0.601-1.305,0.914-1.617c0.452-0.453,0.68-1.063,0.68-1.828
		c0-1.078-0.398-2.133-1.195-3.164c-1.298-1.703-2.407-2.555-3.328-2.555c-0.281,0-0.422,0.141-0.422,0.422
		c0,0.234,0.124,0.477,0.375,0.727c0.999,1,1.5,2.023,1.5,3.07c0,0.516-0.228,1.641-0.68,3.375
		c-1.532,5.797-2.297,10.578-2.297,14.344c0,3.578,0.563,6.75,1.688,9.516c0.483,1.156,1.108,1.734,1.875,1.734
		c0.703,0,1.055-0.414,1.055-1.242l-0.164-2.742c0-0.547,0.211-1.648,0.633-3.305c0.577-2.406,1.383-5.32,2.414-8.742
		c0.062-0.25,0.094-0.414,0.094-0.492c0-0.281-0.181-0.422-0.539-0.422c-0.281,0-0.492,0.188-0.633,0.563
		C12.543,129.687,11.442,132.773,9.895,137.211L9.895,137.211z"/>
	<path fill="#0D4482" d="M43.458,192.336c0.422,0,0.633-0.156,0.633-0.469s-0.337-0.734-1.008-1.266
		c-1.5-1.219-2.367-1.828-2.602-1.828s-1.001,0.789-2.297,2.367h-6.867v-7.125h10.359c0.422,0,0.633-0.156,0.633-0.469
		c0-0.297-0.305-0.695-0.914-1.195c-1.345-1.125-2.142-1.688-2.391-1.688c-0.251,0-0.938,0.719-2.063,2.156h-5.625v-6.281h10.359
		c0.422,0,0.633-0.164,0.633-0.492c0-0.234-0.321-0.609-0.961-1.125c-1.329-1.156-2.109-1.734-2.344-1.734
		c-0.251,0-0.954,0.719-2.109,2.156h-5.578v-6.211h11.813c0.405,0,0.609-0.141,0.609-0.422c0-0.25-0.352-0.664-1.055-1.242
		c-1.359-1.156-2.173-1.734-2.438-1.734c-0.251,0-0.984,0.734-2.203,2.203h-8.367c1.39-1.547,2.78-3.453,4.172-5.719
		c1.219-0.125,1.828-0.43,1.828-0.914c0-0.453-1.453-1.141-4.359-2.063c-0.032,0.672-0.274,1.727-0.727,3.164
		c-0.563,1.797-1.282,3.641-2.156,5.531h-7.969c1.233-1.813,2.421-3.922,3.563-6.328c1.202-0.141,1.805-0.461,1.805-0.961
		c0-0.469-1.438-1.109-4.313-1.922c-0.141,0.938-0.539,2.344-1.195,4.219c-1.86,4.781-4.579,9.086-8.156,12.914
		c-0.032,0.047-0.047,0.094-0.047,0.141c0,0.266,0.132,0.398,0.398,0.398c0.047,0,0.094-0.016,0.141-0.047
		c1.828-1.391,3.53-3.008,5.109-4.852l-0.047,7.148c-0.047,4.313-0.103,8.039-0.164,11.18c-0.047,2.813-0.07,4.227-0.07,4.242
		c0,0.703,0.413,1.055,1.242,1.055c1.187,0,1.781-0.398,1.781-1.195v-1.594H43.458z M20.512,176.539h8.016v6.281h-8.016V176.539z
		 M28.528,184.015v7.125h-8.016v-7.125H28.528z M20.512,169.133h8.016v6.211h-8.016V169.133z M7.598,167.14
		c0.375,1.313,0.858,1.969,1.453,1.969c1.374,0,2.063-0.781,2.063-2.344c0-0.984-0.571-2.055-1.711-3.211
		c-1.392-1.391-3.22-2.508-5.484-3.352c-0.047-0.016-0.079-0.023-0.094-0.023c-0.234,0-0.352,0.094-0.352,0.281
		c0,0.047,0.015,0.094,0.047,0.141C5.489,162.523,6.848,164.703,7.598,167.14L7.598,167.14z M27.122,197.797
		c-5.329,0-9.243-0.5-11.742-1.5c-1.828-0.703-3.398-2.156-4.711-4.359v-11.414c0.858-0.531,1.289-0.953,1.289-1.266
		c0-0.297-0.29-0.68-0.867-1.148c-1.031-0.891-1.657-1.336-1.875-1.336c-0.188,0-0.79,0.539-1.805,1.617H4.762
		c-1.219,0-2.548-0.109-3.984-0.328l0.422,1.875c1.125-0.219,2.312-0.328,3.563-0.328h2.977v12.469
		c-1.47,1.219-2.977,2.195-4.523,2.93c-1.095,0.516-2.001,0.852-2.719,1.008c1.53,2.984,2.522,4.477,2.977,4.477
		c0.469,0,0.703-0.719,0.703-2.156c2.233-2.188,4.046-4.32,5.438-6.398c1.296,2.938,2.96,5.039,4.992,6.305
		c2.608,1.625,7.289,2.438,14.039,2.438c5.391,0,9.984-0.109,13.781-0.328c0.328-0.047,0.546-0.125,0.656-0.234
		c0.141-0.141,0.226-0.43,0.258-0.867c0.015-0.453,0.117-0.797,0.305-1.031c0.202-0.25,0.609-0.516,1.219-0.797
		c0.108-0.063,0.164-0.18,0.164-0.352c0-0.25-0.087-0.359-0.258-0.328C39.239,197.445,33.356,197.797,27.122,197.797L27.122,197.797
		z"/>
	<path fill="#0D4482" d="M27.192,223.278c0.249-0.516,0.469-0.945,0.656-1.289c0.296-0.563,0.601-1.07,0.914-1.523
		c0.281-0.484,0.422-0.875,0.422-1.172c0-0.703-0.579-1.406-1.734-2.109c-1.282-0.703-2.478-1.055-3.586-1.055
		c-0.345,0-0.75,0.148-1.219,0.445c-0.313,0.266-0.469,0.5-0.469,0.703c0,0.234,0.211,0.352,0.633,0.352
		c1.781,0.047,2.672,0.688,2.672,1.922c0,0.688-0.204,1.563-0.609,2.625c-0.532,1.297-0.853,2.07-0.961,2.32
		c-3.891,0.438-7.446,1.688-10.664,3.75c-0.032-0.25-0.063-0.609-0.094-1.078c-0.063-0.547-0.11-0.945-0.141-1.195
		c-0.188-1.719-0.603-2.984-1.242-3.797c-0.782-0.922-2.173-1.672-4.172-2.25c-0.126-0.031-0.281-0.047-0.469-0.047
		c-0.141,0-0.267,0.055-0.375,0.164c-0.141,0.125-0.211,0.242-0.211,0.352c0,0.234,0.155,0.445,0.469,0.633
		c1.437,0.719,2.414,1.602,2.93,2.648c0.405,0.797,0.757,2.156,1.055,4.078l0.281,1.828c-1.813,1.406-3.313,3.094-4.5,5.063
		c-1.313,2.188-1.969,4.25-1.969,6.188c0,1.547,0.312,2.789,0.938,3.727c0.718,1.063,1.734,1.594,3.047,1.594
		c1.483,0,2.89-0.641,4.219-1.922c0.938-0.938,1.976-2.125,3.117-3.563c0.469,0.531,1.078,1.125,1.828,1.781
		c0.405,0.359,0.874,0.539,1.406,0.539c0.827,0,1.242-0.469,1.242-1.406c0-0.391-0.431-0.93-1.289-1.617
		c-0.673-0.531-1.188-1.031-1.547-1.5c2.452-3.281,5.077-7.461,7.875-12.539c3.077,0,5.78,0.93,8.109,2.789
		c2.016,1.578,3.023,3.867,3.023,6.867c0,3.391-1.61,6.336-4.828,8.836c-2.798,2.172-6.501,3.828-11.109,4.969
		c-0.485,0.125-0.727,0.383-0.727,0.773s0.265,0.586,0.797,0.586c0.047,0,0.101,0,0.164,0c4.594-0.672,8.522-1.992,11.789-3.961
		c4.688-2.844,7.031-6.531,7.031-11.063c0-3.438-1.453-6.234-4.359-8.391c-2.391-1.797-5.367-2.773-8.93-2.93
		C26.73,224.137,26.925,223.762,27.192,223.278L27.192,223.278z M23.231,226.067c-2.423,4.516-4.688,8.133-6.797,10.852
		c-1.406-2.141-2.367-4.461-2.883-6.961C16.488,227.895,19.715,226.598,23.231,226.067L23.231,226.067z M14.981,238.981
		c-1.11,1.406-2.118,2.469-3.023,3.188c-0.891,0.734-1.821,1.102-2.789,1.102c-1.406,0-2.109-1.117-2.109-3.352
		c0-1.063,0.352-2.32,1.055-3.773c0.905-1.875,2.124-3.484,3.656-4.828C12.473,234.177,13.542,236.731,14.981,238.981
		L14.981,238.981z"/>
	<path fill="#0D4482" d="M24.543,298.367c-1.673-1.703-3.609-2.555-5.813-2.555c-1.235,0-2.259,0.305-3.07,0.913
		c-0.954,0.704-1.43,1.665-1.43,2.883c0,1.407,0.694,2.587,2.086,3.54c1.671,1.125,3.984,1.688,6.938,1.688
		c3.218,0,6.038-0.836,8.461-2.508c3.03-2.094,4.547-4.923,4.547-8.485c0-2.343-0.696-4.351-2.086-6.022
		c-1.907-2.297-4.798-3.445-8.672-3.445c-3.141,0-6.501,1.234-10.078,3.703l-0.094-0.048c7.983-8.905,12.101-13.483,12.352-13.734
		c0.938-0.952,1.734-1.515,2.391-1.688c0.609-0.155,0.914-0.491,0.914-1.008c0-0.64-0.548-1.327-1.641-2.063
		c-0.954-0.702-1.734-1.055-2.344-1.055c-0.392,0-0.727,0.142-1.008,0.422c-0.392,0.392-0.79,0.649-1.195,0.774
		c-2.923,0.859-5.071,1.445-6.445,1.758c-1.188,0.25-2.095,0.375-2.719,0.375c-0.782,0-1.556-0.5-2.32-1.5
		c-0.313-0.422-0.586-0.633-0.82-0.633c-0.281,0-0.422,0.258-0.422,0.773c0,0.859,0.429,1.82,1.289,2.883
		c0.921,1.125,1.819,1.688,2.695,1.688c0.312,0,0.71-0.211,1.195-0.633c0.218-0.188,0.633-0.398,1.242-0.633
		c2.531-0.969,5.109-1.891,7.734-2.766c0.141-0.047,0.258-0.071,0.352-0.071c0.155,0,0.234,0.056,0.234,0.165
		c0,0.078-0.056,0.195-0.164,0.352c-4.86,6.421-10.664,13.211-17.414,20.367c-0.642,0.703-0.961,1.313-0.961,1.828
		c0,0.406,0.155,0.758,0.469,1.055c0.328,0.328,0.703,0.492,1.125,0.492c0.499,0,0.882-0.18,1.148-0.539
		c1.313-1.672,2.429-2.93,3.352-3.773c3.671-3.297,7.46-4.946,11.367-4.946c1.89,0,3.499,0.509,4.828,1.524
		c1.812,1.391,2.719,3.477,2.719,6.258c0,1.563-0.524,3.093-1.57,4.593c-1.266,1.813-2.923,3.032-4.969,3.657
		C26.402,300.719,25.668,299.523,24.543,298.367L24.543,298.367z M22.293,302.633c-2.016,0-3.618-0.328-4.805-0.984
		c-1.142-0.641-1.711-1.406-1.711-2.298c0-0.563,0.179-1.03,0.539-1.405c0.452-0.5,1.132-0.75,2.039-0.75
		c1.015,0,2.069,0.461,3.164,1.383c1.296,1.077,2.163,2.359,2.602,3.843C23.73,302.562,23.121,302.633,22.293,302.633
		L22.293,302.633z"/>
</g>
</svg>
