<?xml version="1.0" encoding="utf-8"?>
<!-- Generator: Adobe Illustrator 14.0.0, SVG Export Plug-In . SVG Version: 6.00 Build 43363)  -->
<!DOCTYPE svg PUBLIC "-//W3C//DTD SVG 1.1 Basic//EN" "http://www.w3.org/Graphics/SVG/1.1/DTD/svg11-basic.dtd">
<svg version="1.1" baseProfile="basic" id="レイヤー_2"
	 xmlns="http://www.w3.org/2000/svg" xmlns:xlink="http://www.w3.org/1999/xlink" x="0px" y="0px" width="290.413px"
	 height="463.48px" viewBox="0 0 290.413 463.48" xml:space="preserve">
<g>
	<path fill="#0D4482" d="M257.32,7.734c-0.984-0.578-2.25-1.188-3.797-1.828c0.155,1.891,0.234,7.203,0.234,15.938l-0.234,21.141
		c0,0.734,0.444,1.102,1.336,1.102c1.249,0,1.875-0.454,1.875-1.359V40.43h21.983v2.109c0,0.734,0.445,1.102,1.337,1.102
		c1.249,0,1.875-0.445,1.875-1.336l-0.188-21.469V10.031c0.891-0.641,1.336-1.102,1.336-1.383c0-0.234-0.29-0.602-0.867-1.102
		c-1.095-0.938-1.767-1.406-2.016-1.406c-0.22,0-0.837,0.531-1.853,1.594h-13.827c0.999-1.078,2.227-2.711,3.68-4.898
		c1.187-0.219,1.78-0.539,1.78-0.961c0-0.266-0.273-0.516-0.82-0.75c-0.608-0.25-1.883-0.625-3.819-1.125
		c-0.048,0.891-0.306,2.109-0.773,3.656c-0.438,1.469-0.938,2.828-1.5,4.078H257.32z M256.734,39.234V29.203h21.983v10.031H256.734z
		 M256.734,28.008v-8.953h21.983v8.953H256.734z M256.734,17.859V8.93h21.983v8.93H256.734z"/>
	<path fill="#0D4482" d="M258.398,86.381c-2.438,3.719-6.407,6.929-11.906,9.633c-0.063,0.031-0.094,0.094-0.094,0.188
		c0,0.359,0.124,0.539,0.375,0.539c0.015,0,0.03,0,0.047,0c5.578-1.781,9.851-4.305,12.82-7.57c3.39-3.734,5.382-8.797,5.977-15.188
		h11.555c-0.392,6.703-0.993,11.617-1.805,14.742c-0.579,2.203-1.477,3.305-2.695,3.305c-1.517,0-3.821-0.273-6.914-0.82
		c-0.173-0.031-0.258,0.125-0.258,0.469c0,0.219,0.054,0.336,0.163,0.352c1.859,0.453,3.212,0.914,4.055,1.383
		c0.845,0.469,1.32,1.046,1.431,1.734c0.047,0.296,0.108,0.484,0.188,0.563c0.077,0.078,0.265,0.117,0.563,0.117
		c1.608,0,2.843-0.383,3.702-1.148c0.985-0.829,1.797-2.289,2.438-4.383c0.938-2.969,1.642-8.055,2.11-15.258
		c0.827-0.531,1.242-0.914,1.242-1.148c0-0.297-0.258-0.68-0.773-1.148c-1.157-1.063-1.852-1.594-2.087-1.594
		c-0.203,0-0.813,0.547-1.827,1.641h-19.055c-1.5,0-2.906-0.148-4.219-0.445l0.469,1.922c1.046-0.188,2.312-0.281,3.797-0.281h4.664
		C261.858,78.998,260.538,83.131,258.398,86.381L258.398,86.381z M280.008,65.873c-2.907-2.688-5.109-5.953-6.609-9.797
		c-0.173-0.375-0.258-0.648-0.258-0.82l0.188-0.773c0-0.25-0.141-0.375-0.423-0.375c-0.203,0-0.515,0.086-0.938,0.258
		c-0.531,0.234-0.796,0.422-0.796,0.563c0,0.188,0.155,0.391,0.469,0.609c0.234,0.188,0.429,0.461,0.585,0.82
		c1.813,5.063,4.009,9.078,6.587,12.047c1.765,2.156,3.938,4.109,6.516,5.859c0.858,0.578,1.483,0.867,1.875,0.867
		c0.281,0,0.483-0.242,0.609-0.727c0.265-0.703,0.516-1.195,0.75-1.477c0.296-0.328,0.718-0.508,1.266-0.539
		c0.188-0.031,0.281-0.148,0.281-0.352c0-0.141-0.056-0.227-0.164-0.258C286.366,70.654,283.055,68.686,280.008,65.873
		L280.008,65.873z M255.609,68.732c2.937-3.109,5.421-6.898,7.453-11.367c1.359-0.156,2.038-0.477,2.038-0.961
		c0-0.531-1.586-1.328-4.758-2.391c-0.233,1.203-0.719,2.688-1.452,4.453c-2.798,6.609-7.195,12.234-13.195,16.875
		c-0.047,0.047-0.07,0.102-0.07,0.164c0,0.328,0.141,0.492,0.422,0.492c0.015,0,0.038,0,0.07,0
		C249.82,73.92,252.984,71.498,255.609,68.732L255.609,68.732z"/>
	<path fill="#0D4482" d="M268.453,115.654c0.452,0,0.882,0.016,1.289,0.047c3.469,0.172,6.343,1.234,8.625,3.188
		c2.702,2.313,4.055,5.391,4.055,9.234c0,4.016-1.649,7.375-4.946,10.078c-3.078,2.516-7.164,4.211-12.258,5.086
		c-0.547,0.125-0.819,0.383-0.819,0.773c0,0.359,0.234,0.539,0.702,0.539c0.031,0,0.071,0,0.117,0
		c5.047-0.281,9.406-1.531,13.079-3.75c4.858-2.921,7.289-6.891,7.289-11.906c0-4.046-1.345-7.445-4.031-10.195
		c-3.11-3.188-7.242-4.781-12.399-4.781c-5.594,0-10.234,1.727-13.921,5.18c-3.485,3.281-5.227,7.25-5.227,11.906
		c0,2.438,0.563,4.547,1.688,6.328c1.108,1.672,2.391,2.508,3.843,2.508c1.407,0,2.984-1.07,4.735-3.211
		c2.952-3.734,5.257-7.977,6.914-12.727c0.609-1.953,0.913-3.523,0.913-4.711c0-1.359-0.32-2.539-0.96-3.539
		C267.546,115.669,267.984,115.654,268.453,115.654L268.453,115.654z M266.226,117.904c0,1-0.227,2.148-0.679,3.445
		c-1.485,4.532-3.688,8.727-6.609,12.586c-1.407,1.859-2.532,2.789-3.375,2.789c-0.907,0-1.657-0.547-2.25-1.641
		c-0.767-1.484-1.149-3.102-1.149-4.852c0-3.688,1.297-6.852,3.892-9.492c2.531-2.593,5.733-4.21,9.608-4.852
		C266.038,116.263,266.226,116.935,266.226,117.904L266.226,117.904z"/>
	<path fill="#0D4482" d="M251.133,169.29c-1.423,0-2.742-0.109-3.961-0.328l0.421,1.805c1.156-0.188,2.336-0.281,3.54-0.281H264
		c-3.86,9.141-10.04,16.79-18.539,22.945c-0.048,0.016-0.07,0.055-0.07,0.117c0,0.313,0.14,0.469,0.422,0.469
		c0.03,0,0.054-0.008,0.07-0.023c8.452-4.625,15.132-11.344,20.039-20.156l-0.281,16.641h-6.586c-1.282,0-2.478-0.109-3.587-0.328
		l0.47,1.805c1.078-0.188,2.171-0.281,3.28-0.281h6.423c-0.126,5.734-0.188,8.969-0.188,9.703c0,0.797,0.46,1.195,1.383,1.195
		c1.374,0,2.063-0.461,2.063-1.383c0-0.032-0.048-3.203-0.141-9.516h9.703c0.405,0,0.609-0.141,0.609-0.422
		s-0.337-0.695-1.008-1.242c-1.438-1.219-2.282-1.828-2.532-1.828s-1,0.766-2.25,2.297h-4.522
		c-0.126-8.578-0.234-15.015-0.328-19.313c1.983,4.984,4.397,9.305,7.242,12.961c2.483,3.156,5.749,6.07,9.796,8.742
		c1.016,0.641,1.656,0.961,1.923,0.961c0.265,0,0.476-0.211,0.633-0.633c0.281-0.688,0.569-1.188,0.867-1.5
		c0.296-0.296,0.727-0.516,1.289-0.656c0.155-0.031,0.233-0.125,0.233-0.281c0-0.094-0.046-0.156-0.14-0.188
		c-4.875-1.813-9.134-4.523-12.773-8.133c-3.328-3.328-6.079-7.313-8.25-11.953h18.655c0.453,0,0.681-0.156,0.681-0.469
		c0-0.219-0.398-0.672-1.195-1.359c-1.61-1.313-2.54-1.969-2.79-1.969c-0.28,0-1.117,0.867-2.508,2.602h-13.43v-7.875
		c1.094-0.531,1.642-0.977,1.642-1.336c0-0.266-0.243-0.484-0.727-0.656c-0.673-0.219-2.048-0.438-4.125-0.656
		c0.155,1.484,0.234,4.781,0.234,9.891v0.633H251.133z"/>
	<path fill="#0D4482" d="M269.203,220.135c0.905,1.203,1.647,1.805,2.227,1.805c0.469,0,0.858-0.172,1.171-0.516
		c0.329-0.375,0.492-0.859,0.492-1.453c0-1.297-0.977-2.578-2.93-3.844c-2.281-1.484-5.102-2.469-8.46-2.953
		c-0.204-0.031-0.305,0.07-0.305,0.305c0,0.094,0.047,0.164,0.14,0.211C264.538,215.127,267.093,217.275,269.203,220.135
		L269.203,220.135z M284.766,240.713c0.171,1.094,0.39,1.852,0.656,2.273c0.265,0.438,0.687,0.656,1.266,0.656
		c1.249,0,1.875-0.883,1.875-2.648c0-1.547-0.603-3.266-1.805-5.156c-1.47-2.313-3.438-4.258-5.907-5.836
		c-0.046-0.031-0.102-0.047-0.163-0.047c-0.22,0-0.328,0.094-0.328,0.281c0,0.063,0.015,0.109,0.046,0.141
		C282.827,233.721,284.28,237.166,284.766,240.713L284.766,240.713z M248.038,240.432c-0.828,0.609-1.241,1.281-1.241,2.016
		c0,0.516,0.147,0.945,0.445,1.289c0.343,0.391,0.788,0.586,1.336,0.586c1.313,0,2.421-0.813,3.327-2.438
		c1.047-1.875,1.57-4.336,1.57-7.383c0-1.172-0.093-2.406-0.28-3.703c-0.032-0.141-0.141-0.211-0.328-0.211s-0.29,0.078-0.305,0.234
		C252.124,235.182,250.617,238.385,248.038,240.432L248.038,240.432z M276.984,247.346c-0.438,1.063-0.946,1.75-1.523,2.063
		c-0.548,0.297-1.204,0.5-1.969,0.609c-0.813,0.094-2.344,0.141-4.594,0.141c-2.11,0-3.579-0.063-4.406-0.188
		c-0.923-0.125-1.532-0.391-1.829-0.797c-0.233-0.328-0.351-0.938-0.351-1.828v-21.844c1.155-0.453,1.734-0.914,1.734-1.383
		c0-0.313-0.228-0.547-0.68-0.703c-0.595-0.203-2.063-0.438-4.406-0.703c0.188,2.078,0.281,6.047,0.281,11.906l-0.142,13.102
		c0,2.016,0.453,3.367,1.36,4.055c1.125,0.844,3.727,1.266,7.805,1.266c4.858,0,8.14-0.273,9.844-0.82
		c1.53-0.484,2.296-1.25,2.296-2.297c0-0.5-0.188-0.836-0.563-1.008c-0.578-0.266-0.867-0.695-0.867-1.289
		c0-0.688,0.078-2.547,0.235-5.578c0-0.156-0.11-0.234-0.328-0.234c-0.173,0-0.274,0.063-0.305,0.188
		C277.922,244.549,277.39,246.33,276.984,247.346L276.984,247.346z"/>
	<path fill="#0D4482" d="M269.25,280.199c-0.188,0.25-0.282,0.477-0.282,0.68c0,0.25,0.172,0.375,0.517,0.375
		c0.171,0,0.382-0.125,0.633-0.375c1.983-1.844,3.452-3.008,4.406-3.492c0.938-0.516,1.929-0.773,2.977-0.773l3.375,0.141
		c0.984,0,1.476-0.43,1.476-1.289c0-1.219-1.281-1.828-3.843-1.828c-5.282,0-9.773,1.172-13.478,3.516
		c-0.391,0.234-0.585,0.508-0.585,0.82s0.179,0.469,0.539,0.469c0.124,0,0.312-0.063,0.563-0.188
		c2.719-1.203,5.069-1.945,7.054-2.227c0.048,0,0.086,0,0.117,0c0.125,0,0.188,0.031,0.188,0.094s-0.046,0.148-0.14,0.258
		C271.515,277.566,270.343,278.84,269.25,280.199L269.25,280.199z M264.586,287.699c-0.595,1.375-0.891,2.773-0.891,4.195
		c0,2.578,0.897,4.563,2.695,5.953c2.046,1.656,5.625,2.484,10.734,2.484c3.108,0,5.382-0.211,6.82-0.633
		c0.827-0.25,1.242-0.711,1.242-1.383c0-1.063-0.962-1.594-2.883-1.594c-0.688,0-1.329,0.078-1.922,0.234
		c-1.61,0.391-3.478,0.586-5.603,0.586c-3.219,0-5.671-0.547-7.358-1.641c-1.532-1.031-2.297-2.641-2.297-4.828
		c0-0.859,0.117-1.898,0.351-3.117c0.016-0.094,0.024-0.164,0.024-0.211c0-0.281-0.134-0.422-0.399-0.422
		C264.882,287.324,264.71,287.449,264.586,287.699L264.586,287.699z M255.141,295.855c-0.094,0.266-0.235,0.398-0.423,0.398
		c-0.172,0-0.305-0.227-0.397-0.68c-0.188-0.906-0.282-2.156-0.282-3.75c0-1.938,0.242-4.133,0.728-6.586
		c0.483-2.5,1.055-4.594,1.71-6.281c0.297-0.766,0.602-1.305,0.915-1.617c0.452-0.453,0.68-1.063,0.68-1.828
		c0-1.078-0.398-2.133-1.195-3.164c-1.298-1.703-2.407-2.555-3.328-2.555c-0.281,0-0.422,0.141-0.422,0.422
		c0,0.234,0.124,0.477,0.375,0.727c0.999,1,1.5,2.023,1.5,3.07c0,0.516-0.228,1.641-0.68,3.375
		c-1.532,5.797-2.297,10.578-2.297,14.344c0,3.578,0.563,6.75,1.688,9.516c0.483,1.156,1.108,1.734,1.875,1.734
		c0.702,0,1.055-0.414,1.055-1.242l-0.165-2.742c0-0.547,0.212-1.648,0.634-3.305c0.577-2.406,1.383-5.32,2.414-8.742
		c0.062-0.25,0.094-0.414,0.094-0.492c0-0.281-0.181-0.422-0.539-0.422c-0.281,0-0.492,0.188-0.633,0.563
		C257.788,288.332,256.688,291.418,255.141,295.855L255.141,295.855z"/>
	<path fill="#0D4482" d="M183.78,22.046c1.016-0.375,1.524-0.742,1.524-1.102c0-0.5-1.517-0.969-4.547-1.406
		c-0.017,0.266-0.023,0.648-0.023,1.148c0,0.906-0.04,1.836-0.117,2.789c-0.517,7.922-2.853,14.344-7.008,19.266
		c-0.032,0.015-0.047,0.047-0.047,0.094c0,0.281,0.147,0.422,0.445,0.422c0.047,0,0.085-0.016,0.117-0.047
		c3.858-3.484,6.516-7.547,7.968-12.188c1.642,3.844,3.774,6.703,6.399,8.578c1.562,1.078,3.249,1.875,5.063,2.391
		c2.187,0.609,4.992,0.914,8.413,0.914c1.703,0,2.781-0.016,3.235-0.047c0.281-0.016,0.476-0.079,0.585-0.188
		c0.142-0.109,0.242-0.367,0.305-0.773c0.095-0.516,0.235-0.906,0.423-1.172c0.218-0.297,0.656-0.633,1.313-1.008
		c0.094-0.063,0.14-0.164,0.14-0.305c0-0.25-0.093-0.359-0.28-0.328c-2.376,0.5-4.821,0.75-7.337,0.75
		c-3.063,0-5.577-0.281-7.546-0.844V25.397h11.461c0.452,0,0.68-0.164,0.68-0.492c0-0.234-0.353-0.648-1.055-1.242
		c-1.548-1.281-2.431-1.922-2.648-1.922c-0.204,0-1.031,0.82-2.484,2.461h-5.953V13.585h13.594c0.437,0,0.656-0.141,0.656-0.422
		c0-0.266-0.352-0.711-1.055-1.336c-1.423-1.219-2.306-1.828-2.649-1.828c-0.233,0-1.016,0.797-2.343,2.391h-7.148
		c2.312-2.703,4.296-5.438,5.953-8.203c1.249-0.078,1.875-0.336,1.875-0.773c0-0.469-1.453-1.32-4.359-2.555
		c-0.157,0.813-0.516,1.938-1.078,3.375c-0.86,2.359-2.087,5.078-3.68,8.156h-10.43c-1.235,0-2.446-0.094-3.633-0.281l0.468,1.758
		c1.032-0.188,2.102-0.281,3.212-0.281h7.78v24.234c-0.563-0.297-1.055-0.602-1.476-0.914c-2.235-1.484-4.204-4.008-5.906-7.57
		C183.163,26.897,183.562,24.468,183.78,22.046L183.78,22.046z M175.788,14.452h0.423c1.093,0,1.64-0.227,1.64-0.68
		c0-0.359-1.32-1.219-3.96-2.578c-0.328,1.047-0.954,2.422-1.875,4.125c-2.47,4.563-5.47,8.406-9,11.531
		c-0.048,0.031-0.07,0.086-0.07,0.164c0,0.297,0.117,0.445,0.352,0.445c0.046,0,0.085-0.016,0.116-0.047
		c2.406-1.641,4.469-3.32,6.188-5.039c0,2.656-0.016,4.641-0.046,5.953c-0.047,5.047-0.11,9.313-0.188,12.797
		c-0.032,1.093-0.047,1.711-0.047,1.852c0,0.797,0.429,1.195,1.289,1.195c1.219,0,1.828-0.477,1.828-1.43l-0.047-13.945v-6.375
		c0.984-0.438,1.477-0.82,1.477-1.148c0-0.438-0.75-0.773-2.25-1.008C173.258,18.437,174.647,16.499,175.788,14.452L175.788,14.452z
		 M185.047,8.687c0.218,1.344,0.718,2.016,1.5,2.016c0.483,0,0.882-0.18,1.195-0.539c0.39-0.422,0.586-1.008,0.586-1.758
		c0-0.938-0.431-1.977-1.29-3.117c-1.077-1.406-2.594-2.664-4.546-3.773c-0.047-0.016-0.094-0.023-0.142-0.023
		c-0.266,0-0.397,0.109-0.397,0.328c0,0.031,0.007,0.07,0.022,0.117C183.679,4.077,184.702,6.327,185.047,8.687L185.047,8.687z
		 M175.155,3.647c0.125,0,0.306,0,0.54,0c1.062,0,1.593-0.195,1.593-0.586c0-0.297-0.233-0.602-0.702-0.914
		c-0.532-0.359-1.681-0.945-3.445-1.758c-0.251,1.016-0.876,2.344-1.875,3.984c-2.156,3.672-4.649,6.75-7.478,9.234
		c-0.046,0.047-0.07,0.109-0.07,0.188c0,0.281,0.109,0.422,0.329,0.422c0.015,0,0.038-0.016,0.07-0.047
		C168.647,11.358,172.327,7.851,175.155,3.647L175.155,3.647z"/>
	<path fill="#0D4482" d="M187.343,67.829c-0.297,0.141-2.82,1.375-7.569,3.703c-0.673,0.328-1.235,0.492-1.688,0.492
		c-0.079,0-0.157,0-0.235,0c-0.5-0.062-1.03-0.516-1.593-1.359c-0.298-0.422-0.524-0.633-0.68-0.633
		c-0.281,0-0.423,0.305-0.423,0.914c0,0.656,0.367,1.477,1.103,2.461c1.03,1.281,1.976,1.922,2.835,1.922
		c0.531,0,0.977-0.242,1.337-0.727c0.312-0.359,0.812-0.805,1.5-1.336c2.702-1.875,4.828-3.203,6.375-3.984
		c2.358-1.156,4.663-1.734,6.913-1.734c2.157,0,3.868,0.656,5.133,1.969c1.156,1.188,1.735,2.805,1.735,4.852
		c0,2.875-1.649,5.336-4.945,7.383c-2.845,1.734-6.556,2.906-11.133,3.516c-0.485,0.047-0.728,0.25-0.728,0.609
		c0,0.454,0.289,0.68,0.868,0.68c0.546,0,0.976-0.015,1.289-0.047c4.53-0.328,8.405-1.383,11.625-3.164c3.999-2.265,6-5.18,6-8.742
		c0-2.422-0.914-4.468-2.742-6.141c-1.828-1.734-4.212-2.602-7.148-2.602C192.843,65.86,190.233,66.517,187.343,67.829
		L187.343,67.829z"/>
	<path fill="#0D4482" d="M197.516,113.1c-0.532,0.297-1.282,0.547-2.25,0.75l-20.836,5.32c-1.406,0.359-2.431,0.539-3.07,0.539
		c-0.609,0.016-1.148-0.094-1.617-0.328c-0.438-0.219-0.97-0.672-1.594-1.359c-0.281-0.282-0.493-0.422-0.633-0.422
		c-0.313,0-0.469,0.305-0.469,0.914c0,0.719,0.429,1.633,1.289,2.742c1.125,1.313,2.18,1.969,3.164,1.969
		c0.563,0,1.108-0.18,1.641-0.539c1.031-0.594,2.218-1.133,3.563-1.617c3.405-1.234,7.694-2.609,12.867-4.125l0.093,0.141
		c-2.577,1.438-4.663,3.359-6.258,5.766c-1.875,2.797-2.813,5.805-2.813,9.023c0,3.797,1.391,6.852,4.173,9.164
		c1.374,1.188,3.202,2.148,5.484,2.883c2.28,0.734,4.453,1.102,6.516,1.102c1.468,0,2.202-0.414,2.202-1.242
		c0-0.75-0.383-1.328-1.147-1.734c-0.876-0.469-2.095-0.742-3.657-0.82c-1.313-0.016-2.656-0.242-4.03-0.68
		c-1.72-0.547-3.157-1.313-4.313-2.297c-2.173-1.734-3.258-4.328-3.258-7.781c0-2.547,0.905-5.055,2.718-7.523
		c1.97-2.656,4.29-4.454,6.962-5.391c2.625-0.953,5.733-1.484,9.328-1.593c1.046-0.047,1.57-0.477,1.57-1.289
		c0-0.656-0.431-1.133-1.29-1.43c-1-0.421-1.914-0.632-2.741-0.632C198.53,112.608,197.999,112.772,197.516,113.1L197.516,113.1z"/>
	<path fill="#0D4482" d="M169.203,198.361c-1.579,0-3.063-0.094-4.453-0.281l0.468,1.805c1.344-0.219,2.673-0.328,3.985-0.328
		h37.008c0.452,0,0.68-0.141,0.68-0.422s-0.469-0.797-1.406-1.547c-1.673-1.375-2.634-2.063-2.884-2.063
		c-0.233,0-1.18,0.946-2.835,2.836H187.25v-13.219h14.788c0.406,0,0.61-0.141,0.61-0.422c0-0.313-0.384-0.781-1.148-1.406
		c-1.626-1.344-2.555-2.016-2.789-2.016c-0.235,0-1.11,0.883-2.625,2.648h-8.836v-11.18h16.172c0.421,0,0.633-0.141,0.633-0.422
		c0-0.313-0.415-0.812-1.242-1.5c-1.657-1.375-2.602-2.063-2.837-2.063c-0.219,0-1.117,0.93-2.695,2.789h-10.03v-9.445
		c1.187-0.469,1.78-0.922,1.78-1.359c0-0.296-0.242-0.523-0.726-0.68c-0.673-0.219-2.126-0.438-4.359-0.656
		c0.188,1.5,0.28,5.227,0.28,11.18v0.961h-9.75c0.953-2.016,1.759-3.938,2.415-5.766c1.249-0.297,1.875-0.617,1.875-0.961
		c0-0.281-0.251-0.539-0.75-0.773c-0.485-0.234-1.79-0.68-3.915-1.336c-0.203,1.469-0.538,2.992-1.008,4.57
		c-1.921,5.985-4.563,11.016-7.921,15.094c-0.032,0.047-0.047,0.086-0.047,0.117c0,0.25,0.141,0.375,0.422,0.375
		c0.062,0,0.108-0.016,0.141-0.047c3.39-2.875,6.117-6.234,8.18-10.078h10.358v11.18h-9.468c-1.407,0-2.766-0.094-4.078-0.281
		l0.492,1.758c1.155-0.188,2.374-0.281,3.656-0.281h9.397v13.219H169.203z"/>
	<path fill="#0D4482" d="M194.163,220.075c0.517-0.25,0.774-0.695,0.774-1.336c0-0.281-0.095-0.531-0.282-0.75
		c-0.25-0.265-0.57-0.398-0.96-0.398c-0.345,0-0.79,0.11-1.336,0.328c-0.704,0.266-1.282,0.602-1.734,1.008
		c-0.267,0.219-0.735,0.508-1.407,0.867c-0.938,0.5-1.977,0.961-3.117,1.383c-0.156-0.718-0.32-1.609-0.491-2.672
		c-0.11-0.687-0.164-1.148-0.164-1.383c0-0.218,0.038-0.429,0.117-0.633c0.171-0.437,0.258-0.789,0.258-1.055
		c0-0.5-0.492-0.929-1.478-1.289c-1.094-0.422-2.281-0.633-3.563-0.633c-0.641,0-1.218,0.204-1.733,0.609
		c-0.251,0.204-0.375,0.407-0.375,0.609c0,0.266,0.141,0.398,0.421,0.398c0.016,0,0.048,0,0.095,0
		c0.124,0.016,0.305,0.023,0.538,0.023c1.484,0,2.43,0.579,2.837,1.734c0.171,0.532,0.437,1.329,0.797,2.391
		c0.39,1.141,0.679,2.016,0.866,2.625c-3.359,1.219-6.156,1.828-8.39,1.828c-1.36,0-2.657-0.289-3.891-0.867
		c-0.313-0.125-0.524-0.188-0.633-0.188c-0.282,0-0.422,0.172-0.422,0.516c0,0.234,0.124,0.477,0.375,0.727
		c1.359,1.219,3.171,1.828,5.438,1.828c2.015,0,4.749-0.578,8.202-1.734c1.422,3.829,2.274,6.07,2.556,6.727
		c-3.11,1.047-5.915,1.57-8.414,1.57c-1.626,0-2.438-0.469-2.438-1.406c0-0.531,0.046-0.992,0.141-1.383
		c0.093-0.281,0.141-0.492,0.141-0.633c0-0.25-0.181-0.375-0.54-0.375c-0.188,0-0.391,0.196-0.608,0.586
		c-0.454,0.797-0.68,1.547-0.68,2.25c0,2.048,1.507,3.07,4.523,3.07c2.64,0,5.585-0.569,8.836-1.711
		c1.358,2.813,2.616,5.165,3.773,7.055c-2.079-0.358-4.556-0.539-7.43-0.539c-2.782,0-5.11,0.392-6.985,1.172
		c-2.734,1.125-4.101,2.923-4.101,5.391c0,2.531,1.476,4.493,4.43,5.883c2.625,1.234,5.789,1.852,9.491,1.852
		c1.531,0,2.579-0.086,3.142-0.258c0.656-0.219,0.983-0.68,0.983-1.383c0-1.078-0.813-1.617-2.438-1.617l-3.233,0.141
		c-2.313,0-4.313-0.218-6-0.656c-3.032-0.797-4.547-2.21-4.547-4.242c0-1.594,0.843-2.78,2.53-3.563
		c1.407-0.656,3.188-0.984,5.345-0.984c1.999,0,4.266,0.274,6.797,0.82c1.53,0.328,2.719,0.984,3.563,1.969
		c0.265,0.313,0.616,0.469,1.055,0.469c0.765,0,1.148-0.671,1.148-2.016c0-0.968-0.462-2.054-1.383-3.258
		c-1.767-2.297-3.243-4.601-4.43-6.914c2.953-1.156,5.578-2.562,7.875-4.219c0.516-0.359,0.772-0.82,0.772-1.383
		c0-0.218-0.133-0.422-0.397-0.609c-0.313-0.203-0.657-0.289-1.032-0.258c-0.14,0.016-0.367,0.04-0.679,0.07
		c-0.281,0.047-0.509,0.07-0.68,0.07c-0.313,0-0.774-0.117-1.383-0.352c-0.72-0.281-1.329-0.57-1.829-0.867
		c-0.327-0.156-0.57-0.234-0.726-0.234c-0.281,0-0.422,0.11-0.422,0.328c0,0.188,0.155,0.398,0.468,0.633
		c0.719,0.579,1.36,1.172,1.923,1.781c0.124,0.125,0.188,0.25,0.188,0.375c0,0.094-0.094,0.211-0.281,0.352
		c-1.188,0.782-2.759,1.579-4.712,2.391c-1.063-2.344-1.906-4.585-2.53-6.727C189.5,222.365,191.991,221.263,194.163,220.075
		L194.163,220.075z"/>
	<path fill="#0D4482" d="M187.788,298.611c-1.672-1.702-3.608-2.555-5.813-2.555c-1.234,0-2.258,0.305-3.07,0.914
		c-0.953,0.703-1.43,1.664-1.43,2.883c0,1.406,0.695,2.587,2.087,3.539c1.671,1.125,3.984,1.688,6.938,1.688
		c3.218,0,6.038-0.835,8.461-2.508c3.03-2.093,4.547-4.922,4.547-8.484c0-2.344-0.696-4.351-2.086-6.023
		c-1.907-2.297-4.798-3.445-8.672-3.445c-3.141,0-6.501,1.235-10.078,3.703l-0.094-0.047c7.983-8.906,12.101-13.483,12.352-13.734
		c0.938-0.952,1.733-1.515,2.391-1.688c0.609-0.155,0.914-0.492,0.914-1.008c0-0.641-0.548-1.327-1.642-2.063
		c-0.953-0.703-1.733-1.055-2.343-1.055c-0.392,0-0.727,0.141-1.008,0.422c-0.392,0.392-0.79,0.649-1.195,0.773
		c-2.923,0.86-5.071,1.446-6.446,1.758c-1.188,0.251-2.094,0.375-2.718,0.375c-0.782,0-1.556-0.499-2.32-1.5
		c-0.313-0.422-0.587-0.633-0.82-0.633c-0.281,0-0.422,0.258-0.422,0.773c0,0.86,0.429,1.82,1.289,2.883
		c0.921,1.125,1.819,1.688,2.695,1.688c0.312,0,0.71-0.211,1.195-0.633c0.218-0.188,0.633-0.398,1.242-0.633
		c2.531-0.968,5.108-1.89,7.733-2.766c0.142-0.047,0.259-0.07,0.353-0.07c0.155,0,0.234,0.056,0.234,0.164
		c0,0.079-0.056,0.196-0.164,0.352c-4.86,6.422-10.664,13.211-17.414,20.367c-0.642,0.703-0.961,1.313-0.961,1.828
		c0,0.407,0.155,0.759,0.469,1.055c0.328,0.328,0.703,0.492,1.125,0.492c0.499,0,0.882-0.179,1.148-0.539
		c1.313-1.671,2.429-2.93,3.352-3.773c3.671-3.296,7.46-4.945,11.367-4.945c1.89,0,3.499,0.509,4.828,1.523
		c1.812,1.392,2.718,3.478,2.718,6.258c0,1.563-0.523,3.094-1.569,4.594c-1.266,1.813-2.923,3.032-4.969,3.656
		C189.647,300.964,188.913,299.769,187.788,298.611L187.788,298.611z M185.538,302.877c-2.015,0-3.617-0.328-4.804-0.984
		c-1.142-0.641-1.711-1.406-1.711-2.297c0-0.563,0.179-1.031,0.539-1.406c0.452-0.5,1.132-0.75,2.038-0.75
		c1.016,0,2.07,0.462,3.165,1.383c1.296,1.078,2.163,2.359,2.602,3.844C186.976,302.807,186.366,302.877,185.538,302.877
		L185.538,302.877z"/>
	<path fill="#0D4482" d="M187.25,333c-0.188,0.25-0.282,0.477-0.282,0.68c0,0.25,0.172,0.375,0.517,0.375
		c0.171,0,0.382-0.125,0.633-0.375c1.983-1.844,3.452-3.008,4.406-3.492c0.938-0.516,1.929-0.773,2.977-0.773l3.375,0.141
		c0.984,0,1.476-0.43,1.476-1.289c0-1.219-1.281-1.828-3.843-1.828c-5.282,0-9.773,1.172-13.478,3.516
		c-0.391,0.234-0.585,0.508-0.585,0.82s0.179,0.469,0.539,0.469c0.124,0,0.312-0.063,0.563-0.188
		c2.719-1.203,5.069-1.945,7.054-2.227c0.048,0,0.086,0,0.117,0c0.125,0,0.188,0.031,0.188,0.094s-0.046,0.148-0.14,0.258
		C189.515,330.367,188.343,331.641,187.25,333L187.25,333z M182.586,340.5c-0.595,1.375-0.891,2.773-0.891,4.195
		c0,2.578,0.897,4.563,2.695,5.953c2.046,1.656,5.625,2.484,10.734,2.484c3.108,0,5.382-0.211,6.82-0.633
		c0.827-0.25,1.242-0.711,1.242-1.383c0-1.063-0.962-1.594-2.883-1.594c-0.688,0-1.329,0.078-1.922,0.234
		c-1.61,0.391-3.478,0.586-5.603,0.586c-3.219,0-5.671-0.547-7.358-1.641c-1.532-1.031-2.297-2.641-2.297-4.828
		c0-0.859,0.117-1.898,0.351-3.117c0.016-0.094,0.024-0.164,0.024-0.211c0-0.281-0.134-0.422-0.399-0.422
		C182.882,340.125,182.71,340.25,182.586,340.5L182.586,340.5z M173.141,348.656c-0.094,0.266-0.235,0.398-0.423,0.398
		c-0.172,0-0.305-0.227-0.397-0.68c-0.188-0.906-0.282-2.156-0.282-3.75c0-1.938,0.242-4.133,0.728-6.586
		c0.483-2.5,1.055-4.594,1.71-6.281c0.297-0.766,0.602-1.305,0.915-1.617c0.452-0.453,0.68-1.063,0.68-1.828
		c0-1.078-0.398-2.133-1.195-3.164c-1.298-1.703-2.407-2.555-3.328-2.555c-0.281,0-0.422,0.141-0.422,0.422
		c0,0.234,0.124,0.477,0.375,0.727c0.999,1,1.5,2.023,1.5,3.07c0,0.516-0.228,1.641-0.68,3.375
		c-1.532,5.797-2.297,10.578-2.297,14.344c0,3.578,0.563,6.75,1.688,9.516c0.483,1.156,1.108,1.734,1.875,1.734
		c0.702,0,1.055-0.414,1.055-1.242l-0.165-2.742c0-0.547,0.212-1.648,0.634-3.305c0.577-2.406,1.383-5.32,2.414-8.742
		c0.062-0.25,0.094-0.414,0.094-0.492c0-0.281-0.181-0.422-0.539-0.422c-0.281,0-0.492,0.188-0.633,0.563
		C175.788,341.133,174.688,344.219,173.141,348.656L173.141,348.656z"/>
	<path fill="#0D4482" d="M196.133,387.118c2.468-0.484,4.617-1.047,6.445-1.688c0.921-0.344,1.383-0.813,1.383-1.406
		c0-0.328-0.164-0.602-0.493-0.82c-0.327-0.219-0.726-0.328-1.194-0.328c-0.97,0-1.767,0.18-2.391,0.539
		c-0.75,0.406-1.228,0.648-1.43,0.727c-0.72,0.234-1.509,0.438-2.367,0.609c0-1.516,0.054-3.063,0.164-4.641
		c0.047-1,0.249-1.656,0.609-1.969c0.39-0.328,0.586-0.68,0.586-1.055c0-0.75-0.673-1.438-2.016-2.063
		c-1.157-0.578-2.259-0.868-3.305-0.868c-0.454,0-0.867,0.103-1.242,0.306c-0.422,0.234-0.633,0.484-0.633,0.75
		c0,0.328,0.202,0.492,0.609,0.492c0.952,0,1.711,0.188,2.273,0.563c0.375,0.281,0.577,0.89,0.609,1.827
		c0.124,2.751,0.188,5.118,0.188,7.103c-3,0.484-5.587,0.727-7.758,0.727c-1.61,0-2.859-0.609-3.75-1.829
		c-0.267-0.39-0.509-0.585-0.727-0.585c-0.282,0-0.422,0.148-0.422,0.445c0,0.188,0.047,0.422,0.14,0.702
		c0.922,2.25,2.603,3.375,5.04,3.375c2.515,0,5.022-0.179,7.522-0.538l0.142,13.406c-1.406-0.359-2.923-0.539-4.547-0.539
		c-2.001,0-3.603,0.383-4.805,1.148c-1.313,0.813-1.969,1.914-1.969,3.305c0,1.313,0.563,2.391,1.688,3.234
		c1.266,0.953,2.944,1.43,5.039,1.43c2.156,0,3.858-0.516,5.109-1.547c1.233-0.984,1.852-2.227,1.852-3.727
		c1.828,1.016,3.647,2.234,5.461,3.656c0.499,0.375,0.976,0.563,1.43,0.563c0.093,0,0.179-0.008,0.258-0.023
		c0.75-0.172,1.102-0.672,1.055-1.5c-0.063-0.5-0.337-0.945-0.82-1.336c-1.673-1.359-4.118-2.656-7.337-3.891
		C196.265,397.657,196.133,392.806,196.133,387.118L196.133,387.118z M192.875,406.196c-0.845,0.813-2.095,1.219-3.75,1.219
		c-3.234,0-4.852-0.914-4.852-2.742c0-0.75,0.39-1.359,1.172-1.829c0.797-0.468,1.835-0.702,3.117-0.702
		c1.828,0,3.647,0.352,5.461,1.055C194.023,404.478,193.64,405.478,192.875,406.196L192.875,406.196z M172.32,391.009
		c0.53-2.797,1.257-5.359,2.18-7.688c0.218-0.75,0.468-1.29,0.75-1.617c0.452-0.516,0.68-1.047,0.68-1.594
		c0-1.125-0.321-2.164-0.962-3.117c-0.608-0.969-1.281-1.712-2.015-2.227c-0.407-0.313-0.728-0.469-0.961-0.469
		c-0.375,0-0.563,0.156-0.563,0.469c0,0.125,0.077,0.32,0.233,0.586c0.734,1.203,1.103,2.336,1.103,3.398
		c0,1.03-0.258,2.445-0.773,4.242c-1.563,6-2.344,11.117-2.344,15.351c0,5.048,0.609,8.735,1.827,11.063
		c0.423,0.828,0.969,1.243,1.642,1.243c0.733,0,1.101-0.431,1.101-1.289l-0.046-2.883c0-0.281,0.141-1.102,0.421-2.461
		c0.095-0.423,0.992-3.641,2.695-9.656c0.063-0.188,0.095-0.344,0.095-0.469c0-0.423-0.141-0.633-0.422-0.633
		c-0.298,0-0.509,0.18-0.633,0.539c-1.298,3.141-2.501,6.375-3.61,9.703c-0.063,0.188-0.188,0.28-0.375,0.28
		c-0.172,0-0.32-0.288-0.444-0.866c-0.188-1-0.281-2.82-0.281-5.461C171.617,395.563,171.851,393.415,172.32,391.009L172.32,391.009
		z"/>
	<path fill="#0D4482" d="M195.758,424.553c3.328,1.875,5.796,4.664,7.405,8.367c0.517,1.156,1.25,1.734,2.204,1.734
		c0.546,0,1.008-0.195,1.383-0.586c0.452-0.469,0.68-1.07,0.68-1.805c0-1.688-1.055-3.391-3.164-5.109
		c-2.11-1.688-4.735-2.891-7.875-3.609c-0.094-0.016-0.196-0.023-0.305-0.023c-0.469,0-0.703,0.141-0.703,0.422
		C195.383,424.209,195.507,424.412,195.758,424.553L195.758,424.553z"/>
	<path fill="#0D4482" d="M108.695,29.085c3.218,5.578,7.219,9.852,12,12.82c1.062,0.672,1.749,1.008,2.063,1.008
		c0.343,0,0.609-0.242,0.797-0.727c0.249-0.656,0.516-1.117,0.797-1.383c0.281-0.281,0.718-0.492,1.313-0.633
		c0.188-0.031,0.281-0.141,0.281-0.328c0-0.125-0.056-0.203-0.164-0.234c-5.798-2.046-10.523-5.523-14.18-10.43
		c-2.032-2.703-3.603-5.508-4.711-8.414c-1.438-3.718-2.282-7.945-2.531-12.68c0.015-0.375,0.023-0.914,0.023-1.617
		c0.015-0.828,0.03-1.445,0.047-1.852c1.14-0.453,1.711-0.852,1.711-1.195c0-0.359-0.281-0.625-0.844-0.797
		c-0.642-0.188-2.095-0.382-4.359-0.586c0.141,1.078,0.211,2.282,0.211,3.609c0,2.016-0.141,4.297-0.422,6.844
		c-0.688,6.344-2.329,11.828-4.922,16.453c-2.923,5.235-7.345,9.805-13.266,13.711c-0.047,0.031-0.07,0.086-0.07,0.164
		c0,0.328,0.124,0.492,0.375,0.492c0.03,0,0.062-0.008,0.094-0.023c6-2.953,10.632-6.546,13.898-10.781
		c3.765-4.875,6.124-11.148,7.078-18.82C104.617,19.609,106.211,24.742,108.695,29.085L108.695,29.085z"/>
	<path fill="#0D4482" d="M87.203,92.761c-1.579,0-3.063-0.094-4.453-0.281l0.469,1.805c1.343-0.219,2.672-0.328,3.984-0.328h37.008
		c0.452,0,0.68-0.141,0.68-0.422s-0.469-0.797-1.406-1.547c-1.673-1.375-2.634-2.063-2.883-2.063c-0.234,0-1.181,0.946-2.836,2.836
		H105.25V79.542h14.789c0.405,0,0.609-0.141,0.609-0.422c0-0.313-0.384-0.781-1.148-1.406c-1.626-1.344-2.555-2.016-2.789-2.016
		s-1.11,0.883-2.625,2.648h-8.836v-11.18h16.172c0.422,0,0.633-0.141,0.633-0.422c0-0.313-0.415-0.812-1.242-1.5
		c-1.657-1.375-2.602-2.063-2.836-2.063c-0.22,0-1.118,0.93-2.695,2.789H105.25v-9.445c1.187-0.469,1.781-0.922,1.781-1.359
		c0-0.296-0.243-0.523-0.727-0.68c-0.673-0.219-2.126-0.437-4.359-0.656c0.188,1.5,0.281,5.227,0.281,11.18v0.961h-9.75
		c0.952-2.016,1.758-3.938,2.414-5.766c1.249-0.296,1.875-0.617,1.875-0.961c0-0.281-0.251-0.539-0.75-0.773
		c-0.485-0.234-1.79-0.68-3.914-1.336c-0.204,1.469-0.539,2.992-1.008,4.57c-1.922,5.985-4.563,11.016-7.922,15.094
		c-0.032,0.047-0.047,0.086-0.047,0.117c0,0.25,0.141,0.375,0.422,0.375c0.062,0,0.108-0.015,0.141-0.047
		c3.39-2.875,6.117-6.234,8.18-10.078h10.359v11.18h-9.469c-1.406,0-2.766-0.094-4.078-0.281l0.492,1.758
		c1.155-0.188,2.374-0.281,3.656-0.281h9.398v13.219H87.203z"/>
	<path fill="#0D4482" d="M113.125,121.106c2.953,2.704,5.796,4.75,8.531,6.141c0.844,0.421,1.374,0.633,1.594,0.633
		c0.312,0,0.53-0.195,0.656-0.586c0.422-1.375,1.125-2.125,2.109-2.25c0.188-0.031,0.281-0.14,0.281-0.328
		c0-0.125-0.056-0.203-0.164-0.235c-4.11-1.14-7.969-2.968-11.578-5.484c-3.86-2.703-7.142-6.047-9.844-10.031
		c0.968-0.203,1.453-0.508,1.453-0.915c0-0.375-1.634-1.062-4.898-2.063c-0.595,1.797-1.681,3.875-3.258,6.235
		c-1.86,2.797-4.055,5.438-6.586,7.922c-3.11,3.063-6.305,5.5-9.586,7.313c-0.063,0.031-0.094,0.086-0.094,0.164
		c0,0.375,0.132,0.563,0.398,0.563c0.03,0,0.054,0,0.07,0c4.421-1.969,8.273-4.336,11.555-7.102
		c3.64-3.078,6.921-6.977,9.844-11.695C106.077,113.685,109.249,117.591,113.125,121.106L113.125,121.106z M86.5,146.161
		c-1.359,0-2.657-0.093-3.891-0.281l0.422,1.758c1.343-0.188,2.515-0.282,3.516-0.282h37.688c0.405,0,0.609-0.14,0.609-0.421
		c0-0.234-0.384-0.704-1.148-1.406c-1.547-1.344-2.461-2.016-2.742-2.016c-0.234,0-1.095,0.883-2.578,2.648h-13.734v-9.89h13.734
		c0.405,0,0.609-0.141,0.609-0.422s-0.384-0.75-1.148-1.406c-1.485-1.25-2.344-1.875-2.578-1.875c-0.251,0-1.055,0.836-2.414,2.508
		h-8.203v-8.695h10.711c0.437,0,0.656-0.141,0.656-0.422c0-0.313-0.337-0.75-1.008-1.313c-1.392-1.156-2.235-1.734-2.531-1.734
		c-0.281,0-1.017,0.758-2.203,2.273H93.93c-1.282,0-2.478-0.109-3.586-0.329l0.422,1.805c1.046-0.188,2.101-0.281,3.164-0.281h7.641
		v8.695h-9.258c-1.282,0-2.501-0.109-3.656-0.328l0.492,1.852c1.155-0.219,2.21-0.328,3.164-0.328h9.258v9.89H86.5z"/>
	<path fill="#0D4482" d="M94.375,162.042c1.28-0.171,1.922-0.476,1.922-0.914c0-0.422-1.57-1.141-4.711-2.157
		c-0.173,1.282-0.603,3.008-1.289,5.18c-0.907,2.922-2.086,5.852-3.539,8.79c-1.798,3.625-3.72,6.695-5.766,9.21
		c-0.032,0.047-0.047,0.086-0.047,0.117c0,0.281,0.164,0.422,0.492,0.422c0.047,0,0.085-0.016,0.117-0.047
		c2.327-2.265,4.296-4.554,5.906-6.867l-0.094,8.461c-0.063,6-0.134,11.008-0.211,15.023c-0.017,1.109-0.023,1.75-0.023,1.922
		c0,0.859,0.445,1.289,1.336,1.289c1.219,0,1.828-0.5,1.828-1.5l-0.047-16.851v-8.297c1.031-0.422,1.547-0.82,1.547-1.195
		c0-0.235-0.149-0.414-0.445-0.54c-0.345-0.156-1.142-0.343-2.391-0.563C90.944,170.308,92.749,166.48,94.375,162.042
		L94.375,162.042z M96.859,170.55c-1.313,0-2.524-0.109-3.633-0.328l0.422,1.805c1.046-0.188,2.133-0.281,3.258-0.281h7.734
		c-2.97,7.844-7.368,14.508-13.195,19.992c-0.032,0.032-0.047,0.071-0.047,0.117c0,0.297,0.141,0.445,0.422,0.445
		c0.03,0,0.07-0.015,0.117-0.046c6.296-4.719,11.218-10.656,14.766-17.813c-0.047,1.921-0.087,4.367-0.117,7.335
		c-0.063,4.641-0.103,7.43-0.117,8.367h-5.039c-1.219,0-2.376-0.109-3.469-0.328l0.492,1.805c0.999-0.188,2.007-0.282,3.023-0.282
		h4.992c-0.094,4.86-0.141,8.172-0.141,9.938c0,0.734,0.445,1.102,1.336,1.102c1.313,0,1.969-0.461,1.969-1.383
		c0-0.172-0.032-3.391-0.094-9.657h8.414c0.405,0,0.609-0.141,0.609-0.422c0-0.265-0.305-0.664-0.914-1.195
		c-1.266-1.125-2.016-1.688-2.25-1.688c-0.251,0-0.954,0.703-2.109,2.109h-3.797l-0.234-17.859c1.374,4.266,3.39,8.188,6.047,11.766
		c2.124,2.922,4.406,5.321,6.844,7.196c0.75,0.547,1.233,0.82,1.453,0.82c0.343,0,0.593-0.227,0.75-0.68
		c0.469-1.078,1.093-1.695,1.875-1.852c0.202-0.047,0.305-0.156,0.305-0.328c0-0.078-0.04-0.132-0.117-0.164
		c-2.829-1.219-5.719-3.281-8.672-6.188c-3.407-3.328-5.977-7.031-7.711-11.109h14.883c0.437,0,0.656-0.141,0.656-0.422
		s-0.415-0.781-1.242-1.5c-1.423-1.25-2.29-1.875-2.602-1.875c-0.204,0-1.031,0.868-2.484,2.602h-9.844v-8.742
		c1.155-0.5,1.734-0.945,1.734-1.336c0-0.265-0.251-0.476-0.75-0.633c-0.642-0.203-2.024-0.422-4.148-0.656
		c0.188,1.484,0.281,3.688,0.281,6.609v4.758H96.859z"/>
	<path fill="#0D4482" d="M94.305,230.1c-1.359,1.953-2.977,3.89-4.852,5.812c-0.923,0.969-1.383,1.758-1.383,2.367
		c0,0.391,0.117,0.727,0.352,1.008c0.265,0.313,0.577,0.469,0.938,0.469c0.483,0,0.891-0.242,1.219-0.727
		c1.453-2.047,2.89-3.766,4.313-5.156c2.233-2.109,4.272-3.164,6.117-3.164c0.733,0,1.289,0.242,1.664,0.727
		c0.483,0.641,0.71,1.796,0.68,3.468c0,0.375,0,1.047,0,2.016c-2.61,1.578-4.47,2.891-5.578,3.938
		c-1.86,1.766-2.789,3.703-2.789,5.813c0,3.906,3.328,5.859,9.984,5.859c3.703,0,6.727-0.094,9.07-0.281
		c1.858-0.172,2.789-0.688,2.789-1.547c0-0.469-0.243-0.883-0.727-1.242c-0.579-0.453-1.313-0.68-2.203-0.68
		c-0.375,0-0.984,0.094-1.828,0.281c-0.907,0.219-1.781,0.383-2.625,0.492c-2.156,0.25-4.579,0.375-7.266,0.375
		c-3.703,0-5.555-1.188-5.555-3.563c0-1.422,0.68-2.781,2.039-4.078c0.921-0.859,2.468-1.898,4.641-3.117
		c-0.017,0.844-0.047,1.93-0.094,3.258c-0.047,1.313-0.07,2.234-0.07,2.766c0,0.344,0.124,0.641,0.375,0.891
		c0.265,0.266,0.586,0.398,0.961,0.398c0.874,0,1.313-0.609,1.313-1.828l-0.047-6.914c0.343-0.203,1.015-0.586,2.016-1.148
		c0.968-0.563,1.702-0.984,2.203-1.266c3.312-1.766,6.226-3.171,8.742-4.218c0.405-0.172,0.882-0.297,1.43-0.375
		c0.64-0.063,0.961-0.398,0.961-1.008c0-0.703-0.656-1.461-1.969-2.273c-1.251-0.766-2.431-1.148-3.539-1.148
		c-0.485,0-0.907,0.063-1.266,0.188c-0.438,0.156-0.656,0.352-0.656,0.586c0,0.141,0.141,0.234,0.422,0.281
		c0.687,0.094,1.249,0.289,1.688,0.586c0.281,0.188,0.422,0.391,0.422,0.609c0,0.313-0.173,0.586-0.516,0.82
		c-2.032,1.359-5.344,3.414-9.938,6.164c0-0.547-0.032-1.203-0.094-1.969c-0.141-2.859-1.563-4.289-4.266-4.289
		c-1.86,0-3.813,0.805-5.859,2.414L95.43,231.6c1.266-1.813,2.843-4.375,4.734-7.688c2.766-0.625,5.522-1.477,8.273-2.555
		c0.563-0.219,0.944-0.422,1.148-0.609c0.249-0.203,0.375-0.492,0.375-0.867c0-0.297-0.126-0.563-0.375-0.797
		c-0.313-0.266-0.712-0.398-1.195-0.398c-0.609,0-1.43,0.289-2.461,0.867c-1.219,0.672-2.688,1.273-4.406,1.805
		c0.546-1.016,0.914-1.703,1.102-2.063c0.343-0.703,0.757-1.211,1.242-1.523c0.39-0.234,0.586-0.586,0.586-1.055
		c0-0.781-0.703-1.5-2.109-2.156c-1.095-0.516-2.048-0.773-2.859-0.773c-0.703,0-1.289,0.141-1.758,0.422
		c-0.36,0.234-0.539,0.477-0.539,0.727c0,0.156,0.179,0.234,0.539,0.234c1.983,0,2.977,0.438,2.977,1.313
		c0,0.438-0.11,1.023-0.328,1.758c-0.438,1.313-0.923,2.531-1.453,3.656c-2.235,0.516-4.219,0.773-5.953,0.773
		c-0.907,0-1.61-0.07-2.109-0.211c-0.656-0.188-1.298-0.578-1.922-1.172c-0.281-0.297-0.539-0.445-0.773-0.445
		c-0.281,0-0.422,0.211-0.422,0.633c0,0.172,0.077,0.391,0.234,0.656c0.624,0.922,1.289,1.578,1.992,1.969
		c0.78,0.422,1.843,0.633,3.188,0.633c0.874,0,2.414-0.133,4.617-0.398C96.555,226.631,95.397,228.553,94.305,230.1L94.305,230.1z"
		/>
	<path fill="#0D4482" d="M2.883,33.375C2.194,33.501,1.233,33.61,0,33.704c0.516,1.954,0.874,3.203,1.078,3.75
		c0.188,0.484,0.405,0.727,0.656,0.727c0.452,0,0.82-0.563,1.102-1.688c4.734-1.421,9.194-3.132,13.383-5.133
		c-0.032,3.797-0.094,7.031-0.188,9.703c-0.032,0.891-0.047,1.383-0.047,1.477c0,0.828,0.445,1.242,1.336,1.242
		c1.249,0,1.875-0.492,1.875-1.477l-0.141-17.086V4.43h6.188c0.422,0,0.633-0.156,0.633-0.469c0-0.281-0.352-0.695-1.055-1.242
		c-1.406-1.156-2.227-1.734-2.461-1.734c-0.267,0-1.048,0.75-2.344,2.25H3.563C2.344,3.235,1.155,3.141,0,2.954l0.469,1.758
		C1.671,4.524,2.702,4.43,3.563,4.43h1.055v28.664L2.883,33.375z M16.219,4.43v8.063H7.453V4.43H16.219z M16.219,13.688v7.641H7.453
		v-7.641H16.219z M16.219,22.524v7.781c-2.751,0.859-5.672,1.594-8.766,2.203v-9.984H16.219z M20.18,41.743
		c-0.047,0.047-0.07,0.102-0.07,0.164c0,0.297,0.117,0.445,0.352,0.445c0.047,0,0.077-0.008,0.094-0.023
		c4.453-2.703,8.14-5.977,11.063-9.82c2.421,3.547,5.241,6.508,8.461,8.883c0.984,0.734,1.647,1.102,1.992,1.102
		c0.281,0,0.483-0.227,0.609-0.68c0.358-1.031,0.968-1.656,1.828-1.875c0.218-0.031,0.328-0.148,0.328-0.352
		c0-0.094-0.047-0.164-0.141-0.211c-4.626-2.203-8.438-5.258-11.438-9.164c3.281-5.156,5.616-11.703,7.008-19.641
		c0.968-0.484,1.453-0.882,1.453-1.195c0-0.328-0.274-0.727-0.82-1.195c-1.204-1.063-1.907-1.594-2.109-1.594
		c-0.204,0-0.853,0.594-1.945,1.781H25.102c-1.282,0-2.712-0.109-4.289-0.328l0.445,1.758c1.125-0.156,2.133-0.234,3.023-0.234
		c1.078,8.891,3.047,15.805,5.906,20.742C27.609,34.509,24.272,38.321,20.18,41.743L20.18,41.743z M25.43,9.563h11.766
		c-1.063,7.047-2.938,13.141-5.625,18.281C28.711,23.454,26.663,17.36,25.43,9.563L25.43,9.563z"/>
	<path fill="#0D4482" d="M14.953,76.089c-0.188-0.781-0.281-1.711-0.281-2.789c0-3.578,0.609-6.875,1.828-9.891
		c0.218-0.563,0.476-1.07,0.773-1.523c0.218-0.406,0.328-0.844,0.328-1.313c0-1.031-0.29-2.023-0.867-2.977
		c-0.36-0.594-0.829-1.133-1.406-1.617c-0.626-0.547-1.102-0.82-1.43-0.82c-0.392,0-0.586,0.125-0.586,0.375
		c0,0.266,0.094,0.492,0.281,0.68c0.656,0.688,0.984,1.742,0.984,3.164c0,1.031-0.243,2.695-0.727,4.992
		c-0.673,3.375-1.008,6.336-1.008,8.883c0,2.453,0.211,4.438,0.633,5.953c0.234,0.844,0.563,1.539,0.984,2.086
		c0.469,0.625,0.938,0.938,1.406,0.938c0.733,0,1.102-0.398,1.102-1.195c0-0.313-0.047-0.711-0.141-1.195
		c-0.063-0.563-0.094-0.984-0.094-1.266c0-1.281,0.305-2.992,0.914-5.133c1.296-4.453,2.702-7.82,4.219-10.102
		c0.765-1.219,1.53-1.828,2.297-1.828c1.125,0,2.063,0.859,2.813,2.578c0.938,2.125,1.406,5.148,1.406,9.07
		c0,4.563-1.048,8.555-3.141,11.977C22.913,88.933,19.5,91.776,15,93.667c-0.485,0.203-0.727,0.406-0.727,0.609
		c0,0.453,0.164,0.68,0.492,0.68c0.188,0,0.522-0.079,1.008-0.234c4.624-1.531,8.25-3.906,10.875-7.125
		c3.108-3.828,4.664-8.703,4.664-14.625c0-3.469-0.579-6.414-1.734-8.836c-1.329-2.781-3.056-4.172-5.18-4.172
		c-1.095,0-2.165,0.656-3.211,1.969c-1.406,1.734-2.829,4.648-4.266,8.742c-0.094,0.313-0.384,1.156-0.867,2.531
		c-0.392,1.156-0.696,2.117-0.914,2.883H14.953z"/>
	<path fill="#0D4482" d="M39.938,123.354c0.984-0.391,1.477-0.758,1.477-1.102c0-0.312-0.243-0.664-0.727-1.055
		c-1.125-1.031-1.845-1.546-2.156-1.546c-0.204,0-0.782,0.531-1.734,1.593h-4.828c0.797-2.421,1.688-5.718,2.672-9.89
		c0.999-0.391,1.5-0.727,1.5-1.008c0-0.297-0.258-0.68-0.773-1.149c-1.063-0.968-1.72-1.453-1.969-1.453
		c-0.204,0-0.767,0.516-1.688,1.547H18.703c-1.235,0-2.548-0.109-3.938-0.328l0.445,1.758c0.999-0.156,2.194-0.234,3.586-0.234h0.82
		c0,0.297,0,0.742,0,1.335c0,8.063-0.618,14.883-1.852,20.461c-1.406,6.281-3.735,11.523-6.984,15.726
		c-0.017,0.031-0.023,0.071-0.023,0.117c0,0.219,0.132,0.329,0.398,0.329c0.077,0,0.132-0.016,0.164-0.047
		c3.249-3.063,5.749-6.844,7.5-11.344c2.03-5.25,3.211-11.96,3.539-20.133c0.984,7.625,2.874,13.782,5.672,18.469
		c0.343,0.609,0.741,1.266,1.195,1.968c-3.642,4.188-8.648,7.868-15.023,11.04c-0.063,0.031-0.094,0.101-0.094,0.21
		c0,0.282,0.101,0.422,0.305,0.422c0.03,0,0.054,0,0.07,0c6.703-2.329,12.124-5.516,16.266-9.563
		c2.405,3.172,5.25,5.813,8.531,7.922c1.172,0.765,1.945,1.148,2.32,1.148c0.312,0,0.546-0.243,0.703-0.727
		c0.171-0.594,0.382-1.016,0.633-1.266c0.249-0.266,0.663-0.468,1.242-0.609c0.202-0.031,0.305-0.141,0.305-0.328
		c0-0.093-0.056-0.156-0.164-0.188c-4.828-1.968-8.759-4.593-11.789-7.875C35.859,133.713,38.327,128.979,39.938,123.354
		L39.938,123.354z M30.469,135.026c-2.048-2.766-3.68-5.859-4.898-9.282c-1.453-4.109-2.493-9.195-3.117-15.257h9.398
		c-1.172,4.984-2.337,8.953-3.492,11.906c-0.22,0.672-0.328,1.086-0.328,1.242c0,0.485,0.413,0.727,1.242,0.727
		c1.031,0,1.671-0.336,1.922-1.008c0.015-0.078,0.062-0.211,0.141-0.398c0.094-0.219,0.155-0.391,0.188-0.516h5.484
		c-1.298,4.875-3.368,9.211-6.211,13.008L30.469,135.026z M9.656,117.799h6.609c0.452,0,0.68-0.156,0.68-0.469
		c0-0.25-0.29-0.625-0.867-1.125c-1.235-1.047-1.969-1.571-2.203-1.571c-0.281,0-0.954,0.657-2.016,1.969H9.656v-7.969
		c1.125-0.437,1.688-0.851,1.688-1.242c0-0.297-0.258-0.523-0.773-0.68c-0.595-0.188-1.931-0.399-4.008-0.633
		c0.171,1.531,0.258,5.039,0.258,10.523H3.539c-0.954,0-2.039-0.109-3.258-0.328l0.445,1.805c0.984-0.188,1.922-0.281,2.813-0.281
		H6.82v10.547c-1.157,0.375-2.391,0.711-3.703,1.008c-1.078,0.281-2.071,0.461-2.977,0.539c0.563,1.75,0.961,2.875,1.195,3.375
		c0.218,0.5,0.445,0.75,0.68,0.75c0.328,0,0.616-0.578,0.867-1.734c1.781-0.703,3.094-1.242,3.938-1.617v14.063
		c0,0.531-0.274,0.797-0.82,0.797c-0.97,0-2.648-0.141-5.039-0.422c-0.157-0.031-0.234,0.086-0.234,0.352
		c0,0.188,0.062,0.297,0.188,0.328c1.734,0.39,2.913,0.797,3.539,1.218c0.563,0.359,0.882,0.922,0.961,1.688
		c0.077,0.422,0.272,0.633,0.586,0.633c0.921,0,1.702-0.242,2.344-0.726c0.999-0.688,1.5-1.696,1.5-3.024l-0.188-16.218
		c2.421-1.234,4.608-2.555,6.563-3.961c0.077-0.047,0.117-0.117,0.117-0.211c0-0.25-0.11-0.375-0.328-0.375
		c-0.017,0-0.04,0.008-0.07,0.024c-2.267,1.047-4.359,1.906-6.281,2.578V117.799z"/>
	<path fill="#0D4482" d="M16.922,168.283c-0.281,0.203-0.422,0.398-0.422,0.586c0,0.328,0.202,0.492,0.609,0.492
		c0.141,0,0.288-0.039,0.445-0.117c1.702-0.906,3.211-1.602,4.523-2.086c0.968-0.359,2.218-0.539,3.75-0.539h0.984
		c1.031,0,1.547-0.43,1.547-1.289c0-0.656-0.352-1.125-1.055-1.406c-0.97-0.375-2.329-0.563-4.078-0.563
		c-2.657,0-4.837-0.805-6.539-2.414c-0.22-0.156-0.415-0.234-0.586-0.234c-0.251,0-0.375,0.141-0.375,0.422
		c0,0.141,0.047,0.305,0.141,0.492c0.984,1.797,2.859,3.078,5.625,3.844C19.819,166.533,18.296,167.471,16.922,168.283
		L16.922,168.283z M25.898,191.979c-2.109,3.063-5.118,5.539-9.023,7.43c-0.579,0.281-0.867,0.578-0.867,0.891
		c0,0.328,0.211,0.492,0.633,0.492c0.188,0,0.522-0.079,1.008-0.234c4.015-1.391,7.266-3.477,9.75-6.258
		c3.062-3.406,4.594-7.422,4.594-12.047c0-2.313-0.539-4.305-1.617-5.977c-1.406-2.219-3.462-3.328-6.164-3.328
		c-1.157,0-2.32,0.203-3.492,0.609c-1.031,0.375-2.648,1.156-4.852,2.344c-0.938,0.516-1.734,0.773-2.391,0.773
		c-0.251,0-0.501-0.188-0.75-0.563c-0.298-0.406-0.516-0.891-0.656-1.453c-0.047-0.344-0.173-0.516-0.375-0.516
		c-0.204,0-0.392,0.125-0.563,0.375c-0.204,0.297-0.305,0.68-0.305,1.148c0,1.188,0.516,2.375,1.547,3.563
		c0.563,0.672,1.132,1.008,1.711,1.008c0.624,0,1.202-0.336,1.734-1.008c0.171-0.203,0.546-0.554,1.125-1.055
		c0.281-0.25,0.499-0.437,0.656-0.563c2.468-2.016,4.594-3.023,6.375-3.023c1.671,0,2.944,0.711,3.82,2.133
		c0.812,1.313,1.219,3.063,1.219,5.25C29.016,185.658,27.976,188.994,25.898,191.979L25.898,191.979z"/>
	<path fill="#0D4482" d="M13.195,247.537c0,2.109,0.476,3.563,1.43,4.359c1.172,0.969,3.687,1.453,7.547,1.453
		c5.25,0,8.672-0.258,10.266-0.773c1.5-0.531,2.25-1.25,2.25-2.156c0-0.609-0.243-0.992-0.727-1.148
		c-0.469-0.203-0.703-0.641-0.703-1.313c0-0.953,0.062-2.68,0.188-5.18c0-0.188-0.117-0.281-0.352-0.281
		c-0.141,0-0.234,0.055-0.281,0.164c-1.031,3.922-1.969,6.234-2.813,6.938c-0.454,0.344-1.087,0.586-1.898,0.727
		c-1.001,0.156-2.806,0.234-5.414,0.234c-2.672,0-4.392-0.156-5.156-0.469c-0.844-0.359-1.266-1.273-1.266-2.742v-3.234
		c2.156-1.672,4.266-3.492,6.328-5.461c5.953-5.688,10.453-12.25,13.5-19.687c1.313-0.078,1.969-0.352,1.969-0.82
		c0-0.563-1.477-1.438-4.43-2.625c-0.438,1.703-1.313,3.969-2.625,6.797c-2.376,5.047-5.962,10.093-10.758,15.14
		c-1.078,1.156-2.407,2.469-3.984,3.938v-16.148c1.093-0.469,1.641-0.93,1.641-1.383c0-0.25-0.22-0.445-0.656-0.586
		c-0.626-0.203-2.024-0.406-4.195-0.609c0.155,1.656,0.234,5.977,0.234,12.96c0,4.344-0.017,7.125-0.047,8.344
		c-3.844,3.094-7.915,5.609-12.211,7.547c-0.079,0.031-0.117,0.109-0.117,0.234c0,0.328,0.117,0.492,0.352,0.492
		c0.015,0,0.03,0,0.047,0c4.062-1.344,8.022-3.328,11.883-5.953V247.537z M22.102,219.225c0.405,0.625,0.733,1.047,0.984,1.266
		c0.281,0.234,0.624,0.352,1.031,0.352c0.452,0,0.827-0.141,1.125-0.422c0.375-0.359,0.563-0.859,0.563-1.5
		c0-1.188-0.86-2.328-2.578-3.422c-2.001-1.281-4.509-2.125-7.523-2.531c-0.204-0.031-0.305,0.07-0.305,0.305
		c0,0.109,0.047,0.188,0.141,0.234C18.413,214.975,20.602,216.881,22.102,219.225L22.102,219.225z M39.047,240.389
		c0.171,0.984,0.382,1.664,0.633,2.039c0.234,0.359,0.601,0.539,1.102,0.539c1.28,0,1.922-0.828,1.922-2.484
		c0-1.328-0.548-2.852-1.641-4.57c-1.329-2.094-3.134-3.945-5.414-5.554c-0.047-0.031-0.103-0.047-0.164-0.047
		c-0.22,0-0.328,0.094-0.328,0.281c0,0.047,0.015,0.094,0.047,0.141C37.172,233.592,38.452,236.811,39.047,240.389L39.047,240.389z
		 M5.156,234.881c-0.656,1.391-1.594,2.539-2.813,3.445c-1.063,0.766-1.594,1.5-1.594,2.203c0,0.453,0.147,0.844,0.445,1.172
		c0.343,0.375,0.82,0.563,1.43,0.563c1.249,0,2.304-0.797,3.164-2.391c0.952-1.797,1.43-4.102,1.43-6.914
		c0-0.859-0.047-1.71-0.141-2.554c-0.032-0.156-0.149-0.234-0.352-0.234c-0.157,0-0.243,0.063-0.258,0.188
		C6.141,232.217,5.702,233.725,5.156,234.881L5.156,234.881z"/>
	<path fill="#0D4482" d="M8.977,297.703c-0.454,0.454-0.68,0.789-0.68,1.008c0,0.188,0.188,0.352,0.563,0.492
		c0.422,0.156,0.921,0.234,1.5,0.234c0.483,0,0.914-0.211,1.289-0.633l1.43-1.711c2.218,0.563,4.929,1.453,8.133,2.672
		c-4.345,3.516-11.039,5.93-20.086,7.242c-0.126,0.031-0.188,0.148-0.188,0.352c0,0.25,0.077,0.375,0.234,0.375
		c10.093-0.516,17.695-2.789,22.805-6.82c3.593,1.626,6.671,3.367,9.234,5.227c1.608,1.188,2.648,1.781,3.117,1.781
		c0.358,0,0.663-0.141,0.914-0.422c0.281-0.297,0.422-0.648,0.422-1.055c0-0.938-0.907-2.008-2.719-3.211
		c-2.156-1.438-5.173-2.78-9.047-4.031c2.171-2.171,3.867-4.734,5.086-7.688h11.625c0.452,0,0.68-0.141,0.68-0.422
		c0-0.249-0.368-0.68-1.102-1.289c-1.594-1.28-2.524-1.922-2.789-1.922c-0.188,0-1.008,0.813-2.461,2.438H17.695
		c0.671-1.125,1.202-2.07,1.594-2.836c1.313-0.249,1.969-0.57,1.969-0.961c0-0.359-1.359-0.835-4.078-1.43
		c-0.36,1.048-0.86,2.133-1.5,3.258c-0.079,0.126-0.258,0.422-0.539,0.891c-0.267,0.454-0.485,0.813-0.656,1.078H4.453
		c-1.423,0-2.672-0.108-3.75-0.328l0.492,1.805c0.952-0.188,2.039-0.281,3.258-0.281h9.258
		C12.023,294.079,10.444,296.142,8.977,297.703L8.977,297.703z M27.633,291.516c-1.251,2.594-2.836,4.852-4.758,6.773
		c-2.016-0.577-5.071-1.25-9.164-2.016c0.921-1.233,2.007-2.819,3.258-4.758H27.633z M35.367,284.367v0.867
		c0,0.642,0.429,0.961,1.289,0.961c1.155,0,1.734-0.398,1.734-1.195l-0.141-6.398v-2.25c0.827-0.53,1.242-0.945,1.242-1.242
		c0-0.249-0.274-0.609-0.82-1.078c-0.97-0.827-1.579-1.242-1.828-1.242c-0.22,0-0.806,0.501-1.758,1.5H27.68v-5.766h14.742
		c0.452,0,0.68-0.155,0.68-0.469c0-0.218-0.384-0.633-1.148-1.242c-1.626-1.219-2.555-1.828-2.789-1.828
		c-0.22,0-1.024,0.782-2.414,2.344H4.406c-1.204,0-2.454-0.108-3.75-0.328l0.539,1.805c0.797-0.188,1.866-0.281,3.211-0.281h10.5
		v5.766H8.039c-0.844-0.5-2.009-1.046-3.492-1.641c0.155,1.767,0.234,3.899,0.234,6.398l-0.141,6.234
		c0,0.673,0.413,1.008,1.242,1.008c1.155,0,1.734-0.398,1.734-1.195v-0.727H35.367z M17.648,275.484h7.242v7.688h-7.242V275.484z
		 M7.617,283.172v-7.688h7.289v7.688H7.617z M27.68,283.172v-7.688h7.688v7.688H27.68z M17.648,274.289v-5.766h7.242v5.766H17.648z"
		/>
	<path fill="#0D4482" d="M35.414,320.314c0,0.25,0.062,0.414,0.188,0.492c1.765,1.078,3.077,2.359,3.938,3.844
		c0.516,0.859,1.038,1.289,1.57,1.289c0.265,0,0.499-0.102,0.703-0.305c0.265-0.25,0.398-0.578,0.398-0.984
		c0-1.047-0.72-2.07-2.156-3.07c-1.095-0.75-2.227-1.281-3.398-1.594c-0.328-0.094-0.586-0.141-0.773-0.141
		C35.569,319.846,35.414,320.002,35.414,320.314L35.414,320.314z M31.313,323.361c0,0.172,0.094,0.328,0.281,0.469
		c1.655,1.203,2.843,2.492,3.563,3.867c0.546,1.063,1.078,1.594,1.594,1.594c0.797,0,1.195-0.461,1.195-1.383
		c0-0.969-0.688-2.008-2.063-3.117c-0.923-0.766-2.109-1.406-3.563-1.922c-0.094-0.031-0.251-0.047-0.469-0.047
		C31.491,322.822,31.313,323.002,31.313,323.361L31.313,323.361z M38.953,337.916c-2.063-2.609-4.556-4.523-7.477-5.742
		c-0.188-0.094-0.415-0.141-0.68-0.141c-0.281,0-0.422,0.172-0.422,0.516c0,0.219,0.094,0.398,0.281,0.539
		c1.937,1.219,3.593,2.656,4.969,4.313c1.515,1.828,2.273,3.383,2.273,4.664c0,0.344-0.228,0.578-0.68,0.703
		c-1.078,0.328-2.962,0.75-5.648,1.266c-0.36,0.078-0.539,0.266-0.539,0.563c0,0.391,0.188,0.586,0.563,0.586c0.03,0,0.07,0,0.117,0
		c1.828-0.125,3.687-0.188,5.578-0.188c0.671,0,1.195,0.125,1.57,0.375c0.358,0.219,0.78,0.328,1.266,0.328
		c0.952,0,1.43-0.609,1.43-1.828C41.555,342.088,40.688,340.104,38.953,337.916L38.953,337.916z M19.945,327.369
		c0.405-0.859,0.804-1.391,1.195-1.594c0.452-0.188,0.68-0.508,0.68-0.961c0-0.844-0.571-1.609-1.711-2.297
		c-1.188-0.734-2.344-1.102-3.469-1.102c-0.86,0-1.47,0.125-1.828,0.375c-0.251,0.172-0.375,0.336-0.375,0.492
		c0,0.234,0.179,0.375,0.539,0.422c0.75,0.047,1.421,0.234,2.016,0.563c0.687,0.391,1.031,0.828,1.031,1.313
		c0,0.547-0.126,1.203-0.375,1.969c-0.626,1.922-1.359,3.828-2.203,5.719c-1.11,0.313-3.032,0.836-5.766,1.57
		c-1.47,0.422-2.595,0.633-3.375,0.633c-0.938,0-1.72-0.547-2.344-1.641c-0.188-0.313-0.328-0.469-0.422-0.469
		c-0.36,0-0.539,0.367-0.539,1.102c0.047,0.984,0.64,2.023,1.781,3.117c0.656,0.609,1.327,0.914,2.016,0.914
		c0.312,0,0.647-0.125,1.008-0.375c0.499-0.328,1.108-0.617,1.828-0.867c2.109-0.844,3.741-1.453,4.898-1.828
		c-2.642,5.609-6.392,12.203-11.25,19.781c-0.281,0.406-0.422,0.82-0.422,1.242c0,0.797,0.46,1.195,1.383,1.195
		c0.593,0,1.031-0.258,1.313-0.773c3.812-6.453,7.647-13.828,11.508-22.125c1.483-0.531,2.749-0.797,3.797-0.797
		c1.89,0,2.836,1.438,2.836,4.313c0,2.547-0.445,5.359-1.336,8.438c-1.048,3.375-2.203,5.758-3.469,7.148
		c-0.516,0.516-1.11,0.773-1.781,0.773c-0.516,0-0.931-0.078-1.242-0.234c-1.078-0.547-2.423-1.398-4.031-2.555
		c-0.22-0.156-0.384-0.234-0.492-0.234c-0.281,0-0.422,0.164-0.422,0.492c0,0.156,0.062,0.297,0.188,0.422
		c1.343,1.266,2.241,2.195,2.695,2.789c0.375,0.469,0.616,0.93,0.727,1.383c0.218,0.938,0.788,1.406,1.711,1.406
		c1.374,0,2.702-0.641,3.984-1.922c1.594-1.438,2.906-3.711,3.938-6.82c0.483-1.344,0.914-2.961,1.289-4.852
		c0.422-2.141,0.633-3.914,0.633-5.32c0-4.516-1.664-6.773-4.992-6.773c-0.876,0-1.898,0.109-3.07,0.328
		C18.258,331.229,18.897,329.775,19.945,327.369L19.945,327.369z"/>
	<path fill="#0D4482" d="M28.922,387.635c0-0.344-0.157-0.68-0.469-1.008c-1.298-1.438-2.446-2.156-3.445-2.156
		c-0.548,0-0.82,0.094-0.82,0.281c0,0.172,0.155,0.336,0.469,0.492c0.952,0.5,1.43,1.172,1.43,2.016c0,0.391-0.023,0.68-0.07,0.867
		c-2.782,0.094-5.571,0.688-8.367,1.781c0.077-1.859,0.382-4.305,0.914-7.336c2.063-0.328,4.351-0.813,6.867-1.453
		c1.749-0.484,3.335-1.031,4.758-1.641c0.577-0.25,0.867-0.664,0.867-1.242c0-0.797-0.478-1.195-1.43-1.195
		c-0.563,0-1.321,0.227-2.273,0.68c-2.484,1.125-5.267,2-8.344,2.625c0.296-1.375,0.522-2.297,0.68-2.766
		c0.171-0.516,0.422-0.906,0.75-1.172c0.516-0.406,0.773-0.789,0.773-1.148c0-0.594-0.595-1.281-1.781-2.063
		c-1.125-0.734-2.306-1.102-3.539-1.102c-0.328,0-0.68,0.102-1.055,0.305c-0.422,0.234-0.633,0.438-0.633,0.609
		c0,0.234,0.211,0.375,0.633,0.422c1.688,0.219,2.531,0.93,2.531,2.133c0,0.406-0.047,0.898-0.141,1.477
		c-0.063,0.5-0.149,1.086-0.258,1.758c-0.126,0.875-0.22,1.523-0.281,1.945c-0.954,0.125-1.992,0.188-3.117,0.188
		c-1.359,0-2.438-0.125-3.234-0.375c-0.829-0.25-1.657-0.75-2.484-1.5c-0.157-0.156-0.352-0.234-0.586-0.234
		c-0.281,0-0.422,0.141-0.422,0.422c0,0.344,0.155,0.695,0.469,1.055c1.515,1.766,3.633,2.648,6.352,2.648
		c0.797,0,1.711-0.047,2.742-0.141c-0.454,3.516-0.727,6.156-0.82,7.922c-2.766,1.234-5.165,2.859-7.195,4.875
		c-2.625,2.609-3.938,5.234-3.938,7.875c0,2.656,1.008,3.984,3.023,3.984c1.187,0,2.593-0.406,4.219-1.219
		c1.812-0.906,3.539-2.109,5.18-3.609c0.312,0.781,0.647,1.43,1.008,1.945c0.422,0.578,0.874,0.867,1.359,0.867
		c0.733,0,1.102-0.43,1.102-1.289c0-0.422-0.094-0.82-0.281-1.195c-0.673-1.156-1.063-1.875-1.172-2.156
		c3.155-2.984,5.96-6.375,8.414-10.172c0.108-0.188,0.234-0.383,0.375-0.586c0.155-0.219,0.258-0.359,0.305-0.422
		c2.297,0.109,4.187,0.766,5.672,1.969c1.781,1.438,2.672,3.414,2.672,5.93c0,3.094-1.532,5.758-4.594,7.992
		c-2.97,2.156-7.024,3.734-12.164,4.734c-0.422,0.078-0.633,0.297-0.633,0.656c0,0.391,0.249,0.586,0.75,0.586
		c0.03,0,0.07,0,0.117,0c4.812-0.422,8.944-1.523,12.398-3.305c4.828-2.484,7.242-5.844,7.242-10.078
		c0-2.641-0.984-4.859-2.953-6.656c-2.016-1.844-4.587-2.922-7.711-3.234C28.875,388.033,28.922,387.838,28.922,387.635
		L28.922,387.635z M25.383,389.674c-1.922,3.328-4.321,6.414-7.195,9.258c-0.392-2.203-0.586-4.438-0.586-6.703
		c0-0.156,0-0.406,0-0.75C20.086,390.432,22.679,389.83,25.383,389.674L25.383,389.674z M8.18,404.861
		c-0.891,0-1.336-0.625-1.336-1.875c0-1.844,0.867-3.789,2.602-5.836s3.765-3.648,6.094-4.805c0,0.156,0,0.391,0,0.703
		c0,2.766,0.241,5.32,0.727,7.664C12.624,403.479,9.929,404.861,8.18,404.861L8.18,404.861z"/>
	<path fill="#0D4482" d="M23.789,457.012c-1.673-1.703-3.609-2.555-5.813-2.555c-1.235,0-2.259,0.305-3.07,0.914
		c-0.954,0.703-1.43,1.664-1.43,2.883c0,1.406,0.694,2.586,2.086,3.539c1.671,1.125,3.984,1.688,6.938,1.688
		c3.218,0,6.038-0.836,8.461-2.508c3.03-2.094,4.547-4.922,4.547-8.484c0-2.344-0.696-4.352-2.086-6.023
		c-1.907-2.297-4.798-3.445-8.672-3.445c-3.141,0-6.501,1.234-10.078,3.703l-0.094-0.047c7.983-8.906,12.101-13.484,12.352-13.734
		c0.938-0.953,1.734-1.516,2.391-1.688c0.609-0.156,0.914-0.492,0.914-1.008c0-0.641-0.548-1.328-1.641-2.063
		c-0.954-0.703-1.734-1.055-2.344-1.055c-0.392,0-0.727,0.141-1.008,0.422c-0.392,0.391-0.79,0.648-1.195,0.773
		c-2.923,0.859-5.071,1.445-6.445,1.758c-1.188,0.25-2.095,0.375-2.719,0.375c-0.782,0-1.556-0.5-2.32-1.5
		c-0.313-0.422-0.586-0.633-0.82-0.633c-0.281,0-0.422,0.258-0.422,0.773c0,0.859,0.429,1.82,1.289,2.883
		c0.921,1.125,1.819,1.688,2.695,1.688c0.312,0,0.71-0.211,1.195-0.633c0.218-0.188,0.633-0.398,1.242-0.633
		c2.531-0.969,5.109-1.891,7.734-2.766c0.141-0.047,0.258-0.07,0.352-0.07c0.155,0,0.234,0.055,0.234,0.164
		c0,0.078-0.056,0.195-0.164,0.352c-4.86,6.422-10.664,13.211-17.414,20.367c-0.642,0.703-0.961,1.313-0.961,1.828
		c0,0.406,0.155,0.758,0.469,1.055c0.328,0.328,0.703,0.492,1.125,0.492c0.499,0,0.882-0.18,1.148-0.539
		c1.313-1.672,2.429-2.93,3.352-3.773c3.671-3.297,7.46-4.945,11.367-4.945c1.89,0,3.499,0.508,4.828,1.523
		c1.812,1.391,2.719,3.477,2.719,6.258c0,1.563-0.524,3.094-1.57,4.594c-1.266,1.813-2.923,3.031-4.969,3.656
		C25.647,459.363,24.914,458.168,23.789,457.012L23.789,457.012z M21.539,461.277c-2.016,0-3.618-0.328-4.805-0.984
		c-1.142-0.641-1.711-1.406-1.711-2.297c0-0.563,0.179-1.031,0.539-1.406c0.452-0.5,1.132-0.75,2.039-0.75
		c1.015,0,2.069,0.461,3.164,1.383c1.296,1.078,2.163,2.359,2.602,3.844C22.976,461.207,22.366,461.277,21.539,461.277
		L21.539,461.277z"/>
</g>
</svg>
