<?xml version="1.0" encoding="utf-8"?>
<!-- Generator: Adobe Illustrator 14.0.0, SVG Export Plug-In . SVG Version: 6.00 Build 43363)  -->
<!DOCTYPE svg PUBLIC "-//W3C//DTD SVG 1.1 Basic//EN" "http://www.w3.org/Graphics/SVG/1.1/DTD/svg11-basic.dtd">
<svg version="1.1" baseProfile="basic" id="レイヤー_1"
	 xmlns="http://www.w3.org/2000/svg" xmlns:xlink="http://www.w3.org/1999/xlink" x="0px" y="0px" width="290.672px"
	 height="304.657px" viewBox="0 0 290.672 304.657" xml:space="preserve">
<g>
	<path fill="#083E00" d="M260.25,36.337c0,2.109,0.476,3.563,1.43,4.359c1.172,0.969,3.687,1.453,7.547,1.453
		c5.25,0,8.671-0.258,10.266-0.773c1.5-0.531,2.25-1.25,2.25-2.156c0-0.609-0.243-0.992-0.727-1.148
		c-0.469-0.203-0.703-0.641-0.703-1.313c0-0.953,0.062-2.679,0.188-5.18c0-0.188-0.117-0.281-0.353-0.281
		c-0.14,0-0.233,0.055-0.28,0.164c-1.032,3.922-1.97,6.234-2.813,6.938c-0.454,0.344-1.087,0.586-1.899,0.727
		c-1,0.157-2.805,0.234-5.413,0.234c-2.672,0-4.392-0.156-5.157-0.469c-0.843-0.359-1.265-1.273-1.265-2.742v-3.234
		c2.156-1.672,4.265-3.492,6.327-5.461c5.954-5.687,10.454-12.25,13.5-19.688c1.313-0.078,1.97-0.352,1.97-0.82
		c0-0.563-1.477-1.437-4.43-2.625c-0.438,1.704-1.313,3.969-2.625,6.797c-2.376,5.047-5.962,10.094-10.758,15.141
		c-1.078,1.157-2.407,2.469-3.984,3.938V14.048c1.093-0.469,1.64-0.929,1.64-1.383c0-0.25-0.219-0.445-0.655-0.586
		c-0.626-0.203-2.024-0.406-4.195-0.609c0.155,1.656,0.233,5.977,0.233,12.961c0,4.344-0.016,7.125-0.046,8.344
		c-3.844,3.094-7.915,5.61-12.212,7.547c-0.078,0.032-0.117,0.109-0.117,0.234c0,0.328,0.117,0.492,0.353,0.492
		c0.015,0,0.03,0,0.047,0c4.062-1.343,8.022-3.328,11.883-5.953V36.337z M269.155,8.025c0.406,0.625,0.734,1.047,0.985,1.266
		c0.281,0.234,0.624,0.352,1.031,0.352c0.452,0,0.827-0.141,1.125-0.422c0.375-0.359,0.563-0.859,0.563-1.5
		c0-1.187-0.86-2.328-2.579-3.422c-2-1.281-4.508-2.125-7.522-2.531c-0.204-0.031-0.305,0.07-0.305,0.305
		c0,0.109,0.047,0.188,0.14,0.234C265.468,3.775,267.655,5.681,269.155,8.025L269.155,8.025z M286.102,29.189
		c0.171,0.984,0.382,1.664,0.633,2.039c0.233,0.36,0.601,0.539,1.101,0.539c1.281,0,1.923-0.828,1.923-2.484
		c0-1.328-0.548-2.851-1.641-4.57c-1.329-2.094-3.134-3.945-5.414-5.555c-0.048-0.031-0.103-0.047-0.164-0.047
		c-0.22,0-0.329,0.094-0.329,0.281c0,0.047,0.016,0.094,0.048,0.141C284.227,22.392,285.507,25.611,286.102,29.189L286.102,29.189z
		 M252.21,23.681c-0.655,1.391-1.593,2.54-2.813,3.445c-1.063,0.766-1.593,1.5-1.593,2.203c0,0.454,0.147,0.844,0.445,1.172
		c0.343,0.375,0.82,0.563,1.43,0.563c1.249,0,2.304-0.797,3.163-2.391c0.953-1.796,1.43-4.102,1.43-6.914
		c0-0.859-0.046-1.711-0.14-2.555c-0.032-0.156-0.149-0.234-0.353-0.234c-0.156,0-0.242,0.063-0.258,0.188
		C253.195,21.018,252.757,22.525,252.21,23.681L252.21,23.681z"/>
	<path fill="#083E00" d="M257.555,67.973h7.968c-1.281,5.922-3.227,10.922-5.835,15c-2.859,4.453-7.024,8.54-12.492,12.258
		c-0.063,0.031-0.094,0.086-0.094,0.164c0,0.313,0.132,0.469,0.398,0.469c0.03,0,0.054,0,0.07,0
		c5.593-2.687,9.938-5.914,13.031-9.68c3.437-4.187,6.023-9.984,7.758-17.391c0.952-0.437,1.43-0.789,1.43-1.055
		c0-0.234-0.274-0.601-0.821-1.102c-1.094-0.938-1.766-1.406-2.015-1.406c-0.235,0-0.79,0.516-1.664,1.547h-7.196
		c0.657-1.5,1.227-3.117,1.712-4.852c1.125-0.25,1.688-0.57,1.688-0.961c0-0.266-0.212-0.484-0.633-0.656
		c-0.454-0.203-1.696-0.547-3.727-1.031c-0.235,1.86-0.782,4.023-1.641,6.492c-0.829,2.5-1.978,5.016-3.445,7.547
		c-1.72,2.938-3.609,5.461-5.672,7.57c-0.032,0.032-0.047,0.07-0.047,0.117c0,0.266,0.155,0.398,0.469,0.398
		c0.03,0,0.062-0.007,0.094-0.023c2.827-2,5.218-4.406,7.172-7.219c1.608,1.563,2.71,3.243,3.305,5.039
		c0.328,1.063,0.804,1.594,1.43,1.594c0.999,0,1.5-0.609,1.5-1.828c0-0.906-0.469-1.82-1.406-2.742
		c-1.078-1.046-2.563-1.906-4.453-2.578C255.703,71.708,256.741,69.816,257.555,67.973L257.555,67.973z M274.992,62.207
		c1.062-0.453,1.593-0.867,1.593-1.242c0-0.266-0.21-0.469-0.632-0.609c-0.532-0.172-1.86-0.406-3.985-0.703
		c0.125,1.609,0.188,6.188,0.188,13.734l-0.093,16.805c0,1.688,0.422,2.891,1.266,3.609c1.108,0.922,3.312,1.383,6.609,1.383
		c3.249,0,5.71-0.242,7.383-0.727c1.827-0.469,2.742-1.25,2.742-2.344c0-0.625-0.274-1.031-0.82-1.219
		c-0.375-0.125-0.563-0.57-0.563-1.336c0.124-2.281,0.234-3.969,0.328-5.063c0-0.172-0.117-0.258-0.353-0.258
		c-0.14,0-0.233,0.055-0.28,0.164c-1.078,3.813-1.97,6.094-2.672,6.844c-0.375,0.422-0.931,0.727-1.664,0.914
		c-0.86,0.219-2.243,0.328-4.148,0.328c-1.923,0-3.22-0.156-3.891-0.469c-0.673-0.328-1.008-1.016-1.008-2.063V78.145
		c3.843-1.937,7.796-4.789,11.859-8.555c0.312,0.032,0.586,0.047,0.82,0.047c0.858,0,1.288-0.226,1.288-0.68
		c0-0.39-1.25-1.391-3.75-3c-0.484,0.984-1.234,2.086-2.25,3.305c-2.625,3.109-5.281,5.672-7.968,7.688V62.207z M251.602,58.457
		h38.461c0.405,0,0.609-0.156,0.609-0.469c0-0.313-0.445-0.828-1.337-1.547c-1.719-1.344-2.694-2.016-2.93-2.016
		c-0.233,0-1.164,0.946-2.788,2.836h-32.016c-1.517,0-2.985-0.109-4.406-0.328l0.469,1.805
		C249.007,58.551,250.319,58.457,251.602,58.457L251.602,58.457z"/>
	<path fill="#083E00" d="M282.75,120.971c0,0.234,0.062,0.391,0.188,0.469c1.78,1.078,3.093,2.367,3.938,3.867
		c0.516,0.859,1.038,1.289,1.57,1.289c0.312,0,0.574-0.125,0.785-0.375c0.211-0.25,0.316-0.554,0.316-0.914
		c0-1.063-0.72-2.094-2.156-3.094c-1.095-0.75-2.227-1.281-3.398-1.594c-0.328-0.094-0.587-0.141-0.774-0.141
		C282.905,120.479,282.75,120.643,282.75,120.971L282.75,120.971z M278.672,123.971c0,0.188,0.094,0.352,0.281,0.492
		c1.64,1.204,2.827,2.5,3.563,3.891c0.546,1.047,1.069,1.57,1.569,1.57c0.798,0,1.195-0.46,1.195-1.383
		c0-0.969-0.688-2.007-2.063-3.117c-0.922-0.765-2.102-1.406-3.538-1.922c-0.095-0.031-0.258-0.047-0.492-0.047
		C278.843,123.456,278.672,123.627,278.672,123.971L278.672,123.971z M280.57,113.237c-0.532,0.297-1.282,0.547-2.25,0.75
		c-2.36,0.609-5.735,1.477-10.125,2.602c-4.969,1.266-8.54,2.172-10.711,2.719c-1.406,0.36-2.431,0.539-3.07,0.539
		c-0.609,0.016-1.148-0.094-1.617-0.328c-0.438-0.219-0.97-0.671-1.594-1.359c-0.281-0.281-0.493-0.422-0.633-0.422
		c-0.313,0-0.469,0.305-0.469,0.914c0,0.719,0.429,1.633,1.289,2.742c1.125,1.313,2.18,1.969,3.164,1.969
		c0.563,0,1.108-0.179,1.641-0.539c1.031-0.594,2.218-1.133,3.563-1.617c3.375-1.219,7.664-2.593,12.867-4.125l0.093,0.141
		c-2.577,1.438-4.663,3.36-6.258,5.766c-1.875,2.797-2.813,5.805-2.813,9.023c0,3.797,1.391,6.852,4.173,9.164
		c1.374,1.188,3.202,2.148,5.484,2.883c2.28,0.735,4.453,1.102,6.516,1.102c1.468,0,2.202-0.414,2.202-1.242
		c0-0.75-0.383-1.328-1.147-1.734c-0.876-0.469-2.095-0.742-3.657-0.82c-1.313-0.015-2.656-0.242-4.03-0.68
		c-1.72-0.547-3.157-1.313-4.313-2.297c-2.173-1.734-3.258-4.328-3.258-7.781c0-2.546,0.905-5.054,2.718-7.523
		c1.97-2.672,4.29-4.468,6.962-5.391c2.625-0.953,5.733-1.484,9.328-1.594c1.046-0.047,1.57-0.477,1.57-1.289
		c0-0.656-0.431-1.133-1.29-1.43c-1-0.422-1.914-0.633-2.741-0.633C281.585,112.745,281.054,112.909,280.57,113.237L280.57,113.237z
		"/>
	<path fill="#083E00" d="M197.328,13.254c-1.017,0-2.22-0.117-3.61-0.352l0.492,1.875c1-0.219,2.07-0.328,3.212-0.328h0.445
		c-0.188,5.422-0.618,9.734-1.289,12.938c-0.703,3.328-1.828,6.211-3.375,8.648c-1.406,2.203-3.509,4.547-6.306,7.031
		c-0.046,0.047-0.069,0.102-0.069,0.164c0,0.266,0.132,0.398,0.398,0.398c0.03,0,0.062-0.008,0.094-0.023
		c5.109-3.281,8.569-7.203,10.383-11.766c1.562-3.719,2.522-9.516,2.882-17.391h4.032c-0.173,10.313-0.618,17.273-1.337,20.883
		c-0.344,1.594-0.641,2.711-0.89,3.352c-0.36,0.844-0.813,1.266-1.36,1.266c-0.828,0-2.39-0.211-4.688-0.633
		c-0.188-0.031-0.28,0.078-0.28,0.328c0,0.156,0.054,0.258,0.164,0.305c1.358,0.406,2.32,0.812,2.883,1.219
		c0.563,0.406,0.882,0.938,0.961,1.594c0.03,0.39,0.226,0.586,0.585,0.586c1.328,0,2.313-0.367,2.954-1.102
		c0.952-1,1.711-2.953,2.273-5.859c0.858-4.344,1.351-11.352,1.477-21.023c0.812-0.5,1.219-0.883,1.219-1.148
		s-0.258-0.633-0.773-1.102c-1.001-0.938-1.641-1.406-1.922-1.406c-0.204,0-0.767,0.516-1.688,1.547h-3.563
		c0.077-2.063,0.14-5.281,0.188-9.656c0.984-0.375,1.477-0.758,1.477-1.148c0-0.297-0.258-0.531-0.774-0.703
		c-0.608-0.188-1.851-0.383-3.726-0.586c0.155,1.203,0.233,2.531,0.233,3.984c0,1.969-0.039,4.672-0.116,8.109H197.328z
		 M190.18,27.012v0.234c0,0.578,0.351,0.867,1.055,0.867c0.999,0,1.5-0.367,1.5-1.102l-0.094-7.289v-2.625
		c0.765-0.484,1.148-0.867,1.148-1.148c0-0.25-0.274-0.586-0.821-1.008c-0.89-0.734-1.438-1.102-1.64-1.102
		c-0.235,0-0.743,0.445-1.523,1.336h-4.712v-3.703h9.117c0.453,0,0.681-0.141,0.681-0.422c0-0.297-0.306-0.711-0.914-1.242
		c-1.235-1.063-1.969-1.594-2.204-1.594c-0.25,0-0.89,0.688-1.921,2.063h-4.759V5.566c1.531-0.328,3.32-0.859,5.367-1.594
		c0.61,0.234,1.094,0.352,1.454,0.352c0.437,0,0.656-0.141,0.656-0.422c0-0.453-0.954-1.438-2.86-2.953
		c-0.547,0.5-1.476,1.078-2.788,1.734c-3.36,1.594-7.11,2.742-11.25,3.445c-0.11,0.031-0.164,0.117-0.164,0.258
		c0,0.25,0.094,0.375,0.281,0.375c2.562-0.172,4.852-0.414,6.866-0.727v4.242h-5.46c-1.298,0-2.438-0.125-3.423-0.375l0.493,1.852
		c0.984-0.188,1.992-0.281,3.023-0.281h5.366v3.703h-4.358c-1.031-0.641-2.056-1.156-3.07-1.547c0.155,1.75,0.233,3.977,0.233,6.68
		l-0.14,7.148c0,0.609,0.366,0.914,1.102,0.914c0.983,0,1.476-0.375,1.476-1.125v-0.234h4.758v3.961h-5.179
		c-1.204,0-2.329-0.094-3.375-0.281l0.491,1.758c1-0.188,1.977-0.281,2.93-0.281h5.133v4.992c-1.844,0.281-4.008,0.516-6.491,0.703
		c-0.501,0.016-0.907,0.023-1.219,0.023c-0.345,0-0.75-0.016-1.219-0.047c0.483,1.844,0.82,3.015,1.008,3.516
		c0.188,0.5,0.413,0.75,0.68,0.75c0.328,0,0.633-0.516,0.914-1.547c5.733-1.094,11.007-2.594,15.819-4.5
		c0.095-0.031,0.142-0.109,0.142-0.234c0-0.297-0.11-0.43-0.329-0.398c-2.922,0.641-5.211,1.094-6.867,1.359v-4.617h7.782
		c0.375,0,0.563-0.141,0.563-0.422s-0.274-0.648-0.82-1.102c-1.125-1-1.813-1.5-2.063-1.5c-0.234,0-0.837,0.609-1.805,1.828h-3.657
		v-3.961H190.18z M185.093,21.551h5.087v4.266h-5.087V21.551z M185.093,16.371h5.087v3.984h-5.087V16.371z M177.897,21.551h4.758
		v4.266h-4.758V21.551z M177.897,16.371h4.758v3.984h-4.758V16.371z M174.266,3.316c1.187-0.266,1.781-0.586,1.781-0.961
		c0-0.594-1.509-1.219-4.524-1.875c-0.093,1.516-0.383,3.211-0.867,5.086c-1.875,7.5-4.281,13.469-7.218,17.906
		c-0.017,0.016-0.023,0.039-0.023,0.07c0,0.281,0.147,0.422,0.445,0.422c0.062,0,0.117-0.023,0.163-0.07
		c1.75-2.031,3.336-4.313,4.758-6.844l-0.14,8.672c-0.048,6.422-0.11,11.516-0.188,15.281c-0.032,1.187-0.048,1.828-0.048,1.922
		c0,0.828,0.414,1.242,1.242,1.242c1.22,0,1.829-0.461,1.829-1.383l-0.094-17.109v-8.531c0.921-0.422,1.383-0.773,1.383-1.055
		c0-0.422-0.978-0.805-2.931-1.148C171.397,11.863,172.874,7.988,174.266,3.316L174.266,3.316z"/>
	<path fill="#083E00" d="M194.703,67.738c1.89,1.063,3.577,2.625,5.063,4.688c1.655,2.297,2.484,4.313,2.484,6.047
		c0,0.5-0.243,0.789-0.728,0.867c-0.563,0.078-1.78,0.227-3.655,0.445c-0.485,0.047-0.727,0.188-0.727,0.422
		c0,0.375,0.211,0.586,0.632,0.633c1.422,0.172,2.462,0.375,3.118,0.609c0.687,0.25,1.219,0.633,1.594,1.148
		c0.296,0.422,0.71,0.633,1.242,0.633c1.219,0,1.828-1.055,1.828-3.164c0-2.531-0.891-4.992-2.672-7.383
		c-1.969-2.641-4.523-4.609-7.665-5.906c-0.156-0.078-0.313-0.117-0.468-0.117c-0.36,0-0.54,0.117-0.54,0.352
		C194.21,67.308,194.375,67.55,194.703,67.738L194.703,67.738z M180.734,88.855c0-0.563-0.103-1.063-0.305-1.5
		c-0.126-0.297-0.188-0.664-0.188-1.102c0-0.219,0.163-0.813,0.492-1.781c0.891-2.594,2.156-5.313,3.796-8.156
		c0.188-0.375,0.282-0.656,0.282-0.844c0-0.328-0.181-0.492-0.54-0.492c-0.313,0-0.578,0.18-0.796,0.539
		c-2.188,3.453-3.938,6.359-5.25,8.719c-0.281,0.516-0.603,0.773-0.961,0.773c-0.75,0-1.54-0.867-2.368-2.602
		c-0.859-1.844-1.288-4.578-1.288-8.203c0-2.719,0.179-4.609,0.538-5.672c0.297-0.859,0.445-1.547,0.445-2.063
		c0-1.063-0.75-2.227-2.25-3.492c-1.203-1.031-2.164-1.547-2.883-1.547c-0.453,0-0.68,0.141-0.68,0.422
		c0,0.141,0.148,0.352,0.446,0.633c0.796,0.75,1.343,1.43,1.641,2.039c0.312,0.641,0.468,1.5,0.468,2.578l-0.069,3.938
		c0,3.75,0.257,6.805,0.773,9.164c0.733,3.328,2.093,5.984,4.078,7.969c1.28,1.281,2.358,1.922,3.234,1.922
		C180.272,90.097,180.734,89.683,180.734,88.855L180.734,88.855z"/>
	<path fill="#083E00" d="M198.57,113.1c-0.532,0.297-1.282,0.547-2.25,0.75l-20.836,5.32c-1.406,0.359-2.431,0.539-3.07,0.539
		c-0.609,0.016-1.148-0.094-1.617-0.328c-0.438-0.219-0.97-0.672-1.594-1.359c-0.281-0.281-0.493-0.422-0.633-0.422
		c-0.313,0-0.469,0.305-0.469,0.914c0,0.719,0.429,1.633,1.289,2.742c1.125,1.313,2.18,1.969,3.164,1.969
		c0.563,0,1.108-0.18,1.641-0.539c1.031-0.594,2.218-1.133,3.563-1.617c3.405-1.234,7.694-2.609,12.867-4.125l0.093,0.141
		c-2.577,1.438-4.663,3.359-6.258,5.766c-1.875,2.797-2.813,5.805-2.813,9.023c0,3.797,1.391,6.852,4.173,9.164
		c1.374,1.188,3.202,2.148,5.484,2.883c2.28,0.734,4.453,1.102,6.516,1.102c1.468,0,2.202-0.414,2.202-1.242
		c0-0.75-0.383-1.328-1.147-1.734c-0.876-0.469-2.095-0.742-3.657-0.82c-1.313-0.016-2.656-0.242-4.03-0.68
		c-1.72-0.547-3.157-1.313-4.313-2.297c-2.173-1.734-3.258-4.328-3.258-7.781c0-2.547,0.905-5.055,2.718-7.523
		c1.97-2.656,4.29-4.453,6.962-5.391c2.625-0.953,5.733-1.484,9.328-1.594c1.046-0.047,1.57-0.477,1.57-1.289
		c0-0.656-0.431-1.133-1.29-1.43c-1-0.422-1.914-0.633-2.741-0.633C199.585,112.608,199.054,112.772,198.57,113.1L198.57,113.1z"/>
	<path fill="#083E00" d="M187.109,186.775c-0.047,0.032-0.07,0.079-0.07,0.141c0,0.329,0.147,0.492,0.445,0.492
		c0.015,0,0.038,0,0.07,0c3.249-1.406,6.062-3.296,8.438-5.671c2.063,3.109,4.694,5.523,7.898,7.241
		c1.14,0.548,2.054,0.821,2.742,0.821c1.077,0,1.617-0.523,1.617-1.571c0-0.452-0.157-0.891-0.47-1.313
		c-0.359-0.39-0.538-0.733-0.538-1.031c0-0.077,0.258-1.5,0.773-4.265c0.015-0.142-0.032-0.242-0.141-0.306
		c-0.047-0.03-0.103-0.047-0.165-0.047s-0.117,0.04-0.163,0.117c-1.547,2.829-2.493,4.242-2.837,4.242
		c-0.297,0-0.805-0.241-1.522-0.727c-2.063-1.405-3.82-3.163-5.273-5.273c1.671-2.03,3.211-4.491,4.616-7.382
		c1.094-0.125,1.642-0.383,1.642-0.774c0-0.233-0.181-0.46-0.539-0.68c-0.438-0.281-1.532-0.773-3.281-1.477
		c-0.281,1.298-0.806,2.735-1.571,4.313c-0.672,1.406-1.391,2.673-2.155,3.798c-0.797-1.625-1.392-3.142-1.782-4.548
		c-0.547-1.937-0.913-4.313-1.101-7.125h13.055c0.437,0,0.656-0.155,0.656-0.469c0-0.281-0.306-0.687-0.914-1.219
		c-1.251-1.062-2.017-1.594-2.297-1.594c-0.267,0-0.923,0.696-1.97,2.087h-8.625c-0.016-0.344-0.031-0.828-0.046-1.454
		c-0.017-0.844-0.032-1.453-0.047-1.828c1.062-0.468,1.593-0.882,1.593-1.242c0-0.296-0.219-0.53-0.655-0.703
		c-0.626-0.234-1.931-0.452-3.914-0.655c0.14,1.077,0.249,2.492,0.327,4.241l0.048,1.642h-17.719
		c-1.079-0.704-2.29-1.367-3.633-1.993c0.171,1.735,0.258,4.008,0.258,6.82c0,3.798-0.29,7.157-0.867,10.078
		c-0.673,3.703-2.039,7.125-4.102,10.266c-0.017,0.032-0.023,0.063-0.023,0.094c0,0.235,0.163,0.353,0.492,0.353
		c0.062,0,0.117-0.024,0.163-0.071c2.813-2.89,4.758-6.226,5.837-10.008c0.999-3.499,1.5-7.272,1.5-11.32v-3.023h18.188
		c0.39,5.079,1.491,9.431,3.305,13.056c0.108,0.219,0.288,0.555,0.539,1.007C192.688,182.503,190.093,184.823,187.109,186.775
		L187.109,186.775z M185.305,183.939c0,0.595,0.382,0.891,1.148,0.891c1.062,0,1.594-0.366,1.594-1.102l-0.094-4.688v-1.477
		c0.797-0.515,1.194-0.929,1.194-1.242c0-0.202-0.273-0.554-0.819-1.055c-0.876-0.765-1.423-1.147-1.641-1.147
		c-0.22,0-0.743,0.444-1.57,1.335h-6.914c-0.829-0.483-1.852-0.976-3.07-1.477c0.124,1.47,0.188,3.398,0.188,5.789l-0.094,5.203
		c0,0.579,0.352,0.867,1.054,0.867c1.094,0,1.642-0.366,1.642-1.101V183.4h7.383V183.939z M177.922,182.205v-5.555h7.383v5.555
		H177.922z M199.343,163.01c0.297,0.579,0.704,0.867,1.22,0.867c0.812,0,1.218-0.46,1.218-1.382c0-1.656-1.648-2.688-4.945-3.095
		c-0.016,0-0.031,0-0.046,0c-0.188,0-0.281,0.095-0.281,0.282c0,0.063,0.022,0.117,0.07,0.163
		C197.671,160.55,198.593,161.604,199.343,163.01L199.343,163.01z M203.867,197.627c0.202,0.703,0.413,1.188,0.633,1.453
		c0.234,0.313,0.585,0.47,1.055,0.47c0.968,0,1.453-0.688,1.453-2.063c0-1.109-0.563-2.274-1.688-3.492
		c-1.329-1.422-3.063-2.539-5.203-3.353c-0.032-0.015-0.063-0.022-0.095-0.022c-0.203,0-0.305,0.086-0.305,0.257
		c0,0.048,0.024,0.087,0.071,0.118C201.726,192.854,203.085,195.065,203.867,197.627L203.867,197.627z M188.468,193.104
		c0.47,1.031,0.962,1.547,1.478,1.547c0.375,0,0.694-0.132,0.96-0.398c0.297-0.312,0.446-0.727,0.446-1.242
		c0-0.952-0.517-1.843-1.547-2.672c-1.235-0.999-2.97-1.711-5.203-2.133c-0.234-0.03-0.352,0.063-0.352,0.282
		c0,0.078,0.038,0.148,0.117,0.21C186.272,190.042,187.64,191.51,188.468,193.104L188.468,193.104z M170.891,194.041
		c-0.626,0.954-1.556,1.72-2.789,2.297c-1.001,0.438-1.5,1.04-1.5,1.805c0,0.47,0.141,0.859,0.421,1.172
		c0.329,0.344,0.75,0.516,1.267,0.516c1.171,0,2.194-0.633,3.07-1.897c1.015-1.454,1.523-3.266,1.523-5.438
		c0-0.517-0.032-1.047-0.094-1.595c-0.032-0.155-0.164-0.234-0.398-0.234c-0.173,0-0.274,0.063-0.306,0.188
		C171.819,192.183,171.421,193.245,170.891,194.041L170.891,194.041z M177.172,171.447h12.233c0.406,0,0.61-0.155,0.61-0.469
		c0-0.265-0.258-0.633-0.773-1.102c-1.313-1.062-2.071-1.594-2.274-1.594c-0.233,0-0.859,0.656-1.875,1.969h-8.015
		c-0.876,0-1.852-0.108-2.931-0.327l0.445,1.804C175.546,171.541,176.405,171.447,177.172,171.447L177.172,171.447z
		 M194.867,197.533c-0.673,0.656-3.243,0.984-7.712,0.984c-2.141,0-3.625-0.047-4.452-0.141c-0.938-0.108-1.556-0.319-1.852-0.632
		c-0.251-0.282-0.375-0.789-0.375-1.524v-4.945c1.062-0.468,1.594-0.882,1.594-1.242c0-0.281-0.196-0.483-0.586-0.608
		c-0.532-0.172-1.892-0.367-4.079-0.587c0.156,1.095,0.235,2.454,0.235,4.078l-0.141,3.352c0,1.86,0.492,3.125,1.477,3.797
		c1.078,0.734,3.429,1.102,7.054,1.102c5.422,0,8.884-0.188,10.384-0.563c1.53-0.375,2.296-1.008,2.296-1.898
		c0-0.563-0.257-0.96-0.772-1.195c-0.407-0.202-0.609-0.539-0.609-1.008c0-0.858,0.03-1.976,0.094-3.352
		c0-0.188-0.11-0.28-0.329-0.28c-0.125,0-0.21,0.063-0.258,0.188C196.054,195.511,195.397,197.003,194.867,197.533L194.867,197.533z
		"/>
	<path fill="#083E00" d="M194.563,217.885c0,0.234,0.062,0.392,0.188,0.469c1.78,1.078,3.093,2.36,3.938,3.844
		c0.53,0.86,1.062,1.289,1.593,1.289c0.266,0,0.5-0.101,0.704-0.305c0.265-0.249,0.398-0.577,0.398-0.984
		c0-1.046-0.72-2.069-2.156-3.07c-1.11-0.75-2.25-1.28-3.422-1.594c-0.328-0.094-0.587-0.141-0.774-0.141
		C194.718,217.393,194.563,217.557,194.563,217.885L194.563,217.885z M190.484,220.908c0,0.173,0.094,0.328,0.281,0.469
		c1.655,1.204,2.836,2.501,3.539,3.891c0.563,1.048,1.093,1.57,1.593,1.57c0.798,0,1.195-0.46,1.195-1.383
		c0-0.968-0.688-2.007-2.063-3.117c-0.906-0.765-2.085-1.406-3.538-1.922c-0.095-0.03-0.251-0.047-0.47-0.047
		C190.663,220.369,190.484,220.55,190.484,220.908L190.484,220.908z M193.953,249.525c3.702-1.858,6.773-4.366,9.211-7.523
		c0.218-0.281,0.328-0.522,0.328-0.727c0-0.312-0.157-0.469-0.47-0.469c-0.266,0-0.508,0.11-0.726,0.328
		c-2.454,2.313-5.087,4.188-7.899,5.625c-3.515,1.813-6.89,2.719-10.125,2.719c-1.813,0-3.078-0.335-3.796-1.008
		c-0.892-0.75-1.336-2.233-1.336-4.453c0-2.562,0.147-6.305,0.444-11.227c0.219-3.78,0.493-6.938,0.82-9.469
		c0.063-0.827,0.266-1.413,0.61-1.758c0.452-0.452,0.68-0.921,0.68-1.406c0-0.844-0.656-1.758-1.969-2.742
		c-1.345-0.984-2.461-1.477-3.352-1.477c-0.516,0-0.907,0.063-1.172,0.188c-0.313,0.188-0.469,0.384-0.469,0.586
		c0,0.234,0.226,0.407,0.68,0.516c1.483,0.438,2.203,1.626,2.156,3.563c-0.126,5.203-0.258,9.157-0.398,11.859
		c-0.251,5.688-0.375,9.673-0.375,11.953c0,4.985,2.429,7.477,7.288,7.477C187.32,252.08,190.608,251.229,193.953,249.525
		L193.953,249.525z"/>
	<path fill="#083E00" d="M184.438,273.251c0.375-0.844,0.71-1.383,1.008-1.617c0.452-0.343,0.68-0.797,0.68-1.359
		c0-0.483-0.274-0.944-0.82-1.383c-0.516-0.422-1.188-0.797-2.016-1.125c-0.86-0.343-1.532-0.516-2.017-0.516
		c-0.327,0-0.758,0.079-1.288,0.234c-0.454,0.204-0.68,0.415-0.68,0.633c0,0.204,0.272,0.36,0.82,0.469
		c1.53,0.328,2.297,1.055,2.297,2.18c0,0.531-0.157,1.359-0.469,2.484c-0.345,1.282-0.798,2.712-1.36,4.289
		c-2.671,0.829-4.844,1.242-6.515,1.242c-1.641,0-3.009-0.366-4.102-1.102c-0.454-0.296-0.75-0.445-0.892-0.445
		c-0.359,0-0.538,0.18-0.538,0.539c0,0.531,0.46,1.125,1.383,1.781c1.202,0.891,2.757,1.336,4.663,1.336
		c1.391,0,3.102-0.241,5.134-0.727c-2.845,7.891-5.915,15.094-9.211,21.609c-0.157,0.375-0.235,0.696-0.235,0.961
		c0,0.392,0.109,0.75,0.329,1.078c0.265,0.313,0.633,0.469,1.101,0.469c0.672,0,1.188-0.398,1.548-1.195
		c1.781-4.093,4.741-11.937,8.883-23.531c2.749-0.75,5.367-1.585,7.852-2.508c1.125-0.437,1.688-0.984,1.688-1.641
		c0-0.343-0.149-0.633-0.445-0.867c-0.281-0.218-0.626-0.328-1.031-0.328c-0.454,0-1.228,0.258-2.32,0.773
		c-1.563,0.735-3.181,1.375-4.853,1.922C183.796,274.83,184.265,273.611,184.438,273.251L184.438,273.251z M187.227,293.806
		c0-0.249-0.11-0.375-0.329-0.375c-0.327,0-0.617,0.29-0.867,0.867c-0.578,1.266-0.866,2.446-0.866,3.539
		c0,0.906,0.249,1.798,0.75,2.672c0.546,0.984,1.304,1.774,2.273,2.367c1.937,1.188,4.897,1.781,8.883,1.781
		c1.952,0,3.694-0.109,5.227-0.328c0.765-0.108,1.296-0.272,1.594-0.492c0.312-0.219,0.469-0.569,0.469-1.055
		c0-0.624-0.321-1.069-0.962-1.336c-0.484-0.188-0.977-0.281-1.476-0.281c-0.609,0-1.267,0.094-1.969,0.281
		c-1.376,0.313-2.845,0.469-4.406,0.469c-2.985,0-5.118-0.335-6.399-1.008c-1.625-0.844-2.438-2.156-2.438-3.938
		c0-0.844,0.102-1.624,0.306-2.344C187.155,294.127,187.227,293.853,187.227,293.806L187.227,293.806z M192.078,287.524
		c-0.298,0.281-0.445,0.485-0.445,0.609c0,0.267,0.108,0.398,0.327,0.398c0.235,0,0.493-0.077,0.774-0.234
		c2.655-1.796,4.272-2.82,4.851-3.07c0.625-0.296,1.173-0.445,1.642-0.445c0.077,0,0.155,0,0.233,0c0.266,0,0.695,0.094,1.29,0.281
		c0.422,0.157,0.772,0.234,1.055,0.234c0.718,0.063,1.101-0.272,1.148-1.008c0.047-0.718-0.398-1.304-1.336-1.758
		c-1.095-0.516-2.602-0.827-4.524-0.938c-0.297-0.015-0.57-0.023-0.82-0.023c-3.531,0-6.555,0.931-9.069,2.789
		c-0.251,0.204-0.375,0.431-0.375,0.68c0,0.22,0.132,0.328,0.398,0.328c0.155,0,0.328-0.038,0.516-0.117
		c2.063-1.108,4.617-1.664,7.663-1.664c0.282,0,0.531,0.009,0.75,0.023c0.219,0.017,0.329,0.063,0.329,0.141
		c0,0.079-0.094,0.196-0.281,0.352C193.843,286.04,192.468,287.182,192.078,287.524L192.078,287.524z"/>
	<path fill="#083E00" d="M94.375,7.734c-0.984-0.578-2.25-1.188-3.797-1.828c0.155,1.891,0.234,7.203,0.234,15.938l-0.234,21.141
		c0,0.734,0.445,1.102,1.336,1.102c1.249,0,1.875-0.454,1.875-1.359V40.43h21.984v2.109c0,0.734,0.445,1.102,1.336,1.102
		c1.249,0,1.875-0.445,1.875-1.336l-0.188-21.469V10.031c0.891-0.641,1.336-1.102,1.336-1.383c0-0.234-0.29-0.602-0.867-1.102
		c-1.095-0.938-1.767-1.406-2.016-1.406c-0.22,0-0.837,0.531-1.852,1.594H101.57c0.999-1.078,2.227-2.711,3.68-4.898
		c1.187-0.219,1.781-0.539,1.781-0.961c0-0.266-0.274-0.516-0.82-0.75c-0.609-0.25-1.884-0.625-3.82-1.125
		c-0.047,0.891-0.305,2.109-0.773,3.656c-0.438,1.469-0.938,2.828-1.5,4.078H94.375z M93.789,39.234V29.203h21.984v10.031H93.789z
		 M93.789,28.008v-8.953h21.984v8.953H93.789z M93.789,17.859V8.93h21.984v8.93H93.789z"/>
	<path fill="#083E00" d="M95.453,86.381c-2.438,3.719-6.407,6.929-11.906,9.633c-0.063,0.031-0.094,0.094-0.094,0.188
		c0,0.359,0.124,0.539,0.375,0.539c0.015,0,0.03,0,0.047,0c5.578-1.781,9.851-4.305,12.82-7.57c3.39-3.734,5.382-8.797,5.977-15.188
		h11.555c-0.392,6.703-0.993,11.617-1.805,14.742c-0.579,2.203-1.477,3.305-2.695,3.305c-1.517,0-3.82-0.273-6.914-0.82
		c-0.173-0.031-0.258,0.125-0.258,0.469c0,0.219,0.054,0.336,0.164,0.352c1.858,0.453,3.211,0.914,4.055,1.383
		s1.319,1.046,1.43,1.734c0.047,0.296,0.108,0.484,0.188,0.563c0.077,0.078,0.265,0.117,0.563,0.117
		c1.608,0,2.843-0.383,3.703-1.148c0.984-0.829,1.796-2.289,2.438-4.383c0.938-2.969,1.641-8.055,2.109-15.258
		c0.827-0.531,1.242-0.914,1.242-1.148c0-0.297-0.258-0.68-0.773-1.148c-1.157-1.063-1.852-1.594-2.086-1.594
		c-0.204,0-0.813,0.547-1.828,1.641H94.703c-1.5,0-2.906-0.148-4.219-0.445l0.469,1.922c1.046-0.188,2.312-0.281,3.797-0.281h4.664
		C98.913,78.998,97.593,83.131,95.453,86.381L95.453,86.381z M117.063,65.873c-2.906-2.688-5.109-5.953-6.609-9.797
		c-0.173-0.375-0.258-0.648-0.258-0.82l0.188-0.773c0-0.25-0.141-0.375-0.422-0.375c-0.204,0-0.516,0.086-0.938,0.258
		c-0.532,0.234-0.797,0.422-0.797,0.563c0,0.188,0.155,0.391,0.469,0.609c0.234,0.188,0.429,0.461,0.586,0.82
		c1.812,5.063,4.008,9.078,6.586,12.047c1.765,2.156,3.938,4.109,6.516,5.859c0.858,0.578,1.483,0.867,1.875,0.867
		c0.281,0,0.483-0.242,0.609-0.727c0.265-0.703,0.516-1.195,0.75-1.477c0.296-0.328,0.718-0.508,1.266-0.539
		c0.188-0.031,0.281-0.148,0.281-0.352c0-0.141-0.056-0.227-0.164-0.258C123.421,70.654,120.109,68.686,117.063,65.873
		L117.063,65.873z M92.664,68.732c2.937-3.109,5.421-6.898,7.453-11.367c1.359-0.156,2.039-0.477,2.039-0.961
		c0-0.531-1.587-1.328-4.758-2.391c-0.234,1.203-0.72,2.688-1.453,4.453c-2.798,6.609-7.195,12.234-13.195,16.875
		c-0.047,0.047-0.07,0.102-0.07,0.164c0,0.328,0.141,0.492,0.422,0.492c0.015,0,0.038,0,0.07,0
		C86.875,73.92,90.039,71.498,92.664,68.732L92.664,68.732z"/>
	<path fill="#083E00" d="M93.414,124.425c-1.767,1.328-2.938,2.18-3.516,2.555c-0.75,0.531-1.329,0.797-1.734,0.797
		c-0.673,0-1.406-0.445-2.203-1.336c-0.234-0.281-0.445-0.421-0.633-0.421c-0.281,0-0.422,0.195-0.422,0.586
		c0,0.688,0.319,1.438,0.961,2.25c0.516,0.641,1.116,1.195,1.805,1.664c0.78,0.547,1.444,0.82,1.992,0.82
		c0.593,0,1.069-0.305,1.43-0.914c0.516-0.813,1.015-1.484,1.5-2.016c1.702-1.813,3.352-3.359,4.945-4.641
		c1.14-0.891,2.227-1.336,3.258-1.336c0.984,0,2.022,0.477,3.117,1.43c2.625,2.063,5.663,4.258,9.117,6.585
		c2.25,1.485,5.054,3.047,8.414,4.688c1.093,0.547,1.89,0.821,2.391,0.821c0.483,0,0.886-0.156,1.207-0.469
		c0.319-0.313,0.48-0.703,0.48-1.172c0-0.796-0.415-1.367-1.242-1.71c-3.923-1.609-7.142-3.117-9.656-4.523
		c-1.828-1-4.915-2.914-9.258-5.742c-1.781-1.125-3.258-1.688-4.43-1.688c-1.359,0-2.829,0.508-4.406,1.523
		C95.875,122.597,94.835,123.347,93.414,124.425L93.414,124.425z"/>
	<path fill="#083E00" d="M105.508,168.454c0.452,0,0.882,0.016,1.289,0.046c3.469,0.173,6.343,1.235,8.625,3.188
		c2.702,2.313,4.055,5.392,4.055,9.234c0,4.017-1.649,7.376-4.945,10.078c-3.079,2.517-7.165,4.212-12.258,5.087
		c-0.548,0.125-0.82,0.383-0.82,0.772c0,0.36,0.234,0.54,0.703,0.54c0.03,0,0.07,0,0.117,0c5.046-0.282,9.405-1.531,13.078-3.75
		c4.858-2.922,7.289-6.892,7.289-11.907c0-4.046-1.345-7.444-4.031-10.195c-3.11-3.188-7.242-4.78-12.398-4.78
		c-5.595,0-10.235,1.727-13.922,5.179c-3.485,3.281-5.227,7.251-5.227,11.906c0,2.438,0.563,4.548,1.688,6.328
		c1.108,1.673,2.391,2.508,3.844,2.508c1.406,0,2.983-1.069,4.734-3.211c2.953-3.733,5.257-7.976,6.914-12.727
		c0.609-1.952,0.914-3.522,0.914-4.711c0-1.359-0.321-2.538-0.961-3.539C104.601,168.47,105.039,168.454,105.508,168.454
		L105.508,168.454z M103.281,170.704c0,1-0.228,2.148-0.68,3.445c-1.485,4.531-3.688,8.727-6.609,12.585
		c-1.406,1.86-2.531,2.79-3.375,2.79c-0.907,0-1.657-0.547-2.25-1.642c-0.767-1.483-1.148-3.101-1.148-4.852
		c0-3.687,1.296-6.851,3.891-9.492c2.531-2.593,5.733-4.21,9.609-4.852C103.094,169.063,103.281,169.735,103.281,170.704
		L103.281,170.704z"/>
	<path fill="#083E00" d="M12.375,7.734c-0.984-0.578-2.25-1.188-3.797-1.828c0.155,1.891,0.234,7.203,0.234,15.938L8.578,42.984
		c0,0.734,0.445,1.102,1.336,1.102c1.249,0,1.875-0.454,1.875-1.359V40.43h21.984v2.109c0,0.734,0.445,1.102,1.336,1.102
		c1.249,0,1.875-0.445,1.875-1.336l-0.188-21.469V10.031c0.891-0.641,1.336-1.102,1.336-1.383c0-0.234-0.29-0.602-0.867-1.102
		c-1.095-0.938-1.767-1.406-2.016-1.406c-0.22,0-0.837,0.531-1.852,1.594H19.57c0.999-1.078,2.227-2.711,3.68-4.898
		c1.187-0.219,1.781-0.539,1.781-0.961c0-0.266-0.274-0.516-0.82-0.75C23.602,0.875,22.327,0.5,20.391,0
		c-0.047,0.891-0.305,2.109-0.773,3.656c-0.438,1.469-0.938,2.828-1.5,4.078H12.375z M11.789,39.234V29.203h21.984v10.031H11.789z
		 M11.789,28.008v-8.953h21.984v8.953H11.789z M11.789,17.859V8.93h21.984v8.93H11.789z"/>
	<path fill="#083E00" d="M36,95.68c0,0.609,0.398,0.914,1.195,0.914c1.249,0,1.875-0.414,1.875-1.242l-0.141-7.688v-2.789
		c0.827-0.531,1.242-0.945,1.242-1.242c0-0.266-0.258-0.625-0.773-1.078c-1.001-0.859-1.641-1.289-1.922-1.289
		c-0.22,0-0.806,0.516-1.758,1.547H19.57c-1.125-0.718-2.273-1.313-3.445-1.781c0.124,1.438,0.188,3.539,0.188,6.305l-0.094,8.344
		c0,0.375,0.07,0.633,0.211,0.773c0.171,0.156,0.499,0.234,0.984,0.234c1.219,0,1.828-0.398,1.828-1.195v-1.5H36V95.68z
		 M19.242,92.797v-8.789H36v8.789H19.242z M13.008,56.258c1.313-0.281,1.969-0.617,1.969-1.008c0-0.266-0.274-0.523-0.82-0.773
		c-0.642-0.296-1.945-0.711-3.914-1.242C10.008,54.907,9.554,56.829,8.883,59C6.68,66,3.733,71.829,0.047,76.485
		C0.015,76.517,0,76.547,0,76.579C0,76.86,0.164,77,0.492,77c0.047,0,0.085-0.015,0.117-0.047c2.233-2.141,4.257-4.578,6.07-7.313
		l-0.047,9C6.569,83.407,6.499,87.54,6.422,91.04c-0.047,2.891-0.07,4.391-0.07,4.5c0,0.828,0.46,1.242,1.383,1.242
		c1.219,0,1.828-0.5,1.828-1.5V70.227c0.952-0.406,1.43-0.789,1.43-1.148c0-0.266-0.164-0.469-0.492-0.609
		c-0.407-0.188-1.313-0.398-2.719-0.633C9.844,64.461,11.585,60.603,13.008,56.258L13.008,56.258z M20.109,57.946h20.016
		c0.422,0,0.633-0.148,0.633-0.445c0-0.266-0.352-0.688-1.055-1.266c-1.406-1.156-2.227-1.734-2.461-1.734
		c-0.267,0-1.055,0.75-2.367,2.25H20.109c-0.984,0-2.126-0.109-3.422-0.328l0.492,1.805C18.179,58.04,19.155,57.946,20.109,57.946
		L20.109,57.946z M16.547,64.602h27.516c0.452,0,0.68-0.156,0.68-0.469c0-0.281-0.398-0.727-1.195-1.336
		c-1.547-1.25-2.399-1.875-2.555-1.875c-0.251,0-1.071,0.829-2.461,2.484H16.5c-1.157,0-2.376-0.125-3.656-0.375l0.492,1.805
		C14.367,64.681,15.437,64.602,16.547,64.602L16.547,64.602z M19.242,70.883h21.164c0.452,0,0.68-0.141,0.68-0.422
		c0-0.25-0.337-0.648-1.008-1.195c-1.392-1.156-2.227-1.734-2.508-1.734c-0.298,0-1.048,0.719-2.25,2.156H19.242
		c-1.157,0-2.297-0.094-3.422-0.281l0.492,1.758C17.515,70.977,18.492,70.883,19.242,70.883L19.242,70.883z M19.289,77.563H40.5
		c0.422,0,0.633-0.156,0.633-0.469c0-0.281-0.352-0.695-1.055-1.242c-1.359-1.125-2.165-1.688-2.414-1.688
		c-0.267,0-1.017,0.735-2.25,2.203H19.289c-1.204,0-2.344-0.094-3.422-0.281l0.492,1.711C17.358,77.642,18.335,77.563,19.289,77.563
		L19.289,77.563z"/>
</g>
</svg>
