<?xml version="1.0" encoding="utf-8"?>
<!-- Generator: Adobe Illustrator 14.0.0, SVG Export Plug-In . SVG Version: 6.00 Build 43363)  -->
<!DOCTYPE svg PUBLIC "-//W3C//DTD SVG 1.1 Basic//EN" "http://www.w3.org/Graphics/SVG/1.1/DTD/svg11-basic.dtd">
<svg version="1.1" baseProfile="basic" id="レイヤー_1"
	 xmlns="http://www.w3.org/2000/svg" xmlns:xlink="http://www.w3.org/1999/xlink" x="0px" y="0px" width="288px" height="360.5px"
	 viewBox="-39.406 0 288 360.5" xml:space="preserve">
<g>
	<path fill="#FFFFFF" d="M228.109,20.241c4.765-1.203,7.147-3.845,7.147-7.923c0-2.266-0.75-4.116-2.25-5.555
		c-1.688-1.609-3.961-2.414-6.821-2.414c-2.296,0-4.375,0.656-6.232,1.969c-2.079,1.47-3.117,3.103-3.117,4.898
		c0,0.922,0.492,1.383,1.476,1.383c0.813,0,1.524-0.188,2.135-0.563c0.687-0.438,1.03-1,1.03-1.688c0-0.969,0.164-1.772,0.492-2.414
		c0.75-1.406,2.155-2.108,4.219-2.108c1.483,0,2.673,0.483,3.563,1.452c1.016,1.142,1.524,2.82,1.524,5.039
		c0,2.047-0.51,3.742-1.524,5.086c-1.156,1.5-2.711,2.25-4.663,2.25l-1.641-0.141c-0.673,0-1.009,0.477-1.009,1.43
		c0,0.359,0.194,0.539,0.587,0.539l2.529-0.141c1.875,0,3.414,0.609,4.618,1.828c1.374,1.406,2.063,3.336,2.063,5.789
		c0,2.641-0.51,4.719-1.523,6.233c-1.142,1.672-2.759,2.509-4.852,2.509c-2.188,0-3.696-0.962-4.523-2.884l-0.233-0.563
		c-0.735-1.828-1.471-2.742-2.203-2.742c-0.768,0-1.424,0.172-1.971,0.516c-0.607,0.406-0.913,0.906-0.913,1.5
		c0,1.328,1.009,2.609,3.023,3.845c1.999,1.25,4.272,1.875,6.82,1.875c2.968,0,5.396-0.797,7.289-2.392
		c2.171-1.858,3.258-4.438,3.258-7.733c0-2.142-0.643-3.953-1.922-5.438c-1.471-1.688-3.596-2.772-6.375-3.258L228.109,20.241
		L228.109,20.241z"/>
	<path fill="#FFFFFF" d="M231.343,81.45c3.219,5.577,7.219,9.852,12,12.819c1.063,0.671,1.749,1.008,2.063,1.008
		c0.343,0,0.608-0.242,0.797-0.727c0.249-0.656,0.516-1.117,0.796-1.383c0.282-0.281,0.719-0.492,1.313-0.633
		c0.188-0.031,0.281-0.142,0.281-0.328c0-0.125-0.056-0.203-0.165-0.234c-5.797-2.047-10.521-5.522-14.18-10.43
		c-2.031-2.703-3.602-5.508-4.71-8.414c-1.438-3.719-2.282-7.945-2.531-12.681c0.016-0.375,0.023-0.913,0.023-1.616
		c0.015-0.828,0.03-1.445,0.047-1.853c1.14-0.453,1.711-0.852,1.711-1.194c0-0.359-0.281-0.625-0.844-0.798
		c-0.643-0.188-2.096-0.383-4.359-0.586c0.142,1.078,0.211,2.281,0.211,3.609c0,2.016-0.141,4.297-0.423,6.844
		c-0.688,6.344-2.328,11.828-4.921,16.453c-2.923,5.234-7.345,9.805-13.267,13.711c-0.047,0.031-0.07,0.085-0.07,0.164
		c0,0.328,0.125,0.492,0.375,0.492c0.031,0,0.063-0.008,0.095-0.023c6-2.953,10.632-6.547,13.898-10.78
		c3.765-4.875,6.124-11.148,7.076-18.82C227.264,71.974,228.859,77.106,231.343,81.45L231.343,81.45z"/>
	<path fill="#FFFFFF" d="M240.343,120.536c0,0.233,0.063,0.391,0.188,0.469c1.78,1.078,3.093,2.367,3.938,3.867
		c0.517,0.858,1.038,1.289,1.57,1.289c0.312,0,0.574-0.125,0.785-0.375s0.315-0.555,0.315-0.914c0-1.063-0.72-2.095-2.155-3.095
		c-1.096-0.75-2.228-1.28-3.398-1.594c-0.328-0.094-0.587-0.141-0.773-0.141C240.498,120.044,240.343,120.208,240.343,120.536
		L240.343,120.536z M236.264,123.536c0,0.188,0.095,0.352,0.281,0.491c1.64,1.204,2.827,2.5,3.563,3.892
		c0.546,1.047,1.068,1.569,1.568,1.569c0.798,0,1.195-0.46,1.195-1.383c0-0.969-0.688-2.007-2.063-3.117
		c-0.922-0.765-2.102-1.405-3.537-1.922c-0.096-0.03-0.259-0.047-0.492-0.047C236.435,123.021,236.264,123.193,236.264,123.536
		L236.264,123.536z M238.163,112.802c-0.532,0.297-1.282,0.547-2.25,0.75c-2.36,0.609-5.735,1.477-10.125,2.602
		c-4.969,1.267-8.54,2.173-10.711,2.72c-1.406,0.359-2.431,0.539-3.07,0.539c-0.608,0.016-1.147-0.095-1.617-0.328
		c-0.438-0.22-0.97-0.671-1.594-1.359c-0.281-0.281-0.493-0.422-0.633-0.422c-0.313,0-0.469,0.305-0.469,0.914
		c0,0.719,0.429,1.633,1.289,2.742c1.125,1.313,2.18,1.969,3.164,1.969c0.563,0,1.107-0.179,1.641-0.539
		c1.031-0.594,2.218-1.133,3.563-1.617c3.375-1.219,7.664-2.593,12.867-4.125l0.094,0.142c-2.577,1.438-4.663,3.359-6.259,5.766
		c-1.875,2.797-2.813,5.805-2.813,9.023c0,3.797,1.391,6.852,4.173,9.164c1.374,1.188,3.202,2.147,5.484,2.883
		c2.279,0.734,4.452,1.102,6.516,1.102c1.468,0,2.202-0.414,2.202-1.242c0-0.75-0.383-1.328-1.147-1.733
		c-0.876-0.47-2.095-0.742-3.656-0.82c-1.313-0.015-2.656-0.242-4.03-0.68c-1.72-0.547-3.157-1.313-4.313-2.297
		c-2.173-1.734-3.258-4.328-3.258-7.781c0-2.546,0.905-5.054,2.718-7.523c1.971-2.672,4.29-4.468,6.962-5.391
		c2.625-0.953,5.733-1.484,9.328-1.594c1.046-0.047,1.57-0.478,1.57-1.289c0-0.656-0.431-1.133-1.29-1.431
		c-1-0.422-1.914-0.633-2.741-0.633C239.177,112.31,238.647,112.474,238.163,112.802L238.163,112.802z"/>
	<path fill="#FFFFFF" d="M228.202,167.33h14.156c0.451,0,0.68-0.142,0.68-0.422c0-0.313-0.368-0.759-1.104-1.337
		c-1.469-1.155-2.336-1.733-2.601-1.733c-0.267,0-1.063,0.766-2.391,2.297h-8.742v-5.18c1.093-0.47,1.641-0.898,1.641-1.289
		c0-0.517-1.603-0.938-4.805-1.267c0.155,1.188,0.234,3.203,0.234,6.047v9.517h-8.578v-8.978c1.125-0.469,1.688-0.883,1.688-1.241
		c0-0.281-0.228-0.5-0.68-0.656c-0.643-0.219-2.018-0.438-4.125-0.656c0.188,1.688,0.281,3.43,0.281,5.228v6.305h-5.039
		c-1.096,0-2.36-0.109-3.797-0.328l0.468,1.805c1.297-0.188,2.422-0.28,3.375-0.28h16.407v10.852c0,0.548-0.243,0.82-0.728,0.82
		c-1.345,0-3.087-0.117-5.227-0.353c-0.157-0.031-0.234,0.07-0.234,0.306c0,0.188,0.063,0.297,0.188,0.327
		c1.624,0.375,2.757,0.75,3.397,1.125c0.593,0.345,0.929,0.798,1.007,1.359c0.048,0.281,0.118,0.469,0.212,0.563
		c0.077,0.077,0.266,0.116,0.563,0.116c0.874,0,1.655-0.241,2.344-0.727c0.999-0.641,1.5-1.547,1.5-2.719l-0.094-5.531v-6.141
		h19.055c0.452,0,0.679-0.142,0.679-0.423c0-0.25-0.383-0.688-1.146-1.313c-1.61-1.313-2.524-1.969-2.742-1.969
		c-0.251,0-1.102,0.836-2.556,2.508h-13.288V167.33L228.202,167.33z M242.218,185.705c0.78,1.219,1.469,1.828,2.063,1.828
		c0.968,0,1.453-0.563,1.453-1.688c0-1.313-0.876-2.656-2.625-4.031c-2.11-1.672-4.923-2.914-8.438-3.727
		c-0.251-0.047-0.375,0.078-0.375,0.375c0,0.094,0.03,0.156,0.094,0.188C237.638,180.447,240.248,182.798,242.218,185.705
		L242.218,185.705z M212.195,187.439c1.765-1.703,3.563-3.961,5.391-6.772c1.327-0.078,1.992-0.353,1.992-0.82
		c0-0.266-0.196-0.508-0.587-0.727c-0.392-0.22-1.609-0.728-3.655-1.523c-0.251,0.984-0.891,2.414-1.922,4.289
		c-2.079,3.735-4.634,6.876-7.665,9.422c-0.031,0.047-0.046,0.103-0.046,0.164c0,0.297,0.107,0.445,0.328,0.445
		c0.029,0,0.062-0.023,0.093-0.07C208.435,190.58,210.46,189.111,212.195,187.439L212.195,187.439z M223.538,197.916
		c5.124-2.313,9.577-5.789,13.359-10.431c0.141,0,0.327,0,0.563,0c0.968,0,1.453-0.194,1.453-0.586c0-0.25-0.157-0.508-0.469-0.772
		c-0.36-0.313-1.423-1.023-3.188-2.133c-0.704,1.5-1.837,3.116-3.397,4.852c-5.329,5.922-13.635,10.109-24.914,12.563
		c-0.095,0.016-0.143,0.102-0.143,0.258c0,0.313,0.103,0.453,0.307,0.422C213.638,201.291,219.115,199.899,223.538,197.916
		L223.538,197.916z"/>
	<path fill="#FFFFFF" d="M234.296,225.703c1.891,1.063,3.577,2.625,5.063,4.688c1.654,2.297,2.483,4.313,2.483,6.047
		c0,0.5-0.243,0.789-0.728,0.867c-0.563,0.078-1.78,0.228-3.655,0.445c-0.485,0.047-0.727,0.188-0.727,0.422
		c0,0.375,0.211,0.586,0.632,0.633c1.422,0.172,2.462,0.375,3.118,0.609c0.687,0.25,1.219,0.633,1.594,1.147
		c0.296,0.422,0.71,0.633,1.242,0.633c1.219,0,1.828-1.055,1.828-3.164c0-2.53-0.892-4.991-2.673-7.383
		c-1.969-2.641-4.522-4.608-7.665-5.905c-0.155-0.078-0.313-0.117-0.468-0.117c-0.359,0-0.54,0.117-0.54,0.352
		C233.802,225.273,233.968,225.515,234.296,225.703L234.296,225.703z M220.327,246.82c0-0.563-0.104-1.063-0.305-1.5
		c-0.126-0.297-0.188-0.664-0.188-1.102c0-0.219,0.163-0.813,0.492-1.781c0.891-2.594,2.156-5.313,3.796-8.156
		c0.188-0.375,0.282-0.655,0.282-0.844c0-0.328-0.182-0.492-0.54-0.492c-0.313,0-0.578,0.181-0.796,0.539
		c-2.188,3.453-3.938,6.359-5.25,8.72c-0.281,0.516-0.604,0.772-0.961,0.772c-0.75,0-1.54-0.867-2.368-2.602
		c-0.859-1.845-1.288-4.578-1.288-8.203c0-2.719,0.179-4.609,0.538-5.672c0.297-0.859,0.444-1.547,0.444-2.063
		c0-1.063-0.75-2.227-2.25-3.492c-1.202-1.03-2.163-1.547-2.883-1.547c-0.453,0-0.68,0.142-0.68,0.422
		c0,0.142,0.148,0.353,0.446,0.634c0.796,0.75,1.343,1.43,1.641,2.038c0.313,0.642,0.468,1.5,0.468,2.578l-0.068,3.938
		c0,3.75,0.257,6.805,0.772,9.164c0.733,3.328,2.093,5.983,4.078,7.969c1.28,1.281,2.358,1.922,3.234,1.922
		C219.865,248.062,220.327,247.648,220.327,246.82L220.327,246.82z"/>
	<path fill="#FFFFFF" d="M224.031,272.816c0.375-0.844,0.71-1.383,1.008-1.616c0.452-0.344,0.68-0.798,0.68-1.359
		c0-0.483-0.273-0.944-0.819-1.383c-0.517-0.422-1.188-0.797-2.017-1.125c-0.859-0.344-1.532-0.517-2.017-0.517
		c-0.327,0-0.758,0.079-1.288,0.234c-0.454,0.204-0.68,0.415-0.68,0.633c0,0.204,0.271,0.36,0.819,0.469
		c1.53,0.328,2.297,1.056,2.297,2.181c0,0.53-0.156,1.358-0.469,2.483c-0.345,1.282-0.798,2.712-1.36,4.289
		c-2.671,0.829-4.844,1.242-6.515,1.242c-1.641,0-3.009-0.366-4.102-1.102c-0.454-0.296-0.75-0.445-0.893-0.445
		c-0.358,0-0.538,0.181-0.538,0.539c0,0.531,0.46,1.125,1.384,1.781c1.201,0.891,2.757,1.336,4.662,1.336
		c1.392,0,3.103-0.241,5.135-0.728c-2.846,7.892-5.915,15.095-9.211,21.609c-0.157,0.375-0.235,0.695-0.235,0.961
		c0,0.392,0.109,0.75,0.329,1.078c0.265,0.313,0.633,0.469,1.101,0.469c0.672,0,1.188-0.398,1.548-1.195
		c1.781-4.093,4.741-11.937,8.884-23.53c2.749-0.75,5.366-1.585,7.852-2.509c1.125-0.437,1.688-0.983,1.688-1.641
		c0-0.343-0.149-0.633-0.445-0.867c-0.281-0.218-0.626-0.328-1.031-0.328c-0.454,0-1.228,0.259-2.32,0.773
		c-1.563,0.735-3.181,1.375-4.853,1.922C223.388,274.395,223.858,273.176,224.031,272.816L224.031,272.816z M226.82,293.371
		c0-0.249-0.11-0.375-0.329-0.375c-0.327,0-0.617,0.29-0.867,0.866c-0.578,1.267-0.866,2.446-0.866,3.539
		c0,0.906,0.249,1.798,0.75,2.672c0.546,0.984,1.305,1.774,2.273,2.367c1.937,1.188,4.896,1.781,8.883,1.781
		c1.952,0,3.694-0.109,5.227-0.328c0.766-0.108,1.297-0.272,1.595-0.492c0.312-0.219,0.469-0.569,0.469-1.055
		c0-0.624-0.321-1.069-0.962-1.336c-0.484-0.188-0.978-0.281-1.477-0.281c-0.608,0-1.267,0.094-1.969,0.281
		c-1.376,0.313-2.845,0.469-4.406,0.469c-2.984,0-5.117-0.335-6.398-1.008c-1.625-0.844-2.438-2.156-2.438-3.938
		c0-0.845,0.103-1.624,0.307-2.345C226.748,293.692,226.82,293.417,226.82,293.371L226.82,293.371z M231.671,287.089
		c-0.298,0.281-0.445,0.484-0.445,0.608c0,0.268,0.108,0.398,0.327,0.398c0.235,0,0.493-0.077,0.774-0.234
		c2.655-1.796,4.271-2.818,4.851-3.069c0.625-0.296,1.173-0.445,1.643-0.445c0.077,0,0.154,0,0.232,0
		c0.267,0,0.695,0.094,1.29,0.281c0.422,0.157,0.772,0.233,1.056,0.233c0.718,0.063,1.101-0.271,1.147-1.008
		c0.047-0.718-0.397-1.304-1.336-1.758c-1.095-0.516-2.602-0.827-4.524-0.938c-0.297-0.016-0.569-0.023-0.819-0.023
		c-3.531,0-6.556,0.931-9.069,2.789c-0.251,0.204-0.375,0.431-0.375,0.68c0,0.221,0.132,0.328,0.398,0.328
		c0.154,0,0.328-0.038,0.516-0.117c2.063-1.107,4.617-1.664,7.663-1.664c0.282,0,0.531,0.01,0.75,0.023
		c0.219,0.017,0.329,0.063,0.329,0.141c0,0.079-0.094,0.196-0.281,0.353C233.435,285.606,232.06,286.747,231.671,287.089
		L231.671,287.089z"/>
	<path fill="#FFFFFF" d="M128.085,31.775c-0.22,0.345-0.328,0.728-0.328,1.148c0,0.358,0.108,0.672,0.328,0.938
		c0.265,0.328,0.586,0.492,0.961,0.492c0.765,0,1.296-0.319,1.594-0.961c2.374-4.703,5.397-11.272,9.07-19.711
		c2.608-0.563,5.116-1.234,7.523-2.016c1.062-0.375,1.594-0.892,1.594-1.547c0-0.359-0.157-0.656-0.469-0.892
		c-0.313-0.266-0.674-0.397-1.078-0.397c-0.548,0-1.359,0.258-2.438,0.772c-1.438,0.656-2.798,1.164-4.078,1.523
		c0.219-0.484,0.46-1.047,0.727-1.688c0.406-0.938,0.625-1.444,0.657-1.522c0.499-1.095,0.912-1.75,1.241-1.97
		c0.391-0.266,0.586-0.633,0.586-1.102c0-0.516-0.516-1.016-1.548-1.5c-1.53-0.734-2.772-1.102-3.726-1.102
		c-1.095,0-1.643,0.288-1.643,0.866c0,0.125,0.125,0.22,0.375,0.281c0.595,0.094,1.203,0.336,1.829,0.728
		c0.577,0.358,0.867,0.758,0.867,1.194c0,0.531-0.079,1.094-0.233,1.688c-0.563,1.78-1.125,3.352-1.688,4.711
		c-2.688,0.563-4.828,0.819-6.422,0.772c-1.518,0-2.798-0.375-3.844-1.125c-0.296-0.184-0.537-0.277-0.725-0.277
		c-0.251,0-0.375,0.125-0.375,0.375c0,0.141,0.063,0.336,0.188,0.586c0.39,0.719,1.008,1.305,1.852,1.758
		c0.938,0.5,1.938,0.75,3,0.75c1.718,0,3.507-0.164,5.366-0.492C134.513,20.354,131.46,26.26,128.085,31.775L128.085,31.775z
		 M154.406,17.666c0,0.094-0.079,0.172-0.234,0.233c-1.798,0.517-3.118,1.22-3.961,2.109c-1.017,1.063-1.524,2.563-1.524,4.5
		c0,0.531,0.26,3.094,0.774,7.688c-0.984-0.219-2.384-0.327-4.195-0.327c-1.78,0-3.32,0.391-4.616,1.172
		c-1.596,0.969-2.392,2.258-2.392,3.867c0,1.172,0.499,2.172,1.5,3c1.219,1.03,2.913,1.547,5.086,1.547
		c2.672,0,4.594-0.609,5.767-1.828c0.938-1.017,1.46-2.469,1.568-4.359c1.971,0.767,4.243,2.156,6.82,4.172
		c0.406,0.313,0.828,0.492,1.267,0.539c0.952,0,1.431-0.461,1.431-1.383c0-0.656-0.274-1.219-0.821-1.688
		c-1.531-1.392-4.492-2.781-8.883-4.173c-0.078-0.452-0.21-1.116-0.397-1.991c-0.251-1.156-0.431-2.017-0.54-2.578
		c-0.358-1.953-0.538-3.57-0.538-4.853c0-1.155,0.398-2.141,1.195-2.953c0.905-0.905,2.038-1.358,3.398-1.358
		c1.374,0,2.687,0.617,3.938,1.852c0.516,0.517,1.046,0.773,1.594,0.773c0.328,0,0.608-0.109,0.845-0.328
		c0.233-0.25,0.352-0.539,0.352-0.867c0-0.922-0.673-1.836-2.016-2.742c-0.938-0.625-2.134-1.141-3.586-1.547
		c-1.595-0.438-3.164-0.656-4.711-0.656c-1.485,0-2.846,0.181-4.078,0.539c-0.454,0.125-0.681,0.359-0.681,0.703
		c0,0.267,0.202,0.398,0.608,0.398c0.016,0,0.055,0,0.117,0c0.828-0.142,1.672-0.211,2.532-0.211c1.671,0,3.062,0.194,4.172,0.586
		C154.335,17.549,154.406,17.604,154.406,17.666L154.406,17.666z M148.335,38.104c-0.845,0.797-2.173,1.195-3.984,1.195
		c-1.392,0-2.492-0.219-3.305-0.656c-0.876-0.469-1.313-1.108-1.313-1.922c0-0.891,0.476-1.609,1.43-2.156
		c1.046-0.578,2.429-0.867,4.146-0.867c1.563,0,3.009,0.234,4.338,0.703C149.584,36.135,149.147,37.369,148.335,38.104
		L148.335,38.104z"/>
	<path fill="#FFFFFF" d="M133.615,78.35c0.438-0.765,1.891-3.367,4.359-7.805c1.719-3.078,3.202-5.57,4.452-7.478
		c0.406-0.563,0.704-0.929,0.893-1.102c0.188-0.172,0.469-0.296,0.844-0.375c0.577-0.125,0.867-0.478,0.867-1.055
		c0-0.828-0.596-1.835-1.782-3.023c-1.156-1.219-2.305-1.828-3.445-1.828c-0.796,0-1.193,0.18-1.193,0.539
		c0,0.156,0.124,0.297,0.375,0.422c1.249,0.642,1.875,1.438,1.875,2.392c0,0.5-0.196,1.219-0.586,2.155
		c-1.125,2.47-2.751,5.75-4.875,9.845c-1.063,2.016-2.484,4.672-4.267,7.969c-2.923,5.406-4.594,8.493-5.017,9.258
		c-0.25,0.516-0.375,0.961-0.375,1.336c0,1.031,0.517,1.547,1.548,1.547c0.671,0,1.132-0.305,1.383-0.914
		c2.016-4.766,3.694-8.063,5.039-9.891c1.608-2.078,3.53-3.117,5.766-3.117c1.202,0,2.063,0.516,2.577,1.547
		c0.518,1,0.853,2.931,1.009,5.789c0.142,2.547,0.641,4.415,1.5,5.603c0.952,1.328,2.538,1.991,4.759,1.991
		c3.968,0,7.405-2.047,10.313-6.141c1.828-2.546,3.155-5.891,3.983-10.031c0.063-0.375,0.095-0.625,0.095-0.75
		c0-0.39-0.181-0.586-0.539-0.586c-0.267,0-0.469,0.228-0.609,0.681c-1.188,3.875-2.836,7.086-4.945,9.633
		c-1.077,1.281-2.343,2.319-3.796,3.117c-1.563,0.858-3.032,1.289-4.406,1.289c-1.266,0-2.212-0.431-2.836-1.289
		c-0.642-0.923-1.024-2.509-1.149-4.759c-0.125-2.108-0.585-3.797-1.382-5.063c-1.001-1.609-2.461-2.414-4.383-2.414
		c-2.329,0-4.298,0.852-5.906,2.555L133.615,78.35z"/>
	<path fill="#FFFFFF" d="M158.132,108.404c0,0.234,0.063,0.398,0.188,0.492c1.78,1.078,3.094,2.359,3.938,3.844
		c0.53,0.859,1.063,1.289,1.594,1.289c0.266,0,0.499-0.102,0.702-0.305c0.267-0.25,0.399-0.578,0.399-0.984
		c0-1.046-0.72-2.069-2.156-3.069c-1.095-0.75-2.234-1.281-3.423-1.594c-0.327-0.095-0.585-0.142-0.772-0.142
		C158.287,107.936,158.132,108.092,158.132,108.404L158.132,108.404z M154.052,111.428c0,0.188,0.096,0.352,0.282,0.492
		c1.641,1.204,2.827,2.5,3.563,3.891c0.546,1.047,1.077,1.57,1.593,1.57c0.798,0,1.194-0.46,1.194-1.383
		c0-0.97-0.688-2.007-2.063-3.117c-0.922-0.765-2.108-1.406-3.563-1.922c-0.093-0.031-0.25-0.047-0.468-0.047
		C154.233,110.912,154.052,111.084,154.052,111.428L154.052,111.428z M141.538,114.756c0.375-0.844,0.71-1.392,1.008-1.642
		c0.452-0.327,0.68-0.772,0.68-1.336c0-0.5-0.273-0.961-0.819-1.383c-0.517-0.422-1.188-0.797-2.017-1.125
		c-0.859-0.343-1.531-0.516-2.017-0.516c-0.327,0-0.758,0.079-1.288,0.233c-0.454,0.203-0.68,0.414-0.68,0.634
		c0,0.203,0.271,0.359,0.819,0.469c1.53,0.328,2.298,1.047,2.298,2.156c0,0.547-0.157,1.383-0.471,2.508
		c-0.344,1.266-0.796,2.688-1.357,4.266c-2.672,0.829-4.846,1.242-6.518,1.242c-1.64,0-3.008-0.367-4.101-1.102
		c-0.454-0.281-0.75-0.423-0.893-0.423c-0.358,0-0.537,0.173-0.537,0.517c0,0.547,0.46,1.141,1.383,1.781
		c1.202,0.891,2.757,1.336,4.664,1.336c1.374,0,3.085-0.234,5.133-0.703c-2.845,7.891-5.915,15.086-9.212,21.586
		c-0.156,0.375-0.233,0.695-0.233,0.961c0,0.407,0.108,0.766,0.328,1.078c0.265,0.313,0.633,0.469,1.101,0.469
		c0.673,0,1.188-0.398,1.549-1.195c1.765-4.078,4.726-11.921,8.882-23.53c2.733-0.734,5.352-1.563,7.853-2.484
		c1.125-0.437,1.688-0.984,1.688-1.641c0-0.359-0.149-0.648-0.445-0.867c-0.282-0.219-0.626-0.328-1.032-0.328
		c-0.453,0-1.227,0.258-2.318,0.772c-1.563,0.735-3.182,1.368-4.853,1.898C140.912,116.311,141.381,115.1,141.538,114.756
		L141.538,114.756z M144.327,135.311c0-0.266-0.11-0.397-0.329-0.397c-0.327,0-0.617,0.29-0.866,0.866
		c-0.579,1.267-0.867,2.453-0.867,3.563c0,0.906,0.249,1.797,0.75,2.672c0.546,0.984,1.305,1.773,2.273,2.367
		c1.937,1.188,4.896,1.781,8.883,1.781c1.952,0,3.694-0.109,5.228-0.328c0.765-0.109,1.296-0.273,1.593-0.492
		c0.313-0.219,0.47-0.57,0.47-1.055c0-0.642-0.321-1.094-0.962-1.359c-0.484-0.188-0.977-0.281-1.476-0.281
		c-0.596,0-1.251,0.095-1.971,0.281c-1.344,0.328-2.813,0.492-4.404,0.492c-2.985,0-5.118-0.336-6.399-1.008
		c-1.625-0.845-2.438-2.156-2.438-3.938c0-0.858,0.102-1.641,0.305-2.344C144.257,135.631,144.327,135.357,144.327,135.311
		L144.327,135.311z M149.177,129.006c-0.297,0.297-0.443,0.508-0.443,0.633c0,0.25,0.107,0.375,0.326,0.375
		c0.235,0,0.492-0.078,0.774-0.234c2.64-1.796,4.257-2.819,4.851-3.069c0.625-0.296,1.174-0.445,1.643-0.445
		c0.077,0,0.155,0,0.232,0c0.282,0,0.712,0.103,1.29,0.305c0.423,0.156,0.772,0.234,1.056,0.234
		c0.718,0.063,1.102-0.273,1.146-1.008c0.048-0.734-0.396-1.32-1.335-1.758c-1.109-0.531-2.618-0.853-4.522-0.961
		c-0.298-0.016-0.571-0.023-0.821-0.023c-3.515,0-6.538,0.93-9.07,2.789c-0.25,0.203-0.375,0.43-0.375,0.68
		c0,0.22,0.134,0.328,0.399,0.328c0.155,0,0.328-0.031,0.516-0.094c2.063-1.125,4.617-1.688,7.664-1.688
		c0.281,0,0.53,0.009,0.75,0.023c0.218,0.016,0.328,0.063,0.328,0.141c0,0.079-0.095,0.203-0.282,0.375
		C150.944,127.529,149.569,128.663,149.177,129.006L149.177,129.006z"/>
	<path fill="#FFFFFF" d="M162.139,178.815c-2.063-2.608-4.556-4.516-7.477-5.719c-0.188-0.094-0.415-0.141-0.68-0.141
		c-0.281,0-0.424,0.172-0.424,0.516c0,0.219,0.096,0.398,0.282,0.539c1.938,1.219,3.593,2.656,4.968,4.313
		c1.517,1.828,2.274,3.384,2.274,4.664c0,0.345-0.228,0.578-0.68,0.703c-1.096,0.328-2.979,0.75-5.648,1.267
		c-0.359,0.079-0.539,0.267-0.539,0.563c0,0.392,0.188,0.586,0.563,0.586c0.029,0,0.069,0,0.117,0
		c1.827-0.125,3.687-0.188,5.577-0.188c0.672,0,1.195,0.125,1.57,0.375c0.358,0.219,0.78,0.328,1.265,0.328
		c0.953,0,1.431-0.609,1.431-1.828C164.74,182.995,163.873,181.003,162.139,178.815L162.139,178.815z M143.132,168.292
		c0.405-0.859,0.804-1.392,1.195-1.595c0.452-0.202,0.68-0.522,0.68-0.961c0-0.844-0.571-1.616-1.711-2.319
		c-1.188-0.72-2.344-1.078-3.469-1.078c-0.86,0-1.47,0.125-1.829,0.375c-0.25,0.172-0.375,0.336-0.375,0.492
		c0,0.233,0.18,0.375,0.54,0.422c0.75,0.047,1.421,0.233,2.015,0.563c0.688,0.392,1.032,0.829,1.032,1.313
		c0,0.547-0.126,1.204-0.375,1.969c-0.626,1.922-1.359,3.82-2.203,5.695c-0.563,0.172-2.483,0.703-5.767,1.594
		c-1.452,0.422-2.577,0.633-3.375,0.633c-0.938,0-1.719-0.547-2.343-1.641c-0.188-0.328-0.328-0.492-0.423-0.492
		c-0.359,0-0.54,0.367-0.54,1.102c0.049,1,0.642,2.048,1.782,3.142c0.655,0.608,1.327,0.914,2.017,0.914
		c0.312,0,0.646-0.125,1.007-0.375c0.5-0.328,1.108-0.617,1.829-0.867c2.107-0.844,3.74-1.453,4.897-1.828
		c-2.642,5.625-6.392,12.21-11.25,19.757c-0.282,0.422-0.422,0.845-0.422,1.267c0,0.797,0.46,1.194,1.382,1.194
		c0.595,0,1.032-0.258,1.313-0.772c3.813-6.453,7.647-13.828,11.508-22.125c1.484-0.531,2.75-0.797,3.798-0.797
		c1.891,0,2.836,1.438,2.836,4.313c0,2.547-0.445,5.359-1.336,8.438c-1.048,3.375-2.203,5.758-3.469,7.147
		c-0.518,0.517-1.11,0.773-1.781,0.773c-0.516,0-0.931-0.078-1.243-0.234c-1.077-0.547-2.422-1.396-4.029-2.555
		c-0.221-0.155-0.385-0.234-0.492-0.234c-0.282,0-0.422,0.156-0.422,0.469c0,0.174,0.062,0.32,0.188,0.445
		c1.343,1.267,2.241,2.195,2.694,2.789c0.375,0.453,0.617,0.914,0.728,1.383c0.219,0.938,0.788,1.406,1.71,1.406
		c1.375,0,2.703-0.641,3.985-1.922c1.594-1.438,2.906-3.711,3.938-6.82c0.482-1.344,0.913-2.961,1.288-4.852
		c0.422-2.142,0.634-3.914,0.634-5.32c0-4.515-1.664-6.772-4.992-6.772c-0.86,0-1.884,0.108-3.07,0.327
		C141.474,172.073,142.115,170.62,143.132,168.292L143.132,168.292z"/>
	<path fill="#FFFFFF" d="M62.116,14.297h2.647c1.141,6.953,3.202,12.617,6.188,16.992c2.344,3.375,5.077,6.18,8.203,8.414
		c0.779,0.546,1.313,0.819,1.594,0.819c0.249,0,0.476-0.227,0.68-0.68c0.281-0.672,0.546-1.148,0.797-1.43
		c0.249-0.297,0.624-0.523,1.125-0.681c0.219-0.078,0.328-0.194,0.328-0.352c0-0.094-0.047-0.156-0.141-0.188
		c-3.876-1.438-7.306-3.836-10.289-7.194c-1.235-1.345-2.337-2.836-3.305-4.478c2.483-1.375,5.14-3.289,7.969-5.742
		c0.124,0,0.305,0,0.539,0c0.952,0,1.43-0.211,1.43-0.633c0-0.547-1.219-1.492-3.656-2.836c-0.359,0.859-0.931,1.805-1.711,2.836
		c-1.423,1.892-3.116,3.734-5.086,5.531c-1.609-3-2.781-6.461-3.516-10.383h11.859c0.451,0,0.68-0.142,0.68-0.422
		c0-0.313-0.368-0.759-1.103-1.336c-1.531-1.22-2.413-1.828-2.647-1.828c-0.268,0-1.087,0.797-2.461,2.391H50.796
		c-1.329,0-2.595-0.109-3.797-0.328l0.492,1.806c1.031-0.188,2.133-0.281,3.305-0.281h7.336c-3.813,3.858-9.141,6.977-15.983,9.352
		c-0.095,0.031-0.142,0.103-0.142,0.211c0,0.345,0.124,0.5,0.375,0.47C48.49,22.969,53.435,21,57.218,18.422
		c0.845,0.891,1.57,1.82,2.181,2.789c-4.908,4.219-10.814,7.578-17.721,10.078c-0.094,0.03-0.141,0.108-0.141,0.233
		c0,0.297,0.108,0.431,0.328,0.398c7.187-1.5,13.491-4.234,18.914-8.203c0.546,1.344,0.961,2.555,1.242,3.633
		c-5.656,5.204-12.664,9.235-21.022,12.094c-0.094,0.031-0.141,0.117-0.141,0.259c0,0.313,0.107,0.452,0.327,0.422
		c8.702-1.906,15.845-5.109,21.423-9.609c0.124,0.984,0.188,2.109,0.188,3.375c0,2.469-0.196,4.063-0.586,4.781
		c-0.345,0.641-0.867,0.961-1.57,0.961c-1.063,0-2.938-0.172-5.625-0.516c-0.188-0.031-0.28,0.094-0.28,0.375
		c0,0.172,0.054,0.272,0.164,0.305c1.718,0.453,2.921,0.882,3.608,1.289c0.703,0.406,1.108,0.961,1.219,1.664
		c0.063,0.422,0.266,0.633,0.609,0.633c0.688,0,1.397-0.18,2.133-0.539c0.905-0.454,1.595-1.055,2.063-1.805
		c0.857-1.25,1.289-3.313,1.289-6.188c0-3.078-0.532-5.961-1.595-8.647c-1.328-3.375-3.392-6.156-6.188-8.345
		C59.365,16.891,60.724,15.703,62.116,14.297L62.116,14.297z M46.811,3.727c-0.031-0.157-0.156-0.234-0.375-0.234
		c-0.173,0-0.258,0.063-0.258,0.188c-0.046,2.75-1.204,4.734-3.468,5.953c-0.923,0.516-1.383,1.172-1.383,1.969
		c0,1.125,0.563,1.688,1.688,1.688c1.016,0,1.883-0.478,2.603-1.431c0.857-1.108,1.336-2.616,1.43-4.522h30.961
		c-0.375,1.219-0.859,2.461-1.453,3.727c-0.017,0.031-0.022,0.07-0.022,0.117c0,0.188,0.107,0.281,0.328,0.281
		c0.077,0,0.141-0.023,0.188-0.07c0.905-0.625,1.882-1.406,2.931-2.344c0.451-0.344,1.015-0.517,1.688-0.517
		c1.188,0,1.781-0.258,1.781-0.772c0-0.313-0.337-0.789-1.008-1.43c-1.393-1.313-2.243-1.97-2.556-1.97
		c-0.233,0-0.907,0.595-2.016,1.781h-14.25v-3.61c1.078-0.405,1.617-0.819,1.617-1.241c0-0.25-0.234-0.453-0.703-0.609
		C63.874,0.461,62.498,0.234,60.406,0c0.124,1.233,0.188,2.289,0.188,3.164v2.977h-13.5C47.046,5.344,46.952,4.539,46.811,3.727
		L46.811,3.727z"/>
	<path fill="#FFFFFF" d="M68.186,79.202h-6.633c-0.923,0-2.103-0.095-3.539-0.281l0.47,1.758c0.999-0.188,2.021-0.281,3.069-0.281
		h6.398v0.095c-0.673,3.125-1.938,5.819-3.797,8.086c-2.096,2.53-5.143,4.765-9.142,6.702c-0.063,0.031-0.094,0.102-0.094,0.212
		c0,0.28,0.108,0.422,0.328,0.422c0.015,0,0.038,0,0.07,0c8.218-2.531,13.257-7.172,15.116-13.922
		c0.03-0.095,0.07-0.228,0.117-0.398c0.047-0.188,0.085-0.328,0.117-0.422c0.999,3.733,2.522,6.727,4.57,8.977
		c1.688,1.922,3.482,3.422,5.391,4.5c0.78,0.484,1.374,0.728,1.781,0.728c0.312,0,0.539-0.172,0.68-0.517
		c0.218-0.625,0.445-1.063,0.681-1.313c0.248-0.25,0.68-0.438,1.288-0.563c0.155-0.031,0.234-0.133,0.234-0.305
		c0-0.141-0.063-0.234-0.188-0.281c-3.281-0.858-6.088-2.25-8.414-4.172c-2.329-1.906-4.078-4.516-5.25-7.828h11.319
		c0.438,0,0.656-0.141,0.656-0.422c0-0.266-0.352-0.695-1.055-1.289c-1.438-1.219-2.29-1.828-2.556-1.828
		c-0.22,0-1.008,0.781-2.366,2.345h-6.375c0.28-1.75,0.451-4.406,0.516-7.97h9.656c0.422,0,0.633-0.141,0.633-0.422
		s-0.337-0.68-1.008-1.194c-1.595-1.281-2.461-1.923-2.603-1.923c-0.204,0-0.954,0.781-2.25,2.345H65.491
		c0.624-1.125,1.155-2.164,1.594-3.117c1.125-0.172,1.688-0.478,1.688-0.914c0-0.422-1.354-0.984-4.056-1.688
		c-0.157,1.188-0.516,2.5-1.078,3.938c-1.204,3.172-2.734,5.938-4.594,8.297c-0.032,0.047-0.047,0.094-0.047,0.141
		c0,0.234,0.124,0.353,0.375,0.353c0.062,0,0.108-0.017,0.141-0.047c2.141-1.845,3.874-3.767,5.203-5.767h3.984
		C68.638,74.78,68.468,77.436,68.186,79.202L68.186,79.202z M66.359,56.069c1.14-0.25,1.711-0.569,1.711-0.961
		c0-0.483-1.471-1.078-4.406-1.78c-0.094,1.452-0.462,3.086-1.103,4.897c-1.266,3.844-3,7.234-5.202,10.172
		c-0.032,0.047-0.048,0.095-0.048,0.142c0,0.233,0.124,0.352,0.375,0.352c0.063,0,0.108-0.016,0.142-0.047
		c2.218-1.938,4.055-4.102,5.508-6.492h19.969c0.438,0,0.656-0.141,0.656-0.422c0-0.344-0.368-0.813-1.102-1.406
		c-1.595-1.28-2.501-1.922-2.72-1.922c-0.251,0-1.102,0.853-2.555,2.555H64.061C64.935,59.624,65.702,57.928,66.359,56.069
		L66.359,56.069z M45.945,67.694c-0.126,6.078-0.643,11.203-1.547,15.375c-1.018,4.548-2.673,8.634-4.97,12.259
		c-0.016,0.029-0.022,0.062-0.022,0.093c0,0.203,0.141,0.305,0.422,0.305c0.077,0,0.141-0.022,0.188-0.07
		c2.546-2.734,4.46-5.733,5.742-9c1.5-3.78,2.452-8.727,2.859-14.836h5.133c-0.345,7.672-0.899,13.228-1.664,16.664
		c-0.251,1.203-0.516,2.039-0.797,2.509c-0.281,0.469-0.68,0.702-1.195,0.702c-1.017,0-2.359-0.147-4.03-0.444
		c-0.188-0.031-0.281,0.086-0.281,0.352c0,0.172,0.054,0.281,0.164,0.328c1.14,0.359,1.944,0.703,2.414,1.031
		c0.546,0.375,0.866,0.891,0.961,1.547c0.047,0.422,0.318,0.633,0.819,0.633c0.78,0,1.478-0.211,2.086-0.633
		c0.938-0.703,1.719-2.234,2.345-4.594c0.904-3.547,1.577-9.289,2.016-17.228c0.78-0.483,1.172-0.836,1.172-1.055
		c0-0.267-0.273-0.648-0.819-1.148c-1.033-0.922-1.689-1.383-1.971-1.383c-0.173,0-0.72,0.508-1.641,1.523h-4.664
		c0.062-1.563,0.132-3.978,0.211-7.242h9.445c0.452,0,0.68-0.142,0.68-0.422c0-0.297-0.305-0.728-0.914-1.289
		c-1.266-1.125-2.016-1.688-2.25-1.688c-0.251,0-0.961,0.734-2.133,2.203H50.21v-6.233c1.093-0.517,1.641-0.938,1.641-1.267
		c0-0.266-0.22-0.477-0.655-0.633c-0.626-0.234-1.962-0.469-4.008-0.703c0.123,1.094,0.188,2.406,0.188,3.938v4.897h-3.353
		c-1.251,0-2.454-0.117-3.609-0.352l0.469,1.828c1.296-0.188,2.344-0.281,3.142-0.281h1.922L45.945,67.694L45.945,67.694z"/>
	<path fill="#FFFFFF" d="M63.991,120.194c-0.298,0.142-2.821,1.375-7.57,3.703c-0.673,0.328-1.235,0.492-1.688,0.492
		c-0.079,0-0.157,0-0.234,0c-0.501-0.063-1.031-0.516-1.594-1.359c-0.298-0.422-0.524-0.633-0.681-0.633
		c-0.28,0-0.422,0.306-0.422,0.914c0,0.656,0.366,1.477,1.103,2.461c1.03,1.281,1.976,1.922,2.836,1.922
		c0.53,0,0.976-0.241,1.336-0.727c0.312-0.359,0.812-0.805,1.5-1.336c2.702-1.875,4.828-3.203,6.375-3.984
		c2.357-1.155,4.664-1.734,6.914-1.734c2.156,0,3.867,0.656,5.133,1.969c1.155,1.188,1.734,2.805,1.734,4.852
		c0,2.875-1.649,5.336-4.945,7.384c-2.845,1.733-6.556,2.905-11.133,3.516c-0.485,0.047-0.728,0.25-0.728,0.609
		c0,0.452,0.288,0.68,0.867,0.68c0.546,0,0.977-0.017,1.289-0.047c4.53-0.328,8.405-1.383,11.625-3.164c3.999-2.267,6-5.181,6-8.742
		c0-2.422-0.914-4.469-2.742-6.141c-1.828-1.734-4.212-2.603-7.147-2.603C69.49,118.225,66.881,118.882,63.991,120.194
		L63.991,120.194z"/>
	<path fill="#FFFFFF" d="M78.921,160.2c-0.923,0.827-1.383,1.859-1.383,3.094c0,1.063,0.358,1.992,1.078,2.789
		c0.827,0.922,1.857,1.383,3.094,1.383c1.063,0,1.992-0.359,2.789-1.078c0.921-0.828,1.383-1.859,1.383-3.094
		c0-1.063-0.359-1.992-1.078-2.789c-0.829-0.922-1.859-1.383-3.094-1.383C80.647,159.122,79.718,159.481,78.921,160.2L78.921,160.2z
		 M83.491,161.302c0.608,0.547,0.914,1.211,0.914,1.992c0,0.672-0.234,1.266-0.703,1.781c-0.548,0.608-1.212,0.913-1.992,0.913
		c-0.673,0-1.266-0.233-1.781-0.702c-0.608-0.548-0.914-1.211-0.914-1.992c0-0.671,0.234-1.267,0.703-1.781
		c0.546-0.609,1.21-0.914,1.992-0.914C82.381,160.599,82.975,160.833,83.491,161.302L83.491,161.302z M75.616,165.755
		c0-1.094-1.134-1.642-3.398-1.642c-1.922,0-3.938,0.306-6.047,0.914c-2.517,0.75-4.821,1.836-6.914,3.259
		c-0.484,0.297-0.727,0.569-0.727,0.819c0,0.313,0.141,0.47,0.422,0.47c0.171,0,0.413-0.063,0.727-0.188
		c3.766-1.625,7.523-2.438,11.273-2.438l3.188,0.048C75.124,166.997,75.616,166.583,75.616,165.755L75.616,165.755z M69.57,189.825
		c-0.954-0.188-2.118-0.281-3.492-0.281c-1.875,0-3.438,0.267-4.688,0.797c-1.845,0.782-2.766,2.039-2.766,3.772
		c0,1.156,0.507,2.109,1.523,2.859c1.219,0.906,2.921,1.359,5.108,1.359c1.766,0,3.227-0.359,4.383-1.078
		c1.516-0.969,2.273-2.469,2.273-4.5c2.312,1,4.249,2.281,5.813,3.844c0.547,0.547,1.108,0.82,1.688,0.82
		c0.343,0,0.64-0.108,0.891-0.328c0.296-0.25,0.445-0.586,0.445-1.008c0-0.797-0.415-1.509-1.242-2.134
		c-1.781-1.326-4.313-2.521-7.594-3.586c-0.251-4.483-0.375-7.944-0.375-10.382c2.077-0.483,3.891-1.156,5.438-2.016
		c0.733-0.359,1.103-0.867,1.103-1.523c0-0.608-0.353-0.914-1.055-0.914c-0.268,0-0.688,0.125-1.267,0.375
		c-1.72,0.782-3.126,1.297-4.219,1.547c0-0.875,0.03-1.68,0.094-2.413c0.047-0.423,0.147-0.837,0.305-1.242
		c0.124-0.375,0.188-0.695,0.188-0.961c0-0.438-0.375-0.835-1.125-1.195c-0.782-0.39-1.532-0.586-2.25-0.586
		c-1.219,0-1.828,0.305-1.828,0.914c0,0.25,0.194,0.375,0.586,0.375c0.703,0,1.233,0.18,1.594,0.539
		c0.219,0.219,0.328,0.664,0.328,1.336c0,1.281,0,2.563,0,3.844c-2.267,0.547-4.43,0.82-6.491,0.82
		c-1.734,0-2.603-0.688-2.603-2.063c0-0.765,0.179-1.483,0.539-2.155c0.202-0.328,0.305-0.602,0.305-0.82
		c0-0.188-0.134-0.281-0.397-0.281c-0.188,0-0.36,0.094-0.517,0.281c-0.938,1.125-1.405,2.297-1.405,3.516
		c0,2.422,1.664,3.633,4.991,3.633c1.781,0,3.656-0.188,5.625-0.563C69.537,184.52,69.57,187.653,69.57,189.825L69.57,189.825z
		 M65.046,196.27c-3.298,0-4.945-0.797-4.945-2.391c0-1.734,1.523-2.603,4.57-2.603c1.702,0,3.335,0.234,4.898,0.703
		C69.506,194.84,67.999,196.27,65.046,196.27L65.046,196.27z M52.109,180.989c-0.281,0-0.51,0.196-0.681,0.587
		c-1.048,2.797-2.297,6.21-3.75,10.241c-0.109,0.281-0.233,0.422-0.375,0.422c-0.141,0-0.251-0.125-0.328-0.375
		c-0.327-1.232-0.491-2.819-0.491-4.758c0-1.766,0.218-3.992,0.655-6.679c0.53-3.172,1.18-5.859,1.945-8.063
		c0.499-1.53,0.914-2.616,1.242-3.258c0.218-0.453,0.328-0.922,0.328-1.405c0-0.595-0.274-1.313-0.82-2.156
		c-0.735-1.125-1.47-1.978-2.203-2.556c-0.454-0.344-0.837-0.516-1.147-0.516c-0.454,0-0.681,0.125-0.681,0.375
		c0,0.203,0.108,0.445,0.328,0.728c0.874,1,1.313,2.234,1.313,3.702c0,0.609-0.229,2.031-0.681,4.267
		c-1.47,6.938-2.203,12.171-2.203,15.703c0,4.28,0.43,7.563,1.289,9.844c0.609,1.625,1.336,2.438,2.181,2.438
		c0.797,0,1.194-0.336,1.194-1.008c0-0.125-0.017-0.328-0.047-0.608c-0.063-0.47-0.103-0.767-0.117-0.892
		c-0.031-0.343-0.047-0.805-0.047-1.383c0-0.672,0.211-1.938,0.634-3.797c0.624-2.625,1.537-5.859,2.741-9.703
		c0.063-0.25,0.095-0.468,0.095-0.656C52.484,181.153,52.358,180.989,52.109,180.989L52.109,180.989z"/>
	<path fill="#FFFFFF" d="M70.296,225.703c1.89,1.063,3.577,2.625,5.063,4.688c1.654,2.297,2.483,4.313,2.483,6.047
		c0,0.5-0.243,0.789-0.727,0.867c-0.563,0.078-1.781,0.228-3.656,0.445c-0.485,0.047-0.727,0.188-0.727,0.422
		c0,0.375,0.211,0.586,0.633,0.633c1.421,0.172,2.461,0.375,3.117,0.609c0.687,0.25,1.219,0.633,1.594,1.147
		c0.296,0.422,0.71,0.633,1.242,0.633c1.219,0,1.828-1.055,1.828-3.164c0-2.53-0.892-4.991-2.673-7.383
		c-1.969-2.641-4.522-4.608-7.664-5.905c-0.156-0.078-0.313-0.117-0.469-0.117c-0.359,0-0.539,0.117-0.539,0.352
		C69.803,225.273,69.968,225.515,70.296,225.703L70.296,225.703z M56.327,246.82c0-0.563-0.104-1.063-0.305-1.5
		c-0.126-0.297-0.188-0.664-0.188-1.102c0-0.219,0.164-0.813,0.492-1.781c0.891-2.594,2.156-5.313,3.797-8.156
		c0.188-0.375,0.281-0.655,0.281-0.844c0-0.328-0.182-0.492-0.539-0.492c-0.313,0-0.579,0.181-0.797,0.539
		c-2.188,3.453-3.938,6.359-5.25,8.72c-0.281,0.516-0.604,0.772-0.961,0.772c-0.75,0-1.54-0.867-2.367-2.602
		c-0.86-1.845-1.289-4.578-1.289-8.203c0-2.719,0.179-4.609,0.539-5.672c0.296-0.859,0.444-1.547,0.444-2.063
		c0-1.063-0.75-2.227-2.25-3.492c-1.203-1.03-2.164-1.547-2.883-1.547c-0.454,0-0.68,0.142-0.68,0.422
		c0,0.142,0.146,0.353,0.445,0.634c0.797,0.75,1.343,1.43,1.641,2.038c0.313,0.642,0.469,1.5,0.469,2.578l-0.069,3.938
		c0,3.75,0.258,6.805,0.772,9.164c0.733,3.328,2.093,5.983,4.078,7.969c1.28,1.281,2.358,1.922,3.234,1.922
		C55.865,248.062,56.327,247.648,56.327,246.82L56.327,246.82z"/>
	<path fill="#FFFFFF" d="M61.507,283.061c0.968-0.172,1.453-0.444,1.453-0.819c0-0.406-1.204-0.953-3.609-1.642
		c-0.078,1.109-0.367,2.375-0.866,3.797c-1.235,3.734-3.11,7.203-5.625,10.406c-0.032,0.047-0.047,0.094-0.047,0.141
		c0,0.234,0.132,0.353,0.397,0.353c0.047,0,0.085-0.017,0.117-0.047c1.607-1.359,2.93-2.703,3.961-4.031
		c0.797,0.766,1.327,1.953,1.594,3.563c0.108,0.798,0.445,1.195,1.008,1.195c0.375,0,0.688-0.147,0.938-0.445
		c0.296-0.327,0.445-0.741,0.445-1.241c0-1.672-1.188-2.875-3.563-3.609c0.891-1.266,1.664-2.57,2.32-3.914h4.594
		c-0.923,4.25-2.282,7.844-4.078,10.781c-2.079,3.405-5.173,6.601-9.281,9.586c-0.047,0.03-0.069,0.076-0.069,0.141
		c0,0.281,0.124,0.422,0.375,0.422c0.029,0,0.062-0.009,0.094-0.022c4.046-2.125,7.28-4.681,9.703-7.664
		c2.702-3.344,4.624-7.57,5.766-12.68l0.469-0.234l0.142,0.563c0.357-0.047,0.891-0.108,1.594-0.188v9.094h-0.539
		c-1.031,0-2.196-0.117-3.492-0.352l0.47,1.875c1.219-0.219,2.227-0.328,3.022-0.328h6.375c-0.017,2.563-0.063,5.008-0.141,7.336
		c-0.032,0.75-0.047,1.203-0.047,1.358c0,0.703,0.397,1.056,1.194,1.056c1.125,0,1.688-0.398,1.688-1.195l-0.094-8.555h6.233
		c0.422,0,0.633-0.141,0.633-0.422c0-0.297-0.258-0.688-0.772-1.172c-1.157-1.047-1.875-1.57-2.156-1.57
		c-0.251,0-0.876,0.656-1.875,1.969h-2.112v-9.094h5.625c0.405,0,0.609-0.156,0.609-0.469c0-0.267-0.243-0.617-0.727-1.056
		c-1.096-1-1.768-1.5-2.017-1.5c-0.233,0-0.819,0.609-1.758,1.828h-1.733v-3.211c0.827-0.344,1.242-0.68,1.242-1.008
		c0-0.234-0.204-0.422-0.608-0.563c-0.517-0.173-1.626-0.353-3.328-0.539c0.124,1.063,0.188,2.836,0.188,5.319H70.11
		c-0.845,0-1.453-0.03-1.828-0.094c-0.094-0.188-0.353-0.492-0.773-0.914c-0.734-0.703-1.228-1.055-1.477-1.055
		c-0.234,0-0.75,0.444-1.547,1.336h-3.938C60.998,284.467,61.32,283.639,61.507,283.061L61.507,283.061z M75.218,287.467v3.258
		c0,2.767-0.017,4.711-0.047,5.836h-3.446v-9.094H75.218z M56.936,275.889c-0.017-0.141-0.103-0.211-0.258-0.211
		c-0.156,0-0.251,0.07-0.28,0.211c-0.221,2.141-1.001,3.695-2.345,4.664c-0.516,0.375-0.853,0.656-1.008,0.844
		c-0.22,0.25-0.328,0.578-0.328,0.984c0,1,0.492,1.5,1.478,1.5c0.765,0,1.413-0.359,1.944-1.078
		c0.641-0.875,0.984-2.133,1.031-3.773h23.297c-0.359,1.188-0.79,2.281-1.289,3.281c-0.017,0.031-0.022,0.063-0.022,0.094
		c0,0.156,0.085,0.234,0.258,0.234c0.047,0,0.094-0.016,0.141-0.047c0.624-0.422,1.469-1.078,2.531-1.969
		c0.624-0.547,1.172-0.82,1.641-0.82c0.827,0,1.242-0.227,1.242-0.68c0-0.345-0.258-0.773-0.772-1.289
		c-1.204-1.094-1.922-1.642-2.156-1.642c-0.204,0-0.797,0.548-1.781,1.642h-5.694c1.624-1.734,3.141-3.656,4.547-5.767
		c1.154,0,1.733-0.241,1.733-0.727c0-0.438-1.313-1.188-3.938-2.25c-0.142,0.75-0.524,1.898-1.148,3.445
		c-0.923,2.266-1.743,4.03-2.461,5.297H57.171C57.108,276.959,57.031,276.311,56.936,275.889L56.936,275.889z M49.553,300.592v1.711
		c0,0.641,0.353,0.961,1.056,0.961c1.187,0,1.78-0.398,1.78-1.195l-0.188-21.491v-11.039c0.797-0.531,1.195-0.953,1.195-1.267
		c0-0.233-0.29-0.586-0.867-1.055c-0.876-0.734-1.423-1.102-1.642-1.102c-0.22,0-0.742,0.469-1.569,1.405h-4.241
		c-1.11-0.625-2.165-1.141-3.164-1.547c0.124,1.563,0.188,7.117,0.188,16.664l-0.188,21.305c0,0.609,0.397,0.914,1.195,0.914
		c1.093,0,1.641-0.367,1.641-1.102v-3.164L49.553,300.592L49.553,300.592z M44.749,277.788v-9.07h4.805v9.07H44.749z
		 M49.553,278.983v9.117h-4.804v-9.117H49.553z M49.553,289.295v10.102h-4.804v-10.102H49.553z M67.695,275.467
		c0.124,1.031,0.521,1.547,1.194,1.547c0.422,0,0.78-0.141,1.078-0.422c0.343-0.313,0.517-0.727,0.517-1.242
		c0-0.766-0.313-1.547-0.938-2.344c-0.782-0.984-1.868-1.797-3.258-2.438c-0.032-0.016-0.07-0.022-0.117-0.022
		c-0.204,0-0.305,0.078-0.305,0.233c0,0.031,0.015,0.063,0.047,0.095C66.881,272.108,67.474,273.639,67.695,275.467L67.695,275.467z
		 M60.195,275.819c0.141,0.984,0.593,1.478,1.358,1.478c0.358,0,0.663-0.142,0.914-0.422c0.313-0.328,0.469-0.742,0.469-1.242
		c0-0.75-0.352-1.523-1.055-2.32c-0.829-0.953-1.907-1.68-3.233-2.18c-0.032-0.016-0.07-0.023-0.117-0.023
		c-0.204,0-0.306,0.078-0.306,0.234c0,0.047,0.016,0.078,0.048,0.094C59.287,272.717,59.927,274.178,60.195,275.819L60.195,275.819z
		 M66.991,269.631c3.812-0.578,7.693-1.539,11.647-2.883c0.75,0.188,1.289,0.28,1.617,0.28c0.391,0,0.586-0.163,0.586-0.491
		c0-0.25-0.978-1.172-2.93-2.767c-0.907,0.642-2.431,1.328-4.57,2.063c-5.829,2.047-11.766,3.391-17.813,4.031
		c-0.126,0.03-0.188,0.141-0.188,0.327c0,0.234,0.077,0.353,0.234,0.353C59.905,270.436,63.71,270.131,66.991,269.631
		L66.991,269.631z"/>
	<path fill="#FFFFFF" d="M67.882,354.289c0,0.625,0.398,0.938,1.195,0.938c1.155,0,1.733-0.414,1.733-1.242l-0.141-9.772v-3.798
		c0.797-0.469,1.195-0.852,1.195-1.147s-0.274-0.664-0.82-1.103c-0.97-0.827-1.579-1.241-1.828-1.241
		c-0.188,0-0.743,0.491-1.664,1.477H56.609c-1.329-0.719-2.446-1.266-3.353-1.641c0.155,1.608,0.234,4.483,0.234,8.625l-0.142,9.516
		c0,0.672,0.413,1.008,1.242,1.008c1.125,0,1.688-0.414,1.688-1.242v-1.875h11.602L67.882,354.289L67.882,354.289z M56.281,351.594
		v-5.719h11.602v5.719H56.281z M56.281,344.68v-5.086h11.602v5.086H56.281z M56.468,333.289c0,0.609,0.382,0.914,1.148,0.914
		c1.187,0,1.781-0.366,1.781-1.102l-0.142-8.742v-3.445c0.827-0.53,1.242-0.952,1.242-1.266c0-0.25-0.258-0.602-0.773-1.055
		c-1.001-0.859-1.641-1.289-1.922-1.289c-0.233,0-0.819,0.531-1.758,1.594H46.038c-1.063-0.688-2.228-1.25-3.492-1.688
		c0.188,2.547,0.281,8.688,0.281,18.422l-0.234,23.719c0,0.766,0.413,1.148,1.242,1.148c1.28,0,1.922-0.445,1.922-1.337
		l-0.047-19.969v-6.656h10.758V333.289z M45.71,331.344v-5.203h10.758v5.203H45.71z M45.71,324.946v-4.852h10.758v4.852H45.71z
		 M79.061,355.906c0,0.517-0.273,0.773-0.819,0.773c-0.984,0-2.742-0.094-5.273-0.281c-0.157,0-0.233,0.117-0.233,0.353
		c0,0.188,0.062,0.297,0.188,0.327c1.608,0.298,2.749,0.634,3.422,1.009c0.671,0.391,1.056,0.944,1.148,1.664
		c0.03,0.422,0.249,0.633,0.656,0.633c0.921,0,1.758-0.258,2.508-0.773c0.983-0.688,1.477-1.594,1.477-2.719l-0.188-23.25v-12.633
		c0.857-0.5,1.289-0.914,1.289-1.242c0-0.266-0.274-0.641-0.82-1.125c-1.063-0.859-1.72-1.289-1.969-1.289
		c-0.188,0-0.773,0.516-1.758,1.547H68.35c-1.345-0.781-2.478-1.344-3.397-1.688c0.155,1.672,0.233,4.022,0.233,7.055l-0.141,8.93
		c0,0.672,0.398,1.008,1.195,1.008c1.125,0,1.688-0.383,1.688-1.147v-0.517h11.133V355.906z M67.928,331.344v-5.203h11.133v5.203
		H67.928z M67.928,324.946v-4.852h11.133v4.852H67.928z"/>
</g>
</svg>
