<?xml version="1.0" encoding="utf-8"?>
<!-- Generator: Adobe Illustrator 14.0.0, SVG Export Plug-In . SVG Version: 6.00 Build 43363)  -->
<!DOCTYPE svg PUBLIC "-//W3C//DTD SVG 1.1 Basic//EN" "http://www.w3.org/Graphics/SVG/1.1/DTD/svg11-basic.dtd">
<svg version="1.1" baseProfile="basic" id="レイヤー_1"
	 xmlns="http://www.w3.org/2000/svg" xmlns:xlink="http://www.w3.org/1999/xlink" x="0px" y="0px" width="289.265px"
	 height="305.185px" viewBox="0 0 289.265 305.185" xml:space="preserve">
<g>
	<path fill="#0D4482" d="M282.445,0.492c0,0.22,0.063,0.375,0.188,0.469c1.781,1.079,3.094,2.36,3.938,3.844
		c0.531,0.86,1.063,1.289,1.594,1.289c0.266,0,0.5-0.101,0.703-0.304c0.266-0.25,0.398-0.578,0.398-0.985
		c0-1.046-0.719-2.069-2.156-3.07c-1.094-0.75-2.234-1.28-3.422-1.594C283.359,0.047,283.101,0,282.914,0
		C282.601,0,282.445,0.165,282.445,0.492L282.445,0.492z M277.921,3.094c0,0.173,0.094,0.328,0.281,0.469
		c1.656,1.204,2.844,2.493,3.563,3.867c0.547,1.063,1.078,1.594,1.594,1.594c0.797,0,1.195-0.46,1.195-1.383
		c0-0.968-0.688-2.007-2.063-3.117c-0.922-0.765-2.109-1.406-3.563-1.921c-0.094-0.031-0.25-0.048-0.469-0.048
		C278.101,2.555,277.921,2.735,277.921,3.094L277.921,3.094z M278.507,14.625c1.766,0,3.703,0.181,5.813,0.54
		c1.422,0.25,2.336,0.375,2.742,0.375c0.859,0,1.289-0.367,1.289-1.103c0-0.563-0.398-1.093-1.195-1.594
		c-1.328-0.733-2.453-1.102-3.375-1.102c-0.438,0-0.883,0.134-1.336,0.398c-0.469,0.251-1.367,0.375-2.695,0.375
		c-3.359,0.126-6.125,0.305-8.297,0.539c0-0.905,0.031-2.093,0.094-3.563c0.047-0.733,0.242-1.313,0.586-1.734
		c0.25-0.343,0.375-0.757,0.375-1.242c0-0.499-0.508-1.078-1.523-1.734c-1.109-0.733-1.992-1.102-2.648-1.102
		c-0.938,0-1.711,0.228-2.32,0.68c-0.281,0.22-0.422,0.438-0.422,0.656c0,0.267,0.156,0.399,0.469,0.399
		c1.344-0.048,2.227,0.32,2.648,1.101c0.188,0.345,0.281,1.078,0.281,2.203c0.063,2.048,0.094,3.571,0.094,4.571
		c-5.516,0.672-10.313,1.375-14.391,2.108c-1.094,0.188-1.906,0.281-2.438,0.281c-1.25,0-2.438-0.546-3.563-1.64
		c-0.25-0.25-0.43-0.375-0.539-0.375c-0.281,0-0.422,0.242-0.422,0.726c0,0.876,0.609,1.868,1.828,2.977
		c1.078,0.954,2.086,1.43,3.023,1.43c0.406,0,0.805-0.141,1.195-0.422c0.594-0.437,1.75-0.835,3.469-1.195
		c4.078-0.968,8.039-1.655,11.883-2.063l0.164,6.469c-0.766-0.671-1.922-1.008-3.469-1.008c-1.328,0.017-2.477,0.524-3.445,1.524
		c-1.125,1.171-1.688,2.647-1.688,4.429c0,1.704,0.484,3.056,1.453,4.055c0.953,0.984,2.148,1.477,3.586,1.477
		c1.547,0,2.766-0.469,3.656-1.406c-0.563,2.563-1.953,4.868-4.172,6.914c-2.109,1.938-4.82,3.539-8.133,4.805
		c-0.313,0.125-0.469,0.336-0.469,0.633c0,0.344,0.211,0.516,0.633,0.516c0.047,0,0.492-0.109,1.336-0.328
		c3.734-1.125,6.727-2.718,8.977-4.78c3-2.734,4.5-6.133,4.5-10.196c0-1.577-0.234-3.07-0.703-4.477c0-0.624,0-1.554,0-2.789
		c0-1.577,0.016-3.586,0.047-6.023C273.718,14.728,276.085,14.625,278.507,14.625L278.507,14.625z M268.289,23.063
		c0.688,0.782,1.047,1.798,1.078,3.047c-0.047,1.095-0.367,1.962-0.961,2.602c-0.625,0.673-1.438,1.008-2.438,1.008
		c-0.859,0-1.602-0.249-2.227-0.75c-0.813-0.624-1.219-1.5-1.219-2.625c0-1.313,0.273-2.358,0.82-3.141
		c0.594-0.827,1.391-1.242,2.391-1.242C266.781,21.961,267.632,22.329,268.289,23.063L268.289,23.063z"/>
	<path fill="#0D4482" d="M269.46,68.356c-0.297,0.141-2.82,1.375-7.57,3.703c-0.672,0.328-1.234,0.492-1.688,0.492
		c-0.078,0-0.156,0-0.234,0c-0.5-0.063-1.031-0.516-1.594-1.359c-0.297-0.422-0.523-0.633-0.68-0.633
		c-0.281,0-0.422,0.305-0.422,0.914c0,0.656,0.367,1.477,1.102,2.461c1.031,1.281,1.977,1.922,2.836,1.922
		c0.531,0,0.977-0.242,1.336-0.727c0.313-0.359,0.813-0.805,1.5-1.336c2.703-1.875,4.828-3.203,6.375-3.984
		c2.359-1.156,4.664-1.734,6.914-1.734c2.156,0,3.867,0.656,5.133,1.969c1.156,1.188,1.734,2.805,1.734,4.852
		c0,2.875-1.648,5.336-4.945,7.383c-2.844,1.734-6.555,2.906-11.133,3.516c-0.484,0.047-0.727,0.25-0.727,0.609
		c0,0.453,0.289,0.68,0.867,0.68c0.547,0,0.977-0.016,1.289-0.047c4.531-0.328,8.406-1.383,11.625-3.164c4-2.266,6-5.18,6-8.742
		c0-2.422-0.914-4.469-2.742-6.141c-1.828-1.734-4.211-2.602-7.148-2.602C274.96,66.388,272.351,67.044,269.46,68.356L269.46,68.356
		z"/>
	<path fill="#0D4482" d="M255.515,138.577c0,2.719,1.211,4.688,3.633,5.906c2.141,1.063,5.414,1.594,9.82,1.594
		c3.563,0,6.422-0.164,8.578-0.492c0.984-0.125,1.664-0.289,2.039-0.492c0.438-0.219,0.656-0.586,0.656-1.102
		s-0.289-0.961-0.867-1.336c-0.625-0.422-1.344-0.633-2.156-0.633c-0.438,0-0.969,0.102-1.594,0.305
		c-2.188,0.672-5.227,1.008-9.117,1.008c-6.016,0-9.023-1.695-9.023-5.086c0-1.797,0.859-3.461,2.578-4.992
		c1.344-1.188,3.813-2.68,7.406-4.477c1.797-0.891,5.102-2.203,9.914-3.938c1-0.359,1.5-0.805,1.5-1.336
		c0-0.547-0.43-1.281-1.289-2.203c-1.281-1.281-2.508-1.922-3.68-1.922c-0.578,0-0.867,0.141-0.867,0.422
		c0,0.219,0.125,0.414,0.375,0.586c0.984,0.672,1.477,1.234,1.477,1.688c0,0.297-0.336,0.641-1.008,1.031
		c-1.906,1.109-3.945,2.18-6.117,3.211c-0.453,0.203-0.836,0.305-1.148,0.305c-0.047,0-0.094,0-0.141,0
		c-0.672-0.047-1.07-0.672-1.195-1.875c-0.172-2.156-0.258-4.281-0.258-6.375c0-1.094,0.016-2.219,0.047-3.375
		c0-0.406,0.109-0.773,0.328-1.102c0.344-0.453,0.516-0.82,0.516-1.102c0-0.516-0.32-1.039-0.961-1.57
		c-1.328-1.094-2.57-1.641-3.727-1.641c-0.422,0-0.844,0.102-1.266,0.305c-0.5,0.25-0.75,0.516-0.75,0.797
		c0,0.219,0.078,0.328,0.234,0.328c0.781,0.047,1.5,0.32,2.156,0.82c0.406,0.281,0.633,0.891,0.68,1.828
		c0.156,4.297,0.328,7.625,0.516,9.984c0.188,2.188,0.891,3.594,2.109,4.219C258.648,131.069,255.515,134.64,255.515,138.577
		L255.515,138.577z"/>
	<path fill="#0D4482" d="M198.453,32.269c0,0.735,0.414,1.102,1.242,1.102c1.281,0,1.922-0.444,1.922-1.336l-0.188-6.586v-2.835
		c0.828-0.578,1.242-1.009,1.242-1.29c0-0.296-0.273-0.68-0.82-1.147c-1-0.845-1.656-1.267-1.969-1.267
		c-0.219,0-0.805,0.532-1.758,1.594h-23.953c-1.469-0.874-2.734-1.507-3.797-1.898c0.156,1.641,0.234,3.954,0.234,6.938
		c0,4.594-0.383,8.071-1.148,10.43c-1.016,3.126-2.789,5.938-5.32,8.438c-0.031,0.031-0.047,0.07-0.047,0.117
		c0,0.266,0.141,0.399,0.422,0.399c0.031,0,0.07-0.009,0.117-0.024c3.406-2.313,5.836-5.038,7.289-8.18
		c0.781-1.702,1.289-3.765,1.523-6.188h25.008V32.269z M187.32,29.339v-7.641h11.133v7.641H187.32z M173.679,25.003v-3.305h10.711
		v7.641h-10.852C173.632,28.043,173.679,26.597,173.679,25.003L173.679,25.003z M172.343,14.503c-1.141,0-2.406-0.108-3.797-0.327
		l0.492,1.804c1.297-0.188,2.414-0.281,3.352-0.281h31.102c0.422,0,0.633-0.155,0.633-0.469c0-0.343-0.367-0.812-1.102-1.406
		c-1.484-1.219-2.398-1.828-2.742-1.828c-0.266,0-1.094,0.837-2.484,2.508h-10.617V8.831h19.523c0.422,0,0.633-0.141,0.633-0.422
		c0-0.296-0.383-0.765-1.148-1.406c-1.594-1.313-2.539-1.969-2.836-1.969c-0.234,0-1.094,0.867-2.578,2.602h-13.594v-3.82
		c1.094-0.437,1.641-0.867,1.641-1.289c0-0.265-0.234-0.476-0.703-0.633c-0.641-0.234-2.023-0.468-4.148-0.703
		c0.156,1.594,0.234,3.407,0.234,5.438v1.008h-15.117c-1.328,0-2.625-0.094-3.891-0.281l0.422,1.759
		c1.344-0.188,2.531-0.282,3.563-0.282h15.023v5.672H172.343z"/>
	<path fill="#0D4482" d="M176.421,72.228c-1.359,1.953-2.977,3.891-4.852,5.813c-0.922,0.969-1.383,1.758-1.383,2.367
		c0,0.391,0.117,0.727,0.352,1.008c0.266,0.313,0.578,0.469,0.938,0.469c0.484,0,0.891-0.242,1.219-0.727
		c1.453-2.047,2.891-3.766,4.313-5.156c2.234-2.109,4.273-3.164,6.117-3.164c0.734,0,1.289,0.242,1.664,0.727
		c0.484,0.641,0.711,1.797,0.68,3.469c0,0.375,0,1.047,0,2.016c-2.609,1.578-4.469,2.891-5.578,3.938
		c-1.859,1.766-2.789,3.703-2.789,5.813c0,3.906,3.328,5.859,9.984,5.859c3.703,0,6.727-0.094,9.07-0.281
		c1.859-0.173,2.789-0.688,2.789-1.547c0-0.469-0.242-0.883-0.727-1.242c-0.578-0.453-1.313-0.68-2.203-0.68
		c-0.375,0-0.984,0.094-1.828,0.281c-0.906,0.219-1.781,0.383-2.625,0.492c-2.156,0.25-4.578,0.375-7.266,0.375
		c-3.703,0-5.555-1.188-5.555-3.563c0-1.422,0.68-2.781,2.039-4.078c0.922-0.859,2.469-1.898,4.641-3.117
		c-0.016,0.844-0.047,1.93-0.094,3.258c-0.047,1.313-0.07,2.234-0.07,2.766c0,0.344,0.125,0.641,0.375,0.891
		c0.266,0.266,0.586,0.398,0.961,0.398c0.875,0,1.313-0.609,1.313-1.828l-0.047-6.914c0.344-0.203,1.016-0.586,2.016-1.148
		c0.969-0.563,1.703-0.984,2.203-1.266c3.313-1.766,6.227-3.172,8.742-4.219c0.406-0.172,0.883-0.297,1.43-0.375
		c0.641-0.063,0.961-0.398,0.961-1.008c0-0.703-0.656-1.461-1.969-2.273c-1.25-0.766-2.43-1.148-3.539-1.148
		c-0.484,0-0.906,0.063-1.266,0.188c-0.438,0.156-0.656,0.352-0.656,0.586c0,0.141,0.141,0.234,0.422,0.281
		c0.688,0.094,1.25,0.289,1.688,0.586c0.281,0.188,0.422,0.391,0.422,0.609c0,0.313-0.172,0.586-0.516,0.82
		c-2.031,1.359-5.344,3.414-9.938,6.164c0-0.547-0.031-1.203-0.094-1.969c-0.141-2.859-1.563-4.289-4.266-4.289
		c-1.859,0-3.813,0.805-5.859,2.414l-0.094-0.094c1.266-1.813,2.844-4.375,4.734-7.688c2.766-0.625,5.523-1.477,8.273-2.555
		c0.563-0.219,0.945-0.422,1.148-0.609c0.25-0.203,0.375-0.492,0.375-0.867c0-0.297-0.125-0.563-0.375-0.797
		c-0.313-0.266-0.711-0.398-1.195-0.398c-0.609,0-1.43,0.289-2.461,0.867c-1.219,0.672-2.688,1.273-4.406,1.805
		c0.547-1.016,0.914-1.703,1.102-2.063c0.344-0.703,0.758-1.211,1.242-1.523c0.391-0.234,0.586-0.586,0.586-1.055
		c0-0.781-0.703-1.5-2.109-2.156c-1.094-0.516-2.047-0.773-2.859-0.773c-0.703,0-1.289,0.141-1.758,0.422
		c-0.359,0.234-0.539,0.477-0.539,0.727c0,0.156,0.18,0.234,0.539,0.234c1.984,0,2.977,0.438,2.977,1.313
		c0,0.438-0.109,1.023-0.328,1.758c-0.438,1.313-0.922,2.531-1.453,3.656c-2.234,0.516-4.219,0.773-5.953,0.773
		c-0.906,0-1.609-0.07-2.109-0.211c-0.656-0.188-1.297-0.578-1.922-1.172c-0.281-0.297-0.539-0.445-0.773-0.445
		c-0.281,0-0.422,0.211-0.422,0.633c0,0.172,0.078,0.391,0.234,0.656c0.625,0.922,1.289,1.578,1.992,1.969
		c0.781,0.422,1.844,0.633,3.188,0.633c0.875,0,2.414-0.133,4.617-0.398C178.671,68.759,177.515,70.681,176.421,72.228
		L176.421,72.228z"/>
	<path fill="#0D4482" d="M203.609,126.978c-2.063-2.609-4.555-4.515-7.477-5.719c-0.188-0.094-0.414-0.141-0.68-0.141
		c-0.281,0-0.422,0.173-0.422,0.516c0,0.22,0.094,0.398,0.281,0.539c1.938,1.219,3.594,2.657,4.969,4.313
		c1.516,1.828,2.273,3.384,2.273,4.664c0,0.344-0.227,0.578-0.68,0.703c-1.094,0.328-2.977,0.75-5.648,1.266
		c-0.359,0.079-0.539,0.267-0.539,0.563c0,0.392,0.188,0.586,0.563,0.586c0.031,0,0.07,0,0.117,0
		c1.828-0.124,3.688-0.188,5.578-0.188c0.672,0,1.195,0.126,1.57,0.375c0.359,0.22,0.781,0.328,1.266,0.328
		c0.953,0,1.43-0.609,1.43-1.828C206.21,131.158,205.343,129.166,203.609,126.978L203.609,126.978z M184.601,116.454
		c0.406-0.858,0.805-1.39,1.195-1.594c0.453-0.202,0.68-0.523,0.68-0.961c0-0.844-0.57-1.617-1.711-2.32
		c-1.188-0.718-2.344-1.078-3.469-1.078c-0.859,0-1.469,0.126-1.828,0.375c-0.25,0.173-0.375,0.337-0.375,0.492
		c0,0.234,0.18,0.375,0.539,0.422c0.75,0.047,1.422,0.234,2.016,0.563c0.688,0.391,1.031,0.829,1.031,1.313
		c0,0.548-0.125,1.204-0.375,1.969c-0.625,1.922-1.359,3.82-2.203,5.695c-0.563,0.173-2.484,0.703-5.766,1.594
		c-1.453,0.422-2.578,0.633-3.375,0.633c-0.938,0-1.719-0.546-2.344-1.641c-0.188-0.328-0.328-0.492-0.422-0.492
		c-0.359,0-0.539,0.367-0.539,1.102c0.047,1,0.641,2.048,1.781,3.141c0.656,0.609,1.328,0.914,2.016,0.914
		c0.313,0,0.648-0.124,1.008-0.375c0.5-0.328,1.109-0.617,1.828-0.867c2.109-0.844,3.742-1.453,4.898-1.828
		c-2.641,5.625-6.391,12.211-11.25,19.758c-0.281,0.422-0.422,0.844-0.422,1.266c0,0.797,0.461,1.195,1.383,1.195
		c0.594,0,1.031-0.258,1.313-0.773c3.813-6.452,7.648-13.828,11.508-22.125c1.484-0.53,2.75-0.797,3.797-0.797
		c1.891,0,2.836,1.438,2.836,4.313c0,2.548-0.445,5.36-1.336,8.438c-1.047,3.375-2.203,5.758-3.469,7.148
		c-0.516,0.516-1.109,0.773-1.781,0.773c-0.516,0-0.93-0.077-1.242-0.234c-1.078-0.547-2.422-1.397-4.031-2.555
		c-0.219-0.155-0.383-0.234-0.492-0.234c-0.281,0-0.422,0.156-0.422,0.469c0,0.173,0.063,0.32,0.188,0.445
		c1.344,1.266,2.242,2.195,2.695,2.789c0.375,0.454,0.617,0.914,0.727,1.383c0.219,0.938,0.789,1.406,1.711,1.406
		c1.375,0,2.703-0.641,3.984-1.922c1.594-1.437,2.906-3.711,3.938-6.82c0.484-1.344,0.914-2.961,1.289-4.852
		c0.422-2.14,0.633-3.914,0.633-5.32c0-4.515-1.664-6.773-4.992-6.773c-0.859,0-1.883,0.109-3.07,0.328
		C182.945,120.236,183.585,118.783,184.601,116.454L184.601,116.454z"/>
	<path fill="#0D4482" d="M196.882,168.061c0.031-0.422,0.211-0.859,0.539-1.313c0.281-0.453,0.422-0.852,0.422-1.195
		c0-0.641-0.563-1.328-1.688-2.063c-1.359-0.828-2.477-1.242-3.352-1.242c-0.563,0-1.117,0.211-1.664,0.633
		c-0.422,0.281-0.633,0.547-0.633,0.797c0,0.203,0.195,0.305,0.586,0.305c1.109,0,1.891,0.164,2.344,0.492
		c0.484,0.359,0.734,1.039,0.75,2.039c0.031,0.719,0.055,1.672,0.07,2.859l0.094,3.375c-3.203,0.641-5.797,0.961-7.781,0.961
		c-1.375,0-2.672-0.352-3.891-1.055c-0.266-0.156-0.469-0.234-0.609-0.234c-0.359,0-0.539,0.195-0.539,0.586
		c0,0.219,0.094,0.422,0.281,0.609c1.531,1.438,3.305,2.156,5.32,2.156c1.594,0,4-0.266,7.219-0.797l0.047,5.906
		c0,5.375-0.75,9.375-2.25,12c-1.688,2.844-4.703,5.289-9.047,7.336c-0.313,0.141-0.469,0.328-0.469,0.563
		c0,0.391,0.172,0.586,0.516,0.586c0.203,0,0.539-0.078,1.008-0.234c4.75-1.688,8.094-3.992,10.031-6.914
		c1.797-2.719,2.695-6.547,2.695-11.484l-0.094-8.25c1.234-0.219,3.523-0.555,6.867-1.008c0.547-0.078,0.93-0.188,1.148-0.328
		c0.281-0.203,0.422-0.555,0.422-1.055c0-0.375-0.203-0.695-0.609-0.961c-0.484-0.328-1.094-0.492-1.828-0.492
		c-0.578,0-1.156,0.18-1.734,0.539c-0.453,0.25-1.016,0.453-1.688,0.609c-0.516,0.125-1.375,0.305-2.578,0.539
		C196.789,171.326,196.82,169.904,196.882,168.061L196.882,168.061z M178.835,180.389c0.031-0.078,0.047-0.156,0.047-0.234
		c0-0.328-0.133-0.492-0.398-0.492c-0.328,0-0.57,0.211-0.727,0.633c-1.141,2.875-2.281,5.992-3.422,9.352
		c-0.109,0.313-0.266,0.469-0.469,0.469c-0.234,0-0.398-0.203-0.492-0.609c-0.391-1.359-0.586-2.883-0.586-4.57
		c0-3.859,0.688-7.969,2.063-12.328c0.031-0.125,0.102-0.336,0.211-0.633c0.172-0.438,0.266-0.672,0.281-0.703
		c0.313-0.891,0.469-1.516,0.469-1.875c0-1.156-0.383-2.266-1.148-3.328c-0.375-0.484-0.82-0.977-1.336-1.477
		c-0.672-0.641-1.141-0.961-1.406-0.961c-0.422,0-0.633,0.109-0.633,0.328v0.164c0,0.156,0.047,0.313,0.141,0.469
		c0.906,1.453,1.359,2.688,1.359,3.703s-0.094,2.086-0.281,3.211c-1.125,5.922-1.688,10.234-1.688,12.938
		c0,3.828,0.656,7.156,1.969,9.984c0.547,1.156,1.234,1.734,2.063,1.734s1.242-0.477,1.242-1.43l-0.141-2.156
		c0-0.594,0.133-1.492,0.398-2.695C176.82,187.881,177.648,184.717,178.835,180.389L178.835,180.389z"/>
	<path fill="#0D4482" d="M84.906,21.357c-1.094,0-2.008-0.031-2.742-0.094c0.469,2.719,0.875,4.078,1.219,4.078
		c0.313,0,0.633-0.461,0.961-1.383c1.844-0.266,3.648-0.555,5.414-0.867v10.992l-0.234,9.563c0,0.703,0.414,1.055,1.242,1.055
		c1.219,0,1.828-0.43,1.828-1.289l-0.188-10.383v-10.5c1.406-0.328,2.461-0.586,3.164-0.773c0.016,0.094,0.031,0.234,0.047,0.422
		c0.016,0.234,0.031,0.398,0.047,0.492c0.109,0.984,0.445,1.477,1.008,1.477c1.031,0,1.547-0.641,1.547-1.922
		c0-0.813-0.297-1.68-0.891-2.602c-0.719-1.125-1.727-2.078-3.023-2.859c-0.047-0.031-0.102-0.047-0.164-0.047
		c-0.203,0-0.305,0.086-0.305,0.258c0,0.047,0.016,0.086,0.047,0.117c0.703,1.078,1.203,2.313,1.5,3.703
		c-3.344,0.313-5.828,0.484-7.453,0.516c2.859-2.922,5.602-6.516,8.227-10.781c1.078,0,1.617-0.227,1.617-0.68
		c0-0.375-1.242-1.18-3.727-2.414c-0.219,1.203-0.781,2.664-1.688,4.383c-1.797,3.484-3.688,6.648-5.672,9.492
		C86.297,21.342,85.703,21.357,84.906,21.357L84.906,21.357z M101.664,17.842c-0.016-0.125-0.109-0.188-0.281-0.188
		c-0.219,0-0.328,0.078-0.328,0.234c0.047,2.156-0.664,3.875-2.133,5.156c-0.641,0.484-0.961,0.969-0.961,1.453
		c0,0.984,0.492,1.477,1.477,1.477c0.719,0,1.32-0.375,1.805-1.125c0.563-0.875,0.844-2.023,0.844-3.445
		c0-0.156,0.008-0.313,0.023-0.469h18.375c-0.328,1.219-0.836,2.547-1.523,3.984c-0.016,0.031-0.023,0.063-0.023,0.094
		c0,0.188,0.094,0.281,0.281,0.281c0.047,0,0.086-0.016,0.117-0.047c0.672-0.484,1.664-1.344,2.977-2.578
		c0.406-0.406,0.883-0.633,1.43-0.68c1.063-0.125,1.594-0.383,1.594-0.773s-0.32-0.867-0.961-1.43
		c-1.203-1.063-1.969-1.594-2.297-1.594c-0.234,0-0.813,0.516-1.734,1.547h-18.328C101.984,19.318,101.867,18.686,101.664,17.842
		L101.664,17.842z M83.336,8.49c-0.031-0.016-0.055-0.023-0.07-0.023c-0.188,0-0.281,0.094-0.281,0.281
		c0,0.047,0.023,0.086,0.07,0.117c1.547,1.469,2.695,3.273,3.445,5.414c0.203,0.641,0.391,1.07,0.563,1.289
		c0.203,0.25,0.5,0.375,0.891,0.375c0.953,0,1.43-0.609,1.43-1.828c0-1.063-0.672-2.164-2.016-3.305
		c1.734-1.922,3.398-4.273,4.992-7.055c1.219-0.156,1.828-0.445,1.828-0.867s-1.422-1.125-4.266-2.109
		c-0.109,1.031-0.383,2.211-0.82,3.539c-0.703,2.063-1.555,4.016-2.555,5.859C85.734,9.553,84.664,8.99,83.336,8.49L83.336,8.49z
		 M103.281,14.115c-1,0-2.102-0.109-3.305-0.328l0.492,1.805c1.188-0.188,2.125-0.281,2.813-0.281h19.266
		c0.406,0,0.609-0.156,0.609-0.469c0-0.344-0.32-0.742-0.961-1.195c-1.328-1.063-2.094-1.594-2.297-1.594
		c-0.266,0-0.969,0.688-2.109,2.063h-6V8.49h12.328c0.422,0,0.633-0.141,0.633-0.422c0-0.313-0.32-0.711-0.961-1.195
		c-1.422-1.188-2.25-1.781-2.484-1.781c-0.281,0-1.008,0.734-2.18,2.203h-7.336V3.404c1.031-0.438,1.547-0.852,1.547-1.242
		c0-0.266-0.219-0.477-0.656-0.633c-0.609-0.203-1.945-0.422-4.008-0.656c0.156,1.547,0.234,3.211,0.234,4.992v1.43h-6.586
		c-1.297,0-2.539-0.094-3.727-0.281l0.516,1.758c1.25-0.188,2.32-0.281,3.211-0.281h6.586v5.625H103.281z M96.063,34.201
		c0.047,0.906,0.141,1.531,0.281,1.875c0.172,0.375,0.492,0.563,0.961,0.563c0.453,0,0.82-0.203,1.102-0.609
		s0.422-0.938,0.422-1.594c0-1.063-0.305-2.203-0.914-3.422c-0.734-1.469-1.727-2.711-2.977-3.727
		c-0.063-0.047-0.133-0.07-0.211-0.07c-0.203,0-0.305,0.078-0.305,0.234c0,0.047,0,0.086,0,0.117
		C95.359,29.396,95.906,31.607,96.063,34.201L96.063,34.201z M122.172,39.521c-0.313,0.375-0.703,0.625-1.172,0.75
		c-0.516,0.156-1.438,0.234-2.766,0.234c-1.203,0-2-0.094-2.391-0.281c-0.453-0.203-0.68-0.68-0.68-1.43V26.514
		c0.984-0.406,1.477-0.797,1.477-1.172c0-0.25-0.188-0.445-0.563-0.586c-0.594-0.219-1.906-0.438-3.938-0.656
		c0.156,1.469,0.234,4.305,0.234,8.508l-0.094,6.938c0,1.25,0.32,2.117,0.961,2.602c0.844,0.641,2.586,0.961,5.227,0.961
		c2.5,0,4.469-0.242,5.906-0.727c1-0.344,1.5-0.883,1.5-1.617c0-0.625-0.242-1.031-0.727-1.219
		c-0.422-0.188-0.633-0.555-0.633-1.102c0-0.469,0.031-1.797,0.094-3.984c0-0.156-0.102-0.234-0.305-0.234
		c-0.156,0-0.242,0.063-0.258,0.188C123.328,37.209,122.703,38.912,122.172,39.521L122.172,39.521z M85.258,35.936
		c0.797-1.703,1.453-3.742,1.969-6.117c0.922-0.266,1.383-0.555,1.383-0.867c0-0.25-0.172-0.461-0.516-0.633
		c-0.422-0.219-1.547-0.586-3.375-1.102c0,0.844-0.125,2.156-0.375,3.938c-0.531,3.266-1.43,6.414-2.695,9.445
		c0,0.031,0,0.055,0,0.07c0,0.219,0.141,0.328,0.422,0.328c0.094,0,0.164-0.031,0.211-0.094
		C83.547,39.186,84.539,37.529,85.258,35.936L85.258,35.936z M104.945,38.021c1.016-1.406,1.758-3,2.227-4.781
		c0.422-1.594,0.703-3.836,0.844-6.727c0.891-0.375,1.336-0.734,1.336-1.078c0-0.313-0.219-0.539-0.656-0.68
		c-0.469-0.156-1.75-0.375-3.844-0.656c0.078,0.734,0.117,1.57,0.117,2.508c0,4.375-0.734,7.828-2.203,10.359
		c-1.531,2.609-3.961,4.813-7.289,6.609c-0.063,0.031-0.094,0.102-0.094,0.211c0,0.281,0.109,0.422,0.328,0.422
		c0.016,0,0.039,0,0.07,0C99.953,42.771,103.008,40.709,104.945,38.021L104.945,38.021z"/>
	<path fill="#0D4482" d="M114.883,62.461c0.031-0.422,0.211-0.859,0.539-1.313c0.281-0.453,0.422-0.852,0.422-1.195
		c0-0.641-0.563-1.328-1.688-2.063c-1.359-0.828-2.477-1.242-3.352-1.242c-0.563,0-1.117,0.211-1.664,0.633
		c-0.422,0.281-0.633,0.547-0.633,0.797c0,0.203,0.195,0.305,0.586,0.305c1.109,0,1.891,0.164,2.344,0.492
		c0.484,0.359,0.734,1.039,0.75,2.039c0.031,0.719,0.055,1.672,0.07,2.859l0.094,3.375c-3.203,0.641-5.797,0.961-7.781,0.961
		c-1.375,0-2.672-0.352-3.891-1.055c-0.266-0.156-0.469-0.234-0.609-0.234c-0.359,0-0.539,0.195-0.539,0.586
		c0,0.219,0.094,0.422,0.281,0.609c1.531,1.438,3.305,2.156,5.32,2.156c1.594,0,4-0.266,7.219-0.797l0.047,5.906
		c0,5.375-0.75,9.375-2.25,12c-1.688,2.844-4.703,5.289-9.047,7.336c-0.313,0.141-0.469,0.328-0.469,0.563
		c0,0.39,0.172,0.586,0.516,0.586c0.203,0,0.539-0.079,1.008-0.234c4.75-1.688,8.094-3.992,10.031-6.914
		c1.797-2.719,2.695-6.547,2.695-11.484l-0.094-8.25c1.234-0.219,3.523-0.555,6.867-1.008c0.547-0.078,0.93-0.188,1.148-0.328
		c0.281-0.203,0.422-0.555,0.422-1.055c0-0.375-0.203-0.695-0.609-0.961c-0.484-0.328-1.094-0.492-1.828-0.492
		c-0.578,0-1.156,0.18-1.734,0.539c-0.453,0.25-1.016,0.453-1.688,0.609c-0.516,0.125-1.375,0.305-2.578,0.539
		C114.789,65.727,114.82,64.305,114.883,62.461L114.883,62.461z M96.836,74.789c0.031-0.078,0.047-0.156,0.047-0.234
		c0-0.328-0.133-0.492-0.398-0.492c-0.328,0-0.57,0.211-0.727,0.633c-1.141,2.875-2.281,5.992-3.422,9.352
		c-0.109,0.313-0.266,0.469-0.469,0.469c-0.234,0-0.398-0.203-0.492-0.609c-0.391-1.359-0.586-2.883-0.586-4.57
		c0-3.859,0.688-7.969,2.063-12.328c0.031-0.125,0.102-0.336,0.211-0.633c0.172-0.438,0.266-0.672,0.281-0.703
		c0.313-0.891,0.469-1.516,0.469-1.875c0-1.156-0.383-2.266-1.148-3.328c-0.375-0.484-0.82-0.977-1.336-1.477
		c-0.672-0.641-1.141-0.961-1.406-0.961c-0.422,0-0.633,0.109-0.633,0.328v0.164c0,0.156,0.047,0.313,0.141,0.469
		c0.906,1.453,1.359,2.688,1.359,3.703s-0.094,2.086-0.281,3.211c-1.125,5.922-1.688,10.234-1.688,12.938
		c0,3.828,0.656,7.156,1.969,9.984c0.547,1.156,1.234,1.734,2.063,1.734s1.242-0.477,1.242-1.43l-0.141-2.156
		c0-0.594,0.133-1.492,0.398-2.695C94.82,82.281,95.648,79.117,96.836,74.789L96.836,74.789z"/>
	<path fill="#0D4482" d="M115.633,113.627c-0.531,0.297-1.281,0.547-2.25,0.75l-20.836,5.32c-1.406,0.359-2.43,0.539-3.07,0.539
		c-0.609,0.016-1.148-0.094-1.617-0.328c-0.438-0.219-0.969-0.672-1.594-1.359c-0.281-0.281-0.492-0.422-0.633-0.422
		c-0.313,0-0.469,0.305-0.469,0.914c0,0.719,0.43,1.633,1.289,2.742c1.125,1.313,2.18,1.969,3.164,1.969
		c0.563,0,1.109-0.18,1.641-0.539c1.031-0.594,2.219-1.133,3.563-1.617c3.406-1.234,7.695-2.609,12.867-4.125l0.094,0.141
		c-2.578,1.438-4.664,3.359-6.258,5.766c-1.875,2.797-2.813,5.805-2.813,9.023c0,3.797,1.391,6.852,4.172,9.164
		c1.375,1.188,3.203,2.148,5.484,2.883s4.453,1.102,6.516,1.102c1.469,0,2.203-0.414,2.203-1.242c0-0.75-0.383-1.328-1.148-1.734
		c-0.875-0.469-2.094-0.742-3.656-0.82c-1.313-0.016-2.656-0.242-4.031-0.68c-1.719-0.547-3.156-1.313-4.313-2.297
		c-2.172-1.734-3.258-4.328-3.258-7.781c0-2.547,0.906-5.055,2.719-7.523c1.969-2.656,4.289-4.453,6.961-5.391
		c2.625-0.953,5.734-1.484,9.328-1.594c1.047-0.047,1.57-0.477,1.57-1.289c0-0.656-0.43-1.133-1.289-1.43
		c-1-0.422-1.914-0.633-2.742-0.633C116.648,113.135,116.117,113.299,115.633,113.627L115.633,113.627z"/>
	<path fill="#0D4482" d="M103.844,162.076c0,0.125,0.156,0.305,0.469,0.539c1.188,0.844,1.781,1.625,1.781,2.344
		c0,0.516-0.414,1.242-1.242,2.18c-3.203,3.516-6.516,7.352-9.938,11.508c-0.766,0.953-1.148,1.852-1.148,2.695
		c0,0.906,0.547,1.852,1.641,2.836c6.297,5.734,10.578,10.836,12.844,15.305c0.563,1.125,1.156,1.688,1.781,1.688
		c0.422,0,0.789-0.141,1.102-0.422c0.391-0.344,0.586-0.813,0.586-1.406c0-0.922-0.766-2.391-2.297-4.406
		c-2.828-3.656-7.023-7.805-12.586-12.445c-0.609-0.516-0.914-1.008-0.914-1.477c0-0.359,0.211-0.797,0.633-1.313
		c3.547-4.188,7.211-7.914,10.992-11.18c0.578-0.5,1.07-0.836,1.477-1.008c0.734-0.266,1.102-0.727,1.102-1.383
		c0-0.703-0.594-1.617-1.781-2.742c-1.281-1.219-2.461-1.828-3.539-1.828C104.164,161.561,103.844,161.732,103.844,162.076
		L103.844,162.076z"/>
	<path fill="#0D4482" d="M104.5,227.316c2.594-2.203,4.547-3.305,5.859-3.305c1.25,0,1.875,1.07,1.875,3.211
		c0,1.578-0.188,4.023-0.563,7.336c-0.422,3.75-0.633,7.016-0.633,9.797c0,3.547,1.742,5.32,5.227,5.32
		c2.063,0,3.984-0.828,5.766-2.484c1.859-1.719,3.344-3.852,4.453-6.398c0.094-0.234,0.141-0.406,0.141-0.516
		c0-0.391-0.227-0.586-0.68-0.586c-0.188,0-0.406,0.227-0.656,0.68c-1.016,1.766-2.297,3.289-3.844,4.57
		c-1.875,1.531-3.633,2.297-5.273,2.297c-0.906,0-1.563-0.195-1.969-0.586c-0.484-0.469-0.727-1.359-0.727-2.672
		c0-2.234,0.273-5.289,0.82-9.164c0.578-4.031,0.867-6.625,0.867-7.781c0-1.078-0.313-2.063-0.938-2.953
		c-0.859-1.234-2.07-1.852-3.633-1.852c-1.469,0-3.594,1.133-6.375,3.398c-1.953,1.594-4.688,4.219-8.203,7.875l0.094-1.641
		c0.672-1.516,1.344-2.719,2.016-3.609c0.313-0.375,0.469-0.664,0.469-0.867c0-0.281-0.141-0.563-0.422-0.844
		c-0.359-0.359-0.68-0.539-0.961-0.539c-0.219,0-0.477,0.055-0.773,0.164c0.094-2.266,0.242-4,0.445-5.203
		c0.141-0.844,0.391-1.414,0.75-1.711c0.328-0.234,0.492-0.57,0.492-1.008c0-0.625-0.547-1.344-1.641-2.156
		c-1.328-1-2.531-1.5-3.609-1.5c-0.891,0-1.336,0.211-1.336,0.633c0,0.344,0.195,0.563,0.586,0.656
		c1.563,0.453,2.344,1.531,2.344,3.234c0,2.406-0.047,4.992-0.141,7.758c-1.422,0.734-2.813,1.359-4.172,1.875
		c-0.766,0.25-1.297,0.375-1.594,0.375c-0.719,0-1.422-0.539-2.109-1.617c-0.234-0.359-0.414-0.539-0.539-0.539
		c-0.313,0-0.469,0.289-0.469,0.867c0,0.828,0.383,1.695,1.148,2.602c0.719,0.891,1.375,1.336,1.969,1.336
		c0.469,0,0.852-0.125,1.148-0.375c0.141-0.141,0.461-0.352,0.961-0.633c0.547-0.328,1.734-0.938,3.563-1.828
		c-0.094,1.984-0.156,3.156-0.188,3.516c-2.141,4.078-4.43,7.484-6.867,10.219c-0.938,1.063-1.578,1.766-1.922,2.109
		c-0.609,0.609-0.914,1.25-0.914,1.922c0,0.828,0.367,1.242,1.102,1.242c0.438,0,0.836-0.227,1.195-0.68
		c0.094-0.109,0.359-0.445,0.797-1.008c0.438-0.578,0.813-1.07,1.125-1.477c1.625,1.672,2.891,3.211,3.797,4.617
		c0.688,1.078,1.133,2.086,1.336,3.023c0.172,0.672,0.492,1.008,0.961,1.008c1.125,0,1.688-1.133,1.688-3.398
		c0-0.469-0.031-1.016-0.094-1.641c-0.078-0.906-0.125-1.531-0.141-1.875c-0.125-3.141-0.188-6.625-0.188-10.453
		C98.797,232.699,101.656,229.785,104.5,227.316L104.5,227.316z M94,237.16v3.305c0,1.578,0,3.977,0,7.195
		c0,0.156-0.07,0.234-0.211,0.234c-0.078,0-0.156-0.023-0.234-0.07c-1.859-1.594-3.313-2.914-4.359-3.961
		C91.305,240.926,92.906,238.691,94,237.16L94,237.16z"/>
	<path fill="#0D4482" d="M101.5,273.778c0.375-0.844,0.711-1.383,1.008-1.617c0.453-0.344,0.68-0.797,0.68-1.359
		c0-0.484-0.273-0.945-0.82-1.383c-0.516-0.422-1.188-0.797-2.016-1.125c-0.859-0.344-1.531-0.516-2.016-0.516
		c-0.328,0-0.758,0.078-1.289,0.234c-0.453,0.203-0.68,0.414-0.68,0.633c0,0.203,0.273,0.359,0.82,0.469
		c1.531,0.328,2.297,1.055,2.297,2.18c0,0.531-0.156,1.359-0.469,2.484c-0.344,1.281-0.797,2.711-1.359,4.289
		c-2.672,0.829-4.844,1.242-6.516,1.242c-1.641,0-3.008-0.367-4.102-1.102c-0.453-0.297-0.75-0.445-0.891-0.445
		c-0.359,0-0.539,0.18-0.539,0.539c0,0.531,0.461,1.125,1.383,1.781c1.203,0.891,2.758,1.336,4.664,1.336
		c1.391,0,3.102-0.242,5.133-0.727c-2.844,7.891-5.914,15.094-9.211,21.609c-0.156,0.375-0.234,0.695-0.234,0.961
		c0,0.391,0.109,0.75,0.328,1.078c0.266,0.313,0.633,0.469,1.102,0.469c0.672,0,1.188-0.398,1.547-1.195
		c1.781-4.093,4.742-11.938,8.883-23.531c2.75-0.75,5.367-1.586,7.852-2.508c1.125-0.438,1.688-0.984,1.688-1.641
		c0-0.344-0.148-0.633-0.445-0.867c-0.281-0.219-0.625-0.328-1.031-0.328c-0.453,0-1.227,0.258-2.32,0.773
		c-1.563,0.734-3.18,1.375-4.852,1.922C100.859,275.356,101.328,274.138,101.5,273.778L101.5,273.778z M104.289,294.333
		c0-0.249-0.109-0.375-0.328-0.375c-0.328,0-0.617,0.289-0.867,0.867c-0.578,1.266-0.867,2.446-0.867,3.539
		c0,0.906,0.25,1.797,0.75,2.672c0.547,0.984,1.305,1.773,2.273,2.367c1.938,1.188,4.898,1.781,8.883,1.781
		c1.953,0,3.695-0.109,5.227-0.328c0.766-0.109,1.297-0.272,1.594-0.492c0.313-0.219,0.469-0.57,0.469-1.055
		c0-0.625-0.32-1.07-0.961-1.336c-0.484-0.188-0.977-0.281-1.477-0.281c-0.609,0-1.266,0.094-1.969,0.281
		c-1.375,0.313-2.844,0.469-4.406,0.469c-2.984,0-5.117-0.336-6.398-1.008c-1.625-0.844-2.438-2.156-2.438-3.938
		c0-0.844,0.102-1.625,0.305-2.344C104.219,294.653,104.289,294.38,104.289,294.333L104.289,294.333z M109.141,288.052
		c-0.297,0.281-0.445,0.484-0.445,0.609c0,0.266,0.109,0.398,0.328,0.398c0.234,0,0.492-0.078,0.773-0.234
		c2.656-1.797,4.273-2.82,4.852-3.07c0.625-0.296,1.172-0.445,1.641-0.445c0.078,0,0.156,0,0.234,0c0.266,0,0.695,0.094,1.289,0.281
		c0.422,0.156,0.773,0.234,1.055,0.234c0.719,0.063,1.102-0.273,1.148-1.008c0.047-0.719-0.398-1.305-1.336-1.758
		c-1.094-0.516-2.602-0.828-4.523-0.938c-0.297-0.016-0.57-0.023-0.82-0.023c-3.531,0-6.555,0.93-9.07,2.789
		c-0.25,0.203-0.375,0.43-0.375,0.68c0,0.219,0.133,0.328,0.398,0.328c0.156,0,0.328-0.039,0.516-0.117
		c2.063-1.109,4.617-1.664,7.664-1.664c0.281,0,0.531,0.008,0.75,0.023s0.328,0.063,0.328,0.141s-0.094,0.195-0.281,0.352
		C110.906,286.567,109.531,287.709,109.141,288.052L109.141,288.052z"/>
	<path fill="#0D4482" d="M16.711,20.436c0.703,2.438,1.391,4.375,2.063,5.813c1.125,2.563,2.469,4.797,4.031,6.703
		c-3.906,4.141-9.32,7.68-16.242,10.617c-0.094,0.031-0.141,0.108-0.141,0.234c0,0.328,0.109,0.492,0.328,0.492
		c0.016,0,0.031,0,0.047,0c7.547-2.203,13.484-5.328,17.813-9.375c0.391,0.391,0.68,0.664,0.867,0.82
		c3.547,3.203,7.422,5.602,11.625,7.195c1.297,0.483,2.094,0.727,2.391,0.727c0.375,0,0.648-0.258,0.82-0.773
		c0.406-1.172,1.141-1.891,2.203-2.156c0.141-0.031,0.211-0.117,0.211-0.258c0-0.125-0.055-0.195-0.164-0.211
		c-5.547-0.813-10.375-2.719-14.484-5.719c-0.766-0.578-1.344-1.023-1.734-1.336c2.906-3.141,5.227-7.031,6.961-11.672
		c1.094-0.422,1.641-0.805,1.641-1.148c0-0.297-0.227-0.648-0.68-1.055c-1.25-1.188-2-1.781-2.25-1.781
		c-0.203,0-0.828,0.563-1.875,1.688H15.75c0.641-2.922,1.07-5.563,1.289-7.922H42c0.453,0,0.68-0.156,0.68-0.469
		s-0.398-0.813-1.195-1.5c-1.641-1.406-2.602-2.109-2.883-2.109c-0.266,0-1.18,0.961-2.742,2.883H17.18
		c0.188-2.047,0.328-4.141,0.422-6.281c1.125-0.422,1.688-0.836,1.688-1.242c0-0.344-0.289-0.617-0.867-0.82
		C17.75,1.545,16.359,1.318,14.25,1.1c0.094,1.031,0.141,1.961,0.141,2.789c0,0.25-0.008,0.539-0.023,0.867
		c-0.031,1.063-0.133,2.852-0.305,5.367H4.758c-1.125,0-2.422-0.109-3.891-0.328L1.336,11.6c1.047-0.188,2.203-0.281,3.469-0.281
		h9.164c-0.344,3.313-0.828,6.258-1.453,8.836C10.25,29.592,6.094,37.193,0.047,42.959C0.016,42.99,0,43.021,0,43.053
		c0,0.281,0.148,0.422,0.445,0.422c0.047,0,0.086-0.016,0.117-0.047c5.641-4.25,9.742-9.352,12.305-15.305
		c0.953-2.125,1.813-4.688,2.578-7.688H16.711z M19.617,24.748c-0.672-1.391-1.242-2.828-1.711-4.313h12.281
		c-1.453,4.156-3.438,7.773-5.953,10.852C22.391,29.396,20.852,27.217,19.617,24.748L19.617,24.748z"/>
	<path fill="#0D4482" d="M26.813,82.412c3.219,5.578,7.219,9.852,12,12.82c1.063,0.672,1.75,1.008,2.063,1.008
		c0.344,0,0.609-0.242,0.797-0.727c0.25-0.656,0.516-1.117,0.797-1.383c0.281-0.281,0.719-0.492,1.313-0.633
		c0.188-0.031,0.281-0.141,0.281-0.328c0-0.125-0.055-0.203-0.164-0.234c-5.797-2.047-10.523-5.523-14.18-10.43
		c-2.031-2.703-3.602-5.508-4.711-8.414c-1.438-3.719-2.281-7.945-2.531-12.68c0.016-0.375,0.023-0.914,0.023-1.617
		c0.016-0.828,0.031-1.445,0.047-1.852c1.141-0.453,1.711-0.852,1.711-1.195c0-0.359-0.281-0.625-0.844-0.797
		c-0.641-0.188-2.094-0.383-4.359-0.586c0.141,1.078,0.211,2.281,0.211,3.609c0,2.016-0.141,4.297-0.422,6.844
		c-0.688,6.344-2.328,11.828-4.922,16.453C11,87.506,6.578,92.076,0.656,95.982c-0.047,0.031-0.07,0.086-0.07,0.164
		c0,0.328,0.125,0.492,0.375,0.492c0.031,0,0.063-0.008,0.094-0.023c6-2.953,10.633-6.547,13.898-10.781
		c3.766-4.875,6.125-11.148,7.078-18.82C22.734,72.936,24.328,78.068,26.813,82.412L26.813,82.412z"/>
</g>
</svg>
