<?xml version="1.0" encoding="utf-8"?>
<!-- Generator: Adobe Illustrator 14.0.0, SVG Export Plug-In . SVG Version: 6.00 Build 43363)  -->
<!DOCTYPE svg PUBLIC "-//W3C//DTD SVG 1.1 Basic//EN" "http://www.w3.org/Graphics/SVG/1.1/DTD/svg11-basic.dtd">
<svg version="1.1" baseProfile="basic" id="レイヤー_3"
	 xmlns="http://www.w3.org/2000/svg" xmlns:xlink="http://www.w3.org/1999/xlink" x="0px" y="0px" width="290.602px"
	 height="357.881px" viewBox="0 0 290.602 357.881" xml:space="preserve">
<g>
	<path fill="#083E00" d="M249.328,20.83c-0.798,0-1.47-0.031-2.016-0.094c0.53,2.688,0.991,4.031,1.383,4.031
		c0.358,0,0.647-0.445,0.867-1.336c2.484-0.391,4.374-0.695,5.672-0.914v10.945L255,42.979c0,0.672,0.413,1.008,1.242,1.008
		c1.218,0,1.828-0.414,1.828-1.242l-0.141-10.336V21.955c1.405-0.313,2.733-0.648,3.984-1.008c0.108,0.328,0.233,0.883,0.375,1.664
		c0.124,0.719,0.265,1.219,0.421,1.5c0.188,0.313,0.484,0.469,0.892,0.469c0.891,0,1.336-0.641,1.336-1.922
		c0-0.906-0.375-1.93-1.125-3.07c-0.907-1.344-2.103-2.508-3.586-3.492c-0.047-0.031-0.103-0.047-0.164-0.047
		c-0.204,0-0.305,0.086-0.305,0.258c0,0.047,0.015,0.086,0.047,0.117c0.718,1.031,1.343,2.266,1.875,3.703
		c-3.251,0.328-6.024,0.531-8.32,0.609c2.625-2.656,5.476-6.352,8.555-11.086c1.093,0,1.641-0.203,1.641-0.609
		s-1.282-1.18-3.845-2.32c-0.375,1.469-1.047,3.133-2.015,4.992c-1.641,3.141-3.516,6.164-5.625,9.07
		C251.46,20.814,250.547,20.83,249.328,20.83L249.328,20.83z M284.53,26.924v1.547c0,0.641,0.414,0.961,1.242,0.961
		c1.125,0,1.688-0.383,1.688-1.148l-0.14-8.039v-3.398c0.797-0.516,1.195-0.914,1.195-1.195c0-0.266-0.274-0.633-0.82-1.102
		c-0.938-0.797-1.517-1.195-1.735-1.195c-0.266,0-0.819,0.492-1.663,1.477h-7.125c1.749-2.078,3.429-4.492,5.038-7.242
		c1.156-0.313,1.735-0.648,1.735-1.008c0-0.281-0.305-0.727-0.915-1.336c-0.969-0.938-1.578-1.406-1.827-1.406
		c-0.267,0-0.86,0.531-1.781,1.594h-6.329c0.078-0.203,0.242-0.586,0.492-1.148c0.235-0.563,0.423-1.016,0.563-1.359
		c1.109-0.219,1.665-0.539,1.665-0.961c0-0.25-0.22-0.469-0.657-0.656c-0.468-0.203-1.663-0.563-3.585-1.078
		c-0.204,1.578-0.735,3.492-1.594,5.742c-1.563,3.953-3.79,7.711-6.68,11.273c-0.032,0.031-0.047,0.07-0.047,0.117
		c0,0.266,0.132,0.398,0.397,0.398c0.048,0,0.095-0.016,0.142-0.047c1.062-0.891,2.116-1.883,3.164-2.977v10.313l-0.094,12.867
		c0,1.797,0.538,3.023,1.617,3.68c1.249,0.75,3.905,1.125,7.969,1.125c5.733,0,9.577-0.289,11.531-0.867
		c1.702-0.469,2.554-1.156,2.554-2.063c0-0.563-0.233-0.93-0.702-1.102c-0.469-0.188-0.703-0.563-0.703-1.125l-0.023-2.414v-1.805
		c0-0.188-0.11-0.281-0.329-0.281c-0.14,0-0.227,0.055-0.257,0.164c-0.579,2.813-1.235,4.625-1.969,5.438
		c-0.407,0.516-1.181,0.867-2.32,1.055c-1.376,0.234-3.97,0.352-7.781,0.352c-2.11,0-3.618-0.078-4.523-0.234
		c-0.938-0.172-1.556-0.484-1.852-0.938c-0.251-0.359-0.375-0.992-0.375-1.898V26.924H284.53z M269.695,16.025h5.977v9.703h-5.977
		V16.025z M272.508,6.627h6.82c-0.767,2.453-1.923,5.188-3.469,8.203h-5.837c-0.688-0.453-1.405-0.836-2.155-1.148
		C269.647,11.525,271.195,9.174,272.508,6.627L272.508,6.627z M278.32,25.729v-9.703h6.21v9.703H278.32z M248.578,7.611
		c-0.032-0.016-0.063-0.023-0.094-0.023c-0.173,0-0.258,0.086-0.258,0.258c0,0.063,0.023,0.109,0.07,0.141
		c1.89,1.75,3.117,3.633,3.68,5.648c0.328,1.125,0.796,1.688,1.406,1.688c0.952,0,1.43-0.609,1.43-1.828
		c0-1.125-0.735-2.328-2.203-3.609c1.688-1.875,3.272-4.109,4.758-6.703c1.14-0.125,1.711-0.414,1.711-0.867
		c0-0.266-0.243-0.516-0.727-0.75c-0.454-0.234-1.61-0.672-3.469-1.313c-0.063,0.828-0.337,2.008-0.82,3.539
		c-0.642,2.031-1.415,3.844-2.32,5.438C250.726,8.541,249.671,8.002,248.578,7.611L248.578,7.611z M261.585,34.377
		c0.048,0.875,0.142,1.469,0.282,1.781c0.155,0.344,0.476,0.516,0.961,0.516c0.952,0,1.43-0.781,1.43-2.344
		c0-2.469-1.36-4.945-4.078-7.43c-0.047-0.047-0.11-0.07-0.188-0.07c-0.22,0-0.328,0.086-0.328,0.258c0,0.031,0,0.063,0,0.094
		C260.772,29.197,261.413,31.596,261.585,34.377L261.585,34.377z M250.242,35.807c0.718-1.641,1.476-3.891,2.273-6.75
		c0.921-0.203,1.382-0.477,1.382-0.82c0-0.266-0.172-0.477-0.515-0.633c-0.313-0.156-1.415-0.523-3.305-1.102
		c-0.11,1.641-0.384,3.547-0.82,5.719c-0.72,3.438-1.517,6.109-2.391,8.016c-0.017,0.016-0.024,0.039-0.024,0.07
		c0,0.203,0.125,0.305,0.375,0.305c0.095,0,0.165-0.031,0.212-0.094C248.538,39.064,249.476,37.494,250.242,35.807L250.242,35.807z"
		/>
	<path fill="#083E00" d="M260.766,68.825c-0.532,2.938-1.142,5.352-1.828,7.242c-2.157-2.688-4.751-5.391-7.782-8.109
		c-0.046-0.031-0.093-0.047-0.14-0.047c-0.267,0-0.398,0.133-0.398,0.398c0,0.047,0.015,0.094,0.047,0.141
		c2.719,3.156,5.156,6.531,7.313,10.125c-2.501,5.922-6.321,10.992-11.461,15.211c-0.048,0.047-0.07,0.094-0.07,0.141
		c0,0.313,0.147,0.469,0.445,0.469c0.03,0,0.062-0.008,0.094-0.023c5.499-3.313,9.687-7.633,12.563-12.961
		c0.905,1.719,1.679,3.445,2.32,5.18c0.405,1.266,0.71,2.078,0.913,2.438c0.235,0.391,0.587,0.586,1.055,0.586
		c0.892,0,1.337-0.688,1.337-2.063c0-1.875-1.423-4.852-4.267-8.93c1.797-4.156,2.93-8.828,3.399-14.016h4.663
		c0.406,0,0.61-0.141,0.61-0.422c0-0.313-0.321-0.727-0.961-1.242c-1.329-1.156-2.109-1.734-2.345-1.734
		c-0.28,0-1.016,0.734-2.202,2.203h-4.853v-6.633c1.063-0.453,1.595-0.867,1.595-1.242c0-0.266-0.22-0.477-0.657-0.633
		c-0.608-0.203-1.961-0.422-4.054-0.656c0.155,1.391,0.233,2.734,0.233,4.031v5.133h-5.765c-1.251,0-2.415-0.109-3.492-0.328
		l0.422,1.805c1.296-0.188,2.335-0.281,3.117-0.281h10.711C261.265,65.591,261.077,66.997,260.766,68.825L260.766,68.825z
		 M272.063,65.778c-1.329,0-2.587-0.109-3.773-0.328l0.421,1.805c1.391-0.188,2.532-0.281,3.423-0.281h8.438v24.703
		c0,0.578-0.274,0.867-0.82,0.867c-1.5,0-3.563-0.094-6.188-0.281c-0.157,0-0.234,0.125-0.234,0.375c0,0.203,0.062,0.32,0.188,0.352
		c1.952,0.391,3.312,0.773,4.077,1.148c0.75,0.391,1.164,0.93,1.242,1.617c0.078,0.516,0.289,0.773,0.633,0.773
		c0.953,0,1.899-0.305,2.837-0.914c0.952-0.656,1.43-1.695,1.43-3.117l-0.188-18.141v-7.383h6.375c0.452,0,0.68-0.141,0.68-0.422
		c0-0.266-0.321-0.711-0.961-1.336c-1.251-1.188-2.001-1.781-2.25-1.781c-0.281,0-1.001,0.781-2.156,2.344h-1.688v-9.117
		c1.093-0.469,1.641-0.898,1.641-1.289c0-0.313-0.234-0.539-0.703-0.68c-0.563-0.172-1.962-0.383-4.195-0.633
		c0.188,1.219,0.281,4.836,0.281,10.852v0.867H272.063z M273.445,81.224c0.296,1.438,0.835,2.156,1.617,2.156
		c1.046,0,1.57-0.734,1.57-2.203c0-1.328-0.516-2.836-1.548-4.523c-1.313-2.094-3.109-3.922-5.39-5.484
		c-0.048-0.031-0.103-0.047-0.165-0.047c-0.25,0-0.375,0.102-0.375,0.305c0,0.047,0.016,0.094,0.048,0.141
		C271.28,74.286,272.695,77.505,273.445,81.224L273.445,81.224z"/>
	<path fill="#083E00" d="M259.617,138.427c3.03-5.281,6.328-11.633,9.891-19.055c0.577-1.219,1.116-1.969,1.617-2.25
		c0.609-0.281,0.914-0.711,0.914-1.289c0-0.875-0.767-1.773-2.297-2.695c-1.266-0.766-2.47-1.148-3.609-1.148
		c-0.985,0-1.478,0.227-1.478,0.68c0,0.173,0.172,0.344,0.517,0.516c1.5,0.735,2.25,1.539,2.25,2.414
		c0,0.375-0.196,1.047-0.587,2.016c-2.797,7.281-5.905,14.258-9.327,20.93c-0.72,0.094-1.453,0.141-2.203,0.141
		c-1.048,0-1.884-0.53-2.508-1.594c-0.173-0.344-0.345-0.516-0.517-0.516c-0.125,0-0.266,0.117-0.421,0.352
		c-0.204,0.281-0.305,0.578-0.305,0.891c0,0.859,0.351,1.837,1.055,2.93c0.765,1.281,1.483,1.922,2.156,1.922
		c0.39,0,0.741-0.164,1.055-0.492c0.249-0.234,0.874-0.438,1.875-0.609c8.374-1.28,16.132-2.609,23.272-3.984
		c0.531,0.938,1.063,2.172,1.595,3.703c0.28,0.859,0.835,1.289,1.664,1.289c0.405,0,0.765-0.133,1.078-0.398
		c0.375-0.313,0.563-0.742,0.563-1.289c0-1.344-0.563-2.867-1.688-4.57c-1.875-2.859-4.61-5.469-8.203-7.828
		c-0.281-0.188-0.548-0.281-0.797-0.281c-0.392,0-0.587,0.18-0.587,0.539c0,0.188,0.142,0.422,0.423,0.703
		c1.765,1.656,3.483,3.836,5.156,6.539C272.562,137.114,265.71,137.927,259.617,138.427L259.617,138.427z"/>
	<path fill="#083E00" d="M261.328,179.959c-0.032,0.501-0.11,0.977-0.235,1.43c-0.125,0.391-0.188,0.813-0.188,1.266
		c0,0.859,0.195,1.641,0.587,2.344c0.422,0.766,0.897,1.148,1.43,1.148c0.733,0,1.101-0.656,1.101-1.969
		c0-6.047,0.048-10.508,0.142-13.383c0.046-1.14,0.211-1.852,0.491-2.133c0.313-0.313,0.47-0.633,0.47-0.961
		c0-0.577-0.673-1.313-2.016-2.203c-1.329-0.858-2.454-1.289-3.375-1.289c-0.204,0-0.422,0.07-0.656,0.211
		c-0.328,0.203-0.493,0.422-0.493,0.656c0,0.188,0.212,0.36,0.633,0.516c0.875,0.375,1.5,0.844,1.875,1.406
		c0.282,0.391,0.423,1.266,0.423,2.625C261.516,173.03,261.452,176.476,261.328,179.959L261.328,179.959z M274.102,170.631
		c0,3.563-0.087,6.484-0.259,8.766c-0.313,3.97-1.147,7.148-2.508,9.539c-1.141,2.031-2.882,3.984-5.226,5.859
		c-2.672,2.125-5.517,3.695-8.531,4.711c-0.313,0.094-0.469,0.297-0.469,0.609c0,0.391,0.226,0.586,0.68,0.586
		c0.108,0,0.413-0.047,0.914-0.141c6.546-1.953,11.374-5.156,14.484-9.609c1.796-2.578,2.913-6.015,3.352-10.313
		c0.202-1.749,0.366-5.944,0.491-12.586c0.031-1.28,0.203-2.077,0.517-2.391c0.296-0.328,0.445-0.647,0.445-0.961
		c0-0.781-0.782-1.515-2.345-2.203c-1.438-0.641-2.577-0.961-3.421-0.961c-0.407,0-0.79,0.079-1.148,0.234
		c-0.423,0.203-0.633,0.431-0.633,0.68c0,0.313,0.21,0.516,0.633,0.609c1.219,0.344,2.015,0.727,2.39,1.148
		c0.423,0.454,0.634,1.242,0.634,2.367V170.631z"/>
	<path fill="#083E00" d="M266.085,216.896c0,0.594,0.142,1.992,0.423,4.195c0.422,3.281,0.663,5.32,0.727,6.117
		c0.452,5.547,0.68,9.367,0.68,11.461c0,1.063-0.047,2.055-0.142,2.977c0,0.359,0.18,0.539,0.54,0.539
		c0.858,0,1.289-0.273,1.289-0.82c-0.094-0.969-0.142-2.023-0.142-3.164c0-3.313,0.235-7.07,0.704-11.273
		c0.703-6.281,1.054-9.625,1.054-10.031c0-0.906-0.163-1.57-0.491-1.992c-0.392-0.5-1.071-0.75-2.039-0.75
		C266.953,214.154,266.085,215.068,266.085,216.896L266.085,216.896z M266.742,247.764c-0.595,0.531-0.891,1.234-0.891,2.109
		c0,0.734,0.233,1.359,0.703,1.875c0.53,0.594,1.233,0.891,2.109,0.891c0.765,0,1.397-0.234,1.898-0.703
		c0.577-0.516,0.867-1.203,0.867-2.063c0-0.766-0.228-1.406-0.68-1.922c-0.516-0.594-1.212-0.891-2.086-0.891
		C267.897,247.061,267.258,247.295,266.742,247.764L266.742,247.764z"/>
	<path fill="#083E00" d="M198.78,22.712v0.726c0,0.704,0.414,1.055,1.242,1.055c1.25,0,1.875-0.429,1.875-1.288l-0.188-12.305V5.813
		c0.859-0.546,1.29-0.976,1.29-1.288c0-0.282-0.274-0.641-0.82-1.078c-1.11-0.892-1.767-1.337-1.97-1.337
		c-0.188,0-0.772,0.516-1.757,1.547h-23.556c-1.25-0.702-2.43-1.265-3.538-1.688c0.188,1.548,0.281,4.29,0.281,8.228l-0.188,13.383
		c0,0.702,0.398,1.055,1.194,1.055c1.25,0,1.875-0.446,1.875-1.337v-0.585H198.78z M174.522,4.852h10.524v7.595h-10.524V4.852z
		 M185.047,13.642v7.875h-10.524v-7.875H185.047z M187.835,21.517v-7.875h10.945v7.875H187.835z M187.835,12.446V4.852h10.945v7.595
		H187.835z M203.68,37.125c0.188,0.782,0.382,1.321,0.586,1.617c0.218,0.329,0.546,0.492,0.984,0.492
		c1.125,0,1.688-0.765,1.688-2.297c0-1.202-0.571-2.476-1.711-3.82c-1.392-1.641-3.259-2.983-5.602-4.03
		c-0.032-0.016-0.063-0.024-0.095-0.024c-0.188,0-0.28,0.094-0.28,0.281c0,0.032,0.015,0.063,0.047,0.094
		C201.453,31.594,202.913,34.157,203.68,37.125L203.68,37.125z M188.258,31.267c0.249,0.734,0.476,1.242,0.68,1.522
		c0.234,0.328,0.554,0.492,0.96,0.492c0.423,0,0.781-0.188,1.079-0.563c0.296-0.375,0.445-0.844,0.445-1.406
		c0-1.046-0.548-2.069-1.642-3.07c-1.265-1.14-2.984-2.022-5.155-2.648c-0.017,0-0.032,0-0.047,0c-0.204,0-0.306,0.087-0.306,0.258
		c0,0.063,0.016,0.11,0.048,0.141C186.242,27.759,187.555,29.517,188.258,31.267L188.258,31.267z M170.68,33.305
		c-0.797,1.298-1.72,2.22-2.766,2.767c-1.188,0.594-1.781,1.266-1.781,2.016c0,0.453,0.14,0.859,0.422,1.218
		c0.312,0.392,0.71,0.587,1.195,0.587c1.187,0,2.25-0.719,3.188-2.157c1.108-1.718,1.664-3.858,1.664-6.422
		c0-0.64-0.017-1.125-0.047-1.453c0-0.155-0.103-0.234-0.305-0.234c-0.157,0-0.243,0.063-0.258,0.188
		C171.805,31.017,171.366,32.18,170.68,33.305L170.68,33.305z M195.641,36.892c-0.36,0.766-0.82,1.352-1.383,1.758
		c-0.548,0.391-1.251,0.655-2.11,0.797c-0.983,0.172-2.617,0.258-4.897,0.258c-2.766,0-4.579-0.133-5.438-0.399
		c-0.984-0.296-1.478-1.022-1.478-2.18v-8.32c1.063-0.437,1.595-0.851,1.595-1.242c0-0.249-0.196-0.437-0.587-0.563
		c-0.5-0.155-1.844-0.382-4.03-0.679c0.124,1.405,0.188,3.648,0.188,6.726l-0.095,4.266c0,1.845,0.517,3.11,1.548,3.797
		c1.219,0.797,3.804,1.195,7.757,1.195c4.609,0,7.797-0.258,9.563-0.773c1.563-0.515,2.345-1.187,2.345-2.015
		c0-0.531-0.188-0.883-0.563-1.055c-0.516-0.188-0.774-0.57-0.774-1.149c0-0.358,0.031-0.938,0.095-1.733
		c0.077-1.125,0.124-1.844,0.141-2.157c0-0.188-0.103-0.28-0.306-0.28c-0.14,0-0.227,0.063-0.257,0.188
		C196.405,35.032,195.968,36.22,195.641,36.892L195.641,36.892z"/>
	<path fill="#083E00" d="M194.516,67.737c1.89,1.063,3.577,2.625,5.063,4.688c1.655,2.297,2.484,4.313,2.484,6.047
		c0,0.501-0.243,0.789-0.728,0.867c-0.563,0.079-1.78,0.227-3.655,0.445c-0.485,0.047-0.727,0.188-0.727,0.422
		c0,0.375,0.211,0.586,0.632,0.633c1.422,0.173,2.462,0.375,3.118,0.609c0.687,0.25,1.219,0.633,1.594,1.148
		c0.296,0.422,0.71,0.633,1.242,0.633c1.219,0,1.828-1.055,1.828-3.164c0-2.531-0.891-4.992-2.672-7.383
		c-1.969-2.64-4.523-4.608-7.665-5.906c-0.156-0.078-0.313-0.117-0.468-0.117c-0.36,0-0.54,0.117-0.54,0.352
		C194.022,67.308,194.188,67.55,194.516,67.737L194.516,67.737z M180.547,88.854c0-0.563-0.103-1.063-0.305-1.5
		c-0.126-0.296-0.188-0.664-0.188-1.102c0-0.219,0.163-0.812,0.492-1.781c0.891-2.593,2.156-5.312,3.796-8.156
		c0.188-0.375,0.282-0.656,0.282-0.844c0-0.328-0.181-0.492-0.54-0.492c-0.313,0-0.578,0.18-0.796,0.539
		c-2.188,3.454-3.938,6.36-5.25,8.719c-0.281,0.516-0.603,0.773-0.961,0.773c-0.75,0-1.54-0.867-2.368-2.602
		c-0.859-1.843-1.288-4.578-1.288-8.203c0-2.719,0.179-4.608,0.538-5.672c0.297-0.858,0.445-1.547,0.445-2.063
		c0-1.063-0.75-2.227-2.25-3.492c-1.203-1.031-2.164-1.547-2.883-1.547c-0.453,0-0.68,0.141-0.68,0.422
		c0,0.141,0.148,0.352,0.446,0.633c0.796,0.75,1.343,1.43,1.641,2.039c0.312,0.642,0.468,1.5,0.468,2.578l-0.069,3.938
		c0,3.75,0.257,6.806,0.773,9.164c0.733,3.328,2.093,5.985,4.078,7.969c1.28,1.281,2.358,1.922,3.234,1.922
		C180.085,90.097,180.547,89.684,180.547,88.854L180.547,88.854z"/>
	<path fill="#083E00" d="M171.805,114.229c0.358,1.219,0.867,1.828,1.523,1.828c0.577,0,1.038-0.195,1.382-0.586
		c0.391-0.422,0.587-0.992,0.587-1.711c0-1.016-0.556-2.063-1.664-3.141c-1.313-1.297-3.117-2.359-5.415-3.188
		c-0.031-0.016-0.07-0.023-0.116-0.023c-0.22,0-0.329,0.086-0.329,0.258c0,0.047,0.016,0.094,0.048,0.141
		C169.804,109.697,171.132,111.838,171.805,114.229L171.805,114.229z M203.234,134.291c-1.829-1.453-3.524-3.344-5.087-5.672
		c-3.327-4.953-5.102-10.68-5.319-17.18c1.406-0.828,2.109-1.391,2.109-1.688c0-0.203-0.29-0.57-0.867-1.102
		c-0.907-0.797-1.462-1.195-1.665-1.195c-0.233,0-0.843,0.516-1.827,1.547h-5.953c-1.438,0-2.72-0.125-3.845-0.375l0.423,1.852
		c1.202-0.188,2.358-0.281,3.469-0.281h6.563c-0.595,6.125-1.884,11.43-3.867,15.914c-2.188,4.969-5.484,9.477-9.891,13.523
		c-0.032,0.047-0.047,0.102-0.047,0.164c0,0.297,0.117,0.445,0.351,0.445c0.031,0,0.063-0.008,0.095-0.023
		c7.655-5.156,12.655-12.008,15-20.555c1.093,4.844,2.358,8.586,3.797,11.227c1.749,3.219,4.187,6.195,7.313,8.93
		c0.796,0.672,1.336,1.008,1.617,1.008s0.507-0.211,0.679-0.633c0.266-0.672,0.523-1.148,0.774-1.43
		c0.249-0.313,0.647-0.555,1.195-0.727c0.188-0.078,0.28-0.195,0.28-0.352c0-0.063-0.031-0.109-0.093-0.141
		C206.296,136.455,204.562,135.369,203.234,134.291L203.234,134.291z M192.897,144.604c-6.594,0-11.102-0.477-13.522-1.43
		c-1.798-0.781-3.204-2.125-4.22-4.031v-11.484c0.859-0.578,1.29-1.008,1.29-1.289c0-0.328-0.258-0.711-0.773-1.148
		c-1.031-0.906-1.688-1.359-1.969-1.359c-0.22,0-0.837,0.563-1.852,1.688h-2.789c-1.517,0-2.859-0.125-4.032-0.375l0.47,1.922
		c1.125-0.234,2.312-0.352,3.563-0.352h3.117v12.305c-1.47,1.266-3.024,2.32-4.664,3.164c-1.001,0.5-1.875,0.852-2.625,1.055
		c1.547,2.969,2.515,4.453,2.906,4.453c0.483,0,0.726-0.594,0.726-1.781c0-0.078,0-0.203,0-0.375c1.97-2,3.798-4.203,5.485-6.609
		c1.015,2.641,2.484,4.617,4.406,5.93c2.499,1.766,7.89,2.648,16.171,2.648c4.595,0,8.688-0.156,12.282-0.469
		c0.499-0.047,0.788-0.305,0.867-0.773c0.062-0.594,0.179-1.031,0.351-1.313c0.188-0.313,0.594-0.641,1.22-0.984
		c0.108-0.063,0.163-0.164,0.163-0.305c0-0.219-0.086-0.313-0.258-0.281C203.522,144.205,198.085,144.604,192.897,144.604
		L192.897,144.604z"/>
	<path fill="#083E00" d="M198.992,178.994c0.108-0.359,0.366-0.742,0.773-1.148c0.343-0.359,0.515-0.695,0.515-1.008
		c0-0.719-0.563-1.531-1.688-2.438c-1.391-1.094-2.633-1.641-3.726-1.641c-0.703,0-1.055,0.227-1.055,0.68
		c0,0.141,0.141,0.281,0.422,0.422c1.53,0.688,2.296,1.617,2.296,2.789c0,1.438-0.445,3.656-1.335,6.656
		c-3.642-1.516-7.781-2.43-12.423-2.742c0.438-0.859,1.665-3.461,3.681-7.805c1.765-3.781,2.874-6.039,3.327-6.773
		c0.406-0.469,0.61-0.875,0.61-1.219c0-0.469-0.384-0.914-1.148-1.336c-0.829-0.516-1.517-0.773-2.063-0.773
		c-0.298,0-0.603,0.18-0.914,0.539c-0.423,0.469-0.884,0.789-1.383,0.961c-3.017,0.953-5.228,1.43-6.633,1.43
		c-0.72,0-1.423-0.656-2.109-1.969c-0.157-0.313-0.313-0.469-0.469-0.469c-0.157,0-0.29,0.125-0.399,0.375
		c-0.125,0.266-0.188,0.57-0.188,0.914c0,0.531,0.306,1.367,0.915,2.508c0.609,1.016,1.249,1.523,1.922,1.523
		c0.343,0,0.624-0.094,0.844-0.281c0.375-0.297,1.062-0.609,2.063-0.938c1.749-0.609,3.46-1.125,5.132-1.547
		c0.078-0.016,0.165-0.023,0.258-0.023c0.188,0,0.282,0.078,0.282,0.234c0,0.078-0.017,0.172-0.047,0.281
		c-1.438,4.297-3.423,9.102-5.953,14.414c-3.392,0.063-6.398,1.063-9.023,3c-2.173,1.578-3.259,3.445-3.259,5.602
		c0,1.141,0.305,2.031,0.915,2.672c0.609,0.656,1.39,0.984,2.344,0.984c1.39,0,2.671-0.414,3.844-1.242
		c1.734-1.188,3.944-4.297,6.633-9.328c4.64,0.328,8.765,1.398,12.375,3.211c-1.266,3.109-2.681,5.664-4.243,7.664
		c-1.797,2.297-4.203,4.375-7.218,6.234c-0.422,0.25-0.633,0.453-0.633,0.609s0.054,0.313,0.163,0.469
		c0.109,0.172,0.235,0.258,0.375,0.258c0.25,0,0.438-0.031,0.563-0.094c5.907-2.516,10.375-7.18,13.407-13.992
		c2.546,1.313,4.655,2.672,6.328,4.078c0.656,0.547,1.219,0.82,1.688,0.82c0.296,0,0.563-0.117,0.797-0.352
		c0.328-0.281,0.492-0.672,0.492-1.172c0-0.688-0.399-1.406-1.195-2.156c-1.251-1.078-3.656-2.344-7.219-3.797
		C197.835,183.393,198.289,181.697,198.992,178.994L198.992,178.994z M175.602,188.322c-1.438,1.438-2.681,2.156-3.727,2.156
		c-1.063,0-1.595-0.625-1.595-1.875c0-1.469,0.781-2.813,2.345-4.031c1.765-1.375,4.116-2.117,7.055-2.227
		C178.304,184.986,176.944,186.979,175.602,188.322L175.602,188.322z"/>
	<path fill="#083E00" d="M197,228.718c2.468-0.484,4.617-1.047,6.445-1.688c0.921-0.344,1.383-0.813,1.383-1.406
		c0-0.328-0.164-0.602-0.493-0.82c-0.327-0.219-0.726-0.328-1.194-0.328c-0.97,0-1.767,0.18-2.391,0.539
		c-0.75,0.406-1.228,0.648-1.43,0.727c-0.72,0.234-1.509,0.438-2.367,0.609c0-1.516,0.054-3.063,0.164-4.641
		c0.047-1,0.249-1.656,0.609-1.969c0.39-0.328,0.586-0.68,0.586-1.055c0-0.75-0.673-1.438-2.016-2.063
		c-1.157-0.578-2.259-0.867-3.305-0.867c-0.454,0-0.867,0.102-1.242,0.305c-0.422,0.234-0.633,0.484-0.633,0.75
		c0,0.328,0.202,0.492,0.609,0.492c0.952,0,1.711,0.188,2.273,0.563c0.375,0.281,0.577,0.891,0.609,1.828
		c0.124,2.75,0.188,5.117,0.188,7.102c-3,0.484-5.587,0.727-7.758,0.727c-1.61,0-2.859-0.609-3.75-1.828
		c-0.267-0.391-0.509-0.586-0.727-0.586c-0.282,0-0.422,0.148-0.422,0.445c0,0.188,0.047,0.422,0.14,0.703
		c0.922,2.25,2.603,3.375,5.04,3.375c2.515,0,5.022-0.18,7.522-0.539l0.142,13.406c-1.406-0.359-2.923-0.539-4.547-0.539
		c-2.001,0-3.603,0.383-4.805,1.148c-1.313,0.813-1.969,1.914-1.969,3.305c0,1.313,0.563,2.391,1.688,3.234
		c1.266,0.953,2.944,1.43,5.039,1.43c2.156,0,3.858-0.516,5.109-1.547c1.233-0.984,1.852-2.227,1.852-3.727
		c1.828,1.016,3.647,2.234,5.461,3.656c0.499,0.375,0.976,0.563,1.43,0.563c0.093,0,0.179-0.008,0.258-0.023
		c0.75-0.172,1.102-0.672,1.055-1.5c-0.063-0.5-0.337-0.945-0.82-1.336c-1.673-1.359-4.118-2.656-7.337-3.891
		C197.132,239.257,197,234.405,197,228.718L197,228.718z M193.742,247.796c-0.845,0.813-2.095,1.219-3.75,1.219
		c-3.234,0-4.852-0.914-4.852-2.742c0-0.75,0.39-1.359,1.172-1.828c0.797-0.469,1.835-0.703,3.117-0.703
		c1.828,0,3.647,0.352,5.461,1.055C194.891,246.077,194.507,247.077,193.742,247.796L193.742,247.796z M173.188,232.608
		c0.53-2.797,1.257-5.359,2.18-7.688c0.218-0.75,0.468-1.289,0.75-1.617c0.452-0.516,0.68-1.047,0.68-1.594
		c0-1.125-0.321-2.164-0.962-3.117c-0.608-0.969-1.281-1.711-2.015-2.227c-0.407-0.313-0.728-0.469-0.961-0.469
		c-0.375,0-0.563,0.156-0.563,0.469c0,0.125,0.077,0.32,0.233,0.586c0.734,1.203,1.103,2.336,1.103,3.398
		c0,1.031-0.258,2.445-0.773,4.242c-1.563,6-2.344,11.117-2.344,15.352c0,5.047,0.609,8.734,1.827,11.063
		c0.423,0.828,0.969,1.242,1.642,1.242c0.733,0,1.101-0.43,1.101-1.289l-0.046-2.883c0-0.281,0.141-1.102,0.421-2.461
		c0.095-0.422,0.992-3.641,2.695-9.656c0.063-0.188,0.095-0.344,0.095-0.469c0-0.422-0.141-0.633-0.422-0.633
		c-0.298,0-0.509,0.18-0.633,0.539c-1.298,3.141-2.501,6.375-3.61,9.703c-0.063,0.188-0.188,0.281-0.375,0.281
		c-0.172,0-0.32-0.289-0.444-0.867c-0.188-1-0.281-2.82-0.281-5.461C172.484,237.163,172.718,235.015,173.188,232.608
		L173.188,232.608z"/>
	<path fill="#083E00" d="M196.625,266.153c3.328,1.875,5.796,4.664,7.405,8.367c0.517,1.156,1.25,1.734,2.204,1.734
		c0.546,0,1.008-0.195,1.383-0.586c0.452-0.469,0.68-1.07,0.68-1.805c0-1.688-1.055-3.391-3.164-5.109
		c-2.11-1.688-4.735-2.891-7.875-3.609c-0.094-0.016-0.196-0.023-0.305-0.023c-0.469,0-0.703,0.141-0.703,0.422
		C196.25,265.81,196.374,266.013,196.625,266.153L196.625,266.153z"/>
	<path fill="#083E00" d="M94.188,7.734c-0.984-0.578-2.25-1.188-3.797-1.828c0.155,1.891,0.234,7.203,0.234,15.938l-0.234,21.141
		c0,0.734,0.445,1.102,1.336,1.102c1.249,0,1.875-0.453,1.875-1.359V40.43h21.984v2.109c0,0.734,0.445,1.102,1.336,1.102
		c1.249,0,1.875-0.445,1.875-1.336l-0.188-21.469V10.031c0.891-0.641,1.336-1.102,1.336-1.383c0-0.234-0.29-0.602-0.867-1.102
		c-1.095-0.938-1.767-1.406-2.016-1.406c-0.22,0-0.837,0.531-1.852,1.594h-13.828c0.999-1.078,2.227-2.711,3.68-4.898
		c1.187-0.219,1.781-0.539,1.781-0.961c0-0.266-0.274-0.516-0.82-0.75c-0.609-0.25-1.884-0.625-3.82-1.125
		c-0.047,0.891-0.305,2.109-0.773,3.656c-0.438,1.469-0.938,2.828-1.5,4.078H94.188z M93.602,39.234V29.203h21.984v10.031H93.602z
		 M93.602,28.008v-8.953h21.984v8.953H93.602z M93.602,17.859V8.93h21.984v8.93H93.602z"/>
	<path fill="#083E00" d="M95.266,86.381c-2.438,3.719-6.407,6.93-11.906,9.633c-0.063,0.031-0.094,0.094-0.094,0.188
		c0,0.359,0.124,0.539,0.375,0.539c0.015,0,0.03,0,0.047,0c5.578-1.781,9.851-4.305,12.82-7.57c3.39-3.734,5.382-8.797,5.977-15.188
		h11.555c-0.392,6.703-0.993,11.617-1.805,14.742c-0.579,2.203-1.477,3.305-2.695,3.305c-1.517,0-3.82-0.273-6.914-0.82
		c-0.173-0.031-0.258,0.125-0.258,0.469c0,0.219,0.054,0.336,0.164,0.352c1.858,0.453,3.211,0.914,4.055,1.383
		s1.319,1.047,1.43,1.734c0.047,0.297,0.108,0.484,0.188,0.563c0.077,0.078,0.265,0.117,0.563,0.117
		c1.608,0,2.843-0.383,3.703-1.148c0.984-0.828,1.796-2.289,2.438-4.383c0.938-2.969,1.641-8.055,2.109-15.258
		c0.827-0.531,1.242-0.914,1.242-1.148c0-0.297-0.258-0.68-0.773-1.148c-1.157-1.063-1.852-1.594-2.086-1.594
		c-0.204,0-0.813,0.547-1.828,1.641H94.516c-1.5,0-2.906-0.148-4.219-0.445l0.469,1.922c1.046-0.188,2.312-0.281,3.797-0.281h4.664
		C98.726,78.998,97.405,83.131,95.266,86.381L95.266,86.381z M116.875,65.873c-2.906-2.688-5.109-5.953-6.609-9.797
		c-0.173-0.375-0.258-0.648-0.258-0.82l0.188-0.773c0-0.25-0.141-0.375-0.422-0.375c-0.204,0-0.516,0.086-0.938,0.258
		c-0.532,0.234-0.797,0.422-0.797,0.563c0,0.188,0.155,0.391,0.469,0.609c0.234,0.188,0.429,0.461,0.586,0.82
		c1.812,5.063,4.008,9.078,6.586,12.047c1.765,2.156,3.938,4.109,6.516,5.859c0.858,0.578,1.483,0.867,1.875,0.867
		c0.281,0,0.483-0.242,0.609-0.727c0.265-0.703,0.516-1.195,0.75-1.477c0.296-0.328,0.718-0.508,1.266-0.539
		c0.188-0.031,0.281-0.148,0.281-0.352c0-0.141-0.056-0.227-0.164-0.258C123.233,70.654,119.922,68.686,116.875,65.873
		L116.875,65.873z M92.477,68.732c2.937-3.109,5.421-6.898,7.453-11.367c1.359-0.156,2.039-0.477,2.039-0.961
		c0-0.531-1.587-1.328-4.758-2.391c-0.234,1.203-0.72,2.688-1.453,4.453c-2.798,6.609-7.195,12.234-13.195,16.875
		c-0.047,0.047-0.07,0.102-0.07,0.164c0,0.328,0.141,0.492,0.422,0.492c0.015,0,0.038,0,0.07,0
		C86.688,73.92,89.852,71.498,92.477,68.732L92.477,68.732z"/>
	<path fill="#083E00" d="M105.32,115.654c0.452,0,0.882,0.016,1.289,0.046c3.469,0.173,6.343,1.235,8.625,3.188
		c2.702,2.313,4.055,5.392,4.055,9.234c0,4.017-1.649,7.376-4.945,10.078c-3.079,2.517-7.165,4.212-12.258,5.087
		c-0.548,0.125-0.82,0.383-0.82,0.772c0,0.36,0.234,0.54,0.703,0.54c0.03,0,0.07,0,0.117,0c5.046-0.282,9.405-1.531,13.078-3.75
		c4.858-2.922,7.289-6.892,7.289-11.907c0-4.046-1.345-7.444-4.031-10.195c-3.11-3.188-7.242-4.78-12.398-4.78
		c-5.595,0-10.235,1.727-13.922,5.179c-3.485,3.282-5.227,7.251-5.227,11.906c0,2.438,0.563,4.548,1.688,6.328
		c1.108,1.673,2.391,2.508,3.844,2.508c1.406,0,2.983-1.069,4.734-3.211c2.953-3.733,5.257-7.976,6.914-12.727
		c0.609-1.952,0.914-3.522,0.914-4.71c0-1.36-0.321-2.539-0.961-3.54C104.413,115.67,104.852,115.654,105.32,115.654L105.32,115.654
		z M103.094,117.904c0,1-0.228,2.148-0.68,3.445c-1.485,4.531-3.688,8.727-6.609,12.585c-1.406,1.86-2.531,2.79-3.375,2.79
		c-0.907,0-1.657-0.547-2.25-1.642c-0.767-1.483-1.148-3.101-1.148-4.851c0-3.688,1.296-6.852,3.891-9.492
		c2.531-2.594,5.733-4.211,9.609-4.853C102.906,116.263,103.094,116.936,103.094,117.904L103.094,117.904z"/>
	<path fill="#083E00" d="M24.07,8.935c0.905,1.203,1.647,1.805,2.227,1.805c0.469,0,0.858-0.172,1.172-0.516
		c0.328-0.375,0.492-0.859,0.492-1.453c0-1.297-0.978-2.578-2.93-3.844c-2.282-1.484-5.103-2.469-8.461-2.953
		c-0.204-0.031-0.305,0.07-0.305,0.305c0,0.094,0.047,0.164,0.141,0.211C19.406,3.927,21.961,6.075,24.07,8.935L24.07,8.935z
		 M39.633,29.513c0.171,1.094,0.39,1.852,0.656,2.273c0.265,0.438,0.687,0.656,1.266,0.656c1.249,0,1.875-0.883,1.875-2.648
		c0-1.547-0.603-3.266-1.805-5.156c-1.47-2.313-3.438-4.258-5.906-5.836c-0.047-0.031-0.103-0.047-0.164-0.047
		c-0.22,0-0.328,0.094-0.328,0.281c0,0.063,0.015,0.109,0.047,0.141C37.694,22.521,39.147,25.966,39.633,29.513L39.633,29.513z
		 M2.906,29.231c-0.829,0.609-1.242,1.281-1.242,2.016c0,0.516,0.147,0.945,0.445,1.289c0.343,0.391,0.788,0.586,1.336,0.586
		c1.313,0,2.421-0.813,3.328-2.438c1.046-1.875,1.57-4.336,1.57-7.383c0-1.172-0.094-2.406-0.281-3.703
		c-0.032-0.141-0.141-0.211-0.328-0.211s-0.29,0.078-0.305,0.234C6.991,23.981,5.484,27.185,2.906,29.231L2.906,29.231z
		 M31.852,36.146c-0.438,1.063-0.946,1.75-1.523,2.063c-0.548,0.297-1.204,0.5-1.969,0.609c-0.813,0.094-2.344,0.141-4.594,0.141
		c-2.109,0-3.579-0.063-4.406-0.188c-0.923-0.125-1.532-0.391-1.828-0.797c-0.234-0.328-0.352-0.938-0.352-1.828V14.302
		c1.155-0.453,1.734-0.914,1.734-1.383c0-0.313-0.228-0.547-0.68-0.703c-0.595-0.203-2.063-0.438-4.406-0.703
		c0.188,2.078,0.281,6.047,0.281,11.906l-0.141,13.102c0,2.016,0.452,3.367,1.359,4.055c1.125,0.844,3.727,1.266,7.805,1.266
		c4.858,0,8.14-0.273,9.844-0.82c1.53-0.484,2.297-1.25,2.297-2.297c0-0.5-0.188-0.836-0.563-1.008
		c-0.579-0.266-0.867-0.695-0.867-1.289c0-0.688,0.077-2.547,0.234-5.578c0-0.156-0.11-0.234-0.328-0.234
		c-0.173,0-0.274,0.063-0.305,0.188C32.789,33.349,32.257,35.13,31.852,36.146L31.852,36.146z"/>
	<path fill="#083E00" d="M36.281,56.314c0,0.25,0.062,0.414,0.188,0.492c1.765,1.078,3.077,2.359,3.938,3.844
		c0.516,0.859,1.038,1.289,1.57,1.289c0.265,0,0.499-0.102,0.703-0.305c0.265-0.25,0.398-0.578,0.398-0.984
		c0-1.047-0.72-2.07-2.156-3.07c-1.095-0.75-2.227-1.281-3.398-1.594c-0.328-0.094-0.586-0.141-0.773-0.141
		C36.437,55.846,36.281,56.002,36.281,56.314L36.281,56.314z M32.18,59.361c0,0.172,0.094,0.328,0.281,0.469
		c1.655,1.203,2.843,2.492,3.563,3.867c0.546,1.063,1.078,1.594,1.594,1.594c0.797,0,1.195-0.461,1.195-1.383
		c0-0.969-0.688-2.008-2.063-3.117c-0.923-0.766-2.109-1.406-3.563-1.922c-0.094-0.031-0.251-0.047-0.469-0.047
		C32.358,58.822,32.18,59.002,32.18,59.361L32.18,59.361z M39.82,73.916c-2.063-2.609-4.556-4.523-7.477-5.742
		c-0.188-0.094-0.415-0.141-0.68-0.141c-0.281,0-0.422,0.172-0.422,0.516c0,0.219,0.094,0.398,0.281,0.539
		c1.937,1.219,3.593,2.656,4.969,4.313c1.515,1.828,2.273,3.383,2.273,4.664c0,0.344-0.228,0.578-0.68,0.703
		c-1.078,0.328-2.962,0.75-5.648,1.266c-0.36,0.078-0.539,0.266-0.539,0.563c0,0.391,0.188,0.586,0.563,0.586c0.03,0,0.07,0,0.117,0
		c1.828-0.125,3.687-0.188,5.578-0.188c0.671,0,1.195,0.125,1.57,0.375c0.358,0.219,0.78,0.328,1.266,0.328
		c0.952,0,1.43-0.609,1.43-1.828C42.422,78.088,41.555,76.104,39.82,73.916L39.82,73.916z M20.813,63.369
		c0.405-0.859,0.804-1.391,1.195-1.594c0.452-0.188,0.68-0.508,0.68-0.961c0-0.844-0.571-1.609-1.711-2.297
		c-1.188-0.734-2.344-1.102-3.469-1.102c-0.86,0-1.47,0.125-1.828,0.375c-0.251,0.172-0.375,0.336-0.375,0.492
		c0,0.234,0.179,0.375,0.539,0.422c0.75,0.047,1.421,0.234,2.016,0.563c0.687,0.391,1.031,0.828,1.031,1.313
		c0,0.547-0.126,1.203-0.375,1.969c-0.626,1.922-1.359,3.828-2.203,5.719c-1.11,0.313-3.032,0.836-5.766,1.57
		c-1.47,0.422-2.595,0.633-3.375,0.633c-0.938,0-1.72-0.547-2.344-1.641c-0.188-0.313-0.328-0.469-0.422-0.469
		c-0.36,0-0.539,0.367-0.539,1.102c0.047,0.984,0.64,2.023,1.781,3.117c0.656,0.609,1.327,0.914,2.016,0.914
		c0.312,0,0.647-0.125,1.008-0.375c0.499-0.328,1.108-0.617,1.828-0.867c2.109-0.844,3.741-1.453,4.898-1.828
		c-2.642,5.609-6.392,12.203-11.25,19.781c-0.281,0.406-0.422,0.82-0.422,1.242c0,0.797,0.46,1.195,1.383,1.195
		c0.593,0,1.031-0.258,1.313-0.773c3.812-6.453,7.647-13.828,11.508-22.125c1.483-0.531,2.749-0.797,3.797-0.797
		c1.89,0,2.836,1.438,2.836,4.313c0,2.547-0.445,5.359-1.336,8.438c-1.048,3.375-2.203,5.758-3.469,7.148
		c-0.516,0.516-1.11,0.773-1.781,0.773c-0.516,0-0.931-0.078-1.242-0.234c-1.078-0.547-2.423-1.398-4.031-2.555
		c-0.22-0.156-0.384-0.234-0.492-0.234c-0.281,0-0.422,0.164-0.422,0.492c0,0.156,0.062,0.297,0.188,0.422
		c1.343,1.266,2.241,2.195,2.695,2.789c0.375,0.469,0.616,0.93,0.727,1.383c0.218,0.938,0.788,1.406,1.711,1.406
		c1.374,0,2.702-0.641,3.984-1.922c1.594-1.438,2.906-3.711,3.938-6.82c0.483-1.344,0.914-2.961,1.289-4.852
		c0.422-2.141,0.633-3.914,0.633-5.32c0-4.516-1.664-6.773-4.992-6.773c-0.876,0-1.898,0.109-3.07,0.328
		C19.125,67.229,19.765,65.775,20.813,63.369L20.813,63.369z"/>
	<path fill="#083E00" d="M25.195,109.06c1.28-0.172,1.922-0.507,1.922-1.008c0-0.5-1.563-1.187-4.688-2.063
		c-0.157,1.172-0.398,2.344-0.727,3.516c-0.767,2.828-1.898,5.773-3.398,8.836c-1.734,3.516-3.626,6.547-5.672,9.094
		c-0.032,0.047-0.047,0.086-0.047,0.117c0,0.281,0.164,0.422,0.492,0.422c0.047,0,0.085-0.016,0.117-0.047
		c3.827-3.531,6.867-7.515,9.117-11.953h2.555v20.297l-0.234,12.094c0,0.828,0.46,1.242,1.383,1.242
		c1.313,0,1.969-0.492,1.969-1.477l-0.141-12.82h14.016c0.422,0,0.633-0.156,0.633-0.469c0-0.25-0.352-0.664-1.055-1.242
		c-1.392-1.187-2.227-1.781-2.508-1.781c-0.234,0-1.017,0.766-2.344,2.297h-8.742v-8.836h13.875c0.405,0,0.609-0.141,0.609-0.422
		c0-0.344-0.352-0.789-1.055-1.336c-1.392-1.156-2.22-1.734-2.484-1.734c-0.281,0-1.063,0.766-2.344,2.297h-8.602v-8.109h15.352
		c0.422,0,0.633-0.156,0.633-0.469c0-0.281-0.384-0.75-1.148-1.406c-1.532-1.25-2.431-1.875-2.695-1.875
		c-0.234,0-1.078,0.852-2.531,2.555H22.898C23.695,113.06,24.46,111.153,25.195,109.06L25.195,109.06z M14.25,109.106
		c1.28-0.172,1.922-0.492,1.922-0.961c0-0.547-1.563-1.25-4.688-2.109c-0.126,1-0.431,2.329-0.914,3.984
		c-0.86,2.875-2.173,5.962-3.938,9.258c-2.079,3.829-4.274,7.047-6.586,9.656C0.015,128.95,0,128.981,0,129.028
		c0,0.281,0.147,0.422,0.445,0.422c0.047,0,0.085-0.016,0.117-0.047c2.546-2.234,4.694-4.5,6.445-6.797l-0.047,8.836
		c-0.063,6-0.134,11.023-0.211,15.07c-0.017,1.125-0.023,1.781-0.023,1.969c0,0.797,0.445,1.195,1.336,1.195
		c1.219,0,1.828-0.5,1.828-1.5l-0.047-16.852v-8.297c0.984-0.406,1.477-0.788,1.477-1.148c0-0.234-0.157-0.422-0.469-0.563
		c-0.392-0.172-1.228-0.367-2.508-0.586C10.5,117.544,12.469,113.669,14.25,109.106L14.25,109.106z"/>
	<path fill="#083E00" d="M24.211,173.429c-0.298,0.141-2.821,1.376-7.57,3.703c-0.673,0.328-1.235,0.492-1.688,0.492
		c-0.079,0-0.157,0-0.234,0c-0.501-0.062-1.031-0.516-1.594-1.359c-0.298-0.422-0.524-0.633-0.68-0.633
		c-0.281,0-0.422,0.305-0.422,0.914c0,0.656,0.366,1.477,1.102,2.461c1.031,1.282,1.976,1.922,2.836,1.922
		c0.53,0,0.976-0.241,1.336-0.727c0.312-0.358,0.812-0.804,1.5-1.336c2.702-1.875,4.828-3.202,6.375-3.984
		c2.358-1.155,4.664-1.734,6.914-1.734c2.156,0,3.867,0.656,5.133,1.969c1.155,1.188,1.734,2.806,1.734,4.852
		c0,2.876-1.649,5.337-4.945,7.383c-2.845,1.734-6.556,2.906-11.133,3.516c-0.485,0.047-0.727,0.251-0.727,0.609
		c0,0.454,0.288,0.68,0.867,0.68c0.546,0,0.976-0.015,1.289-0.047c4.53-0.328,8.405-1.383,11.625-3.164c3.999-2.265,6-5.18,6-8.742
		c0-2.421-0.914-4.468-2.742-6.141c-1.828-1.734-4.212-2.602-7.148-2.602C29.71,171.46,27.101,172.116,24.211,173.429
		L24.211,173.429z"/>
	<path fill="#083E00" d="M34.383,218.7c-0.532,0.297-1.282,0.547-2.25,0.75l-20.836,5.32c-1.406,0.359-2.431,0.539-3.07,0.539
		c-0.609,0.016-1.148-0.095-1.617-0.329c-0.438-0.218-0.97-0.671-1.594-1.358c-0.281-0.282-0.492-0.422-0.633-0.422
		c-0.313,0-0.469,0.305-0.469,0.914c0,0.719,0.429,1.633,1.289,2.741c1.125,1.313,2.18,1.97,3.164,1.97
		c0.563,0,1.108-0.18,1.641-0.54c1.031-0.593,2.218-1.132,3.563-1.617c3.405-1.233,7.694-2.608,12.867-4.125l0.094,0.142
		c-2.578,1.438-4.664,3.359-6.258,5.766c-1.875,2.797-2.813,5.805-2.813,9.022c0,3.798,1.39,6.853,4.172,9.165
		c1.374,1.188,3.202,2.148,5.484,2.883c2.28,0.734,4.453,1.102,6.516,1.102c1.468,0,2.203-0.414,2.203-1.242
		c0-0.75-0.384-1.328-1.148-1.734c-0.876-0.469-2.095-0.742-3.656-0.82c-1.313-0.016-2.657-0.242-4.031-0.68
		c-1.72-0.547-3.157-1.313-4.313-2.298c-2.173-1.733-3.258-4.327-3.258-7.78c0-2.547,0.905-5.055,2.719-7.524
		c1.969-2.655,4.289-4.453,6.961-5.391c2.625-0.952,5.733-1.483,9.328-1.593c1.046-0.047,1.57-0.477,1.57-1.289
		c0-0.656-0.431-1.133-1.289-1.431c-1.001-0.422-1.915-0.632-2.742-0.632C35.397,218.208,34.866,218.372,34.383,218.7L34.383,218.7z
		"/>
	<path fill="#083E00" d="M30.516,278.938c1.89,1.063,3.577,2.625,5.063,4.688c1.655,2.297,2.484,4.313,2.484,6.047
		c0,0.5-0.243,0.789-0.727,0.867c-0.563,0.078-1.781,0.227-3.656,0.445c-0.485,0.047-0.727,0.188-0.727,0.422
		c0,0.375,0.211,0.586,0.633,0.633c1.421,0.172,2.461,0.375,3.117,0.609c0.687,0.25,1.219,0.633,1.594,1.148
		c0.296,0.422,0.71,0.633,1.242,0.633c1.219,0,1.828-1.055,1.828-3.164c0-2.531-0.891-4.992-2.672-7.383
		c-1.969-2.641-4.523-4.609-7.664-5.906c-0.157-0.078-0.313-0.117-0.469-0.117c-0.36,0-0.539,0.117-0.539,0.352
		C30.023,278.508,30.188,278.75,30.516,278.938L30.516,278.938z M16.547,300.055c0-0.563-0.103-1.063-0.305-1.5
		c-0.126-0.297-0.188-0.664-0.188-1.102c0-0.219,0.164-0.813,0.492-1.781c0.891-2.594,2.156-5.313,3.797-8.156
		c0.188-0.375,0.281-0.656,0.281-0.844c0-0.328-0.181-0.492-0.539-0.492c-0.313,0-0.579,0.18-0.797,0.539
		c-2.188,3.453-3.938,6.359-5.25,8.719c-0.281,0.516-0.603,0.773-0.961,0.773c-0.75,0-1.54-0.867-2.367-2.602
		c-0.86-1.844-1.289-4.578-1.289-8.203c0-2.719,0.179-4.609,0.539-5.672c0.296-0.859,0.445-1.547,0.445-2.063
		c0-1.063-0.75-2.227-2.25-3.492c-1.204-1.031-2.165-1.547-2.883-1.547c-0.454,0-0.68,0.141-0.68,0.422
		c0,0.141,0.147,0.352,0.445,0.633c0.797,0.75,1.343,1.43,1.641,2.039c0.312,0.641,0.469,1.5,0.469,2.578l-0.07,3.938
		c0,3.75,0.258,6.805,0.773,9.164c0.733,3.328,2.093,5.984,4.078,7.969c1.28,1.281,2.358,1.922,3.234,1.922
		C16.085,301.297,16.547,300.883,16.547,300.055L16.547,300.055z"/>
	<path fill="#083E00" d="M24.656,351.412c-1.673-1.703-3.609-2.555-5.813-2.555c-1.235,0-2.259,0.305-3.07,0.914
		c-0.954,0.703-1.43,1.664-1.43,2.883c0,1.406,0.694,2.586,2.086,3.539c1.671,1.125,3.984,1.688,6.938,1.688
		c3.218,0,6.038-0.836,8.461-2.508c3.03-2.094,4.547-4.922,4.547-8.484c0-2.344-0.696-4.352-2.086-6.023
		c-1.907-2.297-4.798-3.445-8.672-3.445c-3.141,0-6.501,1.234-10.078,3.703l-0.094-0.047c7.983-8.906,12.101-13.484,12.352-13.734
		c0.938-0.953,1.734-1.516,2.391-1.688c0.609-0.156,0.914-0.492,0.914-1.008c0-0.641-0.548-1.328-1.641-2.063
		c-0.954-0.703-1.734-1.055-2.344-1.055c-0.392,0-0.727,0.141-1.008,0.422c-0.392,0.391-0.79,0.648-1.195,0.773
		c-2.923,0.859-5.071,1.445-6.445,1.758c-1.188,0.25-2.095,0.375-2.719,0.375c-0.782,0-1.556-0.5-2.32-1.5
		c-0.313-0.422-0.586-0.633-0.82-0.633c-0.281,0-0.422,0.258-0.422,0.773c0,0.859,0.429,1.82,1.289,2.883
		c0.921,1.125,1.819,1.688,2.695,1.688c0.312,0,0.71-0.211,1.195-0.633c0.218-0.188,0.633-0.398,1.242-0.633
		c2.531-0.969,5.109-1.891,7.734-2.766c0.141-0.047,0.258-0.07,0.352-0.07c0.155,0,0.234,0.055,0.234,0.164
		c0,0.078-0.056,0.195-0.164,0.352c-4.86,6.422-10.664,13.211-17.414,20.367c-0.642,0.703-0.961,1.313-0.961,1.828
		c0,0.406,0.155,0.758,0.469,1.055c0.328,0.328,0.703,0.492,1.125,0.492c0.499,0,0.882-0.18,1.148-0.539
		c1.313-1.672,2.429-2.93,3.352-3.773c3.671-3.297,7.46-4.945,11.367-4.945c1.89,0,3.499,0.508,4.828,1.523
		c1.812,1.391,2.719,3.477,2.719,6.258c0,1.563-0.524,3.094-1.57,4.594c-1.266,1.813-2.923,3.031-4.969,3.656
		C26.515,353.764,25.781,352.568,24.656,351.412L24.656,351.412z M22.406,355.678c-2.016,0-3.618-0.328-4.805-0.984
		c-1.142-0.641-1.711-1.406-1.711-2.297c0-0.563,0.179-1.031,0.539-1.406c0.452-0.5,1.132-0.75,2.039-0.75
		c1.015,0,2.069,0.461,3.164,1.383c1.296,1.078,2.163,2.359,2.602,3.844C23.843,355.607,23.233,355.678,22.406,355.678
		L22.406,355.678z"/>
</g>
</svg>
