<?xml version="1.0" encoding="utf-8"?>
<!-- Generator: Adobe Illustrator 14.0.0, SVG Export Plug-In . SVG Version: 6.00 Build 43363)  -->
<!DOCTYPE svg PUBLIC "-//W3C//DTD SVG 1.1 Basic//EN" "http://www.w3.org/Graphics/SVG/1.1/DTD/svg11-basic.dtd">
<svg version="1.1" baseProfile="basic" id="レイヤー_1"
	 xmlns="http://www.w3.org/2000/svg" xmlns:xlink="http://www.w3.org/1999/xlink" x="0px" y="0px" width="209.401px"
	 height="353.89px" viewBox="-40.302 0 209.401 353.89" xml:space="preserve">
<g>
	<path fill="#FFFFFF" d="M131.761,29.174c-0.047,4.281-0.109,8.18-0.188,11.695c-0.031,1.107-0.047,1.693-0.047,1.758
		c0,0.828,0.398,1.242,1.195,1.242c1.281,0,1.922-0.5,1.922-1.5V21.885c2.438,1.641,4.18,3.516,5.227,5.625
		c0.438,0.891,0.953,1.336,1.547,1.336c0.359,0,0.673-0.133,0.938-0.398c0.328-0.313,0.492-0.74,0.492-1.287
		c0-2.299-2.656-4.346-7.969-6.143c2.344-2.547,4.358-5.461,6.047-8.742c1.094-0.219,1.641-0.508,1.641-0.865
		c0-0.281-0.272-0.695-0.82-1.242c-1.155-1.125-1.827-1.688-2.016-1.688c-0.203,0-0.742,0.5-1.617,1.5h-3.516V2.877
		c1.125-0.469,1.688-0.893,1.688-1.268c0-0.266-0.211-0.477-0.633-0.633c-0.625-0.232-2.016-0.482-4.172-0.75
		c0.188,1.5,0.281,2.969,0.281,4.406v5.344h-2.789c-1.406,0-2.797-0.117-4.172-0.352l0.491,1.875
		c0.97-0.221,2.195-0.328,3.681-0.328h9.281c-3.345,6.906-8.242,12.617-14.695,17.133c-0.063,0.031-0.094,0.086-0.094,0.164
		c0,0.281,0.133,0.422,0.397,0.422c0.017,0,0.039,0,0.07,0c3.016-1.391,5.656-3.055,7.922-4.992
		C131.855,25.057,131.824,26.814,131.761,29.174L131.761,29.174z M142.472,39.979c-1.438,0-2.813-0.107-4.125-0.328l0.469,1.807
		c1.406-0.188,2.656-0.281,3.75-0.281h25.055c0.453,0,0.681-0.156,0.681-0.469c0-0.281-0.431-0.781-1.288-1.5
		c-1.609-1.375-2.557-2.063-2.837-2.063s-1.194,0.945-2.741,2.836h-7.056V18.838h12.188c0.422,0,0.633-0.143,0.633-0.422
		c0-0.313-0.383-0.781-1.146-1.406c-1.596-1.313-2.492-1.969-2.695-1.969c-0.234,0-1.103,0.867-2.603,2.602h-6.375V3.533
		c1.155-0.471,1.733-0.898,1.733-1.289c0-0.299-0.233-0.531-0.703-0.703c-0.655-0.234-2.086-0.484-4.289-0.75
		c0.156,1.607,0.234,5.352,0.234,11.227v5.625h-5.954c-1.328,0-2.609-0.107-3.844-0.328l0.539,1.807
		c1.297-0.188,2.414-0.281,3.352-0.281h5.906v21.14L142.472,39.979L142.472,39.979z"/>
	<path fill="#FFFFFF" d="M155.691,68.291c3,2.625,5.853,4.608,8.555,5.953c1,0.482,1.57,0.727,1.711,0.727
		c0.328,0,0.557-0.211,0.682-0.633c0.266-0.718,0.547-1.242,0.844-1.57c0.313-0.343,0.75-0.554,1.313-0.633
		c0.202-0.031,0.305-0.156,0.305-0.375c0-0.109-0.055-0.171-0.164-0.188c-3.625-0.826-7.319-2.49-11.086-4.99
		c-4-2.703-7.492-6.289-10.478-10.76c0.97-0.219,1.453-0.49,1.453-0.818c0-0.484-1.603-1.203-4.805-2.156
		c-0.5,1.5-1.219,3.063-2.156,4.688c-1.719,3-3.906,5.896-6.563,8.693c-3.25,3.438-6.867,6.375-10.853,8.813
		c-0.063,0.047-0.094,0.108-0.094,0.188c0,0.313,0.117,0.469,0.352,0.469c0.017,0,0.039-0.008,0.07-0.021
		c9.469-4.484,16.688-10.945,21.656-19.383C149.167,61.306,152.254,65.306,155.691,68.291L155.691,68.291z M158.034,93.65
		c0.327,0.859,0.625,1.453,0.892,1.781c0.266,0.344,0.608,0.516,1.03,0.516c0.453,0,0.828-0.18,1.125-0.537
		c0.345-0.393,0.517-0.898,0.517-1.523c0-1.468-0.828-3.132-2.484-4.992c-1.969-2.218-4.477-4.008-7.521-5.367
		c-0.031-0.015-0.063-0.021-0.095-0.021c-0.267,0-0.397,0.125-0.397,0.375c0,0.047,0.022,0.094,0.07,0.141
		c2.063,1.768,3.771,3.807,5.133,6.117c-3.453,0.313-6.056,0.539-7.806,0.68c-3.688,0.281-7.422,0.471-11.202,0.563
		c2.719-3.703,4.991-7.461,6.819-11.273h21.75c0.423,0,0.634-0.141,0.634-0.422c0-0.343-0.384-0.805-1.147-1.383
		c-1.563-1.25-2.492-1.875-2.789-1.875c-0.266,0-1.117,0.829-2.555,2.484h-29.32c-1.344,0-2.609-0.096-3.797-0.281l0.469,1.758
		c1.297-0.188,2.406-0.281,3.328-0.281h9.352c-0.969,3.596-2.438,7.368-4.405,11.32l-3.797,0.047c-1.22,0-2.423-0.047-3.609-0.141
		c0.516,2.172,0.875,3.568,1.078,4.193c0.203,0.625,0.438,0.938,0.703,0.938c0.391,0,0.758-0.555,1.102-1.664
		c5.188-0.453,9.422-0.906,12.703-1.359c3.796-0.529,8.156-1.313,13.078-2.344C157.309,91.892,157.691,92.744,158.034,93.65
		L158.034,93.65z M139.074,72.041h15.938c0.453,0,0.68-0.143,0.68-0.422c0-0.25-0.352-0.664-1.055-1.242
		c-1.406-1.188-2.242-1.781-2.508-1.781c-0.203,0-0.953,0.75-2.25,2.25h-10.806c-1.233,0-2.43-0.109-3.586-0.328l0.469,1.805
		C137.254,72.134,138.292,72.041,139.074,72.041L139.074,72.041z"/>
	<path fill="#FFFFFF" d="M147.909,121.593c-0.188,0.25-0.28,0.477-0.28,0.68c0,0.25,0.172,0.375,0.516,0.375
		c0.172,0,0.383-0.125,0.633-0.375c1.984-1.844,3.453-3.008,4.406-3.492c0.938-0.516,1.93-0.771,2.978-0.771l3.375,0.141
		c0.983,0,1.478-0.43,1.478-1.289c0-1.219-1.281-1.827-3.844-1.827c-5.281,0-9.773,1.173-13.478,3.517
		c-0.391,0.233-0.586,0.508-0.586,0.82c0,0.312,0.18,0.469,0.539,0.469c0.125,0,0.313-0.063,0.563-0.188
		c2.72-1.203,5.069-1.943,7.056-2.227c0.047,0,0.086,0,0.117,0c0.125,0,0.188,0.031,0.188,0.094c0,0.063-0.047,0.148-0.141,0.258
		C150.176,118.96,149.004,120.234,147.909,121.593L147.909,121.593z M143.245,129.093c-0.594,1.375-0.891,2.773-0.891,4.195
		c0,2.578,0.898,4.563,2.695,5.953c2.047,1.654,5.625,2.482,10.733,2.482c3.108,0,5.383-0.211,6.819-0.633
		c0.828-0.25,1.242-0.711,1.242-1.383c0-1.063-0.961-1.595-2.883-1.595c-0.688,0-1.328,0.077-1.923,0.233
		c-1.608,0.392-3.478,0.586-5.603,0.586c-3.219,0-5.672-0.547-7.358-1.641c-1.53-1.031-2.297-2.643-2.297-4.828
		c0-0.859,0.117-1.898,0.353-3.117c0.016-0.094,0.022-0.164,0.022-0.211c0-0.281-0.133-0.422-0.397-0.422
		C143.542,128.718,143.37,128.843,143.245,129.093L143.245,129.093z M133.801,137.25c-0.095,0.266-0.234,0.396-0.422,0.396
		c-0.173,0-0.306-0.227-0.398-0.68c-0.188-0.906-0.281-2.156-0.281-3.75c0-1.938,0.242-4.133,0.728-6.586
		c0.483-2.5,1.055-4.594,1.711-6.281c0.297-0.766,0.602-1.305,0.914-1.617c0.453-0.453,0.68-1.063,0.68-1.828
		c0-1.076-0.398-2.133-1.195-3.162c-1.297-1.703-2.405-2.557-3.328-2.557c-0.28,0-0.422,0.143-0.422,0.422
		c0,0.234,0.125,0.479,0.375,0.729c1,1,1.5,2.021,1.5,3.068c0,0.518-0.227,1.643-0.68,3.375c-1.531,5.799-2.297,10.578-2.297,14.346
		c0,3.578,0.563,6.75,1.688,9.516c0.484,1.156,1.109,1.734,1.875,1.734c0.703,0,1.056-0.414,1.056-1.242l-0.164-2.742
		c0-0.547,0.211-1.646,0.633-3.305c0.578-2.406,1.383-5.32,2.414-8.742c0.063-0.25,0.094-0.414,0.094-0.492
		c0-0.281-0.18-0.422-0.539-0.422c-0.281,0-0.492,0.188-0.633,0.563C136.449,129.726,135.347,132.812,133.801,137.25L133.801,137.25
		z"/>
	<path fill="#FFFFFF" d="M69.051,30.281c0,0.438,0.078,0.734,0.233,0.893c0.156,0.188,0.478,0.281,0.961,0.281
		c1.156,0,1.734-0.461,1.734-1.385l-0.188-10.193v-3.938c0.859-0.5,1.289-0.93,1.289-1.289c0-0.297-0.241-0.654-0.727-1.078
		c-1.063-0.891-1.703-1.336-1.922-1.336c-0.188,0-0.773,0.531-1.758,1.596h-7.171C60.518,13.172,59.4,12.562,58.15,12
		c0.125,1.857,0.188,5.154,0.188,9.891l-0.14,9.398c0,0.672,0.398,1.008,1.195,1.008c1.188,0,1.781-0.445,1.781-1.336v-3.023h7.875
		v2.343H69.051z M61.177,26.742V15.022h7.875v11.721H61.177z M55.363,2.93c1.25-0.172,1.875-0.492,1.875-0.961
		c0-0.422-1.578-1.078-4.733-1.969c-0.156,1.688-0.656,3.891-1.5,6.607c-2.188,7.018-5.211,12.768-9.07,17.25
		c-0.031,0.018-0.047,0.047-0.047,0.096c0,0.279,0.147,0.422,0.444,0.422c0.048,0,0.087-0.018,0.117-0.047
		c2.5-2.25,4.695-4.813,6.586-7.688c0,2.063-0.03,5.008-0.094,8.836c-0.063,5.984-0.133,11.018-0.211,15.094
		c-0.016,1.125-0.023,1.781-0.023,1.971c0,0.797,0.445,1.193,1.336,1.193c1.22,0,1.828-0.482,1.828-1.453l-0.047-16.943v-8.25
		c0.984-0.406,1.478-0.789,1.478-1.148c0-0.266-0.164-0.469-0.492-0.607c-0.391-0.173-1.266-0.367-2.625-0.586
		C52.074,11.586,53.802,7.648,55.363,2.93L55.363,2.93z M85.48,6c0.406,0,0.609-0.143,0.609-0.422c0-0.281-0.367-0.729-1.103-1.336
		c-1.483-1.25-2.344-1.875-2.578-1.875c-0.28,0-1.102,0.813-2.461,2.438H60.519c-1.313,0-2.547-0.094-3.703-0.281l0.422,1.758
		C58.285,6.094,59.38,6,60.519,6h17.32v32.742c0,0.563-0.273,0.844-0.82,0.844c-1.609,0-3.656-0.109-6.141-0.328
		c-0.156-0.031-0.234,0.086-0.234,0.352c0,0.188,0.063,0.297,0.188,0.328c1.875,0.359,3.195,0.734,3.962,1.125
		c0.733,0.375,1.155,0.893,1.266,1.547c0.063,0.313,0.141,0.518,0.234,0.609c0.077,0.078,0.258,0.117,0.538,0.117
		c0.906,0,1.703-0.229,2.392-0.682c1.156-0.672,1.733-1.711,1.733-3.115l-0.141-15.023V6H85.48z"/>
	<path fill="#FFFFFF" d="M65.113,62.647c0.453,0,0.883,0.018,1.289,0.047c3.469,0.174,6.344,1.234,8.625,3.188
		c2.703,2.313,4.055,5.391,4.055,9.234c0,4.016-1.647,7.375-4.944,10.076c-3.078,2.518-7.164,4.211-12.257,5.086
		c-0.548,0.125-0.82,0.385-0.82,0.773c0,0.359,0.234,0.539,0.703,0.539c0.031,0,0.069,0,0.117,0
		c5.046-0.281,9.405-1.531,13.077-3.75c4.859-2.922,7.289-6.891,7.289-11.906c0-4.047-1.344-7.443-4.03-10.193
		c-3.109-3.188-7.242-4.781-12.398-4.781c-5.593,0-10.234,1.727-13.921,5.18c-3.484,3.281-5.227,7.25-5.227,11.906
		c0,2.438,0.563,4.547,1.688,6.328c1.109,1.672,2.391,2.508,3.844,2.508c1.406,0,2.984-1.07,4.734-3.211
		c2.953-3.734,5.258-7.979,6.914-12.729c0.609-1.951,0.914-3.521,0.914-4.711c0-1.357-0.32-2.539-0.961-3.539
		C64.207,62.663,64.644,62.647,65.113,62.647L65.113,62.647z M62.887,64.897c0,1-0.228,2.148-0.681,3.445
		c-1.483,4.531-3.688,8.727-6.608,12.586c-1.406,1.859-2.531,2.789-3.375,2.789c-0.906,0-1.656-0.547-2.25-1.641
		c-0.767-1.484-1.148-3.104-1.148-4.854c0-3.688,1.297-6.852,3.892-9.492c2.53-2.594,5.733-4.211,9.608-4.852
		C62.699,63.257,62.887,63.929,62.887,64.897L62.887,64.897z"/>
	<path fill="#FFFFFF" d="M80.488,145.346v2.109c0,0.671,0.398,1.008,1.195,1.008c1.25,0,1.875-0.415,1.875-1.242l-0.234-15.938
		v-7.451c0.922-0.578,1.383-1.01,1.383-1.289c0-0.313-0.288-0.695-0.866-1.148c-1.063-0.906-1.72-1.357-1.97-1.357
		c-0.219,0-0.789,0.529-1.711,1.594h-5.578v-9.703H85.48c0.453,0,0.68-0.141,0.68-0.422s-0.383-0.729-1.147-1.336
		c-1.609-1.25-2.523-1.875-2.742-1.875c-0.203,0-1.023,0.813-2.461,2.438H58.294c-1.017,0-2.242-0.094-3.681-0.28l0.422,1.712
		c1.078-0.156,2.181-0.234,3.306-0.234h5.25v9.703h-5.086c-1.359-0.797-2.531-1.375-3.517-1.734
		c0.188,1.922,0.281,6.242,0.281,12.961l-0.234,14.604c0,0.671,0.414,1.008,1.242,1.008c1.188,0,1.781-0.383,1.781-1.148v-1.969
		h22.43V145.346z M66.379,122.822h5.413v21.328h-5.413V122.822z M58.058,144.15v-21.328h5.531v21.328H58.058z M74.581,144.15
		v-21.328h5.906v21.328H74.581z M66.379,121.627v-9.703h5.413v9.703H66.379z M53.699,108.713c1.25-0.172,1.875-0.508,1.875-1.008
		c0-0.518-1.578-1.156-4.733-1.922c-0.125,1.375-0.47,3.162-1.031,5.365c-0.734,2.828-1.766,5.797-3.094,8.906
		c-1.609,3.75-3.273,6.828-4.992,9.234c-0.017,0.029-0.023,0.063-0.023,0.094c0,0.266,0.156,0.396,0.47,0.396
		c0.047,0,0.094-0.016,0.141-0.047c1.906-1.953,3.656-4.227,5.25-6.818c0,3.641-0.016,6.375-0.047,8.203
		c-0.063,6.107-0.142,11.094-0.234,14.951c-0.031,1.156-0.047,1.807-0.047,1.945c0,0.797,0.461,1.195,1.383,1.195
		c1.219,0,1.828-0.479,1.828-1.432l-0.094-16.711v-8.25c0.983-0.404,1.477-0.771,1.477-1.102c0-0.438-0.969-0.805-2.905-1.103
		C50.887,116.9,52.48,112.932,53.699,108.713L53.699,108.713z"/>
	<path fill="#FFFFFF" d="M66.87,171.779c-0.844-0.547-1.944-1.107-3.304-1.688c0.125,1.578,0.188,5.021,0.188,10.335l-0.234,13.922
		c0,0.375,0.086,0.633,0.258,0.773c0.172,0.155,0.517,0.232,1.031,0.232c1.125,0,1.687-0.39,1.687-1.172v-1.429h12.047v1.146
		c0,0.734,0.398,1.104,1.195,1.104c1.188,0,1.781-0.414,1.781-1.242l-0.188-13.829v-6.093c0.892-0.453,1.336-0.836,1.336-1.148
		c0-0.25-0.272-0.602-0.819-1.055c-1.078-0.906-1.75-1.359-2.017-1.359c-0.155,0-0.694,0.5-1.616,1.5h-7.009
		c0.563-2.422,0.978-4.266,1.242-5.53h13.289c0.422,0,0.633-0.143,0.633-0.421c0-0.268-0.336-0.695-1.008-1.29
		c-1.391-1.22-2.203-1.828-2.438-1.828c-0.281,0-1.056,0.779-2.32,2.343h-7.922c0.078-0.421,0.188-1.063,0.328-1.921
		c0.155-0.906,0.272-1.578,0.352-2.018c1.047-0.326,1.57-0.71,1.57-1.146c0-0.453-1.609-0.868-4.828-1.243
		c0,1.11-0.016,2.086-0.047,2.93c-0.031,0.596-0.117,1.729-0.258,3.398H58.996c-1.25,0-2.43-0.093-3.539-0.281l0.423,1.805
		c1.219-0.219,2.28-0.327,3.188-0.327h10.64c-0.03,0.25-0.116,1.108-0.258,2.577c-0.108,1.22-0.211,2.203-0.305,2.953H66.87V171.779
		z M66.495,191.56v-5.766h12.047v5.766H66.495z M66.495,184.599v-5.132h12.047v5.132H66.495z M66.495,178.271v-5.297h12.047v5.297
		H66.495z M54.262,161.56c1.281-0.232,1.922-0.57,1.922-1.008c0-0.546-1.586-1.218-4.758-2.016c-0.203,1.75-0.57,3.508-1.103,5.271
		c-0.844,2.813-1.961,5.704-3.352,8.672c-1.688,3.61-3.484,6.711-5.392,9.307c-0.03,0.03-0.047,0.068-0.047,0.116
		c0,0.299,0.148,0.445,0.445,0.445c0.047,0,0.086-0.015,0.117-0.047c2.141-2.234,4.031-4.57,5.672-7.008
		c-0.063,3.969-0.094,6.961-0.094,8.977c-0.063,6.063-0.134,11.148-0.211,15.258c-0.017,1.125-0.023,1.781-0.023,1.97
		c0,0.797,0.461,1.194,1.383,1.194c1.188,0,1.781-0.477,1.781-1.43l-0.047-17.133v-8.555c0.953-0.406,1.43-0.774,1.43-1.104
		c0-0.265-0.156-0.468-0.469-0.609c-0.391-0.171-1.242-0.351-2.555-0.537C51.091,169.842,52.855,165.919,54.262,161.56
		L54.262,161.56z M58.716,174.029c1.03-0.451,1.547-0.866,1.547-1.241c0-0.298-0.211-0.523-0.633-0.682
		c-0.531-0.171-1.859-0.39-3.984-0.654c0.094,1.266,0.141,4.943,0.141,11.037l-0.188,18.563c0,0.797,0.444,1.195,1.336,1.195
		c1.188,0,1.781-0.432,1.781-1.289v-1.875h27.022c0.422,0,0.633-0.143,0.633-0.422c0-0.281-0.352-0.71-1.055-1.289
		c-1.594-1.281-2.461-1.921-2.602-1.921c-0.22,0-1.031,0.813-2.438,2.438h-21.56V174.029z"/>
	<path fill="#FFFFFF" d="M63.449,240.952c0.97,0,1.688-0.063,2.156-0.188c0.734-0.155,1.102-0.593,1.102-1.313
		c0-0.858-0.75-1.259-2.25-1.195c-0.313,0.032-0.655,0.048-1.03,0.048c-0.813,0-1.672-0.048-2.578-0.142
		c0.953-5.673,2.147-11.423,3.586-17.25c0.25-0.97,0.555-1.578,0.914-1.828c0.422-0.25,0.633-0.648,0.633-1.195
		c0-0.844-0.5-1.703-1.5-2.578c-1.172-1.062-2.32-1.594-3.445-1.594c-0.405,0-0.805,0.086-1.194,0.258
		c-0.453,0.204-0.681,0.422-0.681,0.656c0,0.204,0.273,0.358,0.82,0.469c0.797,0.157,1.352,0.445,1.664,0.867
		c0.328,0.407,0.492,1.094,0.492,2.063c0,0.25-0.047,0.721-0.142,1.406c-0.047,0.36-0.078,0.649-0.094,0.868
		c-0.234,1.578-0.602,3.641-1.102,6.188c-0.267-0.75-1.056-1.182-2.367-1.29c-1.125-0.078-2.228-0.398-3.305-0.96
		c-1.313-0.688-2.306-1.5-2.978-2.438c-0.328-0.453-0.586-0.68-0.772-0.68c-0.25,0-0.375,0.194-0.375,0.586
		c0,0.782,0.43,1.672,1.288,2.672c0.906,1.078,2.156,1.945,3.75,2.602c-2.78,2.297-4.172,4.532-4.172,6.703
		c0,1.704,0.5,3.07,1.5,4.103c0.953,0.97,2.625,1.845,5.017,2.625c-0.125,1.188-0.188,2.482-0.188,3.892
		c0,2.797,0.734,4.953,2.203,6.468c1.453,1.484,3.453,2.229,6,2.229c2.547,0,4.781-0.703,6.703-2.109
		c2.391-1.765,3.586-4.116,3.586-7.055c0-2.218-0.664-4.479-1.992-6.773c-1.453-2.515-3.383-4.601-5.789-6.257
		c-0.375-0.25-0.608-0.375-0.703-0.375c-0.452,0-0.68,0.18-0.68,0.539c0,0.219,0.125,0.454,0.375,0.703
		c3.875,3.875,5.813,7.797,5.813,11.765c0,2.079-0.625,3.82-1.875,5.229c-1.438,1.579-3.313,2.367-5.625,2.367
		c-4.063,0-6.094-2.116-6.094-6.353c0-1.422,0.063-2.75,0.188-3.985C61.387,240.867,62.433,240.952,63.449,240.952L63.449,240.952z
		 M53.255,233.499c0-1.578,1.039-3.096,3.116-4.547c0.859-0.609,1.773-0.945,2.742-1.01c0.75,0,1.25-0.146,1.5-0.443
		c-0.547,2.891-1.125,6.344-1.733,10.357C55.13,237.187,53.255,235.734,53.255,233.499L53.255,233.499z"/>
	<path fill="#FFFFFF" d="M-10.043,31.046H1.371c0.423,0,0.634-0.143,0.634-0.422c0-0.296-0.306-0.695-0.914-1.195
		c-1.359-1.125-2.173-1.688-2.438-1.688c-0.25,0-0.969,0.701-2.156,2.107h-6.539v-6.82H3.505c0.405,0,0.608-0.154,0.608-0.469
		c0-0.281-0.336-0.693-1.008-1.242c-1.406-1.187-2.25-1.779-2.531-1.779c-0.25,0-1.008,0.766-2.272,2.297h-19.875
		c-1.063,0-2.242-0.109-3.539-0.328l0.469,1.805c1-0.188,2.023-0.281,3.07-0.281h8.694v15.213l-0.633-0.328
		c-2.328-1.346-4.289-3.509-5.883-6.492c0.25-0.75,0.516-1.734,0.797-2.953c1-0.328,1.5-0.633,1.5-0.914s-0.195-0.5-0.586-0.656
		c-0.453-0.203-1.664-0.516-3.633-0.938c-0.047,1.391-0.242,2.813-0.586,4.266c-1.25,5.219-3.648,9.524-7.195,12.914
		c-0.031,0.031-0.047,0.07-0.047,0.117c0,0.266,0.141,0.396,0.422,0.396c0.047,0,0.086-0.008,0.117-0.021
		c4.109-2.641,7.016-6.242,8.719-10.805c1.547,3.313,3.672,5.805,6.375,7.477c2.734,1.672,6.547,2.508,11.438,2.508
		c1.983,0,3.313-0.03,3.983-0.094c0.47-0.047,0.742-0.305,0.82-0.773c0.109-0.563,0.25-0.969,0.422-1.219
		c0.219-0.313,0.648-0.64,1.289-0.982c0.109-0.063,0.164-0.181,0.164-0.354c0-0.25-0.086-0.358-0.258-0.328
		c-2.25,0.518-4.728,0.773-7.431,0.773c-3.063,0-5.383-0.195-6.961-0.586L-10.043,31.046L-10.043,31.046z M-29.965,12.179h6.728
		c0.406,0,0.608-0.141,0.608-0.422c0-0.328-0.272-0.734-0.819-1.219c-1.156-1.046-1.875-1.57-2.156-1.57
		c-0.219,0-0.859,0.672-1.922,2.016h-2.438V2.875c1.095-0.5,1.642-0.922,1.642-1.268c0-0.265-0.25-0.477-0.75-0.633
		c-0.595-0.187-1.931-0.406-4.008-0.656c0.155,1.221,0.233,4.774,0.233,10.664h-3.164c-0.858,0-1.914-0.102-3.164-0.305l0.47,1.781
		c0.969-0.188,1.866-0.281,2.694-0.281h3.164v10.5c-1.469,0.454-2.586,0.79-3.352,1.008c-1.109,0.313-2.086,0.539-2.931,0.682
		c0.609,1.75,1.031,2.875,1.267,3.375c0.219,0.5,0.438,0.75,0.655,0.75c0.392,0,0.695-0.57,0.914-1.713
		c0.406-0.201,0.953-0.469,1.642-0.797c0.875-0.404,1.477-0.687,1.805-0.844V39.53c0,0.5-0.242,0.75-0.727,0.75
		c-1.078,0-2.759-0.101-5.039-0.305c-0.156-0.031-0.234,0.07-0.234,0.305c0,0.188,0.063,0.299,0.188,0.328
		c1.625,0.346,2.75,0.682,3.375,1.01c0.608,0.344,0.961,0.818,1.055,1.43c0.031,0.297,0.078,0.482,0.141,0.563
		c0.063,0.079,0.203,0.117,0.422,0.117c1.048,0,1.884-0.258,2.509-0.771c0.891-0.703,1.336-1.635,1.336-2.789l-0.143-16.525
		c2.313-1.313,4.359-2.633,6.142-3.961c0.063-0.031,0.094-0.094,0.094-0.188c0-0.298-0.102-0.445-0.305-0.445
		c-0.031,0-0.056,0.008-0.07,0.021c-2.125,1.049-4.078,1.898-5.859,2.557L-29.965,12.179L-29.965,12.179z M-4.723,17.64
		c0,0.391,0.078,0.665,0.234,0.82c0.172,0.157,0.508,0.232,1.008,0.232c1.188,0,1.781-0.43,1.781-1.289l-0.188-8.93V4.843
		c0.828-0.546,1.242-0.961,1.242-1.242c0-0.265-0.273-0.633-0.82-1.102C-2.435,1.671-3.06,1.257-3.341,1.257
		c-0.25,0-0.819,0.492-1.711,1.477H-17.87c-1.109-0.64-2.228-1.203-3.353-1.688c0.125,1.547,0.188,4.233,0.188,8.063l-0.142,8.768
		c0,0.607,0.414,0.914,1.242,0.914c1.125,0,1.688-0.398,1.688-1.195v-0.727h13.522v0.771H-4.723z M-18.245,15.671v-5.367h13.522
		v5.367H-18.245z M-18.245,9.109v-5.18h13.522v5.18H-18.245z"/>
	<path fill="#FFFFFF" d="M-27.481,56.191c1.281-0.219,1.922-0.539,1.922-0.961c0-0.531-1.617-1.25-4.852-2.156
		c-0.125,1.346-0.492,3.104-1.103,5.273c-0.857,2.922-1.991,5.906-3.396,8.953c-1.703,3.672-3.484,6.735-5.345,9.188
		c-0.03,0.049-0.047,0.086-0.047,0.117c0,0.281,0.164,0.422,0.492,0.422c0.047,0,0.086-0.015,0.117-0.047
		c2.031-2.078,3.922-4.414,5.672-7.008c-0.015,0.923-0.031,2.258-0.047,4.008c-0.017,2.063-0.031,3.594-0.047,4.594
		c-0.063,6.063-0.133,11.088-0.211,15.07c-0.017,1.109-0.023,1.75-0.023,1.922c0,0.859,0.445,1.289,1.336,1.289
		c1.219,0,1.828-0.5,1.828-1.5l-0.047-16.896v-8.346c0.984-0.404,1.477-0.789,1.477-1.146c0-0.438-0.991-0.805-2.977-1.104
		C-30.823,64.628-29.073,60.738-27.481,56.191L-27.481,56.191z M-18.081,65.402v-8.789c1.063-0.5,1.594-0.914,1.594-1.24
		c0-0.296-0.228-0.518-0.681-0.656c-0.625-0.203-1.983-0.414-4.077-0.633c0.155,1.172,0.233,3.813,0.233,7.922v3.396h-2.93
		c-1.047,0-2.267-0.107-3.656-0.328l0.492,1.76c1.078-0.156,2.147-0.234,3.211-0.234h2.883v12.867h-4.5
		c-1.313,0-2.563-0.109-3.75-0.328l0.469,1.758c1.125-0.156,2.234-0.232,3.328-0.232h29.32c0.406,0,0.609-0.143,0.609-0.424
		c0-0.296-0.367-0.765-1.103-1.404c-1.608-1.375-2.508-2.063-2.695-2.063c-0.25,0-1.125,0.899-2.625,2.695H-5.85v-12.87H2.8
		c0.438,0,0.655-0.141,0.655-0.422c0-0.313-0.352-0.742-1.055-1.289c-1.578-1.313-2.477-1.969-2.695-1.969
		c-0.218,0-1.03,0.829-2.438,2.482H-5.85v-8.836c1.063-0.469,1.594-0.882,1.594-1.242c0-0.265-0.241-0.477-0.727-0.633
		c-0.642-0.188-2.017-0.39-4.125-0.607c0.188,1.375,0.281,3.944,0.281,7.711V65.4L-18.081,65.402L-18.081,65.402z M-18.081,79.464
		V66.597h9.258v12.867H-18.081z M-2.004,94.019c0.531,1.25,1.125,1.875,1.781,1.875c1.094,0,1.642-0.703,1.642-2.107
		c0-1.5-0.845-3.109-2.531-4.828c-2.017-2.031-4.813-3.797-8.392-5.297c-0.03-0.017-0.063-0.023-0.094-0.023
		c-0.219,0-0.328,0.102-0.328,0.305c0,0.079,0.031,0.143,0.095,0.188C-6.067,87.332-3.456,90.629-2.004,94.019L-2.004,94.019z
		 M-17.309,86.332c1.313,0,1.969-0.22,1.969-0.656c0-0.438-1.383-1.257-4.147-2.461c-0.313,0.969-0.789,1.93-1.431,2.883
		c-2.563,3.922-5.461,7.078-8.694,9.469c-0.047,0.047-0.07,0.104-0.07,0.164c0,0.328,0.141,0.492,0.422,0.492
		c0.017,0,0.047,0,0.094,0C-24.448,93.832-20.495,90.535-17.309,86.332L-17.309,86.332z"/>
	<path fill="#FFFFFF" d="M-10.113,143.308c3.703-1.857,6.772-4.367,9.211-7.521c0.219-0.282,0.328-0.518,0.328-0.703
		c0-0.329-0.156-0.492-0.47-0.492c-0.266,0-0.508,0.107-0.727,0.328c-2.453,2.313-5.086,4.188-7.898,5.625
		c-3.516,1.813-6.891,2.719-10.125,2.719c-1.813,0-3.077-0.336-3.797-1.008c-0.891-0.75-1.336-2.234-1.336-4.453
		c0-2.563,0.148-6.305,0.445-11.227c0.219-3.781,0.492-6.938,0.82-9.471c0.063-0.828,0.266-1.414,0.608-1.758
		c0.453-0.453,0.681-0.922,0.681-1.407c0-0.843-0.656-1.757-1.97-2.742c-1.344-0.982-2.461-1.477-3.352-1.477
		c-0.517,0-0.906,0.063-1.172,0.188c-0.313,0.188-0.47,0.383-0.47,0.586c0,0.232,0.228,0.404,0.681,0.516
		c1.483,0.438,2.203,1.625,2.156,3.563c-0.125,5.201-0.259,9.154-0.398,11.857c-0.25,5.688-0.375,9.672-0.375,11.953
		c0,4.984,2.43,7.477,7.289,7.477C-16.745,145.863-13.456,145.011-10.113,143.308L-10.113,143.308z"/>
	<path fill="#FFFFFF" d="M-5.823,165.693c-0.531,0.297-1.281,0.547-2.25,0.75l-20.836,5.32c-1.406,0.359-2.431,0.539-3.07,0.539
		c-0.609,0.016-1.148-0.094-1.617-0.328c-0.438-0.219-0.969-0.672-1.594-1.359c-0.281-0.279-0.492-0.422-0.633-0.422
		c-0.313,0-0.47,0.307-0.47,0.914c0,0.721,0.431,1.633,1.289,2.742c1.125,1.313,2.181,1.969,3.164,1.969
		c0.563,0,1.109-0.18,1.642-0.539c1.03-0.594,2.219-1.133,3.563-1.615c3.406-1.234,7.695-2.609,12.867-4.125l0.094,0.141
		c-2.578,1.438-4.664,3.36-6.258,5.766c-1.875,2.799-2.813,5.807-2.813,9.023c0,3.797,1.391,6.852,4.172,9.164
		c1.375,1.188,3.203,2.146,5.483,2.883c2.281,0.735,4.453,1.104,6.517,1.104c1.469,0,2.203-0.414,2.203-1.242
		c0-0.75-0.384-1.328-1.148-1.734c-0.875-0.469-2.094-0.742-3.656-0.82c-1.313-0.016-2.655-0.24-4.03-0.68
		c-1.72-0.547-3.156-1.313-4.313-2.297c-2.172-1.734-3.258-4.328-3.258-7.781c0-2.547,0.906-5.055,2.719-7.521
		c1.969-2.656,4.289-4.453,6.961-5.393c2.625-0.953,5.734-1.482,9.328-1.594c1.047-0.047,1.57-0.477,1.57-1.289
		c0-0.656-0.431-1.133-1.289-1.43c-1-0.422-1.914-0.633-2.742-0.633C-4.809,165.201-5.34,165.365-5.823,165.693L-5.823,165.693z"/>
	<path fill="#FFFFFF" d="M-9.692,225.931c1.891,1.063,3.578,2.625,5.063,4.688c1.656,2.297,2.484,4.313,2.484,6.047
		c0,0.5-0.242,0.789-0.727,0.867c-0.563,0.076-1.781,0.227-3.656,0.443c-0.484,0.047-0.728,0.188-0.728,0.422
		c0,0.375,0.211,0.586,0.634,0.635c1.422,0.172,2.461,0.375,3.116,0.607c0.688,0.25,1.22,0.633,1.595,1.148
		c0.297,0.422,0.711,0.633,1.241,0.633c1.22,0,1.828-1.055,1.828-3.164c0-2.531-0.891-4.992-2.672-7.383
		c-1.969-2.643-4.522-4.609-7.664-5.906c-0.156-0.078-0.313-0.117-0.469-0.117c-0.359,0-0.539,0.117-0.539,0.354
		C-10.184,225.501-10.02,225.744-9.692,225.931L-9.692,225.931z M-23.659,247.048c0-0.563-0.103-1.063-0.306-1.5
		c-0.125-0.297-0.188-0.664-0.188-1.104c0-0.219,0.164-0.813,0.492-1.779c0.891-2.596,2.155-5.313,3.797-8.156
		c0.188-0.375,0.28-0.656,0.28-0.844c0-0.328-0.18-0.492-0.538-0.492c-0.313,0-0.578,0.18-0.798,0.539
		c-2.188,3.453-3.938,6.357-5.25,8.719c-0.28,0.516-0.602,0.773-0.961,0.773c-0.75,0-1.539-0.867-2.366-2.604
		c-0.859-1.844-1.289-4.578-1.289-8.203c0-2.719,0.18-4.607,0.539-5.672c0.297-0.857,0.444-1.547,0.444-2.063
		c0-1.063-0.75-2.229-2.25-3.492c-1.203-1.031-2.164-1.547-2.883-1.547c-0.453,0-0.68,0.141-0.68,0.422
		c0,0.141,0.147,0.352,0.444,0.633c0.798,0.75,1.345,1.43,1.642,2.039c0.313,0.641,0.469,1.5,0.469,2.578l-0.07,3.938
		c0,3.75,0.259,6.807,0.773,9.164c0.734,3.328,2.094,5.984,4.078,7.971c1.281,1.279,2.358,1.922,3.233,1.922
		C-24.12,248.291-23.659,247.876-23.659,247.048L-23.659,247.048z"/>
	<path fill="#FFFFFF" d="M-33.903,296.004c-0.219,0.344-0.328,0.727-0.328,1.146c0,0.359,0.109,0.674,0.328,0.938
		c0.266,0.327,0.586,0.49,0.961,0.49c0.766,0,1.297-0.318,1.594-0.959c2.375-4.703,5.398-11.273,9.07-19.711
		c2.608-0.563,5.117-1.234,7.522-2.018c1.063-0.375,1.595-0.891,1.595-1.547c0-0.359-0.156-0.656-0.47-0.891
		c-0.313-0.268-0.672-0.398-1.078-0.398c-0.547,0-1.358,0.258-2.438,0.773c-1.438,0.654-2.797,1.164-4.078,1.521
		c0.219-0.482,0.461-1.047,0.728-1.688c0.405-0.938,0.625-1.445,0.655-1.523c0.5-1.094,0.914-1.75,1.242-1.969
		c0.391-0.267,0.586-0.633,0.586-1.103c0-0.517-0.516-1.017-1.547-1.5c-1.531-0.733-2.773-1.103-3.727-1.103
		c-1.095,0-1.642,0.289-1.642,0.867c0,0.125,0.125,0.219,0.375,0.281c0.594,0.094,1.203,0.336,1.828,0.727
		c0.578,0.359,0.867,0.758,0.867,1.195c0,0.53-0.078,1.094-0.234,1.688c-0.563,1.781-1.125,3.354-1.688,4.711
		c-2.688,0.563-4.828,0.82-6.422,0.773c-1.517,0-2.798-0.375-3.845-1.125c-0.297-0.188-0.539-0.281-0.727-0.281
		c-0.25,0-0.375,0.125-0.375,0.375c0,0.142,0.063,0.336,0.188,0.586c0.392,0.719,1.009,1.306,1.853,1.758
		c0.938,0.5,1.938,0.75,3,0.75c1.719,0,3.508-0.164,5.367-0.491C-27.473,284.583-30.528,290.489-33.903,296.004L-33.903,296.004z
		 M-7.581,281.895c0,0.094-0.078,0.172-0.234,0.234c-1.797,0.516-3.117,1.219-3.961,2.107c-1.017,1.063-1.523,2.563-1.523,4.5
		c0,0.531,0.258,3.096,0.773,7.688c-0.984-0.219-2.383-0.328-4.195-0.328c-1.781,0-3.32,0.391-4.617,1.172
		c-1.594,0.969-2.391,2.258-2.391,3.867c0,1.172,0.5,2.172,1.5,3c1.219,1.03,2.914,1.547,5.086,1.547
		c2.672,0,4.594-0.609,5.766-1.828c0.938-1.016,1.461-2.469,1.57-4.359c1.969,0.768,4.242,2.156,6.82,4.174
		c0.406,0.313,0.828,0.49,1.266,0.537c0.953,0,1.43-0.461,1.43-1.383c0-0.654-0.272-1.219-0.819-1.688
		c-1.531-1.393-4.492-2.781-8.883-4.172c-0.078-0.453-0.211-1.117-0.398-1.992c-0.25-1.156-0.43-2.016-0.539-2.578
		c-0.359-1.953-0.539-3.568-0.539-4.852c0-1.156,0.398-2.143,1.195-2.953c0.906-0.906,2.039-1.359,3.397-1.359
		c1.375,0,2.688,0.617,3.938,1.854c0.516,0.516,1.047,0.771,1.594,0.771c0.328,0,0.609-0.107,0.844-0.328
		c0.234-0.25,0.353-0.539,0.353-0.865c0-0.924-0.672-1.836-2.017-2.742c-0.938-0.625-2.133-1.143-3.586-1.547
		c-1.594-0.438-3.164-0.656-4.711-0.656c-1.483,0-2.844,0.18-4.078,0.539c-0.452,0.125-0.68,0.357-0.68,0.703
		c0,0.266,0.203,0.396,0.609,0.396c0.016,0,0.055,0,0.117,0c0.827-0.141,1.672-0.211,2.53-0.211c1.672,0,3.063,0.195,4.172,0.586
		C-7.653,281.778-7.581,281.833-7.581,281.895L-7.581,281.895z M-13.653,302.331c-0.844,0.799-2.172,1.195-3.984,1.195
		c-1.391,0-2.492-0.219-3.305-0.656c-0.875-0.469-1.313-1.107-1.313-1.922c0-0.891,0.478-1.607,1.431-2.154
		c1.047-0.578,2.43-0.867,4.147-0.867c1.563,0,3.008,0.232,4.336,0.703C-12.403,300.364-12.84,301.598-13.653,302.331
		L-13.653,302.331z"/>
	<path fill="#FFFFFF" d="M-9.692,331.531c1.891,1.063,3.578,2.625,5.063,4.688c1.656,2.297,2.484,4.313,2.484,6.047
		c0,0.5-0.242,0.789-0.727,0.867c-0.563,0.078-1.781,0.227-3.656,0.443c-0.484,0.049-0.728,0.188-0.728,0.424
		c0,0.375,0.211,0.586,0.634,0.633c1.422,0.172,2.461,0.375,3.116,0.607c0.688,0.25,1.22,0.635,1.595,1.148
		c0.297,0.422,0.711,0.633,1.241,0.633c1.22,0,1.828-1.055,1.828-3.164c0-2.531-0.891-4.992-2.672-7.383
		c-1.969-2.641-4.522-4.609-7.664-5.906c-0.156-0.078-0.313-0.117-0.469-0.117c-0.359,0-0.539,0.117-0.539,0.354
		C-10.184,331.102-10.02,331.344-9.692,331.531L-9.692,331.531z M-23.659,352.649c0-0.563-0.103-1.063-0.306-1.5
		c-0.125-0.297-0.188-0.664-0.188-1.102c0-0.221,0.164-0.813,0.492-1.781c0.891-2.594,2.155-5.313,3.797-8.156
		c0.188-0.375,0.28-0.656,0.28-0.844c0-0.328-0.18-0.492-0.538-0.492c-0.313,0-0.578,0.18-0.798,0.539
		c-2.188,3.453-3.938,6.359-5.25,8.719c-0.28,0.518-0.602,0.773-0.961,0.773c-0.75,0-1.539-0.867-2.366-2.604
		c-0.859-1.844-1.289-4.576-1.289-8.201c0-2.721,0.18-4.609,0.539-5.674c0.297-0.857,0.444-1.547,0.444-2.063
		c0-1.063-0.75-2.229-2.25-3.492c-1.203-1.031-2.164-1.547-2.883-1.547c-0.453,0-0.68,0.141-0.68,0.422
		c0,0.141,0.147,0.354,0.444,0.633c0.798,0.75,1.345,1.432,1.642,2.039c0.313,0.643,0.469,1.5,0.469,2.578l-0.07,3.938
		c0,3.75,0.259,6.805,0.773,9.163c0.734,3.327,2.094,5.983,4.078,7.97c1.281,1.28,2.358,1.922,3.233,1.922
		C-24.12,353.891-23.659,353.477-23.659,352.649L-23.659,352.649z"/>
</g>
</svg>
