<?xml version="1.0" encoding="utf-8"?>
<!-- Generator: Adobe Illustrator 14.0.0, SVG Export Plug-In . SVG Version: 6.00 Build 43363)  -->
<!DOCTYPE svg PUBLIC "-//W3C//DTD SVG 1.1 Basic//EN" "http://www.w3.org/Graphics/SVG/1.1/DTD/svg11-basic.dtd">
<svg version="1.1" baseProfile="basic" id="レイヤー_3"
	 xmlns="http://www.w3.org/2000/svg" xmlns:xlink="http://www.w3.org/1999/xlink" x="0px" y="0px" width="288.961px"
	 height="409.115px" viewBox="0.676 27.99 288.961 409.115" xml:space="preserve">
<g>
	<path fill="#0D4482" d="M277.309,54.733c2.25,0.047,4.148,0.508,5.695,1.383c1.796,1.047,2.695,1.961,2.695,2.742
		c0,0.281-0.196,0.5-0.586,0.656c-0.36,0.156-1.798,0.609-4.313,1.359c-0.392,0.109-0.586,0.313-0.586,0.609
		c0,0.266,0.194,0.398,0.586,0.398c0.062,0,0.124,0,0.188,0c0.563-0.031,1.28-0.078,2.156-0.141
		c0.952-0.063,1.608-0.102,1.969-0.117c0.312-0.016,0.563-0.023,0.75-0.023c0.64,0,1.062,0.063,1.266,0.188
		c0.328,0.25,0.75,0.375,1.266,0.375c0.827,0,1.242-0.609,1.242-1.828c0-0.875-0.337-1.789-1.008-2.742
		c-0.72-1.016-1.617-1.828-2.695-2.438c-2.329-1.313-4.985-1.969-7.969-1.969c-2.36,0-4.649,0.367-6.868,1.102
		c-2.015-2.688-3.195-4.297-3.538-4.828c-0.735-1.156-1.102-2.281-1.102-3.375c0-1.172,0.601-2.336,1.805-3.492
		c1.28-1.25,2.421-1.875,3.422-1.875c0.499,0,0.897,0.047,1.195,0.141c0.343,0.094,0.647,0.141,0.913,0.141
		c0.798,0,1.196-0.398,1.196-1.195c0-0.766-0.398-1.438-1.196-2.016c-0.922-0.703-2.102-1.297-3.538-1.781
		c-2.938-1-4.493-2.469-4.664-4.406c-0.048-0.453-0.267-0.68-0.656-0.68c-0.392,0-0.587,0.352-0.587,1.055
		c0,1.266,0.414,2.453,1.243,3.563c0.656,0.891,2.046,2.008,4.172,3.352c-1.828,1.609-3.11,3.008-3.845,4.195
		c-0.734,1.172-1.101,2.461-1.101,3.867c0,1.156,0.445,2.516,1.336,4.078c0.593,1.031,1.507,2.391,2.742,4.078
		c-4.219,1.859-8.821,4.43-13.805,7.711c-0.86,0.578-1.509,0.867-1.945,0.867c-0.548,0-1.001-0.242-1.36-0.727
		c-0.266-0.313-0.397-0.742-0.397-1.289c0-0.094,0-0.234,0-0.422c0-0.031,0-0.07,0-0.117c0-0.266-0.134-0.398-0.398-0.398
		c-0.188,0-0.375,0.164-0.563,0.492c-0.422,0.625-0.634,1.211-0.634,1.758c0,0.656,0.32,1.438,0.962,2.344
		c0.296,0.422,0.68,0.82,1.148,1.195c0.624,0.484,1.155,0.727,1.594,0.727c0.546,0,1.022-0.211,1.43-0.633
		c1.608-1.547,2.968-2.789,4.078-3.727c3.312,1.25,5.601,2.141,6.867,2.672c1.468,0.641,2.296,1.031,2.483,1.172
		c0.423,0.281,0.953,0.422,1.595,0.422c1.218,0,2.288-0.391,3.21-1.172c1.188-1.016,1.782-2.445,1.782-4.289
		c0-1.625-1.008-3.711-3.024-6.258C273.559,54.921,275.355,54.686,277.309,54.733L277.309,54.733z M272.059,61.694
		c0,1.625-0.735,2.438-2.204,2.438c-1,0-2.359-0.156-4.077-0.469c-1.688-0.344-3.563-0.891-5.625-1.641
		c3.312-2.375,6.499-4.281,9.563-5.719C271.277,58.413,272.059,60.21,272.059,61.694L272.059,61.694z"/>
	<path fill="#0D4482" d="M267.137,89.606c0.375-0.844,0.71-1.383,1.008-1.617c0.452-0.344,0.68-0.797,0.68-1.359
		c0-0.484-0.274-0.945-0.82-1.383c-0.516-0.422-1.188-0.797-2.016-1.125c-0.86-0.344-1.532-0.516-2.017-0.516
		c-0.327,0-0.758,0.078-1.288,0.234c-0.454,0.203-0.68,0.414-0.68,0.633c0,0.203,0.272,0.359,0.82,0.469
		c1.53,0.328,2.297,1.055,2.297,2.18c0,0.531-0.157,1.359-0.469,2.484c-0.345,1.281-0.798,2.711-1.36,4.289
		c-2.671,0.828-4.844,1.242-6.515,1.242c-1.641,0-3.009-0.367-4.102-1.102c-0.454-0.297-0.75-0.445-0.892-0.445
		c-0.359,0-0.538,0.18-0.538,0.539c0,0.531,0.46,1.125,1.383,1.781c1.202,0.891,2.757,1.336,4.663,1.336
		c1.391,0,3.102-0.242,5.134-0.727c-2.845,7.891-5.915,15.094-9.211,21.609c-0.157,0.375-0.235,0.695-0.235,0.961
		c0,0.391,0.109,0.75,0.329,1.078c0.265,0.313,0.633,0.469,1.101,0.469c0.672,0,1.188-0.398,1.548-1.195
		c1.781-4.094,4.741-11.938,8.883-23.531c2.749-0.75,5.367-1.586,7.852-2.508c1.125-0.438,1.688-0.984,1.688-1.641
		c0-0.344-0.149-0.633-0.445-0.867c-0.281-0.219-0.626-0.328-1.031-0.328c-0.454,0-1.228,0.258-2.32,0.773
		c-1.563,0.734-3.181,1.375-4.853,1.922C266.496,91.184,266.964,89.965,267.137,89.606L267.137,89.606z M269.926,110.16
		c0-0.25-0.11-0.375-0.329-0.375c-0.327,0-0.617,0.289-0.867,0.867c-0.578,1.266-0.866,2.445-0.866,3.539
		c0,0.906,0.249,1.797,0.75,2.672c0.546,0.984,1.304,1.773,2.273,2.367c1.937,1.188,4.897,1.781,8.883,1.781
		c1.952,0,3.694-0.109,5.227-0.328c0.765-0.109,1.296-0.273,1.594-0.492c0.312-0.219,0.469-0.57,0.469-1.055
		c0-0.625-0.321-1.07-0.962-1.336c-0.484-0.188-0.977-0.281-1.476-0.281c-0.609,0-1.267,0.094-1.969,0.281
		c-1.376,0.313-2.845,0.469-4.406,0.469c-2.985,0-5.118-0.336-6.399-1.008c-1.625-0.844-2.438-2.156-2.438-3.938
		c0-0.844,0.102-1.625,0.306-2.344C269.855,110.481,269.926,110.207,269.926,110.16L269.926,110.16z M274.778,103.879
		c-0.298,0.281-0.445,0.484-0.445,0.609c0,0.266,0.108,0.398,0.327,0.398c0.235,0,0.493-0.078,0.774-0.234
		c2.655-1.797,4.272-2.82,4.851-3.07c0.625-0.297,1.173-0.445,1.642-0.445c0.077,0,0.155,0,0.233,0c0.266,0,0.695,0.094,1.29,0.281
		c0.422,0.156,0.772,0.234,1.055,0.234c0.718,0.063,1.101-0.273,1.148-1.008c0.047-0.719-0.398-1.305-1.336-1.758
		c-1.095-0.516-2.602-0.828-4.524-0.938c-0.297-0.016-0.57-0.023-0.82-0.023c-3.531,0-6.555,0.93-9.069,2.789
		c-0.251,0.203-0.375,0.43-0.375,0.68c0,0.219,0.132,0.328,0.398,0.328c0.155,0,0.328-0.039,0.516-0.117
		c2.063-1.109,4.617-1.664,7.663-1.664c0.282,0,0.531,0.008,0.75,0.023s0.329,0.063,0.329,0.141s-0.094,0.195-0.281,0.352
		C276.542,102.395,275.167,103.535,274.778,103.879L274.778,103.879z"/>
	<path fill="#0D4482" d="M262.708,156.443c-0.188-0.781-0.281-1.711-0.281-2.789c0-3.578,0.608-6.875,1.828-9.891
		c0.218-0.563,0.476-1.07,0.773-1.523c0.218-0.406,0.327-0.844,0.327-1.313c0-1.031-0.289-2.023-0.866-2.977
		c-0.36-0.594-0.829-1.132-1.406-1.617c-0.626-0.547-1.103-0.82-1.43-0.82c-0.392,0-0.586,0.125-0.586,0.375
		c0,0.266,0.093,0.492,0.28,0.68c0.657,0.688,0.985,1.743,0.985,3.164c0,1.031-0.243,2.695-0.728,4.992
		c-0.672,3.375-1.008,6.336-1.008,8.883c0,2.453,0.212,4.438,0.633,5.953c0.235,0.844,0.563,1.539,0.985,2.086
		c0.469,0.625,0.938,0.938,1.406,0.938c0.733,0,1.101-0.398,1.101-1.195c0-0.312-0.046-0.711-0.14-1.195
		c-0.063-0.563-0.094-0.984-0.094-1.266c0-1.281,0.304-2.992,0.914-5.133c1.296-4.453,2.702-7.82,4.219-10.102
		c0.765-1.219,1.53-1.828,2.296-1.828c1.125,0,2.063,0.859,2.813,2.578c0.938,2.125,1.407,5.148,1.407,9.07
		c0,4.563-1.048,8.555-3.141,11.977c-2.329,3.797-5.742,6.641-10.242,8.531c-0.485,0.203-0.727,0.406-0.727,0.609
		c0,0.453,0.164,0.68,0.492,0.68c0.188,0,0.522-0.078,1.008-0.234c4.624-1.531,8.25-3.906,10.875-7.125
		c3.108-3.828,4.664-8.703,4.664-14.625c0-3.469-0.579-6.414-1.734-8.836c-1.329-2.781-3.056-4.172-5.18-4.172
		c-1.095,0-2.165,0.656-3.211,1.969c-1.407,1.734-2.829,4.649-4.266,8.742c-0.094,0.313-0.384,1.157-0.867,2.531
		c-0.392,1.157-0.696,2.118-0.914,2.883H262.708z"/>
	<path fill="#0D4482" d="M270.208,196.009c0.452,0,0.882,0.016,1.289,0.046c3.469,0.172,6.343,1.235,8.625,3.188
		c2.702,2.313,4.055,5.391,4.055,9.235c0,4.016-1.649,7.375-4.946,10.078c-3.078,2.516-7.164,4.211-12.258,5.086
		c-0.547,0.125-0.819,0.383-0.819,0.773c0,0.359,0.234,0.539,0.702,0.539c0.031,0,0.071,0,0.117,0
		c5.047-0.281,9.406-1.531,13.079-3.75c4.858-2.922,7.289-6.891,7.289-11.906c0-4.047-1.345-7.445-4.031-10.195
		c-3.11-3.188-7.242-4.781-12.399-4.781c-5.594,0-10.234,1.727-13.921,5.179c-3.485,3.282-5.227,7.25-5.227,11.907
		c0,2.438,0.563,4.547,1.688,6.328c1.108,1.672,2.391,2.507,3.843,2.507c1.407,0,2.984-1.07,4.735-3.21
		c2.952-3.734,5.257-7.977,6.914-12.727c0.609-1.953,0.913-3.523,0.913-4.71c0-1.359-0.32-2.539-0.96-3.54
		C269.3,196.024,269.739,196.009,270.208,196.009L270.208,196.009z M267.98,198.259c0,1-0.227,2.148-0.679,3.445
		c-1.485,4.531-3.688,8.727-6.609,12.586c-1.407,1.859-2.532,2.789-3.375,2.789c-0.907,0-1.657-0.547-2.25-1.641
		c-0.767-1.484-1.149-3.101-1.149-4.851c0-3.688,1.297-6.852,3.892-9.492c2.531-2.594,5.733-4.211,9.608-4.852
		C267.792,196.617,267.98,197.29,267.98,198.259L267.98,198.259z"/>
	<path fill="#0D4482" d="M181.41,40.047v-8.93c1.156-0.5,1.735-0.914,1.735-1.242c0-0.296-0.235-0.523-0.703-0.68
		c-0.626-0.203-2.024-0.422-4.195-0.656c0.155,1.172,0.233,3.829,0.233,7.969v3.539h-6.82c-0.983,0-2.148-0.109-3.492-0.328
		l0.47,1.758c1.046-0.156,2.054-0.234,3.022-0.234h6.82v13.359h-8.741c-1.298,0-2.524-0.109-3.68-0.328l0.469,1.805
		c1.296-0.188,2.367-0.281,3.211-0.281h38.789c0.422,0,0.632-0.156,0.632-0.469c0-0.312-0.367-0.765-1.101-1.359
		c-1.61-1.343-2.54-2.016-2.789-2.016c-0.251,0-1.134,0.883-2.648,2.648h-7.149V41.242h11.087c0.452,0,0.68-0.156,0.68-0.469
		c0-0.312-0.352-0.75-1.055-1.313c-1.61-1.343-2.54-2.016-2.789-2.016c-0.235,0-1.055,0.867-2.461,2.602h-5.462v-8.93
		c1.125-0.469,1.688-0.898,1.688-1.289c0-0.265-0.233-0.476-0.702-0.633c-0.642-0.203-2.04-0.422-4.195-0.656
		c0.124,1.172,0.188,3.805,0.188,7.898v3.609H181.41z M181.41,54.602V41.242h11.04v13.359H181.41z M200.91,68.946
		c0.781,1.438,1.595,2.156,2.438,2.156c0.423,0,0.774-0.172,1.056-0.516c0.327-0.375,0.492-0.844,0.492-1.406
		c0-1.578-1.095-3.281-3.281-5.109c-2.61-2.171-5.993-3.882-10.148-5.133c-0.032-0.015-0.056-0.023-0.07-0.023
		c-0.22,0-0.328,0.125-0.328,0.375c0,0.094,0.03,0.164,0.093,0.211C195.769,62.376,199.019,65.524,200.91,68.946L200.91,68.946z
		 M181.855,61.75c0.266,0.032,0.517,0.047,0.75,0.047c0.969,0,1.454-0.218,1.454-0.656c0-0.281-0.212-0.563-0.633-0.844
		c-0.485-0.312-1.664-0.921-3.539-1.828c-0.501,1.219-1.399,2.571-2.695,4.055c-3.204,3.688-6.743,6.547-10.617,8.578
		c-0.063,0.031-0.095,0.094-0.095,0.188c0,0.297,0.125,0.445,0.375,0.445c0.016,0,0.039,0,0.071,0
		C173.003,69.766,177.98,66.438,181.855,61.75L181.855,61.75z"/>
	<path fill="#0D4482" d="M202.997,107.051v6.047c0,0.516-0.274,0.773-0.82,0.773c-1.001,0-2.384-0.063-4.148-0.188
		c-0.141,0-0.211,0.094-0.211,0.281c0,0.172,0.07,0.266,0.211,0.281c1.202,0.234,2.063,0.477,2.577,0.727
		c0.563,0.297,0.883,0.711,0.962,1.242c0.077,0.609,0.288,0.914,0.633,0.914c0.671,0,1.289-0.141,1.852-0.422
		c1.249-0.656,1.875-1.586,1.875-2.789l-0.142-13.266v-6.164c0.922-0.547,1.383-0.945,1.383-1.195c0-0.219-0.289-0.57-0.866-1.055
		c-1.063-0.906-1.72-1.359-1.969-1.359c-0.235,0-0.79,0.516-1.665,1.547h-7.991c0.328-0.313,0.491-0.727,0.491-1.242
		c0-0.266-0.046-0.492-0.14-0.68c2.921-1.547,5.655-3.359,8.202-5.438c1.548-0.094,2.321-0.383,2.321-0.867
		c0-0.219-0.29-0.617-0.867-1.195c-1.188-1.109-1.892-1.664-2.109-1.664c-0.267,0-0.891,0.492-1.875,1.477h-16.758
		c-1.485,0-2.899-0.094-4.242-0.281l0.492,1.805c1.078-0.219,2.327-0.328,3.75-0.328h16.313c-1.485,1.813-3.392,3.688-5.72,5.625
		c-1.109-1.375-3.266-2.531-6.468-3.469c-0.017,0-0.032,0-0.047,0c-0.204,0-0.305,0.086-0.305,0.258
		c0,0.047,0.023,0.094,0.069,0.141c2.234,1.688,3.798,3.43,4.688,5.227c0.172,0.328,0.306,0.539,0.399,0.633h-9.094
		c-1.063-0.625-2.196-1.203-3.398-1.734c0.124,1.5,0.188,5.063,0.188,10.688l-0.188,14.789c0,0.703,0.398,1.055,1.195,1.055
		c1.187,0,1.78-0.43,1.78-1.289v-8.883h8.157l-0.141,8.742c0,0.672,0.382,1.008,1.148,1.008c1.219,0,1.827-0.414,1.827-1.242
		c0-0.297-0.016-1.203-0.046-2.719c-0.047-2.172-0.079-4.102-0.094-5.789H202.997z M183.355,105.855v-5.578h8.157v5.578H183.355z
		 M194.208,100.277h8.789v5.578h-8.789V100.277z M202.997,93.621v5.461h-8.789v-5.461H202.997z M191.512,99.082h-8.157v-5.461h8.157
		V99.082z M172.27,89.332c0.155,0.656,0.327,1.109,0.515,1.359c0.219,0.313,0.57,0.469,1.056,0.469c0.469,0,0.858-0.172,1.172-0.516
		c0.375-0.406,0.563-0.984,0.563-1.734c0-0.969-0.47-1.953-1.407-2.953c-1.188-1.281-3.016-2.43-5.483-3.445
		c-0.032-0.016-0.063-0.023-0.094-0.023c-0.204,0-0.306,0.094-0.306,0.281c0,0.047,0.016,0.094,0.048,0.141
		C170.363,84.894,171.675,87.035,172.27,89.332L172.27,89.332z M194.254,120.058c-6.767,0-11.501-0.563-14.203-1.688
		c-2.001-0.859-3.634-2.297-4.898-4.313v-11.391c0.89-0.531,1.336-0.945,1.336-1.242c0-0.234-0.274-0.586-0.821-1.055
		c-1.094-0.922-1.733-1.383-1.921-1.383s-0.79,0.539-1.805,1.617H169.2c-1.626,0-2.953-0.094-3.984-0.281l0.469,1.828
		c0.827-0.219,1.999-0.328,3.516-0.328h3.022v12.375c-1.546,1.391-3.117,2.531-4.71,3.422c-0.595,0.328-1.329,0.602-2.203,0.82
		c0.968,1.859,1.617,3.054,1.945,3.586c0.312,0.516,0.586,0.773,0.82,0.773c0.422,0,0.633-0.571,0.633-1.711
		c0.015-0.094,0.022-0.243,0.022-0.445c2.188-2.297,3.992-4.508,5.415-6.633c1.202,2.703,2.913,4.766,5.133,6.188
		c1.265,0.828,2.93,1.438,4.992,1.828c2.843,0.547,7.022,0.82,12.539,0.82c4.202,0,7.671-0.172,10.406-0.516
		c0.469-0.094,0.727-0.367,0.773-0.82c0.046-0.609,0.147-1.039,0.304-1.289c0.188-0.281,0.61-0.586,1.267-0.914
		c0.108-0.063,0.163-0.164,0.163-0.305c0-0.219-0.086-0.313-0.257-0.281C204.339,119.613,199.27,120.058,194.254,120.058
		L194.254,120.058z"/>
	<path fill="#0D4482" d="M176.958,149.282c-0.907-0.563-2.118-1.188-3.633-1.875c0.155,1.656,0.234,4.266,0.234,7.828l-0.142,7.898
		c0,0.734,0.43,1.102,1.29,1.102c1.219,0,1.827-0.43,1.827-1.289v-0.914h21.633v1.242c0,0.703,0.414,1.055,1.242,1.055
		c1.281,0,1.923-0.43,1.923-1.289l-0.141-8.344v-3.211c0.858-0.563,1.288-0.992,1.288-1.289c0-0.266-0.273-0.633-0.82-1.102
		c-1.094-0.969-1.766-1.453-2.015-1.453c-0.22,0-0.837,0.547-1.853,1.641h-9.515v-6.305h16.757c0.406,0,0.61-0.141,0.61-0.422
		c0-0.266-0.368-0.711-1.103-1.336c-1.516-1.25-2.39-1.875-2.625-1.875c-0.28,0-1.133,0.813-2.554,2.438h-11.086v-5.18
		c1.125-0.406,1.688-0.82,1.688-1.242c0-0.297-0.235-0.531-0.703-0.703c-0.657-0.219-2.071-0.438-4.242-0.656
		c0.188,1.5,0.281,3.406,0.281,5.719v9.563H176.958z M176.535,160.837v-10.359h21.633v10.359H176.535z M203.934,174.618
		c0.265,1.063,0.812,1.594,1.641,1.594c0.452,0,0.843-0.172,1.172-0.516c0.358-0.391,0.538-0.907,0.538-1.547
		c0-1.156-0.508-2.352-1.522-3.586c-1.313-1.609-3.282-3.016-5.907-4.219c-0.031-0.016-0.063-0.023-0.093-0.023
		c-0.234,0-0.353,0.094-0.353,0.281c0,0.063,0.016,0.109,0.048,0.141C201.675,168.962,203.167,171.587,203.934,174.618
		L203.934,174.618z M192.167,174.079c0.048,1.281,0.555,1.922,1.524,1.922c1.155,0,1.734-0.766,1.734-2.297
		c0-1.063-0.313-2.141-0.938-3.234c-0.876-1.531-2.259-2.883-4.148-4.055c-0.063-0.031-0.126-0.047-0.188-0.047
		c-0.251,0-0.375,0.078-0.375,0.234c0,0.031,0.015,0.063,0.047,0.094C191.246,169.118,192.028,171.579,192.167,174.079
		L192.167,174.079z M181.622,172.556l-0.047,1.922c0,1.156,0.476,1.734,1.43,1.734c0.53,0,0.968-0.188,1.313-0.563
		c0.375-0.438,0.563-1.04,0.563-1.805c0-3.047-1.212-5.523-3.633-7.43c-0.063-0.063-0.149-0.094-0.258-0.094
		c-0.188,0-0.281,0.078-0.281,0.234c0,0.016,0,0.047,0,0.094C181.317,168.525,181.622,170.493,181.622,172.556L181.622,172.556z
		 M171.989,170.142c-0.907,1.125-1.985,1.93-3.234,2.414c-1.188,0.453-1.782,1.109-1.782,1.969c0,0.422,0.172,0.789,0.517,1.102
		c0.375,0.359,0.827,0.539,1.358,0.539c1.375,0,2.579-0.719,3.61-2.156c1.313-1.813,1.945-4.258,1.897-7.336
		c0-0.203-0.14-0.305-0.421-0.305c-0.142,0-0.22,0.047-0.234,0.141C173.386,167.868,172.816,169.079,171.989,170.142
		L171.989,170.142z"/>
	<path fill="#0D4482" d="M197.887,203.472c2.468-0.484,4.617-1.047,6.445-1.688c0.921-0.343,1.383-0.812,1.383-1.406
		c0-0.328-0.164-0.601-0.493-0.82c-0.327-0.219-0.726-0.328-1.194-0.328c-0.97,0-1.767,0.18-2.391,0.539
		c-0.75,0.406-1.228,0.648-1.43,0.727c-0.72,0.234-1.509,0.438-2.367,0.609c0-1.515,0.054-3.062,0.164-4.641
		c0.047-1,0.249-1.656,0.609-1.969c0.39-0.328,0.586-0.68,0.586-1.055c0-0.75-0.673-1.438-2.016-2.063
		c-1.157-0.578-2.259-0.867-3.305-0.867c-0.454,0-0.867,0.102-1.242,0.305c-0.422,0.234-0.633,0.484-0.633,0.75
		c0,0.328,0.202,0.492,0.609,0.492c0.952,0,1.711,0.188,2.273,0.563c0.375,0.281,0.577,0.891,0.609,1.828
		c0.124,2.75,0.188,5.118,0.188,7.102c-3,0.484-5.587,0.727-7.758,0.727c-1.61,0-2.859-0.609-3.75-1.828
		c-0.267-0.39-0.509-0.586-0.727-0.586c-0.282,0-0.422,0.149-0.422,0.445c0,0.188,0.047,0.422,0.14,0.703
		c0.922,2.25,2.603,3.375,5.04,3.375c2.515,0,5.022-0.179,7.522-0.539l0.142,13.406c-1.406-0.359-2.923-0.539-4.547-0.539
		c-2.001,0-3.603,0.383-4.805,1.148c-1.313,0.813-1.969,1.914-1.969,3.305c0,1.313,0.563,2.391,1.688,3.234
		c1.266,0.953,2.944,1.43,5.039,1.43c2.156,0,3.858-0.516,5.109-1.547c1.233-0.984,1.852-2.227,1.852-3.727
		c1.828,1.016,3.647,2.235,5.461,3.656c0.499,0.375,0.976,0.563,1.43,0.563c0.093,0,0.179-0.008,0.258-0.023
		c0.75-0.172,1.102-0.671,1.055-1.5c-0.063-0.5-0.337-0.945-0.82-1.336c-1.673-1.359-4.118-2.656-7.337-3.891
		C198.019,214.011,197.887,209.16,197.887,203.472L197.887,203.472z M194.629,222.551c-0.845,0.813-2.095,1.219-3.75,1.219
		c-3.234,0-4.852-0.914-4.852-2.742c0-0.75,0.39-1.359,1.172-1.828c0.797-0.469,1.835-0.703,3.117-0.703
		c1.828,0,3.647,0.352,5.461,1.055C195.778,220.832,195.394,221.832,194.629,222.551L194.629,222.551z M174.075,207.363
		c0.53-2.797,1.257-5.359,2.18-7.688c0.218-0.75,0.468-1.289,0.75-1.617c0.452-0.516,0.68-1.046,0.68-1.594
		c0-1.125-0.321-2.164-0.962-3.117c-0.608-0.969-1.281-1.711-2.015-2.227c-0.407-0.313-0.728-0.469-0.961-0.469
		c-0.375,0-0.563,0.156-0.563,0.469c0,0.125,0.077,0.32,0.233,0.586c0.734,1.204,1.103,2.336,1.103,3.398
		c0,1.031-0.258,2.445-0.773,4.242c-1.563,6-2.344,11.118-2.344,15.352c0,5.047,0.609,8.734,1.827,11.063
		c0.423,0.828,0.969,1.242,1.642,1.242c0.733,0,1.101-0.43,1.101-1.289l-0.046-2.883c0-0.281,0.141-1.102,0.421-2.461
		c0.095-0.422,0.992-3.641,2.695-9.656c0.063-0.188,0.095-0.343,0.095-0.469c0-0.422-0.141-0.633-0.422-0.633
		c-0.298,0-0.509,0.18-0.633,0.539c-1.298,3.141-2.501,6.375-3.61,9.703c-0.063,0.188-0.188,0.281-0.375,0.281
		c-0.172,0-0.32-0.289-0.444-0.867c-0.188-1-0.281-2.82-0.281-5.461C173.372,211.918,173.605,209.769,174.075,207.363
		L174.075,207.363z"/>
	<path fill="#0D4482" d="M197.512,240.908c3.328,1.875,5.796,4.664,7.405,8.367c0.517,1.156,1.25,1.734,2.204,1.734
		c0.546,0,1.008-0.195,1.383-0.586c0.452-0.469,0.68-1.07,0.68-1.805c0-1.688-1.055-3.391-3.164-5.109
		c-2.11-1.688-4.735-2.891-7.875-3.609c-0.094-0.016-0.196-0.023-0.305-0.023c-0.469,0-0.703,0.141-0.703,0.422
		C197.137,240.564,197.261,240.767,197.512,240.908L197.512,240.908z"/>
	<path fill="#0D4482" d="M110.45,56.639c3.218,5.578,7.219,9.852,12,12.82c1.062,0.672,1.749,1.008,2.063,1.008
		c0.343,0,0.609-0.242,0.797-0.727c0.249-0.656,0.516-1.117,0.797-1.383c0.281-0.281,0.718-0.492,1.313-0.633
		c0.188-0.031,0.281-0.141,0.281-0.328c0-0.125-0.056-0.203-0.164-0.234c-5.798-2.046-10.523-5.523-14.18-10.43
		c-2.032-2.703-3.603-5.508-4.711-8.414c-1.438-3.718-2.282-7.945-2.531-12.68c0.015-0.375,0.023-0.914,0.023-1.617
		c0.015-0.828,0.03-1.445,0.047-1.852c1.14-0.453,1.711-0.851,1.711-1.195c0-0.359-0.281-0.625-0.844-0.797
		c-0.642-0.188-2.095-0.382-4.359-0.586c0.141,1.078,0.211,2.282,0.211,3.609c0,2.016-0.141,4.297-0.422,6.844
		c-0.688,6.344-2.329,11.829-4.922,16.453c-2.923,5.235-7.345,9.805-13.266,13.711c-0.047,0.031-0.07,0.086-0.07,0.164
		c0,0.328,0.124,0.492,0.375,0.492c0.03,0,0.062-0.008,0.094-0.023c6-2.953,10.632-6.546,13.898-10.781
		c3.765-4.875,6.124-11.148,7.078-18.82C106.372,47.163,107.965,52.296,110.45,56.639L110.45,56.639z"/>
	<path fill="#0D4482" d="M88.958,120.315c-1.579,0-3.063-0.094-4.453-0.281l0.469,1.805c1.343-0.219,2.672-0.328,3.984-0.328h37.008
		c0.452,0,0.68-0.141,0.68-0.422s-0.469-0.797-1.406-1.547c-1.673-1.375-2.634-2.063-2.883-2.063c-0.234,0-1.181,0.946-2.836,2.836
		h-12.516v-13.219h14.789c0.405,0,0.609-0.141,0.609-0.422c0-0.313-0.384-0.781-1.148-1.406c-1.626-1.344-2.555-2.016-2.789-2.016
		s-1.11,0.883-2.625,2.648h-8.836v-11.18h16.172c0.422,0,0.633-0.141,0.633-0.422c0-0.313-0.415-0.812-1.242-1.5
		c-1.657-1.375-2.602-2.063-2.836-2.063c-0.22,0-1.118,0.93-2.695,2.789h-10.031v-9.445c1.187-0.469,1.781-0.922,1.781-1.359
		c0-0.296-0.243-0.523-0.727-0.68c-0.673-0.218-2.126-0.437-4.359-0.656c0.188,1.5,0.281,5.227,0.281,11.18v0.961h-9.75
		c0.952-2.016,1.758-3.938,2.414-5.766c1.249-0.296,1.875-0.617,1.875-0.961c0-0.281-0.251-0.539-0.75-0.773
		c-0.485-0.234-1.79-0.68-3.914-1.336c-0.204,1.469-0.539,2.992-1.008,4.57c-1.922,5.985-4.563,11.016-7.922,15.094
		c-0.032,0.047-0.047,0.086-0.047,0.117c0,0.25,0.141,0.375,0.422,0.375c0.062,0,0.108-0.015,0.141-0.047
		c3.39-2.875,6.117-6.234,8.18-10.078h10.359v11.18h-9.469c-1.406,0-2.766-0.094-4.078-0.281l0.492,1.758
		c1.155-0.188,2.374-0.281,3.656-0.281h9.398v13.219H88.958z"/>
	<path fill="#0D4482" d="M106.208,143.208c0.452,0,0.882,0.016,1.289,0.047c3.469,0.172,6.343,1.234,8.625,3.188
		c2.702,2.313,4.055,5.391,4.055,9.234c0,4.016-1.649,7.375-4.945,10.078c-3.079,2.516-7.165,4.211-12.258,5.086
		c-0.548,0.125-0.82,0.383-0.82,0.773c0,0.36,0.234,0.539,0.703,0.539c0.03,0,0.07,0,0.117,0c5.046-0.281,9.405-1.531,13.078-3.75
		c4.858-2.921,7.289-6.891,7.289-11.906c0-4.046-1.345-7.445-4.031-10.195c-3.11-3.188-7.242-4.781-12.398-4.781
		c-5.595,0-10.235,1.727-13.922,5.18c-3.485,3.281-5.227,7.25-5.227,11.906c0,2.438,0.563,4.547,1.688,6.328
		c1.108,1.672,2.391,2.508,3.844,2.508c1.406,0,2.983-1.07,4.734-3.211c2.953-3.734,5.257-7.976,6.914-12.727
		c0.609-1.953,0.914-3.523,0.914-4.711c0-1.359-0.321-2.539-0.961-3.539C105.3,143.224,105.739,143.208,106.208,143.208
		L106.208,143.208z M103.981,145.458c0,1-0.228,2.148-0.68,3.445c-1.485,4.532-3.688,8.727-6.609,12.586
		c-1.406,1.86-2.531,2.789-3.375,2.789c-0.907,0-1.657-0.547-2.25-1.641c-0.767-1.484-1.148-3.102-1.148-4.852
		c0-3.688,1.296-6.852,3.891-9.492c2.531-2.593,5.733-4.21,9.609-4.852C103.793,143.818,103.981,144.49,103.981,145.458
		L103.981,145.458z"/>
	<path fill="#0D4482" d="M93.247,219.556l-0.188,9.023c0,0.703,0.445,1.054,1.336,1.054c1.219,0,1.828-0.414,1.828-1.242v-1.688
		h18.188v1.641c0,0.422,0.085,0.71,0.258,0.867c0.188,0.188,0.546,0.281,1.078,0.281c1.219,0,1.828-0.445,1.828-1.336l-0.188-9.234
		v-3.938c0.609-0.453,0.914-0.773,0.914-0.961c0-0.234-0.305-0.602-0.914-1.102c-1.063-0.766-1.688-1.148-1.875-1.148
		s-0.649,0.351-1.383,1.055H96.551c-0.532-0.344-1.423-0.805-2.672-1.383c3.202-2.328,5.772-4.585,7.711-6.773
		c1.702-1.922,3.062-3.734,4.078-5.438c2.687,4.64,5.827,8.453,9.422,11.438c2.484,2.047,4.976,3.742,7.477,5.085
		c1.062,0.579,1.758,0.867,2.086,0.867c0.343,0,0.609-0.242,0.797-0.726c0.249-0.641,0.499-1.094,0.75-1.359
		c0.281-0.266,0.71-0.469,1.289-0.609c0.171-0.031,0.258-0.148,0.258-0.352c0-0.125-0.056-0.195-0.164-0.211
		c-3.876-1.031-7.446-2.586-10.711-4.664c-3.923-2.453-7.368-5.813-10.336-10.079c1.062-0.093,1.594-0.32,1.594-0.68
		c0-0.468-1.462-1.25-4.383-2.343c-0.469,1.375-1.219,2.844-2.25,4.406c-1.72,2.625-3.984,5.29-6.797,7.992
		c-3.298,3.172-6.82,5.899-10.57,8.18c-0.063,0.031-0.094,0.094-0.094,0.188c0,0.297,0.117,0.445,0.352,0.445c0.03,0,0.054,0,0.07,0
		c3.188-1.468,6.07-3.085,8.648-4.851C93.2,213.212,93.247,215.743,93.247,219.556L93.247,219.556z M96.223,225.509v-11.484h18.188
		v11.484H96.223z M119.895,199.118c0.469,0.766,0.835,1.289,1.102,1.57c0.343,0.36,0.727,0.54,1.148,0.54
		c0.938,0,1.406-0.609,1.406-1.828c0-1.547-1.134-3.383-3.398-5.508c-2.688-2.531-5.993-4.563-9.914-6.094
		c-0.017-0.016-0.04-0.023-0.07-0.023c-0.234,0-0.352,0.141-0.352,0.421c0,0.079,0.03,0.133,0.094,0.165
		C113.738,191.064,117.066,194.65,119.895,199.118L119.895,199.118z M93.223,197.923c2.374-2.016,4.507-4.453,6.398-7.313
		c1.453-0.094,2.18-0.383,2.18-0.867s-1.509-1.297-4.523-2.438c-0.298,1.031-0.907,2.305-1.828,3.82
		c-2.735,4.485-6.149,8.219-10.242,11.204c-0.047,0.046-0.07,0.109-0.07,0.188c0,0.313,0.132,0.469,0.398,0.469
		c0.015,0,0.038,0,0.07,0C88.636,201.345,91.175,199.657,93.223,197.923L93.223,197.923z"/>
	<path fill="#0D4482" d="M96.059,257.654c-1.359,1.953-2.977,3.891-4.852,5.813c-0.923,0.969-1.383,1.758-1.383,2.367
		c0,0.391,0.117,0.727,0.352,1.008c0.265,0.313,0.577,0.469,0.938,0.469c0.483,0,0.891-0.242,1.219-0.727
		c1.453-2.047,2.89-3.765,4.313-5.156c2.233-2.109,4.272-3.164,6.117-3.164c0.733,0,1.289,0.243,1.664,0.727
		c0.483,0.642,0.71,1.797,0.68,3.469c0,0.375,0,1.047,0,2.016c-2.61,1.578-4.47,2.891-5.578,3.938
		c-1.86,1.766-2.789,3.703-2.789,5.813c0,3.906,3.328,5.859,9.984,5.859c3.703,0,6.727-0.094,9.07-0.281
		c1.858-0.172,2.789-0.688,2.789-1.547c0-0.469-0.243-0.883-0.727-1.242c-0.579-0.453-1.313-0.68-2.203-0.68
		c-0.375,0-0.984,0.094-1.828,0.281c-0.907,0.219-1.781,0.383-2.625,0.492c-2.156,0.25-4.579,0.375-7.266,0.375
		c-3.703,0-5.555-1.188-5.555-3.563c0-1.422,0.68-2.78,2.039-4.078c0.921-0.859,2.468-1.898,4.641-3.117
		c-0.017,0.844-0.047,1.93-0.094,3.258c-0.047,1.313-0.07,2.234-0.07,2.766c0,0.344,0.124,0.642,0.375,0.891
		c0.265,0.266,0.586,0.398,0.961,0.398c0.874,0,1.313-0.609,1.313-1.828l-0.047-6.914c0.343-0.203,1.015-0.586,2.016-1.148
		c0.968-0.563,1.702-0.984,2.203-1.266c3.312-1.766,6.226-3.172,8.742-4.219c0.405-0.172,0.882-0.297,1.43-0.375
		c0.64-0.063,0.961-0.398,0.961-1.008c0-0.703-0.656-1.461-1.969-2.273c-1.251-0.766-2.431-1.148-3.539-1.148
		c-0.485,0-0.907,0.063-1.266,0.188c-0.438,0.156-0.656,0.352-0.656,0.586c0,0.141,0.141,0.234,0.422,0.281
		c0.687,0.094,1.249,0.29,1.688,0.586c0.281,0.188,0.422,0.391,0.422,0.609c0,0.313-0.173,0.586-0.516,0.82
		c-2.032,1.359-5.344,3.414-9.938,6.164c0-0.547-0.032-1.203-0.094-1.969c-0.141-2.859-1.563-4.289-4.266-4.289
		c-1.86,0-3.813,0.806-5.859,2.414l-0.094-0.094c1.266-1.813,2.843-4.375,4.734-7.688c2.766-0.625,5.522-1.477,8.273-2.555
		c0.563-0.219,0.944-0.422,1.148-0.609c0.249-0.203,0.375-0.492,0.375-0.867c0-0.296-0.126-0.563-0.375-0.797
		c-0.313-0.266-0.712-0.398-1.195-0.398c-0.609,0-1.43,0.289-2.461,0.867c-1.219,0.672-2.688,1.274-4.406,1.805
		c0.546-1.016,0.914-1.703,1.102-2.063c0.343-0.703,0.757-1.21,1.242-1.523c0.39-0.234,0.586-0.586,0.586-1.055
		c0-0.781-0.703-1.5-2.109-2.156c-1.095-0.516-2.048-0.773-2.859-0.773c-0.703,0-1.289,0.141-1.758,0.422
		c-0.36,0.234-0.539,0.477-0.539,0.727c0,0.156,0.179,0.234,0.539,0.234c1.983,0,2.977,0.438,2.977,1.313
		c0,0.438-0.11,1.023-0.328,1.758c-0.438,1.313-0.923,2.531-1.453,3.656c-2.235,0.516-4.219,0.773-5.953,0.773
		c-0.907,0-1.61-0.07-2.109-0.211c-0.656-0.188-1.298-0.578-1.922-1.172c-0.281-0.297-0.539-0.445-0.773-0.445
		c-0.281,0-0.422,0.211-0.422,0.633c0,0.173,0.077,0.391,0.234,0.656c0.624,0.922,1.289,1.579,1.992,1.969
		c0.78,0.422,1.843,0.633,3.188,0.633c0.874,0,2.414-0.133,4.617-0.398C98.309,254.185,97.152,256.107,96.059,257.654
		L96.059,257.654z"/>
	<path fill="#0D4482" d="M4.075,48.38c-0.703,0-1.376-0.031-2.016-0.094c0.499,2.719,0.929,4.078,1.289,4.078
		c0.375,0,0.694-0.445,0.961-1.336c2.077-0.281,3.938-0.586,5.578-0.914v10.852l-0.234,9.469c0,0.734,0.429,1.102,1.289,1.102
		c1.219,0,1.828-0.461,1.828-1.383l-0.188-10.242V49.505c1.594-0.391,2.968-0.75,4.125-1.078c0.188,0.859,0.312,1.578,0.375,2.156
		c0.171,1.125,0.593,1.688,1.266,1.688c0.984,0,1.477-0.703,1.477-2.109c0-0.781-0.352-1.719-1.055-2.813
		c-0.907-1.438-2.118-2.656-3.633-3.656c-0.047-0.031-0.103-0.047-0.164-0.047c-0.22,0-0.328,0.078-0.328,0.234
		c0,0.047,0.015,0.094,0.047,0.141c0.812,1.188,1.406,2.391,1.781,3.609c-4.813,0.391-7.696,0.609-8.648,0.656
		c2.64-2.5,5.522-6.047,8.648-10.641c1.155,0,1.734-0.242,1.734-0.727c0-0.422-1.266-1.242-3.797-2.461
		c-0.328,1.234-0.984,2.758-1.969,4.57c-1.828,3.453-3.813,6.555-5.953,9.305L4.075,48.38z M20.364,48.99
		C20.3,49.021,20.27,49.091,20.27,49.2c0,0.313,0.108,0.469,0.328,0.469c0.015,0,0.038,0,0.07,0
		c3.999-1.406,7.39-3.148,10.172-5.227l0.234,0.188c3.015,2.469,6.288,4.375,9.82,5.719c1.093,0.422,1.734,0.633,1.922,0.633
		c0.281,0,0.492-0.227,0.633-0.68c0.202-0.641,0.422-1.094,0.656-1.359c0.265-0.297,0.687-0.5,1.266-0.609
		c0.155-0.016,0.234-0.109,0.234-0.281c0-0.141-0.063-0.219-0.188-0.234c-4.985-0.922-9.141-2.523-12.469-4.805l-0.188-0.164
		c2.766-2.406,5.257-5.555,7.477-9.445c1.078-0.375,1.617-0.758,1.617-1.148c0-0.266-0.29-0.68-0.867-1.242
		c-0.984-0.938-1.617-1.406-1.898-1.406c-0.22,0-0.86,0.516-1.922,1.547H22.145c-1.142,0-2.407-0.109-3.797-0.328l0.539,1.852
		c0.921-0.219,1.992-0.328,3.211-0.328h0.633c1.89,4.547,4.046,8.047,6.469,10.5C26.668,45.146,23.722,47.193,20.364,48.99
		L20.364,48.99z M23.973,32.349h13.289c-1.547,3.25-3.703,6.258-6.469,9.023C27.964,38.997,25.691,35.99,23.973,32.349
		L23.973,32.349z M2.973,35.396c-0.032-0.016-0.063-0.023-0.094-0.023c-0.188,0-0.281,0.102-0.281,0.305
		c0,0.078,0.023,0.141,0.07,0.188c1.875,1.563,3.108,3.484,3.703,5.766c0.296,0.984,0.757,1.477,1.383,1.477
		c0.921,0,1.383-0.625,1.383-1.875c0-1.203-0.72-2.398-2.156-3.586c1.468-1.547,3.194-3.805,5.18-6.773
		c1.202-0.078,1.805-0.352,1.805-0.82c0-0.406-1.368-1.094-4.102-2.063c-0.094,0.688-0.384,1.727-0.867,3.117
		c-0.876,2.172-1.805,4.156-2.789,5.953C5.27,36.419,4.192,35.865,2.973,35.396L2.973,35.396z M20.012,68.161
		c-1.048,0-2.243-0.109-3.586-0.328l0.469,1.805c1.046-0.188,2.086-0.281,3.117-0.281h24.727c0.422,0,0.633-0.141,0.633-0.422
		s-0.368-0.727-1.102-1.336c-1.5-1.25-2.367-1.875-2.602-1.875s-1.001,0.813-2.297,2.438H31.45V57.357h11.133
		c0.422,0,0.633-0.156,0.633-0.469s-0.337-0.727-1.008-1.242c-1.406-1.125-2.227-1.688-2.461-1.688s-0.954,0.734-2.156,2.203H31.45
		v-5.367c1.031-0.484,1.547-0.891,1.547-1.219c0-0.234-0.22-0.422-0.656-0.563c-0.609-0.203-1.931-0.414-3.961-0.633
		c0.155,1.094,0.234,3.258,0.234,6.492v1.289h-5.625c-1.219,0-2.367-0.109-3.445-0.328l0.516,1.805
		c1.202-0.188,2.18-0.281,2.93-0.281h5.625v10.805H20.012z M16.379,61.388c0.077,1,0.188,1.672,0.328,2.016
		c0.171,0.391,0.499,0.586,0.984,0.586c0.452,0,0.82-0.191,1.102-0.574s0.422-0.879,0.422-1.488c0-2.797-1.462-5.336-4.383-7.617
		c-0.047-0.047-0.103-0.07-0.164-0.07c-0.204,0-0.305,0.094-0.305,0.281c0,0.031,0,0.07,0,0.117
		C15.55,56.685,16.222,58.935,16.379,61.388L16.379,61.388z M7.075,56.747c0.952-0.203,1.43-0.492,1.43-0.867
		c0-0.25-0.204-0.469-0.609-0.656c-0.438-0.219-1.579-0.594-3.422-1.125c0,1.453-0.157,3.023-0.469,4.711
		c-0.609,3.219-1.43,6.094-2.461,8.625c0,0.031,0,0.055,0,0.07c0,0.219,0.141,0.328,0.422,0.328c0.108,0,0.179-0.031,0.211-0.094
		C4.253,64.771,5.886,61.107,7.075,56.747L7.075,56.747z"/>
	<path fill="#0D4482" d="M37.965,91.221c1.562,1.359,3.265,2.57,5.109,3.633c0.516,0.328,0.897,0.492,1.148,0.492
		c0.188,0,0.358-0.211,0.516-0.633c0.39-1.031,0.984-1.633,1.781-1.805c0.155-0.047,0.234-0.148,0.234-0.305
		c0-0.109-0.047-0.172-0.141-0.188c-2.501-0.594-4.821-1.539-6.961-2.836c-2.454-1.453-4.563-3.516-6.328-6.188
		c0.797-0.203,1.195-0.461,1.195-0.773c0-0.219-0.188-0.422-0.563-0.609c-0.485-0.234-1.688-0.672-3.609-1.313
		c-0.375,1.531-0.984,2.984-1.828,4.359c-2.517,4.172-5.634,7.664-9.352,10.477c-0.047,0.047-0.07,0.102-0.07,0.164
		c0,0.234,0.117,0.352,0.352,0.352c0.047,0,0.085-0.008,0.117-0.023c2.827-1.531,5.21-3.195,7.148-4.992
		c2.124-1.953,4.038-4.391,5.742-7.313C34.222,87.003,36.058,89.503,37.965,91.221L37.965,91.221z M36.723,118.573
		c1.671,1.891,3.671,3.539,6,4.945c0.296,0.188,0.569,0.281,0.82,0.281c0.296,0,0.507-0.18,0.633-0.539
		c0.234-0.656,0.483-1.125,0.75-1.406c0.265-0.313,0.671-0.547,1.219-0.703c0.155-0.047,0.234-0.141,0.234-0.281
		c0-0.109-0.063-0.188-0.188-0.234c-2.938-0.781-5.423-1.938-7.453-3.469c-2.391-1.781-4.274-4.164-5.648-7.148h6.469v0.961
		c0,0.672,0.366,1.008,1.102,1.008c1.187,0,1.781-0.398,1.781-1.195l-0.188-6.328v-2.016c0.733-0.5,1.102-0.883,1.102-1.148
		c0-0.297-0.243-0.664-0.727-1.102c-0.891-0.844-1.485-1.266-1.781-1.266c-0.188,0-0.759,0.516-1.711,1.547h-6
		c0.03-1.188,0.047-2.953,0.047-5.297h6.234c0.405,0,0.609-0.141,0.609-0.422c0-0.313-0.274-0.695-0.82-1.148
		c-1.235-1.031-1.954-1.547-2.156-1.547c-0.188,0-0.79,0.641-1.805,1.922h-8.109c-1.157,0-2.22-0.094-3.188-0.281l0.492,1.805
		c0.812-0.219,1.741-0.328,2.789-0.328h3.258l-0.047,5.297h-5.625c-0.984-0.641-2.056-1.188-3.211-1.641
		c0.155,1.688,0.234,3.609,0.234,5.766L21.7,111.12c0,0.641,0.398,0.961,1.195,0.961c1.062,0,1.594-0.398,1.594-1.195v-0.867h5.133
		c-0.688,3.063-2.016,5.664-3.984,7.805c-1.938,2.25-4.626,4.203-8.063,5.859c-0.094,0.031-0.141,0.101-0.141,0.211
		c0,0.25,0.101,0.375,0.305,0.375c0.015,0,0.038,0,0.07,0c7.765-2.422,12.469-6.68,14.109-12.773l0.305-1.008
		C33.254,113.675,34.754,116.37,36.723,118.573L36.723,118.573z M33.137,101.675h6.422v7.148h-7.008
		C32.879,107.057,33.074,104.675,33.137,101.675L33.137,101.675z M24.489,108.823v-7.148h5.953
		c-0.047,2.219-0.157,4.055-0.328,5.508c-0.032,0.391-0.117,0.938-0.258,1.641H24.489z M16.614,106.221
		c-0.298,5.172-0.86,9.109-1.688,11.813c-0.548,1.766-1.251,2.648-2.109,2.648c-0.876,0-2.478-0.164-4.805-0.492
		c-0.157-0.031-0.234,0.07-0.234,0.305c0,0.172,0.062,0.281,0.188,0.328c1.39,0.39,2.351,0.765,2.883,1.125
		c0.53,0.359,0.867,0.859,1.008,1.5c0.047,0.265,0.117,0.43,0.211,0.492c0.077,0.062,0.281,0.094,0.609,0.094
		c0.968,0,1.835-0.336,2.602-1.008c0.844-0.719,1.53-1.922,2.063-3.609c0.921-2.984,1.562-7.141,1.922-12.469
		c0.703-0.391,1.055-0.711,1.055-0.961c0-0.328-0.243-0.695-0.727-1.102c-0.907-0.828-1.5-1.242-1.781-1.242
		c-0.204,0-0.712,0.461-1.523,1.383h-2.648v-6.094h5.719c0.405,0,0.609-0.141,0.609-0.422c0-0.313-0.211-0.641-0.633-0.984
		c-1.142-0.953-1.828-1.43-2.063-1.43c-0.204,0-0.759,0.547-1.664,1.641h-1.969v-5.672h5.672c0.405,0,0.609-0.141,0.609-0.422
		c0-0.313-0.211-0.641-0.633-0.984c-1.125-0.953-1.813-1.43-2.063-1.43c-0.234,0-0.806,0.547-1.711,1.641h-1.875V85.01h6.82
		c0.437,0,0.656-0.141,0.656-0.422c0-0.266-0.228-0.586-0.68-0.961c-1.359-1.156-2.142-1.734-2.344-1.734
		c-0.234,0-0.853,0.641-1.852,1.922H7.051c-1.142-0.672-2.196-1.203-3.164-1.594c0.155,1.641,0.234,5.18,0.234,10.617l-0.188,14.063
		c0,0.609,0.382,0.914,1.148,0.914c1.062,0,1.594-0.367,1.594-1.102v-0.492H16.614z M6.676,85.01h4.406v5.859H6.676V85.01z
		 M11.083,92.065v5.672H6.676v-5.672H11.083z M11.083,98.932v6.094H6.676v-6.094H11.083z M13.45,112.081
		c0.218,0.734,0.507,1.102,0.867,1.102c0.64,0,0.961-0.492,0.961-1.477c0-0.578-0.298-1.156-0.891-1.734
		c-0.656-0.641-1.556-1.172-2.695-1.594c-0.032-0.016-0.07-0.023-0.117-0.023c-0.188,0-0.281,0.07-0.281,0.211
		c0,0.047,0.015,0.086,0.047,0.117C12.339,109.729,13.042,110.862,13.45,112.081L13.45,112.081z M1.45,116.206
		c-0.516,0.516-0.773,1.016-0.773,1.5c0,0.984,0.46,1.477,1.383,1.477c0.718,0,1.327-0.477,1.828-1.43
		c0.609-1.125,0.914-2.625,0.914-4.5c0-1.063-0.079-2.039-0.234-2.93c-0.032-0.141-0.141-0.211-0.328-0.211
		c-0.204,0-0.305,0.086-0.305,0.258C3.793,112.932,2.964,114.878,1.45,116.206L1.45,116.206z M6.77,113.768l-0.094,2.789
		c0,0.641,0.288,0.961,0.867,0.961c0.921,0,1.383-0.703,1.383-2.109c0-2.047-0.75-3.844-2.25-5.391
		c-0.047-0.063-0.103-0.094-0.164-0.094c-0.173,0-0.258,0.094-0.258,0.281c0,0.016,0,0.031,0,0.047
		C6.597,111.362,6.77,112.534,6.77,113.768L6.77,113.768z M10.379,114.448c0.077,0.891,0.366,1.336,0.867,1.336
		c0.797,0,1.195-0.594,1.195-1.781c0-1.484-1.04-3.016-3.117-4.594c-0.032-0.031-0.079-0.047-0.141-0.047
		c-0.204,0-0.305,0.086-0.305,0.258c0,0.016,0,0.039,0,0.07C9.676,111.018,10.175,112.604,10.379,114.448L10.379,114.448z"/>
	<path fill="#0D4482" d="M30.981,171.069c3.703-1.859,6.773-4.367,9.211-7.523c0.218-0.281,0.328-0.516,0.328-0.703
		c0-0.328-0.157-0.492-0.469-0.492c-0.267,0-0.509,0.109-0.727,0.328c-2.454,2.313-5.086,4.188-7.898,5.625
		c-3.516,1.813-6.891,2.719-10.125,2.719c-1.813,0-3.079-0.336-3.797-1.008c-0.891-0.75-1.336-2.234-1.336-4.453
		c0-2.563,0.147-6.305,0.445-11.227c0.218-3.781,0.492-6.938,0.82-9.469c0.062-0.828,0.265-1.414,0.609-1.758
		c0.452-0.453,0.68-0.922,0.68-1.406c0-0.844-0.656-1.758-1.969-2.742c-1.345-0.984-2.461-1.477-3.352-1.477
		c-0.516,0-0.907,0.063-1.172,0.188c-0.313,0.188-0.469,0.383-0.469,0.586c0,0.234,0.226,0.406,0.68,0.516
		c1.483,0.438,2.203,1.625,2.156,3.563c-0.126,5.203-0.258,9.156-0.398,11.859c-0.251,5.688-0.375,9.672-0.375,11.953
		c0,4.984,2.429,7.477,7.289,7.477C24.348,173.624,27.636,172.772,30.981,171.069L30.981,171.069z"/>
	<path fill="#0D4482" d="M35.27,193.454c-0.532,0.297-1.282,0.547-2.25,0.75l-20.836,5.32c-1.406,0.359-2.431,0.539-3.07,0.539
		c-0.609,0.016-1.148-0.094-1.617-0.328c-0.438-0.219-0.97-0.671-1.594-1.359c-0.281-0.281-0.492-0.422-0.633-0.422
		c-0.313,0-0.469,0.305-0.469,0.914c0,0.719,0.429,1.633,1.289,2.742c1.125,1.313,2.18,1.969,3.164,1.969
		c0.563,0,1.108-0.18,1.641-0.539c1.031-0.594,2.218-1.133,3.563-1.617c3.405-1.234,7.694-2.609,12.867-4.125l0.094,0.141
		c-2.578,1.438-4.664,3.36-6.258,5.766c-1.875,2.797-2.813,5.805-2.813,9.023c0,3.797,1.39,6.852,4.172,9.164
		c1.374,1.188,3.202,2.148,5.484,2.883c2.28,0.734,4.453,1.102,6.516,1.102c1.468,0,2.203-0.414,2.203-1.242
		c0-0.75-0.384-1.328-1.148-1.734c-0.876-0.469-2.095-0.742-3.656-0.82c-1.313-0.015-2.657-0.242-4.031-0.68
		c-1.72-0.547-3.157-1.313-4.313-2.297c-2.173-1.734-3.258-4.328-3.258-7.781c0-2.547,0.905-5.055,2.719-7.523
		c1.969-2.656,4.289-4.453,6.961-5.391c2.625-0.953,5.733-1.484,9.328-1.594c1.046-0.047,1.57-0.477,1.57-1.289
		c0-0.656-0.431-1.133-1.289-1.43c-1.001-0.422-1.915-0.633-2.742-0.633C36.285,192.962,35.753,193.126,35.27,193.454L35.27,193.454
		z"/>
	<path fill="#0D4482" d="M31.403,253.692c1.89,1.063,3.577,2.625,5.063,4.688c1.655,2.297,2.484,4.313,2.484,6.047
		c0,0.501-0.243,0.789-0.727,0.867c-0.563,0.078-1.781,0.227-3.656,0.445c-0.485,0.047-0.727,0.188-0.727,0.422
		c0,0.375,0.211,0.586,0.633,0.633c1.421,0.172,2.461,0.375,3.117,0.609c0.687,0.25,1.219,0.633,1.594,1.148
		c0.296,0.422,0.71,0.633,1.242,0.633c1.219,0,1.828-1.055,1.828-3.164c0-2.531-0.891-4.992-2.672-7.383
		c-1.969-2.641-4.523-4.609-7.664-5.906c-0.157-0.078-0.313-0.117-0.469-0.117c-0.36,0-0.539,0.117-0.539,0.352
		C30.911,253.262,31.075,253.505,31.403,253.692L31.403,253.692z M17.434,274.809c0-0.563-0.103-1.063-0.305-1.5
		c-0.126-0.297-0.188-0.664-0.188-1.102c0-0.219,0.164-0.813,0.492-1.781c0.891-2.594,2.156-5.312,3.797-8.156
		c0.188-0.375,0.281-0.656,0.281-0.844c0-0.328-0.181-0.492-0.539-0.492c-0.313,0-0.579,0.18-0.797,0.539
		c-2.188,3.454-3.938,6.359-5.25,8.719c-0.281,0.516-0.603,0.773-0.961,0.773c-0.75,0-1.54-0.867-2.367-2.602
		c-0.86-1.844-1.289-4.578-1.289-8.203c0-2.719,0.179-4.608,0.539-5.672c0.296-0.859,0.445-1.547,0.445-2.063
		c0-1.063-0.75-2.227-2.25-3.492c-1.204-1.031-2.165-1.547-2.883-1.547c-0.454,0-0.68,0.141-0.68,0.422
		c0,0.141,0.147,0.352,0.445,0.633c0.797,0.75,1.343,1.43,1.641,2.039c0.312,0.641,0.469,1.5,0.469,2.578l-0.07,3.938
		c0,3.75,0.258,6.806,0.773,9.164c0.733,3.328,2.093,5.984,4.078,7.969c1.28,1.281,2.358,1.922,3.234,1.922
		C16.972,276.052,17.434,275.637,17.434,274.809L17.434,274.809z"/>
	<path fill="#0D4482" d="M25.543,326.166c-1.673-1.702-3.609-2.555-5.813-2.555c-1.235,0-2.259,0.305-3.07,0.914
		c-0.954,0.703-1.43,1.664-1.43,2.883c0,1.406,0.694,2.587,2.086,3.539c1.671,1.125,3.984,1.688,6.938,1.688
		c3.218,0,6.038-0.835,8.461-2.508c3.03-2.094,4.547-4.922,4.547-8.484c0-2.344-0.696-4.351-2.086-6.023
		c-1.907-2.297-4.798-3.445-8.672-3.445c-3.141,0-6.501,1.234-10.078,3.703l-0.094-0.047c7.983-8.906,12.101-13.484,12.352-13.734
		c0.938-0.952,1.734-1.515,2.391-1.688c0.609-0.155,0.914-0.492,0.914-1.008c0-0.64-0.548-1.327-1.641-2.063
		c-0.954-0.703-1.734-1.055-2.344-1.055c-0.392,0-0.727,0.141-1.008,0.422c-0.392,0.391-0.79,0.649-1.195,0.773
		c-2.923,0.859-5.071,1.446-6.445,1.758c-1.188,0.251-2.095,0.375-2.719,0.375c-0.782,0-1.556-0.499-2.32-1.5
		c-0.313-0.422-0.586-0.633-0.82-0.633c-0.281,0-0.422,0.258-0.422,0.773c0,0.86,0.429,1.821,1.289,2.883
		c0.921,1.125,1.819,1.688,2.695,1.688c0.312,0,0.71-0.211,1.195-0.633c0.218-0.188,0.633-0.398,1.242-0.633
		c2.531-0.969,5.109-1.89,7.734-2.766c0.141-0.047,0.258-0.07,0.352-0.07c0.155,0,0.234,0.056,0.234,0.164
		c0,0.079-0.056,0.196-0.164,0.352c-4.86,6.422-10.664,13.212-17.414,20.367c-0.642,0.703-0.961,1.313-0.961,1.828
		c0,0.407,0.155,0.759,0.469,1.055c0.328,0.328,0.703,0.492,1.125,0.492c0.499,0,0.882-0.179,1.148-0.539
		c1.313-1.671,2.429-2.93,3.352-3.773c3.671-3.296,7.46-4.945,11.367-4.945c1.89,0,3.499,0.509,4.828,1.523
		c1.812,1.392,2.719,3.478,2.719,6.258c0,1.563-0.524,3.094-1.57,4.594c-1.266,1.813-2.923,3.032-4.969,3.656
		C27.402,328.518,26.668,327.323,25.543,326.166L25.543,326.166z M23.293,330.431c-2.016,0-3.618-0.328-4.805-0.984
		c-1.142-0.64-1.711-1.406-1.711-2.297c0-0.563,0.179-1.031,0.539-1.406c0.452-0.499,1.132-0.75,2.039-0.75
		c1.015,0,2.069,0.462,3.164,1.383c1.296,1.078,2.163,2.36,2.602,3.844C24.73,330.361,24.121,330.431,23.293,330.431L23.293,330.431
		z"/>
	<path fill="#0D4482" d="M21.606,356.928c-2.032,1.422-3.891,2.922-5.578,4.5c-0.251,0.25-0.375,0.492-0.375,0.727
		c0,0.25,0.141,0.375,0.422,0.375c0.296,0,0.554-0.077,0.773-0.234c2.14-1.625,4.031-2.906,5.672-3.844
		c1.187-0.671,2.438-1.148,3.75-1.43c2.046-0.452,3.788-0.741,5.227-0.867c1.28-0.108,1.922-0.586,1.922-1.43
		c0-0.718-0.352-1.219-1.055-1.5c-0.485-0.188-0.984-0.281-1.5-0.281c-0.532,0-1.04,0.079-1.523,0.234
		c-1.376,0.454-3.04,0.829-4.992,1.125c-1.985,0.25-3.492,0.375-4.523,0.375c-2.688,0-4.72-0.5-6.094-1.5
		c-0.298-0.218-0.539-0.328-0.727-0.328c-0.281,0-0.422,0.141-0.422,0.422c0,0.234,0.047,0.415,0.141,0.539
		c1.624,2.048,4.219,3.07,7.781,3.07c0.343,0,0.694-0.015,1.055-0.047L21.606,356.928z M11.153,368.928
		c-0.642,1.234-0.961,2.5-0.961,3.797c0,5.985,4.671,8.977,14.016,8.977c3.155,0,6.53-0.272,10.125-0.82
		c1.062-0.171,1.77-0.39,2.121-0.656c0.352-0.265,0.527-0.718,0.527-1.359c0-0.453-0.243-0.82-0.727-1.102
		c-0.485-0.281-1.125-0.422-1.922-0.422c-0.485,0-1.359,0.173-2.625,0.516c-2.016,0.579-4.992,0.867-8.93,0.867
		c-2.906,0-5.29-0.398-7.148-1.195c-2.563-1.109-3.844-2.89-3.844-5.344c0-0.844,0.188-1.805,0.563-2.883l0.234-0.609
		c0-0.328-0.228-0.492-0.68-0.492C11.636,368.202,11.387,368.445,11.153,368.928L11.153,368.928z"/>
	<path fill="#0D4482" d="M11.153,429.604c0,2.719,1.21,4.688,3.633,5.906c2.14,1.063,5.414,1.594,9.82,1.594
		c3.563,0,6.422-0.164,8.578-0.492c0.984-0.125,1.664-0.289,2.039-0.492c0.437-0.219,0.656-0.586,0.656-1.102
		s-0.29-0.961-0.867-1.336c-0.626-0.422-1.345-0.633-2.156-0.633c-0.438,0-0.97,0.103-1.594,0.305
		c-2.188,0.672-5.227,1.008-9.117,1.008c-6.017,0-9.023-1.695-9.023-5.086c0-1.796,0.858-3.46,2.578-4.992
		c1.343-1.187,3.812-2.68,7.406-4.477c1.796-0.891,5.101-2.203,9.914-3.938c0.999-0.359,1.5-0.805,1.5-1.336
		c0-0.547-0.431-1.28-1.289-2.203c-1.282-1.28-2.508-1.922-3.68-1.922c-0.579,0-0.867,0.141-0.867,0.422
		c0,0.22,0.124,0.414,0.375,0.586c0.984,0.672,1.477,1.234,1.477,1.688c0,0.297-0.337,0.642-1.008,1.031
		c-1.907,1.11-3.946,2.18-6.117,3.211c-0.454,0.203-0.837,0.305-1.148,0.305c-0.047,0-0.094,0-0.141,0
		c-0.673-0.047-1.071-0.671-1.195-1.875c-0.173-2.156-0.258-4.28-0.258-6.375c0-1.093,0.015-2.218,0.047-3.375
		c0-0.406,0.108-0.773,0.328-1.102c0.343-0.453,0.516-0.82,0.516-1.102c0-0.516-0.321-1.039-0.961-1.57
		c-1.329-1.093-2.571-1.641-3.727-1.641c-0.422,0-0.844,0.103-1.266,0.305c-0.501,0.25-0.75,0.516-0.75,0.797
		c0,0.22,0.077,0.328,0.234,0.328c0.78,0.047,1.5,0.32,2.156,0.82c0.405,0.281,0.633,0.891,0.68,1.828
		c0.155,4.298,0.328,7.626,0.516,9.984c0.188,2.188,0.891,3.595,2.109,4.219C14.285,422.096,11.153,425.667,11.153,429.604
		L11.153,429.604z"/>
</g>
</svg>
