<?xml version="1.0" encoding="utf-8"?>
<!-- Generator: Adobe Illustrator 14.0.0, SVG Export Plug-In . SVG Version: 6.00 Build 43363)  -->
<!DOCTYPE svg PUBLIC "-//W3C//DTD SVG 1.1 Basic//EN" "http://www.w3.org/Graphics/SVG/1.1/DTD/svg11-basic.dtd">
<svg version="1.1" baseProfile="basic" id="レイヤー_1"
	 xmlns="http://www.w3.org/2000/svg" xmlns:xlink="http://www.w3.org/1999/xlink" x="0px" y="0px" width="288.938px"
	 height="357.515px" viewBox="0 0 288.938 357.515" xml:space="preserve">
<g>
	<path fill="#0D4482" d="M269.578,8.568c0.905,1.204,1.647,1.805,2.227,1.805c0.469,0,0.858-0.171,1.171-0.516
		c0.329-0.375,0.492-0.859,0.492-1.453c0-1.296-0.977-2.578-2.93-3.844c-2.281-1.484-5.102-2.468-8.46-2.953
		c-0.204-0.031-0.305,0.07-0.305,0.305c0,0.094,0.047,0.164,0.14,0.211C264.913,3.561,267.468,5.709,269.578,8.568L269.578,8.568z
		 M285.141,29.146c0.171,1.094,0.39,1.852,0.656,2.273c0.265,0.438,0.687,0.656,1.266,0.656c1.249,0,1.875-0.882,1.875-2.648
		c0-1.547-0.603-3.265-1.805-5.156c-1.47-2.312-3.438-4.257-5.907-5.836c-0.046-0.031-0.102-0.047-0.163-0.047
		c-0.22,0-0.328,0.094-0.328,0.281c0,0.063,0.015,0.11,0.046,0.141C283.202,22.155,284.655,25.6,285.141,29.146L285.141,29.146z
		 M248.413,28.865c-0.828,0.609-1.241,1.282-1.241,2.016c0,0.516,0.147,0.946,0.445,1.289c0.343,0.391,0.788,0.586,1.336,0.586
		c1.313,0,2.421-0.812,3.327-2.438c1.047-1.875,1.57-4.336,1.57-7.383c0-1.172-0.093-2.406-0.28-3.703
		c-0.032-0.141-0.141-0.211-0.328-0.211s-0.29,0.079-0.305,0.234C252.499,23.615,250.992,26.819,248.413,28.865L248.413,28.865z
		 M277.359,35.779c-0.438,1.063-0.946,1.75-1.523,2.063c-0.548,0.297-1.204,0.5-1.969,0.609c-0.813,0.094-2.344,0.141-4.594,0.141
		c-2.11,0-3.579-0.062-4.406-0.188c-0.923-0.125-1.532-0.39-1.829-0.797c-0.233-0.328-0.351-0.938-0.351-1.828V13.936
		c1.155-0.453,1.734-0.914,1.734-1.383c0-0.312-0.228-0.546-0.68-0.703c-0.595-0.203-2.063-0.437-4.406-0.703
		c0.188,2.079,0.281,6.047,0.281,11.906l-0.142,13.102c0,2.016,0.453,3.368,1.36,4.055c1.125,0.844,3.727,1.266,7.805,1.266
		c4.858,0,8.14-0.273,9.844-0.82c1.53-0.484,2.296-1.25,2.296-2.297c0-0.5-0.188-0.835-0.563-1.008
		c-0.578-0.265-0.867-0.695-0.867-1.289c0-0.687,0.078-2.546,0.235-5.578c0-0.156-0.11-0.234-0.328-0.234
		c-0.173,0-0.274,0.063-0.305,0.188C278.297,32.983,277.765,34.764,277.359,35.779L277.359,35.779z"/>
	<path fill="#0D4482" d="M285.867,73.284c-2.063-2.609-4.556-4.515-7.477-5.719c-0.188-0.094-0.415-0.141-0.68-0.141
		c-0.281,0-0.423,0.172-0.423,0.516c0,0.219,0.095,0.398,0.282,0.539c1.937,1.219,3.593,2.657,4.968,4.313
		c1.516,1.828,2.274,3.383,2.274,4.664c0,0.344-0.228,0.578-0.68,0.703c-1.095,0.328-2.978,0.75-5.648,1.266
		c-0.36,0.079-0.539,0.266-0.539,0.563c0,0.391,0.188,0.586,0.563,0.586c0.03,0,0.07,0,0.117,0c1.828-0.125,3.687-0.188,5.578-0.188
		c0.671,0,1.195,0.125,1.57,0.375c0.358,0.219,0.78,0.328,1.265,0.328c0.953,0,1.43-0.609,1.43-1.828
		C288.468,77.464,287.601,75.472,285.867,73.284L285.867,73.284z M266.859,62.761c0.405-0.859,0.804-1.39,1.195-1.594
		c0.452-0.203,0.68-0.523,0.68-0.961c0-0.844-0.571-1.617-1.711-2.32c-1.188-0.718-2.344-1.078-3.469-1.078
		c-0.86,0-1.47,0.125-1.829,0.375c-0.25,0.172-0.375,0.336-0.375,0.492c0,0.234,0.18,0.375,0.54,0.422
		c0.75,0.047,1.421,0.234,2.015,0.563c0.688,0.391,1.032,0.829,1.032,1.313c0,0.547-0.126,1.204-0.375,1.969
		c-0.626,1.922-1.359,3.82-2.203,5.695c-0.563,0.172-2.484,0.703-5.767,1.594c-1.452,0.422-2.577,0.633-3.375,0.633
		c-0.938,0-1.719-0.546-2.343-1.641c-0.188-0.328-0.328-0.492-0.422-0.492c-0.36,0-0.54,0.367-0.54,1.102
		c0.048,1,0.641,2.047,1.782,3.141c0.655,0.609,1.327,0.914,2.016,0.914c0.312,0,0.647-0.125,1.007-0.375
		c0.5-0.328,1.109-0.617,1.829-0.867c2.108-0.844,3.741-1.453,4.898-1.828c-2.642,5.625-6.392,12.211-11.25,19.758
		c-0.282,0.422-0.422,0.844-0.422,1.266c0,0.797,0.46,1.195,1.382,1.195c0.594,0,1.032-0.258,1.313-0.773
		c3.813-6.453,7.648-13.828,11.508-22.125c1.484-0.531,2.75-0.797,3.798-0.797c1.89,0,2.836,1.438,2.836,4.313
		c0,2.547-0.446,5.36-1.336,8.438c-1.048,3.375-2.203,5.758-3.469,7.148c-0.517,0.516-1.11,0.773-1.781,0.773
		c-0.516,0-0.931-0.078-1.243-0.234c-1.077-0.547-2.422-1.398-4.03-2.555c-0.22-0.156-0.384-0.234-0.492-0.234
		c-0.282,0-0.422,0.157-0.422,0.469c0,0.172,0.062,0.321,0.188,0.445c1.343,1.266,2.241,2.195,2.694,2.789
		c0.375,0.454,0.617,0.914,0.728,1.383c0.218,0.938,0.788,1.406,1.71,1.406c1.375,0,2.703-0.64,3.985-1.922
		c1.594-1.437,2.906-3.711,3.938-6.82c0.483-1.343,0.914-2.96,1.289-4.852c0.421-2.14,0.633-3.914,0.633-5.32
		c0-4.515-1.664-6.773-4.992-6.773c-0.86,0-1.884,0.11-3.07,0.328C265.202,66.542,265.843,65.089,266.859,62.761L266.859,62.761z"/>
	<path fill="#0D4482" d="M258.398,117.134c-1.188,0.703-1.781,1.523-1.781,2.461l0.163,2.016c0,0.797-0.093,1.695-0.28,2.695
		c-0.813,4.609-1.22,8.188-1.22,10.734c0,1.156,0.212,2.055,0.633,2.695c0.423,0.734,0.852,1.102,1.29,1.102
		c0.687,0,1.179-0.367,1.477-1.102c0.202-0.5,1.022-1.539,2.461-3.117c1.671-1.891,3.515-3.461,5.531-4.711
		c2.608-1.641,5.069-2.461,7.383-2.461c1.594,0,2.96,0.438,4.101,1.313c1.36,1.047,2.04,2.453,2.04,4.219
		c0,1.688-0.431,3.148-1.29,4.383c-0.89,1.281-2.413,2.539-4.569,3.773c-3.595,2.063-8.086,3.438-13.477,4.125
		c-0.485,0.063-0.727,0.289-0.727,0.68c0,0.422,0.234,0.633,0.703,0.633c0.015,0,0.054,0,0.117,0
		c6.14-0.36,11.147-1.484,15.022-3.375c4.953-2.359,7.43-5.492,7.43-9.398c0-2.266-0.843-4.109-2.53-5.531
		c-1.798-1.5-4.11-2.25-6.938-2.25c-2.142,0-4.453,0.617-6.938,1.852c-2.297,1.125-5.196,3.039-8.695,5.742
		c-0.204,0.125-0.352,0.188-0.445,0.188s-0.142-0.195-0.142-0.586c0.125-3.172,0.353-5.727,0.681-7.664
		c0.327-2.016,0.492-3.203,0.492-3.563c0-0.563-0.134-1.133-0.398-1.711c-0.188-0.391-0.281-0.781-0.281-1.172
		c0-0.313,0.305-0.609,0.914-0.891c0.905-0.453,1.999-0.828,3.28-1.125c1.328-0.313,2.462-0.469,3.399-0.469
		c0.608,0,1.179,0.078,1.711,0.234c0.499,0.156,0.968,0.234,1.406,0.234c0.858,0,1.289-0.445,1.289-1.336
		c0-0.484-0.337-1.063-1.008-1.734c-0.642-0.594-1.5-1.086-2.578-1.477c-1.282-0.453-2.306-0.945-3.07-1.477
		c-1.079-0.75-1.962-1.781-2.649-3.094c-0.156-0.313-0.344-0.469-0.563-0.469c-0.297,0-0.444,0.172-0.444,0.516
		c0,0.031,0,0.07,0,0.117c0.094,1.266,0.718,2.602,1.875,4.008c0.64,0.813,1.594,1.602,2.859,2.367v0.141
		C262.116,115.384,260.038,116.212,258.398,117.134L258.398,117.134z"/>
	<path fill="#0D4482" d="M169.508,10.523c-1.423,0-2.742-0.109-3.961-0.328L165.968,12c1.156-0.188,2.336-0.281,3.54-0.281h12.867
		c-3.86,9.141-10.04,16.789-18.539,22.945c-0.048,0.016-0.07,0.055-0.07,0.117c0,0.313,0.14,0.469,0.422,0.469
		c0.03,0,0.054-0.008,0.07-0.023c8.452-4.625,15.132-11.344,20.039-20.156l-0.281,16.641h-6.586c-1.282,0-2.478-0.109-3.587-0.328
		l0.47,1.805c1.078-0.188,2.171-0.281,3.28-0.281h6.423c-0.126,5.734-0.188,8.968-0.188,9.703c0,0.797,0.46,1.195,1.383,1.195
		c1.374,0,2.063-0.461,2.063-1.383c0-0.032-0.048-3.203-0.141-9.516h9.703c0.405,0,0.609-0.141,0.609-0.422
		s-0.337-0.695-1.008-1.242c-1.438-1.219-2.282-1.828-2.532-1.828s-1,0.766-2.25,2.297h-4.522
		c-0.126-8.578-0.234-15.016-0.328-19.313c1.983,4.984,4.397,9.305,7.242,12.961c2.483,3.156,5.749,6.07,9.796,8.742
		c1.016,0.641,1.656,0.961,1.923,0.961c0.265,0,0.476-0.211,0.633-0.633c0.281-0.688,0.569-1.188,0.867-1.5
		c0.296-0.297,0.727-0.516,1.289-0.656c0.155-0.031,0.233-0.125,0.233-0.281c0-0.094-0.046-0.156-0.14-0.188
		c-4.875-1.813-9.134-4.523-12.773-8.133c-3.328-3.328-6.079-7.313-8.25-11.953h18.655c0.453,0,0.681-0.156,0.681-0.469
		c0-0.219-0.398-0.672-1.195-1.359c-1.61-1.313-2.54-1.969-2.79-1.969c-0.28,0-1.117,0.867-2.508,2.602h-13.43V2.648
		c1.094-0.531,1.642-0.977,1.642-1.336c0-0.266-0.243-0.484-0.727-0.656c-0.673-0.219-2.048-0.438-4.125-0.656
		c0.155,1.484,0.234,4.781,0.234,9.891v0.633H169.508z"/>
	<path fill="#0D4482" d="M195.805,95.18c0,0.765,0.445,1.148,1.336,1.148c1.249,0,1.875-0.461,1.875-1.383l-0.235-11.297v-4.664
		c0.892-0.563,1.337-0.992,1.337-1.289c0-0.266-0.274-0.641-0.82-1.125c-1.063-0.891-1.734-1.336-2.017-1.336
		c-0.219,0-0.852,0.547-1.897,1.641h-19.266c-1.048-0.641-2.29-1.25-3.727-1.828c0.188,2.047,0.281,5.203,0.281,9.469l-0.234,10.945
		c0,0.422,0.085,0.71,0.258,0.867c0.171,0.156,0.516,0.234,1.03,0.234c1.25,0,1.875-0.43,1.875-1.289V93.54h20.204V95.18z
		 M175.601,92.344V85.43h20.204v6.914H175.601z M175.601,84.235v-6.164h20.204v6.164H175.601z M171.523,58.829
		c-1.392,0-2.704-0.109-3.938-0.328l0.469,1.805c1.39-0.188,2.546-0.281,3.469-0.281h32.93c0.405,0,0.609-0.141,0.609-0.422
		s-0.352-0.719-1.055-1.313c-1.438-1.219-2.306-1.828-2.603-1.828c-0.266,0-1.047,0.789-2.343,2.367h-12.141v-3.563
		c1.125-0.453,1.688-0.883,1.688-1.289c0-0.297-0.228-0.523-0.68-0.68c-0.626-0.219-2.048-0.461-4.267-0.727
		c0.156,1.172,0.235,2.344,0.235,3.516v2.742H171.523z M168.968,70.29c-1.218,0-2.609-0.109-4.171-0.328l0.469,1.805
		c1.406-0.188,2.64-0.281,3.702-0.281h37.923c0.452,0,0.68-0.164,0.68-0.492c0-0.297-0.368-0.742-1.103-1.336
		c-1.563-1.281-2.477-1.922-2.742-1.922s-1.133,0.852-2.601,2.555h-10.641c1.546-1.844,3.108-3.984,4.688-6.422
		c1.313-0.188,1.969-0.492,1.969-0.914c0-0.5-1.517-1.203-4.548-2.109c-0.203,1.297-0.57,2.641-1.101,4.031
		c-0.782,2.031-1.587,3.836-2.414,5.414H168.968z M177.711,67.547c0.171,1.344,0.663,2.016,1.477,2.016
		c1.125,0,1.688-0.734,1.688-2.203c0-0.969-0.415-2.016-1.242-3.141c-0.984-1.344-2.25-2.391-3.797-3.141
		c-0.048-0.031-0.094-0.047-0.141-0.047c-0.22,0-0.328,0.102-0.328,0.305c0,0.047,0.015,0.086,0.046,0.117
		C176.616,63.188,177.383,65.219,177.711,67.547L177.711,67.547z"/>
	<path fill="#0D4482" d="M176.68,124.134c-1.359,1.954-2.977,3.891-4.852,5.813c-0.923,0.969-1.383,1.758-1.383,2.367
		c0,0.391,0.117,0.727,0.352,1.008c0.265,0.313,0.577,0.469,0.938,0.469c0.483,0,0.891-0.242,1.219-0.727
		c1.452-2.047,2.89-3.765,4.313-5.156c2.233-2.109,4.272-3.164,6.117-3.164c0.733,0,1.289,0.243,1.664,0.727
		c0.483,0.641,0.71,1.797,0.679,3.469c0,0.375,0,1.047,0,2.016c-2.609,1.579-4.469,2.891-5.577,3.938
		c-1.86,1.766-2.789,3.703-2.789,5.813c0,3.906,3.328,5.859,9.983,5.859c3.704,0,6.728-0.094,9.07-0.281
		c1.859-0.172,2.79-0.688,2.79-1.547c0-0.469-0.243-0.882-0.728-1.242c-0.578-0.453-1.313-0.68-2.202-0.68
		c-0.375,0-0.985,0.094-1.828,0.281c-0.907,0.219-1.782,0.383-2.625,0.492c-2.157,0.25-4.579,0.375-7.266,0.375
		c-3.704,0-5.555-1.187-5.555-3.563c0-1.421,0.68-2.781,2.038-4.078c0.922-0.859,2.469-1.898,4.642-3.117
		c-0.017,0.844-0.047,1.93-0.094,3.258c-0.048,1.313-0.07,2.235-0.07,2.766c0,0.344,0.124,0.641,0.375,0.891
		c0.265,0.266,0.585,0.398,0.96,0.398c0.875,0,1.313-0.609,1.313-1.828l-0.046-6.914c0.343-0.203,1.015-0.586,2.016-1.148
		c0.968-0.563,1.702-0.984,2.203-1.266c3.312-1.766,6.226-3.172,8.742-4.219c0.405-0.172,0.882-0.296,1.43-0.375
		c0.64-0.062,0.96-0.398,0.96-1.008c0-0.703-0.655-1.461-1.968-2.273c-1.251-0.765-2.431-1.148-3.539-1.148
		c-0.485,0-0.907,0.063-1.266,0.188c-0.438,0.157-0.657,0.352-0.657,0.586c0,0.141,0.142,0.234,0.423,0.281
		c0.687,0.094,1.249,0.29,1.688,0.586c0.281,0.188,0.422,0.391,0.422,0.609c0,0.313-0.173,0.586-0.516,0.82
		c-2.032,1.359-5.344,3.414-9.938,6.164c0-0.547-0.032-1.203-0.094-1.969c-0.141-2.859-1.563-4.289-4.266-4.289
		c-1.86,0-3.813,0.805-5.859,2.414l-0.094-0.094c1.266-1.813,2.843-4.375,4.733-7.688c2.767-0.625,5.523-1.477,8.274-2.555
		c0.563-0.219,0.944-0.422,1.148-0.609c0.249-0.203,0.375-0.492,0.375-0.867c0-0.296-0.126-0.563-0.375-0.797
		c-0.313-0.266-0.712-0.398-1.195-0.398c-0.61,0-1.43,0.29-2.461,0.867c-1.219,0.672-2.688,1.274-4.406,1.805
		c0.546-1.016,0.914-1.703,1.102-2.063c0.343-0.703,0.757-1.21,1.242-1.523c0.39-0.234,0.586-0.586,0.586-1.055
		c0-0.781-0.703-1.5-2.11-2.156c-1.094-0.516-2.047-0.773-2.858-0.773c-0.704,0-1.289,0.141-1.759,0.422
		c-0.359,0.234-0.538,0.477-0.538,0.727c0,0.156,0.179,0.234,0.538,0.234c1.984,0,2.978,0.438,2.978,1.313
		c0,0.438-0.11,1.023-0.328,1.758c-0.438,1.313-0.923,2.531-1.453,3.656c-2.235,0.516-4.219,0.773-5.954,0.773
		c-0.906,0-1.609-0.07-2.108-0.211c-0.656-0.188-1.298-0.578-1.922-1.172c-0.282-0.296-0.539-0.445-0.774-0.445
		c-0.28,0-0.421,0.211-0.421,0.633c0,0.172,0.077,0.391,0.233,0.656c0.625,0.922,1.29,1.579,1.992,1.969
		c0.781,0.422,1.844,0.633,3.188,0.633c0.875,0,2.415-0.132,4.618-0.398C178.93,120.665,177.772,122.587,176.68,124.134
		L176.68,124.134z"/>
	<path fill="#0D4482" d="M188.468,185.213c-1.063-0.624-2.258-1.187-3.585-1.688c0.188,1.579,0.28,4.306,0.28,8.18l-0.14,9.353
		c0,0.671,0.429,1.008,1.289,1.008c1.155,0,1.734-0.415,1.734-1.242v-1.781h13.688v1.828c0,0.671,0.413,1.008,1.241,1.008
		c1.22,0,1.829-0.431,1.829-1.29l-0.188-9.515v-3.75c0.858-0.578,1.288-0.992,1.288-1.243c0-0.312-0.273-0.68-0.819-1.101
		c-1.031-0.875-1.673-1.313-1.923-1.313c-0.219,0-0.789,0.516-1.71,1.546h-5.391v-9.703h12.305c0.405,0,0.608-0.156,0.608-0.469
		c0-0.266-0.367-0.719-1.101-1.359c-1.5-1.25-2.399-1.875-2.695-1.875c-0.234,0-1.063,0.836-2.484,2.508h-6.633v-10.242
		c2.25-0.594,4.538-1.375,6.867-2.344c0.624,0.156,1.132,0.234,1.523,0.234c0.563,0,0.844-0.171,0.844-0.515
		c0-0.375-1.11-1.398-3.329-3.07c-0.734,0.734-1.938,1.516-3.608,2.344c-3.844,1.891-8.618,3.421-14.321,4.594
		c-0.109,0.031-0.163,0.133-0.163,0.305c0,0.281,0.093,0.422,0.28,0.422c2.969-0.219,5.978-0.648,9.024-1.289v9.563h-7.289
		c-1.298,0-2.563-0.125-3.798-0.375l0.445,1.852c0.953-0.188,2.07-0.281,3.353-0.281h7.289v9.703H188.468z M188.047,197.847v-11.438
		h13.688v11.438H188.047z M177.148,200.425c0,0.64,0.382,0.961,1.148,0.961c1.187,0,1.781-0.398,1.781-1.195l-0.141-8.063v-3.023
		c0.765-0.517,1.148-0.914,1.148-1.195c0-0.297-0.274-0.664-0.82-1.102c-0.954-0.766-1.532-1.148-1.735-1.148
		c-0.188,0-0.742,0.491-1.663,1.477h-6.774c-1.25-0.703-2.352-1.234-3.305-1.594c0.156,1.516,0.235,4,0.235,7.453l-0.141,8.016
		c0,0.64,0.397,0.961,1.195,0.961c1.155,0,1.734-0.415,1.734-1.242v-1.642h7.336V200.425z M169.813,197.893v-9.563h7.336v9.563
		H169.813z M169.718,162.83h10.618c0.405,0,0.609-0.14,0.609-0.421c0-0.266-0.305-0.664-0.915-1.196
		c-1.297-1.093-2.078-1.64-2.343-1.64c-0.204,0-0.907,0.688-2.109,2.063h-5.86c-1.109,0-2.242-0.109-3.397-0.328l0.422,1.805
		C167.663,162.924,168.655,162.83,169.718,162.83L169.718,162.83z M168.03,169.112h14.368c0.405,0,0.609-0.141,0.609-0.422
		c0-0.344-0.29-0.742-0.867-1.195c-1.329-1.094-2.11-1.641-2.344-1.641c-0.267,0-0.984,0.688-2.156,2.063h-9.61
		c-1.125,0-2.272-0.109-3.444-0.329l0.469,1.805C165.835,169.205,166.827,169.112,168.03,169.112L168.03,169.112z M169.625,175.557
		h10.711c0.405,0,0.609-0.141,0.609-0.422c0-0.313-0.258-0.664-0.773-1.055c-1.251-1.093-2.001-1.64-2.25-1.64
		c-0.281,0-0.923,0.641-1.922,1.922h-6.375c-1.032,0-2.103-0.125-3.212-0.375l0.423,1.851
		C167.961,175.65,168.89,175.557,169.625,175.557L169.625,175.557z M169.766,181.745h10.71c0.423,0,0.634-0.141,0.634-0.422
		c0-0.344-0.274-0.711-0.821-1.102c-1.265-1.063-2.015-1.594-2.25-1.594c-0.28,0-0.96,0.641-2.038,1.922h-6.234
		c-1.063,0-2.149-0.125-3.258-0.375l0.516,1.851C168.132,181.838,169.046,181.745,169.766,181.745L169.766,181.745z"/>
	<path fill="#0D4482" d="M177.945,238.261c0,1.781,0.022,3.228,0.07,4.336c0.171,2.782,1.093,4.743,2.765,5.883
		c1.595,1.095,4.407,1.641,8.438,1.641c3.563,0,6.523-0.188,8.883-0.563c0.953-0.218,1.43-0.703,1.43-1.453
		c0-0.437-0.28-0.82-0.843-1.147c-0.595-0.344-1.306-0.517-2.133-0.517c-0.142,0-1.087,0.157-2.837,0.469
		c-1.968,0.375-4.109,0.563-6.421,0.563c-2.454,0-4.172-0.241-5.156-0.727c-1.298-0.655-1.945-2.007-1.945-4.055
		c-0.032-1.718-0.047-3.375-0.047-4.969c0-1.624,0.015-3.234,0.047-4.827c3.609-1.22,7.43-2.228,11.46-3.024
		c-0.031,3.673-0.336,6.36-0.913,8.063c-0.188,0.579-0.587,0.867-1.195,0.867c-1.079,0-2.579-0.155-4.5-0.468
		c-0.047,0-0.094,0-0.142,0c-0.297,0-0.444,0.116-0.444,0.351c0,0.313,0.179,0.516,0.539,0.609c1.233,0.438,2.273,0.867,3.117,1.29
		c0.39,0.203,0.68,0.523,0.867,0.96c0.155,0.407,0.476,0.61,0.961,0.61c0.78,0,1.483-0.43,2.109-1.29
		c0.827-1.125,1.351-2.913,1.57-5.367c0.141-1.343,0.241-3.358,0.305-6.047c2.452-0.452,4.546-0.679,6.281-0.679l4.406,0.188
		c0.999,0,1.5-0.461,1.5-1.384c0-0.921-0.767-1.429-2.297-1.523c-1.985-0.141-3.445-0.375-4.383-0.703
		c-0.095-0.047-0.173-0.069-0.234-0.069c-0.126,0-0.22,0.133-0.281,0.397c-0.142,0.501-0.462,0.829-0.961,0.984
		c-0.407,0.126-1.704,0.431-3.891,0.914c0.03-0.75,0.077-1.702,0.141-2.858c0.062-1.125,0.094-1.758,0.094-1.899
		c0.062-1.327,0.226-2.187,0.492-2.578c0.281-0.516,0.421-0.952,0.421-1.313c0-0.687-0.578-1.397-1.733-2.133
		c-1.251-0.812-2.337-1.219-3.259-1.219c-0.266,0-0.594,0.103-0.983,0.305c-0.469,0.251-0.704,0.469-0.704,0.656
		c0,0.235,0.212,0.407,0.634,0.516c1.343,0.328,2.124,0.829,2.344,1.5c0.094,0.298,0.171,1.353,0.234,3.165
		c0,1.891-0.032,3.983-0.095,6.28c-4.218,0.954-8.008,1.945-11.367,2.977c0-1.046,0.031-2.054,0.095-3.023
		c0.047-0.921,0.164-1.562,0.352-1.921c0.188-0.375,0.281-0.758,0.281-1.149c0-0.577-0.469-1.179-1.406-1.805
		c-1.031-0.687-1.969-1.031-2.813-1.031c-0.642,0-1.172,0.181-1.594,0.54c-0.157,0.109-0.235,0.25-0.235,0.421
		c0,0.126,0.172,0.234,0.517,0.329c0.812,0.219,1.421,0.555,1.828,1.008c0.328,0.375,0.522,1.07,0.586,2.085
		c0.062,1.985,0.094,3.728,0.094,5.228l-7.734,2.319c-0.532,0.157-1.063,0.235-1.595,0.235c-0.781,0-1.531-0.446-2.25-1.337
		c-0.266-0.358-0.491-0.538-0.679-0.538c-0.313,0-0.469,0.32-0.469,0.96c0,0.688,0.563,1.665,1.688,2.93
		c0.827,0.829,1.608,1.243,2.344,1.243c0.421,0,1.031-0.273,1.828-0.82c2.25-1.125,4.523-2.117,6.82-2.978
		C177.945,234.715,177.945,236.245,177.945,238.261L177.945,238.261z"/>
	<path fill="#0D4482" d="M198.805,267.626c0,0.188,0.077,0.344,0.233,0.469c1.595,1.266,2.767,2.727,3.517,4.383
		c0.452,0.891,0.905,1.336,1.358,1.336c0.859,0,1.29-0.484,1.29-1.453c0-0.922-0.642-1.961-1.923-3.117
		c-0.875-0.828-2.031-1.516-3.468-2.063c-0.188-0.063-0.345-0.094-0.47-0.094C198.983,267.087,198.805,267.267,198.805,267.626
		L198.805,267.626z M203,264.837c0,0.188,0.077,0.344,0.234,0.469c1.702,1.109,2.937,2.422,3.703,3.938
		c0.499,0.938,1.008,1.406,1.523,1.406c0.765,0,1.148-0.445,1.148-1.336c0-1.016-0.673-2.047-2.017-3.094
		c-0.906-0.703-1.992-1.281-3.257-1.734c-0.438-0.125-0.703-0.188-0.798-0.188C203.179,264.298,203,264.478,203,264.837L203,264.837
		z M195.875,281.899c2.452-0.469,4.601-1.023,6.445-1.664c0.921-0.344,1.383-0.813,1.383-1.406c0-0.328-0.165-0.602-0.492-0.82
		c-0.328-0.219-0.727-0.328-1.195-0.328c-0.97,0-1.767,0.18-2.391,0.539c-0.75,0.406-1.228,0.641-1.43,0.703
		c-0.688,0.234-1.478,0.445-2.367,0.633c0-1.516,0.054-3.063,0.164-4.641c0.046-1,0.249-1.656,0.608-1.969
		c0.391-0.328,0.587-0.68,0.587-1.055c0-0.75-0.673-1.438-2.016-2.063c-1.157-0.578-2.259-0.867-3.305-0.867
		c-0.454,0-0.867,0.102-1.242,0.305c-0.422,0.234-0.633,0.484-0.633,0.75c0,0.313,0.202,0.469,0.608,0.469
		c0.953,0,1.712,0.195,2.274,0.586c0.375,0.281,0.577,0.891,0.609,1.828c0.124,2.75,0.188,5.117,0.188,7.102
		c-2.985,0.469-5.571,0.703-7.759,0.703c-1.609,0-2.858-0.609-3.75-1.828c-0.266-0.375-0.508-0.563-0.726-0.563
		c-0.282,0-0.422,0.141-0.422,0.422c0,0.203,0.047,0.445,0.14,0.727c0.922,2.234,2.603,3.352,5.04,3.352
		c2.499,0,5.007-0.172,7.522-0.516l0.142,13.406c-1.406-0.359-2.923-0.539-4.547-0.539c-2.001,0-3.603,0.383-4.805,1.148
		c-1.313,0.813-1.97,1.914-1.97,3.305c0,1.313,0.563,2.391,1.688,3.234c1.267,0.953,2.945,1.43,5.04,1.43
		c2.156,0,3.858-0.516,5.109-1.547c1.233-1,1.851-2.242,1.851-3.727c1.813,1.016,3.634,2.234,5.462,3.656
		c0.499,0.375,0.976,0.563,1.43,0.563c0.094,0,0.179-0.008,0.258-0.023c0.75-0.172,1.101-0.672,1.055-1.5
		c-0.063-0.5-0.337-0.945-0.82-1.336c-1.673-1.375-4.118-2.68-7.336-3.914C196.007,292.438,195.875,287.587,195.875,281.899
		L195.875,281.899z M192.617,301.001c-0.844,0.813-2.095,1.219-3.75,1.219c-3.234,0-4.852-0.914-4.852-2.742
		c0-0.75,0.39-1.359,1.172-1.828c0.797-0.469,1.835-0.703,3.117-0.703c1.828,0,3.647,0.352,5.461,1.055
		C193.766,299.282,193.382,300.282,192.617,301.001L192.617,301.001z M172.063,285.79c0.53-2.781,1.257-5.336,2.18-7.664
		c0.218-0.766,0.469-1.313,0.75-1.641c0.452-0.5,0.68-1.023,0.68-1.57c0-1.125-0.321-2.164-0.961-3.117
		c-0.61-0.984-1.282-1.719-2.016-2.203c-0.407-0.328-0.728-0.492-0.961-0.492c-0.375,0-0.563,0.164-0.563,0.492
		c0,0.109,0.077,0.297,0.233,0.563c0.734,1.203,1.103,2.336,1.103,3.398c0,1.031-0.258,2.445-0.773,4.242
		c-1.563,6-2.344,11.117-2.344,15.352c0,5.031,0.609,8.711,1.827,11.039c0.423,0.828,0.969,1.242,1.642,1.242
		c0.733,0,1.102-0.431,1.102-1.289l-0.048-2.883c0-0.281,0.142-1.102,0.423-2.461c0.094-0.438,0.991-3.648,2.694-9.633
		c0.063-0.188,0.095-0.344,0.095-0.469c0-0.422-0.141-0.633-0.422-0.633c-0.298,0-0.509,0.18-0.633,0.539
		c-1.298,3.141-2.501,6.367-3.609,9.68c-0.063,0.188-0.188,0.281-0.375,0.281c-0.173,0-0.321-0.289-0.445-0.867
		c-0.188-1-0.281-2.82-0.281-5.461C171.359,290.345,171.593,288.196,172.063,285.79L172.063,285.79z"/>
	<path fill="#0D4482" d="M196.133,318.587c3.328,1.875,5.796,4.664,7.405,8.367c0.517,1.156,1.25,1.734,2.204,1.734
		c0.546,0,1.008-0.195,1.383-0.586c0.452-0.469,0.68-1.07,0.68-1.805c0-1.688-1.055-3.391-3.164-5.109
		c-2.11-1.688-4.735-2.891-7.875-3.609c-0.094-0.016-0.196-0.023-0.305-0.023c-0.469,0-0.703,0.141-0.703,0.422
		C195.758,318.243,195.882,318.446,196.133,318.587L196.133,318.587z"/>
	<path fill="#0D4482" d="M116.5,20.228c0.108-0.359,0.366-0.742,0.773-1.148c0.343-0.359,0.516-0.695,0.516-1.008
		c0-0.719-0.563-1.531-1.688-2.438c-1.392-1.094-2.634-1.641-3.727-1.641c-0.703,0-1.055,0.227-1.055,0.68
		c0,0.141,0.141,0.281,0.422,0.422c1.53,0.688,2.297,1.617,2.297,2.789c0,1.438-0.445,3.656-1.336,6.656
		c-3.642-1.516-7.781-2.43-12.422-2.742c0.437-0.859,1.664-3.461,3.68-7.805c1.765-3.781,2.874-6.039,3.328-6.773
		c0.405-0.469,0.609-0.875,0.609-1.219c0-0.469-0.384-0.914-1.148-1.336c-0.829-0.516-1.517-0.773-2.063-0.773
		c-0.298,0-0.603,0.18-0.914,0.539c-0.422,0.469-0.884,0.789-1.383,0.961c-3.017,0.953-5.227,1.43-6.633,1.43
		c-0.72,0-1.423-0.656-2.109-1.969c-0.157-0.313-0.313-0.469-0.469-0.469c-0.157,0-0.29,0.125-0.398,0.375
		c-0.126,0.266-0.188,0.57-0.188,0.914c0,0.531,0.305,1.367,0.914,2.508c0.609,1.016,1.249,1.523,1.922,1.523
		c0.343,0,0.624-0.094,0.844-0.281c0.375-0.297,1.062-0.609,2.063-0.938c1.749-0.609,3.46-1.125,5.133-1.547
		c0.077-0.016,0.164-0.023,0.258-0.023c0.188,0,0.281,0.078,0.281,0.234c0,0.078-0.017,0.172-0.047,0.281
		c-1.438,4.297-3.422,9.102-5.953,14.414c-3.392,0.063-6.398,1.063-9.023,3c-2.173,1.578-3.258,3.445-3.258,5.602
		c0,1.141,0.305,2.031,0.914,2.672c0.609,0.656,1.39,0.984,2.344,0.984c1.39,0,2.672-0.414,3.844-1.242
		c1.734-1.188,3.944-4.297,6.633-9.328c4.641,0.328,8.766,1.398,12.375,3.211c-1.266,3.109-2.681,5.664-4.242,7.664
		c-1.798,2.297-4.204,4.375-7.219,6.234c-0.422,0.25-0.633,0.453-0.633,0.609c0,0.156,0.054,0.313,0.164,0.469
		c0.108,0.172,0.234,0.258,0.375,0.258c0.249,0,0.437-0.032,0.563-0.094c5.906-2.516,10.374-7.18,13.406-13.992
		c2.546,1.313,4.655,2.672,6.328,4.078c0.656,0.547,1.219,0.82,1.688,0.82c0.296,0,0.563-0.117,0.797-0.352
		c0.328-0.281,0.492-0.672,0.492-1.172c0-0.688-0.398-1.406-1.195-2.156c-1.251-1.078-3.656-2.344-7.219-3.797
		C115.343,24.626,115.797,22.931,116.5,20.228L116.5,20.228z M93.109,29.556c-1.438,1.438-2.681,2.156-3.727,2.156
		c-1.063,0-1.594-0.625-1.594-1.875c0-1.469,0.78-2.813,2.344-4.031c1.765-1.375,4.116-2.117,7.055-2.227
		C95.812,26.22,94.452,28.212,93.109,29.556L93.109,29.556z"/>
	<path fill="#0D4482" d="M93.344,78.418c0.437-0.765,1.89-3.367,4.359-7.805c1.718-3.078,3.202-5.57,4.453-7.477
		c0.405-0.563,0.703-0.929,0.891-1.102c0.188-0.172,0.469-0.296,0.844-0.375c0.577-0.125,0.867-0.477,0.867-1.055
		c0-0.828-0.595-1.836-1.781-3.023c-1.157-1.219-2.306-1.828-3.445-1.828c-0.797,0-1.195,0.18-1.195,0.539
		c0,0.156,0.124,0.297,0.375,0.422c1.249,0.641,1.875,1.438,1.875,2.391c0,0.5-0.196,1.219-0.586,2.156
		c-1.125,2.469-2.751,5.75-4.875,9.844c-1.063,2.016-2.484,4.672-4.266,7.969c-2.923,5.407-4.594,8.493-5.016,9.258
		c-0.251,0.516-0.375,0.961-0.375,1.336c0,1.031,0.516,1.547,1.547,1.547c0.671,0,1.132-0.305,1.383-0.914
		c2.016-4.765,3.694-8.063,5.039-9.891c1.608-2.078,3.53-3.117,5.766-3.117c1.202,0,2.063,0.516,2.578,1.547
		c0.516,1,0.851,2.93,1.008,5.789c0.141,2.547,0.64,4.415,1.5,5.602c0.952,1.328,2.538,1.992,4.758,1.992
		c3.968,0,7.406-2.047,10.313-6.141c1.828-2.546,3.155-5.891,3.984-10.031c0.062-0.375,0.094-0.625,0.094-0.75
		c0-0.39-0.181-0.586-0.539-0.586c-0.267,0-0.469,0.227-0.609,0.68c-1.188,3.875-2.836,7.086-4.945,9.633
		c-1.078,1.281-2.344,2.32-3.797,3.117c-1.563,0.859-3.032,1.289-4.406,1.289c-1.266,0-2.212-0.43-2.836-1.289
		c-0.642-0.921-1.024-2.508-1.148-4.758c-0.126-2.109-0.586-3.797-1.383-5.063c-1.001-1.609-2.461-2.414-4.383-2.414
		c-2.329,0-4.298,0.852-5.906,2.555L93.344,78.418z"/>
	<path fill="#0D4482" d="M87.813,137.444c-0.22,0.344-0.328,0.727-0.328,1.148c0,0.359,0.108,0.672,0.328,0.938
		c0.265,0.328,0.586,0.492,0.961,0.492c0.765,0,1.296-0.32,1.594-0.961c2.374-4.703,5.397-11.273,9.07-19.711
		c2.608-0.563,5.116-1.234,7.523-2.016c1.062-0.375,1.594-0.891,1.594-1.547c0-0.359-0.157-0.656-0.469-0.891
		c-0.313-0.266-0.673-0.398-1.078-0.398c-0.548,0-1.359,0.258-2.438,0.773c-1.438,0.656-2.798,1.164-4.078,1.523
		c0.218-0.484,0.46-1.047,0.727-1.688c0.405-0.938,0.624-1.445,0.656-1.523c0.499-1.094,0.914-1.75,1.242-1.969
		c0.39-0.266,0.586-0.633,0.586-1.102c0-0.516-0.516-1.016-1.547-1.5c-1.532-0.734-2.774-1.102-3.727-1.102
		c-1.095,0-1.641,0.289-1.641,0.867c0,0.125,0.124,0.219,0.375,0.281c0.593,0.094,1.202,0.336,1.828,0.727
		c0.577,0.359,0.867,0.758,0.867,1.195c0,0.531-0.079,1.094-0.234,1.688c-0.563,1.781-1.125,3.352-1.688,4.711
		c-2.688,0.563-4.828,0.82-6.422,0.773c-1.517,0-2.798-0.375-3.844-1.125c-0.298-0.188-0.539-0.281-0.727-0.281
		c-0.251,0-0.375,0.125-0.375,0.375c0,0.141,0.062,0.336,0.188,0.586c0.39,0.719,1.008,1.305,1.852,1.758
		c0.938,0.5,1.937,0.75,3,0.75c1.718,0,3.507-0.164,5.367-0.492C94.241,126.022,91.188,131.929,87.813,137.444L87.813,137.444z
		 M114.133,123.335c0,0.094-0.079,0.172-0.234,0.234c-1.798,0.516-3.117,1.219-3.961,2.109c-1.017,1.063-1.523,2.563-1.523,4.5
		c0,0.531,0.258,3.094,0.773,7.688c-0.984-0.219-2.384-0.328-4.195-0.328c-1.781,0-3.321,0.391-4.617,1.172
		c-1.594,0.969-2.391,2.258-2.391,3.867c0,1.172,0.499,2.172,1.5,3c1.219,1.031,2.913,1.547,5.086,1.547
		c2.672,0,4.594-0.609,5.766-1.828c0.938-1.016,1.46-2.469,1.57-4.359c1.969,0.766,4.242,2.156,6.82,4.172
		c0.405,0.313,0.827,0.492,1.266,0.539c0.952,0,1.43-0.461,1.43-1.383c0-0.656-0.274-1.219-0.82-1.688
		c-1.532-1.391-4.493-2.781-8.883-4.172c-0.079-0.453-0.211-1.117-0.398-1.992c-0.251-1.156-0.431-2.016-0.539-2.578
		c-0.36-1.953-0.539-3.57-0.539-4.852c0-1.156,0.398-2.141,1.195-2.953c0.905-0.906,2.039-1.359,3.398-1.359
		c1.374,0,2.687,0.617,3.938,1.852c0.516,0.516,1.046,0.773,1.594,0.773c0.328,0,0.609-0.109,0.844-0.328
		c0.234-0.25,0.352-0.539,0.352-0.867c0-0.922-0.673-1.836-2.016-2.742c-0.938-0.625-2.133-1.141-3.586-1.547
		c-1.594-0.438-3.164-0.656-4.711-0.656c-1.485,0-2.845,0.18-4.078,0.539c-0.454,0.125-0.68,0.359-0.68,0.703
		c0,0.266,0.202,0.398,0.609,0.398c0.015,0,0.054,0,0.117,0c0.827-0.141,1.671-0.211,2.531-0.211c1.671,0,3.062,0.195,4.172,0.586
		C114.063,123.218,114.133,123.272,114.133,123.335L114.133,123.335z M108.063,143.772c-0.844,0.797-2.173,1.195-3.984,1.195
		c-1.392,0-2.493-0.219-3.305-0.656c-0.876-0.469-1.313-1.109-1.313-1.922c0-0.891,0.476-1.609,1.43-2.156
		c1.046-0.578,2.429-0.867,4.148-0.867c1.562,0,3.007,0.234,4.336,0.703C109.312,141.804,108.874,143.038,108.063,143.772
		L108.063,143.772z"/>
	<path fill="#0D4482" d="M117.789,161.549c0,0.25,0.062,0.414,0.188,0.492c1.765,1.078,3.077,2.359,3.938,3.843
		c0.516,0.86,1.038,1.29,1.57,1.29c0.265,0,0.499-0.102,0.703-0.305c0.265-0.25,0.398-0.578,0.398-0.985
		c0-1.046-0.72-2.07-2.156-3.07c-1.095-0.75-2.227-1.281-3.398-1.594c-0.328-0.094-0.586-0.141-0.773-0.141
		C117.944,161.08,117.789,161.236,117.789,161.549L117.789,161.549z M113.688,164.596c0,0.172,0.094,0.328,0.281,0.469
		c1.655,1.203,2.843,2.492,3.563,3.867c0.546,1.063,1.078,1.594,1.594,1.594c0.797,0,1.195-0.461,1.195-1.383
		c0-0.968-0.688-2.007-2.063-3.117c-0.923-0.766-2.109-1.406-3.563-1.922c-0.094-0.031-0.251-0.047-0.469-0.047
		C113.866,164.057,113.688,164.236,113.688,164.596L113.688,164.596z M121.328,179.15c-2.063-2.609-4.556-4.523-7.477-5.742
		c-0.188-0.094-0.415-0.141-0.68-0.141c-0.281,0-0.422,0.172-0.422,0.516c0,0.219,0.094,0.398,0.281,0.539
		c1.937,1.219,3.593,2.657,4.969,4.313c1.515,1.829,2.273,3.383,2.273,4.665c0,0.344-0.228,0.578-0.68,0.703
		c-1.078,0.327-2.962,0.75-5.648,1.265c-0.36,0.079-0.539,0.267-0.539,0.563c0,0.392,0.188,0.587,0.563,0.587c0.03,0,0.07,0,0.117,0
		c1.828-0.125,3.687-0.188,5.578-0.188c0.671,0,1.195,0.125,1.57,0.375c0.358,0.219,0.78,0.328,1.266,0.328
		c0.952,0,1.43-0.61,1.43-1.828C123.93,183.321,123.063,181.338,121.328,179.15L121.328,179.15z M102.32,168.604
		c0.405-0.859,0.804-1.391,1.195-1.594c0.452-0.188,0.68-0.507,0.68-0.96c0-0.844-0.571-1.609-1.711-2.297
		c-1.188-0.734-2.344-1.102-3.469-1.102c-0.86,0-1.47,0.125-1.828,0.375c-0.251,0.172-0.375,0.336-0.375,0.492
		c0,0.235,0.179,0.375,0.539,0.422c0.75,0.047,1.421,0.234,2.016,0.563c0.687,0.391,1.031,0.828,1.031,1.313
		c0,0.547-0.126,1.203-0.375,1.969c-0.626,1.921-1.359,3.828-2.203,5.719c-1.11,0.313-3.032,0.836-5.766,1.57
		c-1.47,0.422-2.595,0.633-3.375,0.633c-0.938,0-1.72-0.546-2.344-1.64c-0.188-0.313-0.328-0.469-0.422-0.469
		c-0.36,0-0.539,0.367-0.539,1.101c0.047,0.985,0.64,2.024,1.781,3.118c0.656,0.609,1.327,0.914,2.016,0.914
		c0.312,0,0.647-0.125,1.008-0.375c0.499-0.328,1.108-0.617,1.828-0.867c2.109-0.844,3.741-1.453,4.898-1.828
		c-2.642,5.609-6.392,12.203-11.25,19.781c-0.281,0.406-0.422,0.819-0.422,1.242c0,0.797,0.46,1.195,1.383,1.195
		c0.593,0,1.031-0.258,1.313-0.773c3.812-6.453,7.647-13.828,11.508-22.125c1.483-0.531,2.749-0.797,3.797-0.797
		c1.89,0,2.836,1.438,2.836,4.313c0,2.547-0.445,5.359-1.336,8.438c-1.048,3.375-2.203,5.758-3.469,7.147
		c-0.516,0.517-1.11,0.774-1.781,0.774c-0.516,0-0.931-0.078-1.242-0.234c-1.078-0.547-2.423-1.398-4.031-2.555
		c-0.22-0.156-0.384-0.235-0.492-0.235c-0.281,0-0.422,0.165-0.422,0.492c0,0.157,0.062,0.298,0.188,0.423
		c1.343,1.265,2.241,2.195,2.695,2.789c0.375,0.469,0.616,0.93,0.727,1.383c0.218,0.938,0.788,1.405,1.711,1.405
		c1.374,0,2.702-0.64,3.984-1.921c1.594-1.438,2.906-3.711,3.938-6.821c0.483-1.343,0.914-2.96,1.289-4.851
		c0.422-2.141,0.633-3.914,0.633-5.32c0-4.516-1.664-6.774-4.992-6.774c-0.876,0-1.898,0.11-3.07,0.329
		C100.633,172.463,101.272,171.01,102.32,168.604L102.32,168.604z"/>
	<path fill="#0D4482" d="M12.773,33.214c-2.438,3.719-6.407,6.93-11.906,9.633c-0.063,0.031-0.094,0.094-0.094,0.188
		c0,0.359,0.124,0.539,0.375,0.539c0.015,0,0.03,0,0.047,0c5.578-1.781,9.851-4.304,12.82-7.57c3.39-3.734,5.382-8.796,5.977-15.188
		h11.555c-0.392,6.703-0.993,11.618-1.805,14.742c-0.579,2.203-1.477,3.305-2.695,3.305c-1.517,0-3.82-0.273-6.914-0.82
		c-0.173-0.031-0.258,0.125-0.258,0.469c0,0.219,0.054,0.336,0.164,0.352c1.858,0.454,3.211,0.914,4.055,1.383
		s1.319,1.047,1.43,1.734c0.047,0.297,0.108,0.484,0.188,0.563c0.077,0.078,0.265,0.117,0.563,0.117
		c1.608,0,2.843-0.383,3.703-1.148c0.984-0.828,1.796-2.289,2.438-4.383c0.938-2.968,1.641-8.054,2.109-15.258
		c0.827-0.531,1.242-0.914,1.242-1.148c0-0.296-0.258-0.68-0.773-1.148c-1.157-1.062-1.852-1.594-2.086-1.594
		c-0.204,0-0.813,0.547-1.828,1.641H12.023c-1.5,0-2.906-0.148-4.219-0.445l0.469,1.922c1.046-0.188,2.312-0.281,3.797-0.281h4.664
		C16.233,25.832,14.913,29.965,12.773,33.214L12.773,33.214z M34.383,12.707c-2.906-2.687-5.109-5.953-6.609-9.797
		c-0.173-0.375-0.258-0.648-0.258-0.82l0.188-0.773c0-0.25-0.141-0.375-0.422-0.375c-0.204,0-0.516,0.086-0.938,0.258
		c-0.532,0.234-0.797,0.422-0.797,0.563c0,0.188,0.155,0.391,0.469,0.609c0.234,0.188,0.429,0.461,0.586,0.82
		c1.812,5.063,4.008,9.079,6.586,12.047c1.765,2.156,3.938,4.11,6.516,5.859c0.858,0.579,1.483,0.867,1.875,0.867
		c0.281,0,0.483-0.242,0.609-0.727c0.265-0.703,0.516-1.195,0.75-1.477c0.296-0.328,0.718-0.507,1.266-0.539
		c0.188-0.031,0.281-0.148,0.281-0.352c0-0.141-0.056-0.226-0.164-0.258C40.741,17.488,37.43,15.519,34.383,12.707L34.383,12.707z
		 M9.984,15.566c2.937-3.109,5.421-6.898,7.453-11.367c1.359-0.156,2.039-0.476,2.039-0.961c0-0.531-1.587-1.328-4.758-2.391
		c-0.234,1.204-0.72,2.688-1.453,4.453C10.468,11.91,6.07,17.535,0.07,22.175C0.023,22.222,0,22.277,0,22.339
		c0,0.328,0.141,0.492,0.422,0.492c0.015,0,0.038,0,0.07,0C4.195,20.754,7.359,18.332,9.984,15.566L9.984,15.566z"/>
	<path fill="#0D4482" d="M39.867,73.284c-2.063-2.609-4.556-4.515-7.477-5.719c-0.188-0.094-0.415-0.141-0.68-0.141
		c-0.281,0-0.422,0.172-0.422,0.516c0,0.219,0.094,0.398,0.281,0.539c1.937,1.219,3.593,2.657,4.969,4.313
		c1.515,1.828,2.273,3.383,2.273,4.664c0,0.344-0.228,0.578-0.68,0.703c-1.095,0.328-2.977,0.75-5.648,1.266
		c-0.36,0.079-0.539,0.266-0.539,0.563c0,0.391,0.188,0.586,0.563,0.586c0.03,0,0.07,0,0.117,0c1.828-0.125,3.687-0.188,5.578-0.188
		c0.671,0,1.195,0.125,1.57,0.375c0.358,0.219,0.78,0.328,1.266,0.328c0.952,0,1.43-0.609,1.43-1.828
		C42.469,77.464,41.602,75.472,39.867,73.284L39.867,73.284z M20.859,62.761c0.405-0.859,0.804-1.391,1.195-1.594
		c0.452-0.203,0.68-0.523,0.68-0.961c0-0.844-0.571-1.617-1.711-2.32c-1.188-0.718-2.344-1.078-3.469-1.078
		c-0.86,0-1.47,0.125-1.828,0.375c-0.251,0.172-0.375,0.336-0.375,0.492c0,0.234,0.179,0.375,0.539,0.422
		c0.75,0.047,1.421,0.234,2.016,0.563c0.687,0.391,1.031,0.829,1.031,1.313c0,0.547-0.126,1.204-0.375,1.969
		c-0.626,1.922-1.359,3.82-2.203,5.695c-0.563,0.172-2.484,0.703-5.766,1.594c-1.453,0.422-2.578,0.633-3.375,0.633
		c-0.938,0-1.72-0.546-2.344-1.641c-0.188-0.328-0.328-0.492-0.422-0.492c-0.36,0-0.539,0.367-0.539,1.102
		c0.047,1,0.64,2.047,1.781,3.141c0.656,0.609,1.327,0.914,2.016,0.914c0.312,0,0.647-0.125,1.008-0.375
		c0.499-0.328,1.108-0.617,1.828-0.867c2.109-0.844,3.741-1.453,4.898-1.828c-2.642,5.625-6.392,12.211-11.25,19.758
		c-0.281,0.422-0.422,0.844-0.422,1.266c0,0.797,0.46,1.195,1.383,1.195c0.593,0,1.031-0.258,1.313-0.773
		c3.812-6.453,7.647-13.828,11.508-22.125c1.483-0.531,2.749-0.797,3.797-0.797c1.89,0,2.836,1.438,2.836,4.313
		c0,2.547-0.445,5.36-1.336,8.438c-1.048,3.375-2.203,5.758-3.469,7.148c-0.516,0.516-1.11,0.773-1.781,0.773
		c-0.516,0-0.931-0.078-1.242-0.234c-1.078-0.547-2.423-1.398-4.031-2.555c-0.22-0.156-0.384-0.234-0.492-0.234
		c-0.281,0-0.422,0.157-0.422,0.469c0,0.172,0.062,0.321,0.188,0.445c1.343,1.266,2.241,2.195,2.695,2.789
		c0.375,0.454,0.616,0.914,0.727,1.383c0.218,0.938,0.788,1.406,1.711,1.406c1.374,0,2.702-0.64,3.984-1.922
		c1.594-1.438,2.906-3.711,3.938-6.82c0.483-1.343,0.914-2.96,1.289-4.852C26.789,76.745,27,74.972,27,73.565
		c0-4.515-1.664-6.773-4.992-6.773c-0.86,0-1.884,0.11-3.07,0.328C19.202,66.542,19.843,65.089,20.859,62.761L20.859,62.761z"/>
	<path fill="#0D4482" d="M23.719,120.263c-0.298,0.141-2.821,1.375-7.57,3.703c-0.673,0.328-1.235,0.492-1.688,0.492
		c-0.079,0-0.157,0-0.234,0c-0.501-0.063-1.031-0.516-1.594-1.359c-0.298-0.422-0.524-0.633-0.68-0.633
		c-0.281,0-0.422,0.305-0.422,0.914c0,0.656,0.366,1.477,1.102,2.461c1.031,1.281,1.976,1.922,2.836,1.922
		c0.53,0,0.976-0.242,1.336-0.727c0.312-0.359,0.812-0.805,1.5-1.336c2.702-1.875,4.828-3.203,6.375-3.984
		c2.358-1.156,4.664-1.734,6.914-1.734c2.156,0,3.867,0.656,5.133,1.969c1.155,1.188,1.734,2.805,1.734,4.852
		c0,2.875-1.649,5.336-4.945,7.383c-2.845,1.734-6.556,2.906-11.133,3.516c-0.485,0.047-0.727,0.25-0.727,0.609
		c0,0.453,0.288,0.68,0.867,0.68c0.546,0,0.976-0.016,1.289-0.047c4.53-0.328,8.405-1.383,11.625-3.164c3.999-2.266,6-5.18,6-8.742
		c0-2.422-0.914-4.469-2.742-6.141c-1.828-1.734-4.212-2.602-7.148-2.602C29.218,118.294,26.608,118.951,23.719,120.263
		L23.719,120.263z"/>
	<path fill="#0D4482" d="M33.891,165.534c-0.532,0.297-1.282,0.547-2.25,0.75l-20.836,5.32c-1.406,0.359-2.431,0.539-3.07,0.539
		c-0.609,0.016-1.148-0.094-1.617-0.328c-0.438-0.219-0.97-0.671-1.594-1.359c-0.281-0.281-0.492-0.422-0.633-0.422
		c-0.313,0-0.469,0.305-0.469,0.914c0,0.719,0.429,1.633,1.289,2.742c1.125,1.313,2.18,1.969,3.164,1.969
		c0.563,0,1.108-0.18,1.641-0.539c1.031-0.594,2.218-1.133,3.563-1.617c3.405-1.234,7.694-2.609,12.867-4.125l0.094,0.141
		c-2.578,1.438-4.664,3.36-6.258,5.766c-1.875,2.797-2.813,5.805-2.813,9.024c0,3.797,1.39,6.852,4.172,9.164
		c1.374,1.188,3.202,2.148,5.484,2.883c2.28,0.734,4.453,1.102,6.516,1.102c1.468,0,2.203-0.414,2.203-1.242
		c0-0.75-0.384-1.328-1.148-1.734c-0.876-0.469-2.095-0.742-3.656-0.82c-1.313-0.016-2.657-0.242-4.031-0.68
		c-1.72-0.547-3.157-1.313-4.313-2.297c-2.173-1.734-3.258-4.328-3.258-7.781c0-2.547,0.905-5.055,2.719-7.524
		c1.969-2.656,4.289-4.453,6.961-5.391c2.625-0.953,5.733-1.484,9.328-1.594c1.046-0.047,1.57-0.477,1.57-1.289
		c0-0.656-0.431-1.133-1.289-1.43c-1.001-0.422-1.915-0.633-2.742-0.633C34.905,165.042,34.374,165.206,33.891,165.534
		L33.891,165.534z"/>
	<path fill="#0D4482" d="M22.102,213.982c0,0.125,0.155,0.305,0.469,0.539c1.187,0.844,1.781,1.625,1.781,2.344
		c0,0.516-0.415,1.242-1.242,2.18c-3.204,3.516-6.516,7.352-9.938,11.508c-0.767,0.953-1.148,1.852-1.148,2.695
		c0,0.906,0.546,1.852,1.641,2.836c6.296,5.734,10.577,10.836,12.844,15.305c0.563,1.125,1.155,1.688,1.781,1.688
		c0.422,0,0.788-0.141,1.102-0.422c0.39-0.344,0.586-0.813,0.586-1.406c0-0.922-0.767-2.391-2.297-4.406
		c-2.829-3.656-7.024-7.805-12.586-12.445c-0.609-0.516-0.914-1.008-0.914-1.477c0-0.359,0.211-0.797,0.633-1.313
		c3.546-4.188,7.21-7.913,10.992-11.18c0.577-0.5,1.069-0.836,1.477-1.008c0.733-0.266,1.102-0.727,1.102-1.383
		c0-0.703-0.595-1.617-1.781-2.742c-1.282-1.219-2.461-1.828-3.539-1.828C22.421,213.467,22.102,213.639,22.102,213.982
		L22.102,213.982z"/>
	<path fill="#0D4482" d="M22.758,279.223c2.593-2.203,4.547-3.305,5.859-3.305c1.249,0,1.875,1.07,1.875,3.211
		c0,1.578-0.188,4.023-0.563,7.336c-0.422,3.75-0.633,7.016-0.633,9.797c0,3.547,1.741,5.32,5.227,5.32
		c2.063,0,3.984-0.828,5.766-2.484c1.858-1.719,3.343-3.852,4.453-6.398c0.094-0.234,0.141-0.406,0.141-0.516
		c0-0.391-0.228-0.586-0.68-0.586c-0.188,0-0.407,0.227-0.656,0.68c-1.017,1.766-2.297,3.289-3.844,4.57
		c-1.875,1.531-3.633,2.297-5.273,2.297c-0.907,0-1.563-0.195-1.969-0.586c-0.485-0.469-0.727-1.359-0.727-2.672
		c0-2.234,0.272-5.289,0.82-9.164c0.577-4.031,0.867-6.625,0.867-7.781c0-1.078-0.313-2.063-0.938-2.953
		c-0.86-1.234-2.071-1.852-3.633-1.852c-1.47,0-3.595,1.133-6.375,3.398c-1.954,1.594-4.688,4.219-8.203,7.875l0.094-1.641
		c0.671-1.516,1.343-2.719,2.016-3.609c0.312-0.375,0.469-0.664,0.469-0.867c0-0.281-0.141-0.563-0.422-0.844
		c-0.36-0.359-0.68-0.539-0.961-0.539c-0.22,0-0.478,0.055-0.773,0.164c0.094-2.266,0.241-4,0.445-5.203
		c0.141-0.844,0.39-1.414,0.75-1.711c0.328-0.234,0.492-0.57,0.492-1.008c0-0.625-0.548-1.344-1.641-2.156
		c-1.329-1-2.531-1.5-3.609-1.5c-0.891,0-1.336,0.211-1.336,0.633c0,0.344,0.194,0.563,0.586,0.656
		c1.562,0.453,2.344,1.531,2.344,3.234c0,2.406-0.047,4.992-0.141,7.758c-1.423,0.734-2.813,1.359-4.172,1.875
		c-0.767,0.25-1.298,0.375-1.594,0.375c-0.72,0-1.423-0.539-2.109-1.617c-0.234-0.359-0.415-0.539-0.539-0.539
		c-0.313,0-0.469,0.289-0.469,0.867c0,0.828,0.382,1.695,1.148,2.602c0.718,0.891,1.374,1.336,1.969,1.336
		c0.469,0,0.851-0.125,1.148-0.375c0.141-0.141,0.46-0.352,0.961-0.633c0.546-0.328,1.734-0.938,3.563-1.828
		c-0.094,1.984-0.157,3.156-0.188,3.516c-2.142,4.078-4.43,7.484-6.867,10.219c-0.938,1.063-1.579,1.766-1.922,2.109
		c-0.609,0.609-0.914,1.25-0.914,1.922c0,0.828,0.366,1.242,1.102,1.242c0.437,0,0.835-0.227,1.195-0.68
		c0.094-0.109,0.358-0.445,0.797-1.008c0.437-0.578,0.812-1.07,1.125-1.477c1.624,1.672,2.89,3.211,3.797,4.617
		c0.687,1.078,1.132,2.086,1.336,3.023c0.171,0.671,0.492,1.008,0.961,1.008c1.125,0,1.688-1.134,1.688-3.398
		c0-0.469-0.032-1.016-0.094-1.641c-0.079-0.906-0.126-1.531-0.141-1.875c-0.126-3.141-0.188-6.625-0.188-10.453
		C17.054,284.605,19.913,281.691,22.758,279.223L22.758,279.223z M12.258,289.066v3.305c0,1.578,0,3.977,0,7.195
		c0,0.156-0.07,0.234-0.211,0.234c-0.079,0-0.157-0.023-0.234-0.07c-1.86-1.594-3.313-2.914-4.359-3.961
		C9.563,292.832,11.163,290.598,12.258,289.066L12.258,289.066z"/>
	<path fill="#0D4482" d="M24.164,351.046c-1.673-1.703-3.609-2.555-5.813-2.555c-1.235,0-2.259,0.305-3.07,0.914
		c-0.954,0.703-1.43,1.664-1.43,2.883c0,1.406,0.694,2.586,2.086,3.539c1.671,1.125,3.984,1.688,6.938,1.688
		c3.218,0,6.038-0.836,8.461-2.508c3.03-2.094,4.547-4.922,4.547-8.484c0-2.344-0.696-4.352-2.086-6.023
		c-1.907-2.297-4.798-3.445-8.672-3.445c-3.141,0-6.501,1.234-10.078,3.703l-0.094-0.047c7.983-8.906,12.101-13.484,12.352-13.734
		c0.938-0.953,1.734-1.516,2.391-1.688c0.609-0.156,0.914-0.492,0.914-1.008c0-0.641-0.548-1.328-1.641-2.063
		c-0.954-0.703-1.734-1.055-2.344-1.055c-0.392,0-0.727,0.141-1.008,0.422c-0.392,0.391-0.79,0.648-1.195,0.773
		c-2.923,0.859-5.071,1.445-6.445,1.758c-1.188,0.25-2.095,0.375-2.719,0.375c-0.782,0-1.556-0.5-2.32-1.5
		c-0.313-0.422-0.586-0.633-0.82-0.633c-0.281,0-0.422,0.258-0.422,0.773c0,0.859,0.429,1.82,1.289,2.883
		c0.921,1.125,1.819,1.688,2.695,1.688c0.312,0,0.71-0.211,1.195-0.633c0.218-0.188,0.633-0.398,1.242-0.633
		c2.531-0.969,5.109-1.891,7.734-2.766c0.141-0.047,0.258-0.07,0.352-0.07c0.155,0,0.234,0.055,0.234,0.164
		c0,0.078-0.056,0.195-0.164,0.352c-4.86,6.422-10.664,13.211-17.414,20.367c-0.642,0.703-0.961,1.313-0.961,1.828
		c0,0.406,0.155,0.758,0.469,1.055c0.328,0.328,0.703,0.492,1.125,0.492c0.499,0,0.882-0.18,1.148-0.539
		c1.313-1.672,2.429-2.93,3.352-3.773c3.671-3.297,7.46-4.945,11.367-4.945c1.89,0,3.499,0.508,4.828,1.523
		c1.812,1.391,2.719,3.477,2.719,6.258c0,1.563-0.524,3.094-1.57,4.594c-1.266,1.813-2.923,3.031-4.969,3.656
		C26.022,353.397,25.289,352.202,24.164,351.046L24.164,351.046z M21.914,355.312c-2.016,0-3.618-0.328-4.805-0.984
		c-1.142-0.641-1.711-1.406-1.711-2.297c0-0.563,0.179-1.031,0.539-1.406c0.452-0.5,1.132-0.75,2.039-0.75
		c1.015,0,2.069,0.461,3.164,1.383c1.296,1.078,2.163,2.359,2.602,3.844C23.351,355.241,22.741,355.312,21.914,355.312
		L21.914,355.312z"/>
</g>
</svg>
