<?xml version="1.0" encoding="utf-8"?>
<!-- Generator: Adobe Illustrator 14.0.0, SVG Export Plug-In . SVG Version: 6.00 Build 43363)  -->
<!DOCTYPE svg PUBLIC "-//W3C//DTD SVG 1.1 Basic//EN" "http://www.w3.org/Graphics/SVG/1.1/DTD/svg11-basic.dtd">
<svg version="1.1" baseProfile="basic" id="レイヤー_1"
	 xmlns="http://www.w3.org/2000/svg" xmlns:xlink="http://www.w3.org/1999/xlink" x="0px" y="0px" width="290.438px"
	 height="251.448px" viewBox="0 0 290.438 251.448" xml:space="preserve">
<g>
	<path fill="#0D4482" d="M271.336,34.198c3.421,3.047,7.546,5.523,12.375,7.43c1.155,0.484,1.929,0.727,2.32,0.727
		c0.358,0,0.608-0.258,0.75-0.773c0.249-0.703,0.516-1.203,0.796-1.5c0.297-0.313,0.789-0.563,1.478-0.75
		c0.155-0.062,0.234-0.171,0.234-0.328c0-0.141-0.063-0.226-0.188-0.258c-5.97-0.874-11.462-3.164-16.477-6.867
		c-0.985-0.718-2.056-1.664-3.211-2.836c2.749-3.422,5.054-7.468,6.913-12.141c1.313-0.047,1.97-0.352,1.97-0.914
		c0-0.516-1.523-1.421-4.57-2.719c-0.516,2.142-1.157,4.055-1.922,5.742c-1.031,2.531-2.501,5.109-4.406,7.734
		c-2.329-2.813-4.376-6.319-6.142-10.523c-0.219-0.609-0.327-1.022-0.327-1.242l0.14-0.82c0-0.249-0.125-0.375-0.375-0.375
		c-0.203,0-0.515,0.094-0.938,0.281c-0.531,0.251-0.796,0.445-0.796,0.586s0.155,0.328,0.469,0.563
		c0.265,0.22,0.46,0.556,0.585,1.008c0.845,2.563,1.883,5.048,3.117,7.453c0.875,1.657,1.867,3.243,2.978,4.758
		c-5.001,5.985-11.367,10.523-19.103,13.617c-0.093,0.031-0.14,0.102-0.14,0.211c0,0.313,0.101,0.469,0.305,0.469
		c0.03,0,0.054,0,0.07,0c8.827-2.578,15.727-6.577,20.695-12C268.983,31.965,270.117,33.12,271.336,34.198L271.336,34.198z
		 M282.609,14.019c0.609,0.97,1.069,1.617,1.383,1.945c0.327,0.36,0.687,0.539,1.077,0.539c0.938,0,1.407-0.546,1.407-1.641
		c0-1.655-1.188-3.663-3.563-6.023c-2.829-2.813-6.485-5.304-10.97-7.477c-0.031-0.015-0.063-0.023-0.093-0.023
		c-0.267,0-0.399,0.141-0.399,0.422c0,0.063,0.024,0.117,0.071,0.164C276.085,5.52,279.78,9.551,282.609,14.019L282.609,14.019z
		 M255.914,12.612c2.391-2.233,4.585-4.992,6.586-8.273c1.359-0.094,2.039-0.382,2.039-0.867c0-0.249-0.251-0.522-0.75-0.82
		c-0.532-0.328-1.743-0.921-3.633-1.781c-0.548,1.657-1.289,3.298-2.227,4.922c-2.782,4.72-6.204,8.688-10.266,11.906
		c-0.047,0.047-0.07,0.094-0.07,0.141c0,0.313,0.155,0.469,0.469,0.469c0.03,0,0.062-0.015,0.094-0.047
		C251.25,16.418,253.835,14.534,255.914,12.612L255.914,12.612z"/>
	<path fill="#0D4482" d="M255.75,84.449c0,2.719,1.21,4.688,3.632,5.906c2.141,1.063,5.415,1.594,9.82,1.594
		c3.563,0,6.423-0.164,8.579-0.492c0.983-0.125,1.663-0.289,2.038-0.492c0.438-0.219,0.657-0.586,0.657-1.102
		s-0.29-0.961-0.867-1.336c-0.626-0.422-1.345-0.633-2.157-0.633c-0.438,0-0.969,0.102-1.593,0.305
		c-2.188,0.672-5.228,1.008-9.117,1.008c-6.017,0-9.023-1.695-9.023-5.086c0-1.797,0.858-3.461,2.578-4.992
		c1.343-1.188,3.812-2.68,7.405-4.477c1.797-0.891,5.102-2.203,9.915-3.938c0.999-0.359,1.5-0.805,1.5-1.336
		c0-0.547-0.431-1.281-1.29-2.203c-1.281-1.281-2.508-1.922-3.679-1.922c-0.579,0-0.867,0.141-0.867,0.422
		c0,0.219,0.124,0.414,0.375,0.586c0.983,0.672,1.476,1.234,1.476,1.688c0,0.297-0.336,0.641-1.007,1.031
		c-1.907,1.109-3.946,2.18-6.118,3.211c-0.453,0.203-0.836,0.305-1.147,0.305c-0.047,0-0.095,0-0.141,0
		c-0.673-0.047-1.071-0.672-1.195-1.875c-0.173-2.156-0.259-4.281-0.259-6.375c0-1.094,0.016-2.219,0.048-3.375
		c0-0.406,0.108-0.773,0.327-1.102c0.344-0.453,0.517-0.82,0.517-1.102c0-0.516-0.321-1.039-0.962-1.57
		c-1.328-1.094-2.57-1.641-3.726-1.641c-0.422,0-0.844,0.102-1.267,0.305c-0.5,0.25-0.75,0.516-0.75,0.797
		c0,0.219,0.078,0.328,0.235,0.328c0.78,0.047,1.5,0.32,2.156,0.82c0.405,0.281,0.633,0.891,0.68,1.828
		c0.155,4.297,0.328,7.625,0.516,9.984c0.188,2.188,0.891,3.594,2.109,4.219C258.882,76.941,255.75,80.512,255.75,84.449
		L255.75,84.449z"/>
	<path fill="#0D4482" d="M288.797,136.477c0.422,0,0.633-0.141,0.633-0.422c0-0.266-0.337-0.695-1.008-1.289
		c-1.423-1.219-2.259-1.828-2.508-1.828c-0.267,0-1.048,0.781-2.345,2.344h-11.577c0.405-1.344,0.694-2.977,0.867-4.898h12.445
		c0.452,0,0.68-0.141,0.68-0.422s-0.321-0.68-0.961-1.195c-1.345-1.125-2.149-1.688-2.414-1.688c-0.204,0-0.938,0.703-2.203,2.109
		h-7.454c0-0.016,0.048-1.539,0.142-4.57h14.883c0.437,0,0.655-0.156,0.655-0.469c0-0.344-0.32-0.758-0.96-1.242
		c-1.329-1.094-2.133-1.641-2.415-1.641c-0.28,0-1.007,0.719-2.18,2.156h-7.616c1.483-1.531,2.663-2.859,3.539-3.984
		c1.296-0.094,1.944-0.352,1.944-0.773c0-0.359-1.32-1.063-3.96-2.109c-0.141,0.703-0.445,1.633-0.915,2.789
		c-0.547,1.328-1.203,2.688-1.968,4.078h-13.383c-1.188,0-2.306-0.109-3.352-0.328l0.469,1.805c0.968-0.188,1.929-0.281,2.883-0.281
		h9.469c0,2.016-0.04,3.539-0.118,4.57h-7.055c-1.203,0-2.383-0.094-3.538-0.281l0.468,1.758c1.297-0.188,2.336-0.281,3.118-0.281
		h6.914c-0.141,1.703-0.422,3.336-0.845,4.898h-8.694c-1.266,0-2.61-0.109-4.031-0.328l0.421,1.805
		c1.156-0.188,2.375-0.281,3.657-0.281h8.297c-0.907,2.609-2.329,4.813-4.267,6.609c-2.141,1.953-5.266,3.719-9.375,5.297
		c-0.078,0.031-0.116,0.094-0.116,0.188c0,0.344,0.132,0.492,0.398,0.445c4.218-1.016,7.554-2.375,10.008-4.078
		c2.874-1.984,4.905-4.68,6.094-8.086c1.875,3.359,4.319,6.031,7.336,8.016c2.155,1.422,4.351,2.5,6.585,3.234
		c0.859,0.281,1.5,0.422,1.923,0.422c0.327,0,0.585-0.227,0.772-0.68c0.25-0.656,0.508-1.117,0.774-1.383
		c0.28-0.297,0.71-0.523,1.288-0.68c0.156-0.047,0.235-0.148,0.235-0.305c0-0.125-0.063-0.195-0.188-0.211
		c-4.11-0.438-7.603-1.352-10.477-2.742c-2.845-1.328-5.273-3.344-7.289-6.047H288.797z M256.852,108.211
		c1.28-0.25,1.922-0.586,1.922-1.008c0-0.516-1.587-1.172-4.759-1.969c-0.125,1.375-0.461,3.133-1.008,5.273
		c-0.719,2.797-1.727,5.727-3.022,8.789c-1.563,3.719-3.181,6.742-4.853,9.07c-0.031,0.031-0.046,0.07-0.046,0.117
		c0,0.25,0.171,0.375,0.516,0.375c0.062,0,0.108-0.016,0.141-0.047c1.999-2.234,3.797-4.656,5.39-7.266
		c0,2.016-0.031,5.078-0.093,9.188c-0.157,10.828-0.234,16.539-0.234,17.133c0,0.797,0.429,1.195,1.289,1.195
		c1.219,0,1.828-0.477,1.828-1.43l-0.047-17.016v-8.391c0.952-0.406,1.43-0.789,1.43-1.148c0-0.266-0.165-0.469-0.492-0.609
		c-0.438-0.203-1.345-0.398-2.719-0.586C253.937,116.508,255.522,112.617,256.852,108.211L256.852,108.211z M269.952,115.266v-7.781
		c0.892-0.344,1.337-0.68,1.337-1.008c0-0.469-1.392-0.867-4.172-1.195c0.155,1.328,0.234,2.641,0.234,3.938v6.047h-7.149
		c-1.218,0-2.39-0.094-3.515-0.281l0.492,1.758c0.999-0.188,2.007-0.281,3.022-0.281h29.228c0.422,0,0.633-0.141,0.633-0.422
		c0-0.313-0.337-0.742-1.008-1.289c-1.298-1.094-2.086-1.641-2.367-1.641c-0.235,0-0.985,0.719-2.25,2.156h-4.898
		c1.624-1.516,3.226-3.391,4.805-5.625c1.219-0.078,1.828-0.344,1.828-0.797c0-0.375-1.329-1.117-3.984-2.227
		c-0.141,0.813-0.431,1.758-0.868,2.836c-0.796,1.953-1.773,3.891-2.93,5.813h-1.968v-7.781c0.891-0.328,1.335-0.664,1.335-1.008
		c0-0.469-1.391-0.867-4.171-1.195c0.124,1.063,0.188,2.375,0.188,3.938v6.047H269.952z M261.727,112.383
		c0.093,1.063,0.492,1.594,1.195,1.594c0.452,0,0.843-0.156,1.172-0.469c0.358-0.359,0.538-0.813,0.538-1.359
		c0-0.813-0.359-1.641-1.077-2.484c-0.86-1.047-2.024-1.828-3.492-2.344c-0.032-0.016-0.063-0.023-0.094-0.023
		c-0.157,0-0.234,0.07-0.234,0.211c0,0.047,0.007,0.086,0.022,0.117C260.804,108.844,261.46,110.43,261.727,112.383L261.727,112.383
		z M265.757,121.641c0.095,0.922,0.461,1.383,1.103,1.383c0.452,0,0.827-0.172,1.125-0.516c0.312-0.359,0.468-0.813,0.468-1.359
		c0-0.703-0.344-1.445-1.03-2.227c-0.813-0.891-1.86-1.578-3.141-2.063c-0.032-0.016-0.07-0.023-0.117-0.023
		c-0.173,0-0.258,0.078-0.258,0.234c0,0.031,0.007,0.07,0.023,0.117C264.991,118.531,265.601,120.016,265.757,121.641
		L265.757,121.641z"/>
	<path fill="#0D4482" d="M268.805,167.653c0.452,0,0.882,0.016,1.289,0.046c3.469,0.173,6.343,1.235,8.625,3.188
		c2.702,2.313,4.055,5.392,4.055,9.235c0,4.016-1.649,7.375-4.946,10.077c-3.078,2.517-7.164,4.212-12.258,5.087
		c-0.547,0.125-0.819,0.383-0.819,0.773c0,0.359,0.234,0.539,0.702,0.539c0.031,0,0.071,0,0.117,0
		c5.047-0.281,9.406-1.531,13.079-3.75c4.858-2.922,7.289-6.892,7.289-11.906c0-4.047-1.345-7.445-4.031-10.195
		c-3.11-3.188-7.242-4.781-12.399-4.781c-5.594,0-10.234,1.727-13.921,5.179c-3.485,3.282-5.227,7.251-5.227,11.907
		c0,2.438,0.563,4.547,1.688,6.328c1.108,1.672,2.391,2.507,3.843,2.507c1.407,0,2.984-1.069,4.735-3.21
		c2.952-3.734,5.257-7.977,6.914-12.728c0.609-1.952,0.913-3.522,0.913-4.71c0-1.359-0.32-2.539-0.96-3.54
		C267.897,167.669,268.336,167.653,268.805,167.653L268.805,167.653z M266.577,169.903c0,1-0.227,2.148-0.679,3.445
		c-1.485,4.531-3.688,8.727-6.609,12.586c-1.407,1.859-2.532,2.789-3.375,2.789c-0.907,0-1.657-0.547-2.25-1.642
		c-0.767-1.483-1.149-3.101-1.149-4.851c0-3.688,1.297-6.852,3.892-9.492c2.531-2.594,5.733-4.211,9.608-4.853
		C266.39,168.262,266.577,168.935,266.577,169.903L266.577,169.903z"/>
	<path fill="#0D4482" d="M178.742,15.564v0.867c0,0.563,0.382,0.844,1.147,0.844c1.125,0,1.688-0.382,1.688-1.148l-0.163-7.805
		v-3.07c0.812-0.53,1.218-0.929,1.218-1.195c0-0.265-0.257-0.616-0.772-1.055c-0.938-0.827-1.532-1.242-1.782-1.242
		c-0.219,0-0.781,0.478-1.688,1.43h-8.202c-1.11-0.64-2.243-1.172-3.398-1.594c0.234,1.641,0.351,3.993,0.351,7.055l-0.188,7.805
		c0,0.642,0.383,0.961,1.149,0.961c1.14,0,1.711-0.413,1.711-1.242v-0.609h3.844v20.742l-3.867,0.703V22.76
		c0.984-0.422,1.476-0.788,1.476-1.102c0-0.265-0.203-0.476-0.608-0.633c-0.579-0.202-1.837-0.405-3.774-0.609
		c0.172,1.11,0.258,3.047,0.258,5.813v11.227c-1.218,0.126-2.117,0.188-2.695,0.188c0.766,2.938,1.344,4.406,1.735,4.406
		c0.39,0,0.727-0.555,1.008-1.664c5.702-1.468,11.03-3.422,15.984-5.859c0.093-0.03,0.141-0.101,0.141-0.211
		c0-0.281-0.11-0.422-0.328-0.422c-0.017,0-0.032,0-0.047,0c-2.016,0.579-4.212,1.172-6.586,1.781V25.643h6.703
		c0.422,0,0.633-0.141,0.633-0.422c0-0.296-0.258-0.68-0.773-1.148c-1.266-1.093-1.985-1.641-2.157-1.641
		c-0.266,0-0.89,0.673-1.875,2.016h-2.53v-8.883H178.742z M169.813,14.369V4.385h8.93v9.984H169.813z M188.632,4.432h18.728
		c0.452,0,0.68-0.141,0.68-0.422s-0.337-0.694-1.008-1.242c-1.47-1.219-2.337-1.828-2.602-1.828c-0.267,0-1.048,0.767-2.344,2.297
		h-13.079c-1.218-0.718-2.383-1.313-3.492-1.781c0.188,2.47,0.282,8.868,0.282,19.195c0,8.109-0.095,15.281-0.282,21.516
		c0,0.641,0.43,0.961,1.29,0.961c1.219,0,1.827-0.422,1.827-1.266v-2.25h19.22c0.405,0,0.609-0.141,0.609-0.422
		c0-0.312-0.352-0.765-1.055-1.359c-1.579-1.28-2.462-1.922-2.649-1.922c-0.25,0-1.047,0.837-2.39,2.508h-13.735V27.025h12.353
		v1.547c0,0.673,0.397,1.008,1.195,1.008c1.219,0,1.827-0.437,1.827-1.313l-0.21-8.578v-3.563c0.874-0.546,1.313-0.961,1.313-1.242
		c0-0.234-0.29-0.64-0.867-1.219c-0.938-0.858-1.548-1.289-1.828-1.289c-0.267,0-0.876,0.548-1.828,1.641h-11.954V4.432z
		 M200.984,15.213V25.83h-12.353V15.213H200.984z"/>
	<path fill="#0D4482" d="M169.977,85.321c0.343,1.578,0.616,2.625,0.82,3.141c0.155,0.438,0.366,0.656,0.633,0.656
		c0.296,0,0.585-0.469,0.867-1.406c2.672-0.813,4.843-1.594,6.516-2.344c0.077,0.25,0.14,0.57,0.188,0.961
		c0.124,0.734,0.257,1.227,0.398,1.477c0.155,0.266,0.429,0.398,0.82,0.398c0.328,0,0.608-0.16,0.844-0.48
		c0.234-0.32,0.352-0.715,0.352-1.184c0-0.813-0.345-1.719-1.032-2.719c-0.796-1.156-1.859-2.156-3.188-3
		c-0.016-0.016-0.039-0.023-0.069-0.023c-0.157,0-0.235,0.078-0.235,0.234c0,0.016,0.008,0.039,0.024,0.07
		c0.703,0.953,1.257,2.086,1.663,3.398c-2.53,0.391-4.405,0.633-5.625,0.727c0.938-1.828,1.853-4.055,2.742-6.68h7.008v13.148
		c0,0.484-0.258,0.727-0.772,0.727c-0.798,0-2.415-0.094-4.853-0.281c-0.156,0-0.233,0.102-0.233,0.305
		c0,0.156,0.062,0.25,0.188,0.281c1.577,0.281,2.679,0.578,3.305,0.891c0.624,0.313,0.968,0.773,1.031,1.383
		c0.03,0.391,0.234,0.586,0.609,0.586c0.75,0,1.43-0.195,2.038-0.586c0.922-0.594,1.384-1.391,1.384-2.391l-0.142-9.305v-3.891
		c0.798-0.516,1.195-0.914,1.195-1.195c0-0.234-0.289-0.602-0.866-1.102c-0.844-0.766-1.376-1.148-1.594-1.148
		c-0.204,0-0.712,0.461-1.523,1.383h-6.399c0.109-0.313,0.242-0.734,0.399-1.266c0.233-0.859,0.375-1.367,0.421-1.523
		c0.875-0.219,1.313-0.492,1.313-0.82c0-0.406-1.171-0.852-3.515-1.336h6.914v1.055c0,0.609,0.351,0.914,1.055,0.914
		c1.015,0,1.523-0.383,1.523-1.148l-0.094-7.336v-3.117c0.812-0.344,1.219-0.68,1.219-1.008c0-0.234-0.188-0.414-0.563-0.539
		c-0.469-0.156-1.563-0.328-3.281-0.516c0.094,1.172,0.141,2.719,0.141,4.641v5.859h-11.907v-8.391
		c0.766-0.328,1.149-0.68,1.149-1.055c0-0.234-0.188-0.414-0.563-0.539c-0.469-0.156-1.556-0.328-3.258-0.516
		c0.124,1.078,0.188,3.109,0.188,6.094l-0.142,6.469c0,0.609,0.367,0.914,1.103,0.914c1.015,0,1.522-0.367,1.522-1.102v-0.68h4.758
		c-0.046,1.266-0.195,2.594-0.445,3.984c-0.016,0.109-0.039,0.258-0.069,0.445c-0.032,0.234-0.056,0.406-0.07,0.516h-5.273
		c-0.72-0.406-1.743-0.906-3.07-1.5c0.124,1.625,0.188,4.32,0.188,8.086l-0.142,11.086c0,0.734,0.383,1.102,1.149,1.102
		c1.093,0,1.641-0.414,1.641-1.242l-0.095-9.047v-7.289h5.367c-0.655,3.094-1.234,5.352-1.733,6.773H169.977z M207.922,92.798
		c0.452,0,0.68-0.141,0.68-0.422c0-0.313-0.321-0.727-0.962-1.242c-1.375-1.125-2.155-1.688-2.343-1.688
		c-0.282,0-1.008,0.719-2.18,2.156h-3.165v-9.844h6.962c0.422,0,0.633-0.141,0.633-0.422c0-0.328-0.29-0.727-0.867-1.195
		c-1.329-1.094-2.11-1.641-2.344-1.641c-0.234,0-0.876,0.688-1.922,2.063h-2.462v-8.25h6.962c0.422,0,0.633-0.156,0.633-0.469
		s-0.29-0.703-0.867-1.172c-1.266-1.031-2.032-1.547-2.298-1.547c-0.313,0-0.969,0.664-1.968,1.992h-2.462v-8.227h7.688
		c0.438,0,0.657-0.141,0.657-0.422c0-0.313-0.337-0.727-1.008-1.242c-1.392-1.125-2.22-1.688-2.484-1.688
		c-0.251,0-0.954,0.719-2.11,2.156h-4.242c1.391-1.859,2.727-3.938,4.009-6.234c1.078-0.172,1.616-0.477,1.616-0.914
		c0-0.406-1.344-1.047-4.03-1.922c-0.095,0.828-0.321,1.867-0.68,3.117c-0.423,1.578-1.095,3.563-2.016,5.953h-5.72l-0.444-0.234
		c1.172-2.109,2.156-4.289,2.952-6.539c1.141-0.172,1.712-0.477,1.712-0.914c0-0.25-0.243-0.477-0.727-0.68
		c-0.532-0.25-1.711-0.609-3.539-1.078c-0.251,1.609-0.586,3.125-1.009,4.547c-1.516,5.031-3.28,8.805-5.296,11.32
		c-0.032,0.047-0.047,0.086-0.047,0.117c0,0.25,0.141,0.375,0.422,0.375c0.062,0,0.108-0.016,0.141-0.047
		c1.266-1.156,2.391-2.438,3.375-3.844c0,1.688-0.032,4.234-0.095,7.641c-0.016,5.969-0.078,12.289-0.188,18.961
		c-0.031,2.219-0.046,3.43-0.046,3.633c0,0.672,0.398,1.008,1.195,1.008c1.155,0,1.734-0.414,1.734-1.242v-1.922H207.922z
		 M191.773,62.892h5.578v8.227h-5.578V62.892z M197.352,72.313v8.25h-5.578v-8.25H197.352z M197.352,81.759v9.844h-5.578v-9.844
		H197.352z M171.547,62.376c-0.017,0-0.032,0-0.047,0c-0.141,0-0.211,0.078-0.211,0.234c0,0.047,0.015,0.078,0.047,0.094
		c1.249,0.813,2.335,1.656,3.258,2.531c-1.188,1.641-2.54,3.063-4.055,4.266c-0.047,0.031-0.07,0.078-0.07,0.141
		c0,0.203,0.094,0.305,0.281,0.305c0.03,0,0.054-0.008,0.069-0.023c1.672-0.766,3.313-1.922,4.923-3.469
		c0.827,0.938,1.437,1.688,1.827,2.25c0.547,0.734,0.992,1.102,1.337,1.102c0.577,0,0.867-0.352,0.867-1.055
		c0-1.063-0.938-2.281-2.813-3.656c0.563-0.688,1.148-1.531,1.758-2.531c1.031-0.047,1.546-0.258,1.546-0.633
		c0-0.266-0.992-0.844-2.976-1.734c-0.204,0.969-0.688,2.047-1.453,3.234c-0.188,0.313-0.345,0.547-0.469,0.703
		C174.336,63.524,173.062,62.938,171.547,62.376L171.547,62.376z M167.984,57.899c-1.407,0-2.595-0.109-3.563-0.328l0.468,1.805
		c1.109-0.188,2.172-0.281,3.188-0.281h18.75c0.423,0,0.634-0.141,0.634-0.422c0-0.234-0.305-0.617-0.914-1.148
		c-1.359-1.156-2.157-1.734-2.391-1.734c-0.281,0-0.97,0.703-2.063,2.109h-5.204v-3.117c1.032-0.469,1.548-0.883,1.548-1.242
		c0-0.281-0.211-0.492-0.633-0.633c-0.595-0.203-1.884-0.414-3.867-0.633c0.124,1.281,0.188,2.391,0.188,3.328v2.297H167.984z"/>
	<path fill="#0D4482" d="M186.406,133.176c-0.047,0.031-0.07,0.078-0.07,0.141c0,0.328,0.147,0.492,0.445,0.492
		c0.015,0,0.038,0,0.07,0c3.249-1.406,6.062-3.297,8.438-5.672c2.063,3.109,4.694,5.523,7.898,7.242
		c1.14,0.547,2.054,0.82,2.742,0.82c1.077,0,1.617-0.523,1.617-1.57c0-0.453-0.157-0.891-0.47-1.313
		c-0.359-0.391-0.538-0.734-0.538-1.031c0-0.078,0.258-1.5,0.773-4.266c0.015-0.141-0.032-0.242-0.141-0.305
		c-0.047-0.031-0.103-0.047-0.165-0.047s-0.117,0.039-0.163,0.117c-1.547,2.828-2.493,4.242-2.837,4.242
		c-0.297,0-0.805-0.242-1.522-0.727c-2.063-1.406-3.82-3.164-5.273-5.273c1.671-2.031,3.211-4.492,4.616-7.383
		c1.094-0.125,1.642-0.383,1.642-0.773c0-0.234-0.181-0.461-0.539-0.68c-0.438-0.281-1.532-0.773-3.281-1.477
		c-0.281,1.297-0.806,2.734-1.571,4.313c-0.672,1.406-1.391,2.672-2.155,3.797c-0.797-1.625-1.392-3.141-1.782-4.547
		c-0.547-1.938-0.913-4.313-1.101-7.125h13.055c0.437,0,0.656-0.156,0.656-0.469c0-0.281-0.306-0.688-0.914-1.219
		c-1.251-1.063-2.017-1.594-2.297-1.594c-0.267,0-0.923,0.695-1.97,2.086h-8.625c-0.016-0.344-0.031-0.828-0.046-1.453
		c-0.017-0.844-0.032-1.453-0.047-1.828c1.062-0.469,1.593-0.883,1.593-1.242c0-0.297-0.219-0.531-0.655-0.703
		c-0.626-0.234-1.931-0.453-3.914-0.656c0.14,1.078,0.249,2.492,0.327,4.242l0.048,1.641h-17.719
		c-1.079-0.703-2.29-1.367-3.633-1.992c0.171,1.734,0.258,4.008,0.258,6.82c0,3.797-0.29,7.156-0.867,10.078
		c-0.673,3.703-2.039,7.125-4.102,10.266c-0.017,0.031-0.023,0.063-0.023,0.094c0,0.234,0.163,0.352,0.492,0.352
		c0.062,0,0.117-0.023,0.163-0.07c2.813-2.891,4.758-6.227,5.837-10.008c0.999-3.5,1.5-7.273,1.5-11.32v-3.023h18.188
		c0.39,5.078,1.491,9.43,3.305,13.055c0.108,0.219,0.288,0.555,0.539,1.008C191.984,128.902,189.39,131.223,186.406,133.176
		L186.406,133.176z M184.602,130.34c0,0.594,0.382,0.891,1.148,0.891c1.062,0,1.594-0.367,1.594-1.102l-0.094-4.688v-1.477
		c0.797-0.516,1.194-0.93,1.194-1.242c0-0.203-0.273-0.555-0.819-1.055c-0.876-0.766-1.423-1.148-1.641-1.148
		c-0.22,0-0.743,0.445-1.57,1.336H177.5c-0.829-0.484-1.852-0.977-3.07-1.477c0.124,1.469,0.188,3.398,0.188,5.789l-0.094,5.203
		c0,0.578,0.352,0.867,1.054,0.867c1.094,0,1.642-0.367,1.642-1.102v-1.336h7.383V130.34z M177.219,128.605v-5.555h7.383v5.555
		H177.219z M198.64,109.41c0.297,0.578,0.704,0.867,1.22,0.867c0.812,0,1.218-0.461,1.218-1.383c0-1.656-1.648-2.688-4.945-3.094
		c-0.016,0-0.031,0-0.046,0c-0.188,0-0.281,0.094-0.281,0.281c0,0.063,0.022,0.117,0.07,0.164
		C196.968,106.949,197.89,108.004,198.64,109.41L198.64,109.41z M203.164,144.027c0.202,0.703,0.413,1.188,0.633,1.453
		c0.234,0.312,0.585,0.469,1.055,0.469c0.968,0,1.453-0.688,1.453-2.063c0-1.109-0.563-2.273-1.688-3.492
		c-1.329-1.422-3.063-2.539-5.203-3.352c-0.032-0.016-0.063-0.023-0.095-0.023c-0.203,0-0.305,0.086-0.305,0.258
		c0,0.047,0.024,0.086,0.071,0.117C201.022,139.254,202.382,141.465,203.164,144.027L203.164,144.027z M187.765,139.504
		c0.47,1.031,0.962,1.547,1.478,1.547c0.375,0,0.694-0.133,0.96-0.398c0.297-0.313,0.446-0.727,0.446-1.242
		c0-0.953-0.517-1.844-1.547-2.672c-1.235-1-2.97-1.711-5.203-2.133c-0.234-0.031-0.352,0.063-0.352,0.281
		c0,0.078,0.038,0.148,0.117,0.211C185.569,136.441,186.937,137.91,187.765,139.504L187.765,139.504z M170.188,140.441
		c-0.626,0.953-1.556,1.719-2.789,2.297c-1.001,0.438-1.5,1.039-1.5,1.805c0,0.469,0.141,0.858,0.421,1.172
		c0.329,0.343,0.75,0.516,1.267,0.516c1.171,0,2.194-0.633,3.07-1.898c1.015-1.453,1.523-3.266,1.523-5.438
		c0-0.516-0.032-1.047-0.094-1.594c-0.032-0.156-0.164-0.234-0.398-0.234c-0.173,0-0.274,0.063-0.306,0.188
		C171.116,138.582,170.718,139.645,170.188,140.441L170.188,140.441z M176.469,117.848h12.233c0.406,0,0.61-0.156,0.61-0.469
		c0-0.266-0.258-0.633-0.773-1.102c-1.313-1.063-2.071-1.594-2.274-1.594c-0.233,0-0.859,0.656-1.875,1.969h-8.015
		c-0.876,0-1.852-0.109-2.931-0.328l0.445,1.805C174.843,117.941,175.702,117.848,176.469,117.848L176.469,117.848z
		 M194.164,143.934c-0.673,0.656-3.243,0.984-7.712,0.984c-2.141,0-3.625-0.047-4.452-0.141c-0.938-0.109-1.556-0.32-1.852-0.633
		c-0.251-0.281-0.375-0.789-0.375-1.523v-4.945c1.062-0.469,1.594-0.883,1.594-1.242c0-0.281-0.196-0.484-0.586-0.609
		c-0.532-0.172-1.892-0.367-4.079-0.586c0.156,1.094,0.235,2.453,0.235,4.078l-0.141,3.352c0,1.859,0.492,3.124,1.477,3.797
		c1.078,0.734,3.429,1.102,7.054,1.102c5.422,0,8.884-0.188,10.384-0.563c1.53-0.375,2.296-1.008,2.296-1.898
		c0-0.563-0.257-0.961-0.772-1.195c-0.407-0.203-0.609-0.539-0.609-1.008c0-0.859,0.03-1.977,0.094-3.352
		c0-0.188-0.11-0.281-0.329-0.281c-0.125,0-0.21,0.063-0.258,0.188C195.351,141.91,194.694,143.402,194.164,143.934L194.164,143.934
		z"/>
	<path fill="#0D4482" d="M98.477,10.57c-1.251,0-2.454-0.094-3.609-0.281l0.492,1.758c1.233-0.188,2.273-0.281,3.117-0.281h25.57
		c0.422,0,0.633-0.141,0.633-0.422s-0.352-0.719-1.055-1.313c-1.563-1.344-2.461-2.016-2.695-2.016c-0.22,0-1.063,0.852-2.531,2.555
		h-8.742V2.602c1.125-0.469,1.688-0.883,1.688-1.242c0-0.297-0.234-0.523-0.703-0.68c-0.656-0.234-2.056-0.461-4.195-0.68
		c0.155,1.25,0.234,2.852,0.234,4.805v5.766H98.477z M96.438,39.281c-1.157,0-2.446-0.109-3.867-0.328l0.469,1.805
		c1.343-0.188,2.491-0.281,3.445-0.281h28.945c0.437,0,0.656-0.141,0.656-0.422c0-0.266-0.384-0.734-1.148-1.406
		c-1.61-1.375-2.54-2.063-2.789-2.063c-0.267,0-1.134,0.898-2.602,2.695h-9.516c2.937-5.953,5.531-13.219,7.781-21.797
		c1.125-0.219,1.688-0.539,1.688-0.961c0-0.266-0.22-0.5-0.656-0.703c-0.579-0.266-1.978-0.703-4.195-1.313
		c-0.047,1.5-0.321,3.438-0.82,5.813c-1.313,6.5-3.04,12.82-5.18,18.961H96.438z M101.336,30.891
		c0.03,1.203,0.147,2.055,0.352,2.555c0.218,0.5,0.586,0.75,1.102,0.75c1.359,0,2.039-1.023,2.039-3.07
		c0-5.25-1.969-10.406-5.906-15.469c-0.047-0.063-0.117-0.094-0.211-0.094c-0.281,0-0.422,0.102-0.422,0.305
		c0,0.031,0.007,0.055,0.023,0.07C100.234,20.313,101.242,25.297,101.336,30.891L101.336,30.891z M90.297,6.398
		c0.483,0.984,0.999,1.477,1.547,1.477c0.39,0,0.733-0.148,1.031-0.445C93.25,7.07,93.438,6.594,93.438,6
		c0-1.078-0.586-2.063-1.758-2.953c-1.359-1.031-3.196-1.742-5.508-2.133c-0.234-0.031-0.352,0.078-0.352,0.328
		c0,0.094,0.038,0.164,0.117,0.211C87.859,2.672,89.313,4.32,90.297,6.398L90.297,6.398z M87.273,17.484
		c0.39,0.984,0.905,1.477,1.547,1.477c0.405,0,0.757-0.156,1.055-0.469c0.358-0.359,0.539-0.844,0.539-1.453
		c0-0.969-0.579-1.883-1.734-2.742c-1.359-1.031-3.126-1.711-5.297-2.039c-0.234-0.031-0.352,0.078-0.352,0.328
		c0,0.078,0.038,0.141,0.117,0.188C85.07,14.023,86.444,15.594,87.273,17.484L87.273,17.484z M87.273,28.289
		C86.632,29.43,85.851,30,84.93,30c-0.609,0-1.43-0.063-2.461-0.188c-0.173-0.031-0.258,0.086-0.258,0.352
		c0,0.172,0.062,0.281,0.188,0.328c1.5,0.391,2.508,0.813,3.023,1.266c0.656,0.563,0.984,1.547,0.984,2.953
		c0,0.781-0.07,1.773-0.211,2.977c-0.094,0.766-0.141,1.391-0.141,1.875c0,1.688,0.563,2.531,1.688,2.531
		c1.53,0,2.297-0.977,2.297-2.93c0-0.781-0.173-1.789-0.516-3.023c-0.485-1.781-0.727-3.078-0.727-3.891s0.179-1.641,0.539-2.484
		c2.218-5.484,4.155-10.711,5.813-15.68c0.015-0.031,0.023-0.055,0.023-0.07c0-0.203-0.126-0.305-0.375-0.305
		c-0.11,0-0.181,0.039-0.211,0.117C91.914,19.625,89.477,24.445,87.273,28.289L87.273,28.289z"/>
	<path fill="#0D4482" d="M112.516,60.875c0.516-0.25,0.773-0.695,0.773-1.336c0-0.281-0.094-0.531-0.281-0.75
		c-0.251-0.266-0.571-0.398-0.961-0.398c-0.345,0-0.79,0.109-1.336,0.328c-0.703,0.266-1.282,0.602-1.734,1.008
		c-0.267,0.219-0.735,0.508-1.406,0.867c-0.938,0.5-1.978,0.961-3.117,1.383c-0.157-0.719-0.321-1.609-0.492-2.672
		c-0.11-0.688-0.164-1.148-0.164-1.383c0-0.219,0.038-0.43,0.117-0.633c0.171-0.438,0.258-0.789,0.258-1.055
		c0-0.5-0.492-0.93-1.477-1.289c-1.095-0.422-2.282-0.633-3.563-0.633c-0.642,0-1.219,0.203-1.734,0.609
		c-0.251,0.203-0.375,0.406-0.375,0.609c0,0.266,0.141,0.398,0.422,0.398c0.015,0,0.047,0,0.094,0
		c0.124,0.016,0.305,0.023,0.539,0.023c1.483,0,2.429,0.578,2.836,1.734c0.171,0.531,0.437,1.328,0.797,2.391
		c0.39,1.141,0.68,2.016,0.867,2.625c-3.36,1.219-6.157,1.828-8.391,1.828c-1.359,0-2.657-0.289-3.891-0.867
		c-0.313-0.125-0.524-0.188-0.633-0.188c-0.281,0-0.422,0.172-0.422,0.516c0,0.234,0.124,0.477,0.375,0.727
		c1.359,1.219,3.171,1.828,5.438,1.828c2.016,0,4.749-0.578,8.203-1.734c1.421,3.828,2.273,6.07,2.555,6.727
		c-3.11,1.047-5.915,1.57-8.414,1.57c-1.626,0-2.438-0.469-2.438-1.406c0-0.531,0.047-0.992,0.141-1.383
		c0.094-0.281,0.141-0.492,0.141-0.633c0-0.25-0.181-0.375-0.539-0.375c-0.188,0-0.392,0.195-0.609,0.586
		c-0.454,0.797-0.68,1.547-0.68,2.25c0,2.047,1.507,3.07,4.523,3.07c2.64,0,5.585-0.57,8.836-1.711
		c1.359,2.813,2.616,5.164,3.773,7.055c-2.079-0.359-4.556-0.539-7.43-0.539c-2.782,0-5.109,0.391-6.984,1.172
		c-2.735,1.125-4.102,2.922-4.102,5.391c0,2.531,1.477,4.492,4.43,5.883c2.625,1.233,5.789,1.852,9.492,1.852
		c1.53,0,2.578-0.087,3.141-0.258c0.656-0.22,0.984-0.68,0.984-1.383c0-1.078-0.813-1.617-2.438-1.617l-3.234,0.141
		c-2.313,0-4.313-0.219-6-0.656c-3.032-0.797-4.547-2.211-4.547-4.242c0-1.594,0.844-2.781,2.531-3.563
		c1.406-0.656,3.188-0.984,5.344-0.984c1.999,0,4.266,0.273,6.797,0.82c1.53,0.328,2.719,0.984,3.563,1.969
		c0.265,0.313,0.616,0.469,1.055,0.469c0.765,0,1.148-0.672,1.148-2.016c0-0.969-0.462-2.055-1.383-3.258
		c-1.767-2.297-3.243-4.602-4.43-6.914c2.953-1.156,5.578-2.563,7.875-4.219c0.516-0.359,0.773-0.82,0.773-1.383
		c0-0.219-0.134-0.422-0.398-0.609c-0.313-0.203-0.656-0.289-1.031-0.258c-0.141,0.016-0.368,0.039-0.68,0.07
		c-0.281,0.047-0.509,0.07-0.68,0.07c-0.313,0-0.773-0.117-1.383-0.352c-0.72-0.281-1.329-0.57-1.828-0.867
		c-0.328-0.156-0.571-0.234-0.727-0.234c-0.281,0-0.422,0.109-0.422,0.328c0,0.188,0.155,0.398,0.469,0.633
		c0.718,0.578,1.359,1.172,1.922,1.781c0.124,0.125,0.188,0.25,0.188,0.375c0,0.094-0.094,0.211-0.281,0.352
		c-1.188,0.781-2.759,1.578-4.711,2.391c-1.063-2.344-1.907-4.586-2.531-6.727C107.852,63.164,110.343,62.063,112.516,60.875
		L112.516,60.875z"/>
	<path fill="#0D4482" d="M87.039,144.4c-1.517,0-2.906-0.109-4.172-0.328l0.469,1.758c1.547-0.156,2.796-0.234,3.75-0.234h37.641
		c0.422,0,0.633-0.141,0.633-0.422c0-0.266-0.438-0.781-1.313-1.547c-1.61-1.375-2.555-2.063-2.836-2.063
		c-0.267,0-1.212,0.945-2.836,2.836h-14.531v-20.063h16.641c0.452,0,0.68-0.141,0.68-0.422c0-0.234-0.398-0.703-1.195-1.406
		c-1.657-1.406-2.618-2.109-2.883-2.109c-0.267,0-1.165,0.914-2.695,2.742h-10.547v-14.25c1.187-0.484,1.781-0.938,1.781-1.359
		c0-0.266-0.243-0.484-0.727-0.656c-0.703-0.25-2.173-0.492-4.406-0.727c0.188,1.531,0.281,5.242,0.281,11.133V144.4H87.039z"/>
	<path fill="#0D4482" d="M116.266,184.383c0,0.844,0.429,1.266,1.289,1.266c1.313,0,1.969-0.484,1.969-1.453l-0.188-8.977v-3.703
		c0.858-0.531,1.289-0.977,1.289-1.336c0-0.328-0.243-0.68-0.727-1.055c-1.204-1-1.922-1.5-2.156-1.5
		c-0.188,0-0.806,0.563-1.852,1.688h-23.25c-1.453-0.828-2.782-1.484-3.984-1.969c0.202,2.031,0.305,4.289,0.305,6.773
		c0,6.516-0.384,11.406-1.148,14.672c-0.984,4.297-2.923,8.344-5.813,12.141c-0.032,0.047-0.047,0.086-0.047,0.117
		c0,0.25,0.141,0.375,0.422,0.375c0.062,0,0.108-0.016,0.141-0.047c1.89-1.75,3.413-3.438,4.57-5.063
		c1.343-1.906,2.444-4.086,3.305-6.539c0.75-2.125,1.249-4.719,1.5-7.781h24.375V184.383z M91.984,180.797
		c0.094-1.875,0.141-4.008,0.141-6.398v-3.891h24.141v10.289H91.984z M88.047,162.633h36.422c0.422,0,0.633-0.141,0.633-0.422
		c0-0.313-0.415-0.797-1.242-1.453c-1.626-1.313-2.587-1.969-2.883-1.969c-0.234,0-1.148,0.883-2.742,2.648H88.047
		c-1.453,0-2.813-0.109-4.078-0.328l0.469,1.805C85.78,162.727,86.983,162.633,88.047,162.633L88.047,162.633z"/>
	<path fill="#0D4482" d="M114.484,227.917c2.468-0.484,4.617-1.047,6.445-1.688c0.921-0.343,1.383-0.813,1.383-1.406
		c0-0.328-0.164-0.602-0.492-0.82s-0.727-0.328-1.195-0.328c-0.97,0-1.767,0.18-2.391,0.539c-0.75,0.406-1.228,0.648-1.43,0.727
		c-0.72,0.234-1.509,0.438-2.367,0.609c0-1.516,0.054-3.063,0.164-4.641c0.047-1,0.249-1.655,0.609-1.969
		c0.39-0.328,0.586-0.68,0.586-1.055c0-0.75-0.673-1.438-2.016-2.063c-1.157-0.578-2.259-0.867-3.305-0.867
		c-0.454,0-0.867,0.102-1.242,0.305c-0.422,0.234-0.633,0.484-0.633,0.75c0,0.328,0.202,0.492,0.609,0.492
		c0.952,0,1.711,0.188,2.273,0.563c0.375,0.281,0.577,0.891,0.609,1.828c0.124,2.75,0.188,5.118,0.188,7.102
		c-3,0.484-5.587,0.727-7.758,0.727c-1.61,0-2.859-0.609-3.75-1.828c-0.267-0.39-0.509-0.586-0.727-0.586
		c-0.281,0-0.422,0.148-0.422,0.445c0,0.188,0.047,0.422,0.141,0.703c0.921,2.25,2.602,3.375,5.039,3.375
		c2.515,0,5.022-0.18,7.523-0.539l0.141,13.406c-1.406-0.359-2.923-0.539-4.547-0.539c-2.001,0-3.603,0.383-4.805,1.148
		c-1.313,0.813-1.969,1.914-1.969,3.305c0,1.313,0.563,2.391,1.688,3.234c1.266,0.953,2.944,1.43,5.039,1.43
		c2.156,0,3.858-0.516,5.109-1.547c1.233-0.984,1.852-2.227,1.852-3.727c1.828,1.016,3.647,2.234,5.461,3.656
		c0.499,0.375,0.976,0.563,1.43,0.563c0.094,0,0.179-0.008,0.258-0.023c0.75-0.172,1.102-0.672,1.055-1.5
		c-0.063-0.5-0.337-0.945-0.82-1.336c-1.673-1.359-4.118-2.656-7.336-3.891C114.616,238.456,114.484,233.604,114.484,227.917
		L114.484,227.917z M111.227,246.995c-0.844,0.813-2.095,1.219-3.75,1.219c-3.234,0-4.852-0.914-4.852-2.742
		c0-0.75,0.39-1.359,1.172-1.828c0.797-0.469,1.835-0.703,3.117-0.703c1.828,0,3.647,0.352,5.461,1.055
		C112.375,245.276,111.991,246.276,111.227,246.995L111.227,246.995z M90.672,231.808c0.53-2.797,1.257-5.358,2.18-7.688
		c0.218-0.75,0.469-1.289,0.75-1.617c0.452-0.516,0.68-1.047,0.68-1.594c0-1.125-0.321-2.164-0.961-3.117
		c-0.609-0.969-1.282-1.711-2.016-2.227c-0.407-0.313-0.727-0.469-0.961-0.469c-0.375,0-0.563,0.156-0.563,0.469
		c0,0.126,0.077,0.32,0.234,0.586c0.733,1.203,1.102,2.336,1.102,3.398c0,1.031-0.258,2.445-0.773,4.242
		c-1.563,6-2.344,11.117-2.344,15.352c0,5.048,0.609,8.734,1.828,11.063c0.422,0.828,0.968,1.242,1.641,1.242
		c0.733,0,1.102-0.43,1.102-1.289l-0.047-2.883c0-0.281,0.141-1.102,0.422-2.461c0.094-0.422,0.991-3.641,2.695-9.656
		c0.062-0.188,0.094-0.343,0.094-0.469c0-0.422-0.141-0.633-0.422-0.633c-0.298,0-0.509,0.18-0.633,0.539
		c-1.298,3.141-2.501,6.375-3.609,9.703c-0.063,0.188-0.188,0.281-0.375,0.281c-0.173,0-0.321-0.289-0.445-0.867
		c-0.188-1-0.281-2.82-0.281-5.461C89.969,236.362,90.203,234.214,90.672,231.808L90.672,231.808z"/>
	<path fill="#0D4482" d="M25.336,34.198c3.422,3.047,7.547,5.523,12.375,7.43c1.155,0.484,1.929,0.727,2.32,0.727
		c0.358,0,0.609-0.258,0.75-0.773c0.249-0.703,0.516-1.203,0.797-1.5c0.296-0.313,0.788-0.563,1.477-0.75
		c0.155-0.062,0.234-0.171,0.234-0.328c0-0.141-0.063-0.226-0.188-0.258c-5.97-0.874-11.461-3.164-16.477-6.867
		c-0.984-0.718-2.056-1.664-3.211-2.836c2.749-3.422,5.054-7.468,6.914-12.141c1.313-0.047,1.969-0.352,1.969-0.914
		c0-0.516-1.523-1.421-4.57-2.719c-0.516,2.142-1.157,4.055-1.922,5.742c-1.031,2.531-2.501,5.109-4.406,7.734
		c-2.329-2.813-4.376-6.319-6.141-10.523c-0.22-0.609-0.328-1.022-0.328-1.242l0.141-0.82c0-0.249-0.126-0.375-0.375-0.375
		c-0.204,0-0.516,0.094-0.938,0.281c-0.532,0.251-0.797,0.445-0.797,0.586s0.155,0.328,0.469,0.563
		c0.265,0.22,0.46,0.556,0.586,1.008c0.844,2.563,1.882,5.048,3.117,7.453c0.874,1.657,1.866,3.243,2.977,4.758
		C15.108,34.418,8.742,38.956,1.008,42.05c-0.094,0.031-0.141,0.102-0.141,0.211c0,0.313,0.101,0.469,0.305,0.469
		c0.03,0,0.054,0,0.07,0c8.827-2.578,15.727-6.577,20.695-12C22.983,31.965,24.117,33.12,25.336,34.198L25.336,34.198z
		 M36.609,14.019c0.609,0.97,1.069,1.617,1.383,1.945c0.328,0.36,0.687,0.539,1.078,0.539c0.938,0,1.406-0.546,1.406-1.641
		c0-1.655-1.188-3.663-3.563-6.023c-2.829-2.813-6.485-5.304-10.969-7.477c-0.032-0.015-0.063-0.023-0.094-0.023
		c-0.267,0-0.398,0.141-0.398,0.422c0,0.063,0.023,0.117,0.07,0.164C30.085,5.52,33.78,9.551,36.609,14.019L36.609,14.019z
		 M9.914,12.612c2.391-2.233,4.585-4.992,6.586-8.273c1.359-0.094,2.039-0.382,2.039-0.867c0-0.249-0.251-0.522-0.75-0.82
		c-0.532-0.328-1.743-0.921-3.633-1.781c-0.548,1.657-1.289,3.298-2.227,4.922c-2.782,4.72-6.204,8.688-10.266,11.906
		c-0.047,0.047-0.07,0.094-0.07,0.141c0,0.313,0.155,0.469,0.469,0.469c0.03,0,0.062-0.015,0.094-0.047
		C5.25,16.418,7.835,14.534,9.914,12.612L9.914,12.612z"/>
	<path fill="#0D4482" d="M20.789,84.412c-2.109,1.609-4.376,3-6.797,4.172c-0.079,0.047-0.117,0.125-0.117,0.234
		c0,0.266,0.094,0.398,0.281,0.398c0.015,0,0.038,0,0.07,0c2.843-0.906,5.335-1.977,7.477-3.211v5.742
		c-0.36,0.094-1.001,0.211-1.922,0.352c-1.392,0.219-2.493,0.328-3.305,0.328c0.452,1.577,0.78,2.625,0.984,3.141
		c0.218,0.499,0.429,0.75,0.633,0.75c0.343,0,0.633-0.469,0.867-1.406c5.046-1.406,9.569-3.141,13.57-5.203
		c0.077-0.047,0.117-0.125,0.117-0.234c0-0.203-0.079-0.305-0.234-0.305c-0.032,0-0.056,0.008-0.07,0.023
		c-2.688,0.844-5.353,1.539-7.992,2.086v-7.008c1.624-1.25,3-2.531,4.125-3.844h0.539c1.28,4,3.038,7.141,5.273,9.422
		c1.937,2.016,3.991,3.563,6.164,4.641c0.938,0.452,1.547,0.68,1.828,0.68s0.469-0.181,0.563-0.539
		c0.249-0.673,0.492-1.142,0.727-1.406c0.265-0.298,0.647-0.501,1.148-0.609C44.906,92.583,45,92.482,45,92.311
		c0-0.125-0.056-0.195-0.164-0.211c-3.501-0.688-6.454-1.953-8.859-3.797c-0.72-0.516-1.345-1.063-1.875-1.641
		c2.156-1,3.82-1.93,4.992-2.789c0.375,0.047,0.671,0.07,0.891,0.07c0.718,0,1.078-0.148,1.078-0.445
		c0-0.203-0.149-0.422-0.445-0.656c-0.328-0.266-1.274-0.875-2.836-1.828c-0.267,0.594-0.743,1.297-1.43,2.109
		c-0.72,0.906-1.681,1.883-2.883,2.93c-1.359-1.531-2.508-3.406-3.445-5.625h13.664c0.422,0,0.633-0.141,0.633-0.422
		c0-0.313-0.274-0.695-0.82-1.148c-1.204-1.031-1.922-1.547-2.156-1.547c-0.267,0-0.954,0.641-2.063,1.922h-4.992v-4.43h7.008
		c0.422,0,0.633-0.141,0.633-0.422c0-0.313-0.258-0.68-0.773-1.102c-1.172-1.031-1.892-1.547-2.156-1.547
		c-0.22,0-0.844,0.625-1.875,1.875h-2.836v-3.844h7.828c0.405,0,0.609-0.141,0.609-0.422s-0.258-0.633-0.773-1.055
		c-1.204-1.031-1.922-1.547-2.156-1.547s-0.853,0.609-1.852,1.828h-3.656v-2.344c0.765-0.313,1.148-0.633,1.148-0.961
		c0-0.391-1.266-0.711-3.797-0.961c0.094,0.734,0.141,2.156,0.141,4.266h-6.141v-2.297c0.797-0.359,1.195-0.68,1.195-0.961
		c0-0.219-0.181-0.391-0.539-0.516c-0.516-0.172-1.634-0.336-3.352-0.492c0.141,1.016,0.211,2.438,0.211,4.266h-3.563
		c-1.204,0-2.329-0.109-3.375-0.328l0.492,1.805c1.078-0.188,2.054-0.281,2.93-0.281h3.516v3.844h-2.508
		c-1.063,0-2.165-0.125-3.305-0.375l0.469,1.852c1.031-0.188,1.976-0.281,2.836-0.281h2.508v4.43h-4.664
		c-1.172,0-2.297-0.094-3.375-0.281l0.492,1.711c1.078-0.156,2.054-0.234,2.93-0.234h6.492
		C24.015,81.709,22.601,83.037,20.789,84.412L20.789,84.412z M31.781,69.764v3.844h-6.141v-3.844H31.781z M31.781,74.803v4.43
		h-6.141v-4.43H31.781z M10.406,94.443c0,0.64,0.366,0.961,1.102,0.961c1.155,0,1.734-0.415,1.734-1.242l-0.141-8.109v-3.07
		c0.703-0.469,1.055-0.852,1.055-1.148c0-0.328-0.274-0.711-0.82-1.148c-0.876-0.734-1.423-1.102-1.641-1.102
		c-0.188,0-0.727,0.492-1.617,1.477H5.18c-1.017-0.625-2.056-1.172-3.117-1.641c0.155,1.344,0.234,3.664,0.234,6.961l-0.188,8.508
		c0,0.733,0.398,1.102,1.195,1.102c1.125,0,1.688-0.415,1.688-1.242v-1.734h5.414V94.443z M4.992,91.818v-9.563h5.414v9.563H4.992z
		 M19.828,57.67c-1.078,0-2.313-0.109-3.703-0.328L16.57,59.1c1.187-0.156,2.288-0.234,3.305-0.234h23.766
		c0.405,0,0.609-0.156,0.609-0.469c0-0.297-0.321-0.711-0.961-1.242c-1.298-1.094-2.079-1.641-2.344-1.641
		c-0.267,0-1.017,0.719-2.25,2.156h-8.367v-3.211c1.031-0.391,1.547-0.758,1.547-1.102c0-0.281-0.211-0.5-0.633-0.656
		c-0.609-0.219-1.892-0.438-3.844-0.656c0.141,1.156,0.211,2.219,0.211,3.188v2.438H19.828z M40.219,65.311
		c0.624,0.547,1.125,0.82,1.5,0.82c0.703,0,1.055-0.43,1.055-1.289c0-0.953-0.735-1.82-2.203-2.602
		c-1.781-0.938-4.353-1.609-7.711-2.016c-0.204-0.047-0.305,0.047-0.305,0.281c0,0.063,0.03,0.109,0.094,0.141
		C35.508,61.834,38.03,63.389,40.219,65.311L40.219,65.311z M4.852,56.803h9.539c0.422,0,0.633-0.156,0.633-0.469
		c0-0.281-0.305-0.664-0.914-1.148c-1.266-1.031-2.032-1.547-2.297-1.547c-0.298,0-0.97,0.656-2.016,1.969H4.852
		c-0.923,0-2.009-0.109-3.258-0.328l0.422,1.758C3.062,56.881,4.008,56.803,4.852,56.803L4.852,56.803z M3.305,63.201h11.859
		c0.422,0,0.633-0.141,0.633-0.422c0-0.297-0.29-0.695-0.867-1.195c-1.266-1.031-2.032-1.547-2.297-1.547
		c-0.345,0-1.048,0.656-2.109,1.969H3.305c-1.188,0-2.29-0.109-3.305-0.328l0.469,1.758C1.468,63.279,2.414,63.201,3.305,63.201
		L3.305,63.201z M4.852,69.67h9.117c0.422,0,0.633-0.141,0.633-0.422c0-0.234-0.228-0.555-0.68-0.961
		c-1.298-1.094-2.063-1.641-2.297-1.641c-0.22,0-0.829,0.609-1.828,1.828H4.852c-0.97,0-2.056-0.109-3.258-0.328l0.469,1.805
		C3.312,69.764,4.242,69.67,4.852,69.67L4.852,69.67z M4.852,75.764h9.164c0.422,0,0.633-0.141,0.633-0.422
		c0-0.297-0.211-0.602-0.633-0.914c-1.345-1.094-2.126-1.641-2.344-1.641c-0.22,0-0.829,0.594-1.828,1.781H4.898
		c-1.142,0-2.243-0.094-3.305-0.281l0.469,1.711C3.108,75.842,4.038,75.764,4.852,75.764L4.852,75.764z M24.234,62.24
		c0.375,0.031,0.703,0.047,0.984,0.047c0.624,0,0.938-0.133,0.938-0.398c0-0.344-1.071-1.094-3.211-2.25
		c-0.454,0.797-1.142,1.609-2.063,2.438c-1.828,1.656-3.727,3-5.695,4.031c-0.079,0.047-0.117,0.125-0.117,0.234
		c0,0.266,0.094,0.398,0.281,0.398c0.015,0,0.03,0,0.047,0C18.804,65.662,21.75,64.162,24.234,62.24L24.234,62.24z"/>
	<path fill="#0D4482" d="M15.305,128.088c-0.188-0.781-0.281-1.711-0.281-2.789c0-3.578,0.609-6.875,1.828-9.891
		c0.218-0.563,0.476-1.07,0.773-1.523c0.218-0.406,0.328-0.844,0.328-1.313c0-1.031-0.29-2.023-0.867-2.977
		c-0.36-0.594-0.829-1.133-1.406-1.617c-0.626-0.547-1.102-0.82-1.43-0.82c-0.392,0-0.586,0.125-0.586,0.375
		c0,0.266,0.094,0.492,0.281,0.68c0.656,0.688,0.984,1.742,0.984,3.164c0,1.031-0.243,2.695-0.727,4.992
		c-0.673,3.375-1.008,6.336-1.008,8.883c0,2.453,0.211,4.438,0.633,5.953c0.234,0.844,0.563,1.539,0.984,2.086
		c0.469,0.625,0.938,0.938,1.406,0.938c0.733,0,1.102-0.398,1.102-1.195c0-0.313-0.047-0.711-0.141-1.195
		c-0.063-0.563-0.094-0.984-0.094-1.266c0-1.281,0.305-2.992,0.914-5.133c1.296-4.453,2.702-7.82,4.219-10.102
		c0.765-1.219,1.53-1.828,2.297-1.828c1.125,0,2.063,0.859,2.813,2.578c0.938,2.125,1.406,5.148,1.406,9.07
		c0,4.563-1.048,8.555-3.141,11.977c-2.329,3.797-5.742,6.641-10.242,8.531c-0.485,0.203-0.727,0.406-0.727,0.609
		c0,0.453,0.164,0.68,0.492,0.68c0.188,0,0.522-0.078,1.008-0.234c4.624-1.531,8.25-3.906,10.875-7.125
		c3.108-3.828,4.664-8.703,4.664-14.625c0-3.469-0.579-6.414-1.734-8.836c-1.329-2.781-3.056-4.172-5.18-4.172
		c-1.095,0-2.165,0.656-3.211,1.969c-1.406,1.734-2.829,4.648-4.266,8.742c-0.094,0.313-0.384,1.156-0.867,2.531
		c-0.392,1.156-0.696,2.117-0.914,2.883H15.305z"/>
</g>
</svg>
