<?xml version="1.0" encoding="utf-8"?>
<!-- Generator: Adobe Illustrator 14.0.0, SVG Export Plug-In . SVG Version: 6.00 Build 43363)  -->
<!DOCTYPE svg PUBLIC "-//W3C//DTD SVG 1.1 Basic//EN" "http://www.w3.org/Graphics/SVG/1.1/DTD/svg11-basic.dtd">
<svg version="1.1" baseProfile="basic" id="レイヤー_1"
	 xmlns="http://www.w3.org/2000/svg" xmlns:xlink="http://www.w3.org/1999/xlink" x="0px" y="0px" width="290.601px"
	 height="303.99px" viewBox="0 0 290.601 303.99" xml:space="preserve">
<g>
	<path fill="#0D4482" d="M265.453,8.953c0.375-0.844,0.71-1.383,1.008-1.617c0.452-0.343,0.68-0.797,0.68-1.359
		c0-0.484-0.274-0.945-0.82-1.383c-0.516-0.422-1.188-0.797-2.016-1.125c-0.86-0.343-1.532-0.516-2.017-0.516
		c-0.327,0-0.758,0.079-1.288,0.234c-0.454,0.204-0.68,0.414-0.68,0.633c0,0.204,0.272,0.36,0.82,0.469
		c1.53,0.328,2.297,1.055,2.297,2.18c0,0.531-0.157,1.359-0.469,2.484c-0.345,1.281-0.798,2.711-1.36,4.289
		c-2.671,0.829-4.844,1.242-6.515,1.242c-1.641,0-3.009-0.367-4.102-1.102c-0.454-0.296-0.75-0.445-0.892-0.445
		c-0.359,0-0.538,0.18-0.538,0.539c0,0.531,0.46,1.125,1.383,1.781c1.202,0.891,2.757,1.336,4.663,1.336
		c1.391,0,3.102-0.242,5.134-0.727c-2.845,7.891-5.915,15.094-9.211,21.609c-0.157,0.375-0.235,0.695-0.235,0.961
		c0,0.391,0.109,0.75,0.329,1.078c0.265,0.313,0.633,0.469,1.101,0.469c0.672,0,1.188-0.398,1.548-1.195
		c1.781-4.093,4.741-11.938,8.883-23.531c2.749-0.75,5.367-1.585,7.852-2.508c1.125-0.437,1.688-0.984,1.688-1.641
		c0-0.343-0.149-0.633-0.445-0.867c-0.281-0.218-0.626-0.328-1.031-0.328c-0.454,0-1.228,0.258-2.32,0.773
		c-1.563,0.735-3.181,1.375-4.853,1.922C264.812,10.532,265.28,9.313,265.453,8.953L265.453,8.953z M268.242,29.508
		c0-0.25-0.11-0.375-0.329-0.375c-0.327,0-0.617,0.29-0.867,0.867c-0.578,1.266-0.866,2.446-0.866,3.539
		c0,0.906,0.249,1.797,0.75,2.672c0.546,0.984,1.304,1.773,2.273,2.367c1.937,1.188,4.897,1.781,8.883,1.781
		c1.952,0,3.694-0.109,5.227-0.328c0.765-0.109,1.296-0.273,1.594-0.492c0.312-0.219,0.469-0.57,0.469-1.055
		c0-0.625-0.321-1.07-0.962-1.336c-0.484-0.188-0.977-0.281-1.476-0.281c-0.609,0-1.267,0.094-1.969,0.281
		c-1.376,0.313-2.845,0.469-4.406,0.469c-2.985,0-5.118-0.335-6.399-1.008c-1.625-0.844-2.438-2.156-2.438-3.938
		c0-0.844,0.102-1.625,0.306-2.344C268.171,29.829,268.242,29.555,268.242,29.508L268.242,29.508z M273.094,23.227
		c-0.298,0.281-0.445,0.485-0.445,0.609c0,0.266,0.108,0.398,0.327,0.398c0.235,0,0.493-0.078,0.774-0.234
		c2.655-1.796,4.272-2.82,4.851-3.07c0.625-0.296,1.173-0.445,1.642-0.445c0.077,0,0.155,0,0.233,0c0.266,0,0.695,0.094,1.29,0.281
		c0.422,0.156,0.772,0.234,1.055,0.234c0.718,0.063,1.101-0.273,1.148-1.008c0.047-0.718-0.398-1.304-1.336-1.758
		c-1.095-0.516-2.602-0.828-4.524-0.938c-0.297-0.015-0.57-0.023-0.82-0.023c-3.531,0-6.555,0.93-9.069,2.789
		c-0.251,0.204-0.375,0.43-0.375,0.68c0,0.219,0.132,0.328,0.398,0.328c0.155,0,0.328-0.039,0.516-0.117
		c2.063-1.109,4.617-1.664,7.663-1.664c0.282,0,0.531,0.008,0.75,0.023c0.219,0.016,0.329,0.063,0.329,0.141
		c0,0.079-0.094,0.196-0.281,0.352C274.858,21.742,273.483,22.883,273.094,23.227L273.094,23.227z"/>
	<path fill="#0D4482" d="M281.555,55.742c0,0.234,0.062,0.398,0.188,0.492c1.781,1.078,3.094,2.359,3.938,3.844
		c0.53,0.859,1.062,1.289,1.594,1.289c0.265,0,0.499-0.102,0.702-0.305c0.266-0.25,0.399-0.578,0.399-0.984
		c0-1.047-0.72-2.07-2.156-3.07c-1.095-0.75-2.235-1.281-3.423-1.594c-0.327-0.094-0.585-0.141-0.772-0.141
		C281.71,55.273,281.555,55.429,281.555,55.742L281.555,55.742z M277.476,58.765c0,0.188,0.095,0.352,0.282,0.492
		c1.641,1.203,2.827,2.5,3.563,3.891c0.546,1.047,1.078,1.57,1.593,1.57c0.798,0,1.195-0.461,1.195-1.383
		c0-0.969-0.688-2.008-2.063-3.117c-0.922-0.766-2.108-1.406-3.563-1.922c-0.093-0.031-0.25-0.047-0.468-0.047
		C277.655,58.25,277.476,58.421,277.476,58.765L277.476,58.765z M264.961,62.093c0.375-0.844,0.71-1.391,1.008-1.641
		c0.452-0.328,0.68-0.773,0.68-1.336c0-0.5-0.274-0.961-0.82-1.383c-0.516-0.422-1.188-0.797-2.016-1.125
		c-0.86-0.344-1.532-0.516-2.017-0.516c-0.327,0-0.758,0.078-1.288,0.234c-0.454,0.203-0.68,0.414-0.68,0.633
		c0,0.203,0.272,0.359,0.82,0.469c1.53,0.328,2.297,1.047,2.297,2.156c0,0.547-0.157,1.383-0.47,2.508
		c-0.344,1.266-0.796,2.688-1.358,4.266c-2.672,0.828-4.845,1.242-6.517,1.242c-1.64,0-3.008-0.367-4.101-1.102
		c-0.454-0.281-0.75-0.422-0.892-0.422c-0.359,0-0.538,0.172-0.538,0.516c0,0.547,0.46,1.141,1.383,1.781
		c1.202,0.891,2.757,1.336,4.664,1.336c1.374,0,3.085-0.234,5.133-0.703c-2.845,7.891-5.915,15.086-9.212,21.586
		c-0.156,0.375-0.233,0.695-0.233,0.961c0,0.406,0.108,0.766,0.328,1.078c0.265,0.312,0.633,0.469,1.101,0.469
		c0.672,0,1.188-0.398,1.548-1.195c1.765-4.078,4.726-11.922,8.882-23.531c2.734-0.734,5.352-1.563,7.853-2.484
		c1.125-0.438,1.688-0.984,1.688-1.641c0-0.359-0.149-0.648-0.445-0.867c-0.282-0.219-0.626-0.328-1.032-0.328
		c-0.453,0-1.227,0.258-2.319,0.773c-1.563,0.734-3.181,1.367-4.852,1.898C264.335,63.648,264.804,62.437,264.961,62.093
		L264.961,62.093z M267.75,82.648c0-0.266-0.11-0.398-0.329-0.398c-0.327,0-0.617,0.289-0.866,0.867
		c-0.579,1.266-0.867,2.453-0.867,3.563c0,0.906,0.249,1.797,0.75,2.672c0.546,0.984,1.304,1.773,2.273,2.367
		c1.937,1.188,4.897,1.781,8.883,1.781c1.952,0,3.694-0.11,5.227-0.328c0.765-0.11,1.296-0.273,1.593-0.492
		c0.313-0.219,0.47-0.57,0.47-1.055c0-0.641-0.321-1.094-0.962-1.359c-0.484-0.188-0.977-0.281-1.476-0.281
		c-0.595,0-1.251,0.094-1.97,0.281c-1.344,0.328-2.813,0.492-4.405,0.492c-2.985,0-5.118-0.336-6.399-1.008
		c-1.625-0.844-2.438-2.156-2.438-3.938c0-0.859,0.102-1.641,0.305-2.344C267.68,82.968,267.75,82.695,267.75,82.648L267.75,82.648z
		 M272.601,76.343c-0.297,0.297-0.444,0.508-0.444,0.633c0,0.25,0.108,0.375,0.327,0.375c0.235,0,0.492-0.078,0.774-0.234
		c2.64-1.797,4.257-2.82,4.851-3.07c0.625-0.297,1.173-0.445,1.642-0.445c0.077,0,0.155,0,0.233,0c0.282,0,0.711,0.102,1.29,0.305
		c0.422,0.156,0.772,0.234,1.055,0.234c0.718,0.063,1.102-0.273,1.147-1.008c0.048-0.734-0.397-1.32-1.335-1.758
		c-1.11-0.531-2.618-0.852-4.523-0.961c-0.298-0.016-0.571-0.023-0.821-0.023c-3.515,0-6.538,0.93-9.07,2.789
		c-0.25,0.203-0.375,0.43-0.375,0.68c0,0.219,0.133,0.328,0.399,0.328c0.155,0,0.328-0.031,0.516-0.094
		c2.063-1.125,4.617-1.688,7.664-1.688c0.281,0,0.53,0.008,0.75,0.023c0.218,0.016,0.328,0.063,0.328,0.141
		s-0.095,0.203-0.282,0.375C274.366,74.867,272.991,76,272.601,76.343L272.601,76.343z"/>
	<path fill="#0D4482" d="M290.601,134h-39.843v1.828h37.922v13.102h1.921V134z"/>
	<path fill="#0D4482" d="M284.226,181.44v1.008c0,0.672,0.367,1.008,1.103,1.008c1.155,0,1.734-0.414,1.734-1.242l-0.164-6.586
		v-2.391c0.78-0.516,1.172-0.914,1.172-1.195s-0.274-0.656-0.82-1.125c-0.907-0.766-1.485-1.148-1.734-1.148
		c-0.234,0-0.767,0.453-1.595,1.359h-7.383v-5.297h12.915c0.452,0,0.68-0.141,0.68-0.422s-0.352-0.719-1.055-1.313
		c-1.5-1.219-2.367-1.828-2.603-1.828c-0.266,0-1.063,0.789-2.39,2.367h-7.548v-3.844c1.032-0.438,1.548-0.836,1.548-1.195
		c0-0.25-0.22-0.453-0.656-0.609c-0.626-0.219-1.915-0.438-3.867-0.656c0.124,1.125,0.188,2.742,0.188,4.852v1.453h-7.922
		c-1.22,0-2.384-0.109-3.492-0.328l0.469,1.805c1.249-0.188,2.273-0.281,3.07-0.281h7.875v5.297h-6.962
		c-1.016-0.594-2.055-1.094-3.117-1.5c0.125,1.344,0.188,3.445,0.188,6.305l-0.14,6.75c0,0.609,0.382,0.914,1.148,0.914
		c1.093,0,1.641-0.383,1.641-1.148v-1.008H284.226z M273.233,172.323h4.22v7.922h-4.22V172.323z M266.508,180.245v-7.922h4.172
		v7.922H266.508z M280.008,180.245v-7.922h4.218v7.922H280.008z M264.82,162.479c0.422,0,0.633-0.156,0.633-0.469
		c0-0.266-0.321-0.688-0.961-1.266c-1.298-1.078-2.103-1.617-2.414-1.617c-0.234,0-0.954,0.719-2.157,2.156h-10.875
		c-1.077,0-2.266-0.109-3.563-0.328l0.47,1.758c0.999-0.156,2.016-0.234,3.047-0.234h0.188v28.734c-0.126,0-0.29,0.039-0.492,0.117
		c-1.032,0.234-1.992,0.391-2.883,0.469c0.983,2.844,1.671,4.266,2.063,4.266c0.452,0,0.741-0.586,0.867-1.758
		c3.218-1.359,6.164-2.883,8.836-4.57c-0.032,3.906-0.095,7.203-0.188,9.891c-0.032,0.905-0.047,1.406-0.047,1.5
		c0,0.827,0.429,1.242,1.289,1.242c1.218,0,1.828-0.501,1.828-1.5l-0.141-17.32v-21.07H264.82z M257.578,170.729h-5.648v-8.25h5.648
		V170.729z M257.578,171.925v7.641h-5.648v-7.641H257.578z M257.578,180.761v7.781c-1.626,0.656-3.509,1.313-5.648,1.969v-9.75
		H257.578z M286.57,195.011c0.171,0.828,0.366,1.391,0.586,1.688c0.218,0.328,0.546,0.492,0.984,0.492
		c0.422,0,0.788-0.195,1.102-0.586c0.358-0.438,0.539-1,0.539-1.688c0-0.984-0.438-2.055-1.313-3.211
		c-1.11-1.469-2.642-2.688-4.594-3.656c-0.047-0.031-0.094-0.047-0.142-0.047c-0.219,0-0.327,0.102-0.327,0.305
		c0,0.047,0.015,0.094,0.047,0.141C285.015,190.479,286.055,192.667,286.57,195.011L286.57,195.011z M276.773,188.448
		c0.327,0.859,0.772,1.289,1.335,1.289c0.438,0,0.798-0.164,1.079-0.492s0.421-0.758,0.421-1.289c0-0.859-0.484-1.688-1.452-2.484
		c-1.157-0.953-2.798-1.703-4.923-2.25c-0.233-0.047-0.351,0.047-0.351,0.281c0,0.063,0.015,0.109,0.047,0.141
		C274.694,184.956,275.976,186.558,276.773,188.448L276.773,188.448z M262.663,194.448c-0.796,0.563-1.194,1.141-1.194,1.734
		c0,1.078,0.554,1.617,1.664,1.617c0.921,0,1.688-0.594,2.297-1.781c0.687-1.297,1.031-2.906,1.031-4.828
		c0-1.016-0.087-1.883-0.258-2.602c-0.017-0.156-0.126-0.234-0.328-0.234c-0.173,0-0.267,0.063-0.281,0.188
		C265.202,191.261,264.226,193.229,262.663,194.448L262.663,194.448z M279.844,197.847c-0.328,0.297-0.72,0.5-1.173,0.609
		c-0.468,0.094-1.391,0.141-2.765,0.141c-1.36,0-2.282-0.125-2.766-0.375c-0.516-0.25-0.773-0.789-0.773-1.617v-7.969
		c1.062-0.484,1.594-0.883,1.594-1.195c0-0.266-0.181-0.461-0.54-0.586c-0.515-0.172-1.844-0.391-3.983-0.656
		c0.124,1.25,0.188,3.219,0.188,5.906l-0.094,4.805c0,1.438,0.343,2.461,1.031,3.07c0.812,0.733,2.382,1.102,4.711,1.102
		c3.14,0,5.288-0.181,6.445-0.539c1.28-0.422,1.922-1.063,1.922-1.922c0-0.563-0.243-0.93-0.728-1.102
		c-0.375-0.141-0.563-0.461-0.563-0.961c0-1.094,0.048-2.25,0.142-3.469c0-0.188-0.11-0.281-0.329-0.281
		c-0.125,0-0.21,0.063-0.257,0.188C281.077,195.776,280.39,197.394,279.844,197.847L279.844,197.847z"/>
	<path fill="#0D4482" d="M267.796,214.051c0,0.125,0.156,0.305,0.47,0.539c1.187,0.844,1.78,1.625,1.78,2.344
		c0,0.516-0.414,1.242-1.241,2.18c-3.204,3.516-6.517,7.352-9.938,11.508c-0.767,0.953-1.148,1.852-1.148,2.695
		c0,0.906,0.546,1.852,1.64,2.836c6.297,5.734,10.578,10.836,12.845,15.305c0.563,1.125,1.155,1.688,1.78,1.688
		c0.423,0,0.789-0.141,1.103-0.422c0.39-0.344,0.585-0.813,0.585-1.406c0-0.922-0.766-2.391-2.296-4.406
		c-2.829-3.656-7.024-7.805-12.587-12.445c-0.608-0.516-0.913-1.008-0.913-1.477c0-0.359,0.211-0.797,0.633-1.313
		c3.546-4.188,7.21-7.914,10.992-11.18c0.577-0.5,1.069-0.836,1.476-1.008c0.734-0.266,1.103-0.727,1.103-1.383
		c0-0.703-0.595-1.617-1.782-2.742c-1.281-1.219-2.46-1.828-3.538-1.828C268.116,213.535,267.796,213.707,267.796,214.051
		L267.796,214.051z"/>
	<path fill="#0D4482" d="M245.18,279.341h39.844v-1.828h-37.923v-13.102h-1.921V279.341z"/>
	<path fill="#0D4482" d="M191.211,9.319c0.375-0.39,0.968-0.695,1.781-0.914c0.64-0.203,0.961-0.523,0.961-0.961
		c0-0.671-0.579-1.523-1.734-2.555c-0.954-0.828-1.72-1.242-2.298-1.242c-0.438,0-0.789,0.196-1.054,0.586
		c-0.281,0.391-0.649,0.665-1.102,0.82c-1.438,0.531-3.853,1.281-7.242,2.25c-0.298,0.094-0.696,0.141-1.195,0.141
		c-0.984,0-1.884-0.563-2.695-1.688c-0.251-0.375-0.422-0.563-0.516-0.563c-0.392,0-0.586,0.29-0.586,0.867
		c0,0.735,0.352,1.656,1.055,2.766c0.687,1.094,1.406,1.641,2.156,1.641c0.375,0,0.788-0.125,1.241-0.375
		c2.767-1.375,5.727-2.593,8.884-3.656c0.265-0.062,0.429-0.094,0.491-0.094c0.125,0,0.188,0.047,0.188,0.141
		c0,0.125-0.063,0.274-0.188,0.445c-3.969,5.5-8.594,10.508-13.875,15.023c-2,1.688-3.89,2.531-5.671,2.531
		c-0.36,0-0.68-0.047-0.962-0.141c-0.156-0.062-0.344-0.094-0.563-0.094c-0.421,0-0.632,0.227-0.632,0.68
		c0,0.438,0.296,0.969,0.89,1.594c0.719,0.75,1.367,1.125,1.946,1.125c0.563,0,1.266-0.273,2.108-0.82
		c0.875-0.547,2.008-1.086,3.399-1.617c3.328-1.406,7.233-2.82,11.719-4.242c-1.813,1.438-3.267,2.992-4.36,4.664
		c-1.281,1.984-1.921,3.922-1.921,5.813c0,3.109,1.358,5.633,4.078,7.57c2.672,1.891,5.835,2.836,9.492,2.836
		c1.313,0,1.968-0.383,1.968-1.148c0-0.5-0.305-1.031-0.913-1.594c-0.72-0.641-1.485-0.961-2.297-0.961
		c-0.829,0-1.392-0.015-1.688-0.047c-2.032-0.234-3.853-0.835-5.461-1.805c-2.329-1.391-3.492-3.203-3.492-5.438
		c0-1.313,0.476-2.687,1.43-4.125c1.062-1.594,2.554-3.047,4.477-4.359c2.202-1.531,4.477-2.445,6.819-2.742
		c1.016-0.125,2.392-0.188,4.125-0.188c0.922,0,1.383-0.382,1.383-1.148c0-0.593-0.414-1.07-1.241-1.43
		c-0.797-0.328-1.728-0.492-2.789-0.492c-0.626,0-1.172,0.141-1.641,0.422c-0.563,0.328-1.345,0.633-2.344,0.914
		c-5.673,1.547-11.165,3.211-16.477,4.992l-0.047-0.141C181.569,18.796,186.366,14.382,191.211,9.319L191.211,9.319z"/>
	<path fill="#0D4482" d="M186.453,68.091c2.593-2.203,4.547-3.305,5.859-3.305c1.249,0,1.875,1.07,1.875,3.211
		c0,1.579-0.188,4.023-0.563,7.336c-0.422,3.75-0.633,7.016-0.633,9.797c0,3.547,1.741,5.32,5.227,5.32
		c2.063,0,3.984-0.828,5.765-2.484c1.859-1.719,3.344-3.852,4.454-6.398c0.094-0.234,0.141-0.406,0.141-0.516
		c0-0.39-0.228-0.586-0.68-0.586c-0.188,0-0.407,0.227-0.656,0.68c-1.017,1.766-2.297,3.29-3.844,4.57
		c-1.875,1.532-3.633,2.297-5.273,2.297c-0.907,0-1.563-0.195-1.969-0.586c-0.485-0.469-0.727-1.359-0.727-2.672
		c0-2.234,0.272-5.289,0.82-9.164c0.577-4.031,0.867-6.625,0.867-7.781c0-1.078-0.313-2.063-0.938-2.953
		c-0.86-1.234-2.071-1.852-3.634-1.852c-1.469,0-3.594,1.133-6.375,3.398c-1.953,1.594-4.688,4.219-8.202,7.875l0.094-1.641
		c0.671-1.515,1.343-2.719,2.016-3.609c0.312-0.375,0.468-0.664,0.468-0.867c0-0.281-0.14-0.563-0.421-0.844
		c-0.36-0.359-0.68-0.539-0.962-0.539c-0.219,0-0.477,0.055-0.772,0.164c0.093-2.265,0.241-4,0.445-5.203
		c0.14-0.844,0.39-1.414,0.75-1.711c0.327-0.234,0.492-0.57,0.492-1.008c0-0.625-0.548-1.344-1.641-2.156
		c-1.329-1-2.531-1.5-3.609-1.5c-0.891,0-1.336,0.211-1.336,0.633c0,0.344,0.194,0.563,0.586,0.656
		c1.562,0.454,2.343,1.532,2.343,3.234c0,2.406-0.046,4.992-0.14,7.758c-1.423,0.735-2.813,1.359-4.173,1.875
		c-0.766,0.25-1.297,0.375-1.593,0.375c-0.72,0-1.423-0.539-2.109-1.617c-0.235-0.359-0.415-0.539-0.539-0.539
		c-0.313,0-0.469,0.29-0.469,0.867c0,0.829,0.382,1.696,1.147,2.602c0.719,0.891,1.375,1.336,1.97,1.336
		c0.468,0,0.851-0.125,1.147-0.375c0.142-0.141,0.461-0.352,0.962-0.633c0.546-0.328,1.733-0.938,3.563-1.828
		c-0.094,1.984-0.157,3.156-0.188,3.516c-2.142,4.078-4.43,7.485-6.867,10.219c-0.938,1.063-1.579,1.766-1.922,2.109
		c-0.61,0.609-0.915,1.25-0.915,1.922c0,0.829,0.367,1.242,1.103,1.242c0.437,0,0.835-0.226,1.195-0.68
		c0.094-0.109,0.358-0.445,0.797-1.008c0.437-0.578,0.812-1.07,1.125-1.477c1.624,1.672,2.89,3.211,3.797,4.617
		c0.687,1.078,1.132,2.086,1.336,3.023c0.171,0.672,0.492,1.008,0.96,1.008c1.125,0,1.688-1.133,1.688-3.398
		c0-0.469-0.031-1.016-0.093-1.641c-0.079-0.906-0.126-1.531-0.141-1.875c-0.126-3.141-0.188-6.625-0.188-10.453
		C180.749,73.474,183.608,70.56,186.453,68.091L186.453,68.091z M175.953,77.935v3.305c0,1.579,0,3.977,0,7.195
		c0,0.156-0.07,0.234-0.211,0.234c-0.079,0-0.157-0.023-0.234-0.07c-1.86-1.594-3.313-2.914-4.359-3.961
		C173.258,81.7,174.858,79.466,175.953,77.935L175.953,77.935z"/>
	<path fill="#0D4482" d="M199.555,108.542c0,0.234,0.062,0.398,0.188,0.492c1.781,1.078,3.094,2.359,3.938,3.844
		c0.53,0.859,1.062,1.289,1.594,1.289c0.265,0,0.499-0.102,0.702-0.305c0.266-0.25,0.399-0.578,0.399-0.984
		c0-1.047-0.72-2.07-2.156-3.07c-1.095-0.75-2.235-1.281-3.423-1.594c-0.327-0.094-0.585-0.141-0.772-0.141
		C199.71,108.073,199.555,108.229,199.555,108.542L199.555,108.542z M195.476,111.565c0,0.188,0.095,0.352,0.282,0.492
		c1.641,1.204,2.827,2.5,3.563,3.891c0.546,1.047,1.078,1.57,1.593,1.57c0.798,0,1.195-0.46,1.195-1.383
		c0-0.969-0.688-2.007-2.063-3.117c-0.922-0.765-2.108-1.406-3.563-1.922c-0.093-0.031-0.25-0.047-0.468-0.047
		C195.655,111.049,195.476,111.221,195.476,111.565L195.476,111.565z M182.961,114.893c0.375-0.844,0.71-1.391,1.008-1.641
		c0.452-0.328,0.68-0.773,0.68-1.336c0-0.5-0.274-0.961-0.82-1.383c-0.516-0.422-1.188-0.797-2.016-1.125
		c-0.86-0.343-1.532-0.516-2.017-0.516c-0.327,0-0.758,0.078-1.288,0.234c-0.454,0.203-0.68,0.414-0.68,0.633
		c0,0.203,0.272,0.36,0.82,0.469c1.53,0.328,2.297,1.047,2.297,2.156c0,0.547-0.157,1.383-0.47,2.508
		c-0.344,1.266-0.796,2.688-1.358,4.266c-2.672,0.829-4.845,1.242-6.517,1.242c-1.64,0-3.008-0.367-4.101-1.102
		c-0.454-0.281-0.75-0.422-0.892-0.422c-0.359,0-0.538,0.172-0.538,0.516c0,0.547,0.46,1.141,1.383,1.781
		c1.202,0.891,2.757,1.336,4.664,1.336c1.374,0,3.085-0.234,5.133-0.703c-2.845,7.891-5.915,15.086-9.212,21.586
		c-0.156,0.375-0.233,0.695-0.233,0.961c0,0.407,0.108,0.766,0.328,1.078c0.265,0.313,0.633,0.469,1.101,0.469
		c0.672,0,1.188-0.398,1.548-1.195c1.765-4.078,4.726-11.922,8.882-23.531c2.734-0.734,5.352-1.562,7.853-2.484
		c1.125-0.437,1.688-0.984,1.688-1.641c0-0.359-0.149-0.648-0.445-0.867c-0.282-0.219-0.626-0.328-1.032-0.328
		c-0.453,0-1.227,0.258-2.319,0.773c-1.563,0.735-3.181,1.368-4.852,1.898C182.335,116.448,182.804,115.237,182.961,114.893
		L182.961,114.893z M185.75,135.448c0-0.266-0.11-0.398-0.329-0.398c-0.327,0-0.617,0.289-0.866,0.867
		c-0.579,1.266-0.867,2.453-0.867,3.563c0,0.906,0.249,1.797,0.75,2.672c0.546,0.984,1.304,1.773,2.273,2.367
		c1.937,1.188,4.897,1.781,8.883,1.781c1.952,0,3.694-0.109,5.227-0.328c0.765-0.109,1.296-0.273,1.593-0.492
		c0.313-0.219,0.47-0.57,0.47-1.055c0-0.641-0.321-1.094-0.962-1.359c-0.484-0.188-0.977-0.281-1.476-0.281
		c-0.595,0-1.251,0.094-1.97,0.281c-1.344,0.328-2.813,0.492-4.405,0.492c-2.985,0-5.118-0.336-6.399-1.008
		c-1.625-0.844-2.438-2.156-2.438-3.938c0-0.859,0.102-1.641,0.305-2.344C185.68,135.768,185.75,135.495,185.75,135.448
		L185.75,135.448z M190.601,129.143c-0.297,0.297-0.444,0.508-0.444,0.633c0,0.25,0.108,0.375,0.327,0.375
		c0.235,0,0.492-0.078,0.774-0.234c2.64-1.796,4.257-2.82,4.851-3.07c0.625-0.296,1.173-0.445,1.642-0.445c0.077,0,0.155,0,0.233,0
		c0.282,0,0.711,0.102,1.29,0.305c0.422,0.156,0.772,0.234,1.055,0.234c0.718,0.063,1.102-0.273,1.147-1.008
		c0.048-0.734-0.397-1.32-1.335-1.758c-1.11-0.531-2.618-0.852-4.523-0.961c-0.298-0.015-0.571-0.023-0.821-0.023
		c-3.515,0-6.538,0.93-9.07,2.789c-0.25,0.203-0.375,0.43-0.375,0.68c0,0.219,0.133,0.328,0.399,0.328
		c0.155,0,0.328-0.031,0.516-0.094c2.063-1.125,4.617-1.688,7.664-1.688c0.281,0,0.53,0.008,0.75,0.023
		c0.218,0.016,0.328,0.063,0.328,0.141c0,0.079-0.095,0.203-0.282,0.375C192.366,127.667,190.991,128.8,190.601,129.143
		L190.601,129.143z"/>
	<path fill="#0D4482" d="M196.836,167.235c0.03-0.422,0.21-0.859,0.539-1.313c0.281-0.453,0.421-0.852,0.421-1.195
		c0-0.641-0.563-1.328-1.688-2.063c-1.358-0.828-2.477-1.242-3.351-1.242c-0.563,0-1.118,0.211-1.664,0.633
		c-0.423,0.281-0.633,0.547-0.633,0.797c0,0.203,0.194,0.305,0.585,0.305c1.109,0,1.891,0.164,2.345,0.492
		c0.483,0.359,0.733,1.039,0.75,2.039c0.03,0.719,0.054,1.672,0.07,2.859l0.094,3.375c-3.204,0.641-5.798,0.961-7.781,0.961
		c-1.376,0-2.673-0.352-3.891-1.055c-0.267-0.156-0.47-0.234-0.609-0.234c-0.36,0-0.54,0.195-0.54,0.586
		c0,0.219,0.095,0.422,0.282,0.609c1.53,1.438,3.305,2.156,5.32,2.156c1.594,0,3.999-0.266,7.219-0.797l0.046,5.906
		c0,5.375-0.75,9.375-2.25,12c-1.688,2.844-4.703,5.289-9.046,7.336c-0.313,0.141-0.469,0.328-0.469,0.563
		c0,0.391,0.171,0.586,0.515,0.586c0.203,0,0.54-0.078,1.008-0.234c4.75-1.688,8.094-3.992,10.032-6.914
		c1.796-2.719,2.695-6.547,2.695-11.484l-0.094-8.25c1.233-0.219,3.522-0.555,6.866-1.008c0.547-0.078,0.93-0.188,1.149-0.328
		c0.28-0.203,0.422-0.555,0.422-1.055c0-0.375-0.204-0.695-0.609-0.961c-0.485-0.328-1.095-0.492-1.828-0.492
		c-0.579,0-1.157,0.18-1.734,0.539c-0.454,0.25-1.017,0.453-1.688,0.609c-0.516,0.125-1.376,0.305-2.578,0.539
		C196.742,170.501,196.772,169.079,196.836,167.235L196.836,167.235z M178.788,179.563c0.031-0.078,0.048-0.156,0.048-0.234
		c0-0.328-0.134-0.492-0.398-0.492c-0.329,0-0.571,0.211-0.727,0.633c-1.142,2.875-2.282,5.992-3.423,9.352
		c-0.109,0.313-0.266,0.469-0.468,0.469c-0.234,0-0.399-0.203-0.492-0.609c-0.392-1.359-0.586-2.883-0.586-4.57
		c0-3.859,0.687-7.969,2.063-12.328c0.03-0.125,0.101-0.336,0.211-0.633c0.171-0.438,0.265-0.672,0.28-0.703
		c0.313-0.891,0.47-1.516,0.47-1.875c0-1.156-0.384-2.266-1.148-3.328c-0.375-0.484-0.821-0.977-1.336-1.477
		c-0.673-0.641-1.142-0.961-1.406-0.961c-0.422,0-0.633,0.109-0.633,0.328v0.164c0,0.156,0.046,0.313,0.141,0.469
		c0.905,1.453,1.359,2.688,1.359,3.703s-0.094,2.086-0.281,3.211c-1.125,5.922-1.688,10.234-1.688,12.938
		c0,3.828,0.656,7.156,1.969,9.984c0.546,1.156,1.233,1.734,2.063,1.734c0.827,0,1.241-0.477,1.241-1.43l-0.14-2.156
		c0-0.594,0.132-1.492,0.398-2.695C176.773,187.056,177.601,183.892,178.788,179.563L178.788,179.563z"/>
	<path fill="#0D4482" d="M199.766,226.273c0,0.234,0.062,0.391,0.188,0.469c1.78,1.078,3.093,2.367,3.938,3.867
		c0.516,0.859,1.038,1.289,1.57,1.289c0.312,0,0.574-0.125,0.785-0.375s0.316-0.555,0.316-0.914c0-1.063-0.72-2.094-2.156-3.094
		c-1.095-0.75-2.227-1.281-3.398-1.594c-0.328-0.094-0.587-0.141-0.774-0.141C199.921,225.781,199.766,225.945,199.766,226.273
		L199.766,226.273z M195.688,229.273c0,0.188,0.094,0.352,0.281,0.492c1.64,1.203,2.827,2.5,3.563,3.891
		c0.546,1.047,1.069,1.57,1.569,1.57c0.798,0,1.195-0.461,1.195-1.383c0-0.969-0.688-2.008-2.063-3.117
		c-0.922-0.766-2.102-1.406-3.538-1.922c-0.095-0.031-0.258-0.047-0.492-0.047C195.858,228.758,195.688,228.93,195.688,229.273
		L195.688,229.273z M197.586,218.539c-0.532,0.297-1.282,0.547-2.25,0.75c-2.36,0.609-5.735,1.477-10.125,2.602
		c-4.969,1.266-8.54,2.172-10.711,2.719c-1.406,0.359-2.431,0.539-3.07,0.539c-0.609,0.016-1.148-0.094-1.617-0.328
		c-0.438-0.219-0.97-0.672-1.594-1.359c-0.281-0.281-0.493-0.422-0.633-0.422c-0.313,0-0.469,0.305-0.469,0.914
		c0,0.719,0.429,1.633,1.289,2.742c1.125,1.313,2.18,1.969,3.164,1.969c0.563,0,1.108-0.18,1.641-0.539
		c1.031-0.594,2.218-1.133,3.563-1.617c3.375-1.219,7.664-2.594,12.867-4.125l0.093,0.141c-2.577,1.438-4.663,3.359-6.258,5.766
		c-1.875,2.797-2.813,5.805-2.813,9.023c0,3.797,1.391,6.852,4.173,9.164c1.374,1.188,3.202,2.148,5.484,2.883
		c2.28,0.734,4.453,1.102,6.516,1.102c1.468,0,2.202-0.414,2.202-1.242c0-0.75-0.383-1.328-1.147-1.734
		c-0.876-0.469-2.095-0.742-3.657-0.82c-1.313-0.016-2.656-0.242-4.03-0.68c-1.72-0.547-3.157-1.313-4.313-2.297
		c-2.173-1.734-3.258-4.328-3.258-7.781c0-2.547,0.905-5.055,2.718-7.523c1.97-2.672,4.29-4.469,6.962-5.391
		c2.625-0.953,5.733-1.484,9.328-1.594c1.046-0.047,1.57-0.477,1.57-1.289c0-0.656-0.431-1.133-1.29-1.43
		c-1-0.422-1.914-0.633-2.741-0.633C198.601,218.047,198.069,218.211,197.586,218.539L197.586,218.539z"/>
	<path fill="#0D4482" d="M100.258,12.465c0.422,0,0.633-0.141,0.633-0.422c0-0.313-0.29-0.711-0.867-1.195
		c-1.251-1.156-2.001-1.734-2.25-1.734c-0.251,0-0.938,0.719-2.063,2.156h-2.742V2.715c1.125-0.453,1.688-0.883,1.688-1.289
		c0-0.281-0.211-0.492-0.633-0.633c-0.609-0.203-2.016-0.422-4.219-0.656c0.188,1.422,0.281,3.484,0.281,6.188v4.945h-4.453
		c-0.97,0-2.063-0.117-3.281-0.352l0.445,1.828c1.249-0.188,2.21-0.281,2.883-0.281h4.078c-1.453,7.031-4.329,13.758-8.625,20.18
		c-0.017,0.031-0.023,0.063-0.023,0.094c0,0.281,0.147,0.422,0.445,0.422c0.047,0,0.085-0.016,0.117-0.047
		c3.563-3.844,6.445-8.25,8.648-13.219c-0.11,7.938-0.258,14.609-0.445,20.016c-0.047,1.656-0.07,2.585-0.07,2.789
		c0,0.734,0.413,1.102,1.242,1.102c1.28,0,1.922-0.445,1.922-1.336V17.833c1.468,1.328,2.655,3.391,3.563,6.188
		c0.375,1.25,0.882,1.875,1.523,1.875c1.031,0,1.547-0.625,1.547-1.875c0-1.063-0.462-2.18-1.383-3.352
		c-1.204-1.516-2.953-2.781-5.25-3.797v-4.406H100.258z M119.313,42.278c0,0.703,0.445,1.055,1.336,1.055
		c1.219,0,1.828-0.43,1.828-1.289l-0.234-23.625V5.95c0.891-0.547,1.336-0.977,1.336-1.289c0-0.25-0.29-0.625-0.867-1.125
		c-1.001-0.859-1.641-1.289-1.922-1.289c-0.22,0-0.82,0.531-1.805,1.594h-13.219c-1.282-0.766-2.478-1.359-3.586-1.781
		c0.188,1.828,0.281,7.281,0.281,16.359l-0.234,24.023c0,0.734,0.445,1.102,1.336,1.102c1.187,0,1.781-0.454,1.781-1.359v-2.203
		h13.969V42.278z M105.344,38.786V27.442h13.969v11.344H105.344z M105.344,26.247V16.215h13.969v10.031H105.344z M105.344,15.02
		V5.036h13.969v9.984H105.344z"/>
	<path fill="#0D4482" d="M115.375,56.794c0.718,0.234,1.296,0.352,1.734,0.352c0.546,0,0.82-0.156,0.82-0.469
		c0-0.375-1.142-1.484-3.422-3.328c-0.876,0.782-2.203,1.532-3.984,2.25c-2.938,1.188-6.337,2.258-10.195,3.211
		c-4.579,1.125-9.023,1.898-13.336,2.32c-0.126,0.032-0.188,0.149-0.188,0.352c0,0.25,0.077,0.375,0.234,0.375
		c5.421,0,10.515-0.453,15.281-1.359v8.367H89.734c-1.329,0-2.625-0.094-3.891-0.281l0.539,1.758
		c1.031-0.188,2.147-0.281,3.352-0.281h12.586v8.648H86.43c-1.172,0-2.423-0.125-3.75-0.375l0.469,1.852
		c0.968-0.188,2.063-0.281,3.281-0.281h15.891v11.672c0,0.563-0.274,0.844-0.82,0.844c-1.376,0-3.633-0.125-6.773-0.375
		c-0.157,0-0.234,0.117-0.234,0.352c0,0.188,0.062,0.297,0.188,0.328c1.905,0.375,3.272,0.758,4.102,1.148
		c0.844,0.406,1.327,0.914,1.453,1.523c0.141,0.641,0.382,0.961,0.727,0.961c0.891,0,1.758-0.211,2.602-0.633
		c1.313-0.703,1.969-1.743,1.969-3.117c0-0.359-0.017-1.602-0.047-3.727c-0.047-2.968-0.079-5.961-0.094-8.977h18.961
		c0.422,0,0.633-0.141,0.633-0.422c0-0.313-0.407-0.797-1.219-1.453c-1.547-1.281-2.438-1.922-2.672-1.922
		c-0.251,0-1.118,0.867-2.602,2.602h-13.102V70.06h16.5c0.422,0,0.633-0.141,0.633-0.422s-0.384-0.75-1.148-1.406
		c-1.579-1.281-2.478-1.922-2.695-1.922c-0.251,0-1.102,0.852-2.555,2.555h-10.734v-8.977
		C108.827,59.106,112.155,58.075,115.375,56.794L115.375,56.794z"/>
	<path fill="#0D4482" d="M104.523,115.356c0.452,0,0.882,0.016,1.289,0.047c3.469,0.172,6.343,1.234,8.625,3.188
		c2.702,2.313,4.055,5.391,4.055,9.234c0,4.016-1.649,7.375-4.945,10.078c-3.079,2.516-7.165,4.211-12.258,5.086
		c-0.548,0.125-0.82,0.383-0.82,0.773c0,0.359,0.234,0.539,0.703,0.539c0.03,0,0.07,0,0.117,0c5.046-0.281,9.405-1.531,13.078-3.75
		c4.858-2.922,7.289-6.891,7.289-11.906c0-4.046-1.345-7.445-4.031-10.195c-3.11-3.188-7.242-4.781-12.398-4.781
		c-5.595,0-10.235,1.727-13.922,5.18c-3.485,3.281-5.227,7.25-5.227,11.906c0,2.438,0.563,4.547,1.688,6.328
		c1.108,1.672,2.391,2.508,3.844,2.508c1.406,0,2.983-1.07,4.734-3.211c2.953-3.734,5.257-7.977,6.914-12.727
		c0.609-1.953,0.914-3.523,0.914-4.711c0-1.359-0.321-2.539-0.961-3.539C103.616,115.372,104.055,115.356,104.523,115.356
		L104.523,115.356z M102.297,117.606c0,1-0.228,2.148-0.68,3.445c-1.485,4.532-3.688,8.727-6.609,12.586
		c-1.406,1.859-2.531,2.789-3.375,2.789c-0.907,0-1.657-0.547-2.25-1.641c-0.767-1.484-1.148-3.102-1.148-4.852
		c0-3.688,1.296-6.852,3.891-9.492c2.531-2.593,5.733-4.211,9.609-4.852C102.109,115.965,102.297,116.637,102.297,117.606
		L102.297,117.606z"/>
	<path fill="#0D4482" d="M110.805,193.196c2.531,2.906,5.679,5.306,9.445,7.195c0.891,0.453,1.483,0.68,1.781,0.68
		c0.343,0,0.601-0.227,0.773-0.68c0.218-0.656,0.483-1.109,0.797-1.359c0.265-0.234,0.75-0.422,1.453-0.563
		c0.155-0.015,0.234-0.102,0.234-0.258c0-0.141-0.063-0.226-0.188-0.258c-4.751-1.25-8.798-3.336-12.141-6.258
		c-0.75-0.656-1.453-1.359-2.109-2.109c2.655-1.219,5.327-2.897,8.016-5.039c0.53,0.063,0.944,0.094,1.242,0.094
		c0.609,0,0.914-0.164,0.914-0.492c0-0.249-0.181-0.53-0.539-0.844c-0.454-0.39-1.523-1.125-3.211-2.203
		c-0.532,1.017-1.188,1.954-1.969,2.813c-1.313,1.547-3.023,3.18-5.133,4.898c-1.985-2.499-3.649-5.602-4.992-9.305h19.641
		c0.422,0,0.633-0.141,0.633-0.422c0-0.313-0.368-0.781-1.102-1.406c-1.438-1.187-2.32-1.781-2.648-1.781
		c-0.234,0-1.04,0.806-2.414,2.414h-14.391v-5.578h15.258c0.422,0,0.633-0.141,0.633-0.422c0-0.328-0.321-0.741-0.961-1.242
		c-1.438-1.125-2.267-1.688-2.484-1.688c-0.251,0-0.978,0.719-2.18,2.156h-10.266v-5.227h18.094c0.422,0,0.633-0.141,0.633-0.422
		c0-0.249-0.352-0.671-1.055-1.266c-1.5-1.219-2.384-1.828-2.648-1.828c-0.267,0-1.048,0.773-2.344,2.32h-12.68v-3.773
		c1.125-0.453,1.688-0.882,1.688-1.289c0-0.281-0.228-0.5-0.68-0.656c-0.626-0.219-2.032-0.445-4.219-0.68
		c0.155,1.219,0.234,3.352,0.234,6.398H88.305c-1.251,0-2.438-0.108-3.563-0.328l0.539,1.805c1.233-0.188,2.241-0.281,3.023-0.281
		h13.617v5.227H90.508c-1.204,0-2.337-0.094-3.398-0.281l0.422,1.805c0.999-0.219,2.007-0.328,3.023-0.328h11.367v5.578H85.656
		c-1.266,0-2.461-0.094-3.586-0.281l0.422,1.758c1.031-0.188,2.101-0.281,3.211-0.281h13.969
		c-4.095,4.969-10.001,9.188-17.719,12.656c-0.094,0.032-0.141,0.109-0.141,0.234c0,0.297,0.101,0.445,0.305,0.445
		c0.03,0,0.054,0,0.07,0c4.671-1.327,8.804-3.132,12.398-5.414v9.352c-1.235,0.22-2.454,0.414-3.656,0.586
		c-1.61,0.188-2.985,0.281-4.125,0.281c0.64,1.859,1.093,3.078,1.359,3.656c0.281,0.609,0.546,0.914,0.797,0.914
		c0.405,0,0.741-0.578,1.008-1.734c7.046-1.531,13.242-3.594,18.586-6.188c0.094-0.031,0.141-0.102,0.141-0.211
		c0-0.281-0.103-0.422-0.305-0.422c-0.017,0-0.04,0-0.07,0c-3.234,0.984-6.853,1.852-10.852,2.602v-10.852
		c2.124-1.641,4.187-3.609,6.188-5.906h0.281C105.578,185.274,107.866,189.837,110.805,193.196L110.805,193.196z"/>
	<path fill="#0D4482" d="M116.852,250.319c0,0.531-0.243,0.797-0.727,0.797c-1.157,0-2.915-0.07-5.273-0.211
		c-0.157,0-0.234,0.109-0.234,0.328c0,0.172,0.062,0.266,0.188,0.281c1.655,0.297,2.804,0.648,3.445,1.055
		c0.563,0.359,0.882,0.922,0.961,1.688c0.047,0.344,0.272,0.516,0.68,0.516c0.891,0,1.671-0.211,2.344-0.633
		c1.031-0.672,1.547-1.695,1.547-3.07l-0.141-11.18v-4.828c0.827-0.578,1.242-0.992,1.242-1.242c0-0.266-0.258-0.617-0.773-1.055
		c-1.001-0.828-1.626-1.242-1.875-1.242c-0.22,0-0.773,0.461-1.664,1.383h-14.742c-1.031-0.578-2.133-1.109-3.305-1.594
		c0.124,1.375,0.188,4.813,0.188,10.313l-0.188,12.445c0,0.703,0.413,1.055,1.242,1.055c1.219,0,1.828-0.445,1.828-1.336
		l-0.094-8.742h15.352V250.319z M101.5,243.851v-4.289h15.352v4.289H101.5z M101.5,238.366v-4.266h15.352v4.266H101.5z
		 M98.055,227.913c-1.11,0-2.203-0.094-3.281-0.281l0.492,1.758c1.202-0.188,2.116-0.281,2.742-0.281h27.211
		c0.405,0,0.609-0.148,0.609-0.445c0-0.281-0.29-0.672-0.867-1.172c-1.266-1.094-2.032-1.641-2.297-1.641
		c-0.267,0-1.001,0.688-2.203,2.063h-9.938v-4.43h11.672c0.405,0,0.609-0.141,0.609-0.422c0-0.234-0.274-0.602-0.82-1.102
		c-1.204-1.063-1.938-1.594-2.203-1.594c-0.267,0-0.923,0.641-1.969,1.922h-7.289v-4.125h13.969c0.422,0,0.633-0.141,0.633-0.422
		c0-0.313-0.305-0.719-0.914-1.219c-1.329-1.125-2.133-1.688-2.414-1.688c-0.267,0-0.97,0.711-2.109,2.133h-9.164v-3.188
		c1.062-0.516,1.594-0.93,1.594-1.242c0-0.266-0.228-0.477-0.68-0.633c-0.609-0.203-1.938-0.422-3.984-0.656
		c0.124,1.109,0.188,3.016,0.188,5.719h-8.438c-0.938,0-2.016-0.117-3.234-0.352l0.492,1.828c1.155-0.188,2.086-0.281,2.789-0.281
		h8.391v4.125h-6.563c-0.938,0-1.962-0.125-3.07-0.375l0.469,1.805c0.952-0.156,1.835-0.234,2.648-0.234h6.516v4.43H98.055z
		 M94.164,225.007c0.03,1.063,0.398,1.594,1.102,1.594c0.984,0,1.477-0.594,1.477-1.781c0-0.688-0.274-1.445-0.82-2.273
		c-0.688-1.047-1.641-1.938-2.859-2.672c-0.032-0.016-0.063-0.023-0.094-0.023c-0.173,0-0.258,0.078-0.258,0.234
		c0,0.016,0,0.047,0,0.094C93.569,221.679,94.054,223.288,94.164,225.007L94.164,225.007z M82.492,228.101
		c-0.673,0.531-1.008,1.102-1.008,1.711c0,1.094,0.516,1.641,1.547,1.641c0.952,0,1.726-0.5,2.32-1.5
		c0.687-1.125,1.031-2.711,1.031-4.758c0-1.375-0.126-2.703-0.375-3.984c-0.032-0.141-0.141-0.211-0.328-0.211
		c-0.173,0-0.274,0.078-0.305,0.234C85.047,224.546,84.086,226.835,82.492,228.101L82.492,228.101z M92.875,212.397
		c0-0.281-0.228-0.492-0.68-0.633c-0.548-0.172-1.892-0.391-4.031-0.656c0.155,1.406,0.234,7.391,0.234,17.953l-0.234,24.867
		c0,0.797,0.445,1.195,1.336,1.195c1.28,0,1.922-0.461,1.922-1.383l-0.141-25.828V213.64
		C92.343,213.187,92.875,212.772,92.875,212.397L92.875,212.397z"/>
	<path fill="#0D4482" d="M117.484,267.217c0,0.25,0.062,0.414,0.188,0.492c1.765,1.078,3.077,2.359,3.938,3.844
		c0.516,0.859,1.038,1.289,1.57,1.289c0.265,0,0.499-0.102,0.703-0.305c0.265-0.249,0.398-0.578,0.398-0.984
		c0-1.047-0.72-2.07-2.156-3.07c-1.095-0.75-2.227-1.281-3.398-1.594c-0.328-0.094-0.586-0.141-0.773-0.141
		C117.64,266.748,117.484,266.904,117.484,267.217L117.484,267.217z M113.383,270.264c0,0.172,0.094,0.328,0.281,0.469
		c1.655,1.203,2.843,2.493,3.563,3.867c0.546,1.063,1.078,1.594,1.594,1.594c0.797,0,1.195-0.46,1.195-1.383
		c0-0.969-0.688-2.008-2.063-3.117c-0.923-0.766-2.109-1.406-3.563-1.922c-0.094-0.031-0.251-0.047-0.469-0.047
		C113.562,269.725,113.383,269.904,113.383,270.264L113.383,270.264z M121.023,284.818c-2.063-2.609-4.556-4.523-7.477-5.742
		c-0.188-0.094-0.415-0.141-0.68-0.141c-0.281,0-0.422,0.173-0.422,0.516c0,0.22,0.094,0.398,0.281,0.539
		c1.937,1.219,3.593,2.656,4.969,4.313c1.515,1.828,2.273,3.383,2.273,4.664c0,0.344-0.228,0.578-0.68,0.703
		c-1.078,0.328-2.962,0.75-5.648,1.266c-0.36,0.078-0.539,0.266-0.539,0.563c0,0.391,0.188,0.586,0.563,0.586c0.03,0,0.07,0,0.117,0
		c1.828-0.125,3.687-0.188,5.578-0.188c0.671,0,1.195,0.125,1.57,0.375c0.358,0.219,0.78,0.328,1.266,0.328
		c0.952,0,1.43-0.609,1.43-1.828C123.625,288.99,122.758,287.006,121.023,284.818L121.023,284.818z M102.016,274.271
		c0.405-0.858,0.804-1.391,1.195-1.594c0.452-0.188,0.68-0.507,0.68-0.961c0-0.844-0.571-1.608-1.711-2.297
		c-1.188-0.734-2.344-1.102-3.469-1.102c-0.86,0-1.47,0.125-1.828,0.375c-0.251,0.172-0.375,0.336-0.375,0.492
		c0,0.234,0.179,0.375,0.539,0.422c0.75,0.047,1.421,0.234,2.016,0.563c0.687,0.391,1.031,0.828,1.031,1.313
		c0,0.547-0.126,1.203-0.375,1.969c-0.626,1.922-1.359,3.828-2.203,5.719c-1.11,0.313-3.032,0.836-5.766,1.57
		c-1.47,0.422-2.595,0.633-3.375,0.633c-0.938,0-1.72-0.547-2.344-1.641c-0.188-0.313-0.328-0.469-0.422-0.469
		c-0.36,0-0.539,0.367-0.539,1.102c0.047,0.984,0.64,2.023,1.781,3.117c0.656,0.609,1.327,0.914,2.016,0.914
		c0.312,0,0.647-0.125,1.008-0.375c0.499-0.328,1.108-0.617,1.828-0.867c2.109-0.844,3.741-1.453,4.898-1.828
		c-2.642,5.609-6.392,12.203-11.25,19.781c-0.281,0.406-0.422,0.82-0.422,1.242c0,0.797,0.46,1.195,1.383,1.195
		c0.593,0,1.031-0.258,1.313-0.773c3.812-6.453,7.647-13.828,11.508-22.125c1.483-0.531,2.749-0.797,3.797-0.797
		c1.89,0,2.836,1.438,2.836,4.313c0,2.547-0.445,5.359-1.336,8.438c-1.048,3.375-2.203,5.758-3.469,7.148
		c-0.516,0.516-1.11,0.773-1.781,0.773c-0.516,0-0.931-0.078-1.242-0.234c-1.078-0.547-2.423-1.398-4.031-2.555
		c-0.22-0.156-0.384-0.234-0.492-0.234c-0.281,0-0.422,0.164-0.422,0.492c0,0.156,0.062,0.297,0.188,0.422
		c1.343,1.266,2.241,2.195,2.695,2.789c0.375,0.469,0.616,0.93,0.727,1.383c0.218,0.938,0.788,1.406,1.711,1.406
		c1.374,0,2.702-0.641,3.984-1.922c1.594-1.438,2.906-3.711,3.938-6.82c0.483-1.344,0.914-2.961,1.289-4.852
		c0.422-2.141,0.633-3.914,0.633-5.32c0-4.516-1.664-6.773-4.992-6.773c-0.876,0-1.898,0.109-3.07,0.328
		C100.328,278.131,100.968,276.678,102.016,274.271L102.016,274.271z"/>
	<path fill="#0D4482" d="M20.836,34.711C15.413,38.54,8.71,41.305,0.727,43.008c-0.094,0.016-0.141,0.094-0.141,0.234
		c0,0.328,0.108,0.477,0.328,0.445c8.968-1.156,16.28-3.609,21.938-7.359c1.155,0.859,2.515,1.696,4.078,2.508
		c3.999,2.141,8.133,3.5,12.398,4.078c0.249,0.031,0.539,0.047,0.867,0.047c0.452,0,0.773-0.258,0.961-0.773
		c0.437-1.219,1.155-1.938,2.156-2.156c0.155-0.047,0.234-0.156,0.234-0.328c0-0.125-0.063-0.188-0.188-0.188
		c-6.422-0.234-11.501-1.148-15.234-2.742c-1.001-0.422-2.165-0.984-3.492-1.688c2.733-2.094,5.194-4.461,7.383-7.102
		c1.313-0.234,1.969-0.57,1.969-1.008c0-0.25-0.243-0.601-0.727-1.055c-1.329-1.078-2.095-1.617-2.297-1.617
		c-0.188,0-0.767,0.477-1.734,1.43H17.039c0.546-0.671,1.093-1.406,1.641-2.203c1.313-0.047,1.969-0.289,1.969-0.727
		c0-0.484-1.298-1.156-3.891-2.016c-0.485,1.266-1.219,2.625-2.203,4.078c-1.345,1.922-3.126,3.844-5.344,5.766
		c-2.36,2.047-4.852,3.789-7.477,5.227c-0.063,0.047-0.094,0.117-0.094,0.211c0,0.281,0.108,0.422,0.328,0.422
		c0.015,0,0.038,0,0.07,0c5.233-2.016,9.577-4.852,13.031-8.508C16.945,30.703,18.867,32.945,20.836,34.711L20.836,34.711z
		 M16.031,26.93h13.102c-2.016,2.563-4.289,4.805-6.82,6.727c-2.595-1.828-4.781-3.961-6.563-6.398L16.031,26.93z M14.414,16.734
		c-1.298,2.484-3.931,4.836-7.898,7.055c-0.063,0.032-0.094,0.094-0.094,0.188c0,0.297,0.117,0.445,0.352,0.445
		c0.03,0,0.054,0,0.07,0c4.296-1.578,7.343-3.5,9.141-5.766C18,16.11,19.022,12.29,19.055,7.195h6.469v10.219
		c0,0.547-0.258,0.82-0.773,0.82c-1.125,0-2.531-0.102-4.219-0.305c-0.157-0.031-0.234,0.086-0.234,0.352
		c0,0.188,0.062,0.297,0.188,0.328c1.296,0.266,2.194,0.547,2.695,0.844c0.546,0.328,0.851,0.829,0.914,1.5
		c0.03,0.36,0.202,0.539,0.516,0.539c0.64,0,1.343-0.195,2.109-0.586c1.155-0.547,1.734-1.453,1.734-2.719l-0.141-5.672v-5.32
		h14.297c0.422,0,0.633-0.141,0.633-0.422s-0.384-0.75-1.148-1.406c-1.594-1.313-2.524-1.969-2.789-1.969
		c-0.267,0-1.165,0.867-2.695,2.602H22.969V2.602c1.125-0.437,1.688-0.875,1.688-1.313c0-0.25-0.234-0.453-0.703-0.609
		C23.28,0.461,21.882,0.234,19.758,0c0.155,1.047,0.234,2.118,0.234,3.211V6H4.5C3.094,6,1.812,5.891,0.656,5.672l0.492,1.805
		C2.147,7.289,3.265,7.195,4.5,7.195h11.719C16.172,11.336,15.569,14.516,14.414,16.734L14.414,16.734z M37.453,19.383
		c0.53,1.157,1.132,1.734,1.805,1.734c0.405,0,0.75-0.156,1.031-0.469c0.312-0.343,0.469-0.812,0.469-1.406
		c0-1.187-0.712-2.531-2.133-4.031c-1.688-1.766-3.984-3.375-6.891-4.828c-0.032-0.015-0.07-0.023-0.117-0.023
		c-0.251,0-0.375,0.133-0.375,0.398c0,0.047,0.015,0.094,0.047,0.141C33.991,13.398,36.047,16.227,37.453,19.383L37.453,19.383z
		 M6.07,18.844c1.624-1.594,3.094-3.57,4.406-5.93c1.202-0.141,1.805-0.414,1.805-0.82c0-0.406-1.313-1.078-3.938-2.016
		c-0.267,1.031-0.743,2.219-1.43,3.563c-1.828,3.547-4.118,6.469-6.867,8.766C0.015,22.453,0,22.5,0,22.547
		c0,0.281,0.132,0.422,0.398,0.422c0.03,0,0.062-0.008,0.094-0.023C2.726,21.665,4.585,20.297,6.07,18.844L6.07,18.844z"/>
	<path fill="#0D4482" d="M16.172,71.355c0.905-1.594,1.852-2.938,2.836-4.031c0.452-0.5,0.68-0.867,0.68-1.102
		c0-0.406-0.196-0.742-0.586-1.008c-0.328-0.188-0.633-0.281-0.914-0.281c-0.063,0-0.539,0.156-1.43,0.469
		c0.094-1.5,0.218-2.844,0.375-4.031c0.094-0.656,0.366-1.18,0.82-1.57c0.39-0.328,0.586-0.727,0.586-1.195
		c0-0.688-0.609-1.461-1.828-2.32c-1.251-0.797-2.29-1.195-3.117-1.195c-0.438,0-0.86,0.078-1.266,0.234
		c-0.469,0.156-0.703,0.32-0.703,0.492c0,0.344,0.141,0.547,0.422,0.609c0.999,0.25,1.671,0.523,2.016,0.82
		c0.39,0.328,0.586,0.891,0.586,1.688c0,2.078-0.032,4.594-0.094,7.547c-0.454,0.156-1.392,0.477-2.813,0.961
		c-1.142,0.406-2.079,0.727-2.813,0.961c-0.532,0.156-1.031,0.234-1.5,0.234c-0.688,0-1.392-0.477-2.109-1.43
		c-0.298-0.359-0.509-0.539-0.633-0.539c-0.281,0-0.422,0.273-0.422,0.82c0,0.781,0.413,1.695,1.242,2.742
		c0.656,0.828,1.296,1.242,1.922,1.242c0.483,0,0.882-0.164,1.195-0.492c0.328-0.281,0.844-0.586,1.547-0.914
		c1.796-0.813,3.211-1.391,4.242-1.734c0,0.813-0.04,2.016-0.117,3.609c-0.813,1.484-2.235,3.594-4.266,6.328
		c-2.016,2.719-4.078,5.281-6.188,7.688c-0.642,0.703-0.961,1.328-0.961,1.875c0,0.797,0.413,1.195,1.242,1.195
		c0.452,0,0.905-0.289,1.359-0.867c0.108-0.156,0.366-0.516,0.773-1.078c0.483-0.703,0.944-1.336,1.383-1.898
		c1.796,1.766,3.39,3.523,4.781,5.273c0.656,0.813,1.038,1.758,1.148,2.836c0.062,0.64,0.398,0.961,1.008,0.961
		c0.499,0,0.905-0.375,1.219-1.125c0.375-0.875,0.563-2.102,0.563-3.68l-0.141-5.039l-0.094-6.492c0-1,0.015-1.984,0.047-2.953
		c1.547-1.406,3.305-2.617,5.273-3.633c2.719-1.406,5.28-2.109,7.688-2.109c2.14,0,3.944,0.625,5.414,1.875
		c1.702,1.438,2.555,3.289,2.555,5.555c0,3.375-1.329,6.32-3.984,8.836c-2.642,2.484-6.204,4.273-10.688,5.367
		c-0.422,0.078-0.633,0.32-0.633,0.727c0,0.344,0.272,0.516,0.82,0.516c0.249,0,0.569-0.031,0.961-0.094
		c4.031-0.641,7.53-1.984,10.5-4.031c4.155-2.828,6.234-6.414,6.234-10.758c0-2.641-0.946-4.852-2.836-6.633
		c-2.095-2-4.781-3-8.063-3c-3.938,0-8.367,1.805-13.289,5.414L16.172,71.355z M14.156,76.652l-0.094,11.016
		c0,0.484-0.11,0.727-0.328,0.727c-0.157,0-0.524-0.227-1.102-0.68c-2.47-1.891-3.931-3.023-4.383-3.398
		C9.577,82.395,11.546,79.84,14.156,76.652L14.156,76.652z"/>
	<path fill="#0D4482" d="M23.859,139.914c-1.673-1.703-3.609-2.555-5.813-2.555c-1.235,0-2.259,0.305-3.07,0.914
		c-0.954,0.703-1.43,1.664-1.43,2.883c0,1.406,0.694,2.586,2.086,3.539c1.671,1.125,3.984,1.688,6.938,1.688
		c3.218,0,6.038-0.836,8.461-2.508c3.03-2.094,4.547-4.922,4.547-8.484c0-2.344-0.696-4.352-2.086-6.023
		c-1.907-2.297-4.798-3.445-8.672-3.445c-3.141,0-6.501,1.234-10.078,3.703l-0.094-0.047c7.983-8.906,12.101-13.484,12.352-13.734
		c0.938-0.953,1.734-1.515,2.391-1.688c0.609-0.156,0.914-0.492,0.914-1.008c0-0.641-0.548-1.328-1.641-2.063
		c-0.954-0.703-1.734-1.055-2.344-1.055c-0.392,0-0.727,0.141-1.008,0.422c-0.392,0.391-0.79,0.648-1.195,0.773
		c-2.923,0.859-5.071,1.445-6.445,1.758c-1.188,0.25-2.095,0.375-2.719,0.375c-0.782,0-1.556-0.5-2.32-1.5
		c-0.313-0.422-0.586-0.633-0.82-0.633c-0.281,0-0.422,0.258-0.422,0.773c0,0.859,0.429,1.82,1.289,2.883
		c0.921,1.125,1.819,1.688,2.695,1.688c0.312,0,0.71-0.211,1.195-0.633c0.218-0.188,0.633-0.398,1.242-0.633
		c2.531-0.969,5.109-1.891,7.734-2.766c0.141-0.047,0.258-0.07,0.352-0.07c0.155,0,0.234,0.055,0.234,0.164
		c0,0.079-0.056,0.196-0.164,0.352c-4.86,6.422-10.664,13.211-17.414,20.367c-0.642,0.703-0.961,1.313-0.961,1.828
		c0,0.407,0.155,0.758,0.469,1.055c0.328,0.328,0.703,0.492,1.125,0.492c0.499,0,0.882-0.18,1.148-0.539
		c1.313-1.672,2.429-2.93,3.352-3.773c3.671-3.297,7.46-4.945,11.367-4.945c1.89,0,3.499,0.508,4.828,1.523
		c1.812,1.391,2.719,3.477,2.719,6.258c0,1.563-0.524,3.094-1.57,4.594c-1.266,1.813-2.923,3.031-4.969,3.656
		C25.718,142.266,24.984,141.07,23.859,139.914L23.859,139.914z M21.609,144.18c-2.016,0-3.618-0.328-4.805-0.984
		c-1.142-0.641-1.711-1.406-1.711-2.297c0-0.563,0.179-1.031,0.539-1.406c0.452-0.5,1.132-0.75,2.039-0.75
		c1.015,0,2.069,0.461,3.164,1.383c1.296,1.078,2.163,2.359,2.602,3.844C23.046,144.109,22.437,144.18,21.609,144.18L21.609,144.18z
		"/>
</g>
</svg>
